<?xml version="1.0" encoding="utf-8"?>
<!-- Generator: Adobe Illustrator 22.1.0, SVG Export Plug-In . SVG Version: 6.00 Build 0)  -->
<svg version="1.1" id="Layer_1" xmlns="http://www.w3.org/2000/svg" xmlns:xlink="http://www.w3.org/1999/xlink" x="0px" y="0px"
	 viewBox="0 0 210 30.7" style="enable-background:new 0 0 210 30.7;" xml:space="preserve">
<style type="text/css">
	.st0{fill:none;stroke:#FFFFFF;stroke-miterlimit:10;}
	.st1{fill:#FFFFFF;}
</style>
<path class="st0" d="M206.2,30.2H3.8c-1.8,0-3.3-1.5-3.3-3.3v-23C0.5,2,2,0.5,3.8,0.5h202.4c1.8,0,3.3,1.5,3.3,3.3v23
	C209.5,28.7,208,30.2,206.2,30.2z"/>
<g>
	<polygon class="st1" points="176.9,15.3 176.9,9.4 182,12.4 187.2,15.3 182,18.3 176.9,21.3 	"/>
	<g>
		<path class="st1" d="M33.4,18.7v3.6h-1l-0.2-2.4h-7.8l-0.2,2.4h-1v-3.6h0.7c0.5-0.3,0.8-0.6,1.1-1c0.2-0.4,0.4-0.8,0.5-1.3
			c0.1-0.5,0.2-1.1,0.3-2l0.5-6.1h6v10.4H33.4z M30.8,18.7V9.5h-3.4l-0.4,5c-0.1,0.8-0.1,1.4-0.2,1.8c-0.1,0.5-0.2,0.9-0.4,1.3
			c-0.2,0.4-0.5,0.7-0.8,1.1H30.8z"/>
		<path class="st1" d="M39.8,18.8c-0.5,0.8-1.4,1.2-2.5,1.2c-0.8,0-1.5-0.2-1.9-0.7c-0.5-0.4-0.7-1.1-0.7-1.9c0-1,0.4-1.8,1.2-2.2
			s2.1-0.7,3.9-0.7V14c0-0.5-0.2-0.9-0.5-1.2s-0.8-0.4-1.4-0.4c-0.7,0-1.4,0.1-2,0.4l-0.3-1.1c0.8-0.4,1.6-0.6,2.5-0.6
			c0.9,0,1.7,0.2,2.2,0.7c0.6,0.5,0.8,1.1,0.8,2v6h-1.2V18.8z M36.8,16c-0.6,0.3-0.9,0.8-0.9,1.4c0,0.5,0.1,0.9,0.4,1.1
			c0.3,0.3,0.7,0.4,1.2,0.4c0.4,0,0.8-0.1,1.2-0.2c0.3-0.2,0.7-0.4,1-0.8v-2.4C38.4,15.6,37.4,15.7,36.8,16z"/>
		<path class="st1" d="M49.6,16.1c0.3,0.4,0.4,0.8,0.4,1.3c0,0.8-0.2,1.4-0.7,1.8c-0.5,0.4-1.1,0.6-2,0.6h-3.6v-8.6h3.2
			c0.8,0,1.4,0.2,1.9,0.6c0.5,0.4,0.7,1,0.7,1.7c0,0.4-0.1,0.8-0.3,1s-0.5,0.5-0.8,0.7C48.9,15.5,49.3,15.7,49.6,16.1z M45,15h1.9
			c0.4,0,0.8-0.1,1-0.3s0.4-0.5,0.4-0.9c0-0.4-0.1-0.8-0.4-1s-0.6-0.3-1.1-0.3H45V15z M48.3,18.4c0.2-0.2,0.4-0.6,0.4-1
			c0-0.4-0.1-0.8-0.4-1c-0.3-0.2-0.6-0.4-1.1-0.4H45v2.8h2.3C47.7,18.8,48.1,18.7,48.3,18.4z"/>
		<path class="st1" d="M56.9,19.9c-0.5,0.1-1,0.2-1.5,0.2c-1.2,0-2.1-0.4-2.8-1.2c-0.7-0.8-1-1.9-1-3.3c0-1.4,0.3-2.5,0.9-3.3
			c0.6-0.8,1.5-1.2,2.6-1.2c1.1,0,1.9,0.4,2.5,1.1s0.9,1.7,0.9,3c0,0.3,0,0.6-0.1,0.7h-5.6c0.1,0.9,0.3,1.7,0.7,2.2
			c0.4,0.5,1.1,0.7,1.9,0.7c0.8,0,1.5-0.2,2.1-0.6l0.5,1C57.7,19.5,57.3,19.7,56.9,19.9z M52.9,14.9h4.3c0-0.8-0.2-1.5-0.6-1.9
			c-0.4-0.5-0.9-0.7-1.6-0.7C53.7,12.3,53,13.2,52.9,14.9z"/>
		<path class="st1" d="M68.2,18.8v3.5h-1l-0.2-2.4h-6.2l-0.2,2.4h-1v-3.5h0.6c0.6-0.4,1-0.8,1.2-1.2c0.2-0.5,0.4-1.1,0.4-1.9
			l0.4-4.3h4.8v7.5H68.2z M65.7,18.8v-6.4h-2.3L63,15.8c-0.1,0.7-0.2,1.3-0.4,1.8c-0.2,0.4-0.5,0.9-0.9,1.2H65.7z"/>
		<path class="st1" d="M74.8,18.8c-0.5,0.8-1.4,1.2-2.5,1.2c-0.8,0-1.5-0.2-1.9-0.7c-0.5-0.4-0.7-1.1-0.7-1.9c0-1,0.4-1.8,1.2-2.2
			s2.1-0.7,3.9-0.7V14c0-0.5-0.2-0.9-0.5-1.2s-0.8-0.4-1.4-0.4c-0.7,0-1.4,0.1-2,0.4l-0.3-1.1c0.8-0.4,1.6-0.6,2.5-0.6
			c0.9,0,1.7,0.2,2.2,0.7c0.6,0.5,0.8,1.1,0.8,2v6h-1.2V18.8z M71.8,16c-0.6,0.3-0.9,0.8-0.9,1.4c0,0.5,0.1,0.9,0.4,1.1
			c0.3,0.3,0.7,0.4,1.2,0.4c0.4,0,0.8-0.1,1.2-0.2c0.3-0.2,0.7-0.4,1-0.8v-2.4C73.4,15.6,72.4,15.7,71.8,16z"/>
		<path class="st1" d="M80,17.8l4.2-6.5h1.3v8.6h-1.3v-6.5L80,19.9h-1.3v-8.6H80V17.8z M80.4,9.4c-0.4-0.4-0.7-1-0.8-1.7h0.9
			c0.1,0.4,0.3,0.7,0.5,0.9s0.7,0.3,1.1,0.3c0.9,0,1.5-0.4,1.7-1.2h0.9C84.7,8.5,84.4,9,84,9.4c-0.4,0.4-1,0.6-1.8,0.6
			C81.4,10,80.9,9.8,80.4,9.4z"/>
		<path class="st1" d="M95.8,18.8v3.5h-1l-0.2-2.4h-6.3v-8.6h1.3v7.5h3.8v-7.5h1.3v7.5H95.8z"/>
		<path class="st1" d="M102.4,19.9c-0.5,0.1-1,0.2-1.5,0.2c-1.2,0-2.1-0.4-2.8-1.2c-0.7-0.8-1-1.9-1-3.3c0-1.4,0.3-2.5,0.9-3.3
			c0.6-0.8,1.5-1.2,2.6-1.2c1.1,0,1.9,0.4,2.5,1.1s0.9,1.7,0.9,3c0,0.3,0,0.6-0.1,0.7h-5.6c0.1,0.9,0.3,1.7,0.7,2.2
			c0.4,0.5,1.1,0.7,1.9,0.7c0.8,0,1.5-0.2,2.1-0.6l0.5,1C103.3,19.5,102.8,19.7,102.4,19.9z M98.4,14.9h4.3c0-0.8-0.2-1.5-0.6-1.9
			c-0.4-0.5-0.9-0.7-1.6-0.7C99.2,12.3,98.5,13.2,98.4,14.9z"/>
		<path class="st1" d="M106.5,18.9c-0.7-0.8-1-1.9-1-3.3c0-0.9,0.2-1.7,0.5-2.4c0.3-0.7,0.7-1.2,1.3-1.6c0.6-0.4,1.2-0.6,2-0.6
			c0.4,0,0.8,0.1,1.3,0.2c0.4,0.1,0.8,0.3,1.2,0.5l-0.5,1c-0.7-0.4-1.3-0.6-2-0.6c-0.7,0-1.3,0.3-1.7,0.9c-0.4,0.6-0.6,1.4-0.6,2.4
			c0,1.1,0.2,1.9,0.6,2.5c0.4,0.6,1.1,0.9,1.9,0.9c0.6,0,1.3-0.2,1.9-0.5l0.5,1c-0.3,0.2-0.7,0.4-1.1,0.5c-0.4,0.1-0.9,0.2-1.4,0.2
			C108.1,20.1,107.2,19.7,106.5,18.9z"/>
		<path class="st1" d="M112.9,19.9l2.2-3.3c-1.1-0.4-1.6-1.2-1.6-2.6c0-0.8,0.3-1.5,0.8-2s1.2-0.7,2-0.7h3.1v8.6h-1.3v-3.2h-1.7
			l-2.1,3.2H112.9z M116.5,12.4c-0.5,0-0.9,0.1-1.2,0.4c-0.3,0.3-0.4,0.7-0.4,1.2c0,0.5,0.1,0.9,0.4,1.2c0.3,0.3,0.7,0.4,1.2,0.4
			h1.8v-3.2H116.5z"/>
		<path class="st1" d="M131.7,12.9c0.6,0.7,0.9,1.6,0.9,2.9c0,0.9-0.2,1.7-0.5,2.3c-0.3,0.6-0.7,1.1-1.3,1.5
			c-0.5,0.3-1.2,0.5-1.9,0.5c-1.1,0-2-0.4-2.6-1.2c-0.6-0.8-0.9-2-0.9-3.4c0-1.3,0.1-2.4,0.3-3.3c0.2-0.9,0.5-1.6,0.9-2.2
			c0.5-0.7,1.1-1.1,1.9-1.4c0.8-0.3,1.9-0.5,3.4-0.6l0.1,1.2c-1.3,0.1-2.2,0.3-2.9,0.5s-1.1,0.5-1.4,0.9c-0.4,0.5-0.6,1.3-0.8,2.3
			c0.7-0.6,1.5-0.9,2.4-0.9C130.3,12,131.1,12.3,131.7,12.9z M130.6,18.1c0.4-0.5,0.6-1.3,0.6-2.3c0-0.9-0.2-1.6-0.6-2.1
			c-0.4-0.4-0.9-0.7-1.7-0.7c-0.4,0-0.8,0.1-1.1,0.2s-0.7,0.3-1.1,0.6c0,0.3,0,0.8,0,1.5c0,2.3,0.7,3.5,2.2,3.5
			C129.6,18.9,130.2,18.7,130.6,18.1z"/>
		<path class="st1" d="M135.2,19c-0.6-0.8-0.9-1.9-0.9-3.3c0-1.5,0.3-2.6,0.9-3.4c0.6-0.8,1.5-1.2,2.6-1.2c1.1,0,2,0.4,2.6,1.1
			c0.6,0.8,0.9,1.9,0.9,3.4c0,1.5-0.3,2.6-0.9,3.3c-0.6,0.8-1.5,1.2-2.6,1.2C136.7,20.1,135.9,19.7,135.2,19z M139.5,18.1
			c0.4-0.6,0.6-1.4,0.6-2.5c0-1.1-0.2-1.9-0.6-2.5c-0.4-0.6-0.9-0.8-1.6-0.8c-0.7,0-1.3,0.3-1.7,0.8s-0.6,1.4-0.6,2.5
			c0,1.1,0.2,1.9,0.6,2.5s0.9,0.8,1.7,0.8S139.1,18.7,139.5,18.1z"/>
		<path class="st1" d="M145.4,17.7c-0.1,0.5-0.4,0.9-0.7,1.3c-0.3,0.4-0.9,0.7-1.5,1.1l-0.5-1c0.5-0.2,0.8-0.5,1.1-0.8
			c0.3-0.3,0.4-0.6,0.5-1c0.1-0.4,0.2-0.9,0.2-1.5l0.3-4.3h5.1v8.6h-1.3v-7.5h-2.6l-0.3,3.3C145.6,16.6,145.5,17.2,145.4,17.7z"/>
		<path class="st1" d="M152.7,11.3h1.3v3h1.6c2.1,0,3.1,0.9,3.1,2.7c0,0.9-0.3,1.6-0.9,2.1c-0.6,0.5-1.3,0.7-2.2,0.7h-2.9V11.3z
			 M153.9,18.8h1.6c0.6,0,1-0.1,1.3-0.4c0.3-0.3,0.5-0.7,0.5-1.3c0-1.1-0.6-1.6-1.8-1.6h-1.7V18.8z"/>
		<path class="st1" d="M165.3,11.3h1.3v7.5h3.2v-7.5h1.3v8.6h-10.3v-8.6h1.3v7.5h3.2V11.3z"/>
	</g>
</g>
</svg>
