<?xml version="1.0" encoding="utf-8"?>
<!-- Generator: Adobe Illustrator 22.1.0, SVG Export Plug-In . SVG Version: 6.00 Build 0)  -->
<svg version="1.1" id="Layer_1" xmlns="http://www.w3.org/2000/svg" xmlns:xlink="http://www.w3.org/1999/xlink" x="0px" y="0px"
	 viewBox="0 0 99.8 26.3" style="enable-background:new 0 0 99.8 26.3;" xml:space="preserve">
<style type="text/css">
	.st0{fill:#FFFFFF;}
</style>
<g>
	<path class="st0" d="M4.9,2.6H1.6v7.2H0V1h6.5v8.8H4.9V2.6z"/>
	<path class="st0" d="M10.7,9.9c-0.4,0-0.8-0.1-1.3-0.2C9,9.5,8.7,9.3,8.3,8.9C8,8.6,7.7,8.2,7.5,7.8c-0.2-0.5-0.3-1-0.3-1.5
		c0-0.6,0.1-1.1,0.3-1.6C7.7,4.2,8,3.9,8.3,3.6C8.6,3.2,9,3,9.4,2.8s0.8-0.2,1.3-0.2c0.5,0,0.9,0.1,1.3,0.3c0.4,0.2,0.7,0.4,1,0.7
		V2.7h1.6v7H13V8.8c-0.3,0.3-0.6,0.6-1,0.8C11.6,9.8,11.2,9.9,10.7,9.9z M11,8.4c0.3,0,0.6-0.1,0.8-0.2s0.5-0.3,0.7-0.5
		c0.2-0.2,0.3-0.4,0.4-0.7c0.1-0.3,0.2-0.5,0.2-0.9c0-0.3-0.1-0.6-0.2-0.8c-0.1-0.3-0.3-0.5-0.4-0.7c-0.2-0.2-0.4-0.4-0.7-0.5
		c-0.3-0.1-0.5-0.2-0.8-0.2c-0.3,0-0.6,0.1-0.8,0.2C9.9,4.3,9.6,4.5,9.5,4.7C9.3,4.9,9.1,5.1,9,5.4S8.8,5.9,8.8,6.2
		c0,0.3,0.1,0.6,0.2,0.9s0.3,0.5,0.5,0.7C9.6,8,9.9,8.1,10.1,8.2C10.4,8.4,10.7,8.4,11,8.4z"/>
	<path class="st0" d="M20.1,4.2h-2.9v5.5h-1.6v-7h6.2v7h-1.6V4.2z"/>
	<path class="st0" d="M22.4,9.8l1.2-2.5C23.3,7,23,6.7,22.9,6.4c-0.2-0.4-0.3-0.8-0.3-1.2c0-0.4,0.1-0.7,0.2-1
		c0.1-0.3,0.3-0.6,0.5-0.8c0.2-0.2,0.5-0.4,0.9-0.5c0.3-0.1,0.7-0.2,1.2-0.2h3v7h-1.6V7.6h-1.7l-1,2.1H22.4z M26.8,6.2V4.2h-1.4
		c-0.4,0-0.7,0.1-0.9,0.3s-0.3,0.4-0.3,0.7c0,0.2,0,0.3,0.1,0.4c0,0.1,0.1,0.2,0.2,0.3c0.1,0.1,0.2,0.2,0.4,0.2
		c0.1,0.1,0.3,0.1,0.6,0.1H26.8z"/>
	<path class="st0" d="M33.3,9.9c-0.5,0-0.9-0.1-1.3-0.3s-0.7-0.4-1-0.7V13h-1.6V2.7H31v0.9c0.2-0.3,0.6-0.6,1-0.8s0.8-0.3,1.3-0.3
		c0.4,0,0.9,0.1,1.3,0.2C35,3,35.3,3.2,35.7,3.6c0.3,0.3,0.6,0.7,0.8,1.1c0.2,0.5,0.3,1,0.3,1.6c0,0.6-0.1,1.1-0.3,1.5
		c-0.2,0.5-0.5,0.8-0.8,1.1c-0.3,0.3-0.7,0.6-1.1,0.7C34.1,9.8,33.7,9.9,33.3,9.9z M33,8.4c0.3,0,0.6-0.1,0.8-0.2
		c0.3-0.1,0.5-0.3,0.7-0.5c0.2-0.2,0.3-0.4,0.5-0.7c0.1-0.3,0.2-0.6,0.2-0.9c0-0.3-0.1-0.6-0.2-0.9c-0.1-0.3-0.3-0.5-0.5-0.7
		c-0.2-0.2-0.4-0.3-0.7-0.5c-0.3-0.1-0.5-0.2-0.8-0.2c-0.3,0-0.6,0.1-0.8,0.2c-0.3,0.1-0.5,0.3-0.7,0.5c-0.2,0.2-0.3,0.4-0.4,0.7
		c-0.1,0.3-0.2,0.5-0.2,0.8c0,0.3,0.1,0.6,0.2,0.9c0.1,0.3,0.2,0.5,0.4,0.7c0.2,0.2,0.4,0.4,0.7,0.5C32.4,8.4,32.7,8.4,33,8.4z"/>
	<path class="st0" d="M39.7,5.6h2.8c-0.1-0.4-0.4-0.8-0.7-1.1c-0.4-0.3-0.8-0.4-1.3-0.4c-0.4,0-0.8,0.1-1.1,0.3
		c-0.3,0.2-0.6,0.5-0.8,0.9l-1.4-0.7c0.3-0.6,0.7-1.1,1.3-1.4s1.2-0.5,2-0.5c0.5,0,1,0.1,1.5,0.3c0.4,0.2,0.8,0.4,1.2,0.8
		s0.6,0.7,0.8,1.2s0.3,0.9,0.3,1.5c0,0.5-0.1,1-0.3,1.4c-0.2,0.4-0.4,0.8-0.8,1.2c-0.3,0.3-0.7,0.6-1.2,0.8c-0.5,0.2-1,0.3-1.5,0.3
		c-0.4,0-0.8,0-1.1-0.1c-0.3-0.1-0.7-0.2-0.9-0.4c-0.3-0.2-0.5-0.4-0.8-0.6c-0.2-0.2-0.4-0.5-0.5-0.8l1.4-0.7
		c0.2,0.4,0.4,0.7,0.7,0.9s0.7,0.4,1.2,0.4c0.5,0,1-0.1,1.3-0.4s0.6-0.6,0.8-1.1h-2.9V5.6z"/>
	<path class="st0" d="M49,2.7l2.4,5.5h0.8v3h-1.4V9.8h-5.1v1.6h-1.4v-3H45l2.4-5.5H49z M46.6,8.3h3.1l-1.5-3.6L46.6,8.3z"/>
	<path class="st0" d="M57.3,7h-3v2.8h-1.6v-7h1.6v2.7h3V2.7h1.6v7h-1.6V7z"/>
	<path class="st0" d="M59.7,1c0-0.3,0.1-0.5,0.3-0.7C60.1,0.1,60.4,0,60.7,0c0.3,0,0.6,0.1,0.8,0.3c0.2,0.2,0.3,0.4,0.3,0.7
		c0,0.3-0.1,0.5-0.3,0.7C61.3,1.9,61,2,60.7,2c-0.3,0-0.6-0.1-0.8-0.3C59.8,1.6,59.7,1.3,59.7,1z M59.9,2.7h1.6v7h-1.6V2.7z"/>
	<path class="st0" d="M68.1,9.9c-0.7,0-1.3-0.1-1.8-0.3c-0.5-0.2-0.9-0.5-1.3-0.9l1.1-1c0.3,0.3,0.5,0.5,0.9,0.6
		c0.3,0.1,0.7,0.2,1,0.2c0.4,0,0.7-0.1,1-0.2s0.3-0.3,0.3-0.6c0-0.3-0.1-0.4-0.4-0.6c-0.2-0.1-0.6-0.2-1-0.2H67V5.5h1
		c0.4,0,0.7-0.1,0.9-0.2c0.2-0.1,0.3-0.3,0.3-0.5c0-0.2-0.1-0.4-0.3-0.5C68.7,4.1,68.4,4,68.1,4c-0.4,0-0.7,0.1-1,0.2
		c-0.3,0.1-0.5,0.3-0.8,0.6l-1.1-1c0.3-0.4,0.8-0.7,1.3-0.9c0.5-0.2,1.1-0.3,1.7-0.3c0.4,0,0.8,0,1.1,0.1c0.3,0.1,0.6,0.2,0.9,0.4
		c0.2,0.2,0.4,0.4,0.5,0.6c0.1,0.2,0.2,0.5,0.2,0.8c0,0.4-0.1,0.7-0.2,0.9S70.2,6,69.9,6.1c0.3,0.1,0.6,0.3,0.8,0.6s0.3,0.6,0.3,1
		c0,0.3-0.1,0.6-0.2,0.9s-0.3,0.5-0.6,0.7c-0.2,0.2-0.5,0.3-0.9,0.5C69,9.8,68.6,9.9,68.1,9.9z"/>
	<path class="st0" d="M75,9.9c-0.4,0-0.8-0.1-1.3-0.2c-0.4-0.2-0.8-0.4-1.1-0.7c-0.3-0.3-0.6-0.7-0.8-1.1c-0.2-0.5-0.3-1-0.3-1.5
		c0-0.6,0.1-1.1,0.3-1.6c0.2-0.5,0.5-0.8,0.8-1.1c0.3-0.3,0.7-0.5,1.1-0.7s0.8-0.2,1.3-0.2c0.5,0,0.9,0.1,1.3,0.3
		c0.4,0.2,0.7,0.4,1,0.7V2.7h1.6v7h-1.6V8.8c-0.3,0.3-0.6,0.6-1,0.8C75.8,9.8,75.4,9.9,75,9.9z M75.2,8.4c0.3,0,0.6-0.1,0.8-0.2
		s0.5-0.3,0.7-0.5c0.2-0.2,0.3-0.4,0.4-0.7c0.1-0.3,0.2-0.5,0.2-0.9c0-0.3-0.1-0.6-0.2-0.8c-0.1-0.3-0.3-0.5-0.4-0.7
		c-0.2-0.2-0.4-0.4-0.7-0.5c-0.3-0.1-0.5-0.2-0.8-0.2c-0.3,0-0.6,0.1-0.8,0.2c-0.3,0.1-0.5,0.3-0.7,0.5c-0.2,0.2-0.3,0.4-0.5,0.7
		s-0.2,0.5-0.2,0.9c0,0.3,0.1,0.6,0.2,0.9s0.3,0.5,0.5,0.7c0.2,0.2,0.4,0.3,0.7,0.5C74.6,8.4,74.9,8.4,75.2,8.4z"/>
	<path class="st0" d="M84.5,9.8L82,7h-0.6v2.8h-1.6v-7h1.6v2.7h0.5l2.4-2.7h1.9l-3,3.4l3.2,3.6H84.5z"/>
	<path class="st0" d="M89.4,9.9c-0.4,0-0.8-0.1-1.3-0.2c-0.4-0.2-0.8-0.4-1.1-0.7c-0.3-0.3-0.6-0.7-0.8-1.1c-0.2-0.5-0.3-1-0.3-1.5
		c0-0.6,0.1-1.1,0.3-1.6c0.2-0.5,0.5-0.8,0.8-1.1c0.3-0.3,0.7-0.5,1.1-0.7s0.8-0.2,1.3-0.2c0.5,0,0.9,0.1,1.3,0.3
		c0.4,0.2,0.7,0.4,1,0.7V2.7h1.6v7h-1.6V8.8c-0.3,0.3-0.6,0.6-1,0.8C90.3,9.8,89.8,9.9,89.4,9.9z M89.6,8.4c0.3,0,0.6-0.1,0.8-0.2
		s0.5-0.3,0.7-0.5c0.2-0.2,0.3-0.4,0.4-0.7c0.1-0.3,0.2-0.5,0.2-0.9c0-0.3-0.1-0.6-0.2-0.8c-0.1-0.3-0.3-0.5-0.4-0.7
		c-0.2-0.2-0.4-0.4-0.7-0.5c-0.3-0.1-0.5-0.2-0.8-0.2c-0.3,0-0.6,0.1-0.8,0.2c-0.3,0.1-0.5,0.3-0.7,0.5c-0.2,0.2-0.3,0.4-0.5,0.7
		s-0.2,0.5-0.2,0.9c0,0.3,0.1,0.6,0.2,0.9s0.3,0.5,0.5,0.7c0.2,0.2,0.4,0.3,0.7,0.5C89,8.4,89.3,8.4,89.6,8.4z"/>
	<path class="st0" d="M96.9,9.9c-0.7,0-1.3-0.1-1.8-0.3c-0.5-0.2-0.9-0.5-1.3-0.9l1.1-1c0.3,0.3,0.5,0.5,0.9,0.6
		c0.3,0.1,0.7,0.2,1,0.2c0.4,0,0.7-0.1,1-0.2s0.3-0.3,0.3-0.6c0-0.3-0.1-0.4-0.4-0.6c-0.2-0.1-0.6-0.2-1-0.2h-1.1V5.5h1
		c0.4,0,0.7-0.1,0.9-0.2C97.9,5.2,98,5,98,4.8c0-0.2-0.1-0.4-0.3-0.5C97.5,4.1,97.3,4,96.9,4c-0.4,0-0.7,0.1-1,0.2
		c-0.3,0.1-0.5,0.3-0.8,0.6l-1.1-1c0.3-0.4,0.8-0.7,1.3-0.9c0.5-0.2,1.1-0.3,1.7-0.3c0.4,0,0.8,0,1.1,0.1c0.3,0.1,0.6,0.2,0.9,0.4
		c0.2,0.2,0.4,0.4,0.5,0.6c0.1,0.2,0.2,0.5,0.2,0.8c0,0.4-0.1,0.7-0.2,0.9S99,6,98.7,6.1c0.3,0.1,0.6,0.3,0.8,0.6s0.3,0.6,0.3,1
		c0,0.3-0.1,0.6-0.2,0.9s-0.3,0.5-0.6,0.7c-0.2,0.2-0.5,0.3-0.9,0.5C97.8,9.8,97.4,9.9,96.9,9.9z"/>
</g>
<g>
	<path class="st0" d="M14.2,17.7l2.4,5.5h0.8v3h-1.4v-1.6h-5.1v1.6H9.4v-3h0.8l2.4-5.5H14.2z M11.8,23.3h3.1l-1.5-3.6L11.8,23.3z"/>
	<path class="st0" d="M20.8,24.9c-0.4,0-0.8-0.1-1.3-0.2c-0.4-0.2-0.8-0.4-1.1-0.7c-0.3-0.3-0.6-0.7-0.8-1.1c-0.2-0.5-0.3-1-0.3-1.5
		c0-0.6,0.1-1.1,0.3-1.6c0.2-0.5,0.5-0.8,0.8-1.1c0.3-0.3,0.7-0.5,1.1-0.7s0.8-0.2,1.3-0.2c0.5,0,0.9,0.1,1.3,0.3
		c0.4,0.2,0.7,0.4,1,0.7v-0.8h1.6v7h-1.6v-0.9c-0.3,0.3-0.6,0.6-1,0.8C21.7,24.8,21.2,24.9,20.8,24.9z M21,23.4
		c0.3,0,0.6-0.1,0.8-0.2s0.5-0.3,0.7-0.5c0.2-0.2,0.3-0.4,0.4-0.7c0.1-0.3,0.2-0.5,0.2-0.9c0-0.3-0.1-0.6-0.2-0.8
		c-0.1-0.3-0.3-0.5-0.4-0.7c-0.2-0.2-0.4-0.4-0.7-0.5c-0.3-0.1-0.5-0.2-0.8-0.2c-0.3,0-0.6,0.1-0.8,0.2c-0.3,0.1-0.5,0.3-0.7,0.5
		c-0.2,0.2-0.3,0.4-0.5,0.7s-0.2,0.5-0.2,0.9c0,0.3,0.1,0.6,0.2,0.9s0.3,0.5,0.5,0.7c0.2,0.2,0.4,0.3,0.7,0.5
		C20.5,23.4,20.7,23.4,21,23.4z"/>
	<path class="st0" d="M32.3,17.6h-3.8V16H34v1.4l-3,7.3h-1.7L32.3,17.6z"/>
	<path class="st0" d="M41.3,24.9c-0.5,0-1-0.1-1.4-0.3c-0.4-0.2-0.8-0.5-1.2-0.8s-0.6-0.7-0.8-1.2s-0.3-0.9-0.3-1.4
		c0-0.5,0.1-1,0.3-1.4c0.2-0.4,0.4-0.8,0.8-1.2s0.7-0.6,1.2-0.8c0.4-0.2,0.9-0.3,1.4-0.3c0.4,0,0.8,0.1,1.1,0.2s0.7,0.3,1,0.5
		c0.3,0.2,0.5,0.4,0.8,0.7c0.2,0.3,0.4,0.6,0.5,0.9l-1.5,0.6c-0.2-0.4-0.4-0.7-0.7-0.9c-0.3-0.2-0.7-0.3-1.1-0.3
		c-0.3,0-0.6,0.1-0.8,0.2c-0.3,0.1-0.5,0.3-0.7,0.5c-0.2,0.2-0.3,0.4-0.4,0.7s-0.2,0.5-0.2,0.8c0,0.3,0.1,0.6,0.2,0.8
		s0.2,0.5,0.4,0.7s0.4,0.3,0.7,0.5s0.5,0.2,0.8,0.2c0.5,0,0.8-0.1,1.2-0.4c0.3-0.2,0.6-0.6,0.7-0.9l1.5,0.6
		c-0.1,0.3-0.3,0.6-0.5,0.9c-0.2,0.3-0.5,0.5-0.8,0.7c-0.3,0.2-0.6,0.3-1,0.5C42.1,24.8,41.7,24.9,41.3,24.9z"/>
	<path class="st0" d="M48.4,24.9c-0.4,0-0.8-0.1-1.3-0.2c-0.4-0.2-0.8-0.4-1.1-0.7c-0.3-0.3-0.6-0.7-0.8-1.1c-0.2-0.5-0.3-1-0.3-1.5
		c0-0.6,0.1-1.1,0.3-1.6c0.2-0.5,0.5-0.8,0.8-1.1c0.3-0.3,0.7-0.5,1.1-0.7s0.8-0.2,1.3-0.2c0.5,0,0.9,0.1,1.3,0.3
		c0.4,0.2,0.7,0.4,1,0.7v-0.8h1.6v7h-1.6v-0.9c-0.3,0.3-0.6,0.6-1,0.8C49.3,24.8,48.9,24.9,48.4,24.9z M48.7,23.4
		c0.3,0,0.6-0.1,0.8-0.2s0.5-0.3,0.7-0.5c0.2-0.2,0.3-0.4,0.4-0.7c0.1-0.3,0.2-0.5,0.2-0.9c0-0.3-0.1-0.6-0.2-0.8
		c-0.1-0.3-0.3-0.5-0.4-0.7c-0.2-0.2-0.4-0.4-0.7-0.5c-0.3-0.1-0.5-0.2-0.8-0.2c-0.3,0-0.6,0.1-0.8,0.2c-0.3,0.1-0.5,0.3-0.7,0.5
		c-0.2,0.2-0.3,0.4-0.5,0.7s-0.2,0.5-0.2,0.9c0,0.3,0.1,0.6,0.2,0.9s0.3,0.5,0.5,0.7c0.2,0.2,0.4,0.3,0.7,0.5
		C48.1,23.4,48.4,23.4,48.7,23.4z"/>
	<path class="st0" d="M57.9,24.8L55.5,22h-0.6v2.8h-1.6v-7h1.6v2.7h0.5l2.4-2.7h1.9l-3,3.4l3.2,3.6H57.9z"/>
	<path class="st0" d="M62.8,24.9c-0.4,0-0.8-0.1-1.3-0.2c-0.4-0.2-0.8-0.4-1.1-0.7c-0.3-0.3-0.6-0.7-0.8-1.1c-0.2-0.5-0.3-1-0.3-1.5
		c0-0.6,0.1-1.1,0.3-1.6c0.2-0.5,0.5-0.8,0.8-1.1c0.3-0.3,0.7-0.5,1.1-0.7s0.8-0.2,1.3-0.2c0.5,0,0.9,0.1,1.3,0.3
		c0.4,0.2,0.7,0.4,1,0.7v-0.8h1.6v7h-1.6v-0.9c-0.3,0.3-0.6,0.6-1,0.8C63.7,24.8,63.3,24.9,62.8,24.9z M63.1,23.4
		c0.3,0,0.6-0.1,0.8-0.2s0.5-0.3,0.7-0.5c0.2-0.2,0.3-0.4,0.4-0.7c0.1-0.3,0.2-0.5,0.2-0.9c0-0.3-0.1-0.6-0.2-0.8
		c-0.1-0.3-0.3-0.5-0.4-0.7c-0.2-0.2-0.4-0.4-0.7-0.5c-0.3-0.1-0.5-0.2-0.8-0.2c-0.3,0-0.6,0.1-0.8,0.2c-0.3,0.1-0.5,0.3-0.7,0.5
		c-0.2,0.2-0.3,0.4-0.5,0.7S61,20.9,61,21.2c0,0.3,0.1,0.6,0.2,0.9s0.3,0.5,0.5,0.7c0.2,0.2,0.4,0.3,0.7,0.5
		C62.5,23.4,62.8,23.4,63.1,23.4z"/>
	<path class="st0" d="M67.7,17.7h3.2c0.8,0,1.4,0.2,1.9,0.5c0.4,0.3,0.7,0.8,0.7,1.4c0,0.7-0.3,1.2-0.9,1.5c0.7,0.3,1.1,0.9,1.1,1.6
		c0,0.6-0.2,1.1-0.7,1.5c-0.5,0.4-1.1,0.5-2,0.5h-3.3V17.7z M69.3,20.5H71c0.3,0,0.5-0.1,0.7-0.2c0.2-0.1,0.2-0.3,0.2-0.5
		c0-0.2-0.1-0.4-0.2-0.5c-0.2-0.1-0.4-0.2-0.7-0.2h-1.7V20.5z M69.3,23.4H71c0.3,0,0.6-0.1,0.7-0.2c0.2-0.1,0.3-0.3,0.3-0.6
		s-0.1-0.4-0.3-0.6s-0.4-0.2-0.8-0.2h-1.7V23.4z"/>
	<path class="st0" d="M74.2,16c0-0.3,0.1-0.5,0.3-0.7c0.2-0.2,0.4-0.3,0.7-0.3c0.3,0,0.6,0.1,0.8,0.3c0.2,0.2,0.3,0.4,0.3,0.7
		c0,0.3-0.1,0.5-0.3,0.7c-0.2,0.2-0.4,0.3-0.8,0.3c-0.3,0-0.6-0.1-0.8-0.3C74.3,16.6,74.2,16.3,74.2,16z M74.4,17.7H76v7h-1.6V17.7z
		"/>
	<path class="st0" d="M81.6,24.8L79.2,22h-0.6v2.8H77v-7h1.6v2.7h0.5l2.4-2.7h1.9l-3,3.4l3.2,3.6H81.6z"/>
	<path class="st0" d="M86.5,24.9c-0.4,0-0.8-0.1-1.3-0.2c-0.4-0.2-0.8-0.4-1.1-0.7c-0.3-0.3-0.6-0.7-0.8-1.1c-0.2-0.5-0.3-1-0.3-1.5
		c0-0.6,0.1-1.1,0.3-1.6c0.2-0.5,0.5-0.8,0.8-1.1c0.3-0.3,0.7-0.5,1.1-0.7s0.8-0.2,1.3-0.2c0.5,0,0.9,0.1,1.3,0.3
		c0.4,0.2,0.7,0.4,1,0.7v-0.8h1.6v7h-1.6v-0.9c-0.3,0.3-0.6,0.6-1,0.8C87.4,24.8,86.9,24.9,86.5,24.9z M86.7,23.4
		c0.3,0,0.6-0.1,0.8-0.2s0.5-0.3,0.7-0.5c0.2-0.2,0.3-0.4,0.4-0.7c0.1-0.3,0.2-0.5,0.2-0.9c0-0.3-0.1-0.6-0.2-0.8
		c-0.1-0.3-0.3-0.5-0.4-0.7c-0.2-0.2-0.4-0.4-0.7-0.5c-0.3-0.1-0.5-0.2-0.8-0.2c-0.3,0-0.6,0.1-0.8,0.2c-0.3,0.1-0.5,0.3-0.7,0.5
		c-0.2,0.2-0.3,0.4-0.5,0.7s-0.2,0.5-0.2,0.9c0,0.3,0.1,0.6,0.2,0.9s0.3,0.5,0.5,0.7c0.2,0.2,0.4,0.3,0.7,0.5
		C86.2,23.4,86.4,23.4,86.7,23.4z"/>
</g>
</svg>
