<?xml version="1.0" encoding="utf-8"?>
<!-- Generator: Adobe Illustrator 24.0.3, SVG Export Plug-In . SVG Version: 6.00 Build 0)  -->
<svg version="1.1" id="Слой_1" xmlns="http://www.w3.org/2000/svg" xmlns:xlink="http://www.w3.org/1999/xlink" x="0px" y="0px"
	 viewBox="0 0 138.4 65.2" style="enable-background:new 0 0 138.4 65.2;" xml:space="preserve">
<style type="text/css">
	.st0{fill:#FFFFFF;}
</style>
<g>
	<path class="st0" d="M41.6,18c0.1-0.2,0.1-0.4,0.1-0.6c0-0.4-0.1-0.7-0.4-0.9c-0.2-0.3-0.5-0.4-0.9-0.4c-0.6,0-1,0.4-1.3,1.1
		c-0.9,2.4-2.1,4.2-3.5,5.4c-1.4,1.2-3,1.8-4.6,1.8c-2,0-3.6-0.7-4.9-2.1c-1.3-1.4-2-3.3-2-5.6c0-2,0.3-3.8,0.9-5.6
		c0.6-1.8,1.4-3.2,2.3-4.4c0.9-1.2,1.9-2.1,3-2.7c1.1-0.7,2.1-1,3.1-1c1.3,0,2,0.6,2,1.9c0,0.8-0.1,1.5-0.4,2.2
		c-0.3,0.7-0.4,1.2-0.4,1.5c0,0.4,0.1,0.7,0.4,1c0.3,0.3,0.6,0.4,1,0.4c0.7,0,1.3-0.4,1.7-1.2c0.6-1.2,0.9-2.5,0.9-3.8
		c0-1.4-0.5-2.6-1.4-3.5c-1-0.9-2.2-1.3-3.7-1.3c-1.4,0-2.9,0.4-4.3,1.2c-1.5,0.8-2.8,1.9-4,3.3c-1.2,1.4-2.2,3.1-2.9,5.3
		S21,14.2,21,16.6c0,3.2,0.9,5.7,2.8,7.7c1.9,2,4.2,2.9,6.9,2.9C35.7,27.2,39.3,24.1,41.6,18L41.6,18z"/>
	<path class="st0" d="M59.7,24c-0.6,0-0.9-0.4-0.9-1.2c0-1.1,0.1-2.5,0.3-4.2c0.2-1.7,0.3-2.8,0.3-3.4c0-1.1-0.3-2-1-2.7
		c-0.7-0.7-1.6-1-2.7-1c-1.8,0-3.4,0.9-4.8,2.7c-0.2-0.4-0.5-0.7-0.8-0.9c-0.3-0.3-0.6-0.4-1-0.6c-0.4-0.1-0.8-0.2-1.2-0.2
		c-2.2,0-4.1,1.2-5.6,3.5c0-0.5,0.1-1,0.1-1.5c0.1-0.5,0.1-0.8,0.1-1c0-0.2,0-0.4,0-0.5c0-1.1-0.5-1.6-1.4-1.6
		c-0.5,0-0.8,0.1-1.1,0.4c-0.3,0.3-0.4,0.6-0.5,1.1c-0.4,3-0.6,7.2-0.6,12.6c0,1.1,0.5,1.7,1.6,1.7c0.5,0,0.8-0.2,1.1-0.5
		c0.3-0.3,0.4-0.7,0.4-1.3c0-0.9,0-1.7,0-2.6c0.2-2.2,0.9-4.1,2-5.5c1.1-1.4,2.2-2.2,3.2-2.2c0.8,0,1.1,0.4,1.1,1.1
		c0,0.3-0.2,1.2-0.5,2.7c-0.3,1.5-0.5,2.9-0.5,4.1c0,1.5,0.1,2.6,0.4,3.1c0.3,0.5,0.8,0.8,1.5,0.8c0.4,0,0.7-0.1,0.9-0.4
		c0.2-0.3,0.3-0.6,0.3-1c0,0,0-0.4-0.1-1.1c-0.1-0.7-0.1-1.2-0.1-1.6v0c0-1.6,0.2-3,0.5-4.2c0.3-1.2,0.7-2.1,1.2-2.7
		c0.5-0.6,1-1,1.4-1.3c0.5-0.3,1-0.4,1.4-0.4c0.3,0,0.5,0,0.6,0.1c0.2,0.1,0.3,0.2,0.4,0.3c0.1,0.1,0.2,0.3,0.3,0.5
		c0.1,0.2,0.1,0.5,0.1,0.8c0,0.5-0.1,1.4-0.3,2.8c-0.2,1.4-0.3,2.7-0.3,3.7c0,1.4,0.3,2.5,1,3.3c0.6,0.8,1.5,1.1,2.6,1.1
		c0.9,0,1.7-0.4,2.5-1.1c0.8-0.7,1.6-1.7,2.3-3c0.7-1.3,1.4-2.9,2.2-4.8c0.1-0.2,0.1-0.4,0.1-0.6c0-0.4-0.1-0.6-0.4-0.9
		c-0.2-0.2-0.5-0.3-0.8-0.3c-0.6,0-1,0.3-1.3,0.9C62.2,21.8,60.8,24,59.7,24L59.7,24z"/>
	<path class="st0" d="M76.3,22.3c0.9-1.8,1.4-3.6,1.4-5.4c0-1.7-0.4-3.1-1.3-4.1c-0.9-1-2.1-1.5-3.5-1.5c-1,0-2,0.3-3,0.9
		c-1,0.6-1.9,1.4-2.8,2.4c-0.1-0.9-0.2-1.7-0.4-2.5c-0.1-0.3-0.3-0.6-0.5-0.8c-0.3-0.2-0.5-0.3-0.9-0.3c-0.4,0-0.8,0.1-1.1,0.4
		c-0.3,0.3-0.5,0.6-0.5,1.1c0,0.1,0,0.5,0.1,1.2c0.1,0.7,0.2,1.6,0.3,2.7c0.1,1.1,0.1,2.1,0.1,3.2c0,2.1-0.1,4.4-0.3,6.8
		c-0.2,2.4-0.5,4.4-0.7,6C63,34,62.9,34.9,62.9,35c0,0.2,0,0.4,0.1,0.6c0.1,0.2,0.2,0.3,0.3,0.5c0.1,0.1,0.3,0.2,0.5,0.3
		c0.2,0.1,0.4,0.1,0.6,0.1c0.4,0,0.7-0.1,1-0.4c0.3-0.2,0.5-0.6,0.5-1c0.9-6.7,1.4-11.9,1.4-15.5c0.3-1.4,1-2.7,2-3.8
		c1-1.1,2.1-1.7,3.2-1.7c0.7,0,1.2,0.3,1.6,0.8c0.4,0.5,0.5,1.2,0.5,2c0,1.1-0.3,2.4-0.8,3.7c-0.5,1.3-1.2,2.3-2,3.1
		c-0.5,0.1-1.1,0.1-1.6,0.1c-0.6,0-1,0.2-1.4,0.6c-0.4,0.4-0.5,0.8-0.5,1.3c0,0.5,0.2,0.9,0.5,1.2c0.4,0.3,0.8,0.5,1.5,0.5
		c1.1,0,2.2-0.5,3.3-1.4c2.3-0.5,4.3-1.4,5.9-2.7c1.6-1.3,2.8-3.1,3.6-5.2c0.1-0.2,0.1-0.4,0.1-0.6c0-0.4-0.1-0.6-0.4-0.9
		c-0.2-0.2-0.5-0.3-0.8-0.3c-0.6,0-1,0.3-1.3,1C79.8,19.5,78.3,21.2,76.3,22.3L76.3,22.3z"/>
	<path class="st0" d="M87.7,24.3c-1.3,0-2.3-0.4-3-1.1c-0.7-0.7-1.2-1.7-1.3-3.1c1,0.5,2.1,0.7,3.3,0.7c1.6,0,2.9-0.5,4-1.5
		c1.1-1,1.6-2.2,1.6-3.5c0-1.3-0.4-2.4-1.3-3.3c-0.9-0.9-2.1-1.3-3.5-1.3c-2,0-3.6,0.8-5,2.3c-1.4,1.5-2,3.5-2,6
		c0,2.3,0.6,4.1,1.9,5.5c1.3,1.4,3,2,5.1,2c2.1,0,3.9-0.7,5.5-2.2c1.6-1.5,3-3.8,4.1-6.8c0.1-0.2,0.1-0.4,0.1-0.5
		c0-0.4-0.1-0.7-0.4-0.9c-0.3-0.2-0.5-0.4-0.8-0.4c-0.6,0-1,0.3-1.3,1C92.8,21.9,90.5,24.3,87.7,24.3L87.7,24.3z M88.9,14.5
		c0.3,0.3,0.5,0.8,0.5,1.4c0,0.7-0.2,1.3-0.7,1.7c-0.5,0.5-1.1,0.7-2,0.7c-1.1,0-2.1-0.2-3-0.6c0.2-0.8,0.5-1.4,0.9-2
		c0.4-0.6,0.8-1,1.4-1.3c0.5-0.3,1.1-0.4,1.6-0.4C88.1,14,88.6,14.1,88.9,14.5z"/>
	<path class="st0" d="M106.8,24.9c1.7-1.5,3.2-3.8,4.4-6.9c0.1-0.2,0.1-0.4,0.1-0.5c0-0.2,0-0.3-0.1-0.5c-0.1-0.2-0.2-0.3-0.3-0.4
		c-0.1-0.1-0.2-0.2-0.4-0.3c-0.1-0.1-0.3-0.1-0.5-0.1c-0.5,0-0.9,0.3-1.2,1c-1,2.5-2.2,4.3-3.5,5.4c-1.3,1.2-2.6,1.7-4.1,1.7
		c-0.8,0-1.5-0.2-2.1-0.5c-0.6-0.3-1.1-0.9-1.4-1.6c-0.3-0.7-0.5-1.5-0.5-2.5c0-1.8,0.4-3.2,1.2-4.2c0.8-1,1.7-1.5,2.8-1.5
		c0.5,0,0.9,0.2,1.2,0.5c0.3,0.3,0.5,0.7,0.5,1.2c0,1,0.5,1.6,1.4,1.6c1,0,1.5-0.7,1.5-2.1c0-0.7-0.2-1.4-0.5-1.9
		c-0.4-0.6-0.9-1-1.6-1.4c-0.7-0.4-1.5-0.5-2.4-0.5c-1.2,0-2.4,0.3-3.5,1c-1.1,0.7-1.9,1.7-2.6,3c-0.7,1.3-1,2.8-1,4.5
		c0,2.3,0.6,4,1.9,5.3c1.3,1.3,3,2,5.1,2C103.3,27.1,105.1,26.4,106.8,24.9z"/>
	<path class="st0" d="M12.5,53.5c0-0.2,0-0.4,0-0.8c0.1-0.9,0.2-2.1,0.2-3.4c0.1-1.3,0.2-2.7,0.3-4.1c0.1-1.4,0.2-2.6,0.3-3.6
		c0-0.5-0.1-0.9-0.4-1.2c-0.3-0.3-0.7-0.4-1.1-0.4c-0.4,0-0.7,0.1-1,0.4c-0.3,0.3-0.5,0.6-0.5,1c-0.1,1.2-0.2,2.5-0.3,3.9
		C9.8,46.8,9.5,48,9.1,49c-0.4,1-0.9,1.8-1.4,2.3c-0.5,0.5-1,0.9-1.5,1.1c-0.5,0.2-0.9,0.3-1.4,0.3c-0.6,0-1-0.2-1.3-0.5
		c-0.3-0.3-0.4-0.9-0.4-1.8c0-0.7,0.2-2,0.5-3.9c0.3-1.9,0.5-3.4,0.5-4.3c0-0.5-0.1-1-0.4-1.5c-0.3-0.4-0.6-0.8-1-1
		c-0.4-0.3-0.9-0.4-1.3-0.4c-0.4,0-0.8,0.1-1,0.4c-0.3,0.3-0.4,0.6-0.4,1c0,0.3,0.2,0.7,0.5,1.1c0.4,0.4,0.5,0.8,0.5,1.1
		c0,0.4-0.2,1.5-0.5,3.4c-0.3,1.9-0.5,3.6-0.5,4.9c0,1.2,0.4,2.2,1.1,3c0.7,0.8,1.7,1.2,2.8,1.2c2,0,3.8-0.9,5.3-2.8
		c-0.1,1.1-0.2,2.1-0.2,3C7,56.9,5.4,58,4.3,58.9c-1,0.9-1.6,2-1.6,3.1c0,0.9,0.3,1.6,1,2.3c0.7,0.6,1.6,0.9,2.7,0.9
		c0.7,0,1.3-0.1,1.9-0.4c0.6-0.2,1-0.6,1.4-1c0.4-0.4,0.7-0.9,1-1.4c0.3-0.5,0.5-1,0.7-1.6c0.2-0.6,0.3-1.1,0.4-1.6
		c0.1-0.5,0.2-1,0.2-1.5c0-0.2,0.1-0.4,0.1-0.6c1.7-1.1,3.1-2.6,4.2-4.3c1.2-1.7,2.2-3.7,3.1-6c0.1-0.2,0.1-0.3,0.1-0.5
		c0-0.4-0.1-0.7-0.4-0.9C19,45.1,18.7,45,18.4,45c-0.5,0-0.9,0.3-1.2,1C15.8,49.3,14.2,51.8,12.5,53.5L12.5,53.5z M5.7,61.6
		c0-0.3,0.1-0.6,0.4-0.9c0.3-0.3,0.6-0.7,1.1-1c0.5-0.3,1-0.7,1.8-1.1c-0.3,2.6-1.1,3.8-2.3,3.8C6.1,62.4,5.7,62.2,5.7,61.6
		L5.7,61.6z"/>
	<path class="st0" d="M41.5,50.1c-0.8,1.4-1.7,2.5-2.7,3.5c0.4-5.5,0.6-8.6,0.6-9.3c0-1.3-0.6-2.3-1.7-3c-1.2-0.7-2.5-1.1-4-1.1h0
		c-2.1,0-3.9,0.9-5.4,2.6c-1.5,1.7-2.3,3.9-2.3,6.6c0,1.8,0.5,3.2,1.5,4.3c1,1.1,2.2,1.6,3.7,1.6c1.6,0,3.2-0.8,4.6-2.4
		c0,1-0.1,1.9-0.1,2.8c-0.4,0.2-0.9,0.5-1.5,0.9c-0.6,0.4-1.2,0.7-1.5,0.9c-0.4,0.2-0.8,0.5-1.3,0.9c-0.5,0.4-0.8,0.7-1.1,1
		c-0.3,0.3-0.5,0.7-0.7,1.2c-0.2,0.5-0.3,0.9-0.3,1.4c0,0.9,0.3,1.7,0.9,2.4c0.6,0.6,1.5,0.9,2.5,0.9c1.5,0,2.7-0.7,3.8-2
		c1-1.4,1.7-3.2,1.9-5.4l0.1-0.8c2.8-1.9,5.2-5.4,7.2-10.3c0.1-0.2,0.1-0.3,0.1-0.5c0-0.4-0.1-0.7-0.4-0.9c-0.3-0.3-0.6-0.4-0.9-0.4
		c-0.6,0-0.9,0.3-1.2,1C42.9,47.3,42.3,48.7,41.5,50.1z M29.7,51.6c-0.5-0.6-0.7-1.4-0.7-2.5c0-1.2,0.2-2.3,0.7-3.3
		c0.5-1,1.1-1.7,1.9-2.2c0.8-0.5,1.6-0.8,2.4-0.8c0.6,0,1.1,0.1,1.5,0.4c0.4,0.3,0.7,0.7,0.8,1.2c0,0.8-0.1,1.7-0.2,2.8
		c-0.9,3.4-2.4,5.2-4.5,5.2C30.8,52.5,30.2,52.2,29.7,51.6z M32.4,62.3c-0.2-0.1-0.3-0.3-0.3-0.6c0-0.5,0.3-1,0.8-1.5
		c0.5-0.5,1.3-1,2.4-1.6c-0.2,1.5-0.5,2.6-0.9,3.1c-0.4,0.5-0.8,0.8-1.3,0.8C32.8,62.5,32.6,62.4,32.4,62.3z"/>
	<path class="st0" d="M58.4,50.8c-0.8,1.4-1.4,2.1-2,2.1c-0.8,0-1.2-1.4-1.2-4.1c0-0.9,0.2-3.2,0.6-7.1c0.1-0.5-0.1-0.9-0.4-1.2
		c-0.3-0.3-0.6-0.4-1-0.4c-0.4,0-0.7,0.1-1,0.3c-0.3,0.2-0.5,0.6-0.5,1c-0.2,1.7-0.4,3.1-0.5,4c-0.3,2.6-0.9,4.5-1.9,5.7
		c-1,1.2-2,1.8-3,1.8c-1.1,0-1.6-0.8-1.6-2.3c0-0.7,0.2-2,0.5-3.9c0.3-1.9,0.5-3.4,0.5-4.3c0-0.5-0.1-1-0.4-1.5
		c-0.3-0.4-0.6-0.8-1-1c-0.4-0.3-0.9-0.4-1.3-0.4c-0.4,0-0.8,0.1-1,0.4c-0.3,0.3-0.4,0.6-0.4,1c0,0.3,0.2,0.7,0.5,1.1
		c0.4,0.4,0.5,0.8,0.5,1.2c0,0.3-0.1,1.4-0.4,3.3c-0.3,1.9-0.4,3.6-0.4,5c0,1.2,0.4,2.2,1.2,3c0.8,0.8,1.8,1.2,3.1,1.2
		c2.2,0,4.1-1.2,5.6-3.5c0.6,2.4,1.7,3.5,3.5,3.5c0.7,0,1.4-0.2,2.1-0.7c0.7-0.5,1.3-1.2,1.8-2c0.6-0.9,1-1.8,1.5-2.8
		c0.4-0.9,0.9-2.1,1.3-3.3c0.1-0.2,0.1-0.4,0.1-0.5c0-0.4-0.1-0.7-0.4-0.9C62.3,45.1,62,45,61.7,45c-0.6,0-1,0.3-1.2,1
		C59.8,47.8,59.1,49.4,58.4,50.8z"/>
	<path class="st0" d="M81,52.8c-0.6,0-0.9-0.4-0.9-1.2c0-1.1,0.1-2.5,0.3-4.2c0.2-1.7,0.3-2.8,0.3-3.4c0-1.1-0.3-2-1-2.7
		c-0.7-0.7-1.6-1-2.7-1c-1.8,0-3.4,0.9-4.8,2.7c-0.2-0.4-0.5-0.7-0.8-0.9c-0.3-0.3-0.6-0.4-1-0.6c-0.4-0.1-0.8-0.2-1.2-0.2
		c-2.2,0-4.1,1.2-5.6,3.5c0-0.5,0.1-1,0.1-1.5c0.1-0.5,0.1-0.8,0.1-1c0-0.2,0-0.4,0-0.5c0-1.1-0.5-1.6-1.4-1.6
		c-0.5,0-0.8,0.1-1.1,0.4c-0.3,0.3-0.4,0.6-0.5,1.1c-0.4,3-0.6,7.2-0.6,12.6c0,1.1,0.5,1.7,1.6,1.7c0.5,0,0.8-0.2,1.1-0.5
		c0.3-0.3,0.4-0.7,0.4-1.3c0-0.9,0-1.7,0-2.6c0.2-2.2,0.9-4.1,2-5.5c1.1-1.4,2.2-2.2,3.2-2.2c0.8,0,1.1,0.4,1.1,1.1
		c0,0.3-0.2,1.2-0.5,2.7s-0.5,2.9-0.5,4.1c0,1.5,0.1,2.6,0.4,3.1c0.3,0.5,0.8,0.8,1.5,0.8c0.4,0,0.7-0.1,0.9-0.4
		c0.2-0.3,0.3-0.6,0.3-1c0,0,0-0.4-0.1-1.1c-0.1-0.7-0.1-1.2-0.1-1.6v0c0-1.6,0.2-3,0.5-4.2c0.3-1.2,0.7-2.1,1.2-2.7
		c0.5-0.6,1-1,1.4-1.3c0.5-0.3,1-0.4,1.4-0.4c0.3,0,0.5,0,0.6,0.1c0.2,0.1,0.3,0.2,0.4,0.3c0.1,0.1,0.2,0.3,0.3,0.5
		c0.1,0.2,0.1,0.5,0.1,0.8c0,0.5-0.1,1.4-0.3,2.8c-0.2,1.4-0.3,2.7-0.3,3.7c0,1.4,0.3,2.5,1,3.3c0.6,0.8,1.5,1.1,2.6,1.1
		c0.9,0,1.7-0.4,2.5-1.1c0.8-0.7,1.6-1.7,2.3-3c0.7-1.3,1.4-2.9,2.2-4.8c0.1-0.2,0.1-0.4,0.1-0.6c0-0.4-0.1-0.6-0.4-0.9
		c-0.2-0.2-0.5-0.3-0.8-0.3c-0.6,0-1,0.3-1.3,0.9C83.4,50.6,82,52.8,81,52.8L81,52.8z"/>
	<path class="st0" d="M100.2,50.8c-0.8,1.4-1.4,2.1-2,2.1c-0.8,0-1.2-1.4-1.2-4.1c0-0.9,0.2-3.2,0.6-7.1c0.1-0.5-0.1-0.9-0.4-1.2
		c-0.3-0.3-0.6-0.4-1-0.4c-0.4,0-0.7,0.1-1,0.3c-0.3,0.2-0.5,0.6-0.5,1c-0.2,1.7-0.4,3.1-0.5,4c-0.3,2.6-0.9,4.5-1.9,5.7
		c-1,1.2-2,1.8-3,1.8c-1.1,0-1.6-0.8-1.6-2.3c0-0.7,0.2-2,0.5-3.9c0.3-1.9,0.5-3.4,0.5-4.3c0-0.5-0.1-1-0.4-1.5
		c-0.3-0.4-0.6-0.8-1-1c-0.4-0.3-0.9-0.4-1.3-0.4c-0.4,0-0.8,0.1-1,0.4c-0.3,0.3-0.4,0.6-0.4,1c0,0.3,0.2,0.7,0.5,1.1
		c0.4,0.4,0.5,0.8,0.5,1.2c0,0.3-0.1,1.4-0.4,3.3c-0.3,1.9-0.4,3.6-0.4,5c0,1.2,0.4,2.2,1.2,3c0.8,0.8,1.8,1.2,3.1,1.2
		c2.2,0,4.1-1.2,5.6-3.5c0.6,2.4,1.7,3.5,3.5,3.5c0.7,0,1.4-0.2,2.1-0.7c0.7-0.5,1.3-1.2,1.8-2c0.6-0.9,1-1.8,1.5-2.8
		c0.4-0.9,0.9-2.1,1.3-3.3c0.1-0.2,0.1-0.4,0.1-0.5c0-0.4-0.1-0.7-0.4-0.9c-0.3-0.2-0.5-0.3-0.9-0.3c-0.6,0-1,0.3-1.2,1
		C101.7,47.8,101,49.4,100.2,50.8z"/>
	<path class="st0" d="M114.7,52.8c-0.6,0-0.8-0.5-0.8-1.4c0-2.5,0.3-5.7,0.9-9.7c0.1-0.5,0-0.9-0.3-1.2c-0.3-0.3-0.6-0.4-1.1-0.4
		c-0.9,0-1.4,0.4-1.6,1.3c-0.3,1.7-0.5,3.3-0.7,4.9c-1.1,0-2.1,0-3.2,0c-0.8,0-1.7,0-2.5,0c0.1-1.4,0.2-3,0.3-4.7
		c0-0.5-0.1-0.9-0.4-1.1c-0.3-0.3-0.7-0.4-1.1-0.4c-0.4,0-0.8,0.1-1.1,0.4c-0.3,0.3-0.5,0.6-0.5,1.1c-0.3,4-0.6,8.2-0.7,12.7
		c0,0.5,0.1,0.9,0.4,1.1c0.3,0.3,0.7,0.4,1.1,0.4c0.3,0,0.5-0.1,0.7-0.2c0.2-0.1,0.4-0.3,0.6-0.5c0.2-0.2,0.2-0.5,0.2-0.8
		c0.1-1.7,0.1-3.4,0.2-5.3c0.9,0,1.8,0,2.7,0c1,0,2,0,3,0c0,0.6,0,1.2,0,1.7c0,1.6,0.3,2.8,1,3.6c0.7,0.8,1.5,1.2,2.7,1.2
		c0.6,0,1.1-0.1,1.6-0.4c0.5-0.3,1-0.6,1.4-1.1c0.4-0.4,0.8-1.1,1.3-1.9c0.4-0.8,0.8-1.6,1.2-2.4c0.3-0.8,0.8-1.8,1.3-3.1
		c0.1-0.2,0.1-0.4,0.1-0.5c0-0.4-0.1-0.7-0.4-0.9c-0.3-0.2-0.5-0.4-0.9-0.4c-0.6,0-1,0.3-1.2,1C117,50.6,115.6,52.8,114.7,52.8
		L114.7,52.8z"/>
	<path class="st0" d="M133.8,50.8c-0.8,1.4-1.4,2.1-2,2.1c-0.8,0-1.2-1.4-1.2-4.1c0-0.9,0.2-3.2,0.6-7.1c0.1-0.5-0.1-0.9-0.4-1.2
		c-0.3-0.3-0.6-0.4-1-0.4c-0.4,0-0.7,0.1-1,0.3c-0.3,0.2-0.5,0.6-0.5,1c-0.2,1.7-0.4,3.1-0.5,4c-0.3,2.6-0.9,4.5-1.9,5.7
		c-1,1.2-2,1.8-3,1.8c-1.1,0-1.6-0.8-1.6-2.3c0-0.7,0.2-2,0.5-3.9c0.3-1.9,0.5-3.4,0.5-4.3c0-0.5-0.1-1-0.4-1.5
		c-0.3-0.4-0.6-0.8-1-1c-0.4-0.3-0.9-0.4-1.3-0.4c-0.4,0-0.8,0.1-1,0.4c-0.3,0.3-0.4,0.6-0.4,1c0,0.3,0.2,0.7,0.5,1.1
		c0.4,0.4,0.5,0.8,0.5,1.2c0,0.3-0.1,1.4-0.4,3.3c-0.3,1.9-0.4,3.6-0.4,5c0,1.2,0.4,2.2,1.2,3c0.8,0.8,1.8,1.2,3.1,1.2
		c2.2,0,4.1-1.2,5.6-3.5c0.6,2.4,1.7,3.5,3.5,3.5c0.7,0,1.4-0.2,2.1-0.7c0.7-0.5,1.3-1.2,1.8-2c0.6-0.9,1-1.8,1.5-2.8
		c0.4-0.9,0.9-2.1,1.3-3.3c0.1-0.2,0.1-0.4,0.1-0.5c0-0.4-0.1-0.7-0.4-0.9c-0.3-0.2-0.5-0.3-0.9-0.3c-0.6,0-1,0.3-1.2,1
		C135.2,47.8,134.5,49.4,133.8,50.8z"/>
</g>
</svg>
