<svg width="20" height="20" viewBox="0 0 20 20" fill="none" xmlns="http://www.w3.org/2000/svg">
<path d="M12.76 9.18992C12.6208 9.18936 12.4829 9.21788 12.3553 9.27367C12.2277 9.32945 12.1132 9.41127 12.0191 9.51388C11.9249 9.61649 11.8533 9.73763 11.8087 9.86955C11.764 10.0015 11.7475 10.1412 11.76 10.2799H13.82C13.8333 10.136 13.8153 9.99097 13.7671 9.85472C13.719 9.71847 13.6419 9.59428 13.5412 9.49068C13.4404 9.38709 13.3184 9.30656 13.1836 9.25464C13.0487 9.20272 12.9042 9.18064 12.76 9.18992ZM7.49001 10.2999H6.26001V12.2399H7.26001C8.26001 12.2399 8.70001 11.9099 8.70001 11.2399C8.70001 10.5699 8.24001 10.2999 7.49001 10.2999ZM8.36001 8.51992C8.36001 7.98992 8.01001 7.66992 7.41001 7.66992H6.26001V9.40992H7.11001C8.00001 9.40992 8.36001 9.08992 8.36001 8.51992Z" fill="#D9D9D9"/>
<path d="M10 0C8.02219 0 6.08879 0.58649 4.4443 1.6853C2.79981 2.78412 1.51809 4.3459 0.761209 6.17317C0.00433284 8.00043 -0.193701 10.0111 0.192152 11.9509C0.578004 13.8907 1.53041 15.6725 2.92894 17.0711C4.32746 18.4696 6.10929 19.422 8.0491 19.8079C9.98891 20.1937 11.9996 19.9957 13.8268 19.2388C15.6541 18.4819 17.2159 17.2002 18.3147 15.5557C19.4135 13.9112 20 11.9778 20 10C20 8.68678 19.7413 7.38642 19.2388 6.17317C18.7363 4.95991 17.9997 3.85752 17.0711 2.92893C16.1425 2.00035 15.0401 1.26375 13.8268 0.761205C12.6136 0.258658 11.3132 0 10 0ZM7.7 13.2H5V6.7H7.7C8.87 6.7 9.64001 7.31 9.64001 8.3C9.65381 8.63259 9.54865 8.95922 9.34339 9.22129C9.13814 9.48335 8.84622 9.66371 8.52001 9.73C8.72674 9.73479 8.93032 9.78172 9.11829 9.8679C9.30627 9.95409 9.47468 10.0777 9.61322 10.2312C9.75176 10.3848 9.85752 10.5649 9.92403 10.7607C9.99053 10.9565 10.0164 11.1639 10 11.37C10 12.53 9 13.2 7.7 13.2ZM11.25 7.2H14.25V7.7H11.25V7.2ZM15 11.05H11.7V11.19C11.6828 11.342 11.6984 11.4958 11.7457 11.6413C11.793 11.7867 11.8709 11.9203 11.9742 12.0331C12.0775 12.1458 12.2037 12.2351 12.3445 12.295C12.4852 12.3548 12.6371 12.3838 12.79 12.38C13.0047 12.4133 13.2241 12.3679 13.4079 12.2522C13.5917 12.1364 13.7274 11.958 13.79 11.75H15C14.8923 12.23 14.6114 12.6535 14.211 12.9394C13.8107 13.2254 13.319 13.3538 12.83 13.3C12.5175 13.3316 12.2018 13.2943 11.9052 13.1907C11.6086 13.0871 11.3384 12.9199 11.1134 12.7006C10.8884 12.4814 10.7142 12.2155 10.6031 11.9217C10.4919 11.6279 10.4465 11.3133 10.47 11V10.56C10.4488 10.2565 10.4934 9.95194 10.6009 9.66728C10.7084 9.38263 10.8762 9.1246 11.0928 8.91088C11.3093 8.69715 11.5696 8.5328 11.8556 8.42908C12.1417 8.32537 12.4468 8.28474 12.75 8.31C13.0522 8.29063 13.3551 8.33623 13.6382 8.44373C13.9213 8.55124 14.1781 8.71815 14.3913 8.93324C14.6045 9.14833 14.7691 9.40659 14.8741 9.69065C14.9791 9.97471 15.0221 10.278 15 10.58V11.05Z" fill="#D9D9D9"/>
</svg>
