<?xml version="1.0" encoding="utf-8"?>
<!-- Generator: Adobe Illustrator 24.0.3, SVG Export Plug-In . SVG Version: 6.00 Build 0)  -->
<svg version="1.1" id="Слой_1" xmlns="http://www.w3.org/2000/svg" xmlns:xlink="http://www.w3.org/1999/xlink" x="0px" y="0px"
	 viewBox="0 0 20 20" style="enable-background:new 0 0 20 20;" xml:space="preserve">
<path d="M12.8,9.2c-0.1,0-0.3,0-0.4,0.1c-0.1,0.1-0.2,0.1-0.3,0.2c-0.1,0.1-0.2,0.2-0.2,0.4c0,0.1-0.1,0.3,0,0.4h2.1
	c0-0.1,0-0.3-0.1-0.4c0-0.1-0.1-0.3-0.2-0.4c-0.1-0.1-0.2-0.2-0.4-0.2C13,9.2,12.9,9.2,12.8,9.2z M7.5,10.3H6.3v1.9h1
	c1,0,1.4-0.3,1.4-1S8.2,10.3,7.5,10.3z M8.4,8.5c0-0.5-0.4-0.9-1-0.9H6.3v1.7h0.9C8,9.4,8.4,9.1,8.4,8.5z"/>
<path d="M10,0C8,0,6.1,0.6,4.4,1.7C2.8,2.8,1.5,4.3,0.8,6.2C0,8-0.2,10,0.2,12c0.4,1.9,1.3,3.7,2.7,5.1c1.4,1.4,3.2,2.4,5.1,2.7
	c1.9,0.4,4,0.2,5.8-0.6c1.8-0.8,3.4-2,4.5-3.7C19.4,13.9,20,12,20,10c0-1.3-0.3-2.6-0.8-3.8C18.7,5,18,3.9,17.1,2.9
	c-0.9-0.9-2-1.7-3.2-2.2C12.6,0.3,11.3,0,10,0z M7.7,13.2H5V6.7h2.7c1.2,0,1.9,0.6,1.9,1.6c0,0.3-0.1,0.7-0.3,0.9
	C9.1,9.5,8.8,9.7,8.5,9.7c0.2,0,0.4,0.1,0.6,0.1c0.2,0.1,0.4,0.2,0.5,0.4c0.1,0.2,0.2,0.3,0.3,0.5C10,11,10,11.2,10,11.4
	C10,12.5,9,13.2,7.7,13.2z M11.2,7.2h3v0.5h-3V7.2z M15,11.1h-3.3v0.1c0,0.2,0,0.3,0,0.5c0,0.1,0.1,0.3,0.2,0.4
	c0.1,0.1,0.2,0.2,0.4,0.3c0.1,0.1,0.3,0.1,0.4,0.1c0.2,0,0.4,0,0.6-0.1c0.2-0.1,0.3-0.3,0.4-0.5H15c-0.1,0.5-0.4,0.9-0.8,1.2
	c-0.4,0.3-0.9,0.4-1.4,0.4c-0.3,0-0.6,0-0.9-0.1c-0.3-0.1-0.6-0.3-0.8-0.5c-0.2-0.2-0.4-0.5-0.5-0.8c-0.1-0.3-0.2-0.6-0.1-0.9v-0.4
	c0-0.3,0-0.6,0.1-0.9c0.1-0.3,0.3-0.5,0.5-0.8c0.2-0.2,0.5-0.4,0.8-0.5c0.3-0.1,0.6-0.1,0.9-0.1c0.3,0,0.6,0,0.9,0.1
	c0.3,0.1,0.5,0.3,0.8,0.5c0.2,0.2,0.4,0.5,0.5,0.8C15,10,15,10.3,15,10.6V11.1z"/>
</svg>
