<?xml version="1.0" encoding="utf-8"?>
<!-- Generator: Adobe Illustrator 24.0.3, SVG Export Plug-In . SVG Version: 6.00 Build 0)  -->
<svg version="1.1" id="Слой_1" xmlns="http://www.w3.org/2000/svg" xmlns:xlink="http://www.w3.org/1999/xlink" x="0px" y="0px"
	 viewBox="0 0 21 15" style="enable-background:new 0 0 21 15;" xml:space="preserve">
<path d="M16.9,5.8C16.6,4.3,15.8,3,14.7,2c-1.2-1-2.6-1.5-4.2-1.5C8,0.5,5.8,1.9,4.7,4C3.4,4.2,2.2,4.8,1.3,5.7C0.5,6.7,0,8,0,9.2
	c0,2.9,2.4,5.2,5.2,5.2h11.4c2.4,0,4.4-2,4.4-4.4C21,7.8,19.2,5.9,16.9,5.8z M14.9,8.4l-4.4,4.4L6.1,8.4h2.6V4.9h3.5v3.5H14.9z"/>
</svg>
