<svg width="21" height="15" viewBox="0 0 21 15" fill="none" xmlns="http://www.w3.org/2000/svg">
<path d="M16.9313 5.785C16.6373 4.2955 15.8354 2.95425 14.6624 1.99034C13.4895 1.02643 12.0182 0.499657 10.5 0.5C7.97125 0.5 5.775 1.935 4.68125 4.035C3.3952 4.17398 2.20588 4.78331 1.3418 5.74591C0.477725 6.70851 -0.000150239 7.95647 3.54312e-08 9.25C3.54312e-08 12.1462 2.35375 14.5 5.25 14.5H16.625C19.04 14.5 21 12.54 21 10.125C21 7.815 19.2063 5.9425 16.9313 5.785ZM14.875 8.375L10.5 12.75L6.125 8.375H8.75V4.875H12.25V8.375H14.875Z" fill="#D9D9D9"/>
</svg>
