<?xml version="1.0" encoding="utf-8"?>
<!-- Generator: Adobe Illustrator 24.0.3, SVG Export Plug-In . SVG Version: 6.00 Build 0)  -->
<svg version="1.1" id="Слой_1" xmlns="http://www.w3.org/2000/svg" xmlns:xlink="http://www.w3.org/1999/xlink" x="0px" y="0px"
	 viewBox="0 0 20 20" style="enable-background:new 0 0 20 20;" xml:space="preserve">
<path d="M13.6,5.9c-0.7-0.6-1.5-1-2.3-1.2c-0.9-0.2-1.8-0.2-2.6,0c0.2,0.2,1.1,1.6,2,3.2C12.7,7.2,13.5,6,13.6,5.9L13.6,5.9z
	 M10.9,10.9c-3.1,1.1-4.2,3.2-4.3,3.4c0.9,0.7,2.1,1.2,3.4,1.2c0.8,0,1.5-0.2,2.1-0.4C12.1,14.6,11.7,12.9,10.9,10.9L10.9,10.9z
	 M12,10.6c0.7,2,1,3.6,1.1,3.9c1.2-0.8,2.1-2.2,2.4-3.7C15.2,10.8,13.7,10.4,12,10.6z M10,0C4.5,0,0,4.5,0,10c0,5.5,4.5,10,10,10
	c5.5,0,10-4.5,10-10C20,4.5,15.5,0,10,0z M10,16.4c-3.5,0-6.4-2.9-6.4-6.4c0-3.5,2.9-6.4,6.4-6.4c3.5,0,6.4,2.9,6.4,6.4
	C16.4,13.5,13.5,16.4,10,16.4z M11.2,8.7c0.1,0.3,0.2,0.5,0.4,0.8c0,0.1,0.1,0.2,0.1,0.3c1.8-0.2,3.6,0.1,3.8,0.2
	c0-1.3-0.5-2.5-1.2-3.4C14.1,6.7,13.2,7.9,11.2,8.7L11.2,8.7z M9.7,8.2c-0.9-1.6-1.9-3-2-3.2C6.1,5.8,5,7.2,4.6,8.9
	C4.9,8.9,7.1,8.9,9.7,8.2z M10.4,10.1c0.1,0,0.1,0,0.2-0.1c-0.1-0.3-0.3-0.6-0.4-0.9C7.4,9.9,4.8,9.8,4.5,9.8c0,0.1,0,0.1,0,0.2
	c0,1.4,0.5,2.7,1.4,3.7C6,13.5,7.6,11,10.4,10.1L10.4,10.1z"/>
</svg>
