<?xml version="1.0" encoding="utf-8"?>
<!-- Generator: Adobe Illustrator 24.0.3, SVG Export Plug-In . SVG Version: 6.00 Build 0)  -->
<svg version="1.1" id="Слой_1" xmlns="http://www.w3.org/2000/svg" xmlns:xlink="http://www.w3.org/1999/xlink" x="0px" y="0px"
	 viewBox="0 0 21 15" style="enable-background:new 0 0 21 15;" xml:space="preserve">
<path d="M19.5,0h-18C1.1,0,0.7,0.2,0.4,0.4C0.2,0.7,0,1.1,0,1.5v12c0,0.4,0.2,0.8,0.4,1.1C0.7,14.8,1.1,15,1.5,15h18
	c0.4,0,0.8-0.2,1.1-0.4c0.3-0.3,0.4-0.7,0.4-1.1v-12c0-0.4-0.2-0.8-0.4-1.1C20.3,0.2,19.9,0,19.5,0L19.5,0z M17.9,1.5l-7.4,5.1
	L3.2,1.5H17.9z M1.5,13.5V2.2l8.6,5.9c0.1,0.1,0.3,0.1,0.4,0.1s0.3,0,0.4-0.1l8.6-5.9v11.3H1.5z"/>
</svg>
