<?xml version="1.0" encoding="utf-8"?>
<!-- Generator: Adobe Illustrator 24.0.3, SVG Export Plug-In . SVG Version: 6.00 Build 0)  -->
<svg version="1.1" id="Слой_1" xmlns="http://www.w3.org/2000/svg" xmlns:xlink="http://www.w3.org/1999/xlink" x="0px" y="0px"
	 viewBox="0 0 20 20" style="enable-background:new 0 0 20 20;" xml:space="preserve">
<path d="M10,0C4.5,0,0,4.5,0,10c0,5.5,4.5,10,10,10c5.5,0,10-4.5,10-10C20,4.5,15.5,0,10,0z M7.6,14.1h-2V7.6h2V14.1z M6.5,6.8
	c-0.6,0-1.1-0.5-1.1-1c0-0.6,0.4-1,1.1-1c0.7,0,1.1,0.4,1.1,1C7.6,6.4,7.2,6.8,6.5,6.8z M14.9,14.1h-2v-3.6c0-0.8-0.3-1.4-1-1.4
	c-0.6,0-0.9,0.4-1,0.8c-0.1,0.1-0.1,0.3-0.1,0.5v3.8h-2V9.7c0-0.8,0-1.5-0.1-2.1h1.8l0.1,0.9h0c0.3-0.4,0.9-1.1,2-1.1
	c1.3,0,2.3,0.9,2.3,2.8V14.1L14.9,14.1z"/>
</svg>
