<?xml version="1.0" encoding="utf-8"?>
<!-- Generator: Adobe Illustrator 24.0.3, SVG Export Plug-In . SVG Version: 6.00 Build 0)  -->
<svg version="1.1" id="Слой_1" xmlns="http://www.w3.org/2000/svg" xmlns:xlink="http://www.w3.org/1999/xlink" x="0px" y="0px"
	 viewBox="0 0 22 22" style="enable-background:new 0 0 22 22;" xml:space="preserve">
<style type="text/css">
	.st0{fill:#E0E8EA;}
</style>
<g>
	<path class="st0" d="M7.9,9.4H1.6C0.7,9.4,0,8.7,0,7.9V1.6C0,0.7,0.7,0,1.6,0h6.3c0.9,0,1.6,0.7,1.6,1.6v6.3
		C9.4,8.7,8.7,9.4,7.9,9.4z M1.6,1.6v6.3h6.3V1.6C7.9,1.6,1.6,1.6,1.6,1.6z M1.6,0.8v0.8l0,0V0.8z"/>
</g>
<g>
	<path class="st0" d="M7.9,22H1.6C0.7,22,0,21.3,0,20.4v-6.3c0-0.9,0.7-1.6,1.6-1.6h6.3c0.9,0,1.6,0.7,1.6,1.6v6.3
		C9.4,21.3,8.7,22,7.9,22z M1.6,14.1v6.3h6.3v-6.3L1.6,14.1z M1.6,13.4v0.8l0,0V13.4z"/>
</g>
<g>
	<path class="st0" d="M20.4,9.4h-6.3c-0.9,0-1.6-0.7-1.6-1.6V1.6c0-0.9,0.7-1.6,1.6-1.6h6.3C21.3,0,22,0.7,22,1.6v6.3
		C22,8.7,21.3,9.4,20.4,9.4z M14.1,1.6v6.3h6.3V1.6C20.4,1.6,14.1,1.6,14.1,1.6z M14.1,0.8v0.8l0,0V0.8z"/>
</g>
<g>
	<path class="st0" d="M20.4,22h-6.3c-0.9,0-1.6-0.7-1.6-1.6v-6.3c0-0.9,0.7-1.6,1.6-1.6h6.3c0.9,0,1.6,0.7,1.6,1.6v6.3
		C22,21.3,21.3,22,20.4,22z M14.1,14.1v6.3h6.3v-6.3L14.1,14.1z M14.1,13.4v0.8l0,0V13.4z"/>
</g>
</svg>
