<?xml version="1.0" encoding="utf-8"?>
<!-- Generator: Adobe Illustrator 24.0.3, SVG Export Plug-In . SVG Version: 6.00 Build 0)  -->
<svg version="1.1" id="Слой_1" xmlns="http://www.w3.org/2000/svg" xmlns:xlink="http://www.w3.org/1999/xlink" x="0px" y="0px"
	 viewBox="0 0 100 100" style="enable-background:new 0 0 100 100;" xml:space="preserve">
<style type="text/css">
	.st0{fill:#E0E8EA;}
	.st1{fill-opacity:0.9;}
</style>
<path class="st0" d="M96.1,30.5c-2.6-6.1-6.2-11.4-10.7-15.9s-9.8-8-15.9-10.7C63.4,1.3,56.9,0,50,0S36.6,1.3,30.5,3.9
	s-11.4,6.2-15.9,10.7s-8,9.8-10.7,15.9C1.3,36.6,0,43.1,0,50s1.3,13.4,3.9,19.5s6.2,11.4,10.7,15.9s9.8,8.1,15.9,10.7
	S43.1,100,50,100s13.4-1.3,19.5-3.9s11.4-6.2,15.9-10.7s8.1-9.8,10.7-15.9S100,56.9,100,50S98.7,36.6,96.1,30.5z M78.3,78.3
	C70.5,86.1,61.1,90,50,90s-20.5-3.9-28.3-11.7S10,61.1,10,50s3.9-20.5,11.7-28.3S38.9,10,50,10s20.5,3.9,28.3,11.7S90,38.9,90,50
	S86.1,70.5,78.3,78.3z"/>
<path class="st1" d="M50,90c11.1,0,20.5-3.9,28.3-11.7S90,61.1,90,50s-3.9-20.5-11.7-28.3S61.1,10,50,10s-20.5,3.9-28.3,11.7
	S10,38.9,10,50s3.9,20.5,11.7,28.3S38.9,90,50,90z"/>
<path class="st0" d="M37.5,36.6v26.8c0,2,0.9,3.5,2.6,4.4s3.5,0.8,5.1-0.2L66,54.2c1.6-0.9,2.4-2.3,2.4-4.2s-0.8-3.3-2.4-4.2
	L45.2,32.5c-1.7-1.1-3.4-1.2-5.1-0.2C38.4,33.2,37.5,34.6,37.5,36.6z"/>
</svg>
