<?xml version="1.0" encoding="utf-8"?>
<!-- Generator: Adobe Illustrator 24.0.3, SVG Export Plug-In . SVG Version: 6.00 Build 0)  -->
<svg version="1.1" id="Слой_1" xmlns="http://www.w3.org/2000/svg" xmlns:xlink="http://www.w3.org/1999/xlink" x="0px" y="0px"
	 viewBox="0 0 20 20" style="enable-background:new 0 0 20 20;" xml:space="preserve">
<path d="M10,18c2.1,0,4.2-0.8,5.7-2.3c1.5-1.5,2.3-3.5,2.3-5.7c0-2.1-0.8-4.2-2.3-5.7C14.2,2.8,12.1,2,10,2C7.9,2,5.8,2.8,4.3,4.3
	C2.8,5.8,2,7.9,2,10c0,2.1,0.8,4.2,2.3,5.7C5.8,17.2,7.9,18,10,18L10,18z M10,20C4.5,20,0,15.5,0,10S4.5,0,10,0s10,4.5,10,10
	S15.5,20,10,20z"/>
<path d="M14.6,10.7c0.1-0.7,0.1-1.5-0.2-2.2c-0.2-0.7-0.6-1.3-1.1-1.8c-0.5-0.5-1.2-0.9-1.8-1.1C10.7,5.4,10,5.3,9.3,5.4
	C8.7,5.1,8.1,4.9,7.5,5C6.9,5.1,6.3,5.4,5.8,5.8C5.4,6.3,5.1,6.9,5,7.5C4.9,8.1,5.1,8.7,5.4,9.3c-0.1,0.7-0.1,1.5,0.2,2.2
	c0.2,0.7,0.6,1.3,1.1,1.8c0.5,0.5,1.2,0.9,1.8,1.1c0.7,0.2,1.4,0.3,2.2,0.2c0.5,0.3,1.2,0.5,1.8,0.4c0.6-0.1,1.2-0.4,1.7-0.8
	c0.4-0.4,0.7-1,0.8-1.7C15.1,11.9,14.9,11.3,14.6,10.7L14.6,10.7z M12.2,12.1c-0.2,0.3-0.5,0.5-0.9,0.7C11,12.9,10.5,13,10,13
	c-0.6,0-1.1-0.1-1.5-0.3c-0.3-0.2-0.5-0.4-0.7-0.6c-0.2-0.3-0.3-0.5-0.3-0.8c0-0.1,0-0.1,0-0.2c0-0.1,0.1-0.1,0.1-0.2
	c0.1-0.1,0.3-0.2,0.4-0.2c0.1,0,0.3,0,0.4,0.1c0.1,0.1,0.2,0.2,0.2,0.4c0.1,0.2,0.2,0.3,0.3,0.5C9,11.8,9.2,11.9,9.3,12
	c0.2,0.1,0.4,0.1,0.6,0.1c0.4,0,0.7-0.1,0.9-0.2c0.2-0.2,0.3-0.4,0.3-0.6c0-0.1,0-0.2,0-0.2c0-0.1-0.1-0.1-0.1-0.2
	c-0.1-0.1-0.3-0.2-0.5-0.3c-0.3-0.1-0.5-0.1-0.8-0.2C9.4,10.3,9,10.2,8.6,10C8.3,9.9,8.1,9.7,7.9,9.5C7.7,9.2,7.6,9,7.6,8.6
	c0-0.3,0.1-0.6,0.3-0.9c0.2-0.2,0.5-0.4,0.8-0.6C9.1,7.1,9.5,7,10,7c0.4,0,0.7,0,1,0.1c0.3,0.1,0.5,0.2,0.7,0.4
	c0.2,0.1,0.3,0.3,0.4,0.5c0.1,0.2,0.1,0.3,0.1,0.5c0,0.1-0.1,0.3-0.2,0.4c-0.1,0.1-0.1,0.1-0.2,0.1c-0.1,0-0.1,0-0.2,0
	c-0.1,0-0.3,0-0.3-0.1c-0.1-0.1-0.2-0.2-0.2-0.3C11,8.4,10.8,8.2,10.7,8c-0.2-0.1-0.4-0.2-0.8-0.2c-0.3,0-0.6,0.1-0.8,0.2
	C8.9,8.2,8.8,8.3,8.8,8.5c0,0.1,0,0.2,0.1,0.3C9,8.9,9.1,9,9.2,9c0.1,0.1,0.2,0.1,0.4,0.1c0.1,0,0.3,0.1,0.6,0.2
	c0.4,0.1,0.7,0.2,1,0.3c0.3,0.1,0.5,0.2,0.7,0.3c0.2,0.1,0.4,0.3,0.5,0.5c0.1,0.2,0.2,0.5,0.2,0.7C12.5,11.5,12.4,11.8,12.2,12.1
	L12.2,12.1z"/>
</svg>
