<?xml version="1.0" encoding="utf-8"?>
<!-- Generator: Adobe Illustrator 24.0.3, SVG Export Plug-In . SVG Version: 6.00 Build 0)  -->
<svg version="1.1" id="Слой_1" xmlns="http://www.w3.org/2000/svg" xmlns:xlink="http://www.w3.org/1999/xlink" x="0px" y="0px"
	 viewBox="0 0 20 20" style="enable-background:new 0 0 20 20;" xml:space="preserve">
<path d="M20,10c0,2.7-1.1,5.2-2.9,7.1C15.2,18.9,12.7,20,10,20c-2.7,0-5.2-1.1-7.1-2.9C1.1,15.2,0,12.7,0,10c0-2.7,1.1-5.2,2.9-7.1
	C4.8,1.1,7.3,0,10,0c2.7,0,5.2,1.1,7.1,2.9C18.9,4.8,20,7.3,20,10L20,10z M10.4,7.4c-1,0.4-2.9,1.2-5.8,2.5
	c-0.5,0.2-0.7,0.4-0.7,0.6c0,0.3,0.3,0.4,0.9,0.6l0.2,0.1c0.5,0.2,1.2,0.4,1.6,0.4c0.3,0,0.7-0.1,1.1-0.4c2.7-1.8,4.1-2.8,4.2-2.8
	c0.1,0,0.1,0,0.2,0C12,8.4,12,8.5,12,8.5c0,0.2-1.5,1.6-2.3,2.3c-0.2,0.2-0.4,0.4-0.4,0.4c-0.1,0.1-0.2,0.2-0.2,0.2
	c-0.5,0.5-0.8,0.8,0,1.4c0.4,0.3,0.7,0.5,1.1,0.7c0.4,0.2,0.7,0.5,1.2,0.8c0.1,0.1,0.2,0.2,0.3,0.2c0.4,0.3,0.8,0.6,1.2,0.5
	c0.3,0,0.5-0.3,0.7-1c0.3-1.8,1-5.6,1.1-7.2c0-0.1,0-0.3,0-0.4c0-0.1-0.1-0.2-0.1-0.3C14.4,6.1,14.2,6,14.1,6
	C13.7,6,13.1,6.2,10.4,7.4L10.4,7.4z"/>
</svg>
