<svg width="20" height="21" viewBox="0 0 20 21" fill="none" xmlns="http://www.w3.org/2000/svg">
<path d="M9.75997 0C8.17817 0 4.26531 0.166504 2.18401 2.16456C0.685464 3.57985 0.102698 5.74441 0.0194457 8.32523C-0.147059 12.4046 0.768716 14.9854 2.26726 16.3175C2.60027 16.5672 3.43279 17.2332 5.01458 17.7327V19.814C5.01458 19.814 5.01458 20.6466 5.5141 20.8131C5.59735 20.8131 5.6806 20.8963 5.76385 20.8963C6.26337 20.8963 6.67963 20.3136 7.2624 19.7308C7.76191 19.148 8.17817 18.7318 8.42793 18.3155H10.2595C11.8413 18.3155 15.7541 18.149 17.8354 16.1509C19.334 14.6524 19.9167 12.4878 19.9167 9.74052C20 9.32426 20 8.82474 20 8.32523C19.9167 5.2449 19.001 3.16359 17.7522 1.99806C17.2527 1.58179 15.0881 0 10.426 0H9.75997V0ZM9.59346 1.58179H10.3427C14.7551 1.58179 16.4202 2.99708 16.5867 3.16359C17.5857 3.99611 18.1684 5.82766 18.2517 8.24198V8.57499C18.335 9.0745 18.335 9.49076 18.335 9.74052C18.2517 12.2381 17.7522 13.9031 16.7532 14.9854C15.0049 16.5672 11.3418 16.6505 10.3427 16.6505H8.76094L7.4289 18.149L6.59638 19.0648L6.42987 19.3145C6.26337 19.481 6.01361 19.814 5.84711 19.8973V16.1509C4.18206 15.7347 3.51604 15.1519 3.34954 14.9854C2.18401 13.9864 1.51799 11.5721 1.68449 8.32523V7.49271C1.851 5.49465 2.35051 4.16262 3.18303 3.24684C4.93133 1.66505 8.59443 1.58179 9.59346 1.58179V1.58179ZM9.51021 3.41335C9.09395 3.41335 9.09395 3.99611 9.51021 3.99611C12.5905 3.99611 15.2546 6.07742 15.2546 9.99028C15.2546 10.4065 15.8374 10.4065 15.8374 9.99028C15.8374 5.74441 13.0068 3.33009 9.51021 3.41335V3.41335ZM6.21092 4.18343C6.02229 4.16082 5.83229 4.2128 5.68143 4.32829C4.84891 4.74455 4.01556 5.57874 4.26531 6.49451C4.26531 6.49451 4.43182 7.24295 5.34759 8.82475C5.84711 9.57402 6.26337 10.24 6.67963 10.7395C7.09589 11.3223 7.76191 11.9883 8.42793 12.4878C9.75997 13.5701 11.8413 14.6524 12.757 14.9022C13.5896 15.1519 14.5053 14.3194 14.9216 13.4869C15.0881 13.1539 15.0049 12.7376 14.6719 12.4878C14.1723 11.9883 13.3398 11.4056 12.757 11.0726C12.3408 10.8228 11.8413 10.9893 11.6748 11.2391L11.2585 11.7386C11.092 11.9883 10.6757 11.9883 10.6757 11.9883C7.92841 11.2391 7.17914 8.40848 7.17914 8.40848C7.17914 8.40848 7.17914 8.07547 7.4289 7.82572L7.92842 7.40946C8.17817 7.24295 8.34468 6.74344 8.09492 6.32718C7.92841 6.07742 7.67866 5.5779 7.4289 5.32815C7.17914 4.99514 6.67963 4.41237 6.67963 4.41237C6.55332 4.28589 6.38833 4.2053 6.21092 4.18343V4.18343ZM10.093 5.07839C9.67671 4.99514 9.59346 5.66116 10.0097 5.66116C12.3408 5.82766 13.6728 7.40946 13.5896 9.40751C13.5063 9.82377 14.1723 9.82377 14.1723 9.40751C14.2556 7.07645 12.757 5.16164 10.093 5.07839V5.07839ZM10.3427 6.66018C9.92647 6.57693 9.92647 7.24295 10.3427 7.24295C11.3418 7.24295 11.8413 7.82572 11.8413 8.82475C11.9245 9.24101 12.5073 9.24101 12.5073 8.82475C12.424 7.49271 11.6748 6.66018 10.3427 6.66018Z" fill="#D9D9D9"/>
</svg>
