<?xml version="1.0" encoding="utf-8"?>
<!-- Generator: Adobe Illustrator 24.0.3, SVG Export Plug-In . SVG Version: 6.00 Build 0)  -->
<svg version="1.1" id="Layer_1" xmlns="http://www.w3.org/2000/svg" xmlns:xlink="http://www.w3.org/1999/xlink" x="0px" y="0px"
	 viewBox="0 0 1000 1000" style="enable-background:new 0 0 1000 1000;" xml:space="preserve">
<title></title>
<g>
	<g>
		<path d="M501.6,226.3c-150.7,0-273.2,122.5-273.3,273.1c0,51.7,14.5,101.9,41.8,145.4l6.5,10.3L249,755.9l103.4-27.1l10,5.9
			c41.9,24.9,90,38.1,139,38.1h0.1c150.5,0,273.1-122.5,273.1-273.2c0.1-72.9-28.3-141.6-79.9-193.2
			C643.1,254.8,574.6,226.3,501.6,226.3z M662.2,616.8c-6.8,19.1-39.6,36.6-55.4,39c-14.1,2.1-32,3-51.7-3.3
			c-11.9-3.8-27.2-8.8-46.8-17.3c-82.4-35.6-136.2-118.5-140.3-124c-4.1-5.4-33.5-44.5-33.5-84.9c0-40.4,21.2-60.3,28.7-68.5
			s16.4-10.3,21.9-10.3c5.4,0,10.9,0.1,15.7,0.3c5.1,0.3,11.8-1.9,18.5,14.1c6.8,16.5,23.2,56.9,25.3,61c2.1,4.1,3.4,8.9,0.7,14.4
			s-4.1,8.9-8.2,13.7c-4.1,4.8-8.6,10.7-12.3,14.4c-4.1,4.1-8.4,8.6-3.6,16.8c4.8,8.2,21.3,35.1,45.7,56.9
			c31.3,28,57.8,36.7,66,40.8s13,3.4,17.8-2.1s20.5-24,26-32.2s11-6.8,18.5-4.1c7.5,2.7,47.9,22.6,56.1,26.7
			c8.2,4.2,13.7,6.2,15.7,9.6S669,597.6,662.2,616.8z M500,0C223.9,0,0,223.9,0,500s223.9,500,500,500s500-223.9,500-500
			S776.1,0,500,0z M501.4,828.3h-0.1c-55,0-109-13.8-157-40L170.1,834l46.6-170.3c-28.8-49.8-43.9-106.4-43.9-164.3
			c0-181.2,147.5-328.6,328.6-328.6c87.9,0.1,170.5,34.3,232.5,96.4c62.1,62.1,96.2,144.7,96.1,232.5
			C829.9,680.9,682.5,828.3,501.4,828.3z"/>
	</g>
</g>
</svg>
