<?xml version="1.0" encoding="utf-8"?>
<!-- Generator: Adobe Illustrator 24.0.3, SVG Export Plug-In . SVG Version: 6.00 Build 0)  -->
<svg version="1.1" id="Слой_1" xmlns="http://www.w3.org/2000/svg" xmlns:xlink="http://www.w3.org/1999/xlink" x="0px" y="0px"
	 viewBox="0 0 409.2 46.2" style="enable-background:new 0 0 409.2 46.2;" xml:space="preserve">
<style type="text/css">
	.st0{fill:#006A4E;}
	.st1{fill:#009597;}
	.st2{fill:#E3252F;}
</style>
<g>
	<path class="st0" d="M95,14.3c3.2,0,6.5,1,9.2,2.9l-2.1,2.7c-2.2-1.5-4.1-2.4-6.9-2.4c-4.9,0-8.7,3-8.7,7.5s3.8,7.5,8.7,7.5
		c2.9,0,4.9-0.9,7.2-2.5l2.1,2.7c-2.8,2-6.2,3-9.6,3c-6.7,0-13-3.9-13-10.7C82,18.2,88.3,14.3,95,14.3z"/>
	<path class="st0" d="M109,14.7h11.2c5.2,0,9.4,2.1,9.4,6.6c0,3.5-2.6,5.4-6.1,6.2l6.7,7.8H125l-6.1-7.2h-5.5v7.2H109V14.7z
		 M119.8,24.9c3.1,0,5.1-1.3,5.1-3.5c0-2.2-1.9-3.4-5.2-3.4h-6.4v6.9H119.8z"/>
	<path class="st0" d="M134.4,29.4V14.7h18.7V18h-14.3v5h13.1v3.2h-13.1v3.2c0,1.8,0.9,2.7,2.6,2.7h12.1v3.3h-13.1
		C136.6,35.3,134.4,33.1,134.4,29.4z M148.6,8.8l-3.4,3.6h-3.8l2.6-3.6H148.6z"/>
	<path class="st0" d="M158.8,14.7h9.3c8,0,13.3,4.1,13.3,10.3c0,6.2-5.3,10.3-13.3,10.3h-9.3V14.7z M168.4,32c5,0,8.4-2.8,8.4-7
		c0-4.2-3.4-7-8.4-7h-5.2v14H168.4z"/>
	<path class="st0" d="M186,14.7h4.4v20.6H186V14.7z"/>
	<path class="st0" d="M194.8,18v-3.3h20.3V18h-7.9v17.3h-4.4V18H194.8z"/>
	<path class="st0" d="M242.2,30.3h-11.4l-2.5,5h-4.5l10.7-20.6h4.5l10.7,20.6h-5.1L242.2,30.3z M240.6,27.1l-4.1-8.2l-4.1,8.2H240.6
		z"/>
	<path class="st0" d="M264,14.3c3.2,0,6.5,1,9.2,2.9l-2.1,2.7c-2.2-1.5-4.1-2.4-6.9-2.4c-4.9,0-8.7,3-8.7,7.4c0,4.4,3.4,7.5,8.5,7.5
		c2.3,0,4.4-0.6,5.8-1.6v-3.9h-6.2v-3.2h10.6v8.7c-2.5,1.8-6,3.2-10.4,3.2c-7.8,0-12.9-4.6-12.9-10.7C251,18.2,257.3,14.3,264,14.3z
		"/>
	<path class="st0" d="M279.9,14.7h11.2c5.2,0,9.4,2.1,9.4,6.6c0,3.5-2.6,5.4-6.1,6.2l6.7,7.8H296l-6.1-7.2h-5.5v7.2h-4.4V14.7z
		 M290.8,24.9c3.1,0,5.1-1.3,5.1-3.5c0-2.2-1.9-3.4-5.2-3.4h-6.4v6.9H290.8z"/>
	<path class="st0" d="M306.1,14.7h4.4v20.6h-4.4V14.7z"/>
	<path class="st0" d="M328.5,14.3c3.2,0,6.5,1,9.2,2.9l-2.1,2.7c-2.2-1.5-4.1-2.4-6.9-2.4c-4.9,0-8.7,3-8.7,7.5s3.8,7.5,8.7,7.5
		c2.9,0,4.9-0.9,7.2-2.5l2.1,2.7c-2.8,2-6.2,3-9.6,3c-6.7,0-13-3.9-13-10.7C315.5,18.2,321.8,14.3,328.5,14.3z"/>
	<path class="st0" d="M339.6,25c0-5.8,5.4-10.7,13-10.7c7.6,0,13,4.8,13,10.7c0,5.8-5.4,10.7-13,10.7
		C345.1,35.7,339.6,30.8,339.6,25z M344.2,25c0,4.2,3.4,7.5,8.5,7.5c5,0,8.5-3.3,8.5-7.5c0-4.2-3.4-7.5-8.5-7.5
		C347.7,17.5,344.2,20.8,344.2,25z"/>
	<path class="st0" d="M369.8,14.7h4.4V32h13.1v3.3h-17.5V14.7z"/>
	<path class="st0" d="M390.1,29.4V14.7h18.7V18h-14.3v5h13.1v3.2h-13.1v3.2c0,1.8,0.9,2.7,2.6,2.7h12.1v3.3h-13.1
		C392.3,35.3,390.1,33.1,390.1,29.4z"/>
</g>
<g>
	<rect x="0.7" y="40.7" class="st0" width="60.8" height="5.4"/>
	<g>
		<path class="st0" d="M39.3,11.1l4.1,10.3l7.2-3.8L44.4,3.7h-9.1L22.4,27.6c0,0,6.3-0.2,10.3-3.2C33.8,23.8,36.7,16.2,39.3,11.1
			L39.3,11.1L39.3,11.1z"/>
		<path class="st1" d="M50.7,17.6l-7.2,3.8c-6.2,3.2-12.1,6-15.3,6.9c-8.4,2.4-18.6,3.9-22.2,0.6C2.5,25.8,10.4,13,25.5,10.2
			c2.4-0.5,3.9-0.4,3.9-0.4c0,0-1-4.4-1.8-5.3c-1.1-1.4-2.2-1.7-3.9-1.4C20.4,3.2,6.6,6.9,1.1,18.5c-3,6.6,1,13.2,3.6,15.1
			c1.2,0.9,9.1,7.9,27.3,0.8c17.9-7,34-17.9,34-17.9V9.2C65.9,9.1,58.9,13.2,50.7,17.6z"/>
		<path class="st0" d="M46,28.1c0.7,1.6,2.6,6.2,3.1,7.5c0.6,1.4,2.2,1.4,2.2,1.4h8.4l-6.2-12.9C51.1,25.4,48.6,26.7,46,28.1z"/>
	</g>
	<path class="st2" d="M66,6.3c0,0-9.6,5.5-11.8,6.3c-2.1,0.8-2.8-0.3-3.1-0.6c-0.6-0.8-1.5-3.6-1.6-4c0.1,0,0.6,0.1,1.8-0.2
		C52.8,7.4,65.9,0,66,0V6.3L66,6.3z"/>
</g>
</svg>
