<?xml version="1.0" encoding="utf-8"?>
<!-- Generator: Adobe Illustrator 24.0.3, SVG Export Plug-In . SVG Version: 6.00 Build 0)  -->
<svg version="1.1" id="Слой_1" xmlns="http://www.w3.org/2000/svg" xmlns:xlink="http://www.w3.org/1999/xlink" x="0px" y="0px"
	 viewBox="0 0 249.7 80" style="enable-background:new 0 0 249.7 80;" xml:space="preserve">
<style type="text/css">
	.st0{fill:#FFFFFF;}
</style>
<g>
	<path class="st0" d="M1.7,0.7v29.4h7.1V6.2h4.6v23.9h7.1V0.7H1.7z"/>
	<path class="st0" d="M29.2,0.7l-6.4,29.4h7.1l0.9-5.9h5.4l1.1,5.9h7L37.7,0.7H29.2z M31.5,18.9l1.8-13h0l1.9,13H31.5z"/>
	<path class="st0" d="M53.2,0.7h-6.8v29.4h6.8v-6.8l1.9-3.4l3.3,10.3h7.5l-6.5-16.4l6.5-13h-7.7l-5,11.7V0.7z"/>
	<path class="st0" d="M68.6,30.1h16.5v-5.6h-9.4v-6.9h8.4V12h-8.4V6.2h9.4V0.7H68.6V30.1z"/>
	<path class="st0" d="M98.9,6.2h5.2V0.7H86.8v5.6h5.6v23.9h6.5V6.2z"/>
	<path class="st0" d="M117.6,0.7v29.4h7.1V6.2h4.6v23.9h7.1V0.7H117.6z"/>
	<path class="st0" d="M149.8,0c-6.7,0-9.6,3.7-9.6,8.3v13.2c0,5.9,3,9.3,9.6,9.3c6.6,0,9.6-3.4,9.6-9.3V8.3
		C159.3,3.7,156.5,0,149.8,0z M149.8,5.4c1.2,0,2.5,0.7,2.5,2.4v14.9c0,1.8-1.3,2.6-2.5,2.6c-1.2,0-2.5-0.9-2.5-2.6V7.8
		C147.3,6.2,148.5,5.4,149.8,5.4z"/>
	<path class="st0" d="M174.9,18.5v3.9c0,2.2-1.1,3-2.6,3c-1.5,0-2.4-0.9-2.4-3.1V7.6c0-1.5,1.2-2.2,2.4-2.2c1.1,0,2.6,0.7,2.6,2.3
		v2.7h7.1v-2c0-4.6-3-8.4-9.6-8.4c-6.7,0-9.6,3.7-9.6,8.3v12.8c0,6.8,3.1,9.6,9.6,9.6c6.6,0,9.6-2.9,9.6-9.6v-2.7H174.9z"/>
	<path class="st0" d="M188.3,0.7v13.9c0,9.1-0.1,10.3-2.1,10.3c-0.7,0-1.4-0.1-1.7-0.2v5c1.2,0.5,2.3,0.9,3.8,0.9
		c4.8,0,6.8-2.9,6.8-14.1V6.2h4.7v23.9h7.1V0.7H188.3z"/>
	<path class="st0" d="M209.4,0.7l6.6,23.2c-0.3,0.9-1.1,1-1.7,1c-0.7,0-1.4-0.1-1.8-0.2v5c0.6,0.5,2.3,0.8,3.6,0.8
		c5,0,6.6-1.4,8.2-7.1l6.3-22.7h-7.3l-2.7,12.8c-0.2,1.1-0.5,3-0.7,6.1h-0.1c-0.2-3.1-0.2-5-0.4-6.1l-2.7-12.8H209.4z"/>
	<path class="st0" d="M233.2,0.7v29.4h7.1V6.2h9.4V0.7H233.2z"/>
	<path class="st0" d="M0,49.9l6.5,29.4h8.4l6.5-29.4h-7.2l-2.8,15.5c-0.2,1.2-0.5,5.5-0.7,8.2h-0.1c-0.2-2.7-0.6-7-0.8-8.1L7.2,49.9
		H0z"/>
	<path class="st0" d="M33.1,49.2c-6.7,0-9.6,3.7-9.6,8.3v13.2c0,5.9,3,9.3,9.6,9.3c6.6,0,9.6-3.4,9.6-9.3V57.6
		C42.6,53,39.8,49.2,33.1,49.2z M33.1,54.6c1.2,0,2.5,0.7,2.5,2.4V72c0,1.8-1.3,2.6-2.5,2.6c-1.2,0-2.5-0.9-2.5-2.6V57.1
		C30.6,55.4,31.8,54.6,33.1,54.6z"/>
	<path class="st0" d="M43.8,49.9L51,66.2v13.1h7.1V66.2l7.1-16.4h-6.8l-3.7,9.3L51,49.9H43.8z"/>
	<path class="st0" d="M70.3,49.9l-6.4,29.4H71l0.9-5.9h5.4l1.1,5.9h7l-6.5-29.4H70.3z M72.6,68.1l1.8-13h0l1.9,13H72.6z"/>
	<path class="st0" d="M105.9,59.6v-2.1c0-5.2-2.8-8.3-9.3-8.3c-6.4,0-9.3,3-9.3,8.3v14c0,6.4,3.8,8.5,7.3,8.5c3.1,0,5.7-1.3,6.3-3.2
		l0.3,2.5h4.6V63.5h-9.3v5.3h2.5v3.3c0,1.7-1.2,2.6-2.4,2.6c-1.2,0-2.5-0.9-2.5-2.7V56.8c0-1.3,0.9-2.2,2.6-2.2
		c1.7,0,2.4,0.9,2.4,2.1v2.8H105.9z"/>
	<path class="st0" d="M109.7,79.3h16.5v-5.6h-9.4v-6.9h8.4v-5.6h-8.4v-5.8h9.4v-5.6h-16.5V79.3z"/>
</g>
</svg>
