<?xml version="1.0" encoding="utf-8"?>
<!-- Generator: Adobe Illustrator 24.0.3, SVG Export Plug-In . SVG Version: 6.00 Build 0)  -->
<svg version="1.1" id="Слой_1" xmlns="http://www.w3.org/2000/svg" xmlns:xlink="http://www.w3.org/1999/xlink" x="0px" y="0px"
	 viewBox="0 0 222.8 21.9" style="enable-background:new 0 0 222.8 21.9;" xml:space="preserve">
<style type="text/css">
	.st0{fill:#FFFFFF;stroke:#FFFFFF;stroke-width:0.5;stroke-miterlimit:10;}
</style>
<g>
	<path class="st0" d="M0.3,5.1L0.2,16.4c0,0.3,0.2,0.4,0.5,0.5c0.3,0,0.4-0.2,0.4-0.5c0-0.3,0-0.7,0-1.2L1.2,0.6
		c0-0.3-0.1-0.4-0.5-0.4c-0.3,0-0.4,0.1-0.4,0.4V5.1z"/>
	<path class="st0" d="M10.8,16.8L10.8,16.8c0,0.3-0.1,0.7-0.3,1.1l0,0l0,0l0,0l-0.1,0.4c0,0.1-0.1,0.1-0.1,0.2l-0.4,0.6
		c-0.1,0.2-0.3,0.4-0.6,0.6l0,0l0,0l0,0l-0.3,0.2l-0.4,0.2c-0.2,0-0.3,0.1-0.3,0.1H8.1l-0.2,0.1c-0.1,0-0.3,0.1-0.7,0.2l-0.7,0.1
		c-0.3,0-0.6,0.1-0.9,0.1s-0.4,0.1-0.4,0.4s0.1,0.5,0.4,0.5c1.9,0,3.4-0.5,4.5-1.5c0.7-0.7,1.2-1.6,1.4-2.6c0.1-0.4,0.1-0.7,0.1-1.1
		c-0.1-1.7-0.2-3.2-0.2-4.4l0,0c0-0.7,0-1.4,0-2.2c0-1.3,0-2.5,0.1-3.6c0-0.1,0-0.1,0-0.2V5.8c0.2-0.4,0.1-0.5-0.3-0.5
		c-0.3,0-0.4,0.1-0.5,0.4c0,0.2-0.1,0.9-0.1,2V8c-0.4-0.9-0.9-1.5-1.5-2C8.6,5.6,7.8,5.3,7.1,5.2c-0.8,0-1.5,0.2-2.1,0.6
		C4,6.4,3.3,7.4,3,8.9c-0.1,0.8-0.2,1.4-0.2,2l0,0c0,0.6,0.1,1.2,0.2,2c0.3,1.4,1,2.5,1.9,3.2c0.6,0.4,1.3,0.6,2.1,0.7
		c0.9,0.1,1.6-0.1,2.4-0.5c0.6-0.3,1-0.8,1.4-1.3c0,0.4,0,0.9,0.1,1.5C10.9,16.5,10.9,16.6,10.8,16.8L10.8,16.8z M4.8,14.8L4.8,14.8
		l-0.1-0.1c-0.1-0.2-0.2-0.3-0.2-0.4c-0.1-0.1-0.1-0.2-0.2-0.4l0,0l0,0c0-0.1,0-0.2-0.1-0.2c-0.2-0.5-0.3-1-0.4-1.5l-0.1-1
		c0-0.3,0-0.4,0-0.6c0-0.1,0-0.3,0-0.6l0.1-0.7c0-0.2,0.1-0.5,0.2-0.8c0.1-0.2,0.2-0.2,0.2-0.3l0.2-0.5c0-0.1,0.1-0.2,0.2-0.4
		l0.1-0.2l0.5-0.4l0.5-0.3l0.7-0.1h0.8l0.6,0.1C8,6.4,8.1,6.4,8,6.4l0.5,0.3l0.3,0.2l0.4,0.4l0.1,0.2C9.5,7.7,9.7,8,9.9,8.3
		c0,0,0,0,0,0.1s0,0.1,0,0.1s0,0,0,0.1c0,0,0,0,0,0.1L10,9.2c0.1,0.3,0.2,0.5,0.2,0.8l0.1,0.7l0.1,0.7c0,0.3,0,0.6,0,0.9
		c0,0.1,0,0.3,0,0.3v0.2c0,0.2-0.1,0.5-0.2,0.8l0.1,0.4c0,0-0.1,0.1-0.1,0.2c0,0.1,0,0.1,0,0.1s0,0.1-0.1,0.2l-0.2,0.4l-0.1,0.1
		c-0.1,0.1-0.2,0.2-0.3,0.3s-0.1,0.1-0.1,0.1l-0.1,0.1l-0.5,0.3l-0.3,0.1C8.2,16,8.1,16,7.9,16H7.4c-0.2,0-0.4,0-0.5,0l-0.5-0.1
		L6,15.8c-0.1-0.1-0.3-0.1-0.4-0.2l0,0l-0.4-0.3c-0.1-0.1-0.2-0.2-0.3-0.3L4.8,14.8z"/>
	<path class="st0" d="M20.9,15.2l-0.8,0.4l0,0l0,0l-0.2,0.1c-0.2,0.1-0.3,0.1-0.4,0.1L19.1,16h-0.4c-0.1,0-0.3,0-0.3,0
		c-0.1,0-0.2,0-0.3,0h-0.2c-0.2,0-0.4-0.1-0.5-0.1s-0.1,0-0.2,0l-0.6-0.4l0,0h-0.1l-0.2-0.3c-0.1-0.1-0.2-0.2-0.3-0.3l-0.1-0.1
		c0,0,0,0,0-0.1l-0.1-0.1c-0.2-0.3-0.4-0.6-0.4-0.8c-0.1-0.1-0.1-0.2-0.2-0.3L15,13c-0.2-0.4-0.3-1-0.4-1.5L14.5,11c0.4,0,1,0,1.7,0
		c1.7,0,3,0,3.9,0c0.5,0,1.2,0,2.1,0c0.3,0,0.4-0.2,0.4-0.5c0-0.2,0-0.4,0-0.5c-0.1-0.5-0.2-1-0.3-1.4C22,7.2,21.1,6.2,20,5.7
		c-0.7-0.5-1.5-0.6-2.4-0.5c-0.5,0.1-0.9,0.2-1.3,0.3c-0.3,0.1-0.6,0.3-0.9,0.6c-0.8,0.7-1.4,1.7-1.6,3.1c-0.1,0.6-0.2,1.1-0.1,1.4
		c0,0.9,0.2,1.7,0.5,2.5c0.5,1.4,1.2,2.5,2.3,3.1c0.9,0.5,1.9,0.7,3.1,0.5c0.6-0.1,1.1-0.3,1.6-0.6c0.7-0.5,1.2-1.1,1.5-1.8
		c0.1-0.2,0.1-0.4,0.2-0.6c0.1-0.3-0.1-0.5-0.3-0.6c-0.1,0-0.2,0-0.3,0c-0.1,0.1-0.2,0.2-0.2,0.3C22,13.7,22,13.9,21.9,14l-0.3,0.2
		c-0.1,0.1-0.1,0.2-0.1,0.3s-0.1,0.1-0.1,0.2L20.9,15.2z M19.5,6.4c0.1,0,0.2,0,0.2,0.1l0.5,0.2v0.1l0,0L20.5,7
		c0.1,0.1,0.2,0.2,0.3,0.3l0,0l0,0l0,0l0,0l0,0l0.5,0.6c0,0.1,0,0.2,0,0.2v0.1c0,0,0,0,0,0.1l0.2,0.7c0.1,0.2,0.1,0.4,0.1,0.6
		l0.1,0.4c-0.7,0-1.3,0-1.6,0c-0.9,0-2.2,0-3.9,0c-0.8,0-1.4,0-1.8,0l0.1-0.6c0-0.2,0.1-0.4,0.2-0.7l0.1-0.4c0,0,0,0,0-0.1l0,0l0,0
		l0.1-0.2C15,8,15.1,7.7,15.3,7.4l0,0l0,0l0.2-0.3l0.4-0.4l0,0c0,0,0.1-0.1,0.2-0.1c0.1-0.1,0.1-0.1,0.2-0.1l0,0h0.1l0,0
		c0.6-0.1,0.8-0.2,0.9-0.2l0.3-0.1h0.8h0.5c0.2,0.1,0.4,0.1,0.5,0.1L19.5,6.4C19.5,6.3,19.5,6.3,19.5,6.4L19.5,6.4z M20.9,7.3
		L20.9,7.3L20.9,7.3L20.9,7.3z"/>
	<path class="st0" d="M32.8,5.2c-0.3,0-0.4,0.1-0.5,0.4c0,0.2-0.1,0.9-0.1,2V8c-0.4-0.8-0.9-1.4-1.5-1.9c-0.6-0.4-1.3-0.7-2.1-0.7
		c-0.8,0-1.5,0.1-2.1,0.5c-0.9,0.6-1.6,1.6-1.9,3.2c-0.1,0.8-0.2,1.4-0.2,2l0,0c0,0.6,0.1,1.2,0.2,2c0.3,1.4,1,2.5,1.9,3.2
		c0.6,0.4,1.3,0.6,2.1,0.7c0.9,0.1,1.6-0.1,2.4-0.5c0.6-0.3,1-0.8,1.4-1.3l0.1,1.4c0,0.3,0.2,0.4,0.4,0.5c0.3,0,0.5-0.2,0.5-0.5
		c-0.1-1.6-0.2-3.1-0.2-4.5l0,0c0-0.7,0-1.4,0-2.2c0-1.3,0-2.5,0.1-3.6c0-0.1,0-0.1,0-0.2V5.9C33.3,5.3,33.2,5.2,32.8,5.2z
		 M25.5,9.1c0-0.2,0.1-0.5,0.2-0.8c0,0,0.1-0.1,0.1-0.2l0.2-0.5c0-0.1,0.1-0.2,0.2-0.4L26.4,7l0.5-0.4l0.5-0.3L28,6.2h0.7l0.6,0.1
		c0.2,0.1,0.2,0.1,0.2,0.1h0.1l0.6,0.3l0,0l0.2,0.1l0.4,0.4L31,7.4c0.1,0.2,0.3,0.5,0.5,0.8c0,0,0,0,0,0.1s0,0.1,0,0.1l0,0l0,0l0,0
		c0,0,0,0,0,0.1L31.6,9c0.1,0.3,0.2,0.5,0.2,0.8l0.1,0.7v0.3l0.1,0.4c0,0.3,0,0.6,0,0.9c0,0.1,0,0.3,0,0.3v0.2
		c0,0.2-0.1,0.5-0.2,0.8l-0.1,0.4c0,0-0.1,0.1-0.1,0.2c0,0.1,0,0.1,0,0.1s0,0.1-0.1,0.2l-0.2,0.4l-0.1,0.1c-0.1,0.1-0.2,0.2-0.3,0.3
		c-0.1,0.1-0.1,0.1-0.1,0.1l-0.1,0.1l-0.4,0.4l0,0l0,0L30,15.8c-0.2,0.1-0.3,0.1-0.5,0.1H29c-0.2,0-0.4,0-0.5,0l-0.8-0.2l0,0
		c-0.1-0.1-0.3-0.1-0.4-0.2l0,0l-0.4-0.2l-0.4-0.4l-0.1-0.2c-0.1-0.2-0.2-0.3-0.2-0.4c-0.1-0.1-0.1-0.2-0.2-0.4l0,0l0,0
		c0-0.1,0-0.2-0.1-0.2c-0.2-0.5-0.3-1-0.4-1.5l-0.1-1c0-0.3,0-0.4,0-0.6c0-0.1,0-0.3,0-0.6L25.5,9.1z M29.6,6.4L29.6,6.4L29.6,6.4
		L29.6,6.4z"/>
	<path class="st0" d="M43.5,16.9c0.3,0,0.4-0.1,0.5-0.4c0-0.3,0-0.9,0-1.5c0-1.2-0.1-2.4-0.3-3.5c-0.2-1.5-0.6-2.7-1-3.7
		c-0.6-1.2-1.3-2-2.2-2.3c-0.5-0.2-1-0.2-1.6,0c-0.6,0.1-1,0.4-1.4,0.8c-0.5,0.5-0.9,1.3-1.2,2.4c-0.5,2-0.9,4-0.9,6.1
		c0,0.3,0,0.7,0,1.2c0,0.1,0,0.3,0,0.3c0,0.3,0.1,0.4,0.4,0.4c0.3,0,0.5-0.1,0.5-0.4v-1.5c0-0.3,0-0.9,0.1-1.6c0-0.1,0-0.2,0-0.4
		l0.2-1.3c0.1-0.7,0.2-1.3,0.4-1.9c0-0.2,0.1-0.5,0.3-0.9l0.2-0.5L37.5,8c0.1-0.3,0.3-0.5,0.4-0.7C38,7.2,38,7.2,38,7.1l0.2-0.3
		c0.1-0.1,0.1-0.1,0.1-0.1l0.1-0.1l0.4-0.2l0.4-0.1c0,0,0,0,0.1,0s0.1,0,0.1,0h0.4c0.1,0,0.1,0,0.2,0h0.1l0.4,0.2L41,6.9l0,0l0,0
		l0,0c0.2,0.3,0.3,0.5,0.4,0.7c0.1,0.1,0.1,0.2,0.2,0.4l0.1,0.3c0.2,0.5,0.4,1.1,0.5,1.8c0,0.1,0.1,0.2,0.1,0.5l0.2,1.3
		c0.1,0.4,0.1,1,0.2,1.8c0.1,0.9,0.1,1.6,0.1,2.3v0.2C43,16.8,43,16.9,43.5,16.9z"/>
	<path class="st0" d="M46.8,5.8c0-0.3-0.1-0.4-0.4-0.4c-0.3,0-0.5,0.1-0.5,0.4v10.7c0,0.3,0.2,0.4,0.5,0.5c0.3,0,0.4-0.1,0.4-0.4
		c0.9,0,1.5,0,2.1,0c0.5,0,1.2,0,2.1,0c0.3,0,0.4-0.2,0.4-0.5c0-0.2,0-0.4,0-0.5c-0.1-0.5-0.2-1-0.3-1.4c-0.4-1.4-1.2-2.4-2.4-2.9
		c-0.6-0.3-1.3-0.4-1.9-0.4c0-0.2,0-1.6,0-4.1L46.8,5.8z M48.2,11.9c0.1,0,0.2,0,0.2,0.1l0.4,0.2v0.1l0,0l0.2,0.2
		c0.1,0.1,0.2,0.2,0.3,0.3l0,0l0,0l0,0l0,0l0,0l0.3,0.6c0.1,0.1,0.1,0.2,0.1,0.2v0.1c0,0,0,0,0,0.1l0.2,0.7c0.1,0.2,0.1,0.4,0.1,0.6
		l0.1,0.4c-0.7,0-1.3,0-1.6,0c-0.5,0-1.2,0-2.1,0v-3.9h0.3h0.5c0.2,0.1,0.4,0.1,0.5,0.1L48.2,11.9L48.2,11.9L48.2,11.9z M49.5,12.9
		L49.5,12.9L49.5,12.9L49.5,12.9z"/>
	<path class="st0" d="M58.8,11.1c0.1,0,0.3,0,0.5,0.1v5.3c0,0.2,0.1,0.3,0.3,0.3s0.3-0.1,0.3-0.3c0-0.2,0-0.5,0-0.9V5.5
		c0-0.2-0.1-0.3-0.3-0.3c-0.2,0-0.3,0.1-0.3,0.3v5.1c-0.2,0-0.5-0.1-1-0.1s-1.1,0-1.6,0c-1,0.1-2,0.2-3.1,0.4c-0.1,0-0.2,0-0.3,0.1
		V5.5c0-0.2-0.1-0.3-0.3-0.3s-0.3,0.1-0.3,0.3v5.7c-0.1,0.1-0.1,0.2,0,0.3v0.1v5c0,0.2,0.1,0.3,0.3,0.3s0.3-0.1,0.3-0.3
		c0-0.2,0-0.5,0-0.9v-4c0.4-0.1,0.9-0.2,1.4-0.3h0.2c0.1,0,0.1,0,0.2,0l1.2-0.1c0.6-0.1,1.1-0.1,1.7-0.1h0.2c0.1,0,0.2,0,0.2,0
		L58.8,11.1z M58.7,11.1C58.7,11.1,58.8,11.1,58.7,11.1L58.7,11.1z"/>
	<path class="st0" d="M65.2,15.9l-0.4-0.2l-0.5-0.6l0,0l0,0l0,0c-0.2-0.3-0.3-0.5-0.4-0.7c-0.1-0.1-0.1-0.2-0.2-0.4l-0.1-0.3
		c-0.2-0.5-0.4-1.1-0.5-1.8L63,11.4c0-0.2-0.1-0.4-0.1-0.5l-0.1-0.7c0-0.1,0-0.1,0-0.1l0,0c-0.1-0.4-0.1-1-0.2-1.8
		c-0.1-0.9-0.1-1.6-0.1-2.3V5.7c0-0.3-0.2-0.4-0.5-0.4s-0.4,0.1-0.5,0.4c0,0.3,0,0.9,0,1.5c0,1.2,0.1,2.4,0.3,3.5
		c0.2,1.5,0.6,2.7,1,3.7c0.6,1.2,1.3,2,2.2,2.3c0.5,0.2,1.1,0.2,1.6,0c0.5-0.1,0.9-0.4,1.3-0.9c0.5-0.5,0.9-1.3,1.2-2.4v2.9
		c0,0.3,0.2,0.4,0.5,0.5c0.3,0,0.4-0.2,0.4-0.5V7.4c0-0.3,0-0.7,0-1.2c0-0.1,0-0.3,0-0.3c0-0.3-0.1-0.4-0.4-0.4S69,5.6,69,5.9v1.5
		c0,0.3,0,0.9-0.1,1.6c0,0.1,0,0.2,0,0.4l-0.1,1.2c0,0.1,0,0.1,0,0.1c-0.1,0.7-0.2,1.3-0.4,1.9c0,0.2-0.1,0.5-0.3,0.9L67.9,14
		l-0.1,0.2c-0.1,0.3-0.3,0.5-0.4,0.7c-0.1,0.1-0.1,0.1-0.1,0.2L67,15.4c-0.1,0.1-0.1,0.1-0.1,0.1l-0.1,0.1l-0.4,0.2
		c-0.1,0-0.2,0.1-0.3,0.1c0,0,0,0-0.1,0s-0.1,0-0.1,0c-0.1,0-0.1,0-0.2,0L65.2,15.9L65.2,15.9L65.2,15.9z"/>
	<path class="st0" d="M72.4,5.2c-0.3,0-0.4,0.1-0.5,0.4c0,0.3,0,0.9,0,1.5c0,1.2,0.1,2.4,0.3,3.5c0.2,1.5,0.6,2.7,1,3.7
		c0.6,1.2,1.3,2,2.2,2.3c0.5,0.2,1.1,0.2,1.6,0c0.5-0.1,0.9-0.4,1.3-0.9c0.5-0.5,0.9-1.3,1.2-2.4v2.9c0,0.3,0.2,0.4,0.5,0.5
		c0.3,0,0.4-0.2,0.4-0.5V7.4c0-0.3,0-0.7,0-1.2c0-0.1,0-0.3,0-0.3c0-0.3-0.1-0.4-0.4-0.4s-0.5,0.1-0.5,0.4v1.5c0,0.3,0,0.9-0.1,1.6
		c0,0.1,0,0.2,0,0.4l-0.1,1.2c0,0.1,0,0.1,0,0.1c-0.1,0.7-0.2,1.3-0.4,1.9c0,0.2-0.1,0.5-0.3,0.9L78.4,14l-0.1,0.2
		c-0.1,0.3-0.3,0.5-0.4,0.7c-0.1,0.1-0.1,0.1-0.1,0.2l-0.3,0.3c-0.1,0.1-0.1,0.1-0.1,0.1l-0.1,0.1l-0.4,0.2c-0.1,0-0.2,0.1-0.3,0.1
		c0,0,0,0-0.1,0s-0.1,0-0.1,0c-0.1,0-0.1,0-0.2,0l-0.4-0.1l-0.1-0.1l-0.4-0.2L74.8,15l0,0l0,0l0,0c-0.2-0.3-0.3-0.5-0.4-0.7
		c-0.1-0.1-0.1-0.2-0.2-0.4l-0.1-0.3c-0.2-0.5-0.4-1.1-0.5-1.8l-0.1-0.5c0-0.2-0.1-0.4-0.1-0.5l-0.2-0.7c0-0.1,0-0.1,0-0.1l0,0
		c-0.1-0.4-0.1-1-0.2-1.8C73,7.3,73,6.6,73,5.9V5.7C72.9,5.3,72.8,5.2,72.4,5.2z M73.4,2c0-0.3-0.1-0.5-0.4-0.5S72.5,1.7,72.5,2
		c0.1,1.1,0.5,2,1.2,2.6c0.6,0.6,1.3,0.9,2.2,0.9c1,0,1.9-0.2,2.6-0.7c0.5-0.3,1-0.8,1.3-1.4c0.2-0.3,0.3-0.5,0.3-0.8
		C80.2,2.3,80,2.1,79.8,2c-0.3-0.1-0.5,0-0.6,0.3c0,0.1-0.1,0.2-0.1,0.2c0,0.1-0.1,0.1,0,0.1v0.1C79,2.9,79,3,78.9,3
		c0,0.1,0,0.1-0.1,0.2l-0.3,0.4c0,0.1-0.1,0.1-0.2,0.2l0,0h-0.1l0,0c-0.1,0.1-0.3,0.2-0.4,0.3l-0.6,0.2c-0.1,0-0.1,0-0.2,0h-0.2l0,0
		l0,0l0,0c-0.3,0-0.5,0-0.7,0c-0.1,0-0.3,0-0.3,0l-0.4-0.1l-0.1-0.1C75.3,4,75.1,4,75,3.9l-0.4-0.4l-0.1-0.1l0,0
		c-0.1-0.2-0.2-0.3-0.2-0.4l-0.1-0.3C74.1,2.4,74,2.2,74,2v0.3V2.2L73.4,2z"/>
	<path class="st0" d="M95.8,16.8L95.8,16.8c0,0.3-0.1,0.7-0.3,1.1l0,0l0,0l0,0l-0.1,0.4c0,0.1-0.1,0.1-0.1,0.2l-0.4,0.6
		c-0.1,0.2-0.3,0.4-0.6,0.6l0,0l0,0l0,0l-0.3,0.2l-0.4,0.2c-0.1,0.1-0.2,0.1-0.3,0.1h-0.1l-0.1,0.1c-0.1,0.1-0.4,0.1-0.7,0.2
		l-0.7,0.1c-0.3,0-0.6,0.1-0.9,0.1s-0.4,0.1-0.4,0.4s0.1,0.5,0.4,0.5c1.9,0,3.4-0.5,4.5-1.5c0.7-0.7,1.2-1.6,1.4-2.6
		c0.1-0.4,0.1-0.7,0.1-1.1c-0.1-1.7-0.2-3.2-0.2-4.4l0,0c0-0.7,0-1.4,0-2.2c0-1.3,0-2.5,0.1-3.6c0-0.1,0-0.1,0-0.2V5.8
		c0-0.3-0.1-0.4-0.4-0.4s-0.4,0.1-0.5,0.4c0,0.2-0.1,0.9-0.1,2v0.3c-0.4-0.8-0.9-1.4-1.5-1.9c-0.6-0.4-1.3-0.7-2.1-0.7
		c-0.8,0-1.5,0.1-2.1,0.5c-0.9,0.6-1.6,1.6-1.9,3.2c-0.1,0.8-0.2,1.4-0.2,2l0,0c0,0.6,0.1,1.2,0.2,2c0.3,1.4,1,2.5,1.9,3.2
		c0.6,0.4,1.3,0.6,2.1,0.7c0.9,0.1,1.6-0.1,2.4-0.5c0.6-0.3,1-0.8,1.4-1.3c0,0.4,0,0.9,0.1,1.5C95.8,16.5,95.8,16.6,95.8,16.8
		L95.8,16.8z M89.8,14.8L89.8,14.8l-0.1-0.1c-0.1-0.2-0.2-0.3-0.2-0.4c-0.1-0.1-0.1-0.2-0.2-0.4l0,0l0,0c0-0.1,0-0.2-0.1-0.2
		c-0.2-0.5-0.3-1-0.4-1.5l-0.1-1c0-0.3,0-0.4,0-0.6c0-0.1,0-0.3,0-0.6l0.1-0.7c0-0.2,0.1-0.5,0.2-0.8c0.1-0.2,0.2-0.2,0.2-0.3
		l0.2-0.5c0-0.1,0.1-0.2,0.2-0.4l0.1-0.2l0.5-0.4l0.5-0.3l0.8-0.1h0.7l0.6,0.1C93,6.4,93.2,6.4,93,6.4l0.5,0.3l0.3,0.2l0.4,0.4
		l0.1,0.2c0.1,0.2,0.3,0.5,0.5,0.8c0,0,0,0,0,0.1s0,0.1,0,0.1s0,0,0,0.1c0,0,0,0,0,0.1l0.1,0.4c0.1,0.3,0.2,0.5,0.2,0.8l0.1,0.7
		l0.1,0.7c0,0.3,0,0.6,0,0.9c0,0.1,0,0.3,0,0.3v0.2c0,0.2-0.1,0.5-0.2,0.8L95,13.9c0,0-0.1,0.1-0.1,0.2c0,0.1,0,0.1,0,0.1
		s0,0.1-0.1,0.2l-0.2,0.4l-0.1,0.1c-0.1,0.1-0.2,0.2-0.3,0.3c-0.1,0.1-0.1,0.1-0.1,0.1l0.1,0.1l-0.5,0.3l-0.3,0.1
		C93.2,16,93.1,16,92.9,16h-0.5c-0.2,0-0.4,0-0.5,0l-0.5-0.1L91,15.8c-0.1-0.1-0.3-0.1-0.4-0.2l0,0l-0.4-0.3
		c-0.1-0.1-0.2-0.2-0.3-0.3L89.8,14.8z"/>
	<path class="st0" d="M106.8,16.9c0.3,0,0.4-0.1,0.5-0.4c0-0.3,0-0.9,0-1.5c0-1.2-0.1-2.4-0.3-3.5c-0.2-1.5-0.6-2.7-1-3.7
		c-0.6-1.2-1.3-2-2.2-2.3c-0.5-0.2-1-0.2-1.6,0c-0.5,0.1-0.9,0.4-1.3,0.9c-0.5,0.5-0.9,1.3-1.2,2.4c-0.5,2-0.9,4-0.9,6.1
		c0,0.3,0,0.7,0,1.2c0,0.1,0,0.3,0,0.3c0,0.3,0.1,0.4,0.4,0.4s0.5-0.1,0.5-0.4v-1.5c0-0.3,0-0.9,0.1-1.6c0-0.1,0-0.2,0-0.4l0.2-1.3
		c0.1-0.7,0.2-1.3,0.4-1.9c0-0.2,0.1-0.5,0.3-0.9l0.2-0.5l0.1-0.2c0.1-0.3,0.3-0.5,0.4-0.7c0.1-0.1,0.1-0.1,0.1-0.2l0.3-0.3
		c0.1-0.1,0.1-0.1,0.1-0.1l0.1-0.1l0.4-0.2l0.3-0.1c0,0,0,0,0.1,0s0.1,0,0.1,0h0.4c0.1,0,0.1,0,0.2,0h0.1l0.4,0.2l0.5,0.5l0,0l0,0
		l0,0c0.2,0.3,0.3,0.5,0.4,0.7c0.1,0.1,0.1,0.2,0.2,0.4l0.1,0.3c0.2,0.5,0.4,1.1,0.5,1.8c0,0.1,0.1,0.2,0.1,0.5l0.2,1.3
		c0.1,0.4,0.1,1,0.2,1.8c0.1,0.9,0.1,1.6,0.1,2.3v0.2C106.2,16.8,106.4,16.9,106.8,16.9z"/>
	<path class="st0" d="M116.6,6.9L116.6,6.9c0.4,0,0.5-0.2,0.5-0.5S117,6,116.7,6h-0.1V5.8c0-0.3-0.2-0.5-0.5-0.4
		c-0.3,0-0.4,0.1-0.4,0.4v0.2c-1.2-0.3-2.2-0.4-3-0.5c-1-0.1-1.9-0.2-2.8-0.2c-0.4,0-0.6,0.2-0.6,0.5v0.1c0,1.4,0.5,2.8,1.6,4
		c0.4,0.5,0.9,1,1.4,1.4l-1.7,2.8c-0.3,0.5-0.7,1.2-1.3,2.2c-0.2,0.3-0.1,0.5,0.2,0.6c0.3,0.2,0.5,0.1,0.6-0.2l2.9-4.9
		c0.3,0.2,0.7,0.5,1.1,0.7c0.6,0.3,1.1,0.6,1.6,0.9v2.9c0,0.3,0.1,0.5,0.4,0.5s0.5-0.2,0.5-0.5C116.5,16.2,116.5,6.9,116.6,6.9z
		 M110.4,7.6L110.4,7.6L110.4,7.6L110.4,7.6C110.3,7.5,110.3,7.5,110.4,7.6l-0.1-0.2c-0.1-0.2-0.1-0.4-0.2-0.5
		c0-0.1-0.1-0.1-0.1-0.3V6.4c0-0.1,0-0.2,0-0.3c1.9,0,3.8,0.3,5.5,0.7v5.6l-0.8-0.4c-0.6-0.4-1.1-0.7-1.5-1l-0.2-0.2l-0.5-0.4
		c-0.3-0.3-0.6-0.6-0.8-0.8l-0.7-0.8c-0.2-0.3-0.4-0.6-0.6-1L110.4,7.6L110.4,7.6L110.4,7.6z"/>
	<path class="st0" d="M132.9,16.9c0.3,0,0.4-0.1,0.5-0.4c0-0.3,0-0.9,0-1.5c0-1.2-0.1-2.4-0.3-3.5c-0.2-1.5-0.6-2.7-1-3.7
		c-0.6-1.2-1.3-2-2.2-2.3c-0.5-0.2-1-0.2-1.6,0c-0.5,0.1-0.9,0.4-1.3,0.9c-0.5,0.5-0.9,1.3-1.2,2.4v-3c0-0.3-0.2-0.4-0.5-0.5
		c-0.3,0-0.4,0.2-0.4,0.5v8.9c0,0.3,0,0.7,0,1.2c0,0.1,0,0.3,0,0.3c0,0.3,0.1,0.4,0.4,0.4s0.5-0.1,0.5-0.4v-1.5c0-0.3,0-0.9,0.1-1.6
		c0-0.1,0-0.2,0-0.4l0.2-1.3c0.1-0.7,0.2-1.3,0.4-1.9c0-0.2,0.1-0.5,0.3-0.9l0.2-0.5l0.1-0.2c0.1-0.3,0.3-0.5,0.4-0.7
		c0.1-0.1,0.1-0.1,0.1-0.2l0.3-0.3c0.1-0.1,0.1-0.1,0.1-0.1l0.1-0.1l0.4-0.2l0.3-0.1c0,0,0,0,0.1,0s0.1,0,0.1,0h0.4
		c0.1,0,0.1,0,0.2,0h0.1l0.4,0.2l0.5,0.5l0,0l0,0l0,0c0.2,0.3,0.3,0.5,0.4,0.7c0.1,0.1,0.1,0.2,0.2,0.4l0.1,0.3
		c0.2,0.5,0.4,1.1,0.5,1.8c0,0.1,0.1,0.2,0.1,0.5l0.2,1.3c0.1,0.4,0.1,1,0.2,1.8c0.1,0.9,0.1,1.6,0.1,2.3v0.2
		C132.4,16.8,132.6,16.9,132.9,16.9z"/>
	<path class="st0" d="M143.8,11.1c0-0.6-0.1-1.2-0.2-1.9c-0.3-1.4-1-2.5-1.9-3.2c-0.6-0.4-1.3-0.6-2.1-0.7c-0.9-0.1-1.6,0.1-2.4,0.5
		c-1,0.5-1.7,1.6-2,3c-0.1,0.8-0.2,1.4-0.1,2.1c0.1,0.9,0.2,1.5,0.3,1.9c0.4,1.5,1.1,2.6,2,3.3c0.6,0.4,1.3,0.7,2.1,0.7
		s1.5-0.1,2.1-0.5c1-0.6,1.6-1.7,1.9-3.2C143.8,12.4,143.8,11.8,143.8,11.1L143.8,11.1z M137.4,6.8c0.1-0.1,0.3-0.2,0.4-0.2l0.4-0.1
		c0.2-0.1,0.3-0.1,0.5-0.1h0.2c0.1,0,0.2,0,0.3,0s0.3,0,0.5,0c0.1,0,0.1,0,0.1,0c0.1,0,0.1,0,0.1,0l0.3,0.1l0.2,0.1l0,0h0.1
		c0,0,0.2,0.1,0.4,0.2l0,0l0.2,0.2c0.1,0.1,0.2,0.2,0.3,0.3l0.2,0.3c0.1,0.2,0.2,0.3,0.2,0.4c0.1,0.1,0.1,0.2,0.2,0.4l0,0v0.1
		l0.1,0.2c0.2,0.5,0.3,1,0.4,1.5v0.1l0.1,0.4v0.6c0,0.2,0,0.3,0,0.5c0,0.1,0,0.3,0,0.6c0,0,0,0,0,0.1v0.1l0,0l-0.1,0.5
		c0,0.3-0.1,0.5-0.2,0.8l-0.3,0.7c0,0.1-0.1,0.2-0.2,0.4l-0.2,0.3l-0.3,0.3l-0.3,0.2l-0.3,0.2l-0.6,0.1c-0.1,0-0.2,0-0.3,0h-0.5
		l-0.6-0.2l0,0l-0.2-0.1l-0.5-0.3l0,0l-0.6-0.6c0,0,0,0,0-0.1v-0.1c-0.1-0.2-0.3-0.5-0.5-0.8v-0.1l-0.2-0.6
		c-0.1-0.3-0.2-0.5-0.2-0.8l-0.1-0.7v-0.2l0,0l0,0v0.1l0,0v-0.3v-0.2c0-0.1,0-0.1,0-0.2c0-0.3,0-0.6,0-0.9c0-0.1,0-0.3,0-0.3V9.4
		l0,0l0,0c0-0.2,0.1-0.4,0.2-0.7l0.1-0.4l0.1-0.2c0-0.1,0-0.1,0-0.1l0.4-0.6l0,0c0.1-0.1,0.2-0.2,0.3-0.3c0.1,0,0.1-0.1,0.1-0.1l0,0
		L137.4,6.8z M142.8,12.4L142.8,12.4L142.8,12.4L142.8,12.4z M137.4,6.8L137.4,6.8L137.4,6.8C137.4,6.8,137.4,6.8,137.4,6.8z
		 M137.9,15.4C137.9,15.4,137.9,15.4,137.9,15.4C137.9,15.4,137.9,15.4,137.9,15.4z M142.8,10.2L142.8,10.2L142.8,10.2z"/>
	<path class="st0" d="M153.2,16.8L153.2,16.8c0,0.3-0.1,0.7-0.3,1.1l0,0l0,0l0,0l-0.1,0.3c0,0.1-0.1,0.1-0.1,0.2l-0.4,0.6
		c-0.1,0.2-0.3,0.4-0.6,0.6l0,0l0,0l0,0l-0.3,0.2L151,20c-0.1,0.1-0.2,0.1-0.3,0.1h-0.1l-0.2,0.1c-0.1,0.1-0.4,0.1-0.7,0.2l-0.7,0.1
		c-0.3,0-0.6,0.1-0.9,0.1c-0.3,0-0.4,0.1-0.4,0.4s0.1,0.5,0.4,0.5c1.9,0,3.4-0.5,4.5-1.5c0.7-0.7,1.2-1.6,1.4-2.6
		c0.1-0.4,0.1-0.7,0.1-1.1c-0.1-1.7-0.2-3.2-0.2-4.4l0,0c0-0.7,0-1.4,0-2.2c0-1.3,0-2.5,0.1-3.6c0-0.1,0-0.1,0-0.2V5.7
		c0-0.3-0.1-0.4-0.4-0.4c-0.3,0-0.4,0.1-0.5,0.4c0,0.2-0.1,0.9-0.1,2V8c-0.4-0.8-0.9-1.4-1.5-1.9c-0.6-0.4-1.3-0.7-2.1-0.7
		s-1.5,0.1-2.1,0.5c-0.9,0.6-1.6,1.6-1.9,3.2c-0.1,0.8-0.2,1.4-0.2,2l0,0c0,0.6,0.1,1.2,0.2,2c0.3,1.4,1,2.5,1.9,3.2
		c0.6,0.4,1.3,0.6,2.1,0.7c0.9,0.1,1.6-0.1,2.4-0.5c0.6-0.3,1-0.8,1.4-1.3C153.2,15.6,153.2,16.1,153.2,16.8
		C153.2,16.5,153.2,16.6,153.2,16.8L153.2,16.8z M147.4,14.8L147.4,14.8l-0.1-0.1c-0.1-0.2-0.2-0.3-0.2-0.4
		c-0.1-0.1-0.1-0.2-0.2-0.4l0,0l0,0c0-0.1,0-0.2-0.1-0.2c-0.2-0.5-0.3-1-0.4-1.5l-0.1-1c0-0.3,0-0.4,0-0.6c0-0.1,0-0.3,0-0.6
		l0.1-0.7c0-0.2,0.1-0.5,0.2-0.8c0,0,0.1-0.1,0.1-0.2l0.2-0.5c0-0.1,0.1-0.2,0.2-0.4l0.1-0.2l0.5-0.4l0.5-0.3l0.6-0.1h0.7l0.6,0.1
		c0.2,0.1,0.3,0.1,0.2,0.1l0.5,0.3l0.3,0.2l0.4,0.4l0.1,0.2c0.1,0.2,0.3,0.5,0.5,0.8c0,0,0,0,0,0.1s0,0.1,0,0.1s0,0,0,0.1
		c0,0,0,0,0,0.1l0.1,0.4c0.1,0.3,0.2,0.5,0.2,0.8l0.1,0.7l0.1,0.7c0,0.3,0,0.6,0,0.9c0,0.1,0,0.3,0,0.3v0.2c0,0.2-0.1,0.5-0.2,0.8
		l-0.1,0.4c0,0-0.1,0.1-0.1,0.2c0,0.1,0,0.1,0,0.1s0,0.1-0.1,0.2l-0.2,0.4l-0.1,0.1c-0.1,0.1-0.2,0.2-0.3,0.3s-0.1,0.1-0.1,0.1
		l-0.1,0.1l-0.5,0.3l-0.3,0.1c-0.2,0.1-0.3,0.1-0.5,0.1h-0.5c-0.2,0-0.4,0-0.5,0l-0.5-0.1l-0.4-0.1c-0.1-0.1-0.3-0.1-0.4-0.2l0,0
		l-0.2-0.2c-0.1-0.1-0.2-0.2-0.3-0.3L147.4,14.8z"/>
	<path class="st0" d="M164.8,11.1c0-0.6-0.1-1.2-0.2-1.9c-0.3-1.4-1-2.5-1.9-3.2c-0.6-0.4-1.3-0.6-2.1-0.7c-0.9-0.1-1.6,0.1-2.4,0.5
		c-1,0.5-1.7,1.6-2,3c-0.1,0.8-0.2,1.4-0.1,2.1c0.1,0.9,0.2,1.5,0.3,1.9c0.4,1.5,1.1,2.6,2,3.3c0.6,0.4,1.3,0.7,2.1,0.7
		s1.5-0.1,2.1-0.5c1-0.6,1.6-1.7,1.9-3.2C164.8,12.4,164.8,11.8,164.8,11.1L164.8,11.1z M158.4,6.8c0.1-0.1,0.3-0.2,0.4-0.2l0.4-0.1
		c0.2-0.1,0.3-0.1,0.5-0.1h0.2c0.1,0,0.2,0,0.3,0s0.3,0,0.5,0c0.1,0,0.1,0,0.1,0c0.1,0,0.1,0,0.1,0l0.3,0.1l0.2,0.1l0,0h0.1
		c0,0,0.2,0.1,0.4,0.2l0,0l0.2,0.2c0.1,0.1,0.2,0.2,0.3,0.3l0.2,0.3c0.1,0.2,0.2,0.3,0.2,0.4c0.1,0.1,0.1,0.2,0.2,0.4l0,0v0.1
		l0.1,0.2c0.2,0.5,0.3,1,0.4,1.5v0.1l0.1,0.4v0.6c0,0.2,0,0.3,0,0.5c0,0.1,0,0.3,0,0.6c0,0,0,0,0,0.1v0.1l0,0l-0.1,0.5
		c0,0.3-0.1,0.5-0.2,0.8l-0.3,0.7c0,0.1-0.1,0.2-0.2,0.4l-0.2,0.3l-0.3,0.3l-0.3,0.2l-0.3,0.2l-0.6,0.1c-0.1,0-0.2,0-0.3,0h-0.5
		l-0.6-0.2l0,0l-0.2-0.1l-0.5-0.3l0,0l-0.6-0.6c0,0,0,0,0-0.1v-0.1c-0.1-0.2-0.3-0.5-0.5-0.8v-0.1l-0.2-0.6
		c-0.1-0.3-0.2-0.5-0.2-0.8l-0.1-0.7v-0.2l0,0l0,0v0.1l0,0v-0.3v-0.2c0-0.1,0-0.1,0-0.2c0-0.3,0-0.6,0-0.9c0-0.1,0-0.3,0-0.3V9.4
		l0,0l0,0c0-0.2,0.1-0.4,0.2-0.7l0.1-0.4l0.1-0.2c0-0.1,0-0.1,0-0.1l0.4-0.6l0,0c0.1-0.1,0.2-0.2,0.3-0.3c0.1,0,0.1-0.1,0.1-0.1l0,0
		L158.4,6.8z M163.8,12.4L163.8,12.4L163.8,12.4L163.8,12.4z M158.4,6.8L158.4,6.8L158.4,6.8C158.4,6.8,158.4,6.8,158.4,6.8z
		 M158.9,15.4C158.9,15.4,158.9,15.4,158.9,15.4C158.9,15.4,158.9,15.4,158.9,15.4z M163.8,10.2L163.8,10.2L163.8,10.2z"/>
	<path class="st0" d="M166.8,21.1c0,0.3,0.1,0.5,0.4,0.5c0.3,0,0.4-0.2,0.5-0.5c0-3.9,0-5.9,0-6.1c0.3,0.6,0.8,1,1.4,1.3
		c0.7,0.4,1.5,0.5,2.4,0.5c0.8,0,1.5-0.3,2.1-0.7c0.9-0.7,1.6-1.7,1.9-3.2c0.2-0.8,0.2-1.4,0.2-2l0,0c0-0.6,0-1.3-0.2-2
		c-0.3-1.5-1-2.6-1.9-3.2c-0.6-0.3-1.3-0.5-2.1-0.5s-1.5,0.3-2.1,0.7c-0.6,0.5-1.1,1.1-1.5,1.9V7.5c-0.1-1.1-0.1-1.7-0.1-2
		c0-0.3-0.2-0.5-0.5-0.4c-0.3,0-0.5,0.1-0.4,0.4c0,0,0,0.1,0,0.2v0.2c0.1,1.1,0.1,2.3,0.1,3.6c0,0.7,0,1.4,0,2.2l-0.1,2.6
		C166.9,16,166.8,18.4,166.8,21.1z M174.6,9.9c0,0.3,0,0.5,0,0.6s0,0.3,0,0.6l-0.1,1c-0.1,0.5-0.2,1-0.4,1.5l-0.1,0.3l0,0
		c-0.1,0.1-0.1,0.3-0.2,0.4c0,0.1-0.1,0.2-0.2,0.4l-0.1,0.1l0,0l-0.1,0.1c-0.1,0.1-0.2,0.2-0.3,0.3l-0.3,0.2
		c-0.1,0.1-0.3,0.2-0.4,0.2l-0.6,0.2h-0.1h-0.1c-0.1,0-0.3,0-0.5,0h-0.5c-0.2,0-0.3-0.1-0.5-0.1l-0.3-0.1l-0.5-0.3l-0.1-0.1l0,0
		l-0.2-0.2c-0.1-0.1-0.2-0.2-0.3-0.3l0,0l0,0l-0.4-0.6v-0.1c0-0.1-0.1-0.1-0.1-0.2l-0.1-0.4c-0.1-0.3-0.1-0.5-0.2-0.8v-0.2
		c0-0.1,0-0.2,0-0.3c0-0.3,0-0.6,0-0.9c0,0,0-0.1,0-0.2l0.1-0.5l0.1-0.7c0.1-0.2,0.1-0.5,0.2-0.8l0.1-0.4c0,0,0,0,0-0.1
		c0,0,0,0,0-0.1l0.1-0.2c0.2-0.3,0.3-0.6,0.5-0.8l0.1-0.2l0.4-0.4l0.3-0.2l0.4-0.2l0.4-0.1h0.6h0.7l0.6,0.1l0.1,0.1l0,0l0.5,0.3
		l0.3,0.3c0,0,0.1,0,0.1,0.1l0.1,0.1l0,0l0,0c0.1,0.2,0.2,0.3,0.2,0.4l0.2,0.4v0.1c0,0.1,0.1,0.1,0.1,0.2c0.1,0.3,0.2,0.6,0.2,0.8
		l0.1,0.4L174.6,9.9z"/>
	<path class="st0" d="M185.6,11.1c0-0.6-0.1-1.2-0.2-1.9c-0.3-1.4-1-2.5-1.9-3.2c-0.6-0.4-1.3-0.6-2.1-0.7c-0.9-0.1-1.6,0.1-2.4,0.5
		c-1,0.5-1.7,1.6-2,3c-0.1,0.8-0.2,1.4-0.1,2.1c0.1,0.9,0.2,1.5,0.3,1.9c0.4,1.5,1.1,2.6,2,3.3c0.6,0.4,1.3,0.7,2.1,0.7
		s1.5-0.1,2.1-0.5c1-0.6,1.6-1.7,1.9-3.2C185.6,12.4,185.6,11.8,185.6,11.1L185.6,11.1z M179.4,6.8c0.1-0.1,0.3-0.2,0.4-0.2l0.4-0.1
		c0.1-0.2,0.3-0.2,0.5-0.2h0.2c0.1,0,0.2,0,0.3,0s0.3,0,0.5,0c0.1,0,0.1,0,0.1,0c0.1,0,0.1,0,0.1,0l0.3,0.1l0.2,0.1l0,0h0.1
		c0,0,0.2,0.1,0.4,0.2l0,0l0.2,0.2c0.1,0.1,0.2,0.2,0.3,0.3l0.2,0.3c0.1,0.2,0.2,0.3,0.2,0.4c0.1,0.1,0.1,0.2,0.2,0.4l0,0v0.1
		l0.1,0.2c0.2,0.5,0.3,1,0.4,1.5v0.2l0.1,0.4v0.6c0,0.2,0,0.3,0,0.5c0,0.1,0,0.3,0,0.6c0,0,0,0,0,0.1v0.1l0,0l-0.1,0.5
		c0,0.3-0.1,0.5-0.2,0.8l-0.3,0.7c0,0.1-0.1,0.2-0.2,0.4l-0.2,0.3l-0.3,0.3l-0.3,0.2l-0.3,0.2l-0.6,0.1c-0.1,0-0.2,0-0.3,0h-0.5
		l-0.6-0.2l0,0l-0.2-0.1l-0.5-0.3l0,0l-0.6-0.6c0,0,0,0,0-0.1v-0.1c-0.1-0.2-0.3-0.5-0.5-0.8v-0.1l-0.2-0.6
		c-0.1-0.3-0.2-0.5-0.2-0.8l-0.1-0.7v-0.2l0,0l0,0v0.1l0,0v-0.3v-0.2c0-0.1,0-0.1,0-0.2c0-0.3,0-0.6,0-0.9c0-0.1,0-0.3,0-0.3V9.4
		l0,0l0,0c0-0.2,0.1-0.4,0.2-0.7l-0.3-0.4l0.1-0.2c0-0.1,0-0.1,0-0.1l0.4-0.6l0,0c0.1-0.1,0.2-0.2,0.3-0.3c0.1,0,0.1-0.1,0.1-0.1
		l0,0L179.4,6.8z M184.6,12.4L184.6,12.4L184.6,12.4L184.6,12.4z M179.2,6.8L179.2,6.8L179.2,6.8C179.2,6.8,179.2,6.8,179.2,6.8z
		 M179.8,15.4C179.9,15.4,179.9,15.4,179.8,15.4C179.9,15.4,179.9,15.4,179.8,15.4z M184.6,10.2L184.6,10.2L184.6,10.2z"/>
	<path class="st0" d="M199.9,7.7l-0.1,0.2c-0.2,0.4-0.4,0.7-0.6,1l-0.6,0.8c-0.2,0.2-0.4,0.4-0.8,0.8l-0.5,0.4l-0.2,0.2
		c-0.4,0.3-0.9,0.6-1.5,1l-0.8,0.4V5.8c0-0.3-0.1-0.4-0.4-0.4c-0.3,0-0.5,0.1-0.5,0.4v6.6l-0.8-0.4c-0.6-0.4-1.1-0.7-1.5-1l-0.2-0.2
		l-0.5-0.4c-0.3-0.3-0.6-0.6-0.8-0.8l-0.7-0.8c-0.2-0.3-0.4-0.6-0.6-1l-0.1-0.3c0,0,0,0,0-0.1V7.3c-0.1-0.2-0.1-0.4-0.2-0.5
		c0-0.1-0.1-0.1-0.1-0.3V6.3c0-0.1,0-0.3,0-0.5c0-0.3-0.2-0.5-0.5-0.4c-0.3,0-0.5,0.1-0.4,0.4c0,1.4,0.5,2.8,1.6,4
		c0.4,0.5,0.9,1,1.4,1.4l-1.7,2.8c-0.3,0.5-0.7,1.2-1.3,2.2c-0.2,0.3-0.1,0.5,0.2,0.6c0.3,0.2,0.5,0.1,0.6-0.2l2.9-4.9
		c0.3,0.2,0.7,0.5,1.1,0.7c0.6,0.3,1.1,0.6,1.6,0.9v3c0,0.3,0.2,0.4,0.5,0.5c0.3,0,0.4-0.2,0.4-0.5v-2.9c0.5-0.2,1-0.5,1.6-0.9
		c0.4-0.2,0.8-0.5,1.1-0.7l2.9,4.9c0.1,0.3,0.3,0.3,0.6,0.2c0.3-0.1,0.3-0.3,0.2-0.6c-0.6-1-1-1.7-1.3-2.2l-1.7-2.8
		c0.5-0.4,1-0.9,1.4-1.4c1.1-1.3,1.6-2.6,1.6-4c0-0.3-0.1-0.4-0.4-0.4c-0.3,0-0.4,0.1-0.5,0.4c0,0.2,0,0.4,0,0.5v0.2
		c0,0.1-0.1,0.2-0.1,0.3c0,0.1-0.1,0.3-0.2,0.5v0.1C200,7.5,200,7.5,199.9,7.7L199.9,7.7L199.9,7.7L199.9,7.7z M184.2,7.6
		C184.2,7.6,184.2,7.7,184.2,7.6L184.2,7.6z"/>
	<path class="st0" d="M210.6,15.2l-0.8,0.4l0,0l0,0l-0.2,0.1c-0.2,0.1-0.3,0.1-0.4,0.1l-0.4,0.1h-0.4c-0.1,0-0.3,0-0.3,0
		c-0.1,0-0.2,0-0.3,0h-0.2c-0.2,0-0.4-0.1-0.5-0.1s-0.1,0-0.2,0l-0.7-0.4l0,0h-0.1l-0.1-0.1c-0.1-0.1-0.2-0.2-0.3-0.3l-0.1-0.1
		c0,0,0,0,0-0.1l-0.1-0.1c-0.2-0.3-0.4-0.6-0.4-0.8c-0.1-0.1-0.1-0.2-0.2-0.3l-0.1-0.4c-0.2-0.4-0.3-1-0.4-1.5l-0.1-0.5
		c0.4,0,1,0,1.7,0c1.7,0,3,0,3.9,0c0.5,0,1.2,0,2.1,0c0.3,0,0.4-0.2,0.4-0.5c0-0.2,0-0.4,0-0.5c-0.1-0.5-0.2-1-0.3-1.4
		c-0.4-1.4-1.2-2.4-2.4-2.9c-0.7-0.7-1.5-0.8-2.4-0.7c-0.5,0.1-0.9,0.2-1.3,0.3c-0.3,0.1-0.6,0.3-0.9,0.6c-0.8,0.7-1.4,1.7-1.6,3.1
		c-0.1,0.6-0.2,1.1-0.1,1.4c0,0.9,0.2,1.7,0.5,2.5c0.5,1.4,1.2,2.5,2.3,3.1c0.9,0.5,1.9,0.7,3.1,0.5c0.6-0.1,1.1-0.3,1.6-0.6
		c0.7-0.5,1.2-1.1,1.5-1.8c0.1-0.2,0.1-0.4,0.2-0.6c0.1-0.3-0.1-0.5-0.3-0.6c-0.1,0-0.2,0-0.3,0c-0.1,0.1-0.2,0.2-0.2,0.3
		c-0.1,0.3-0.1,0.5-0.2,0.6l-0.3,0.2c-0.1,0.1-0.1,0.2-0.1,0.3s-0.1,0.1-0.1,0.2L210.6,15.2z M209.2,6.4c0.1,0,0.2,0,0.2,0.1
		l0.4,0.2v0.1l0,0L210,7c0.1,0.1,0.2,0.2,0.3,0.3l0,0l0,0l0,0l0,0l0,0l0.3,0.6c0.1,0.1,0.1,0.2,0.1,0.2v0.1c0,0,0,0,0,0.1l0.2,0.7
		c0.1,0.2,0.1,0.4,0.1,0.6l0.1,0.4c-0.7,0-1.3,0-1.6,0c-0.9,0-2.2,0-3.9,0c-0.8,0-1.4,0-1.8,0l0.1-0.6c0-0.2,0.1-0.4,0.2-0.7
		l0.1-0.4c0,0,0,0,0-0.1l0,0l0,0l0.1-0.2c0.1-0.1,0.2-0.4,0.4-0.7l0,0l0,0L205,7l0.4-0.4l0,0c0,0,0.1-0.1,0.2-0.1
		c0.1-0.1,0.1-0.1,0.2-0.1l0,0h0.1l0,0c0.3-0.1,0.4-0.1,0.5-0.2l0.3-0.1h0.8h0.5c0.2,0.1,0.4,0.1,0.5,0.1L209.2,6.4
		C209.2,6.3,209.2,6.3,209.2,6.4L209.2,6.4z M210.6,7.3L210.6,7.3L210.6,7.3L210.6,7.3z"/>
	<path class="st0" d="M214.6,5.2c-0.3,0-0.4,0.1-0.5,0.4c0,0.3,0,0.9,0,1.5c0,1.2,0.1,2.4,0.3,3.5c0.2,1.5,0.6,2.7,1,3.7
		c0.6,1.2,1.3,2,2.2,2.3c0.5,0.2,1.1,0.2,1.6,0c0.5-0.1,0.9-0.4,1.3-0.9c0.5-0.5,0.9-1.3,1.2-2.4v2.9c0,0.3,0.2,0.4,0.5,0.5
		c0.3,0,0.4-0.2,0.4-0.5V7.4c0-0.3,0-0.7,0-1.2c0-0.1,0-0.3,0-0.3c0-0.3-0.1-0.4-0.4-0.4c-0.3,0-0.5,0.1-0.5,0.4v1.5
		c0,0.3,0,0.9-0.1,1.6c0,0.1,0,0.2,0,0.4l-0.1,1.2c0,0.1,0,0.1,0,0.1c-0.1,0.7-0.2,1.3-0.4,1.9c0,0.2-0.1,0.5-0.3,0.9l-0.2,0.5
		l-0.1,0.2c-0.1,0.3-0.3,0.5-0.4,0.7c-0.1,0.1-0.1,0.1-0.1,0.2l-0.3,0.3c-0.1,0.1-0.1,0.1-0.1,0.1l-0.1,0.1l-0.4,0.2
		c-0.1,0-0.2,0.1-0.3,0.1c0,0,0,0-0.1,0s-0.1,0-0.1,0c-0.1,0-0.1,0-0.2,0l-0.4-0.1l-0.1-0.1l-0.4-0.2l-0.5-0.5l0,0l0,0l0,0
		c-0.2-0.3-0.3-0.5-0.4-0.7c-0.1-0.1-0.1-0.2-0.2-0.4l-0.1-0.3c-0.2-0.5-0.4-1.1-0.5-1.8l-0.1-0.5c0-0.2-0.1-0.4-0.1-0.5l-0.1-0.7
		c0-0.1,0-0.1,0-0.1l0,0c-0.1-0.4-0.1-1-0.2-1.8c-0.1-0.9-0.1-1.6-0.1-2.3V5.7C215.1,5.3,214.9,5.2,214.6,5.2z M215.6,2
		c0-0.3-0.1-0.5-0.4-0.5c-0.3,0-0.5,0.2-0.5,0.5c0.1,1.1,0.5,2,1.2,2.6c0.6,0.6,1.3,0.9,2.2,0.9c1,0,1.9-0.2,2.6-0.7
		c0.5-0.3,1-0.8,1.3-1.4c0.2-0.3,0.3-0.5,0.3-0.8c0.1-0.3-0.1-0.5-0.3-0.6c-0.3-0.1-0.5,0-0.6,0.3c0,0.1-0.1,0.2-0.1,0.2
		c0,0.1-0.1,0.1,0,0.1v0.1c-0.1,0.2-0.1,0.3-0.2,0.3c0,0.1,0,0.1-0.1,0.2l-0.3,0.4c0,0.1-0.1,0.1-0.2,0.2l0,0h-0.1l0,0
		c-0.1,0.1-0.3,0.2-0.4,0.3l-0.6,0.2c-0.1,0-0.1,0-0.2,0h-0.2l0,0l0,0l0,0c-0.3,0-0.5,0-0.7,0c-0.1,0-0.3,0-0.3,0l-0.7,0.2l-0.1-0.1
		c-0.1-0.1-0.3-0.1-0.4-0.2l-0.5-0.4V3.7l0,0c-0.1-0.2-0.2-0.3-0.2-0.4L215.9,3c-0.1-0.3-0.2-0.5-0.2-0.7l0,0V2.2L215.6,2z"/>
</g>
</svg>
