<?xml version="1.0" encoding="utf-8"?>
<!-- Generator: Adobe Illustrator 24.1.3, SVG Export Plug-In . SVG Version: 6.00 Build 0)  -->
<svg version="1.1" id="Слой_1" xmlns="http://www.w3.org/2000/svg" xmlns:xlink="http://www.w3.org/1999/xlink" x="0px" y="0px"
	 viewBox="0 0 298 75" style="enable-background:new 0 0 298 75;" xml:space="preserve">
<style type="text/css">
	.st0{fill:#FFFFFF;}
</style>
<path class="st0" d="M8.4,26.8H7.2c0,1.9-0.2,3.7-1,4.9c-0.4,0.6-1,1.1-1.9,1.1s-1.6-0.4-2-1.3c-1-1.7-1.1-3-1.1-14.2S1.4,4.7,2.3,3
	c0.4-0.8,1.1-1.3,2-1.3c0.8,0,1.5,0.4,1.9,1.1c0.7,0.9,1,2.8,1,4.7h1.2c0-2.4-0.4-4.5-1.2-6C6.5,0.6,5.6,0,4.3,0
	C3.2,0,2.1,0.6,1.5,1.7C0.2,3.7,0,5.6,0,17.2s0.2,13.5,1.5,15.6c0.7,1.1,1.7,1.7,2.8,1.7s2-0.6,2.6-1.3C7.9,31.7,8.4,29.2,8.4,26.8z
	 M22.2,33.9L17.8,0.4h-1.1l-4.6,33.6h1.3l1.3-10.1h5L21,33.9C21,33.9,22.2,33.9,22.2,33.9z M19.4,22.1h-4.5l2.2-18
	C17.1,4.3,19.4,22.1,19.4,22.1z M38.6,33.9V0.4h-1.3L32.7,21L28,0.4h-1.3v33.8h1.2V5.4L32.1,24h1l4.2-19.1v29.3L38.6,33.9z
	 M52.7,17.2c0-11.6-0.2-13.5-1.5-15.6C50.5,0.6,49.5,0,48.4,0c-1.2,0-2.2,0.6-2.8,1.7c-1.3,2.1-1.5,3.9-1.5,15.6s0.2,13.5,1.5,15.6
	c0.7,1.1,1.7,1.7,2.8,1.7c1.2,0,2.2-0.6,2.8-1.7C52.5,30.7,52.7,28.9,52.7,17.2z M51.5,17.2c0,11.2-0.2,12.7-1.1,14.2
	c-0.4,0.8-1.1,1.3-2,1.3s-1.6-0.4-2-1.3c-1-1.7-1.1-3-1.1-14.2S45.5,4.5,46.4,3c0.4-0.8,1.1-1.3,2-1.3s1.6,0.4,2,1.3
	C51.4,4.5,51.5,6,51.5,17.2z M67.1,33.9V0.4h-6.9v16.7c0,14.8-1.6,15.4-3.2,15.4h-0.2v1.7h0.3c2.2,0,4.2-1.3,4.2-16.5V2.1h4.5v31.9
	H67.1z M74,33.9V0.4h-1.2v33.8L74,33.9z M89.4,33.9l-7-17.6l6.5-15.9h-1.4l-6.4,16.1l6.8,17.6h1.5L89.4,33.9z M81,33.9V0.4h-1.2
	v33.8L81,33.9z M102.5,0.4h-1.3l-3.6,20.1L93.9,0.4h-1.3L97,23.2l-1,5.6c-0.6,3-1.3,3.6-2.8,3.6v1.7c1.9,0,3.1-0.4,3.9-4.5
	L102.5,0.4z M115,24.9c0-2.4-0.1-5.1-1.4-6.9c-0.4-0.6-1-1.1-1.6-1.3c0.4-0.2,1-0.6,1.4-1.3c1.1-1.9,1.3-3.9,1.3-6.2
	c0-3.6-0.3-5.1-1.1-6.7c-0.8-1.3-1.8-1.9-3.4-1.9h-3.3v33.8h3.3c1.7,0,2.7-0.6,3.5-1.9C114.6,30.8,115,29.2,115,24.9z M113.8,24.9
	c0,6-1.3,7.3-3.4,7.3h-2.3V17.4h2.3C112.5,17.4,113.8,19.7,113.8,24.9z M113.6,9c0,4.9-1.2,6.7-3.2,6.7h-2.3V2.1h2.3
	C112.4,2.1,113.6,3.6,113.6,9z M129,33.9l-4.5-33.7h-1.1l-4.6,33.7h1.3l1.3-10.1h5l1.3,10.1H129L129,33.9z M126.2,22.1h-4.5l2.2-18
	L126.2,22.1z M141.6,33.9V0.4h-1.2v15.7h-5.7V0.4h-1.2v33.8h1.2V17.8h5.7v16.3L141.6,33.9z M155.4,33.9V0.4h-1.2v15.7h-5.7V0.4h-1.2
	v33.8h1.2V17.8h5.7v16.3L155.4,33.9z M161.9,33.9l3.2-15.6h3v15.6h1.2V0.4h-3.8c-2.1,0-4.3,0.9-4.3,9.2c0,5.6,1,8.1,2.7,8.8
	l-3.4,15.9L161.9,33.9L161.9,33.9z M162.5,9.4c0-4.9,0.8-7.3,3-7.3h2.7v14.8h-2.7C163.3,16.9,162.5,14.4,162.5,9.4z M193.1,33.9V0.4
	h-1.3L187.2,21l-4.6-20.6h-1.3v33.8h1.2V5.4l4.2,18.6h1.1l4.1-19.1v29.3L193.1,33.9L193.1,33.9z M207.3,17.2
	c0-11.6-0.2-13.5-1.5-15.6C205.1,0.6,204.1,0,203,0s-2.2,0.6-2.8,1.7c-1.3,2.1-1.5,3.9-1.5,15.6s0.2,13.5,1.5,15.6
	c0.7,1.1,1.7,1.7,2.8,1.7s2.2-0.6,2.8-1.7C207.1,30.7,207.3,28.9,207.3,17.2z M206.1,17.2c0,11.2-0.2,12.7-1.1,14.2
	c-0.4,0.8-1.1,1.3-2,1.3s-1.6-0.4-2-1.3c-1-1.7-1.1-3-1.1-14.2S200,4.5,201,2.8c0.4-0.7,1.1-1.3,2-1.3s1.6,0.4,2,1.3
	C205.9,4.5,206.1,6,206.1,17.2z M228.3,33.9l-6.5-17.6l6.1-15.9h-1.4l-6.1,16.1l6.5,17.6h1.4V33.9z M220.3,33.9V0.4h-1.2v33.8
	L220.3,33.9z M219.1,16.5l-6.4-16.1h-1.4l6.4,15.9L211,33.9h1.3C212.3,33.9,219.1,16.5,219.1,16.5z M239.8,33.9v-1.7h-5.7V18h4.9
	v-1.7h-4.9V2.1h5.7V0.4h-6.9v33.8L239.8,33.9z M259.2,24.9c0-8.2-2.3-9.2-4.4-9.2h-2.7V2.1h6.2V0.4h-7.4v33.8h3.9
	C256.9,33.9,259.2,33,259.2,24.9z M258,24.9c0,6.6-1.5,7.5-3.3,7.5h-2.6v-15h2.6C256.5,17.4,258,18.4,258,24.9z M272.8,0.4h-1.3
	l-3.6,20.1l-3.6-20.1H263l4.3,22.9l-1,5.6c-0.6,3-1.3,3.6-2.8,3.6v1.7c1.9,0,3.1-0.4,3.9-4.5L272.8,0.4z M284.7,2.1V0.4h-8.3v1.7
	h3.6v31.9h1.2V2.1L284.7,2.1L284.7,2.1z M298,33.9V0.4h-1.2l-6.1,28.3V0.4h-1.2v33.8h1.2l6.1-28.3v28.3L298,33.9z M12.4,69.9V37.5
	h-1v30.8H6.7V37.5h-1v30.8H1.1V37.5h-1v32.2C0.1,69.7,12.4,69.9,12.4,69.9z M24.7,69.9l-6-16.9l5.6-15.4h-1.2l-5.4,15.4l5.8,16.9
	H24.7z M17.5,69.9V37.5h-1v32.2L17.5,69.9z M28.8,69.9V37.5h-1v32.2L28.8,69.9z M41.7,75v-6.7h-1.3V37.5h-5.9v14.6
	c0,6.2-0.5,11.6-1.4,16.1H32V75h1v-5.1h7.6V75C40.6,75,41.7,75,41.7,75z M39.4,68.2h-5.2c1-4.7,1.4-9.9,1.4-15.9V39.2h3.9v29.1
	C39.5,68.2,39.4,68.2,39.4,68.2z M53.1,69.9V37.5h-5.9v15.9c0,14.1-1.4,14.8-2.7,14.8h-0.2v1.7h0.3c1.9,0,3.6-1.1,3.6-15.8V39.4h3.9
	v30.7C52.1,70.1,53.1,69.9,53.1,69.9z M64.5,69.9V37.5h-1l-5.2,27.2V37.5h-1v32.2h1l5.2-27.2v27.2C63.5,69.7,64.5,69.9,64.5,69.9z
	 M75.6,61.1c0-2.4-0.1-4.9-1.2-6.8c-0.4-0.6-0.8-1.1-1.3-1.3c0.4-0.2,0.8-0.6,1.2-1.3c1-1.7,1.1-3.8,1.1-6c0-3.4-0.2-4.9-1-6.4
	c-0.7-1.3-1.5-1.9-2.9-1.9h-2.8v32.2h2.8c1.4,0,2.3-0.6,3-1.9C75.2,66.8,75.6,65.2,75.6,61.1z M74.6,61.1c0,5.6-1.1,7.1-2.9,7.1
	h-1.9V54h1.9C73.4,54,74.6,55.9,74.6,61.1z M74.3,45.8c0,4.7-1,6.6-2.7,6.6h-1.9V39.2h1.9C73.3,39.2,74.3,40.5,74.3,45.8z
	 M86.5,69.9V37.5h-1l-5.2,27.2V37.5h-1v32.2h1l5.2-27.2v27.2C85.5,69.7,86.5,69.9,86.5,69.9z M100.8,69.9V37.5h-1.1l-3.9,19.7
	l-4-19.7h-1.1v32.2h1V42.4l3.5,17.8h0.9l3.6-18.4v28.1C99.7,69.9,100.8,69.9,100.8,69.9z M117.7,75v-6.8h-1.3V37.5h-5.9v14.6
	c0,6.2-0.5,11.6-1.4,16.1H108V75h1v-5.1h7.6V75C116.6,75,117.7,75,117.7,75z M115.3,68.2h-5.2c1-4.7,1.4-9.9,1.4-15.9V39.2h3.9v29.1
	C115.4,68.2,115.3,68.2,115.3,68.2z M129,69.9V37.5h-5.8v15.9c0,14.1-1.4,14.8-2.7,14.8h-0.2v1.7h0.3c1.9,0,3.6-1.1,3.6-15.8V39.4
	h3.9v30.7C128.1,70.1,129,69.9,129,69.9z M133.8,69.9l2.7-15h2.6v15h1V37.5h-3.2c-1.8,0-3.7,0.9-3.7,8.6c0,5.4,0.9,7.7,2.3,8.4
	l-2.9,15.2L133.8,69.9L133.8,69.9z M134.3,46.3c0-4.7,0.7-7.1,2.6-7.1h2.3v14.1h-2.3C134.9,53.4,134.3,51,134.3,46.3z M155.5,61.1
	c0-2.4-0.1-4.9-1.2-6.8c-0.4-0.6-0.8-1.1-1.3-1.3c0.4-0.2,0.8-0.6,1.2-1.3c1-1.7,1.1-3.8,1.1-6c0-3.4-0.2-4.9-1-6.4
	c-0.7-1.3-1.5-1.9-2.9-1.9h-2.7v32.2h2.8c1.4,0,2.3-0.6,3-1.9C155.2,66.8,155.5,65.2,155.5,61.1L155.5,61.1z M154.5,61.1
	c0,5.6-1.1,7.1-2.9,7.1h-1.9V54h1.9C153.4,54,154.5,55.9,154.5,61.1z M154.3,45.8c0,4.7-1,6.6-2.7,6.6h-1.9V39.2h1.9
	C153.3,39.2,154.3,40.5,154.3,45.8z M166.7,69.9l-3.8-32.4H162l-4,32.4h1.1l1.1-9.8h4.2l1.1,9.8L166.7,69.9L166.7,69.9z M164.3,58.5
	h-3.8l1.9-17.2L164.3,58.5L164.3,58.5z M182,69.9V37.5h-1v30.8h-4.6V37.5h-1v30.8h-4.6V37.5h-1v32.2L182,69.9L182,69.9z M193.3,53.6
	c0-11.1-0.2-12.9-1.3-15c-0.6-1.1-1.4-1.7-2.4-1.7s-1.9,0.6-2.4,1.7c-1.1,1.9-1.3,3.8-1.3,15s0.2,12.9,1.3,15
	c0.6,1.1,1.4,1.7,2.4,1.7s1.9-0.6,2.4-1.7C193.1,66.8,193.3,64.9,193.3,53.6z M192.2,53.6c0,10.7-0.2,12.2-1,13.7
	c-0.4,0.8-1,1.1-1.7,1.1s-1.3-0.4-1.7-1.1c-0.8-1.7-1-3-1-13.7s0.2-12.2,1-13.7c0.4-0.8,1-1.1,1.7-1.1s1.3,0.4,1.7,1.1
	C192.1,41.4,192.2,42.9,192.2,53.6z M203,39.2v-1.7h-5.7v32.2h1V39.2C198.3,39.2,203,39.2,203,39.2z M213.1,53.6
	c0-11.1-0.2-12.9-1.3-15c-0.6-1.1-1.4-1.7-2.4-1.7s-1.9,0.6-2.4,1.7c-1.1,1.9-1.3,3.8-1.3,15c0,11.1,0.2,12.9,1.3,15
	c0.6,1.1,1.4,1.7,2.4,1.7s1.9-0.6,2.4-1.7C212.9,66.8,213.1,64.9,213.1,53.6z M212.1,53.6c0,10.7-0.2,12.2-1,13.7
	c-0.4,0.8-1,1.1-1.7,1.1s-1.3-0.4-1.7-1.1c-0.8-1.7-1-3-1-13.7s0.2-12.2,1-13.7c0.4-0.8,1-1.1,1.7-1.1s1.3,0.4,1.7,1.1
	C211.9,41.4,212.1,42.9,212.1,53.6z M227.6,61.5c0-3.8-0.3-5.1-0.9-6.4c-0.3-0.6-0.7-1.3-1.2-1.7c0.5-0.6,0.9-1.1,1.1-1.7
	c0.5-1.3,0.8-2.4,0.8-6.2c0-2.8,0-5.2-1.1-7.1c-0.6-1.1-1.4-1.7-2.4-1.7c-1.1,0-1.8,0.6-2.4,1.7c-0.7,1.3-1,3.4-1,5.6h1
	c0-1.9,0.2-3.6,0.8-4.7c0.4-0.6,0.9-1.1,1.6-1.1c0.7,0,1.3,0.4,1.7,1.1c0.8,1.5,0.8,3.2,0.8,6c0,3.8-0.3,4.9-0.8,5.8
	c-0.4,0.8-0.9,1.3-1.6,1.3h-1.5v1.7h1.5c0.6,0,1.1,0.4,1.6,1.3c0.6,1.3,0.9,2.4,0.9,6c0,2.6-0.2,4.5-0.8,5.8c-0.4,0.8-1,1.3-1.7,1.3
	s-1.2-0.4-1.6-1.1c-0.6-1.1-0.8-3-0.8-4.7h-1c0,2.4,0.4,4.7,1.2,6c0.5,0.9,1.3,1.3,2.2,1.3c1,0,1.9-0.6,2.4-1.7
	C227.4,66.8,227.6,64.9,227.6,61.5z M239.9,75v-6.8h-1.3V37.5h-5.9v14.6c0,6.2-0.5,11.6-1.4,16.1h-1.1V75h1v-5.1h7.6V75L239.9,75
	L239.9,75z M237.6,68.2h-5.2c1-4.7,1.4-9.9,1.4-15.9V39.2h3.9L237.6,68.2L237.6,68.2L237.6,68.2z M250.2,53.6
	c0-11.1-0.2-12.9-1.3-15c-0.6-1.1-1.4-1.7-2.4-1.7s-1.9,0.6-2.4,1.7c-1.1,1.9-1.3,3.8-1.3,15c0,11.1,0.2,12.9,1.3,15
	c0.6,1.1,1.4,1.7,2.4,1.7s1.9-0.6,2.4-1.7C249.9,66.8,250.2,64.9,250.2,53.6z M249.1,53.6c0,10.7-0.2,12.2-1,13.7
	c-0.4,0.8-1,1.1-1.7,1.1s-1.3-0.4-1.7-1.1c-0.8-1.7-1-3-1-13.7s0.2-12.2,1-13.7c0.4-0.7,1-1.1,1.7-1.1s1.3,0.4,1.7,1.1
	C249,41.4,249.1,42.9,249.1,53.6z M260.9,46.3c0-7.9-1.9-8.6-3.7-8.6H254v32.2h1V55.1h2.2C259,54.9,260.9,54,260.9,46.3L260.9,46.3z
	 M259.9,46.3c0,6.2-1.2,7.1-2.7,7.1h-2.1V39.2h2.1C258.6,39.2,259.9,39.9,259.9,46.3z M271.8,53.6c0-11.1-0.2-12.9-1.3-15
	c-0.6-1.1-1.4-1.7-2.4-1.7s-1.9,0.6-2.4,1.7c-1.1,1.9-1.3,3.8-1.3,15c0,11.1,0.2,12.9,1.3,15c0.6,1.1,1.4,1.7,2.4,1.7
	s1.9-0.6,2.4-1.7C271.6,66.8,271.8,64.9,271.8,53.6z M270.8,53.6c0,10.7-0.2,12.2-1,13.7c-0.4,0.8-1,1.1-1.7,1.1s-1.3-0.4-1.7-1.1
	c-0.8-1.7-1-3-1-13.7s0.2-12.2,1-13.7c0.4-0.7,1-1.1,1.7-1.1s1.3,0.4,1.7,1.1C270.6,41.4,270.8,42.9,270.8,53.6z M282.5,61.1
	c0-2.4-0.1-4.9-1.2-6.8c-0.4-0.6-0.8-1.1-1.3-1.3c0.4-0.2,0.8-0.6,1.2-1.3c1-1.7,1.1-3.8,1.1-6c0-3.4-0.2-4.9-1-6.4
	c-0.7-1.3-1.5-1.9-2.9-1.9h-2.8v32.2h2.8c1.4,0,2.3-0.6,3-1.9C282.2,66.8,282.5,65.2,282.5,61.1L282.5,61.1z M281.5,61.1
	c0,5.6-1.1,7.1-2.9,7.1h-1.9V54h1.9C280.4,54,281.5,55.9,281.5,61.1z M281.3,45.8c0,4.7-1,6.6-2.7,6.6h-1.9V39.2h1.9
	C280.3,39.2,281.3,40.5,281.3,45.8z M287.3,41.3v-3.8H286v5.4L287.3,41.3z M291.6,69.9l2.7-15h2.6v15h1V37.5h-3.2
	c-1.8,0-3.7,0.9-3.7,8.6c0,5.4,0.9,7.7,2.3,8.4l-2.9,15.4C290.4,69.9,291.6,69.9,291.6,69.9z M292,46.3c0-4.7,0.7-7.1,2.6-7.1h2.3
	v14.1h-2.3C292.7,53.4,292,51,292,46.3z"/>
</svg>
