<?xml version="1.0" encoding="utf-8"?>
<!-- Generator: Adobe Illustrator 24.1.3, SVG Export Plug-In . SVG Version: 6.00 Build 0)  -->
<svg version="1.1" id="Слой_1" xmlns="http://www.w3.org/2000/svg" xmlns:xlink="http://www.w3.org/1999/xlink" x="0px" y="0px"
	 viewBox="0 0 157.6 66.7" style="enable-background:new 0 0 157.6 66.7;" xml:space="preserve">
<style type="text/css">
	.st0{fill:#FFFFFF;}
</style>
<g>
	<path class="st0" d="M38,1.8H19.6v24.1h6.1V7.1h6.2v18.7H38V1.8z"/>
	<path class="st0" d="M54.5,25.9c1-0.2,2-0.6,2.9-1.1v-4.6c-1,0.5-2,0.9-2.9,1.1c-0.9,0.2-1.9,0.3-2.9,0.3c-1.2,0-2.1-0.3-2.7-0.9
		c-0.7-0.6-1-1.4-1.1-2.5h10.7v-2.9c0-2.8-0.7-4.9-2.1-6.3c-1.4-1.5-3.5-2.2-6.1-2.2c-2.8,0-4.9,0.8-6.4,2.5
		c-1.5,1.7-2.2,4.1-2.2,7.2c0,3.1,0.8,5.4,2.4,7.1c1.6,1.7,3.9,2.5,6.7,2.5C52.3,26.2,53.5,26.1,54.5,25.9z M52.4,12.1
		c0.5,0.5,0.7,1.3,0.7,2.2h-5.2c0.1-1,0.4-1.8,0.8-2.2c0.5-0.5,1.1-0.7,1.8-0.7C51.3,11.3,51.9,11.5,52.4,12.1z"/>
	<path class="st0" d="M77,23.6c1.1-1.7,1.7-4.1,1.7-7.1c0-3-0.5-5.3-1.6-7c-1.1-1.7-2.6-2.6-4.5-2.6c-2,0-3.5,0.9-4.6,2.7h-0.3
		l-0.8-2.4h-4.9V34h6v-7.5c0-0.3-0.1-1.1-0.3-2.4h0.3c0.7,0.8,1.4,1.4,2.1,1.7c0.7,0.3,1.5,0.5,2.4,0.5C74.3,26.2,75.9,25.3,77,23.6
		z M72.1,13c0.3,0.7,0.5,1.8,0.5,3.4c0,1.6-0.2,2.8-0.5,3.5c-0.3,0.7-0.9,1.1-1.7,1.1c-0.9,0-1.5-0.4-1.9-1.1
		c-0.4-0.7-0.6-1.9-0.6-3.5v-0.5c0-1.3,0.2-2.3,0.6-3c0.4-0.7,1-1,1.9-1C71.1,11.9,71.7,12.3,72.1,13z"/>
	<path class="st0" d="M94.1,25.9c1-0.2,2-0.6,2.9-1.1v-4.6c-1,0.5-2,0.9-2.9,1.1c-0.9,0.2-1.9,0.3-2.9,0.3c-1.2,0-2.1-0.3-2.7-0.9
		c-0.7-0.6-1-1.4-1.1-2.5h10.7v-2.9c0-2.8-0.7-4.9-2.1-6.3c-1.4-1.5-3.5-2.2-6.1-2.2c-2.8,0-4.9,0.8-6.4,2.5
		c-1.5,1.7-2.2,4.1-2.2,7.2c0,3.1,0.8,5.4,2.4,7.1c1.6,1.7,3.9,2.5,6.7,2.5C91.9,26.2,93.1,26.1,94.1,25.9z M92,12.1
		c0.5,0.5,0.7,1.3,0.7,2.2h-5.2c0.1-1,0.4-1.8,0.8-2.2s1.1-0.7,1.8-0.7C90.9,11.3,91.6,11.5,92,12.1z"/>
	<path class="st0" d="M107.6,7.2h-6v18.6h6V7.2z M99.1,4.5c0.5,0.4,1.1,0.7,1.9,0.7c0.8,0,1.5-0.2,1.9-0.7c0.5-0.5,0.7-1.1,0.7-1.9
		c0-0.8-0.2-1.4-0.7-1.9C102.4,0.2,101.8,0,101,0c-0.8,0-1.4,0.2-1.9,0.7c-0.5,0.5-0.7,1.1-0.7,1.9C98.4,3.4,98.6,4,99.1,4.5z
		 M106.4,4.5c0.5,0.5,1.1,0.7,1.9,0.7c0.8,0,1.5-0.2,1.9-0.7c0.5-0.5,0.7-1.1,0.7-1.9c0-0.8-0.2-1.4-0.7-1.9
		c-0.5-0.5-1.1-0.7-1.9-0.7c-0.8,0-1.5,0.2-1.9,0.7c-0.5,0.5-0.7,1.1-0.7,1.9C105.7,3.4,106,4,106.4,4.5z"/>
	<path class="st0" d="M127,8.4c-1.2-0.8-3.1-1.2-5.7-1.2h-9.5v18.6h9.5c5.4,0,8.1-1.8,8.1-5.3c0-1.2-0.3-2.2-1-2.9
		c-0.7-0.8-1.6-1.2-2.9-1.4v-0.1c1-0.2,1.8-0.6,2.4-1.3c0.6-0.7,0.9-1.6,0.9-2.7C128.8,10.4,128.2,9.2,127,8.4z M121.1,21.6h-3.3
		v-3.4h3.3c0.7,0,1.2,0.1,1.6,0.4c0.4,0.3,0.6,0.7,0.6,1.3C123.3,21.1,122.5,21.6,121.1,21.6L121.1,21.6z M122.4,13.8
		c-0.3,0.3-0.8,0.4-1.4,0.4h-3.2v-2.8h3.4c1.1,0,1.7,0.5,1.7,1.5C122.9,13.3,122.7,13.6,122.4,13.8z"/>
	<path class="st0" d="M0,47.7v18.6h6v-7.1h4.8v7.1h6V47.7h-6v6.7H6v-6.7H0z"/>
	<path class="st0" d="M36.4,66.3V54.1c0-2.1-0.6-3.8-1.8-5c-1.2-1.2-3-1.8-5.2-1.8c-3.1,0-5.7,0.6-7.7,1.7l1.7,4.2
		c2-0.9,3.6-1.4,4.8-1.4c1.4,0,2.1,0.8,2.1,2.3v0.3l-2.9,0.1c-2.4,0.1-4.3,0.7-5.6,1.6c-1.3,1-1.9,2.4-1.9,4.4
		c0,1.9,0.5,3.4,1.4,4.4c0.9,1.1,2.2,1.6,3.9,1.6c1.3,0,2.4-0.2,3.3-0.6c0.8-0.4,1.7-1.1,2.5-2.2h0.1l1.2,2.5H36.4z M26.1,60.4
		c0-1.5,1-2.3,3-2.3l1.4-0.1v1.4c0,0.8-0.3,1.4-0.8,1.9c-0.5,0.5-1.1,0.7-1.9,0.7C26.7,62.1,26.1,61.5,26.1,60.4L26.1,60.4z"/>
	<path class="st0" d="M62.2,65v-5.1c-1.6,1.1-3.3,1.6-5.1,1.6C55,61.5,54,60,54,57c0-1.5,0.3-2.6,0.8-3.4c0.5-0.8,1.3-1.2,2.3-1.2
		c0.7,0,1.3,0.1,1.9,0.3c0.6,0.2,1.3,0.5,2,0.8l1.8-4.8c-1.8-0.9-3.7-1.4-5.7-1.4c-2.9,0-5.2,0.9-6.8,2.6c-1.6,1.7-2.4,4.1-2.4,7.2
		c0,3.1,0.7,5.4,2.2,7.1c1.5,1.6,3.6,2.5,6.5,2.5C58.8,66.6,60.6,66.1,62.2,65L62.2,65z"/>
	<path class="st0" d="M80.8,48.8c-1.2-0.8-3.1-1.2-5.7-1.2h-9.5v18.6h9.5c5.4,0,8.1-1.8,8.1-5.3c0-1.2-0.3-2.2-1-2.9
		c-0.7-0.8-1.6-1.2-2.9-1.4v-0.1c1-0.2,1.8-0.6,2.4-1.3c0.6-0.7,0.9-1.6,0.9-2.7C82.7,50.8,82,49.6,80.8,48.8z M74.9,62.1h-3.3v-3.4
		H75c0.7,0,1.2,0.1,1.6,0.4c0.4,0.3,0.6,0.7,0.6,1.3C77.1,61.5,76.4,62.1,74.9,62.1L74.9,62.1z M76.2,54.3c-0.3,0.3-0.8,0.4-1.4,0.4
		h-3.2v-2.8H75c1.1,0,1.7,0.5,1.7,1.5C76.7,53.7,76.5,54,76.2,54.3z"/>
	<path class="st0" d="M93.9,59.8h1.8v6.5h6V47.7h-8.3c-2.4,0-4.3,0.5-5.6,1.6c-1.3,1-2,2.5-2,4.4c0,1.3,0.3,2.4,0.8,3.4
		c0.5,1,1.2,1.7,2.1,2.2l-4.5,7.1h6.4L93.9,59.8z M92.4,52.4c0.4-0.3,0.9-0.5,1.6-0.5h1.7v3.8H94c-0.7,0-1.2-0.2-1.6-0.5
		c-0.4-0.3-0.6-0.8-0.6-1.3C91.8,53.2,92,52.7,92.4,52.4z"/>
	<path class="st0" d="M122,47.7h-17.5v4.8h5.7v13.9h6V52.4h5.7V47.7z"/>
	<path class="st0" d="M140.3,66.3V54.1c0-2.1-0.6-3.8-1.8-5c-1.2-1.2-3-1.8-5.2-1.8c-3.1,0-5.7,0.6-7.7,1.7l1.7,4.2
		c2-0.9,3.6-1.4,4.8-1.4c1.4,0,2.1,0.8,2.1,2.3v0.3l-2.9,0.1c-2.4,0.1-4.3,0.7-5.6,1.6c-1.3,1-1.9,2.4-1.9,4.4
		c0,1.9,0.5,3.4,1.4,4.4c0.9,1.1,2.2,1.6,3.9,1.6c1.3,0,2.4-0.2,3.3-0.6c0.8-0.4,1.7-1.1,2.5-2.2h0.1l1.2,2.5H140.3z M130,60.4
		c0-1.5,1-2.3,3-2.3l1.4-0.1v1.4c0,0.8-0.3,1.4-0.8,1.9c-0.5,0.5-1.1,0.7-1.9,0.7C130.6,62.1,130,61.5,130,60.4L130,60.4z"/>
	<path class="st0" d="M151.6,57.8V57c0-0.5,0.1-0.9,0.4-1.2c0.3-0.3,0.9-0.9,2-1.6c1.3-0.9,2.2-1.8,2.8-2.8c0.6-1,0.9-2.1,0.9-3.4
		c0-1.9-0.7-3.3-2-4.4c-1.3-1.1-3.1-1.6-5.4-1.6c-2.8,0-5.4,0.8-8,2.3l2.1,4.5c2.1-1.2,3.9-1.8,5.4-1.8c0.6,0,1.1,0.1,1.5,0.4
		c0.4,0.3,0.6,0.6,0.6,1.1c0,0.6-0.2,1.1-0.5,1.5c-0.4,0.5-1,1-1.8,1.5c-1,0.7-1.8,1.4-2.2,2.2c-0.4,0.7-0.6,1.6-0.6,2.7v1.4H151.6z
		 M147.1,65.9c0.6,0.5,1.4,0.8,2.4,0.8c1,0,1.8-0.3,2.3-0.8c0.6-0.5,0.9-1.3,0.9-2.3c0-1-0.3-1.8-0.8-2.3c-0.5-0.6-1.3-0.8-2.4-0.8
		c-1.1,0-1.9,0.3-2.4,0.8c-0.5,0.5-0.8,1.3-0.8,2.3C146.2,64.6,146.5,65.4,147.1,65.9z"/>
</g>
</svg>
