<?xml version="1.0" encoding="utf-8"?>
<!-- Generator: Adobe Illustrator 24.0.3, SVG Export Plug-In . SVG Version: 6.00 Build 0)  -->
<svg version="1.1" id="Слой_1" xmlns="http://www.w3.org/2000/svg" xmlns:xlink="http://www.w3.org/1999/xlink" x="0px" y="0px"
	 viewBox="0 0 239.8 65.5" style="enable-background:new 0 0 239.8 65.5;" xml:space="preserve">
<style type="text/css">
	.st0{fill:#FFFFFF;}
</style>
<g>
	<path class="st0" d="M21.6,24.2c-0.4,0-0.7-0.3-0.9-0.8c-0.2-0.5-0.3-1.5-0.3-2.9c0-1.3,0.1-3.6,0.4-6.9c0.9,0.1,1.4,0.1,1.6,0.1
		c0.3,0,0.6-0.1,0.9-0.2c0.3-0.1,0.4-0.3,0.6-0.5c0.1-0.2,0.2-0.4,0.2-0.6c0-0.2,0-0.3-0.1-0.5c-0.1-0.2-0.2-0.3-0.3-0.4
		c-0.1-0.1-0.3-0.2-0.5-0.3C23,11,22.7,11,22.5,11c-0.5-0.1-1-0.1-1.4-0.2c0.1-1.1,0.2-2.5,0.4-4.1c0.2-1.6,0.3-2.8,0.3-3.7
		c0.1-0.8,0.1-1.3,0.1-1.5c0-0.5-0.2-0.9-0.5-1.1C21.1,0.1,20.7,0,20.3,0c-0.2,0-0.4,0-0.6,0.1c-0.2,0.1-0.3,0.2-0.5,0.3
		c-0.2,0.1-0.3,0.3-0.4,0.5c-0.1,0.2-0.1,0.4-0.2,0.6c-0.1,0.6-0.3,3.7-0.8,9.1c-0.1,0-0.3,0-0.4,0c-2,0-3.9,0.2-5.7,0.5
		c0.1-1.4,0.2-2.8,0.2-4.2c0-2.2-0.4-3.9-1.1-5C10.1,0.8,9,0.3,7.6,0.3C6.7,0.3,5.8,0.5,4.9,1C4.1,1.5,3.4,2.1,2.9,2.8
		c-0.5,0.7-0.8,1.4-0.8,2c0,0.3,0.1,0.6,0.3,0.8C2.6,5.8,2.9,6,3.2,6c0.3,0,0.6-0.1,0.9-0.4c0.3-0.3,0.6-0.6,0.8-1
		c0.2-0.4,0.5-0.7,0.9-1c0.4-0.3,0.8-0.4,1.2-0.4c0.6,0,1,0.3,1.3,0.8c0.3,0.5,0.4,1.5,0.4,2.9c0,1.6-0.1,3.4-0.2,5.3
		c-2.8,1-4.9,2.5-6.3,4.4C0.7,18.4,0,20.4,0,22.6C0,24,0.4,25.1,1.2,26C2,26.9,3,27.3,4.3,27.3c1,0,2-0.4,2.8-1.1
		c0.8-0.7,1.5-1.7,2.1-3c0.6-1.3,1-2.7,1.4-4.2c0.4-1.5,0.6-3.1,0.9-4.9c1.8-0.5,3.9-0.7,6.1-0.7c-0.3,3.4-0.5,5.8-0.5,7.2
		c0,2.1,0.4,3.8,1.1,4.8s1.8,1.6,3.1,1.6c0.6,0,1.2-0.1,1.7-0.4c0.5-0.3,1-0.6,1.4-1.1c0.4-0.4,0.8-1.1,1.3-1.9
		c0.4-0.8,0.8-1.6,1.2-2.4c0.3-0.8,0.8-1.8,1.3-3.1c0.1-0.2,0.1-0.4,0.1-0.6c0-0.4-0.1-0.7-0.4-0.9c-0.2-0.2-0.5-0.4-0.9-0.4
		c-0.6,0-1,0.3-1.3,1C24.2,21.9,22.8,24.2,21.6,24.2L21.6,24.2z M3.4,23.9C3.1,23.5,3,23,3,22.4c0-1.3,0.4-2.6,1.3-3.8
		s2.2-2.3,3.8-3.2c-0.4,2.7-0.9,4.9-1.5,6.6c-0.6,1.7-1.3,2.5-2.1,2.5C4,24.5,3.6,24.3,3.4,23.9z"/>
	<path class="st0" d="M33,24.5c-1.3,0-2.3-0.4-3-1.1c-0.7-0.7-1.2-1.7-1.3-3.1c1,0.5,2.1,0.7,3.3,0.7c1.6,0,2.9-0.5,4-1.5
		c1.1-1,1.6-2.2,1.6-3.5c0-1.3-0.4-2.4-1.3-3.3c-0.9-0.9-2.1-1.3-3.5-1.3c-2,0-3.6,0.8-5,2.3c-1.4,1.5-2,3.5-2,6
		c0,2.3,0.6,4.1,1.9,5.5c1.3,1.4,3,2,5.1,2c2.1,0,3.9-0.7,5.5-2.2c1.6-1.5,3-3.8,4.1-6.8c0.1-0.2,0.1-0.4,0.1-0.5
		c0-0.4-0.1-0.7-0.4-0.9c-0.3-0.2-0.5-0.4-0.8-0.4c-0.6,0-1,0.3-1.3,1C38,22.2,35.7,24.5,33,24.5L33,24.5z M34.1,14.7
		c0.3,0.3,0.5,0.8,0.5,1.4c0,0.7-0.2,1.3-0.7,1.7c-0.5,0.5-1.1,0.7-2,0.7c-1.1,0-2.1-0.2-3-0.6c0.2-0.8,0.5-1.4,0.9-2
		c0.4-0.6,0.8-1,1.4-1.3c0.5-0.3,1.1-0.4,1.6-0.4C33.4,14.2,33.8,14.4,34.1,14.7z"/>
	<path class="st0" d="M50.7,25.3c-0.5-1.6-1.5-2.7-3-3.3c0.6-0.5,1.1-1.1,1.6-1.7c0.5-0.6,0.8-1.4,1.1-2.1c0.3-0.8,0.4-1.5,0.4-2.2
		c0-0.9-0.2-1.7-0.7-2.4c-0.4-0.7-1-1.2-1.8-1.6c-0.7-0.4-1.6-0.5-2.5-0.5c-2.4,0-4.2,1.3-5.3,3.9l-0.8,2.1
		c-0.1,0.2-0.1,0.4-0.1,0.6c0,0.4,0.1,0.7,0.4,0.9c0.2,0.2,0.5,0.4,0.9,0.4c0.6,0,1-0.3,1.3-1c0.3-0.8,0.5-1.3,0.6-1.5
		c0.7-1.6,1.7-2.5,2.9-2.5c0.4,0,0.8,0.1,1.1,0.2c0.3,0.2,0.5,0.4,0.7,0.7c0.2,0.3,0.3,0.7,0.3,1.1c0,0.7-0.2,1.4-0.5,2.1
		c-0.3,0.7-0.7,1.3-1.2,1.9c-0.5,0.5-1,1-1.6,1.3c-0.8,0.4-1.3,0.9-1.3,1.4c0,0.3,0.1,0.5,0.2,0.6c0.1,0.2,0.3,0.3,0.5,0.4
		c0.2,0.1,0.4,0.1,0.7,0.1c0.6,0,1.1,0,1.5,0.1c0.4,0.1,0.7,0.2,1,0.4c0.3,0.2,0.5,0.5,0.7,0.9c0.2,0.4,0.3,0.9,0.3,1.5
		c-0.3,0.2-0.8,0.5-1.4,0.8c-0.6,0.3-1.1,0.6-1.5,0.8c-0.4,0.2-0.8,0.5-1.3,0.9c-0.5,0.4-0.9,0.7-1.2,1.1c-0.3,0.3-0.5,0.8-0.7,1.3
		c-0.2,0.5-0.3,1-0.3,1.6c0,0.4,0.1,0.8,0.2,1.2c0.2,0.4,0.4,0.7,0.7,1c0.3,0.3,0.6,0.5,1.1,0.6c0.4,0.2,0.9,0.2,1.3,0.2
		c1.6,0,3-0.7,4.2-2.2c1.2-1.4,1.8-3.5,1.9-6.2c0.9-0.7,1.7-1.5,2.4-2.5c0.7-1,1.3-2,1.8-3c0.5-1,1.1-2.5,1.9-4.5
		c0.1-0.2,0.1-0.4,0.1-0.5c0-0.4-0.1-0.7-0.4-0.9c-0.3-0.3-0.5-0.4-0.9-0.4c-0.6,0-1,0.3-1.2,1C53.2,21.6,51.8,24.2,50.7,25.3
		L50.7,25.3z M44.6,33.1c0-0.4,0.2-0.8,0.5-1.1c0.3-0.4,0.7-0.7,1-0.9c0.3-0.2,0.9-0.5,1.6-0.9c0.2-0.1,0.3-0.2,0.3-0.2
		c-0.2,1.3-0.5,2.3-1,2.9c-0.5,0.7-1,1-1.6,1C44.8,33.9,44.6,33.6,44.6,33.1L44.6,33.1z"/>
	<path class="st0" d="M65.8,23.2c0.5-1,0.9-2.1,1.3-3.5c0.2-0.9,0.3-2,0.3-3.1c0-1.4-0.2-2.9-0.7-4.2c-0.4-1.4-0.9-2.5-1.5-3.3
		c-0.5-0.8-1-1.7-1.5-2.6c-0.4-0.9-0.7-1.6-0.7-2.1c0-0.4,0.1-0.7,0.4-0.9c0.3-0.2,0.6-0.3,1.1-0.3c0.2,0,0.5,0,1,0.1
		c0.5,0.1,0.8,0.1,1,0.1c0.7,0,1.2-0.1,1.7-0.3c0.5-0.2,0.8-0.4,1-0.7c0.2-0.3,0.3-0.6,0.3-0.9c0-0.4-0.1-0.6-0.4-0.8
		c-0.3-0.2-0.6-0.3-1.1-0.3c-0.2,0-0.4,0-0.9,0.1c-0.4,0.1-0.9,0.1-1.3,0.1c-0.6,0-1.1,0-1.6-0.1c-0.5-0.1-0.8-0.1-1-0.1
		c-0.9,0-1.6,0.3-2.2,1C60.3,2.2,60,3.1,60,4.2c0,0.6,0.1,1.2,0.2,1.7c0.2,0.5,0.4,1,0.6,1.5c0.3,0.5,0.5,0.9,0.8,1.3
		c0.3,0.4,0.6,0.9,0.9,1.5c0.3,0.6,0.6,1.1,0.9,1.6c-0.7-0.2-1.4-0.3-2.1-0.3c-1.8,0-3.5,0.9-5,2.6C54.8,15.9,54,18,54,20.5
		c0,2.1,0.5,3.8,1.6,4.9c1,1.2,2.5,1.8,4.2,1.8c1.2,0,2.5-0.2,3.8-0.5c1.3-0.3,2.5-0.8,3.8-1.5c1.3-0.7,2.4-1.6,3.5-2.8
		c1.1-1.2,1.9-2.6,2.5-4.2c0.1-0.2,0.1-0.4,0.1-0.5c0-0.4-0.1-0.7-0.4-0.9c-0.3-0.2-0.5-0.4-0.8-0.4c-0.6,0-1,0.3-1.3,1
		C70,20,68.3,22,65.8,23.2L65.8,23.2z M58.5,16.1c0.9-1.2,2-1.8,3-1.8c1.9,0,2.8,1.2,2.8,3.6c0,1.6-0.5,3.1-1.4,4.5
		c-0.9,1.4-2,2.1-3.1,2.1c-0.8,0-1.5-0.3-2-1c-0.5-0.6-0.8-1.6-0.8-2.8C57.1,18.8,57.5,17.3,58.5,16.1z"/>
	<path class="st0" d="M84.8,24.5c-1,0-1.5-1.3-1.5-4c0-0.8,0.1-2.3,0.3-4.3c0.2-2,0.3-3.1,0.3-3.3c0-0.5-0.1-0.9-0.4-1.2
		c-0.3-0.3-0.6-0.4-1-0.4c-0.7,0-1.2,0.4-1.5,1.2c-0.9-0.6-1.9-0.8-3-0.8c-1,0-1.9,0.2-2.8,0.7c-0.9,0.5-1.7,1.1-2.5,2
		c-0.7,0.8-1.3,1.8-1.7,3c-0.4,1.2-0.7,2.5-0.7,3.8c0,2,0.5,3.5,1.4,4.6s2.2,1.6,3.7,1.6c2,0,3.8-1.1,5.4-3.4
		c0.2,0.7,0.5,1.4,0.9,1.9c0.4,0.5,0.8,0.9,1.3,1.1c0.5,0.2,1,0.4,1.5,0.4c1.3,0,2.5-0.7,3.6-2.2c1.1-1.5,2.2-3.7,3.3-6.8
		c0.1-0.2,0.1-0.4,0.1-0.5c0-0.4-0.1-0.7-0.4-0.9c-0.3-0.3-0.5-0.4-0.8-0.4c-0.6,0-1,0.3-1.3,1C87.2,22.1,85.8,24.5,84.8,24.5
		L84.8,24.5z M74,23.5c-0.5-0.6-0.7-1.4-0.7-2.6c0-1.8,0.5-3.4,1.5-4.7c1-1.3,2.2-1.9,3.5-1.9c1.2,0,2,0.5,2.3,1.4
		c0,1.1-0.1,2.2-0.3,3.1c-0.4,1.9-1.1,3.3-2,4.2c-0.9,0.9-1.8,1.3-2.6,1.3C75.1,24.4,74.5,24.1,74,23.5z"/>
	<path class="st0" d="M103.5,24.3c-0.2,0-0.4-0.1-0.5-0.2c-0.1-0.1-0.3-0.4-0.5-0.9c-0.2-0.5-0.3-1.1-0.4-1.9
		c-0.1-0.8-0.2-1.9-0.3-3.3c-0.1-1.4-0.1-3.1-0.1-5.1c0-0.4-0.2-0.8-0.5-1.1c-0.3-0.3-0.7-0.4-1.1-0.4c-0.8,0-1.4,0.5-1.8,1.4
		c-0.2,0.5-0.5,1.4-0.9,2.6c-0.4,1.2-0.8,2.3-1.1,3.2c-0.3,0.9-0.7,1.8-1.1,2.8c-0.4,1-0.9,1.7-1.3,2.3c-0.5,0.5-0.9,0.8-1.3,0.8
		c-0.5,0-0.8-0.2-1.2-0.7c-0.3-0.4-0.5-1.1-0.5-1.9c0-1,0.1-1.9,0.3-2.7c0.2-0.8,0.3-1.3,0.3-1.4c0-0.4-0.1-0.7-0.4-0.9
		c-0.2-0.2-0.5-0.4-0.9-0.4c-0.6,0-1,0.5-1.4,1.5c-0.4,1-0.6,2.2-0.6,3.7c0,1.8,0.4,3.2,1.1,4.1c0.7,0.9,1.7,1.4,2.9,1.4
		c1.5,0,2.7-0.7,3.8-2.1c1.1-1.4,2-3.5,2.9-6.2c0.2,5.4,1.5,8.2,4.2,8.2c0.7,0,1.3-0.2,1.9-0.5c0.6-0.3,1.1-0.7,1.5-1.2
		c0.4-0.5,0.8-1.1,1.3-2c0.4-0.8,0.8-1.6,1.1-2.3c0.3-0.7,0.6-1.6,1-2.7c0.1-0.2,0.1-0.5,0.1-0.7c0-0.4-0.1-0.7-0.3-0.9
		c-0.2-0.2-0.5-0.4-0.8-0.4c-0.6,0-1,0.3-1.2,1C105.9,22,104.6,24.3,103.5,24.3L103.5,24.3z"/>
	<path class="st0" d="M121.3,24.5c-1,0-1.5-1.3-1.5-4c0-0.8,0.1-2.3,0.3-4.3c0.2-2,0.3-3.1,0.3-3.3c0-0.5-0.1-0.9-0.4-1.2
		c-0.3-0.3-0.6-0.4-1-0.4c-0.7,0-1.2,0.4-1.5,1.2c-0.9-0.6-1.9-0.8-3-0.8c-1,0-1.9,0.2-2.8,0.7c-0.9,0.5-1.7,1.1-2.5,2
		c-0.7,0.8-1.3,1.8-1.7,3c-0.4,1.2-0.7,2.5-0.7,3.8c0,2,0.5,3.5,1.4,4.6c0.9,1.1,2.2,1.6,3.7,1.6c2,0,3.8-1.1,5.4-3.4
		c0.2,0.7,0.5,1.4,0.9,1.9c0.4,0.5,0.8,0.9,1.3,1.1c0.5,0.2,1,0.4,1.5,0.4c1.3,0,2.5-0.7,3.6-2.2c1.1-1.5,2.2-3.7,3.3-6.8
		c0.1-0.2,0.1-0.4,0.1-0.5c0-0.4-0.1-0.7-0.4-0.9c-0.3-0.3-0.5-0.4-0.8-0.4c-0.6,0-1,0.3-1.3,1C123.7,22.1,122.3,24.5,121.3,24.5
		L121.3,24.5z M110.5,23.5c-0.5-0.6-0.7-1.4-0.7-2.6c0-1.8,0.5-3.4,1.5-4.7c1-1.3,2.2-1.9,3.5-1.9c1.2,0,2,0.5,2.3,1.4
		c0,1.1-0.1,2.2-0.3,3.1c-0.4,1.9-1.1,3.3-2,4.2c-0.9,0.9-1.8,1.3-2.6,1.3C111.6,24.4,111,24.1,110.5,23.5z"/>
	<path class="st0" d="M137.9,24.3c-0.6,0-0.8-0.5-0.8-1.4c0-2.5,0.3-5.7,0.9-9.7c0.1-0.5,0-0.9-0.3-1.2c-0.3-0.3-0.6-0.4-1.1-0.4
		c-0.9,0-1.4,0.4-1.6,1.3c-0.3,1.7-0.5,3.3-0.7,4.9c-1.1,0-2.1,0-3.2,0c-0.8,0-1.7,0-2.5,0c0.1-1.4,0.2-3,0.3-4.7
		c0-0.5-0.1-0.9-0.4-1.1c-0.3-0.3-0.7-0.4-1.1-0.4c-0.4,0-0.8,0.1-1.1,0.4c-0.3,0.3-0.5,0.6-0.5,1.1c-0.3,4-0.6,8.2-0.7,12.7
		c0,0.5,0.1,0.9,0.4,1.1c0.3,0.3,0.7,0.4,1.1,0.4c0.3,0,0.5-0.1,0.7-0.2c0.2-0.1,0.4-0.3,0.6-0.5c0.2-0.2,0.2-0.5,0.2-0.8
		c0.1-1.7,0.1-3.4,0.2-5.3c0.9,0,1.8,0,2.7,0c1,0,2,0,3,0c0,0.6,0,1.2,0,1.7c0,1.6,0.3,2.8,1,3.6c0.7,0.8,1.5,1.2,2.7,1.2
		c0.6,0,1.1-0.1,1.6-0.4c0.5-0.3,1-0.6,1.4-1.1c0.4-0.4,0.8-1.1,1.3-1.9c0.4-0.8,0.8-1.6,1.2-2.4c0.3-0.8,0.8-1.8,1.3-3.1
		c0.1-0.2,0.1-0.4,0.1-0.5c0-0.4-0.1-0.7-0.4-0.9c-0.3-0.2-0.5-0.4-0.9-0.4c-0.6,0-1,0.3-1.2,1C140.2,22,138.8,24.3,137.9,24.3
		L137.9,24.3z"/>
	<path class="st0" d="M154.2,25.2c1.7-1.5,3.2-3.8,4.4-6.9c0.1-0.2,0.1-0.4,0.1-0.5c0-0.2,0-0.3-0.1-0.5c-0.1-0.2-0.2-0.3-0.3-0.4
		c-0.1-0.1-0.2-0.2-0.4-0.3c-0.1-0.1-0.3-0.1-0.5-0.1c-0.5,0-0.9,0.3-1.2,1c-1,2.5-2.2,4.3-3.5,5.4c-1.3,1.2-2.6,1.7-4.1,1.7
		c-0.8,0-1.5-0.2-2.1-0.5c-0.6-0.3-1.1-0.9-1.4-1.6c-0.3-0.7-0.5-1.5-0.5-2.5c0-1.8,0.4-3.2,1.2-4.2c0.8-1,1.7-1.5,2.8-1.5
		c0.5,0,0.9,0.2,1.2,0.5c0.3,0.3,0.5,0.7,0.5,1.2c0,1,0.5,1.6,1.4,1.6c1,0,1.5-0.7,1.5-2.1c0-0.7-0.2-1.4-0.5-1.9
		c-0.4-0.6-0.9-1-1.6-1.4c-0.7-0.4-1.5-0.5-2.4-0.5c-1.2,0-2.4,0.3-3.5,1c-1.1,0.7-1.9,1.7-2.6,3c-0.7,1.3-1,2.8-1,4.5
		c0,2.3,0.6,4,1.9,5.3c1.3,1.3,3,2,5.1,2C150.6,27.4,152.5,26.6,154.2,25.2z"/>
	<path class="st0" d="M168.9,21c0.2-0.9,0.3-1.9,0.3-2.8c0-1.5-0.3-2.9-1-4.1c-0.6-1.2-1.5-2.1-2.6-2.5c-0.8-0.3-1.6-0.5-2.6-0.5
		c-1.5,0-2.8,0.5-4,1.4c-1.2,1-2.1,2.1-2.6,3.5c-0.6,1.4-0.9,2.9-0.9,4.4c0,1.9,0.5,3.6,1.5,4.9c1,1.3,2.5,2,4.5,2
		c2.7,0,4.8-1.2,6.2-3.7c1.5-0.1,2.8-0.7,4.1-1.6c1.3-0.9,2.2-2.2,2.8-3.8c0.1-0.2,0.1-0.4,0.1-0.6c0-0.4-0.1-0.6-0.4-0.9
		c-0.2-0.2-0.5-0.3-0.9-0.3c-0.6,0-1,0.3-1.3,1C171.7,19.2,170.5,20.4,168.9,21L168.9,21z M165.8,15.3c0.3,0.7,0.5,1.7,0.5,2.8
		c0,1.1-0.1,2-0.4,2.9c-0.5-0.2-1-0.6-1.4-1c-0.4-0.4-0.7-1-0.9-1.5c-0.2-0.6-0.3-1.2-0.3-1.8c0-0.7,0.1-1.3,0.4-1.7
		c0.2-0.5,0.6-0.7,1-0.7C165,14.2,165.5,14.5,165.8,15.3z M160.5,24.4c-0.4-0.2-0.7-0.4-1-0.8c-0.3-0.3-0.5-0.8-0.6-1.3
		c-0.2-0.5-0.2-1.1-0.2-1.8c0-1.1,0.2-2.2,0.6-3.3c0.4-1.1,1-1.9,1.7-2.5c-0.3,0.8-0.4,1.6-0.4,2.5c0,0.8,0.2,1.6,0.5,2.4
		c0.3,0.8,0.8,1.5,1.4,2.2c0.6,0.6,1.3,1.1,2.1,1.5c-0.8,1-1.8,1.4-2.9,1.4C161.2,24.6,160.8,24.5,160.5,24.4z"/>
	<path class="st0" d="M185.6,21.1c0.3-1,0.5-2.1,0.5-3.1c0-1.1-0.2-2.2-0.5-3.1c-0.3-0.9-0.9-1.7-1.7-2.3c-0.8-0.6-1.7-0.9-2.8-0.9
		c-1.5,0-2.7,0.5-3.6,1.5c-0.9,1-1.4,2.4-1.4,4.1c0,1.4,0.5,2.7,1.4,3.7c0.9,1.1,2.1,1.8,3.6,2.3c-0.7,0.7-1.4,1.1-2.2,1.1
		c-1,0-1.8-0.6-2.5-1.9c-0.6-1.3-1-3.3-1-6.2c0-2.2,0.2-4.3,0.6-6.1c0.2,0,0.5,0,0.8,0c1.5,0,2.9-0.2,4.1-0.5
		c1.2-0.3,2.1-0.8,2.8-1.4c0.7-0.6,1.2-1.2,1.6-2c0.4-0.7,0.5-1.5,0.5-2.3c0-1.2-0.4-2.3-1.2-3.1c-0.8-0.8-1.9-1.2-3.2-1.2
		c-1.7,0-3.2,0.7-4.6,2c-1.3,1.3-2.4,3.2-3.1,5.6c-0.4-0.1-0.7-0.2-0.8-0.2c-0.4,0-0.7,0.1-0.9,0.4c-0.2,0.2-0.4,0.5-0.4,0.9
		c0,0.2,0,0.4,0.1,0.6c0.1,0.2,0.2,0.3,0.4,0.5c0.2,0.2,0.4,0.3,0.7,0.3c0.1,0,0.2,0.1,0.3,0.1c-0.4,2-0.6,4.3-0.6,6.7
		c0,7,2.2,10.5,6.5,10.5c2.3,0,4.1-1.1,5.5-3.4c1.6-0.1,3-0.7,4.2-1.6c1.2-1,2.1-2.3,2.7-4c0.1-0.2,0.1-0.4,0.1-0.6
		c0-0.2-0.1-0.4-0.2-0.6c-0.1-0.2-0.3-0.3-0.4-0.4c-0.2-0.1-0.3-0.1-0.5-0.1c-0.6,0-1,0.3-1.3,1C188,19.4,186.9,20.6,185.6,21.1
		L185.6,21.1z M182.5,3.2c0.3,0.3,0.4,0.6,0.4,1.1c0,0.6-0.2,1.1-0.6,1.7s-1.1,1-2,1.4c-0.9,0.4-2,0.6-3.2,0.6c-0.2,0-0.4,0-0.6,0
		c0.4-1.1,0.8-2,1.3-2.8c0.5-0.8,1-1.3,1.6-1.7c0.6-0.4,1.2-0.6,1.8-0.6C181.9,2.8,182.2,2.9,182.5,3.2z M179.3,15.4
		c0.4-0.6,0.9-0.8,1.6-0.8c0.7,0,1.2,0.3,1.6,0.9c0.4,0.6,0.6,1.4,0.6,2.3c0,1.2-0.2,2.3-0.6,3.5c-1.2-0.2-2.1-0.7-2.7-1.4
		c-0.6-0.7-1-1.5-1-2.4C178.7,16.6,178.9,15.9,179.3,15.4z"/>
	<path class="st0" d="M202.7,24.5c-1,0-1.5-1.3-1.5-4c0-0.8,0.1-2.3,0.3-4.3c0.2-2,0.3-3.1,0.3-3.3c0-0.5-0.1-0.9-0.4-1.2
		c-0.3-0.3-0.6-0.4-1-0.4c-0.7,0-1.2,0.4-1.5,1.2c-0.9-0.6-1.9-0.8-3-0.8c-1,0-1.9,0.2-2.8,0.7c-0.9,0.5-1.7,1.1-2.5,2
		c-0.7,0.8-1.3,1.8-1.7,3c-0.4,1.2-0.7,2.5-0.7,3.8c0,2,0.5,3.5,1.4,4.6s2.2,1.6,3.7,1.6c2,0,3.8-1.1,5.4-3.4
		c0.2,0.7,0.5,1.4,0.9,1.9c0.4,0.5,0.8,0.9,1.3,1.1c0.5,0.2,1,0.4,1.5,0.4c1.3,0,2.5-0.7,3.6-2.2c1.1-1.5,2.2-3.7,3.3-6.8
		c0.1-0.2,0.1-0.4,0.1-0.5c0-0.4-0.1-0.7-0.4-0.9c-0.3-0.3-0.5-0.4-0.8-0.4c-0.6,0-1,0.3-1.3,1C205.1,22.1,203.7,24.5,202.7,24.5
		L202.7,24.5z M191.9,23.5c-0.5-0.6-0.7-1.4-0.7-2.6c0-1.8,0.5-3.4,1.5-4.7c1-1.3,2.2-1.9,3.5-1.9c1.2,0,2,0.5,2.3,1.4
		c0,1.1-0.1,2.2-0.3,3.1c-0.4,1.9-1.1,3.3-2,4.2c-0.9,0.9-1.8,1.3-2.6,1.3C193,24.4,192.4,24.1,191.9,23.5z"/>
	<path class="st0" d="M219.3,24.3c-0.6,0-0.8-0.5-0.8-1.4c0-2.5,0.3-5.7,0.9-9.7c0.1-0.5,0-0.9-0.3-1.2c-0.3-0.3-0.6-0.4-1.1-0.4
		c-0.9,0-1.4,0.4-1.6,1.3c-0.3,1.7-0.5,3.3-0.7,4.9c-1.1,0-2.1,0-3.2,0c-0.8,0-1.7,0-2.5,0c0.1-1.4,0.2-3,0.3-4.7
		c0-0.5-0.1-0.9-0.4-1.1c-0.3-0.3-0.7-0.4-1.1-0.4c-0.4,0-0.8,0.1-1.1,0.4c-0.3,0.3-0.5,0.6-0.5,1.1c-0.3,4-0.6,8.2-0.7,12.7
		c0,0.5,0.1,0.9,0.4,1.1c0.3,0.3,0.7,0.4,1.1,0.4c0.3,0,0.5-0.1,0.7-0.2c0.2-0.1,0.4-0.3,0.6-0.5c0.2-0.2,0.2-0.5,0.2-0.8
		c0.1-1.7,0.1-3.4,0.2-5.3c0.9,0,1.8,0,2.7,0c1,0,2,0,3,0c0,0.6,0,1.2,0,1.7c0,1.6,0.3,2.8,1,3.6c0.7,0.8,1.5,1.2,2.7,1.2
		c0.6,0,1.1-0.1,1.6-0.4c0.5-0.3,1-0.6,1.4-1.1c0.4-0.4,0.8-1.1,1.3-1.9c0.4-0.8,0.8-1.6,1.2-2.4c0.3-0.8,0.8-1.8,1.3-3.1
		c0.1-0.2,0.1-0.4,0.1-0.5c0-0.4-0.1-0.7-0.4-0.9c-0.3-0.2-0.5-0.4-0.9-0.4c-0.6,0-1,0.3-1.2,1C221.6,22,220.2,24.3,219.3,24.3
		L219.3,24.3z"/>
	<path class="st0" d="M230.4,24.5c-1.3,0-2.3-0.4-3-1.1c-0.7-0.7-1.2-1.7-1.3-3.1c1,0.5,2.1,0.7,3.3,0.7c1.6,0,2.9-0.5,4-1.5
		c1.1-1,1.6-2.2,1.6-3.5c0-1.3-0.4-2.4-1.3-3.3c-0.9-0.9-2.1-1.3-3.5-1.3c-2,0-3.6,0.8-5,2.3c-1.4,1.5-2,3.5-2,6
		c0,2.3,0.6,4.1,1.9,5.5c1.3,1.4,3,2,5.1,2c2.1,0,3.9-0.7,5.5-2.2c1.6-1.5,3-3.8,4.1-6.8c0.1-0.2,0.1-0.4,0.1-0.5
		c0-0.4-0.1-0.7-0.4-0.9c-0.3-0.2-0.5-0.4-0.8-0.4c-0.6,0-1,0.3-1.3,1C235.5,22.2,233.2,24.5,230.4,24.5L230.4,24.5z M231.6,14.7
		c0.3,0.3,0.5,0.8,0.5,1.4c0,0.7-0.2,1.3-0.7,1.7c-0.5,0.5-1.1,0.7-2,0.7c-1.1,0-2.1-0.2-3-0.6c0.2-0.8,0.5-1.4,0.9-2
		c0.4-0.6,0.8-1,1.4-1.3c0.5-0.3,1.1-0.4,1.6-0.4C230.8,14.2,231.2,14.4,231.6,14.7z"/>
	<path class="st0" d="M47.2,51.6c-0.6,1.1-1.2,1.7-1.7,1.7c-0.4,0-0.8-0.3-1.2-0.9c-0.4-0.6-0.9-1.6-1.6-3.1
		c-0.1-0.1-0.1-0.2-0.1-0.3c1-1.5,2.2-3.4,3.4-5.6c0.2-0.4,0.3-0.8,0.3-1.2c0-0.4-0.1-0.8-0.4-1c-0.2-0.3-0.5-0.4-0.9-0.4
		c-0.7,0-1.2,0.5-1.7,1.4c-0.6,1.2-1.3,2.4-2.1,3.7c-0.2-0.6-0.4-1.1-0.6-1.7c-0.9-2.4-2.3-3.6-4.1-3.6c-0.9,0-1.6,0.3-2.3,0.8
		c-0.6,0.5-1.2,1.4-1.6,2.6c-0.1,0.3-0.4,1.1-0.9,2.3c-0.1,0.2-0.1,0.4-0.1,0.6c0,0.3,0.1,0.6,0.4,0.8c0.2,0.2,0.5,0.3,0.8,0.3
		c0.6,0,1.1-0.3,1.3-0.9c0.2-0.6,0.5-1.3,0.9-2.2c0.3-0.6,0.5-1,0.6-1.2c0.2-0.2,0.4-0.3,0.7-0.3c0.4,0,0.8,0.3,1.1,0.8
		c0.3,0.6,0.8,1.7,1.4,3.4c0.1,0.3,0.3,0.7,0.4,1c-1.3,1.8-2.7,3.5-4.2,5c-0.4,0.4-0.6,0.9-0.6,1.4c0,0.4,0.1,0.7,0.4,0.9
		c0.2,0.3,0.5,0.4,0.9,0.4c0.5,0,1.1-0.3,1.7-1c1.1-1.3,2.1-2.5,3.1-3.7c0.1,0.3,0.2,0.5,0.3,0.7c0.7,1.3,1.4,2.3,2.1,3
		c0.7,0.6,1.5,0.9,2.4,0.9c0.6,0,1.1-0.1,1.6-0.4c0.5-0.3,0.9-0.6,1.3-1c0.4-0.4,0.8-1,1.3-1.9c0.5-0.9,0.8-1.7,1.2-2.5
		c0.3-0.8,0.8-1.9,1.3-3.3c0.1-0.2,0.1-0.4,0.1-0.6c0-0.4-0.1-0.6-0.4-0.9c-0.2-0.2-0.5-0.3-0.9-0.3c-0.6,0-1,0.3-1.3,1
		C48.6,48.7,47.8,50.5,47.2,51.6z"/>
	<path class="st0" d="M63.3,53.3c-1,0-1.5-1.3-1.5-4c0-0.8,0.1-2.3,0.3-4.3c0.2-2,0.3-3.1,0.3-3.3c0-0.5-0.1-0.9-0.4-1.2
		c-0.3-0.3-0.6-0.4-1-0.4c-0.7,0-1.2,0.4-1.5,1.2c-0.9-0.6-1.9-0.8-3-0.8c-1,0-1.9,0.2-2.8,0.7c-0.9,0.5-1.7,1.1-2.5,2
		c-0.7,0.8-1.3,1.8-1.7,3c-0.4,1.2-0.7,2.5-0.7,3.8c0,2,0.5,3.5,1.4,4.6c0.9,1.1,2.2,1.6,3.7,1.6c2,0,3.8-1.1,5.4-3.4
		c0.2,0.7,0.5,1.4,0.9,1.9c0.4,0.5,0.8,0.9,1.3,1.1c0.5,0.2,1,0.4,1.5,0.4c1.3,0,2.5-0.7,3.6-2.2c1.1-1.5,2.2-3.7,3.3-6.8
		c0.1-0.2,0.1-0.4,0.1-0.5c0-0.4-0.1-0.7-0.4-0.9c-0.3-0.3-0.5-0.4-0.8-0.4c-0.6,0-1,0.3-1.3,1C65.7,50.9,64.3,53.3,63.3,53.3
		L63.3,53.3z M52.6,52.3c-0.5-0.6-0.7-1.4-0.7-2.6c0-1.8,0.5-3.4,1.5-4.7c1-1.3,2.2-1.9,3.5-1.9c1.2,0,2,0.5,2.3,1.4
		c0,1.1-0.1,2.2-0.3,3.1c-0.4,1.9-1.1,3.3-2,4.2c-0.9,0.9-1.8,1.3-2.6,1.3C53.6,53.2,53,52.9,52.6,52.3z"/>
	<path class="st0" d="M79.9,51.4c0.9-1.8,1.4-3.6,1.4-5.4c0-1.7-0.4-3.1-1.3-4.1c-0.9-1-2.1-1.5-3.5-1.5c-1,0-2,0.3-3,0.9
		c-1,0.6-1.9,1.4-2.8,2.4c-0.1-0.9-0.2-1.7-0.4-2.5c-0.1-0.3-0.3-0.6-0.5-0.8c-0.3-0.2-0.5-0.3-0.9-0.3c-0.4,0-0.8,0.1-1.1,0.4
		c-0.3,0.3-0.5,0.6-0.5,1.1c0,0.1,0,0.5,0.1,1.2c0.1,0.7,0.2,1.6,0.3,2.7c0.1,1.1,0.1,2.1,0.1,3.2c0,2.1-0.1,4.4-0.3,6.8
		c-0.2,2.4-0.5,4.4-0.7,6c-0.2,1.6-0.3,2.4-0.3,2.5c0,0.2,0,0.4,0.1,0.6c0.1,0.2,0.2,0.3,0.3,0.5c0.1,0.1,0.3,0.2,0.5,0.3
		c0.2,0.1,0.4,0.1,0.6,0.1c0.4,0,0.7-0.1,1-0.4c0.3-0.2,0.5-0.6,0.5-1c0.9-6.7,1.4-11.9,1.4-15.5c0.3-1.4,1-2.7,2-3.8
		c1-1.1,2.1-1.7,3.2-1.7c0.7,0,1.2,0.3,1.6,0.8c0.4,0.5,0.5,1.2,0.5,2c0,1.1-0.3,2.4-0.8,3.7c-0.5,1.3-1.2,2.3-2,3.1
		c-0.5,0.1-1.1,0.1-1.6,0.1c-0.6,0-1,0.2-1.4,0.6c-0.4,0.4-0.5,0.8-0.5,1.3c0,0.5,0.2,0.9,0.5,1.2c0.4,0.3,0.8,0.5,1.5,0.5
		c1.1,0,2.2-0.5,3.3-1.4c2.3-0.5,4.3-1.4,5.9-2.7c1.6-1.3,2.8-3.1,3.6-5.2c0.1-0.2,0.1-0.4,0.1-0.6c0-0.4-0.1-0.6-0.4-0.9
		c-0.2-0.2-0.5-0.3-0.8-0.3c-0.6,0-1,0.3-1.3,1C83.4,48.5,81.9,50.3,79.9,51.4L79.9,51.4z"/>
	<path class="st0" d="M96.2,55.5c0.8-0.4,1.5-1,2.1-1.9c0.6-0.9,1.2-1.8,1.6-2.7c0.5-1,1-2.2,1.6-3.8c0.1-0.2,0.1-0.4,0.1-0.5
		c0-0.4-0.1-0.7-0.4-0.9c-0.3-0.3-0.5-0.4-0.9-0.4c-0.6,0-1,0.3-1.2,1c-0.4,1-0.7,1.8-1,2.4c-0.3,0.7-0.7,1.4-1.1,2.2
		c-0.5,0.8-0.9,1.4-1.5,1.8c-0.5,0.4-1.1,0.6-1.6,0.6c-1.4,0-2.1-0.9-2.1-2.6c0-0.4,0-0.7,0.1-1.1c0.1-0.4,0.1-0.7,0.2-1
		c0.1-0.3,0.2-0.6,0.3-1c0.1-0.4,0.3-0.7,0.4-0.9c0.1-0.2,0.3-0.5,0.5-0.9c0.2-0.4,0.3-0.6,0.5-0.8c0.1-0.2,0.3-0.4,0.5-0.8
		c0.2-0.4,0.4-0.6,0.4-0.7c0.7-1.2,1.1-2.1,1.1-2.5c0-0.4-0.1-0.7-0.3-0.9c-0.2-0.2-0.5-0.3-0.8-0.3c-0.1,0-0.3,0-0.4,0.1
		c-0.1,0-0.3,0.1-0.3,0.1c-0.1,0-0.2,0.1-0.4,0.2c-0.2,0.1-0.3,0.2-0.4,0.2c-0.7,0.3-1.3,0.5-1.8,0.5c-1.2,0-2.2-0.3-2.8-0.9
		c-0.1-0.1-0.2-0.3-0.5-0.5c-0.3-0.3-0.5-0.5-0.7-0.6c-0.2-0.1-0.4-0.2-0.7-0.2c-0.3,0-0.5,0.1-0.7,0.2c-0.2,0.1-0.3,0.3-0.4,0.5
		c-0.1,0.2-0.2,0.5-0.2,0.7c0,0.1,0.1,0.4,0.2,0.8c0.1,0.4,0.2,0.7,0.2,0.9c0,0.6-0.5,2.1-1.4,4.5c-0.1,0.2-0.1,0.4-0.1,0.5
		c0,0.2,0.1,0.4,0.2,0.6c0.1,0.2,0.3,0.3,0.5,0.4c0.2,0.1,0.4,0.2,0.6,0.2c0.5,0,0.9-0.3,1.2-0.9c0.4-0.9,0.8-2.3,1.4-4.2
		c0.9,0.4,1.9,0.6,3.1,0.6c-1.6,2.7-2.4,5.2-2.4,7.5c0,1.5,0.5,2.7,1.4,3.7c0.9,0.9,2.1,1.4,3.5,1.4C94.6,56.1,95.4,55.9,96.2,55.5z
		"/>
	<path class="st0" d="M110.9,53.8c0-0.2,0-0.4,0-0.8c0.1-0.9,0.2-2.1,0.2-3.4c0.1-1.3,0.2-2.7,0.3-4.1c0.1-1.4,0.2-2.6,0.3-3.6
		c0-0.5-0.1-0.9-0.4-1.2c-0.3-0.3-0.7-0.4-1.1-0.4c-0.4,0-0.7,0.1-1,0.4c-0.3,0.3-0.5,0.6-0.5,1c-0.1,1.2-0.2,2.5-0.3,3.9
		c-0.2,1.4-0.5,2.6-0.9,3.6c-0.4,1-0.9,1.8-1.4,2.3c-0.5,0.5-1,0.9-1.5,1.1c-0.5,0.2-0.9,0.3-1.4,0.3c-0.6,0-1-0.2-1.3-0.5
		c-0.3-0.3-0.4-0.9-0.4-1.8c0-0.7,0.2-2,0.5-3.9c0.3-1.9,0.5-3.4,0.5-4.3c0-0.5-0.1-1-0.4-1.5c-0.3-0.4-0.6-0.8-1-1
		c-0.4-0.3-0.9-0.4-1.3-0.4c-0.4,0-0.8,0.1-1,0.4c-0.3,0.3-0.4,0.6-0.4,1c0,0.3,0.2,0.7,0.5,1.1c0.4,0.4,0.5,0.8,0.5,1.1
		c0,0.4-0.2,1.5-0.5,3.4c-0.3,1.9-0.5,3.6-0.5,4.9c0,1.2,0.4,2.2,1.1,3c0.7,0.8,1.7,1.2,2.8,1.2c2,0,3.8-0.9,5.3-2.8
		c-0.1,1.1-0.2,2.1-0.2,3c-2.2,1.2-3.8,2.2-4.9,3.1c-1,0.9-1.6,2-1.6,3.1c0,0.9,0.3,1.6,1,2.3c0.7,0.6,1.6,0.9,2.7,0.9
		c0.7,0,1.3-0.1,1.9-0.4c0.6-0.2,1-0.6,1.4-1c0.4-0.4,0.7-0.9,1-1.4c0.3-0.5,0.5-1,0.7-1.6c0.2-0.6,0.3-1.1,0.4-1.6
		c0.1-0.5,0.2-1,0.2-1.5c0-0.2,0.1-0.4,0.1-0.6c1.7-1.1,3.1-2.6,4.2-4.3c1.2-1.7,2.2-3.7,3.1-6c0.1-0.2,0.1-0.3,0.1-0.5
		c0-0.4-0.1-0.7-0.4-0.9c-0.3-0.3-0.5-0.4-0.9-0.4c-0.5,0-0.9,0.3-1.2,1C114.2,49.5,112.6,52,110.9,53.8L110.9,53.8z M104.1,61.9
		c0-0.3,0.1-0.6,0.4-0.9c0.3-0.3,0.6-0.7,1.1-1c0.5-0.3,1-0.7,1.8-1.1c-0.3,2.6-1.1,3.8-2.3,3.8C104.5,62.7,104.1,62.4,104.1,61.9
		L104.1,61.9z"/>
	<path class="st0" d="M128.8,49.9c0.3-1,0.5-2.1,0.5-3.1c0-1.1-0.2-2.2-0.5-3.1c-0.3-0.9-0.9-1.7-1.7-2.3c-0.8-0.6-1.7-0.9-2.8-0.9
		c-1.5,0-2.7,0.5-3.6,1.5c-0.9,1-1.4,2.4-1.4,4.1c0,1.4,0.5,2.7,1.4,3.7c0.9,1.1,2.1,1.8,3.6,2.3c-0.7,0.7-1.4,1.1-2.2,1.1
		c-1,0-1.8-0.6-2.5-1.9c-0.6-1.3-1-3.3-1-6.2c0-2.2,0.2-4.3,0.6-6.1c0.2,0,0.5,0,0.8,0c1.5,0,2.9-0.2,4.1-0.5
		c1.2-0.3,2.1-0.8,2.8-1.4c0.7-0.6,1.2-1.2,1.6-2c0.4-0.7,0.5-1.5,0.5-2.3c0-1.2-0.4-2.3-1.2-3.1c-0.8-0.8-1.9-1.2-3.2-1.2
		c-1.7,0-3.2,0.7-4.6,2c-1.3,1.3-2.4,3.2-3.1,5.6c-0.4-0.1-0.7-0.2-0.8-0.2c-0.4,0-0.7,0.1-0.9,0.4c-0.2,0.2-0.4,0.5-0.4,0.9
		c0,0.2,0,0.4,0.1,0.6c0.1,0.2,0.2,0.3,0.4,0.5c0.2,0.2,0.4,0.3,0.7,0.3c0.1,0,0.2,0.1,0.3,0.1c-0.4,2-0.6,4.3-0.6,6.7
		c0,7,2.2,10.5,6.5,10.5c2.3,0,4.1-1.1,5.5-3.4c1.6-0.1,3-0.7,4.2-1.6c1.2-1,2.1-2.3,2.7-4c0.1-0.2,0.1-0.4,0.1-0.6
		c0-0.2-0.1-0.4-0.2-0.6c-0.1-0.2-0.3-0.3-0.4-0.4c-0.2-0.1-0.3-0.1-0.5-0.1c-0.6,0-1,0.3-1.3,1C131.3,48.2,130.2,49.4,128.8,49.9
		L128.8,49.9z M125.7,32c0.3,0.3,0.4,0.6,0.4,1.1c0,0.6-0.2,1.1-0.6,1.7c-0.4,0.5-1.1,1-2,1.4c-0.9,0.4-2,0.6-3.2,0.6
		c-0.2,0-0.4,0-0.6,0c0.4-1.1,0.8-2,1.3-2.8c0.5-0.8,1-1.3,1.6-1.7c0.6-0.4,1.2-0.6,1.8-0.6C125.1,31.6,125.5,31.7,125.7,32z
		 M122.5,44.2c0.4-0.6,0.9-0.8,1.6-0.8c0.7,0,1.2,0.3,1.6,0.9c0.4,0.6,0.6,1.4,0.6,2.3c0,1.2-0.2,2.3-0.6,3.5
		c-1.2-0.2-2.1-0.7-2.7-1.4c-0.6-0.7-1-1.5-1-2.4C121.9,45.4,122.1,44.7,122.5,44.2z"/>
	<path class="st0" d="M145.9,53.3c-1,0-1.5-1.3-1.5-4c0-0.8,0.1-2.3,0.3-4.3c0.2-2,0.3-3.1,0.3-3.3c0-0.5-0.1-0.9-0.4-1.2
		c-0.3-0.3-0.6-0.4-1-0.4c-0.7,0-1.2,0.4-1.5,1.2c-0.9-0.6-1.9-0.8-3-0.8c-1,0-1.9,0.2-2.8,0.7c-0.9,0.5-1.7,1.1-2.5,2
		c-0.7,0.8-1.3,1.8-1.7,3c-0.4,1.2-0.7,2.5-0.7,3.8c0,2,0.5,3.5,1.4,4.6c0.9,1.1,2.2,1.6,3.7,1.6c2,0,3.8-1.1,5.4-3.4
		c0.2,0.7,0.5,1.4,0.9,1.9c0.4,0.5,0.8,0.9,1.3,1.1c0.5,0.2,1,0.4,1.5,0.4c1.3,0,2.5-0.7,3.6-2.2c1.1-1.5,2.2-3.7,3.3-6.8
		c0.1-0.2,0.1-0.4,0.1-0.5c0-0.4-0.1-0.7-0.4-0.9c-0.3-0.3-0.5-0.4-0.8-0.4c-0.6,0-1,0.3-1.3,1C148.3,50.9,146.9,53.3,145.9,53.3
		L145.9,53.3z M135.1,52.3c-0.5-0.6-0.7-1.4-0.7-2.6c0-1.8,0.5-3.4,1.5-4.7c1-1.3,2.2-1.9,3.5-1.9c1.2,0,2,0.5,2.3,1.4
		c0,1.1-0.1,2.2-0.3,3.1c-0.4,1.9-1.1,3.3-2,4.2c-0.9,0.9-1.8,1.3-2.6,1.3C136.2,53.2,135.6,52.9,135.1,52.3z"/>
	<path class="st0" d="M162.5,53.1c-0.6,0-0.8-0.5-0.8-1.4c0-2.5,0.3-5.7,0.9-9.7c0.1-0.5,0-0.9-0.3-1.2c-0.3-0.3-0.6-0.4-1.1-0.4
		c-0.9,0-1.4,0.4-1.6,1.3c-0.3,1.7-0.5,3.3-0.7,4.9c-1.1,0-2.1,0-3.2,0c-0.8,0-1.7,0-2.5,0c0.1-1.4,0.2-3,0.3-4.7
		c0-0.5-0.1-0.9-0.4-1.1c-0.3-0.3-0.7-0.4-1.1-0.4c-0.4,0-0.8,0.1-1.1,0.4c-0.3,0.3-0.5,0.6-0.5,1.1c-0.3,4-0.6,8.2-0.7,12.7
		c0,0.5,0.1,0.9,0.4,1.1c0.3,0.3,0.7,0.4,1.1,0.4c0.3,0,0.5-0.1,0.7-0.2c0.2-0.1,0.4-0.3,0.6-0.5c0.2-0.2,0.2-0.5,0.2-0.8
		c0.1-1.7,0.1-3.4,0.2-5.3c0.9,0,1.8,0,2.7,0c1,0,2,0,3,0c0,0.6,0,1.2,0,1.7c0,1.6,0.3,2.8,1,3.6c0.7,0.8,1.5,1.2,2.7,1.2
		c0.6,0,1.1-0.1,1.6-0.4c0.5-0.3,1-0.6,1.4-1.1c0.4-0.4,0.8-1.1,1.3-1.9c0.4-0.8,0.8-1.6,1.2-2.4c0.3-0.8,0.8-1.8,1.3-3.1
		c0.1-0.2,0.1-0.4,0.1-0.5c0-0.4-0.1-0.7-0.4-0.9c-0.3-0.2-0.5-0.4-0.9-0.4c-0.6,0-1,0.3-1.2,1C164.8,50.8,163.4,53.1,162.5,53.1
		L162.5,53.1z"/>
	<path class="st0" d="M178.9,53.1c-0.6,0-0.8-0.5-0.8-1.4c0-2.5,0.3-5.7,0.9-9.7c0.1-0.5,0-0.9-0.3-1.2c-0.3-0.3-0.6-0.4-1.1-0.4
		c-0.9,0-1.4,0.4-1.6,1.3c-0.3,1.7-0.5,3.3-0.7,4.9c-1.1,0-2.1,0-3.2,0c-0.8,0-1.7,0-2.5,0c0.1-1.4,0.2-3,0.3-4.7
		c0-0.5-0.1-0.9-0.4-1.1c-0.3-0.3-0.7-0.4-1.1-0.4c-0.4,0-0.8,0.1-1.1,0.4c-0.3,0.3-0.5,0.6-0.5,1.1c-0.3,4-0.6,8.2-0.7,12.7
		c0,0.5,0.1,0.9,0.4,1.1c0.3,0.3,0.7,0.4,1.1,0.4c0.3,0,0.5-0.1,0.7-0.2c0.2-0.1,0.4-0.3,0.6-0.5c0.2-0.2,0.2-0.5,0.2-0.8
		c0.1-1.7,0.1-3.4,0.2-5.3c0.9,0,1.8,0,2.7,0c1,0,2,0,3,0c0,0.6,0,1.2,0,1.7c0,1.6,0.3,2.8,1,3.6c0.7,0.8,1.5,1.2,2.7,1.2
		c0.6,0,1.1-0.1,1.6-0.4c0.5-0.3,1-0.6,1.4-1.1c0.4-0.4,0.8-1.1,1.3-1.9c0.4-0.8,0.8-1.6,1.2-2.4c0.3-0.8,0.8-1.8,1.3-3.1
		c0.1-0.2,0.1-0.4,0.1-0.5c0-0.4-0.1-0.7-0.4-0.9c-0.3-0.2-0.5-0.4-0.9-0.4c-0.6,0-1,0.3-1.2,1C181.3,50.8,179.9,53.1,178.9,53.1
		L178.9,53.1z"/>
	<path class="st0" d="M200.1,50.9c-0.9,1.5-1.6,2.2-2.3,2.2c-0.7,0-1-0.5-1-1.4c0-1.7,0.2-3.7,0.6-6.1c0.4-2.4,0.6-3.7,0.6-4
		c0-0.4-0.1-0.8-0.4-1c-0.3-0.3-0.6-0.4-0.9-0.4c-0.8,0-1.3,0.4-1.6,1.2c-0.9-0.7-1.9-1.1-3.1-1.1c-0.9,0-1.8,0.2-2.5,0.6
		c-0.7,0.4-1.3,1-1.7,1.7c-0.4,0.7-0.6,1.6-0.6,2.5c0,1,0.3,1.9,0.8,2.7c0.5,0.8,1.3,1.3,2.2,1.7c-0.5,1.2-1.1,2.2-1.6,2.8
		c-0.5,0.6-1.1,1-1.8,1c-1.2,0-1.9-0.9-1.9-2.7c0-1,0.1-1.9,0.3-2.7c0.2-0.8,0.3-1.3,0.3-1.4c0-0.4-0.1-0.7-0.4-0.9
		c-0.2-0.2-0.5-0.4-0.9-0.4c-0.6,0-1.1,0.5-1.5,1.5c-0.4,1-0.5,2.3-0.5,3.8c0,1.7,0.4,3.1,1.3,4c0.8,1,1.9,1.4,3.2,1.4
		c1.3,0,2.5-0.5,3.5-1.6c1-1,1.9-2.6,2.7-4.7c0.4,0,0.8-0.1,1.1-0.2c0,0.7,0,1.2,0,1.5c0,1,0.2,1.9,0.5,2.6c0.3,0.7,0.7,1.2,1.2,1.6
		c0.5,0.3,1,0.5,1.7,0.5c2.6,0,5.1-2.9,7.4-8.8c0.1-0.2,0.1-0.4,0.1-0.5c0-0.4-0.1-0.7-0.4-0.9c-0.3-0.3-0.5-0.4-0.8-0.4
		c-0.6,0-1,0.3-1.3,1C201.7,47.9,201,49.4,200.1,50.9z M190.6,46.8c-0.5-0.4-0.7-1-0.7-1.7c0-0.7,0.2-1.2,0.7-1.7
		c0.5-0.5,1.1-0.7,1.8-0.7c0.6,0,1.1,0.2,1.5,0.5c0.4,0.3,0.7,0.8,0.7,1.3c-0.1,0.4-0.1,0.9-0.2,1.4c-0.3,1-1,1.5-2,1.5
		C191.7,47.5,191.1,47.3,190.6,46.8z"/>
</g>
</svg>
