<?xml version="1.0" encoding="utf-8"?>
<!-- Generator: Adobe Illustrator 24.0.3, SVG Export Plug-In . SVG Version: 6.00 Build 0)  -->
<svg version="1.1" id="Слой_1" xmlns="http://www.w3.org/2000/svg" xmlns:xlink="http://www.w3.org/1999/xlink" x="0px" y="0px"
	 viewBox="0 0 94.2 96.8" style="enable-background:new 0 0 94.2 96.8;" xml:space="preserve">
<style type="text/css">
	.st0{fill:#FFFFFF;}
</style>
<g>
	<path class="st0" d="M4,96.7h2.6V59.1h4.5H17c0.9,0,1.7,0,2.4,0.1c0.7,0.1,1.7,0.3,2.9,0.5l-0.2-1.7l0.2-1.7H1.4v40.3H4z"/>
	<path class="st0" d="M46.8,78.8c-2.7-3.5-5.5-7.4-8.4-11.7c-2.4-3.5-4.6-7.1-6.8-10.7l-3.2,0.2l-3.7-0.2c0.8,1,2.9,3.9,6.3,8.8
		c2.7,3.9,5.7,8.2,8.9,12.9c1.5,2.2,3,4.4,4.5,6.6c-0.9,1.7-1.7,3.1-2.3,4.1c-2,3.5-3.6,6.2-4.7,8l2.7-0.2l1.8,0.2
		c0.9-1.9,2.9-6.1,6.1-12.5c2.3-4.6,5.3-10.4,8.9-17.3c3.1-6.1,5-9.6,5.6-10.6l-2.1,0.2l-2-0.2c-0.7,1.7-2.1,4.8-4.4,9.3
		c-1.8,3.8-4,8.2-6.5,13.2H46.8z"/>
	<path class="st0" d="M88.6,59.4c2.2,0.2,4.1,0.3,5.5,0.5L94,58.1l0.2-1.8H63.7l0.2,1.8l-0.2,1.8c2.9-0.3,5.1-0.5,6.4-0.6
		c1.3-0.1,3.5-0.1,6.5-0.1v37.5l2.6-0.2l2.6,0.2V59.2C84.2,59.2,86.4,59.3,88.6,59.4z"/>
	<path class="st0" d="M27.9,18.5c-0.3,0-0.6-0.2-0.7-0.6c-0.2-0.4-0.2-1.1-0.2-2.2c0-1,0.1-2.8,0.3-5.3c0.7,0.1,1.1,0.1,1.2,0.1
		c0.3,0,0.5-0.1,0.7-0.2c0.2-0.1,0.3-0.2,0.4-0.4c0.1-0.2,0.1-0.3,0.1-0.5c0-0.1,0-0.2-0.1-0.3c0-0.1-0.1-0.2-0.2-0.3
		S29.2,8.6,29,8.5c-0.1-0.1-0.3-0.1-0.5-0.1c-0.4-0.1-0.7-0.1-1.1-0.1c0.1-0.9,0.2-1.9,0.3-3.1C27.8,3.9,27.9,3,28,2.3
		c0.1-0.6,0.1-1,0.1-1.1c0-0.4-0.1-0.7-0.4-0.9C27.5,0.1,27.2,0,26.9,0c-0.2,0-0.3,0-0.4,0.1c-0.1,0-0.3,0.1-0.4,0.2
		c-0.1,0.1-0.2,0.2-0.3,0.4c-0.1,0.2-0.1,0.3-0.1,0.5c0,0.5-0.3,2.8-0.6,7c-0.1,0-0.2,0-0.3,0c-1.5,0-3,0.1-4.4,0.4
		c0.1-1.1,0.1-2.2,0.1-3.2c0-1.7-0.3-3-0.8-3.8c-0.5-0.8-1.4-1.2-2.5-1.2c-0.7,0-1.3,0.2-2,0.6s-1.2,0.8-1.6,1.4
		c-0.4,0.5-0.6,1-0.6,1.5c0,0.3,0.1,0.5,0.2,0.6c0.2,0.2,0.4,0.2,0.6,0.2c0.2,0,0.5-0.1,0.7-0.3c0.2-0.2,0.4-0.5,0.6-0.7
		c0.2-0.3,0.4-0.5,0.7-0.7c0.3-0.2,0.6-0.3,0.9-0.3c0.4,0,0.7,0.2,1,0.6C17.9,3.4,18,4.1,18,5.2c0,1.3-0.1,2.6-0.2,4
		c-2.1,0.8-3.7,1.9-4.8,3.4c-1.1,1.4-1.7,3-1.7,4.6c0,1.1,0.3,2,0.9,2.6c0.6,0.7,1.4,1,2.4,1c0.8,0,1.5-0.3,2.1-0.8
		c0.6-0.6,1.2-1.3,1.6-2.3c0.4-1,0.8-2,1.1-3.2c0.3-1.1,0.5-2.4,0.7-3.7c1.4-0.4,3-0.6,4.7-0.6c-0.2,2.6-0.3,4.5-0.3,5.5
		c0,1.6,0.3,2.9,0.9,3.7s1.4,1.2,2.3,1.2c0.5,0,0.9-0.1,1.3-0.3c0.4-0.2,0.8-0.5,1.1-0.8c0.3-0.3,0.6-0.8,1-1.4
		c0.3-0.6,0.6-1.2,0.9-1.8c0.3-0.6,0.6-1.4,1-2.3c0.1-0.2,0.1-0.3,0.1-0.4c0-0.3-0.1-0.5-0.3-0.7c-0.2-0.2-0.4-0.3-0.7-0.3
		c-0.4,0-0.7,0.3-1,0.8C29.9,16.8,28.8,18.5,27.9,18.5L27.9,18.5z M13.9,18.3c-0.2-0.3-0.3-0.7-0.3-1.2c0-1,0.3-2,1-2.9
		c0.7-1,1.6-1.8,2.9-2.4c-0.3,2.1-0.7,3.7-1.2,5c-0.5,1.3-1,1.9-1.6,1.9C14.4,18.7,14.1,18.6,13.9,18.3z"/>
	<path class="st0" d="M36.5,18.8c-1,0-1.7-0.3-2.3-0.8c-0.6-0.5-0.9-1.3-1-2.4c0.8,0.3,1.6,0.5,2.5,0.5c1.2,0,2.2-0.4,3-1.1
		c0.8-0.8,1.2-1.7,1.2-2.7c0-1-0.3-1.8-1-2.5c-0.7-0.7-1.6-1-2.7-1c-1.5,0-2.8,0.6-3.8,1.8c-1,1.2-1.6,2.7-1.6,4.6
		c0,1.8,0.5,3.2,1.5,4.2c1,1,2.3,1.6,3.9,1.6c1.6,0,3-0.6,4.2-1.7c1.2-1.1,2.3-2.9,3.1-5.2c0.1-0.1,0.1-0.3,0.1-0.4
		c0-0.3-0.1-0.5-0.3-0.7c-0.2-0.2-0.4-0.3-0.6-0.3c-0.4,0-0.7,0.3-1,0.8C40.4,17,38.6,18.8,36.5,18.8L36.5,18.8z M37.4,11.3
		c0.3,0.3,0.4,0.6,0.4,1.1c0,0.5-0.2,1-0.6,1.3c-0.4,0.3-0.9,0.5-1.5,0.5c-0.8,0-1.6-0.2-2.3-0.5c0.1-0.6,0.4-1.1,0.7-1.5
		c0.3-0.4,0.6-0.8,1-1c0.4-0.2,0.8-0.3,1.3-0.3C36.8,10.9,37.2,11,37.4,11.3z"/>
	<path class="st0" d="M53.6,17.4c-0.5,0.9-0.9,1.3-1.3,1.3c-0.3,0-0.6-0.2-0.9-0.7c-0.3-0.5-0.7-1.3-1.2-2.3c0-0.1-0.1-0.2-0.1-0.2
		c0.8-1.2,1.7-2.6,2.6-4.3c0.2-0.3,0.2-0.6,0.2-0.9c0-0.3-0.1-0.6-0.3-0.8c-0.2-0.2-0.4-0.3-0.7-0.3c-0.5,0-0.9,0.3-1.3,1
		c-0.4,0.9-1,1.8-1.6,2.8c-0.2-0.4-0.3-0.9-0.5-1.3C47.9,9.9,46.9,9,45.5,9c-0.7,0-1.3,0.2-1.7,0.6c-0.5,0.4-0.9,1.1-1.2,2
		c-0.1,0.3-0.3,0.8-0.7,1.8c-0.1,0.2-0.1,0.3-0.1,0.5c0,0.3,0.1,0.5,0.3,0.6c0.2,0.2,0.4,0.2,0.6,0.2c0.5,0,0.8-0.2,1-0.7
		c0.2-0.4,0.4-1,0.7-1.7c0.2-0.4,0.4-0.8,0.5-0.9c0.1-0.2,0.3-0.3,0.5-0.3c0.3,0,0.6,0.2,0.8,0.6c0.2,0.4,0.6,1.3,1.1,2.6
		c0.1,0.3,0.2,0.5,0.3,0.8c-1,1.4-2.1,2.6-3.2,3.9c-0.3,0.3-0.5,0.7-0.5,1c0,0.3,0.1,0.5,0.3,0.7c0.2,0.2,0.4,0.3,0.7,0.3
		c0.4,0,0.8-0.3,1.3-0.8c0.9-1,1.6-1.9,2.4-2.8c0.1,0.2,0.2,0.4,0.2,0.6c0.5,1,1,1.8,1.6,2.3c0.5,0.5,1.2,0.7,1.9,0.7
		c0.4,0,0.9-0.1,1.2-0.3c0.4-0.2,0.7-0.5,1-0.8c0.3-0.3,0.6-0.8,1-1.4c0.3-0.7,0.6-1.3,0.9-1.9c0.3-0.6,0.6-1.4,1-2.5
		c0.1-0.2,0.1-0.3,0.1-0.4c0-0.3-0.1-0.5-0.3-0.7c-0.2-0.2-0.4-0.3-0.7-0.3c-0.4,0-0.8,0.3-1,0.8C54.7,15.2,54.1,16.6,53.6,17.4z"/>
	<path class="st0" d="M66,18.7c-0.8,0-1.2-1-1.2-3c0-0.6,0.1-1.7,0.2-3.3c0.2-1.5,0.2-2.4,0.2-2.5c0-0.4-0.1-0.7-0.3-0.9
		c-0.2-0.2-0.4-0.3-0.7-0.3c-0.6,0-0.9,0.3-1.2,0.9c-0.7-0.4-1.5-0.6-2.3-0.6c-0.7,0-1.5,0.2-2.2,0.6c-0.7,0.4-1.3,0.9-1.9,1.5
		c-0.6,0.6-1,1.4-1.3,2.3c-0.3,0.9-0.5,1.9-0.5,2.9c0,1.5,0.4,2.7,1.1,3.5c0.7,0.8,1.7,1.2,2.9,1.2c1.6,0,2.9-0.9,4.1-2.6
		c0.2,0.6,0.4,1,0.7,1.4c0.3,0.4,0.6,0.7,1,0.9c0.4,0.2,0.8,0.3,1.2,0.3c1,0,1.9-0.6,2.7-1.7c0.8-1.1,1.7-2.9,2.5-5.2
		c0.1-0.1,0.1-0.3,0.1-0.4c0-0.3-0.1-0.5-0.3-0.7c-0.2-0.2-0.4-0.3-0.6-0.3c-0.4,0-0.7,0.3-1,0.8C67.8,16.9,66.7,18.7,66,18.7
		L66,18.7z M57.7,18c-0.3-0.4-0.5-1.1-0.5-2c0-1.4,0.4-2.6,1.2-3.6c0.8-1,1.7-1.5,2.7-1.5c0.9,0,1.5,0.4,1.8,1.1
		c0,0.9-0.1,1.7-0.2,2.4c-0.3,1.5-0.8,2.5-1.5,3.2c-0.7,0.7-1.3,1-2,1C58.6,18.7,58.1,18.5,57.7,18z"/>
	<path class="st0" d="M77.5,5.8c0.2-0.3,0.3-0.6,0.3-0.9s-0.1-0.5-0.3-0.7c-0.2-0.2-0.4-0.3-0.7-0.3c-0.3,0-0.7,0.2-1,0.5
		c-0.3,0.3-0.5,0.5-0.7,0.7c-0.2,0.1-0.3,0.3-0.5,0.3c-0.2,0.1-0.3,0.1-0.5,0.1c-0.4,0-0.9-0.4-1.4-1.1c-0.2-0.3-0.5-0.5-0.9-0.5
		c-0.3,0-0.5,0.1-0.8,0.3C71.1,4.4,71,4.6,71,4.9c0,0.2,0.1,0.4,0.2,0.6c0.8,1.3,1.8,1.9,3.1,1.9C75.4,7.5,76.5,6.9,77.5,5.8
		L77.5,5.8z M80.7,17c-0.6,1.1-1.1,1.6-1.5,1.6c-0.2,0-0.3-0.1-0.4-0.2c-0.1-0.1-0.2-0.4-0.3-0.9c-0.1-0.5-0.1-1.1-0.1-2
		c0-0.4,0-1,0.1-1.5c0-0.6,0.1-1.1,0.1-1.5c0-0.4,0.1-0.9,0.2-1.4c0.1-0.5,0.1-0.9,0.1-1c0-0.4-0.1-0.7-0.3-0.9
		c-0.2-0.2-0.5-0.3-0.8-0.3c-0.2,0-0.4,0-0.5,0.1C77,9,76.8,9.1,76.7,9.3c-0.1,0.2-0.2,0.4-0.2,0.6c-0.2,1.3-0.3,2.3-0.3,3.1
		c-0.2,2-0.7,3.4-1.4,4.3c-0.7,0.9-1.5,1.3-2.3,1.3c-0.8,0-1.2-0.6-1.2-1.7c0-0.5,0.1-1.5,0.3-3s0.3-2.6,0.3-3.3
		c0-0.4-0.1-0.8-0.3-1.1c-0.2-0.3-0.4-0.6-0.8-0.8c-0.3-0.2-0.7-0.3-1-0.3c-0.3,0-0.6,0.1-0.8,0.3c-0.2,0.2-0.3,0.5-0.3,0.8
		c0,0.3,0.1,0.5,0.4,0.8c0.3,0.3,0.4,0.6,0.4,0.9c0,0.2-0.1,1.1-0.3,2.5c-0.2,1.5-0.3,2.8-0.3,3.8c0,0.9,0.3,1.7,0.9,2.3
		c0.6,0.6,1.4,0.9,2.4,0.9c1.7,0,3.1-0.9,4.3-2.7c0.4,1.8,1.3,2.7,2.6,2.7c0.6,0,1.1-0.2,1.6-0.5c0.5-0.4,1-0.9,1.4-1.6
		c0.4-0.7,0.8-1.4,1.1-2.1c0.3-0.7,0.7-1.6,1-2.5c0.1-0.1,0.1-0.3,0.1-0.4c0-0.3-0.1-0.5-0.3-0.7c-0.2-0.2-0.4-0.3-0.7-0.3
		c-0.4,0-0.7,0.3-0.9,0.8C81.8,14.7,81.3,15.9,80.7,17z"/>
	<path class="st0" d="M10.8,39.2c0.2-0.8,0.3-1.6,0.3-2.4c0-0.9-0.1-1.7-0.4-2.3c-0.3-0.7-0.7-1.3-1.3-1.7C8.8,32.2,8.1,32,7.2,32
		c-1.1,0-2,0.4-2.7,1.2C3.8,34,3.5,35,3.5,36.3c0,1.1,0.3,2,1,2.9C5.2,40,6.1,40.6,7.2,41c-0.5,0.5-1.1,0.8-1.7,0.8
		c-0.8,0-1.4-0.5-1.9-1.4c-0.5-1-0.7-2.5-0.7-4.7c0-1.7,0.1-3.3,0.4-4.7c0.2,0,0.4,0,0.6,0c1.2,0,2.2-0.1,3.1-0.4
		c0.9-0.3,1.6-0.6,2.2-1.1c0.5-0.4,0.9-0.9,1.2-1.5c0.3-0.6,0.4-1.1,0.4-1.8c0-0.9-0.3-1.7-0.9-2.3C9.4,23.3,8.6,23,7.5,23
		c-1.3,0-2.5,0.5-3.5,1.5c-1,1-1.8,2.4-2.4,4.3c-0.3-0.1-0.5-0.1-0.6-0.1c-0.3,0-0.5,0.1-0.7,0.3C0.1,29.1,0,29.3,0,29.6
		c0,0.2,0,0.3,0.1,0.4c0.1,0.1,0.2,0.3,0.3,0.4c0.1,0.1,0.3,0.2,0.5,0.3c0.1,0,0.1,0,0.2,0.1c-0.3,1.6-0.5,3.3-0.5,5.2
		c0,5.3,1.7,8,5,8c1.7,0,3.2-0.9,4.2-2.6c1.2-0.1,2.3-0.5,3.2-1.2c0.9-0.7,1.6-1.8,2-3.1c0.1-0.2,0.1-0.3,0.1-0.5
		c0-0.2,0-0.3-0.1-0.5s-0.2-0.3-0.3-0.3c-0.1-0.1-0.3-0.1-0.4-0.1c-0.5,0-0.8,0.3-1,0.8C12.6,37.8,11.8,38.8,10.8,39.2L10.8,39.2z
		 M8.4,25.4c0.2,0.2,0.3,0.5,0.3,0.8c0,0.4-0.2,0.9-0.5,1.3c-0.3,0.4-0.8,0.8-1.5,1C6.1,28.9,5.2,29,4.3,29c-0.2,0-0.3,0-0.4,0
		c0.3-0.8,0.6-1.5,1-2.1c0.4-0.6,0.8-1,1.2-1.3c0.5-0.3,0.9-0.5,1.4-0.5C7.9,25.1,8.2,25.2,8.4,25.4z M6,34.7
		c0.3-0.4,0.7-0.6,1.2-0.6c0.5,0,0.9,0.2,1.2,0.7c0.3,0.5,0.4,1.1,0.4,1.8c0,0.9-0.2,1.8-0.5,2.7c-0.9-0.2-1.6-0.5-2.1-1.1
		c-0.5-0.5-0.7-1.1-0.7-1.8C5.5,35.7,5.6,35.2,6,34.7z"/>
	<path class="st0" d="M22.6,42.3c1.3-1.1,2.4-2.9,3.4-5.3c0.1-0.1,0.1-0.3,0.1-0.4c0-0.1,0-0.3-0.1-0.4s-0.1-0.2-0.2-0.3
		c-0.1-0.1-0.2-0.2-0.3-0.2c-0.1,0-0.2-0.1-0.4-0.1c-0.4,0-0.7,0.3-0.9,0.8c-0.8,1.9-1.7,3.3-2.6,4.1c-1,0.9-2,1.3-3.1,1.3
		c-0.6,0-1.2-0.1-1.6-0.4c-0.5-0.3-0.8-0.7-1.1-1.2c-0.3-0.5-0.4-1.2-0.4-1.9c0-1.4,0.3-2.4,0.9-3.2c0.6-0.8,1.3-1.2,2.1-1.2
		c0.4,0,0.7,0.1,0.9,0.3c0.2,0.2,0.3,0.5,0.3,0.9c0,0.8,0.4,1.2,1.1,1.2c0.8,0,1.1-0.5,1.1-1.6c0-0.5-0.1-1-0.4-1.5
		c-0.3-0.4-0.7-0.8-1.2-1.1c-0.5-0.3-1.2-0.4-1.9-0.4c-0.9,0-1.8,0.3-2.6,0.8c-0.8,0.5-1.5,1.3-2,2.3c-0.5,1-0.8,2.2-0.8,3.4
		c0,1.7,0.5,3.1,1.5,4.1c1,1,2.3,1.5,3.9,1.5C19.9,43.9,21.3,43.4,22.6,42.3z"/>
	<path class="st0" d="M29.5,41.8c-1,0-1.7-0.3-2.3-0.8c-0.6-0.5-0.9-1.3-1-2.4c0.8,0.3,1.6,0.5,2.5,0.5c1.2,0,2.2-0.4,3-1.1
		c0.8-0.8,1.2-1.7,1.2-2.7c0-1-0.3-1.8-1-2.5c-0.7-0.7-1.6-1-2.7-1c-1.5,0-2.8,0.6-3.8,1.8c-1,1.2-1.6,2.7-1.6,4.6
		c0,1.8,0.5,3.2,1.5,4.2c1,1,2.3,1.6,3.9,1.6c1.6,0,3-0.6,4.2-1.7c1.2-1.1,2.3-2.9,3.1-5.2c0.1-0.1,0.1-0.3,0.1-0.4
		c0-0.3-0.1-0.5-0.3-0.7c-0.2-0.2-0.4-0.3-0.6-0.3c-0.4,0-0.7,0.3-1,0.8C33.4,40,31.6,41.8,29.5,41.8L29.5,41.8z M30.4,34.3
		c0.3,0.3,0.4,0.6,0.4,1.1c0,0.5-0.2,1-0.6,1.3s-0.9,0.5-1.5,0.5c-0.8,0-1.6-0.2-2.3-0.5c0.1-0.6,0.4-1.1,0.7-1.5
		c0.3-0.4,0.6-0.8,1-1c0.4-0.2,0.8-0.3,1.3-0.3C29.8,33.9,30.2,34,30.4,34.3z"/>
	<path class="st0" d="M50.5,40.8c0.4-0.8,0.7-1.6,1-2.6c0.2-0.7,0.3-1.5,0.3-2.4c0-1.1-0.2-2.2-0.5-3.2c-0.3-1.1-0.7-1.9-1.1-2.6
		c-0.4-0.6-0.8-1.3-1.1-2c-0.3-0.7-0.5-1.2-0.5-1.6c0-0.3,0.1-0.5,0.3-0.7c0.2-0.2,0.5-0.3,0.8-0.3c0.2,0,0.4,0,0.8,0.1
		c0.3,0,0.6,0.1,0.8,0.1c0.5,0,0.9-0.1,1.3-0.2c0.3-0.1,0.6-0.3,0.7-0.5c0.1-0.2,0.2-0.4,0.2-0.7c0-0.3-0.1-0.5-0.3-0.6
		c-0.2-0.2-0.5-0.2-0.8-0.2c-0.1,0-0.3,0-0.7,0.1c-0.3,0.1-0.7,0.1-1,0.1c-0.4,0-0.8,0-1.2-0.1c-0.4,0-0.6-0.1-0.8-0.1
		c-0.7,0-1.2,0.3-1.7,0.8c-0.5,0.5-0.7,1.2-0.7,2.1c0,0.5,0.1,0.9,0.2,1.3c0.1,0.4,0.3,0.8,0.5,1.2c0.2,0.4,0.4,0.7,0.6,1
		c0.2,0.3,0.4,0.7,0.7,1.1c0.3,0.4,0.5,0.8,0.7,1.2c-0.5-0.2-1-0.3-1.6-0.3c-1.4,0-2.7,0.7-3.8,2c-1.2,1.3-1.7,2.9-1.7,4.9
		c0,1.6,0.4,2.9,1.2,3.8c0.8,0.9,1.9,1.3,3.2,1.3c0.9,0,1.9-0.1,2.9-0.4c1-0.2,1.9-0.6,2.9-1.1c1-0.5,1.8-1.2,2.7-2.1
		c0.8-0.9,1.5-2,1.9-3.2c0.1-0.1,0.1-0.3,0.1-0.4c0-0.3-0.1-0.5-0.3-0.7c-0.2-0.2-0.4-0.3-0.6-0.3c-0.4,0-0.8,0.3-1,0.8
		C53.8,38.3,52.4,39.8,50.5,40.8L50.5,40.8z M45,35.3c0.7-0.9,1.5-1.4,2.3-1.4c1.5,0,2.2,0.9,2.2,2.7c0,1.2-0.4,2.3-1.1,3.4
		c-0.7,1.1-1.5,1.6-2.4,1.6c-0.6,0-1.2-0.2-1.5-0.7c-0.4-0.5-0.6-1.2-0.6-2.1C43.9,37.4,44.2,36.3,45,35.3z"/>
	<path class="st0" d="M63.5,42.1c0-0.1,0-0.3,0-0.6c0.1-0.7,0.1-1.6,0.2-2.6c0.1-1,0.1-2,0.2-3.1c0.1-1.1,0.2-2,0.2-2.8
		c0-0.4-0.1-0.7-0.3-0.9c-0.2-0.2-0.5-0.3-0.8-0.3c-0.3,0-0.6,0.1-0.8,0.3c-0.2,0.2-0.4,0.5-0.4,0.8c-0.1,0.9-0.2,1.9-0.2,3
		c-0.2,1.1-0.4,2-0.7,2.8c-0.3,0.8-0.7,1.4-1,1.8c-0.4,0.4-0.8,0.7-1.1,0.9c-0.4,0.2-0.7,0.3-1.1,0.3c-0.4,0-0.8-0.1-1-0.4
		c-0.2-0.3-0.3-0.7-0.3-1.3c0-0.5,0.1-1.5,0.4-3c0.2-1.5,0.4-2.6,0.4-3.3c0-0.4-0.1-0.8-0.3-1.1c-0.2-0.3-0.4-0.6-0.8-0.8
		c-0.3-0.2-0.7-0.3-1-0.3c-0.3,0-0.6,0.1-0.8,0.3c-0.2,0.2-0.3,0.5-0.3,0.8c0,0.3,0.1,0.5,0.4,0.8c0.3,0.3,0.4,0.6,0.4,0.9
		c0,0.3-0.1,1.1-0.3,2.6c-0.2,1.5-0.3,2.7-0.3,3.8c0,0.9,0.3,1.7,0.9,2.3c0.6,0.6,1.3,0.9,2.2,0.9c1.6,0,2.9-0.7,4.1-2.1
		c-0.1,0.8-0.1,1.6-0.2,2.3c-1.7,0.9-2.9,1.7-3.7,2.4c-0.8,0.7-1.2,1.5-1.2,2.3c0,0.7,0.3,1.3,0.8,1.7c0.5,0.5,1.2,0.7,2.1,0.7
		c0.5,0,1-0.1,1.5-0.3c0.4-0.2,0.8-0.4,1.1-0.8c0.3-0.3,0.5-0.7,0.8-1.1c0.2-0.4,0.4-0.8,0.5-1.3c0.1-0.5,0.2-0.9,0.3-1.2
		c0.1-0.4,0.1-0.7,0.2-1.1c0-0.1,0-0.3,0.1-0.5c1.3-0.9,2.4-2,3.2-3.3c0.9-1.3,1.7-2.8,2.4-4.6c0.1-0.1,0.1-0.2,0.1-0.4
		c0-0.3-0.1-0.5-0.3-0.7c-0.2-0.2-0.4-0.3-0.7-0.3c-0.4,0-0.7,0.3-0.9,0.8C66,38.9,64.8,40.8,63.5,42.1L63.5,42.1z M58.3,48.3
		c0-0.2,0.1-0.4,0.3-0.7c0.2-0.3,0.5-0.5,0.8-0.8c0.3-0.3,0.8-0.5,1.4-0.8c-0.3,2-0.8,2.9-1.7,2.9C58.6,48.9,58.3,48.7,58.3,48.3
		L58.3,48.3z"/>
	<path class="st0" d="M78.4,39.5c-0.6,1.1-1.3,1.9-2,2.6c0.3-4.2,0.5-6.6,0.5-7.1c0-1-0.4-1.7-1.3-2.3c-0.9-0.6-1.9-0.9-3-0.9h0
		c-1.6,0-3,0.7-4.1,2c-1.2,1.3-1.7,3-1.7,5c0,1.4,0.4,2.5,1.2,3.3c0.8,0.8,1.7,1.3,2.8,1.3c1.3,0,2.4-0.6,3.5-1.8
		c0,0.8,0,1.5-0.1,2.1c-0.3,0.2-0.7,0.4-1.2,0.7c-0.5,0.3-0.9,0.5-1.2,0.7c-0.3,0.2-0.6,0.4-1,0.7c-0.4,0.3-0.6,0.5-0.8,0.8
		c-0.2,0.3-0.4,0.6-0.5,0.9c-0.1,0.3-0.2,0.7-0.2,1.1c0,0.7,0.2,1.3,0.7,1.8c0.5,0.5,1.1,0.7,1.9,0.7c1.1,0,2.1-0.5,2.9-1.6
		c0.8-1,1.3-2.4,1.4-4.1l0.1-0.6c2.1-1.5,4-4.1,5.5-7.9c0.1-0.1,0.1-0.3,0.1-0.4c0-0.3-0.1-0.5-0.3-0.7c-0.2-0.2-0.4-0.3-0.7-0.3
		c-0.4,0-0.7,0.3-0.9,0.8C79.5,37.4,79,38.4,78.4,39.5z M69.4,40.7c-0.4-0.4-0.5-1.1-0.5-1.9c0-0.9,0.2-1.8,0.6-2.5
		c0.4-0.7,0.8-1.3,1.4-1.7c0.6-0.4,1.2-0.6,1.9-0.6c0.5,0,0.9,0.1,1.2,0.3c0.3,0.2,0.5,0.5,0.6,0.9c0,0.6,0,1.3-0.2,2.1
		c-0.7,2.6-1.9,3.9-3.4,3.9C70.3,41.3,69.8,41.1,69.4,40.7z M71.5,48.8c-0.1-0.1-0.2-0.3-0.2-0.4c0-0.4,0.2-0.8,0.6-1.1
		c0.4-0.4,1-0.8,1.8-1.2c-0.2,1.2-0.4,2-0.7,2.4c-0.3,0.4-0.6,0.6-1,0.6C71.8,49,71.6,48.9,71.5,48.8z"/>
	<path class="st0" d="M85.2,41.8c-1,0-1.7-0.3-2.3-0.8c-0.6-0.5-0.9-1.3-1-2.4c0.8,0.3,1.6,0.5,2.5,0.5c1.2,0,2.2-0.4,3-1.1
		c0.8-0.8,1.2-1.7,1.2-2.7c0-1-0.3-1.8-1-2.5c-0.7-0.7-1.6-1-2.7-1c-1.5,0-2.8,0.6-3.8,1.8c-1,1.2-1.6,2.7-1.6,4.6
		c0,1.8,0.5,3.2,1.5,4.2c1,1,2.3,1.6,3.9,1.6c1.6,0,3-0.6,4.2-1.7c1.2-1.1,2.3-2.9,3.1-5.2c0.1-0.1,0.1-0.3,0.1-0.4
		c0-0.3-0.1-0.5-0.3-0.7c-0.2-0.2-0.4-0.3-0.6-0.3c-0.4,0-0.7,0.3-1,0.8C89.1,40,87.3,41.8,85.2,41.8L85.2,41.8z M86.1,34.3
		c0.3,0.3,0.4,0.6,0.4,1.1c0,0.5-0.2,1-0.6,1.3c-0.4,0.3-0.9,0.5-1.5,0.5c-0.8,0-1.6-0.2-2.3-0.5c0.1-0.6,0.4-1.1,0.7-1.5
		c0.3-0.4,0.6-0.8,1-1c0.4-0.2,0.8-0.3,1.3-0.3C85.5,33.9,85.9,34,86.1,34.3z"/>
</g>
</svg>
