<?xml version="1.0" encoding="utf-8"?>
<!-- Generator: Adobe Illustrator 24.1.3, SVG Export Plug-In . SVG Version: 6.00 Build 0)  -->
<svg version="1.1" id="Слой_1" xmlns="http://www.w3.org/2000/svg" xmlns:xlink="http://www.w3.org/1999/xlink" x="0px" y="0px"
	 viewBox="0 0 244.3 66.6" style="enable-background:new 0 0 244.3 66.6;" xml:space="preserve">
<style type="text/css">
	.st0{fill:#FFFFFF;}
</style>
<g>
	<path class="st0" d="M26.9,23.4h8c2.4,0,4.3-0.5,5.8-1.6c1.4-1.1,2.1-2.6,2.1-4.6c0-1.4-0.3-2.5-0.9-3.3c-0.6-0.8-1.6-1.4-2.9-1.7
		v-0.1c1-0.2,1.8-0.7,2.4-1.5c0.6-0.8,0.9-1.9,0.9-3.1c0-1.9-0.7-3.3-2.1-4.1C38.8,2.4,36.6,2,33.6,2h-6.7V23.4z M31.4,5.7h2.4
		c1.3,0,2.3,0.2,2.9,0.5c0.6,0.4,0.9,0.9,0.9,1.8c0,0.9-0.3,1.5-0.8,1.9c-0.6,0.4-1.4,0.6-2.7,0.6h-2.6V5.7z M34.3,14.1
		c2.5,0,3.8,0.9,3.8,2.7c0,1-0.3,1.7-0.9,2.2c-0.6,0.5-1.5,0.7-2.8,0.7h-3v-5.6H34.3z"/>
	<path class="st0" d="M46.7,7v16.4h5.4L59.6,12c-0.2,2.1-0.3,3.8-0.3,4.9v6.5h4.3V7h-5.4l-7.6,11.5c0.2-2.7,0.3-4.3,0.3-5V7H46.7z"
		/>
	<path class="st0" d="M89,7h-6.1c-1.7,4.2-2.7,6.6-2.9,7.2c-0.2,0.5-0.4,1.1-0.6,1.8c-0.2,0.6-0.4,1.7-0.8,3.2
		c-0.1-0.7-0.3-1.5-0.5-2.5c-0.2-1-0.5-1.8-0.8-2.6l-2.8-7h-6.2v16.4h4.2V10.5l0.3,1c0.5,1.9,0.9,3.5,1.3,4.5l2.9,7.4h3.2l2.9-7.3
		c0.4-1.1,0.9-2.6,1.4-4.7l0.2-0.9v12.9H89V7z"/>
	<path class="st0" d="M97.9,23.3l-0.3,0.8c-0.3,1-0.8,1.7-1.4,2.2C95.6,26.8,95,27,94.2,27c-0.6,0-1.2-0.1-1.8-0.2v3.5
		c0.7,0.2,1.5,0.2,2.3,0.2c1.6,0,3-0.4,4.1-1.3c1.2-0.8,2.1-2.1,2.7-3.8L108.5,7h-4.8l-3,9.2c-0.3,0.9-0.5,1.8-0.6,2.8h-0.1
		c-0.1-1.1-0.3-2-0.5-2.8L96.3,7h-4.9L97.9,23.3z"/>
	<path class="st0" d="M135.2,7h-4.5v13h-5.5V7h-4.5v13h-5.5V7h-4.5v16.4h24.4V7z"/>
	<path class="st0" d="M149,10.8c0.6,0.6,0.8,1.5,0.9,2.6h-6.3c0.1-1.1,0.4-2,0.9-2.6c0.5-0.6,1.3-0.9,2.2-0.9
		C147.7,9.9,148.4,10.2,149,10.8z M150.6,23.4c0.9-0.2,1.7-0.5,2.5-0.9v-3.5c-1,0.4-1.9,0.8-2.8,1c-0.9,0.2-1.8,0.3-2.8,0.3
		c-1.3,0-2.3-0.4-3-1.1c-0.7-0.7-1.1-1.7-1.1-3H154v-2.2c0-2.3-0.6-4.1-1.9-5.5c-1.3-1.3-3.1-2-5.4-2c-2.4,0-4.3,0.7-5.7,2.2
		c-1.4,1.5-2.1,3.6-2.1,6.4c0,2.7,0.7,4.7,2.2,6.2c1.5,1.5,3.6,2.2,6.2,2.2C148.6,23.7,149.7,23.6,150.6,23.4z"/>
	<path class="st0" d="M157.7,7v16.4h4.5v-6.8h6.2v6.8h4.5V7h-4.5v6.3h-6.2V7H157.7z"/>
	<path class="st0" d="M177.6,7v16.4h5.4l7.5-11.5c-0.2,2.1-0.3,3.8-0.3,4.9v6.5h4.3V7h-5.4l-7.6,11.5c0.2-2.7,0.3-4.3,0.3-5V7H177.6
		z"/>
	<path class="st0" d="M199.2,7v16.4h5.4l7.5-11.5c-0.2,2.1-0.3,3.8-0.3,4.9v6.5h4.3V7h-5.4l-7.6,11.5c0.2-2.7,0.3-4.3,0.3-5V7H199.2
		z M210.8,0c-0.1,0.9-0.4,1.6-0.9,2.1c-0.5,0.4-1.2,0.7-2.2,0.7c-1.1,0-1.9-0.2-2.3-0.6c-0.4-0.4-0.7-1.1-0.8-2.1h-4
		c0.1,1.9,0.8,3.2,1.9,4c1.1,0.8,2.8,1.2,5.1,1.2c2.2,0,4-0.4,5.2-1.3c1.2-0.8,1.9-2.2,2.1-4H210.8z"/>
	<path class="st0" d="M20.7,43h-6.1c-1.7,4.2-2.7,6.6-2.9,7.2c-0.2,0.5-0.4,1.1-0.6,1.8c-0.2,0.6-0.4,1.7-0.8,3.2
		c-0.1-0.7-0.3-1.5-0.5-2.5c-0.2-1-0.5-1.8-0.8-2.6l-2.8-7H0v16.4h4.2V46.5l0.3,1C4.9,49.5,5.4,51,5.8,52l2.9,7.4h3.2l2.9-7.3
		c0.4-1.1,0.9-2.6,1.4-4.7l0.2-0.9v12.9h4.2V43z"/>
	<path class="st0" d="M38.9,59.4V48.5c0-2-0.6-3.4-1.8-4.4c-1.2-1-2.9-1.4-5.1-1.4c-2.3,0-4.4,0.5-6.3,1.5l1.5,3
		c1.8-0.8,3.3-1.2,4.6-1.2c1.7,0,2.6,0.8,2.6,2.5v0.7l-2.8,0.1c-2.5,0.1-4.3,0.5-5.5,1.4c-1.2,0.8-1.8,2.1-1.8,3.8
		c0,1.7,0.5,2.9,1.4,3.8c0.9,0.9,2.1,1.3,3.7,1.3c1.3,0,2.3-0.2,3.1-0.5c0.8-0.4,1.6-1,2.3-2h0.1l0.9,2.2H38.9z M34.5,53.2
		c0,1-0.3,1.8-0.9,2.4c-0.6,0.6-1.5,0.9-2.5,0.9c-1.4,0-2.2-0.6-2.2-1.9c0-0.9,0.3-1.5,1-2c0.6-0.4,1.6-0.7,2.9-0.7l1.7-0.1V53.2z"
		/>
	<path class="st0" d="M58.2,43H45.8c-0.2,3.3-0.5,5.8-0.8,7.7c-0.3,1.9-0.6,3.2-1,4c-0.4,0.8-0.8,1.2-1.4,1.2c-0.5,0-1-0.1-1.4-0.3
		v3.6c0.7,0.3,1.5,0.5,2.6,0.5c1.2,0,2.2-0.4,2.9-1.2c0.7-0.8,1.3-2.1,1.8-3.9c0.4-1.8,0.8-4.5,1.1-8.2h4.1v13h4.5V43z"/>
	<path class="st0" d="M67.2,47.6c0.5-0.8,1.4-1.2,2.6-1.2c1.2,0,2.1,0.4,2.6,1.2c0.5,0.8,0.8,2,0.8,3.6c0,1.6-0.3,2.9-0.8,3.7
		c-0.5,0.8-1.4,1.2-2.6,1.2c-1.2,0-2.1-0.4-2.6-1.2c-0.5-0.8-0.8-2.1-0.8-3.7C66.5,49.6,66.7,48.4,67.2,47.6z M76.8,46.7
		c-0.6-1.3-1.6-2.3-2.8-2.9c-1.2-0.7-2.6-1-4.2-1c-2.5,0-4.5,0.7-5.9,2.2c-1.4,1.5-2.1,3.6-2.1,6.2c0,1.7,0.3,3.2,1,4.5
		c0.6,1.3,1.6,2.3,2.8,3c1.2,0.7,2.6,1,4.2,1c2.5,0,4.5-0.8,5.9-2.3c1.4-1.5,2.1-3.6,2.1-6.3C77.8,49.5,77.5,48,76.8,46.7z"/>
	<path class="st0" d="M101.6,58.7c0.9-0.7,1.7-1.7,2.2-2.9c0.5-1.3,0.8-2.8,0.8-4.6c0-2.7-0.5-4.7-1.6-6.2c-1.1-1.5-2.6-2.2-4.5-2.2
		c-2.1,0-3.6,0.8-4.7,2.4h-0.2L92.9,43h-3.6v23.6h4.5V60c0-0.2-0.1-1-0.2-2.4h0.2c1.1,1.4,2.6,2.1,4.5,2.1
		C99.6,59.7,100.7,59.4,101.6,58.7z M99.3,47.5c0.5,0.8,0.7,2,0.7,3.6c0,3.3-1,5-3,5c-1.1,0-2-0.4-2.5-1.1c-0.5-0.8-0.8-2-0.8-3.8
		v-0.5c0-1.6,0.3-2.7,0.8-3.4c0.5-0.7,1.3-1,2.4-1C98,46.3,98.8,46.7,99.3,47.5z"/>
	<path class="st0" d="M112.5,59.3l-0.3,0.8c-0.3,1-0.8,1.7-1.4,2.2c-0.6,0.5-1.3,0.7-2.1,0.7c-0.6,0-1.2-0.1-1.8-0.2v3.5
		c0.7,0.2,1.5,0.2,2.3,0.2c1.6,0,3-0.4,4.1-1.3c1.2-0.8,2.1-2.1,2.7-3.8l6.9-18.5h-4.8l-3,9.2c-0.3,0.9-0.5,1.8-0.6,2.8h-0.1
		c-0.1-1.1-0.3-2-0.5-2.8l-3.1-9.2H106L112.5,59.3z"/>
	<path class="st0" d="M123.2,59.4h5.1l3.5-5.6l3.4,5.6h5.1l-5.6-8.4l5.3-8h-5.1l-3.2,5.2l-3.2-5.2h-5.1l5.3,8L123.2,59.4z"/>
	<path class="st0" d="M156.3,59.4V48.5c0-2-0.6-3.4-1.8-4.4c-1.2-1-2.9-1.4-5.1-1.4c-2.3,0-4.4,0.5-6.3,1.5l1.5,3
		c1.8-0.8,3.3-1.2,4.6-1.2c1.7,0,2.6,0.8,2.6,2.5v0.7l-2.8,0.1c-2.5,0.1-4.3,0.5-5.5,1.4c-1.2,0.8-1.8,2.1-1.8,3.8
		c0,1.7,0.5,2.9,1.4,3.8c0.9,0.9,2.1,1.3,3.7,1.3c1.3,0,2.3-0.2,3.1-0.5c0.8-0.4,1.6-1,2.3-2h0.1l0.9,2.2H156.3z M151.9,53.2
		c0,1-0.3,1.8-0.9,2.4c-0.6,0.6-1.4,0.9-2.5,0.9c-1.4,0-2.2-0.6-2.2-1.9c0-0.9,0.3-1.5,1-2c0.6-0.4,1.6-0.7,2.9-0.7l1.7-0.1V53.2z"
		/>
	<path class="st0" d="M159.3,43v3.4h5.4v13h4.5v-13h5.4V43H159.3z"/>
	<path class="st0" d="M177.5,43v16.4h5.4l7.5-11.5c-0.2,2.1-0.3,3.8-0.3,4.9v6.5h4.3V43h-5.4l-7.6,11.5c0.2-2.7,0.3-4.3,0.3-5V43
		H177.5z"/>
	<path class="st0" d="M208.6,59.5c0.7-0.2,1.5-0.5,2.2-1v-3.8c-0.7,0.5-1.5,0.8-2.2,1.1c-0.7,0.2-1.5,0.3-2.4,0.3
		c-2.3,0-3.5-1.6-3.5-4.8c0-3.3,1.2-5,3.5-5c0.6,0,1.2,0.1,1.8,0.3c0.6,0.2,1.3,0.4,2,0.7l1.3-3.5c-1.5-0.7-3.2-1.1-5.1-1.1
		c-2.6,0-4.6,0.7-6,2.2c-1.4,1.5-2.1,3.6-2.1,6.4c0,5.6,2.6,8.4,7.7,8.4C207,59.7,207.9,59.6,208.6,59.5z"/>
	<path class="st0" d="M219.1,43h-4.5v16.4h7.8c4.8,0,7.2-1.7,7.2-5.2c0-1.6-0.6-2.8-1.8-3.6c-1.2-0.8-3.1-1.2-5.6-1.2h-3.2V43z
		 M222.2,56.3h-3.1v-3.9h3.1c1,0,1.8,0.1,2.3,0.4c0.5,0.3,0.8,0.7,0.8,1.4C225.2,55.6,224.2,56.3,222.2,56.3L222.2,56.3z"/>
	<path class="st0" d="M238.6,52.3v-0.9c0-0.6,0.1-1.1,0.4-1.4c0.2-0.4,0.8-0.9,1.8-1.6c1.4-1,2.3-1.9,2.8-2.6
		c0.5-0.8,0.7-1.7,0.7-2.8c0-1.6-0.6-2.9-1.8-3.9c-1.2-1-2.8-1.5-4.8-1.5c-2.4,0-4.8,0.6-6.9,1.8l1.6,3.2c1.9-1,3.6-1.4,5-1.4
		c0.8,0,1.5,0.2,2,0.5c0.5,0.3,0.7,0.8,0.7,1.5c0,0.6-0.2,1.1-0.5,1.5c-0.3,0.5-1,1.1-2,1.8c-1.1,0.8-1.8,1.5-2.2,2.2
		c-0.4,0.7-0.6,1.5-0.6,2.4v1.1H238.6z M235,59.2c0.4,0.4,1.1,0.7,1.9,0.7c0.8,0,1.4-0.2,1.9-0.7c0.4-0.4,0.7-1.1,0.7-1.8
		c0-0.8-0.2-1.4-0.7-1.8c-0.4-0.4-1.1-0.6-1.9-0.6c-0.8,0-1.5,0.2-1.9,0.6c-0.4,0.4-0.7,1-0.7,1.9C234.3,58.1,234.5,58.7,235,59.2z"
		/>
</g>
</svg>
