<svg id="Слой_1" xmlns="http://www.w3.org/2000/svg" xmlns:xlink="http://www.w3.org/1999/xlink" viewBox="0 0 151.1 101.3" style="enable-background:new 0 0 151.1 101.3"><style>.st0{fill:#fff}</style><g><path class="st0" d="M11.7 2v21.4h4.5V5.8h9V2H11.7z"/><path class="st0" d="M32.5 11.6c.5-.8 1.4-1.2 2.6-1.2 1.2.0 2.1.4 2.6 1.2.5.8.8 2 .8 3.6.0 1.6-.3 2.9-.8 3.7-.5.8-1.4 1.2-2.6 1.2-1.2.0-2.1-.4-2.6-1.2-.5-.8-.8-2.1-.8-3.7C31.8 13.6 32 12.4 32.5 11.6zM42.1 10.7c-.6-1.3-1.6-2.3-2.8-2.9-1.2-.7-2.6-1-4.2-1-2.5.0-4.5.7-5.9 2.2-1.4 1.5-2.1 3.6-2.1 6.2.0 1.7.3 3.2 1 4.5.6 1.3 1.6 2.3 2.8 3 1.2.7 2.6 1 4.2 1 2.5.0 4.5-.8 5.9-2.3 1.4-1.5 2.1-3.6 2.1-6.3C43.1 13.5 42.8 12 42.1 10.7z"/><path class="st0" d="M45.1 7v3.4h5.4v13H55v-13h5.4V7H45.1z"/><path class="st0" d="M67.8 11.6c.5-.8 1.4-1.2 2.6-1.2 1.2.0 2.1.4 2.6 1.2.5.8.8 2 .8 3.6.0 1.6-.3 2.9-.8 3.7-.5.8-1.4 1.2-2.6 1.2-1.2.0-2.1-.4-2.6-1.2-.5-.8-.8-2.1-.8-3.7C67 13.6 67.2 12.4 67.8 11.6zM77.3 10.7c-.6-1.3-1.6-2.3-2.8-2.9-1.2-.7-2.6-1-4.2-1-2.5.0-4.5.7-5.9 2.2-1.4 1.5-2.1 3.6-2.1 6.2.0 1.7.3 3.2 1 4.5.6 1.3 1.6 2.3 2.8 3 1.2.7 2.6 1 4.2 1 2.5.0 4.5-.8 5.9-2.3 1.4-1.5 2.1-3.6 2.1-6.3C78.3 13.5 78 12 77.3 10.7z"/><path class="st0" d="M95.5 8.1C94.4 7.4 92.7 7 90.4 7H82v16.4h8.4c2.3.0 4.1-.4 5.4-1.3 1.3-.8 1.9-2 1.9-3.6.0-1-.3-1.8-1-2.4C96 15.4 95 15 93.9 14.9v-.1c1.1-.2 1.9-.6 2.4-1.2.6-.6.8-1.4.8-2.2C97.2 9.9 96.6 8.9 95.5 8.1zM92.3 19.8c-.5.4-1.2.5-2.2.5h-3.6v-3.9H90c1 0 1.7.1 2.2.4.5.3.7.8.7 1.4C93 18.9 92.8 19.4 92.3 19.8zM91.9 13c-.5.3-1.2.4-2.2.4h-3.2v-3.2h3.8c1.6.0 2.4.5 2.4 1.5C92.6 12.3 92.4 12.7 91.9 13z"/><path class="st0" d="M101.2 7v16.4h5.4l7.5-11.5c-.2 2.1-.3 3.8-.3 4.9v6.5h4.3V7h-5.4l-7.6 11.5c.2-2.7.3-4.3.3-5V7H101.2z"/><path class="st0" d="M122.9 7v16.4h5.4l7.5-11.5c-.2 2.1-.3 3.8-.3 4.9v6.5h4.3V7h-5.4l-7.6 11.5c.2-2.7.3-4.3.3-5V7H122.9zm11.5-7c-.1.9-.4 1.6-.9 2.1-.5.4-1.2.7-2.2.7-1.1.0-1.9-.2-2.3-.6-.4-.4-.7-1.1-.8-2.1h-4c.1 1.9.8 3.2 1.9 4 1.1.8 2.8 1.2 5.1 1.2 2.2.0 4-.4 5.2-1.3 1.2-.8 1.9-2.2 2.1-4H134.4z"/><path class="st0" d="M0 43v16.4h4.5v-13h5.9v13h4.5V43H0z"/><path class="st0" d="M23.9 47.6c.5-.8 1.4-1.2 2.6-1.2 1.2.0 2.1.4 2.6 1.2.5.8.8 2 .8 3.6.0 1.6-.3 2.9-.8 3.7-.5.8-1.4 1.2-2.6 1.2-1.2.0-2.1-.4-2.6-1.2-.5-.8-.8-2.1-.8-3.7C23.1 49.6 23.4 48.4 23.9 47.6zM33.5 46.7c-.6-1.3-1.6-2.3-2.8-2.9-1.2-.7-2.6-1-4.2-1-2.5.0-4.5.7-5.9 2.2-1.4 1.5-2.1 3.6-2.1 6.2.0 1.7.3 3.2 1 4.5.6 1.3 1.6 2.3 2.8 3 1.2.7 2.6 1 4.2 1 2.5.0 4.5-.8 5.9-2.3 1.4-1.5 2.1-3.6 2.1-6.3C34.5 49.5 34.2 48 33.5 46.7z"/><path class="st0" d="M37.6 43v6.1c0 1.7.5 3 1.5 3.9 1 .9 2.4 1.4 4.2 1.4.8.0 1.7-.1 2.6-.3.9-.2 1.9-.6 2.9-1.2v6.5h4.5V43h-4.5v7.1c-.8.3-1.5.6-2.2.8-.7.2-1.5.3-2.4.3-1.3.0-2-.7-2-2.1v-6H37.6z"/><path class="st0" d="M57.9 43v16.4h5.4L70.8 48c-.2 2.1-.3 3.8-.3 4.9v6.5h4.3V43h-5.4l-7.6 11.5c.2-2.7.3-4.3.3-5V43H57.9z"/><path class="st0" d="M79.5 43v16.4H84v-6.8h6.2v6.8h4.5V43h-4.5v6.3H84V43H79.5z"/><path class="st0" d="M113 59.4V48.5c0-2-.6-3.4-1.8-4.4-1.2-1-2.9-1.4-5.1-1.4-2.3.0-4.4.5-6.3 1.5l1.5 3c1.8-.8 3.3-1.2 4.6-1.2 1.7.0 2.6.8 2.6 2.5v.7l-2.8.1c-2.5.1-4.3.5-5.5 1.4-1.2.8-1.8 2.1-1.8 3.8.0 1.7.5 2.9 1.4 3.8.9.9 2.1 1.3 3.7 1.3 1.3.0 2.3-.2 3.1-.5.8-.4 1.6-1 2.3-2h.1l.9 2.2H113zM108.5 53.2c0 1-.3 1.8-.9 2.4-.6.6-1.5.9-2.5.9-1.4.0-2.2-.6-2.2-1.9.0-.9.3-1.5 1-2 .6-.4 1.6-.7 2.9-.7l1.7-.1V53.2z"
		/><path class="st0" d="M115.9 43v3.4h5.4v13h4.5v-13h5.4V43H115.9z"/><path class="st0" d="M134.2 43v16.4h5.4l7.5-11.5c-.2 2.1-.3 3.8-.3 4.9v6.5h4.3V43h-5.4l-7.6 11.5c.2-2.7.3-4.3.3-5V43H134.2z"/><path class="st0" d="M39.5 92.2c.8-1.4 1.3-3 1.8-4.6.4-1.6.8-3.4 1-5.2h3.4v9.8H39.5zm13 0h-2.4V79H38.5c-.3 2.9-.7 5.4-1.3 7.6-.6 2.2-1.4 4.1-2.4 5.5h-1.4v9.1h4v-5.9h11v5.9h4V92.2z"/><path class="st0" d="M57.5 77c.8.0 1.4-.2 1.8-.6.4-.4.6-.9.6-1.6.0-1.5-.8-2.2-2.4-2.2-1.6.0-2.4.7-2.4 2.2C55.1 76.3 55.9 77 57.5 77v0zM59.7 79h-4.5v16.4h4.5V79z"/><path class="st0" d="M70.6 89.3h2.5v6.1h4.5V79H70c-2.1.0-3.7.4-4.9 1.3-1.2.9-1.8 2.1-1.8 3.7.0 1.1.3 2.1.8 2.9.5.8 1.3 1.5 2.4 1.9l-4.4 6.5h4.8L70.6 89.3zM68.3 82.7c.4-.4 1-.5 1.7-.5h3.1v4.1h-2.5c-.9.0-1.6-.2-2.1-.6-.5-.4-.8-.9-.8-1.6C67.7 83.6 67.9 83.1 68.3 82.7z"/><path class="st0" d="M80.6 79v3.4H86v13h4.5v-13h5.4V79H80.6z"/><path class="st0" d="M98.9 79v16.4h5.4l7.5-11.5c-.2 2.1-.3 3.8-.3 4.9v6.5h4.3V79h-5.4l-7.6 11.5c.2-2.7.3-4.3.3-5V79H98.9z"/></g></svg>