<svg id="Слой_1" xmlns="http://www.w3.org/2000/svg" xmlns:xlink="http://www.w3.org/1999/xlink" viewBox="0 0 62.9 27.2" style="enable-background:new 0 0 62.9 27.2"><style>.st0{fill-rule:evenodd;clip-rule:evenodd;fill:#fff}</style><path class="st0" d="M0 0h62.9v27.2H0V0z"/><path d="M8.9 10.9H6.3v1.7h2.9v1.3H4.7v-7H9v1.3H6.3v1.5h2.6V10.9z"/><path d="M14 13.8c-.3.1-.8.2-1.4.2-1.7.0-2.7-1-2.7-2.6.0-1.5 1-2.7 2.9-2.7.4.0.9.1 1.2.2l-.3 1.2c-.2-.1-.5-.2-.9-.2-.8.0-1.4.6-1.4 1.4.0.9.6 1.4 1.4 1.4.4.0.7-.1.9-.2L14 13.8z"/><path d="M18.7 13.8c-.3.1-.8.2-1.4.2-1.7.0-2.7-1-2.7-2.6.0-1.5 1-2.7 2.9-2.7.4.0.9.1 1.2.2l-.3 1.2c-.2-.1-.5-.2-.9-.2-.8.0-1.4.6-1.4 1.4.0.9.6 1.4 1.4 1.4.4.0.7-.1.9-.2L18.7 13.8z"/><path d="M20.7 11.9c.1.7.7 1 1.4 1 .5.0 1-.1 1.4-.2l.2 1.1c-.5.2-1.2.3-1.9.3-1.7.0-2.7-1-2.7-2.6.0-1.3.8-2.7 2.6-2.7 1.7.0 2.3 1.3 2.3 2.6.0.3.0.5-.1.6L20.7 11.9v0zM22.6 10.8c0-.4-.2-1-.9-1-.7.0-.9.6-1 1H22.6z"/><path d="M26.6 8.8v1.9h1.6V8.8h1.6v5.1h-1.6v-2h-1.6v2H25V8.8H26.6z"/><path d="M32.6 8.8v3.9h1.6V8.8h1.6v4h.6l-.1 2.8h-1.2l-.1-1.7h-4V8.8H32.6z"/><path d="M38.8 7.4c0 .4-.3.8-.9.8-.5.0-.8-.4-.8-.8.0-.5.3-.8.8-.8C38.5 6.6 38.8 6.9 38.8 7.4zM37.2 13.9V8.8h1.6v5.1H37.2z"/><path d="M43 13.9l-.1-.5h0C42.5 13.8 42 14 41.4 14c-1 0-1.7-.8-1.7-1.6.0-1.3 1.2-2 3-2v-.1c0-.3-.1-.7-.9-.7-.5.0-1.1.2-1.4.4l-.3-1c.4-.2 1.1-.5 2-.5 1.7.0 2.2 1 2.2 2.2v1.8c0 .5.0 1 .1 1.2L43 13.9v0zM42.8 11.5c-.8.0-1.5.2-1.5.8.0.4.3.6.6.6.4.0.7-.3.8-.6.0-.1.0-.2.0-.3v-.5z"/><path d="M50.1 8.8v5.1h-1.6V10h-1.1v1c0 1.2-.1 2.1-.7 2.6-.3.3-.8.5-1.5.5L45 12.8c.2.0.5-.1.6-.3.3-.3.3-.8.3-1.6V8.8H50.1z"/><path d="M55.1 10.1c-.2-.1-.6-.2-1-.2-.8.0-1.3.4-1.4 1h2.1v1h-2.1c.1.6.7 1 1.4 1 .4.0.8-.1 1-.2l.2 1.1c-.3.1-.9.3-1.5.3-1.7.0-2.8-1-2.8-2.6.0-1.8 1.3-2.7 3-2.7.5.0 1.1.1 1.3.3L55.1 10.1z"/><path d="M58.3 8.1c0 .6-.5 1.2-1.2 1.2-.7.0-1.2-.5-1.2-1.2C56 7.5 56.5 7 57.1 7 57.8 7 58.3 7.5 58.3 8.1zM56.3 8.2c0 .5.4.9.8.9C57.6 9 58 8.6 58 8.1c0-.5-.4-.9-.8-.9C56.7 7.3 56.3 7.7 56.3 8.2zM57 8.7h-.3V7.6c.1.0.2.0.5.0.2.0.3.0.4.1.1.0.1.1.1.2s-.1.2-.2.2v0c.1.0.2.1.2.3.0.2.1.2.1.3h-.4c0 0-.1-.1-.1-.2.0-.1-.1-.2-.2-.2H57V8.7zM57 8.1v0c.2.0.3.0.3-.1.0-.1-.1-.1-.2-.1.0.0-.1.0-.1.0V8.1z"/><path d="M35.9 21.9V16h-1.4v2.2h-2.2V16h-1.4v5.9h1.4v-2.5h2.2v2.5H35.9z"/><path d="M8.5 20.8c.6.0 1.2-.3 1.2-1.4.0-.9-.4-1.3-1.2-1.3V20.8zM7.5 18.2H7.4c-.6.0-1 .4-1 1.3.0 1.2.8 1.4 1.2 1.4V18.2zm0 3.5c-2.1-.1-2.3-1.5-2.3-2.2.0-1.9 1.5-2.1 2.3-2.1v-1.5h1.1v1.5c2 0 2.3 1.4 2.3 2.1.0 1-.4 2.1-2.3 2.2V23H7.5V21.7z"/><path d="M14.2 19.5c0-1.3-.6-1.4-.9-1.4-.2.0-.9.1-.9 1.4.0.5.1 1.4.9 1.4C14.2 20.9 14.2 20 14.2 19.5zM11.4 19.5c0-1.6 1-2.2 2-2.2 1.1.0 2 .7 2 2.2.0 1.5-.9 2.2-2 2.2C12.2 21.7 11.4 21 11.4 19.5z"/><path d="M18 20.9c.6.0.8-.7.8-1.4.0-1.1-.5-1.4-.8-1.4-.3.0-.9.2-.9 1.4C17.1 20.2 17.3 20.9 18 20.9zM17.1 17.4v.5h0c.4-.6.9-.6 1.2-.6 1 0 1.7.9 1.7 2.2.0 1.3-.6 2.2-1.7 2.2-.1.0-.7.0-1.1-.6V23h-1.1v-5.6H17.1z"/><path d="M20.3 18.3v-.8h3.5v.8h-1.2v3.3h-1.1v-3.3"/><path d="M28 20.4c-.3 1.2-1.2 1.3-1.9 1.3-.5.0-2-.1-2-2.2.0-1.4.9-2.2 2-2.2 1.8.0 1.9 1.8 1.9 2.3v.2h-2.8c0 .4.2 1.1.9 1.1.3.0.6-.2.7-.5L28 20.4v0zM27 19.1c0-.9-.5-1-.8-1-.1.0-.8.0-.9 1H27z"/></svg>