<?xml version="1.0" encoding="utf-8"?>
<!-- Generator: Adobe Illustrator 24.1.3, SVG Export Plug-In . SVG Version: 6.00 Build 0)  -->
<svg version="1.1" id="Слой_1" xmlns="http://www.w3.org/2000/svg" xmlns:xlink="http://www.w3.org/1999/xlink" x="0px" y="0px"
	 viewBox="0 0 213.3 115.7" style="enable-background:new 0 0 213.3 115.7;" xml:space="preserve">
<style type="text/css">
	.st0{fill:#FFFFFF;}
</style>
<g>
	<path class="st0" d="M40.7,2.6H21v24.1h6.5V7.9h6.6v18.7h6.6V2.6z"/>
	<path class="st0" d="M62.2,12.2c-0.8-1.5-1.8-2.6-3.3-3.3c-1.4-0.8-3-1.2-4.9-1.2c-3,0-5.3,0.8-6.9,2.5c-1.6,1.7-2.5,4-2.5,7.1
		c0,3,0.8,5.3,2.5,7.1c1.7,1.7,3.9,2.6,6.8,2.6c3,0,5.3-0.9,6.9-2.6c1.6-1.7,2.5-4.1,2.5-7.1C63.3,15.4,62.9,13.7,62.2,12.2z
		 M51.9,13.7c0.4-0.8,1.1-1.2,2.1-1.2c1,0,1.7,0.4,2.1,1.2c0.4,0.8,0.6,2,0.6,3.6c0,1.6-0.2,2.8-0.6,3.7c-0.4,0.8-1.1,1.3-2.1,1.3
		c-1,0-1.7-0.4-2.2-1.3c-0.4-0.8-0.6-2.1-0.6-3.7C51.2,15.7,51.4,14.5,51.9,13.7z"/>
	<path class="st0" d="M84.3,8H65.6v4.8h6.1v13.9h6.4V12.8h6.1V8z"/>
	<path class="st0" d="M103.5,24.4c1.2-1.7,1.8-4.1,1.8-7.1c0-3-0.6-5.3-1.8-7c-1.2-1.7-2.8-2.6-4.9-2.6c-2.1,0-3.8,0.9-5,2.7h-0.3
		L92.6,8h-5.2v26.7h6.4v-7.5c0-0.3-0.1-1.1-0.3-2.4h0.3c0.7,0.8,1.5,1.4,2.2,1.7c0.7,0.3,1.6,0.5,2.5,0.5
		C100.6,27,102.3,26.2,103.5,24.4z M98.2,13.8c0.4,0.7,0.6,1.8,0.6,3.4c0,1.6-0.2,2.8-0.6,3.5c-0.4,0.7-1,1.1-1.8,1.1
		c-0.9,0-1.6-0.4-2-1.1c-0.4-0.7-0.6-1.9-0.6-3.5v-0.5c0-1.3,0.2-2.3,0.6-3c0.4-0.7,1-1,2-1C97.2,12.8,97.9,13.1,98.2,13.8z"/>
	<path class="st0" d="M115.5,8h-6.4v18.6h6.4V8z M112.3,6.2c2.3,0,3.4-0.9,3.4-2.8c0-0.9-0.3-1.7-0.8-2.1c-0.5-0.5-1.4-0.7-2.6-0.7
		c-1.2,0-2.1,0.2-2.6,0.7c-0.5,0.5-0.8,1.2-0.8,2.2C108.9,5.3,110,6.2,112.3,6.2L112.3,6.2z"/>
	<path class="st0" d="M120,8v18.6h7.1l7.4-11.3c-0.2,2.4-0.2,4.5-0.2,6.3v5.1h5.7V8h-7.1l-7.5,11.4c0.1-3.6,0.2-5.6,0.2-5.9
		c0-0.3,0-0.6,0-0.9V8H120z M138.4,0h-5.5c-0.2,2-1.1,3.1-2.7,3.1c-0.9,0-1.6-0.2-2-0.7c-0.4-0.5-0.7-1.3-0.7-2.3h-5.4
		c0.2,2.1,0.9,3.7,2.2,4.7s3.3,1.5,5.9,1.5C135.2,6.3,138,4.2,138.4,0L138.4,0z"/>
	<path class="st0" d="M144.5,8v18.6h6.4v-7.1h5.1v7.1h6.4V8h-6.4v6.7h-5.1V8H144.5z"/>
	<path class="st0" d="M183.6,26.7V14.5c0-2.1-0.7-3.8-2-5c-1.3-1.2-3.2-1.8-5.6-1.8c-3.3,0-6.1,0.6-8.2,1.7l1.9,4.2
		c2.1-0.9,3.8-1.4,5.2-1.4c1.5,0,2.3,0.8,2.3,2.3v0.3l-3.1,0.1c-2.6,0.1-4.6,0.7-6,1.6c-1.4,1-2.1,2.4-2.1,4.4
		c0,1.9,0.5,3.4,1.5,4.4c1,1.1,2.4,1.6,4.2,1.6c1.4,0,2.6-0.2,3.5-0.6c0.9-0.4,1.8-1.1,2.7-2.2h0.1l1.2,2.5H183.6z M172.5,20.8
		c0-1.5,1.1-2.3,3.2-2.3l1.5-0.1v1.4c0,0.8-0.3,1.4-0.8,1.9c-0.6,0.5-1.2,0.7-2,0.7C173.1,22.5,172.5,21.9,172.5,20.8L172.5,20.8z"
		/>
	<path class="st0" d="M37.1,62.4h-2.8V48.5H18.9c-0.3,2.8-0.7,5.3-1.4,7.8c-0.7,2.4-1.5,4.5-2.4,6.1h-1.6V74h5.6v-6.8h12.3V74h5.6
		V62.4z M21.9,62.4c0.6-1.8,1.1-3.3,1.5-4.7c0.3-1.4,0.6-2.8,0.8-4.3h3.7v9.1H21.9z"/>
	<path class="st0" d="M56.4,52.7c-0.8-1.5-1.8-2.6-3.3-3.3c-1.4-0.8-3-1.2-4.9-1.2c-3,0-5.3,0.8-6.9,2.5c-1.6,1.7-2.5,4-2.5,7.1
		c0,3,0.8,5.3,2.5,7.1c1.7,1.7,3.9,2.6,6.8,2.6c3,0,5.3-0.9,6.9-2.6c1.6-1.7,2.5-4.1,2.5-7.1C57.5,55.8,57.2,54.1,56.4,52.7z
		 M46.1,54.2c0.4-0.8,1.1-1.2,2.1-1.2c1,0,1.7,0.4,2.1,1.2c0.4,0.8,0.6,2,0.6,3.6c0,1.6-0.2,2.8-0.6,3.7c-0.4,0.8-1.1,1.3-2.1,1.3
		c-1,0-1.7-0.4-2.2-1.3c-0.4-0.8-0.6-2.1-0.6-3.7C45.5,56.2,45.7,55,46.1,54.2z"/>
	<path class="st0" d="M61.2,48.5v18.6h6.4V53.3h4.8v13.9h6.4V48.5H61.2z"/>
	<path class="st0" d="M100.1,52.7c-0.8-1.5-1.8-2.6-3.3-3.3c-1.4-0.8-3-1.2-4.9-1.2c-3,0-5.3,0.8-6.9,2.5c-1.6,1.7-2.5,4-2.5,7.1
		c0,3,0.8,5.3,2.5,7.1c1.7,1.7,3.9,2.6,6.8,2.6c3,0,5.3-0.9,6.9-2.6c1.6-1.7,2.5-4.1,2.5-7.1C101.2,55.8,100.8,54.1,100.1,52.7z
		 M89.8,54.2c0.4-0.8,1.1-1.2,2.1-1.2c1,0,1.7,0.4,2.1,1.2c0.4,0.8,0.6,2,0.6,3.6c0,1.6-0.2,2.8-0.6,3.7c-0.4,0.8-1.1,1.3-2.1,1.3
		c-1,0-1.7-0.4-2.2-1.3c-0.4-0.8-0.6-2.1-0.6-3.7C89.1,56.2,89.3,55,89.8,54.2z"/>
	<path class="st0" d="M129.4,48.5h-8.6L119,54l-0.6,2.2c-0.7,2.4-1.1,3.9-1.2,4.4c-0.1-0.7-0.4-2-0.9-3.8c-0.5-1.8-0.9-3.1-1.1-4
		l-1.4-4.4h-8.8v18.6h5.8V53.2l0.4,1.2c0.7,2.5,1.4,4.7,2,6.7l1.9,6h4.4c1.6-4.8,2.6-8,3.1-9.5c0.4-1.5,0.8-3,1.2-4.4v13.9h5.8V48.5
		z"/>
	<path class="st0" d="M150.5,52.7c-0.8-1.5-1.8-2.6-3.3-3.3c-1.4-0.8-3-1.2-4.9-1.2c-3,0-5.3,0.8-6.9,2.5c-1.6,1.7-2.5,4-2.5,7.1
		c0,3,0.8,5.3,2.5,7.1c1.7,1.7,3.9,2.6,6.8,2.6c3,0,5.3-0.9,6.9-2.6c1.6-1.7,2.5-4.1,2.5-7.1C151.7,55.8,151.3,54.1,150.5,52.7z
		 M140.2,54.2c0.4-0.8,1.1-1.2,2.1-1.2c1,0,1.7,0.4,2.1,1.2c0.4,0.8,0.6,2,0.6,3.6c0,1.6-0.2,2.8-0.6,3.7c-0.4,0.8-1.1,1.3-2.1,1.3
		c-1,0-1.7-0.4-2.2-1.3c-0.4-0.8-0.6-2.1-0.6-3.7C139.6,56.2,139.8,55,140.2,54.2z"/>
	<path class="st0" d="M155.3,48.5v18.6h6.4V53.3h7.4v-4.8H155.3z"/>
	<path class="st0" d="M188.9,67.1V54.9c0-2.1-0.7-3.8-2-5c-1.3-1.2-3.2-1.8-5.6-1.8c-3.3,0-6.1,0.6-8.2,1.7l1.9,4.2
		c2.1-0.9,3.8-1.4,5.2-1.4c1.5,0,2.3,0.8,2.3,2.3v0.3l-3.1,0.1c-2.6,0.1-4.6,0.7-6,1.6c-1.4,1-2.1,2.4-2.1,4.4
		c0,1.9,0.5,3.4,1.5,4.4c1,1.1,2.4,1.6,4.1,1.6c1.4,0,2.6-0.2,3.5-0.6c0.9-0.4,1.8-1.1,2.7-2.2h0.1l1.2,2.5H188.9z M177.8,61.2
		c0-1.5,1.1-2.3,3.2-2.3l1.5-0.1v1.4c0,0.8-0.3,1.4-0.8,1.9c-0.6,0.5-1.2,0.7-2,0.7C178.4,62.9,177.8,62.4,177.8,61.2L177.8,61.2z"
		/>
	<path class="st0" d="M18.7,88.9H0v4.8h6.1v13.9h6.4V93.7h6.1V88.9z"/>
	<path class="st0" d="M37.9,105.3c1.2-1.7,1.8-4.1,1.8-7.1c0-3-0.6-5.3-1.8-7c-1.2-1.7-2.8-2.6-4.9-2.6c-2.1,0-3.8,0.9-5,2.7h-0.3
		L27,88.9h-5.2v26.7h6.4v-7.5c0-0.3-0.1-1.1-0.3-2.4h0.3c0.7,0.8,1.5,1.4,2.2,1.7c0.7,0.3,1.6,0.5,2.5,0.5
		C35,107.9,36.7,107.1,37.9,105.3z M32.7,94.7c0.4,0.7,0.6,1.8,0.6,3.4c0,1.6-0.2,2.8-0.6,3.5c-0.4,0.7-1,1.1-1.8,1.1
		c-0.9,0-1.6-0.4-2-1.1c-0.4-0.7-0.6-1.9-0.6-3.5v-0.5c0-1.3,0.2-2.3,0.6-3c0.4-0.7,1-1,2-1C31.7,93.7,32.3,94,32.7,94.7z"/>
	<path class="st0" d="M60.1,107.6V95.4c0-2.1-0.7-3.8-2-5c-1.3-1.2-3.2-1.8-5.6-1.8c-3.3,0-6.1,0.6-8.2,1.7l1.9,4.2
		c2.1-0.9,3.8-1.4,5.2-1.4c1.5,0,2.3,0.8,2.3,2.3v0.3l-3.1,0.1c-2.6,0.1-4.6,0.7-6,1.6c-1.4,1-2.1,2.4-2.1,4.4
		c0,1.9,0.5,3.4,1.5,4.4c1,1.1,2.4,1.6,4.2,1.6c1.4,0,2.6-0.2,3.5-0.6c0.9-0.4,1.8-1.1,2.7-2.2h0.1l1.2,2.5H60.1z M49,101.7
		c0-1.5,1.1-2.3,3.2-2.3l1.5-0.1v1.4c0,0.8-0.3,1.4-0.8,1.9c-0.6,0.5-1.2,0.7-2,0.7C49.6,103.4,49,102.8,49,101.7L49,101.7z"/>
	<path class="st0" d="M80.7,90.1c-1.3-0.8-3.4-1.2-6.1-1.2H64.5v18.6h10.2c5.8,0,8.7-1.8,8.7-5.3c0-1.2-0.4-2.2-1.1-2.9
		c-0.7-0.8-1.7-1.2-3.1-1.4v-0.1c1.1-0.2,2-0.6,2.6-1.3c0.6-0.7,1-1.6,1-2.7C82.7,92.1,82.1,90.9,80.7,90.1z M74.4,103.4h-3.5V100
		h3.6c0.7,0,1.3,0.1,1.7,0.4c0.4,0.3,0.6,0.7,0.6,1.3C76.8,102.8,76,103.4,74.4,103.4L74.4,103.4z M75.8,95.6
		C75.5,95.8,75,96,74.3,96h-3.4v-2.8h3.7c1.2,0,1.8,0.5,1.8,1.5C76.3,95,76.2,95.3,75.8,95.6z"/>
	<path class="st0" d="M105.8,88.9h-16c-0.2,2.6-0.4,4.7-0.6,6.5c-0.2,1.8-0.4,3.2-0.6,4.3c-0.2,1.1-0.5,1.9-0.8,2.4
		c-0.3,0.5-0.7,0.8-1.2,0.8c-0.6,0-1.1-0.1-1.4-0.3v4.8c0.8,0.3,1.8,0.5,2.9,0.5c1.6,0,2.9-0.4,3.9-1.3c1-0.8,1.7-2.2,2.3-4.1
		c0.5-1.9,1-4.8,1.4-8.8h3.8v13.9h6.4V88.9z"/>
	<path class="st0" d="M123.1,107.6c1.1-0.2,2.1-0.6,3.1-1.1v-4.6c-1.1,0.5-2.1,0.9-3.1,1.1c-0.9,0.2-2,0.3-3.1,0.3
		c-1.2,0-2.2-0.3-2.9-0.9c-0.7-0.6-1.1-1.4-1.1-2.5h11.5v-2.9c0-2.8-0.8-4.9-2.3-6.3c-1.5-1.5-3.7-2.2-6.5-2.2c-3,0-5.2,0.8-6.8,2.5
		c-1.6,1.7-2.4,4.1-2.4,7.2c0,3.1,0.9,5.4,2.6,7.1c1.7,1.7,4.1,2.5,7.2,2.5C120.7,107.9,122,107.8,123.1,107.6z M120.8,93.8
		c0.5,0.5,0.7,1.3,0.8,2.2h-5.5c0.1-1,0.4-1.8,0.9-2.2c0.5-0.5,1.1-0.7,1.9-0.7C119.7,93,120.3,93.3,120.8,93.8z"/>
	<path class="st0" d="M131.1,88.9v18.6h6.4v-7.1h5.1v7.1h6.4V88.9h-6.4v6.7h-5.1v-6.7H131.1z"/>
	<path class="st0" d="M153.5,88.9v18.6h6.4v-7.1h5.1v7.1h6.4V88.9H165v6.7h-5.1v-6.7H153.5z"/>
	<path class="st0" d="M201.6,93.1c-0.7-1.4-1.8-2.6-3.1-3.3c-1.4-0.8-2.9-1.2-4.7-1.2c-2.4,0-4.4,0.6-5.9,1.8
		c-1.5,1.2-2.5,3-2.9,5.2h-2.5v-6.7h-6.4v18.6h6.4v-7.1h2.5c0.4,2.4,1.4,4.2,2.9,5.5c1.6,1.3,3.5,2,5.9,2c2.9,0,5.1-0.8,6.7-2.5
		c1.6-1.7,2.4-4.1,2.4-7.2C202.7,96.2,202.3,94.5,201.6,93.1z M191.8,94.6c0.4-0.8,1-1.2,1.9-1.2c0.9,0,1.6,0.4,1.9,1.2
		c0.4,0.8,0.6,2,0.6,3.6c0,1.6-0.2,2.8-0.6,3.7c-0.4,0.8-1,1.3-1.9,1.3c-0.9,0-1.5-0.4-1.9-1.2c-0.4-0.8-0.6-2-0.6-3.7
		C191.2,96.6,191.4,95.4,191.8,94.6z"/>
	<path class="st0" d="M207.6,83.2l0.3,3l-3-0.9l-0.4,2.5l2.7,0.2l-1.8,2.4l2.4,1.2l1.1-2.4l1.2,2.4l2.2-1.2l-1.8-2.4l2.7-0.2
		l-0.3-2.5l-3.1,0.9l0.3-3H207.6z"/>
</g>
</svg>
