<?xml version="1.0" encoding="utf-8"?>
<!-- Generator: Adobe Illustrator 24.0.3, SVG Export Plug-In . SVG Version: 6.00 Build 0)  -->
<svg version="1.1" id="Слой_1" xmlns="http://www.w3.org/2000/svg" xmlns:xlink="http://www.w3.org/1999/xlink" x="0px" y="0px"
	 viewBox="0 0 512 512" style="enable-background:new 0 0 512 512;" xml:space="preserve">
<style type="text/css">
	.st0{fill:#E0E8EA;}
</style>
<rect width="512" height="512"/>
<g>
	<path class="st0" d="M230.3,323.7c-18.1,17.1-42.1,25.6-72.1,25.6c-30,0-54-8.5-72.1-25.6C68,306.6,59,284.1,59,256
		c0-28.1,9-50.6,27.1-67.7c18.1-17.1,42.1-25.6,72.1-25.6c30,0,54,8.5,72.1,25.6c18.1,17.1,27.1,39.7,27.1,67.7
		C257.4,284.1,248.3,306.6,230.3,323.7z M128.2,287.9c8,7.8,18,11.7,29.9,11.7c11.9,0,21.9-3.9,29.9-11.7c8-7.8,12-18.4,12-31.9
		c0-13.5-4-24.1-12-31.9c-8-7.8-18-11.7-29.9-11.7c-12,0-21.9,3.9-29.9,11.7c-8,7.8-12,18.4-12,31.9
		C116.3,269.5,120.3,280.1,128.2,287.9z"/>
	<path class="st0" d="M356.8,168.5c17.4,0,32.4,2.2,45,6.5c12.6,4.3,22.6,10.5,30,18.5c7.4,8.1,12.7,17.2,16.2,27.5
		c3.4,10.3,5.1,22,5.1,35c0,13.1-1.7,24.7-5.1,35c-3.4,10.3-8.8,19.5-16.2,27.5c-7.4,8.1-17.4,14.2-30,18.5
		c-12.6,4.3-27.6,6.5-45,6.5h-87.9V168.5H356.8z M356.8,295.2c11.8,0,21.2-3.2,28-9.6c6.9-6.4,10.3-16.3,10.3-29.6
		c0-13.5-3.4-23.4-10.2-29.7c-6.8-6.3-16.2-9.5-28.1-9.5h-30v78.4H356.8z"/>
</g>
</svg>
