<?xml version="1.0" encoding="utf-8"?>
<!-- Generator: Adobe Illustrator 24.1.3, SVG Export Plug-In . SVG Version: 6.00 Build 0)  -->
<svg version="1.1" id="Слой_1" xmlns="http://www.w3.org/2000/svg" xmlns:xlink="http://www.w3.org/1999/xlink" x="0px" y="0px"
	 viewBox="0 0 149.6 86" style="enable-background:new 0 0 149.6 86;" xml:space="preserve">
<style type="text/css">
	.st0{fill:#FFFFFF;}
</style>
<g>
	<path class="st0" d="M16.6,32.8v3.1h1.7c1.6,0,2.8,0.2,3.5,0.5c0.8,0.3,1.1,0.8,1.1,1.5c0,0.6-0.4,1.1-1.1,1.4
		c-0.7,0.3-1.8,0.5-3.3,0.5c-0.9,0-1.9-0.1-2.9-0.3c-1-0.2-1.9-0.5-2.8-0.9v3.7c1.5,0.7,3.6,1,6.3,1c1.7,0,3.1-0.2,4.3-0.6
		c1.2-0.4,2.2-1,2.8-1.8c0.6-0.8,1-1.7,1-2.7c0-1-0.3-1.8-0.9-2.4c-0.6-0.6-1.5-1.1-2.9-1.4v-0.1c2.2-0.6,3.3-1.8,3.3-3.6
		c0-1.3-0.6-2.4-1.8-3.2c-1.2-0.8-2.9-1.2-4.9-1.2c-1.3,0-2.6,0.1-3.7,0.3c-1.1,0.2-2.2,0.5-3.4,0.9l1.3,3.1
		c0.8-0.3,1.7-0.6,2.6-0.8c1-0.2,1.8-0.3,2.6-0.3c1.2,0,2,0.1,2.6,0.4c0.5,0.3,0.8,0.7,0.8,1.2c0,0.6-0.4,1-1.1,1.3
		c-0.7,0.3-1.9,0.4-3.6,0.4H16.6z"/>
	<path class="st0" d="M61.1,0h-7.5L39.8,11l4.4,5.4l4.9-4c0.6-0.5,1.6-1.5,3.1-3L52.1,14L52,18v24.8h9.1V0z"/>
	<path class="st0" d="M84.8,39.6c0.8-1.4,1.3-3,1.8-4.6c0.4-1.6,0.8-3.4,1-5.2H91v9.8H84.8z M97.9,39.6h-2.4V26.5H83.9
		c-0.3,2.9-0.7,5.4-1.3,7.6c-0.6,2.2-1.4,4.1-2.4,5.5h-1.4v9.1h4v-5.9h11v5.9h4V39.6z"/>
	<path class="st0" d="M100.7,26.5v16.4h4.5v-6.8h6.2v6.8h4.5V26.5h-4.5v6.3h-6.2v-6.3H100.7z"/>
	<path class="st0" d="M126.7,36.7h2.5v6.1h4.5V26.5h-7.6c-2.1,0-3.7,0.4-4.9,1.3c-1.2,0.9-1.8,2.1-1.8,3.7c0,1.1,0.3,2.1,0.8,2.9
		c0.5,0.8,1.3,1.5,2.4,1.9l-4.4,6.5h4.8L126.7,36.7z M124.4,30.1c0.4-0.4,1-0.5,1.7-0.5h3.1v4.1h-2.5c-0.9,0-1.6-0.2-2.1-0.6
		c-0.5-0.4-0.8-0.9-0.8-1.6C123.8,31,124,30.5,124.4,30.1z"/>
	<path class="st0" d="M0,62.5v16.4h4.5v-13h5.9v13h4.5V62.5H0z"/>
	<path class="st0" d="M31.9,78.1c0.9-0.7,1.7-1.7,2.2-2.9c0.5-1.3,0.8-2.8,0.8-4.6c0-2.7-0.5-4.7-1.6-6.2c-1.1-1.5-2.6-2.2-4.5-2.2
		c-2.1,0-3.6,0.8-4.7,2.4h-0.2l-0.6-2.1h-3.6V86h4.5v-6.6c0-0.2-0.1-1-0.2-2.4h0.2c1.1,1.4,2.6,2.1,4.5,2.1
		C29.9,79.1,31,78.8,31.9,78.1z M29.6,66.9c0.5,0.8,0.7,2,0.7,3.6c0,3.3-1,5-3,5c-1.1,0-2-0.4-2.5-1.1c-0.5-0.8-0.8-2-0.8-3.8v-0.5
		c0-1.6,0.3-2.7,0.8-3.4c0.5-0.7,1.3-1,2.4-1C28.3,65.7,29.1,66.1,29.6,66.9z"/>
	<path class="st0" d="M38.6,62.5v16.4H44l7.5-11.5c-0.2,2.1-0.3,3.8-0.3,4.9v6.5h4.3V62.5h-5.4l-7.6,11.5c0.2-2.7,0.3-4.3,0.3-5
		v-6.5H38.6z"/>
	<path class="st0" d="M60.2,62.5v16.4h5.4l7.5-11.5c-0.2,2.1-0.3,3.8-0.3,4.9v6.5h4.3V62.5h-5.4l-7.6,11.5c0.2-2.7,0.3-4.3,0.3-5
		v-6.5H60.2z M71.8,55.4c-0.1,0.9-0.4,1.6-0.9,2.1c-0.5,0.4-1.2,0.7-2.2,0.7c-1.1,0-1.9-0.2-2.3-0.6c-0.4-0.4-0.7-1.1-0.8-2.1h-4
		c0.1,1.9,0.8,3.2,1.9,4c1.1,0.8,2.8,1.2,5.1,1.2c2.2,0,4-0.4,5.2-1.3c1.2-0.8,1.9-2.2,2.1-4H71.8z"/>
	<path class="st0" d="M86.2,67c0.5-0.8,1.4-1.2,2.6-1.2c1.2,0,2.1,0.4,2.6,1.2c0.5,0.8,0.8,2,0.8,3.6c0,1.6-0.3,2.9-0.8,3.7
		c-0.5,0.8-1.4,1.2-2.6,1.2c-1.2,0-2.1-0.4-2.6-1.2c-0.5-0.8-0.8-2.1-0.8-3.7C85.4,69,85.7,67.8,86.2,67z M95.8,66.1
		c-0.6-1.3-1.6-2.3-2.8-2.9c-1.2-0.7-2.6-1-4.2-1c-2.5,0-4.5,0.7-5.9,2.2c-1.4,1.5-2.1,3.6-2.1,6.2c0,1.7,0.3,3.2,1,4.5
		c0.6,1.3,1.6,2.3,2.8,3c1.2,0.7,2.6,1,4.2,1c2.5,0,4.5-0.8,5.9-2.3c1.4-1.5,2.1-3.6,2.1-6.3C96.8,68.9,96.5,67.4,95.8,66.1z"/>
	<path class="st0" d="M121.1,62.5H115c-1.7,4.2-2.7,6.6-2.9,7.2c-0.2,0.5-0.4,1.1-0.6,1.8c-0.2,0.6-0.4,1.7-0.8,3.2
		c-0.1-0.7-0.3-1.5-0.5-2.5c-0.2-1-0.5-1.8-0.8-2.6l-2.8-7h-6.2v16.4h4.2V65.9l0.3,1c0.5,1.9,0.9,3.5,1.3,4.5l2.9,7.4h3.2l2.9-7.3
		c0.4-1.1,0.9-2.6,1.4-4.7l0.2-0.9v12.9h4.2V62.5z"/>
	<path class="st0" d="M130,78.7l-0.3,0.8c-0.3,1-0.8,1.7-1.4,2.2c-0.6,0.5-1.3,0.7-2.1,0.7c-0.6,0-1.2-0.1-1.8-0.2v3.5
		c0.7,0.2,1.5,0.2,2.3,0.2c1.6,0,3-0.4,4.1-1.3c1.2-0.8,2.1-2.1,2.7-3.8l6.9-18.5h-4.8l-3,9.2c-0.3,0.9-0.5,1.8-0.6,2.8H132
		c-0.1-1.1-0.3-2-0.5-2.8l-3.1-9.2h-4.9L130,78.7z"/>
	<path class="st0" d="M144.2,55.6l0.4,3.1l-3.1-0.9l-0.3,2.1l2.9,0.2l-1.9,2.5l2,1l1.2-2.7l1.3,2.7l1.9-1l-1.9-2.5l2.9-0.2l-0.3-2.2
		l-3.2,0.9l0.4-3.1H144.2z"/>
</g>
</svg>
