<?xml version="1.0" encoding="utf-8"?>
<!-- Generator: Adobe Illustrator 24.1.3, SVG Export Plug-In . SVG Version: 6.00 Build 0)  -->
<svg version="1.1" id="Слой_1" xmlns="http://www.w3.org/2000/svg" xmlns:xlink="http://www.w3.org/1999/xlink" x="0px" y="0px"
	 viewBox="0 0 207.2 26.5" style="enable-background:new 0 0 207.2 26.5;" xml:space="preserve">
<style type="text/css">
	.st0{fill:#FFFFFF;}
</style>
<g>
	<path class="st0" d="M15.6,3.5C14.1,2.4,12,1.9,9.4,1.9c-1.9,0-3.5,0.2-5.1,0.6c-1.5,0.4-3,1.1-4.3,2l2.2,3.4
		c2.1-1.3,4.2-1.9,6.5-1.9c1.4,0,2.5,0.2,3.3,0.7C12.7,7.1,13,7.8,13,8.6c0,1.1-0.6,1.9-1.7,2.4c-1.2,0.5-3,0.7-5.5,0.7h-2v3.9H6
		c2.5,0,4.4,0.3,5.7,0.8c1.3,0.6,1.9,1.4,1.9,2.4c0,2.3-2,3.5-6,3.5c-1.2,0-2.5-0.1-3.9-0.4c-1.4-0.3-2.6-0.7-3.6-1.1v4.2
		c2.1,0.9,4.9,1.3,8.4,1.3c3.1,0,5.6-0.6,7.4-1.9c1.8-1.3,2.7-3,2.7-5.2c0-1.6-0.6-2.9-1.8-3.9c-1.2-1-2.8-1.6-5-1.8v-0.1
		c1.9-0.3,3.3-0.9,4.4-1.9c1.1-1,1.6-2.3,1.6-3.8C17.9,6,17.2,4.6,15.6,3.5z"/>
	<path class="st0" d="M37.8,26V13.9c0-2.2-0.7-3.8-2-4.9c-1.3-1.1-3.2-1.6-5.6-1.6c-2.6,0-4.9,0.5-7,1.6l1.6,3.4
		c2-0.9,3.7-1.3,5.1-1.3c1.9,0,2.8,0.9,2.8,2.8v0.8l-3.2,0.1c-2.7,0.1-4.8,0.6-6.1,1.5c-1.4,0.9-2,2.3-2,4.3c0,1.8,0.5,3.3,1.5,4.3
		c1,1,2.4,1.5,4.1,1.5c1.4,0,2.6-0.2,3.5-0.6c0.9-0.4,1.7-1.1,2.6-2.2h0.1l1,2.5H37.8z M32.8,19.1c0,1.1-0.3,2-1,2.6
		c-0.7,0.7-1.6,1-2.8,1c-1.6,0-2.4-0.7-2.4-2.1c0-1,0.4-1.7,1.1-2.2c0.7-0.5,1.8-0.7,3.2-0.8l1.9-0.1V19.1z"/>
	<path class="st0" d="M42.9,7.8V26h6l8.4-12.7c-0.2,2.4-0.3,4.2-0.3,5.5V26h4.8V7.8h-6l-8.4,12.8c0.2-3,0.4-4.8,0.4-5.6V7.8H42.9z
		 M55.7,0c-0.1,1-0.4,1.8-1,2.3C54.2,2.8,53.4,3,52.3,3c-1.2,0-2.1-0.2-2.6-0.7c-0.5-0.5-0.8-1.2-0.8-2.4h-4.4
		c0.2,2.1,0.8,3.6,2.1,4.5c1.2,0.9,3.1,1.3,5.7,1.3c2.5,0,4.4-0.5,5.7-1.4C59.3,3.5,60,2,60.2,0H55.7z"/>
	<path class="st0" d="M81.9,9c-1.2-0.8-3.1-1.2-5.6-1.2h-9.3V26h9.3c2.6,0,4.6-0.5,6-1.4c1.4-0.9,2.1-2.3,2.1-4c0-1.1-0.4-2-1.1-2.7
		c-0.8-0.7-1.8-1.2-3.1-1.3v-0.1c1.2-0.2,2.1-0.6,2.7-1.3c0.6-0.7,0.9-1.5,0.9-2.5C83.7,11,83.1,9.8,81.9,9z M78.3,22
		c-0.5,0.4-1.4,0.6-2.4,0.6h-4v-4.3h3.9c1.1,0,1.9,0.2,2.5,0.5c0.6,0.3,0.8,0.8,0.8,1.6C79.2,21,78.9,21.6,78.3,22z M77.9,14.5
		c-0.5,0.3-1.3,0.5-2.4,0.5h-3.6v-3.6h4.2c1.8,0,2.6,0.6,2.6,1.7C78.7,13.7,78.4,14.2,77.9,14.5z"/>
	<path class="st0" d="M103.3,26V13.9c0-2.2-0.7-3.8-2-4.9C100,8,98.2,7.5,95.7,7.5c-2.6,0-4.9,0.5-7,1.6l1.6,3.4
		c2-0.9,3.7-1.3,5.1-1.3c1.9,0,2.8,0.9,2.8,2.8v0.8l-3.2,0.1c-2.7,0.1-4.8,0.6-6.1,1.5c-1.4,0.9-2,2.3-2,4.3c0,1.8,0.5,3.3,1.5,4.3
		c1,1,2.4,1.5,4.1,1.5c1.4,0,2.6-0.2,3.5-0.6c0.9-0.4,1.7-1.1,2.6-2.2h0.1l1,2.5H103.3z M98.4,19.1c0,1.1-0.3,2-1,2.6
		c-0.7,0.7-1.6,1-2.8,1c-1.6,0-2.4-0.7-2.4-2.1c0-1,0.4-1.7,1.1-2.2c0.7-0.5,1.8-0.7,3.2-0.8l1.9-0.1V19.1z"/>
	<path class="st0" d="M132,9c-1.2-0.8-3.1-1.2-5.6-1.2h-9.3V26h9.3c2.6,0,4.6-0.5,6-1.4c1.4-0.9,2.1-2.3,2.1-4c0-1.1-0.4-2-1.1-2.7
		c-0.8-0.7-1.8-1.2-3.1-1.3v-0.1c1.2-0.2,2.1-0.6,2.7-1.3c0.6-0.7,0.9-1.5,0.9-2.5C133.9,11,133.3,9.8,132,9z M128.5,22
		c-0.5,0.4-1.4,0.6-2.4,0.6h-4v-4.3h3.9c1.1,0,1.9,0.2,2.5,0.5c0.6,0.3,0.8,0.8,0.8,1.6C129.3,21,129,21.6,128.5,22z M128.1,14.5
		c-0.5,0.3-1.3,0.5-2.4,0.5h-3.6v-3.6h4.2c1.8,0,2.6,0.6,2.6,1.7C128.9,13.7,128.6,14.2,128.1,14.5z"/>
	<path class="st0" d="M153.5,26V13.9c0-2.2-0.7-3.8-2-4.9c-1.3-1.1-3.2-1.6-5.6-1.6c-2.6,0-4.9,0.5-7,1.6l1.6,3.4
		c2-0.9,3.7-1.3,5.1-1.3c1.9,0,2.8,0.9,2.8,2.8v0.8l-3.2,0.1c-2.7,0.1-4.8,0.6-6.1,1.5c-1.4,0.9-2,2.3-2,4.3c0,1.8,0.5,3.3,1.5,4.3
		c1,1,2.4,1.5,4.1,1.5c1.4,0,2.6-0.2,3.5-0.6c0.9-0.4,1.7-1.1,2.6-2.2h0.1l1,2.5H153.5z M148.5,19.1c0,1.1-0.3,2-1,2.6
		c-0.7,0.7-1.6,1-2.8,1c-1.6,0-2.4-0.7-2.4-2.1c0-1,0.4-1.7,1.1-2.2c0.7-0.5,1.8-0.7,3.2-0.8l1.9-0.1V19.1z"/>
	<path class="st0" d="M158.6,7.8V26h5V11.6h7.6V7.8H158.6z"/>
	<path class="st0" d="M189.6,26V13.9c0-2.2-0.7-3.8-2-4.9c-1.3-1.1-3.2-1.6-5.6-1.6c-2.6,0-4.9,0.5-7,1.6l1.6,3.4
		c2-0.9,3.7-1.3,5.1-1.3c1.9,0,2.8,0.9,2.8,2.8v0.8l-3.2,0.1c-2.7,0.1-4.8,0.6-6.1,1.5c-1.4,0.9-2,2.3-2,4.3c0,1.8,0.5,3.3,1.5,4.3
		c1,1,2.4,1.5,4.1,1.5c1.4,0,2.6-0.2,3.5-0.6c0.9-0.4,1.7-1.1,2.6-2.2h0.1l1,2.5H189.6z M184.6,19.1c0,1.1-0.3,2-1,2.6
		c-0.7,0.7-1.6,1-2.8,1c-1.6,0-2.4-0.7-2.4-2.1c0-1,0.4-1.7,1.1-2.2c0.7-0.5,1.8-0.7,3.2-0.8l1.9-0.1V19.1z"/>
	<path class="st0" d="M200.9,18.1v-1c0-0.7,0.1-1.2,0.4-1.6c0.3-0.4,0.9-1,2-1.8c1.5-1.1,2.6-2.1,3.1-2.9c0.5-0.9,0.8-1.9,0.8-3.1
		c0-1.8-0.7-3.2-2-4.3s-3.1-1.6-5.3-1.6c-2.7,0-5.3,0.7-7.7,2l1.8,3.6c2.1-1.1,3.9-1.6,5.6-1.6c0.9,0,1.7,0.2,2.2,0.6
		c0.5,0.4,0.8,0.9,0.8,1.6c0,0.6-0.2,1.2-0.5,1.7c-0.4,0.5-1.1,1.2-2.3,2c-1.2,0.9-2,1.7-2.4,2.5c-0.4,0.8-0.7,1.7-0.7,2.7v1.2
		H200.9z M196.8,25.7c0.5,0.5,1.2,0.7,2.1,0.7c0.9,0,1.6-0.2,2.1-0.7c0.5-0.5,0.7-1.2,0.7-2c0-0.9-0.2-1.6-0.7-2.1
		c-0.5-0.5-1.2-0.7-2.1-0.7c-0.9,0-1.6,0.2-2.1,0.7c-0.5,0.5-0.7,1.2-0.7,2.1C196.1,24.6,196.3,25.3,196.8,25.7z"/>
</g>
</svg>
