<svg id="Слой_1" xmlns="http://www.w3.org/2000/svg" xmlns:xlink="http://www.w3.org/1999/xlink" viewBox="0 0 223.1 64.1" style="enable-background:new 0 0 223.1 64.1"><style>.st0{fill:#fff}</style><g><path class="st0" d="M26 4.2h6.5V0h-18v4.2H21v19.6h5V4.2z"/><path class="st0" d="M50.7 6.8c-1.2-.8-3.1-1.2-5.6-1.2h-9.3v18.2h9.3c2.6.0 4.6-.5 6-1.4 1.4-.9 2.1-2.3 2.1-4 0-1.1-.4-2-1.1-2.7-.8-.7-1.8-1.2-3.1-1.3v-.1c1.2-.2 2.1-.6 2.7-1.3.6-.7.9-1.5.9-2.5C52.5 8.8 51.9 7.6 50.7 6.8zM47.1 19.8c-.5.4-1.4.6-2.4.6h-4v-4.3h3.9c1.1.0 1.9.2 2.5.5.6.3.8.8.8 1.6C48 18.8 47.7 19.4 47.1 19.8zM46.7 12.2c-.5.3-1.3.5-2.4.5h-3.6V9.1h4.2c1.8.0 2.6.6 2.6 1.7C47.5 11.4 47.2 11.9 46.7 12.2z"/><path class="st0" d="M61.9 10.6c.6-.9 1.5-1.3 2.9-1.3 1.3.0 2.3.5 2.9 1.4.6.9.9 2.3.9 4.1.0 1.8-.3 3.2-.9 4.1-.6.9-1.5 1.4-2.9 1.4-1.3.0-2.3-.5-2.9-1.4-.6-.9-.9-2.3-.9-4.1C61 12.9 61.3 11.5 61.9 10.6zM72.5 9.7c-.7-1.4-1.7-2.5-3.1-3.3-1.3-.8-2.9-1.1-4.6-1.1-2.8.0-5 .8-6.6 2.5-1.6 1.6-2.3 4-2.3 6.9.0 1.9.4 3.6 1.1 5 .7 1.4 1.7 2.5 3.1 3.3 1.3.8 2.9 1.1 4.6 1.1 2.8.0 5-.8 6.5-2.5 1.6-1.7 2.3-4 2.3-6.9C73.6 12.8 73.3 11.1 72.5 9.7z"/><path class="st0" d="M91 22.9v-3.8c-1.1.5-2.1.8-3 1-.9.2-1.7.3-2.6.3-1.1.0-2-.3-2.6-1-.6-.7-1-1.7-1.1-3.1h6.9V13h-6.9c.2-1.4.6-2.4 1.2-3 .6-.7 1.5-1 2.6-1 1.2.0 2.7.4 4.5 1.1l1.4-3.5c-1.9-.8-3.8-1.2-5.8-1.2-3.1.0-5.4.8-6.9 2.3-1.5 1.6-2.2 4-2.2 7.2.0 3.1.8 5.4 2.3 7 1.5 1.6 3.8 2.4 6.8 2.4C87.7 24.1 89.5 23.7 91 22.9v0z"/><path class="st0" d="M107 5.6h-5.1l6.7 8.7-7.4 9.5h5.3l6.9-9.2v9.2h4.6v-9.2l6.9 9.2h5.3l-7.4-9.5 6.7-8.7h-5.1l-6.5 8.8V5.6h-4.6v8.8L107 5.6z"/><path class="st0" d="M133 5.6v18.2h6l8.4-12.7c-.2 2.4-.3 4.2-.3 5.5v7.3h4.8V5.6h-6l-8.4 12.8c.2-3 .4-4.8.4-5.6V5.6H133z"
		/><path class="st0" d="M155.2 5.6v3.7h6v14.5h5V9.3h6V5.6h-17z"/><path class="st0" d="M173.7 5.6v3.7h6v14.5h5V9.3h6V5.6h-17z"/><path class="st0" d="M200.9 17h2.7v6.8h5V5.6h-8.5c-2.3.0-4.1.5-5.4 1.5-1.3 1-2 2.4-2 4.1.0 1.2.3 2.3.9 3.3.6.9 1.5 1.6 2.7 2.1l-4.9 7.2h5.4L200.9 17zM198.3 9.7c.5-.4 1.1-.6 1.9-.6h3.4v4.6h-2.8c-1 0-1.7-.2-2.3-.6-.6-.4-.9-1-.9-1.8C197.6 10.6 197.8 10.1 198.3 9.7z"/><path class="st0" d="M11.5 44.2H18V40H0v4.2h6.5v19.6h5.1V44.2z"/><path class="st0" d="M36.2 46.8c-1.2-.8-3.1-1.2-5.6-1.2h-9.3v18.2h9.3c2.6.0 4.6-.5 6-1.4 1.4-.9 2.1-2.3 2.1-4 0-1.1-.4-2-1.1-2.7-.8-.7-1.8-1.2-3.1-1.3v-.1c1.2-.2 2.1-.6 2.7-1.3.6-.7.9-1.5.9-2.5C38.1 48.8 37.5 47.6 36.2 46.8zm-3.5 13c-.5.4-1.4.6-2.4.6h-4v-4.3h3.9c1.1.0 1.9.2 2.5.5.6.3.8.8.8 1.6C33.5 58.8 33.2 59.4 32.7 59.8zM32.2 52.2c-.5.3-1.3.5-2.4.5h-3.6v-3.6h4.2c1.8.0 2.6.6 2.6 1.7C33.1 51.4 32.8 51.9 32.2 52.2z"/><path class="st0" d="M47.4 50.6c.6-.9 1.5-1.3 2.9-1.3 1.3.0 2.3.5 2.9 1.4.6.9.9 2.3.9 4.1.0 1.8-.3 3.2-.9 4.1-.6.9-1.5 1.4-2.9 1.4-1.3.0-2.3-.5-2.9-1.4-.6-.9-.9-2.3-.9-4.1C46.6 52.9 46.9 51.5 47.4 50.6zM58.1 49.7c-.7-1.4-1.7-2.5-3.1-3.3-1.3-.8-2.9-1.1-4.6-1.1-2.8.0-5 .8-6.6 2.5-1.6 1.6-2.3 4-2.3 6.9.0 1.9.4 3.6 1.1 5s1.7 2.5 3.1 3.3c1.3.8 2.9 1.1 4.6 1.1 2.8.0 5-.8 6.5-2.5 1.6-1.7 2.3-4 2.3-6.9C59.2 52.8 58.8 51.1 58.1 49.7z"/><path class="st0" d="M70.2 57h2.7v6.8h5V45.6h-8.5c-2.3.0-4.1.5-5.4 1.5-1.3 1-2 2.4-2 4.1.0 1.2.3 2.3.9 3.3.6.9 1.5 1.6 2.7 2.1l-4.9 7.2H66L70.2 57zM67.6 49.7c.5-.4 1.1-.6 1.9-.6h3.4v4.6h-2.8c-1 0-1.7-.2-2.3-.6-.6-.4-.9-1-.9-1.8C66.9 50.6 67.1 50.1 67.6 49.7z"/><path class="st0" d="M91.7 45.6v18.2h5V49.3h6.6v14.5h5V45.6H91.7z"/><path class="st0" d="M123.6 49.8c.6.7.9 1.6 1 2.8h-7c.1-1.2.4-2.2 1-2.8.6-.7 1.4-1 2.5-1C122.1 48.8 122.9 49.1 123.6 49.8zM125.4 63.8c1-.2 1.9-.5 2.8-1V59c-1.1.5-2.1.9-3.1 1.1-1 .2-2 .3-3.1.3-1.4.0-2.5-.4-3.3-1.2-.8-.8-1.2-1.9-1.3-3.3h11.8v-2.4c0-2.6-.7-4.6-2.2-6.1-1.4-1.5-3.4-2.2-6-2.2-2.7.0-4.8.8-6.3 2.5-1.5 1.7-2.3 4-2.3 7.1.0 3 .8 5.3 2.5 6.9 1.7 1.6 3.9 2.4 6.9 2.4C123.2 64.1 124.4 64 125.4 63.8z"/><path class="st0" d="M132.6 45.6v6.8c0 1.9.5 3.3 1.6 4.3 1.1 1 2.6 1.5 4.6 1.5.9.0 1.9-.1 2.9-.4 1-.2 2.1-.7 3.2-1.3v7.2h5V45.6h-5v7.9c-.8.3-1.7.6-2.5.8-.8.2-1.7.3-2.7.3-1.5.0-2.2-.8-2.2-2.4v-6.7H132.6z"/><path class="st0" d="M157.6 43.3c.9.0 1.6-.2 2-.6.5-.4.7-1 .7-1.8.0-1.6-.9-2.4-2.7-2.4-1.8.0-2.7.8-2.7 2.4C154.9 42.5 155.8 43.3 157.6 43.3v0zM160.1 45.6h-5v18.2h5V45.6z"/><path class="st0" d="M165.3 45.6v18.2h5v-7.5h6.9v7.5h5V45.6h-5v7h-6.9v-7h-5z"/><path class="st0" d="M192.4 54.4v-8.8h-5v18.2h5v-9.2l7.4 9.2h5.6l-7.9-9.5 7.2-8.7h-5.5L192.4 54.4z"/><path class="st0" d="M223.1 63.8V51.7c0-2.2-.7-3.8-2-4.9-1.3-1.1-3.2-1.6-5.6-1.6-2.6.0-4.9.5-7 1.6l1.6 3.4c2-.9 3.7-1.3 5.1-1.3 1.9.0 2.8.9 2.8 2.8v.8l-3.2.1c-2.7.1-4.8.6-6.1 1.5-1.4.9-2 2.3-2 4.3.0 1.8.5 3.3 1.5 4.3 1 1 2.4 1.5 4.1 1.5 1.4.0 2.6-.2 3.5-.6.9-.4 1.7-1.1 2.6-2.2h.1l1 2.5H223.1zM218.2 56.9c0 1.1-.3 2-1 2.6-.7.7-1.6 1-2.8 1-1.6.0-2.4-.7-2.4-2.1.0-1 .4-1.7 1.1-2.2.7-.5 1.8-.7 3.2-.8l1.9-.1V56.9z"/></g></svg>