<?xml version="1.0" encoding="utf-8"?>
<!-- Generator: Adobe Illustrator 22.1.0, SVG Export Plug-In . SVG Version: 6.00 Build 0)  -->
<svg version="1.1" id="Layer_1" xmlns="http://www.w3.org/2000/svg" xmlns:xlink="http://www.w3.org/1999/xlink" x="0px" y="0px"
	 viewBox="0 0 146 39.5" style="enable-background:new 0 0 146 39.5;" xml:space="preserve">
<style type="text/css">
	.st0{fill:#FFFFFF;}
</style>
<g>
	<g>
		<path class="st0" d="M4.7,4.6h2L7.7,6C7.9,5.8,8,5.5,8.1,5.3s0.1-0.5,0.1-0.8c0-0.4-0.1-0.8-0.2-1.1C7.8,3,7.6,2.7,7.3,2.5
			C7.1,2.2,6.8,2,6.4,1.8C6.1,1.7,5.7,1.6,5.3,1.6c-0.4,0-0.8,0.1-1.1,0.2C3.8,2,3.5,2.2,3.3,2.5C3,2.7,2.8,3,2.7,3.4
			C2.5,3.7,2.4,4.1,2.4,4.5s0.1,0.8,0.2,1.1C2.8,6,3,6.3,3.3,6.5C3.5,6.8,3.8,7,4.2,7.2c0.3,0.2,0.7,0.2,1.1,0.2
			c0.3,0,0.6,0,0.9-0.1l1,1.3C6.6,8.9,6,9,5.3,9C4.7,9,4.1,8.9,3.6,8.6s-1-0.6-1.4-1c-0.4-0.4-0.7-0.9-1-1.4
			C0.9,5.7,0.8,5.1,0.8,4.5s0.1-1.2,0.3-1.8c0.2-0.5,0.5-1,1-1.4c0.4-0.4,0.9-0.7,1.4-1S4.7,0,5.3,0s1.2,0.1,1.8,0.4s1,0.6,1.4,1
			c0.4,0.4,0.7,0.9,1,1.4s0.3,1.1,0.3,1.8c0,0.6-0.1,1.1-0.3,1.5S9.1,7,8.8,7.4L10,8.9H8L4.7,4.6z"/>
		<path class="st0" d="M10.5,0.1h1.6v7.2h3.2v1.6h-4.8V0.1z"/>
		<path class="st0" d="M16.3,0.1h5.2v1.6H18v2h3.6v1.6H18v2.1h3.6v1.6h-5.2V0.1z"/>
		<path class="st0" d="M22.4,0.1h2.4c0.7,0,1.4,0.1,2,0.3c0.6,0.2,1.1,0.5,1.5,0.9c0.4,0.4,0.7,0.9,0.9,1.4c0.2,0.5,0.3,1.1,0.3,1.7
			s-0.1,1.2-0.3,1.7c-0.2,0.5-0.5,1-0.9,1.4c-0.4,0.4-0.9,0.7-1.4,0.9c-0.6,0.2-1.2,0.3-1.8,0.3h-2.5V0.1z M24.1,1.6v5.7h0.6
			c0.5,0,0.9-0.1,1.3-0.2c0.4-0.1,0.7-0.3,1-0.6c0.3-0.3,0.5-0.6,0.6-0.9s0.2-0.7,0.2-1.1c0-0.4-0.1-0.8-0.2-1.2
			C27.5,3,27.3,2.7,27,2.4c-0.3-0.3-0.6-0.5-1-0.6c-0.4-0.1-0.9-0.2-1.4-0.2H24.1z"/>
		<path class="st0" d="M35.3,1.7H33V0.1h6.3v1.6h-2.4v7.2h-1.6V1.7z"/>
		<path class="st0" d="M39.9,0.1h1.7l2.1,6.3l2.1-6.3h1.7l-2.9,8.8h-1.6L39.9,0.1z"/>
	</g>
</g>
<path class="st0" d="M3.5,23.7c-0.7,0-1.3-0.1-1.8-0.3s-0.9-0.5-1.3-0.9l1.1-1c0.3,0.3,0.5,0.5,0.9,0.6c0.3,0.1,0.7,0.2,1.1,0.2
	c0.4,0,0.7-0.1,1-0.2c0.2-0.1,0.3-0.3,0.3-0.6c0-0.3-0.1-0.4-0.4-0.6s-0.6-0.2-1-0.2H2.4v-1.4h1c0.4,0,0.7-0.1,0.9-0.2
	s0.3-0.3,0.3-0.5c0-0.2-0.1-0.4-0.3-0.5c-0.2-0.1-0.5-0.2-0.9-0.2c-0.4,0-0.7,0.1-1,0.2c-0.3,0.1-0.5,0.3-0.8,0.6l-1.1-1
	c0.3-0.4,0.8-0.7,1.3-0.9c0.5-0.2,1.1-0.3,1.7-0.3c0.4,0,0.8,0,1.1,0.1s0.6,0.2,0.9,0.4c0.2,0.2,0.4,0.4,0.5,0.6
	c0.1,0.2,0.2,0.5,0.2,0.8c0,0.4-0.1,0.7-0.2,0.9s-0.4,0.5-0.7,0.6c0.3,0.1,0.6,0.3,0.8,0.6c0.2,0.3,0.3,0.6,0.3,1
	c0,0.3-0.1,0.6-0.2,0.9s-0.3,0.5-0.6,0.7s-0.5,0.3-0.9,0.5C4.4,23.6,4,23.7,3.5,23.7z"/>
<path class="st0" d="M9.9,14.8c0-0.3,0.1-0.6,0.3-0.7c0.2-0.2,0.4-0.3,0.7-0.3c0.3,0,0.6,0.1,0.8,0.3c0.2,0.2,0.3,0.4,0.3,0.7
	s-0.1,0.5-0.3,0.7c-0.2,0.2-0.4,0.3-0.8,0.3c-0.3,0-0.6-0.1-0.8-0.3C10,15.4,9.9,15.1,9.9,14.8z M10.1,16.5h1.6v7h-1.6V16.5z"/>
<path class="st0" d="M17.3,20.8h-3v2.8h-1.6v-7h1.6v2.7h3v-2.7H19v7h-1.6V20.8z"/>
<path class="st0" d="M21.8,18h-2.2v-1.5h6V18h-2.2v5.5h-1.6V18z"/>
<path class="st0" d="M28.5,19.3h2.8c-0.1-0.4-0.4-0.8-0.7-1.1c-0.4-0.3-0.8-0.4-1.3-0.4c-0.4,0-0.8,0.1-1.1,0.3
	c-0.3,0.2-0.6,0.5-0.8,0.9L26,18.3c0.3-0.6,0.7-1.1,1.3-1.4s1.2-0.5,2-0.5c0.5,0,1,0.1,1.5,0.3c0.4,0.2,0.8,0.4,1.2,0.8
	s0.6,0.7,0.8,1.2C32.9,19,33,19.5,33,20c0,0.5-0.1,1-0.3,1.4c-0.2,0.4-0.4,0.8-0.8,1.2c-0.3,0.3-0.7,0.6-1.2,0.8
	c-0.5,0.2-1,0.3-1.5,0.3c-0.4,0-0.8-0.1-1.1-0.1c-0.3-0.1-0.7-0.2-0.9-0.4c-0.3-0.2-0.5-0.4-0.8-0.6c-0.2-0.2-0.4-0.5-0.5-0.8
	l1.4-0.7c0.2,0.4,0.4,0.7,0.7,0.9s0.7,0.4,1.2,0.4c0.5,0,1-0.1,1.3-0.4c0.4-0.3,0.6-0.6,0.8-1.1h-2.9V19.3z"/>
<path class="st0" d="M37.6,23.7c-0.5,0-0.9-0.1-1.3-0.3s-0.7-0.4-1-0.7v4.1h-1.6V16.5h1.6v0.9c0.2-0.3,0.6-0.6,1-0.8
	c0.4-0.2,0.8-0.3,1.3-0.3c0.4,0,0.9,0.1,1.3,0.2s0.8,0.4,1.1,0.7c0.3,0.3,0.6,0.7,0.8,1.1c0.2,0.5,0.3,1,0.3,1.6
	c0,0.6-0.1,1.1-0.3,1.5s-0.5,0.8-0.8,1.1c-0.3,0.3-0.7,0.5-1.1,0.7S38,23.7,37.6,23.7z M37.3,22.2c0.3,0,0.6-0.1,0.8-0.2
	c0.3-0.1,0.5-0.3,0.7-0.5c0.2-0.2,0.3-0.4,0.5-0.7c0.1-0.3,0.2-0.6,0.2-0.9s-0.1-0.6-0.2-0.9c-0.1-0.3-0.3-0.5-0.5-0.7
	c-0.2-0.2-0.4-0.3-0.7-0.5c-0.3-0.1-0.5-0.2-0.8-0.2c-0.3,0-0.6,0.1-0.8,0.2c-0.3,0.1-0.5,0.3-0.7,0.5c-0.2,0.2-0.3,0.4-0.4,0.7
	c-0.1,0.3-0.2,0.5-0.2,0.8c0,0.3,0.1,0.6,0.2,0.9c0.1,0.3,0.2,0.5,0.4,0.7c0.2,0.2,0.4,0.4,0.7,0.5C36.7,22.1,37,22.2,37.3,22.2z"/>
<path class="st0" d="M41.5,17.2l0.4-2.4h1.4l-0.8,2.4H41.5z"/>
<path class="st0" d="M47.6,23.7c-0.6,0-1.1-0.1-1.5-0.3c-0.5-0.2-0.8-0.4-1.2-0.8c-0.3-0.3-0.6-0.7-0.8-1.2
	c-0.2-0.4-0.3-0.9-0.3-1.4c0-0.5,0.1-1,0.3-1.4c0.2-0.4,0.4-0.8,0.8-1.2c0.3-0.3,0.7-0.6,1.2-0.8s0.9-0.3,1.4-0.3
	c0.5,0,1,0.1,1.4,0.3s0.8,0.4,1.1,0.8c0.3,0.3,0.6,0.7,0.8,1.1c0.2,0.4,0.3,0.9,0.3,1.4v0.6h-5.7c0.1,0.5,0.4,0.9,0.7,1.2
	c0.4,0.3,0.9,0.4,1.4,0.4c0.5,0,0.9-0.1,1.2-0.3c0.3-0.2,0.6-0.5,0.8-0.9l1.3,0.8c-0.3,0.6-0.7,1-1.3,1.4
	C49.1,23.5,48.4,23.7,47.6,23.7z M47.6,17.8c-0.5,0-0.9,0.1-1.3,0.4c-0.4,0.3-0.6,0.6-0.8,1h4c-0.1-0.5-0.4-0.8-0.7-1.1
	C48.5,17.9,48.1,17.8,47.6,17.8z"/>
<path class="st0" d="M55.8,23.7c-0.5,0-0.9-0.1-1.3-0.3s-0.7-0.4-1-0.7v4.1h-1.6V16.5h1.6v0.9c0.2-0.3,0.6-0.6,1-0.8
	c0.4-0.2,0.8-0.3,1.3-0.3c0.4,0,0.9,0.1,1.3,0.2s0.8,0.4,1.1,0.7c0.3,0.3,0.6,0.7,0.8,1.1c0.2,0.5,0.3,1,0.3,1.6
	c0,0.6-0.1,1.1-0.3,1.5s-0.5,0.8-0.8,1.1c-0.3,0.3-0.7,0.5-1.1,0.7S56.2,23.7,55.8,23.7z M55.5,22.2c0.3,0,0.6-0.1,0.8-0.2
	c0.3-0.1,0.5-0.3,0.7-0.5c0.2-0.2,0.3-0.4,0.5-0.7c0.1-0.3,0.2-0.6,0.2-0.9s-0.1-0.6-0.2-0.9c-0.1-0.3-0.3-0.5-0.5-0.7
	c-0.2-0.2-0.4-0.3-0.7-0.5c-0.3-0.1-0.5-0.2-0.8-0.2c-0.3,0-0.6,0.1-0.8,0.2c-0.3,0.1-0.5,0.3-0.7,0.5c-0.2,0.2-0.3,0.4-0.4,0.7
	c-0.1,0.3-0.2,0.5-0.2,0.8c0,0.3,0.1,0.6,0.2,0.9c0.1,0.3,0.2,0.5,0.4,0.7c0.2,0.2,0.4,0.4,0.7,0.5C55,22.1,55.2,22.2,55.5,22.2z"/>
<path class="st0" d="M64.6,20.8h-3v2.8h-1.6v-7h1.6v2.7h3v-2.7h1.6v7h-1.6V20.8z"/>
<path class="st0" d="M67.2,16.5h1.6v2.1h1.4c0.4,0,0.8,0.1,1.2,0.2s0.6,0.3,0.9,0.5c0.2,0.2,0.4,0.5,0.6,0.8s0.2,0.6,0.2,0.9
	s-0.1,0.7-0.2,1c-0.1,0.3-0.3,0.6-0.6,0.8s-0.5,0.4-0.9,0.5c-0.3,0.1-0.7,0.2-1.1,0.2h-3.1V16.5z M70.2,22.1c0.4,0,0.7-0.1,0.9-0.3
	c0.2-0.2,0.4-0.5,0.4-0.8c0-0.3-0.1-0.6-0.4-0.8c-0.2-0.2-0.5-0.3-0.9-0.3h-1.4v2.1H70.2z M73.5,16.5h1.6v7h-1.6V16.5z"/>
<path class="st0" d="M76.2,16.5h1.5l2.3,2.8l2.4-2.8h1.4v7h-1.6v-4.6L80,21.5L77.8,19v4.6h-1.6V16.5z"/>
<path class="st0" d="M91.5,23.7c-0.5,0-0.9-0.1-1.3-0.3s-0.7-0.4-1-0.7v4.1h-1.6V16.5h1.6v0.9c0.2-0.3,0.6-0.6,1-0.8
	c0.4-0.2,0.8-0.3,1.3-0.3c0.4,0,0.9,0.1,1.3,0.2s0.8,0.4,1.1,0.7c0.3,0.3,0.6,0.7,0.8,1.1c0.2,0.5,0.3,1,0.3,1.6
	c0,0.6-0.1,1.1-0.3,1.5s-0.5,0.8-0.8,1.1c-0.3,0.3-0.7,0.5-1.1,0.7S92,23.7,91.5,23.7z M91.3,22.2c0.3,0,0.6-0.1,0.8-0.2
	c0.3-0.1,0.5-0.3,0.7-0.5c0.2-0.2,0.3-0.4,0.5-0.7c0.1-0.3,0.2-0.6,0.2-0.9s-0.1-0.6-0.2-0.9c-0.1-0.3-0.3-0.5-0.5-0.7
	c-0.2-0.2-0.4-0.3-0.7-0.5c-0.3-0.1-0.5-0.2-0.8-0.2c-0.3,0-0.6,0.1-0.8,0.2c-0.3,0.1-0.5,0.3-0.7,0.5c-0.2,0.2-0.3,0.4-0.4,0.7
	c-0.1,0.3-0.2,0.5-0.2,0.8c0,0.3,0.1,0.6,0.2,0.9c0.1,0.3,0.2,0.5,0.4,0.7c0.2,0.2,0.4,0.4,0.7,0.5C90.7,22.1,91,22.2,91.3,22.2z"/>
<path class="st0" d="M97.9,19.3h2.8c-0.1-0.4-0.4-0.8-0.7-1.1c-0.4-0.3-0.8-0.4-1.3-0.4c-0.4,0-0.8,0.1-1.1,0.3
	c-0.3,0.2-0.6,0.5-0.8,0.9l-1.4-0.7c0.3-0.6,0.7-1.1,1.3-1.4s1.2-0.5,2-0.5c0.5,0,1,0.1,1.5,0.3c0.4,0.2,0.8,0.4,1.2,0.8
	s0.6,0.7,0.8,1.2c0.2,0.4,0.3,0.9,0.3,1.5c0,0.5-0.1,1-0.3,1.4c-0.2,0.4-0.4,0.8-0.8,1.2c-0.3,0.3-0.7,0.6-1.2,0.8
	c-0.5,0.2-1,0.3-1.5,0.3c-0.4,0-0.8-0.1-1.1-0.1c-0.3-0.1-0.7-0.2-0.9-0.4c-0.3-0.2-0.5-0.4-0.8-0.6c-0.2-0.2-0.4-0.5-0.5-0.8
	l1.4-0.7c0.2,0.4,0.4,0.7,0.7,0.9s0.7,0.4,1.2,0.4c0.5,0,1-0.1,1.3-0.4c0.4-0.3,0.6-0.6,0.8-1.1h-2.9V19.3z"/>
<path class="st0" d="M106.3,20.8h-0.5l-2,2.8h-1.8l2.6-3.6l-2.5-3.4h1.8l2,2.8h0.4v-2.8h1.6v2.8h0.4l2-2.8h1.8l-2.5,3.4v0l2.6,3.6
	h-1.8l-2-2.8h-0.5v2.8h-1.6V20.8z"/>
<path class="st0" d="M112.8,16.5h1.6v2.1h1.4c0.4,0,0.8,0.1,1.2,0.2s0.6,0.3,0.9,0.5c0.2,0.2,0.4,0.5,0.6,0.8s0.2,0.6,0.2,0.9
	s-0.1,0.7-0.2,1c-0.1,0.3-0.3,0.6-0.6,0.8s-0.5,0.4-0.9,0.5c-0.3,0.1-0.7,0.2-1.1,0.2h-3.1V16.5z M115.8,22.1c0.4,0,0.7-0.1,0.9-0.3
	c0.2-0.2,0.4-0.5,0.4-0.8c0-0.3-0.1-0.6-0.4-0.8c-0.2-0.2-0.5-0.3-0.9-0.3h-1.4v2.1H115.8z M119.1,16.5h1.6v7h-1.6V16.5z"/>
<path class="st0" d="M121.8,16.5h1.5l2.3,2.8l2.4-2.8h1.4v7h-1.6v-4.6l-2.2,2.6l-2.2-2.5v4.6h-1.6V16.5z"/>
<path class="st0" d="M133.5,23.7c-0.4,0-0.8-0.1-1.3-0.2c-0.4-0.2-0.8-0.4-1.1-0.7s-0.6-0.7-0.8-1.1s-0.3-1-0.3-1.5
	c0-0.6,0.1-1.1,0.3-1.6c0.2-0.5,0.5-0.8,0.8-1.1c0.3-0.3,0.7-0.5,1.1-0.7s0.8-0.2,1.3-0.2c0.5,0,0.9,0.1,1.3,0.3s0.7,0.4,1,0.7v-0.8
	h1.6v7h-1.6v-0.9c-0.3,0.3-0.6,0.6-1,0.8C134.4,23.6,134,23.7,133.5,23.7z M133.8,22.2c0.3,0,0.6-0.1,0.8-0.2
	c0.3-0.1,0.5-0.3,0.7-0.5c0.2-0.2,0.3-0.4,0.4-0.7c0.1-0.3,0.2-0.5,0.2-0.9c0-0.3-0.1-0.6-0.2-0.8c-0.1-0.3-0.3-0.5-0.4-0.7
	c-0.2-0.2-0.4-0.3-0.7-0.5c-0.3-0.1-0.5-0.2-0.8-0.2c-0.3,0-0.6,0.1-0.8,0.2c-0.3,0.1-0.5,0.3-0.7,0.5c-0.2,0.2-0.3,0.4-0.5,0.7
	c-0.1,0.3-0.2,0.5-0.2,0.9s0.1,0.6,0.2,0.9s0.3,0.5,0.5,0.7c0.2,0.2,0.4,0.4,0.7,0.5C133.2,22.1,133.5,22.2,133.8,22.2z"/>
<path class="st0" d="M138.4,16.5h1.5l2.3,2.8l2.4-2.8h1.4v7h-1.6v-4.6l-2.2,2.6L140,19v4.6h-1.6V16.5z"/>
<path class="st0" d="M3.1,30.6h1.6l3.1,8.8H6.2l-0.5-1.6H2.2l-0.5,1.6H0L3.1,30.6z M2.8,36.2h2.3l-1.2-3.3L2.8,36.2z"/>
<path class="st0" d="M8.5,32.3h1.6v0.8c0.2-0.3,0.5-0.5,0.8-0.7c0.3-0.2,0.7-0.3,1.2-0.3c0.6,0,1,0.1,1.4,0.3
	c0.4,0.2,0.7,0.5,0.9,0.9c0.2-0.4,0.6-0.7,1-0.9c0.4-0.2,0.8-0.3,1.3-0.3c0.9,0,1.7,0.3,2.1,0.8c0.5,0.5,0.7,1.2,0.7,2.2v4.2h-1.7
	v-4.1c0-0.5-0.1-0.9-0.4-1.2c-0.3-0.3-0.6-0.4-1.1-0.4c-0.4,0-0.8,0.2-1.1,0.5c-0.3,0.3-0.4,0.8-0.4,1.4v3.9h-1.6v-4.1
	c0-0.5-0.1-0.9-0.4-1.2c-0.2-0.3-0.6-0.4-1.1-0.4c-0.5,0-0.8,0.2-1.1,0.5s-0.5,0.8-0.5,1.4v3.9H8.5V32.3z"/>
<path class="st0" d="M24.4,39.5c-0.5,0-0.9-0.1-1.3-0.3c-0.4-0.2-0.7-0.4-1-0.8v0.9h-1.6v-8.9h1.6v2.7c0.2-0.3,0.6-0.6,1-0.8
	c0.4-0.2,0.8-0.3,1.3-0.3c0.4,0,0.9,0.1,1.3,0.2s0.8,0.4,1.1,0.7c0.3,0.3,0.6,0.7,0.8,1.1c0.2,0.5,0.3,1,0.3,1.6
	c0,0.6-0.1,1.1-0.3,1.5s-0.5,0.8-0.8,1.1c-0.3,0.3-0.7,0.5-1.1,0.7S24.8,39.5,24.4,39.5z M24.1,38c0.3,0,0.6-0.1,0.8-0.2
	c0.3-0.1,0.5-0.3,0.7-0.5c0.2-0.2,0.3-0.4,0.5-0.7c0.1-0.3,0.2-0.6,0.2-0.9S26.1,35.2,26,35c-0.1-0.3-0.3-0.5-0.5-0.7
	c-0.2-0.2-0.4-0.3-0.7-0.5c-0.3-0.1-0.5-0.2-0.8-0.2c-0.3,0-0.6,0.1-0.8,0.2c-0.3,0.1-0.5,0.3-0.7,0.5c-0.2,0.2-0.3,0.4-0.4,0.7
	C22,35.2,22,35.5,22,35.8c0,0.3,0.1,0.6,0.2,0.9c0.1,0.3,0.2,0.5,0.4,0.7c0.2,0.2,0.4,0.4,0.7,0.5C23.5,37.9,23.8,38,24.1,38z"/>
<path class="st0" d="M28.3,30.6c0-0.3,0.1-0.6,0.3-0.7c0.2-0.2,0.4-0.3,0.7-0.3c0.3,0,0.6,0.1,0.8,0.3c0.2,0.2,0.3,0.4,0.3,0.7
	s-0.1,0.5-0.3,0.7c-0.2,0.2-0.4,0.3-0.8,0.3c-0.3,0-0.6-0.1-0.8-0.3C28.3,31.2,28.3,30.9,28.3,30.6z M28.5,32.3h1.6v7h-1.6V32.3z"/>
<path class="st0" d="M34.5,39.5c-0.6,0-1.1-0.1-1.5-0.3c-0.5-0.2-0.8-0.4-1.2-0.8c-0.3-0.3-0.6-0.7-0.8-1.2
	c-0.2-0.4-0.3-0.9-0.3-1.4c0-0.5,0.1-1,0.3-1.4c0.2-0.4,0.4-0.8,0.8-1.2c0.3-0.3,0.7-0.6,1.2-0.8s0.9-0.3,1.4-0.3
	c0.5,0,1,0.1,1.4,0.3s0.8,0.4,1.1,0.8c0.3,0.3,0.6,0.7,0.8,1.1c0.2,0.4,0.3,0.9,0.3,1.4v0.6h-5.7c0.1,0.5,0.4,0.9,0.7,1.2
	c0.4,0.3,0.9,0.5,1.4,0.5c0.5,0,0.9-0.1,1.2-0.3c0.3-0.2,0.6-0.5,0.8-0.9l1.3,0.8c-0.3,0.6-0.7,1-1.3,1.4
	C36,39.3,35.3,39.5,34.5,39.5z M34.5,33.6c-0.5,0-0.9,0.1-1.3,0.4c-0.4,0.3-0.6,0.6-0.8,1h4c-0.1-0.5-0.4-0.8-0.7-1.1
	C35.4,33.7,35,33.6,34.5,33.6z"/>
<path class="st0" d="M38.8,32.3h1.6v0.9c0.2-0.3,0.5-0.5,0.9-0.7c0.4-0.2,0.8-0.3,1.2-0.3c0.9,0,1.6,0.3,2,0.8
	c0.5,0.5,0.7,1.3,0.7,2.2v4.2h-1.6v-4c0-0.5-0.1-1-0.4-1.3c-0.3-0.3-0.7-0.5-1.2-0.5c-0.5,0-0.9,0.2-1.2,0.5
	c-0.3,0.3-0.5,0.8-0.5,1.4v3.9h-1.6V32.3z"/>
<path class="st0" d="M45.7,32.3h1.2v-1.1l1.6-1.1v2.2h1.4v1.5h-1.4v2.6c0,0.3,0,0.6,0,0.7c0,0.2,0.1,0.3,0.2,0.4s0.2,0.2,0.4,0.2
	c0.2,0,0.4,0,0.8,0v1.5h-0.2c-0.5,0-1,0-1.4-0.1s-0.7-0.3-0.9-0.5c-0.2-0.2-0.4-0.5-0.5-0.9c-0.1-0.4-0.1-0.8-0.1-1.4v-2.6h-1.2
	V32.3z"/>
</svg>
