<?xml version="1.0" encoding="utf-8"?>
<!-- Generator: Adobe Illustrator 22.1.0, SVG Export Plug-In . SVG Version: 6.00 Build 0)  -->
<svg version="1.1" id="Layer_1" xmlns="http://www.w3.org/2000/svg" xmlns:xlink="http://www.w3.org/1999/xlink" x="0px" y="0px"
	 viewBox="0 0 46.6 9" style="enable-background:new 0 0 46.6 9;" xml:space="preserve">
<style type="text/css">
	.st0{fill:#FFFFFF;}
</style>
<g>
	<g>
		<path class="st0" d="M3.8,4.6h2L6.9,6C7,5.8,7.1,5.5,7.2,5.3s0.1-0.5,0.1-0.8c0-0.4-0.1-0.8-0.2-1.1C7,3,6.8,2.7,6.5,2.5
			C6.2,2.2,5.9,2,5.6,1.8C5.2,1.7,4.9,1.6,4.5,1.6c-0.4,0-0.8,0.1-1.1,0.2C3,2,2.7,2.2,2.4,2.5C2.2,2.7,2,3,1.8,3.4
			C1.7,3.7,1.6,4.1,1.6,4.5s0.1,0.8,0.2,1.1C2,6,2.2,6.3,2.4,6.5C2.7,6.8,3,7,3.4,7.2c0.3,0.2,0.7,0.2,1.1,0.2c0.3,0,0.6,0,0.9-0.1
			l1,1.3C5.8,8.9,5.1,9,4.5,9C3.9,9,3.3,8.9,2.7,8.6s-1-0.6-1.4-1c-0.4-0.4-0.7-0.9-1-1.4C0.1,5.7,0,5.1,0,4.5s0.1-1.2,0.3-1.8
			c0.2-0.5,0.5-1,1-1.4c0.4-0.4,0.9-0.7,1.4-1S3.9,0,4.5,0s1.2,0.1,1.8,0.4s1,0.6,1.4,1c0.4,0.4,0.7,0.9,1,1.4S9,3.9,9,4.5
			C9,5.1,8.9,5.6,8.7,6S8.3,7,8,7.4l1.2,1.5h-2L3.8,4.6z"/>
		<path class="st0" d="M9.7,0.1h1.6v7.2h3.2v1.6H9.7V0.1z"/>
		<path class="st0" d="M15.5,0.1h5.2v1.6h-3.6v2h3.6v1.6h-3.6v2.1h3.6v1.6h-5.2V0.1z"/>
		<path class="st0" d="M21.6,0.1H24c0.7,0,1.4,0.1,2,0.3C26.5,0.7,27,1,27.4,1.4c0.4,0.4,0.7,0.9,0.9,1.4c0.2,0.5,0.3,1.1,0.3,1.7
			s-0.1,1.2-0.3,1.7c-0.2,0.5-0.5,1-0.9,1.4c-0.4,0.4-0.9,0.7-1.4,0.9c-0.6,0.2-1.2,0.3-1.8,0.3h-2.5V0.1z M23.2,1.6v5.7h0.6
			c0.5,0,0.9-0.1,1.3-0.2c0.4-0.1,0.7-0.3,1-0.6c0.3-0.3,0.5-0.6,0.6-0.9S27,4.9,27,4.5c0-0.4-0.1-0.8-0.2-1.2
			c-0.1-0.4-0.3-0.7-0.6-0.9c-0.3-0.3-0.6-0.5-1-0.6c-0.4-0.1-0.9-0.2-1.4-0.2H23.2z"/>
		<path class="st0" d="M34.5,1.7h-2.3V0.1h6.3v1.6h-2.4v7.2h-1.6V1.7z"/>
		<path class="st0" d="M39.1,0.1h1.7l2.1,6.3l2.1-6.3h1.7l-2.9,8.8H42L39.1,0.1z"/>
	</g>
</g>
</svg>
