<?xml version="1.0" encoding="utf-8"?>
<!-- Generator: Adobe Illustrator 22.1.0, SVG Export Plug-In . SVG Version: 6.00 Build 0)  -->
<svg version="1.1" id="Layer_1" xmlns="http://www.w3.org/2000/svg" xmlns:xlink="http://www.w3.org/1999/xlink" x="0px" y="0px"
	 viewBox="0 0 95.8 27.3" style="enable-background:new 0 0 95.8 27.3;" xml:space="preserve">
<style type="text/css">
	.st0{fill:#FFFFFF;}
</style>
<path class="st0" d="M2.7,1.6H0.3V0h6.3v1.6H4.3v7.2H2.7V1.6z"/>
<path class="st0" d="M9.2,8.9C8.8,8.9,8.4,8.8,8,8.7C7.6,8.5,7.2,8.3,6.9,7.9S6.3,7.2,6.1,6.8s-0.3-1-0.3-1.5c0-0.6,0.1-1.1,0.3-1.6
	c0.2-0.5,0.5-0.8,0.8-1.1C7.2,2.2,7.5,2,7.9,1.8s0.8-0.2,1.3-0.2c0.5,0,0.9,0.1,1.3,0.3s0.7,0.4,1,0.7V1.7h1.6v7h-1.6V7.8
	c-0.3,0.3-0.6,0.6-1,0.8C10.1,8.8,9.7,8.9,9.2,8.9z M9.5,7.4c0.3,0,0.6-0.1,0.8-0.2C10.6,7.1,10.8,7,11,6.8c0.2-0.2,0.3-0.4,0.4-0.7
	c0.1-0.3,0.2-0.5,0.2-0.9c0-0.3-0.1-0.6-0.2-0.8c-0.1-0.3-0.3-0.5-0.4-0.7c-0.2-0.2-0.4-0.3-0.7-0.5c-0.3-0.1-0.5-0.2-0.8-0.2
	c-0.3,0-0.6,0.1-0.8,0.2C8.4,3.4,8.2,3.5,8,3.7C7.8,3.9,7.6,4.1,7.5,4.4C7.4,4.6,7.4,4.9,7.4,5.2s0.1,0.6,0.2,0.9S7.8,6.6,8,6.8
	C8.2,7,8.4,7.1,8.6,7.2C8.9,7.4,9.2,7.4,9.5,7.4z"/>
<path class="st0" d="M18.7,8.8L16.3,6h-0.6v2.8h-1.6v-7h1.6v2.7h0.5l2.4-2.7h1.9l-3,3.4l3.2,3.6H18.7z"/>
<path class="st0" d="M24.2,1.7h3.2c0.8,0,1.4,0.2,1.9,0.5c0.4,0.3,0.7,0.8,0.7,1.4c0,0.7-0.3,1.2-0.9,1.5c0.7,0.3,1.1,0.9,1.1,1.6
	c0,0.6-0.2,1.1-0.7,1.5s-1.1,0.5-2,0.5h-3.3V1.7z M25.8,4.5h1.7c0.3,0,0.5-0.1,0.7-0.2c0.2-0.1,0.2-0.3,0.2-0.5s-0.1-0.4-0.2-0.5
	c-0.2-0.1-0.4-0.2-0.7-0.2h-1.7V4.5z M25.8,7.4h1.7c0.3,0,0.6-0.1,0.7-0.2s0.3-0.3,0.3-0.6c0-0.3-0.1-0.4-0.3-0.6s-0.4-0.2-0.8-0.2
	h-1.7V7.4z"/>
<path class="st0" d="M30.9,1.7h1.6v2.1h1.4c0.4,0,0.8,0.1,1.2,0.2s0.6,0.3,0.9,0.5c0.2,0.2,0.4,0.5,0.6,0.8s0.2,0.6,0.2,0.9
	s-0.1,0.7-0.2,1c-0.1,0.3-0.3,0.6-0.6,0.8s-0.5,0.4-0.9,0.5c-0.3,0.1-0.7,0.2-1.1,0.2h-3.1V1.7z M33.8,7.3c0.4,0,0.7-0.1,0.9-0.3
	c0.2-0.2,0.4-0.5,0.4-0.8c0-0.3-0.1-0.6-0.4-0.8c-0.2-0.2-0.5-0.3-0.9-0.3h-1.4v2.1H33.8z M37.2,1.7h1.6v7h-1.6V1.7z"/>
<path class="st0" d="M44.7,3.2h-3.3v5.5h-1.6v-7h4.9V3.2z"/>
<path class="st0" d="M43.9,8.8l2.8-7h1.5l2.8,7h-1.7l-1.9-4.9l-1.9,4.9H43.9z"/>
<path class="st0" d="M51.4,8.8l1.2-2.5C52.3,6,52,5.7,51.8,5.4c-0.2-0.4-0.3-0.8-0.3-1.2c0-0.4,0.1-0.7,0.2-1s0.3-0.6,0.5-0.8
	c0.2-0.2,0.5-0.4,0.9-0.5c0.3-0.1,0.7-0.2,1.2-0.2h3v7h-1.6V6.6h-1.7l-1,2.1H51.4z M55.8,5.2V3.2h-1.4c-0.4,0-0.7,0.1-0.9,0.3
	c-0.2,0.2-0.3,0.4-0.3,0.7c0,0.2,0,0.3,0.1,0.4c0,0.1,0.1,0.2,0.2,0.3s0.2,0.2,0.4,0.2c0.1,0.1,0.3,0.1,0.6,0.1H55.8z"/>
<path class="st0" d="M62.7,1.7l2.4,5.5h0.8v3h-1.4V8.8h-5.1v1.6h-1.4v-3h0.8l2.4-5.5H62.7z M60.3,7.3h3.1l-1.5-3.6L60.3,7.3z"/>
<path class="st0" d="M69.3,8.9c-0.4,0-0.8-0.1-1.3-0.2c-0.4-0.2-0.8-0.4-1.1-0.7s-0.6-0.7-0.8-1.1s-0.3-1-0.3-1.5
	c0-0.6,0.1-1.1,0.3-1.6c0.2-0.5,0.5-0.8,0.8-1.1C67.2,2.2,67.6,2,68,1.8c0.4-0.2,0.8-0.2,1.3-0.2c0.5,0,0.9,0.1,1.3,0.3
	s0.7,0.4,1,0.7V1.7h1.6v7h-1.6V7.8c-0.3,0.3-0.6,0.6-1,0.8C70.2,8.8,69.7,8.9,69.3,8.9z M69.5,7.4c0.3,0,0.6-0.1,0.8-0.2
	C70.6,7.1,70.8,7,71,6.8c0.2-0.2,0.3-0.4,0.4-0.7c0.1-0.3,0.2-0.5,0.2-0.9c0-0.3-0.1-0.6-0.2-0.8c-0.1-0.3-0.3-0.5-0.4-0.7
	c-0.2-0.2-0.4-0.3-0.7-0.5c-0.3-0.1-0.5-0.2-0.8-0.2c-0.3,0-0.6,0.1-0.8,0.2c-0.3,0.1-0.5,0.3-0.7,0.5c-0.2,0.2-0.3,0.4-0.5,0.7
	c-0.1,0.3-0.2,0.5-0.2,0.9s0.1,0.6,0.2,0.9s0.3,0.5,0.5,0.7c0.2,0.2,0.4,0.4,0.7,0.5C68.9,7.4,69.2,7.4,69.5,7.4z"/>
<path class="st0" d="M77.6,8.9c-0.6,0-1.1-0.1-1.5-0.3c-0.5-0.2-0.8-0.4-1.2-0.8c-0.3-0.3-0.6-0.7-0.8-1.2c-0.2-0.4-0.3-0.9-0.3-1.4
	c0-0.5,0.1-1,0.3-1.4c0.2-0.4,0.4-0.8,0.8-1.2c0.3-0.3,0.7-0.6,1.2-0.8s0.9-0.3,1.4-0.3c0.5,0,1,0.1,1.4,0.3s0.8,0.4,1.1,0.8
	c0.3,0.3,0.6,0.7,0.8,1.1c0.2,0.4,0.3,0.9,0.3,1.4v0.6h-5.7c0.1,0.5,0.4,0.9,0.7,1.2c0.4,0.3,0.9,0.4,1.4,0.4c0.5,0,0.9-0.1,1.2-0.3
	c0.3-0.2,0.6-0.5,0.8-0.9L80.8,7c-0.3,0.6-0.7,1-1.3,1.4C79,8.7,78.4,8.9,77.6,8.9z M77.5,3c-0.5,0-0.9,0.1-1.3,0.4
	c-0.4,0.3-0.6,0.6-0.8,1h4c-0.1-0.5-0.4-0.8-0.7-1.1C78.4,3.1,78,3,77.5,3z"/>
<path class="st0" d="M6.4,16.4l-2.5,0.3c-1.3,0.1-2.1,0.8-2.4,2c0.2-0.3,0.5-0.6,0.9-0.8c0.4-0.2,0.9-0.3,1.4-0.3
	c0.4,0,0.8,0.1,1.2,0.2c0.4,0.2,0.7,0.4,1,0.7c0.3,0.3,0.5,0.6,0.7,1S7,20.3,7,20.7c0,0.5-0.1,0.9-0.3,1.4c-0.2,0.4-0.4,0.8-0.7,1.1
	c-0.3,0.3-0.7,0.6-1.1,0.7S4,24.2,3.5,24.2c-0.6,0-1.1-0.1-1.5-0.3c-0.4-0.2-0.8-0.5-1.1-0.9c-0.3-0.4-0.6-0.9-0.7-1.4
	C0.1,21,0,20.4,0,19.7c0-0.7,0.1-1.3,0.3-1.9c0.2-0.6,0.5-1.1,0.9-1.5c0.6-0.6,1.5-1,2.7-1.1l2.4-0.3L6.4,16.4z M3.6,22.7
	c0.3,0,0.5,0,0.7-0.1c0.2-0.1,0.4-0.2,0.6-0.4s0.3-0.4,0.4-0.6s0.1-0.5,0.1-0.7s0-0.5-0.1-0.7c-0.1-0.2-0.2-0.4-0.4-0.6
	c-0.2-0.2-0.4-0.3-0.6-0.4c-0.2-0.1-0.5-0.1-0.7-0.1c-0.3,0-0.5,0-0.7,0.1c-0.2,0.1-0.4,0.2-0.6,0.4c-0.2,0.2-0.3,0.4-0.4,0.6
	c-0.1,0.2-0.1,0.5-0.1,0.7s0,0.5,0.1,0.7s0.2,0.4,0.4,0.6s0.4,0.3,0.6,0.4C3.1,22.6,3.3,22.7,3.6,22.7z"/>
<path class="st0" d="M11.3,24.2c-0.6,0-1.1-0.1-1.5-0.3c-0.5-0.2-0.8-0.4-1.2-0.8C8.3,22.8,8,22.4,7.8,22c-0.2-0.4-0.3-0.9-0.3-1.4
	c0-0.5,0.1-1,0.3-1.4c0.2-0.4,0.4-0.8,0.8-1.2c0.3-0.3,0.7-0.6,1.2-0.8s0.9-0.3,1.4-0.3c0.5,0,1,0.1,1.4,0.3s0.8,0.4,1.1,0.8
	c0.3,0.3,0.6,0.7,0.8,1.1c0.2,0.4,0.3,0.9,0.3,1.4v0.6H9.1c0.1,0.5,0.4,0.9,0.7,1.2c0.4,0.3,0.9,0.4,1.4,0.4c0.5,0,0.9-0.1,1.2-0.3
	c0.3-0.2,0.6-0.5,0.8-0.9l1.3,0.8c-0.3,0.6-0.7,1-1.3,1.4C12.7,24,12.1,24.2,11.3,24.2z M11.2,18.3c-0.5,0-0.9,0.1-1.3,0.4
	c-0.4,0.3-0.6,0.6-0.8,1h4c-0.1-0.5-0.4-0.8-0.7-1.1C12.1,18.4,11.7,18.3,11.2,18.3z"/>
<path class="st0" d="M18.1,24.2c-0.7,0-1.3-0.1-1.8-0.3s-0.9-0.5-1.3-0.9l1.1-1c0.3,0.3,0.5,0.5,0.9,0.6c0.3,0.1,0.7,0.2,1.1,0.2
	c0.4,0,0.7-0.1,1-0.2c0.2-0.1,0.3-0.3,0.3-0.6c0-0.3-0.1-0.4-0.4-0.6s-0.6-0.2-1-0.2h-1.1v-1.4h1c0.4,0,0.7-0.1,0.9-0.2
	s0.3-0.3,0.3-0.5c0-0.2-0.1-0.4-0.3-0.5c-0.2-0.1-0.5-0.2-0.9-0.2c-0.4,0-0.7,0.1-1,0.2c-0.3,0.1-0.5,0.3-0.8,0.6l-1.1-1
	c0.3-0.4,0.8-0.7,1.3-0.9c0.5-0.2,1.1-0.3,1.7-0.3c0.4,0,0.8,0,1.1,0.1s0.6,0.2,0.9,0.4c0.2,0.2,0.4,0.4,0.5,0.6
	c0.1,0.2,0.2,0.5,0.2,0.8c0,0.4-0.1,0.7-0.2,0.9s-0.4,0.5-0.7,0.6c0.3,0.1,0.6,0.3,0.8,0.6c0.2,0.3,0.3,0.6,0.3,1
	c0,0.3-0.1,0.6-0.2,0.9s-0.3,0.5-0.6,0.7s-0.5,0.3-0.9,0.5C19,24.1,18.6,24.2,18.1,24.2z"/>
<path class="st0" d="M26.1,17l2.4,5.5h0.8v3h-1.4V24h-5.1v1.6h-1.4v-3h0.8l2.4-5.5H26.1z M23.8,22.6h3.1L25.3,19L23.8,22.6z"/>
<path class="st0" d="M32.7,24.2c-0.4,0-0.8-0.1-1.3-0.2c-0.4-0.2-0.8-0.4-1.1-0.7s-0.6-0.7-0.8-1.1s-0.3-1-0.3-1.5
	c0-0.6,0.1-1.1,0.3-1.6c0.2-0.5,0.5-0.8,0.8-1.1c0.3-0.3,0.7-0.5,1.1-0.7s0.8-0.2,1.3-0.2c0.5,0,0.9,0.1,1.3,0.3s0.7,0.4,1,0.7V17
	h1.6v7H35v-0.9c-0.3,0.3-0.6,0.6-1,0.8C33.6,24.1,33.2,24.2,32.7,24.2z M33,22.7c0.3,0,0.6-0.1,0.8-0.2c0.3-0.1,0.5-0.3,0.7-0.5
	c0.2-0.2,0.3-0.4,0.4-0.7c0.1-0.3,0.2-0.5,0.2-0.9c0-0.3-0.1-0.6-0.2-0.8c-0.1-0.3-0.3-0.5-0.4-0.7c-0.2-0.2-0.4-0.3-0.7-0.5
	c-0.3-0.1-0.5-0.2-0.8-0.2c-0.3,0-0.6,0.1-0.8,0.2c-0.3,0.1-0.5,0.3-0.7,0.5c-0.2,0.2-0.3,0.4-0.5,0.7c-0.1,0.3-0.2,0.5-0.2,0.9
	s0.1,0.6,0.2,0.9s0.3,0.5,0.5,0.7c0.2,0.2,0.4,0.4,0.7,0.5C32.4,22.6,32.7,22.7,33,22.7z"/>
<path class="st0" d="M42.2,24l-2.4-2.8h-0.6V24h-1.6v-7h1.6v2.7h0.5l2.4-2.7h1.9l-3,3.4l3.2,3.6H42.2z"/>
<path class="st0" d="M47.3,24.2c-0.5,0-1-0.1-1.4-0.3c-0.4-0.2-0.8-0.4-1.2-0.8S44.1,22.4,44,22c-0.2-0.4-0.3-0.9-0.3-1.4
	c0-0.5,0.1-1,0.3-1.4c0.2-0.4,0.4-0.8,0.8-1.2s0.7-0.6,1.2-0.8s0.9-0.3,1.4-0.3s1,0.1,1.4,0.3c0.4,0.2,0.8,0.4,1.2,0.8
	s0.6,0.7,0.8,1.2c0.2,0.4,0.3,0.9,0.3,1.4c0,0.5-0.1,1-0.3,1.4c-0.2,0.4-0.4,0.8-0.8,1.2s-0.7,0.6-1.2,0.8
	C48.3,24.1,47.8,24.2,47.3,24.2z M47.3,22.7c0.3,0,0.6-0.1,0.8-0.2c0.2-0.1,0.5-0.3,0.6-0.5c0.2-0.2,0.3-0.4,0.4-0.7
	c0.1-0.3,0.2-0.5,0.2-0.8c0-0.3-0.1-0.6-0.2-0.8c-0.1-0.3-0.2-0.5-0.4-0.7c-0.2-0.2-0.4-0.3-0.6-0.5c-0.2-0.1-0.5-0.2-0.8-0.2
	s-0.6,0.1-0.8,0.2c-0.3,0.1-0.5,0.3-0.6,0.5s-0.3,0.4-0.4,0.7c-0.1,0.3-0.2,0.5-0.2,0.8c0,0.3,0.1,0.6,0.2,0.8
	c0.1,0.3,0.2,0.5,0.4,0.7s0.4,0.3,0.6,0.5C46.8,22.6,47,22.7,47.3,22.7z"/>
<path class="st0" d="M55.6,24.2c-0.5,0-0.9-0.1-1.3-0.3s-0.7-0.4-1-0.7v4.1h-1.6V17h1.6V18c0.2-0.3,0.6-0.6,1-0.8
	c0.4-0.2,0.8-0.3,1.3-0.3c0.4,0,0.9,0.1,1.3,0.2s0.8,0.4,1.1,0.7c0.3,0.3,0.6,0.7,0.8,1.1c0.2,0.5,0.3,1,0.3,1.6
	c0,0.6-0.1,1.1-0.3,1.5s-0.5,0.8-0.8,1.1c-0.3,0.3-0.7,0.5-1.1,0.7S56,24.2,55.6,24.2z M55.3,22.7c0.3,0,0.6-0.1,0.8-0.2
	c0.3-0.1,0.5-0.3,0.7-0.5c0.2-0.2,0.3-0.4,0.5-0.7c0.1-0.3,0.2-0.6,0.2-0.9s-0.1-0.6-0.2-0.9c-0.1-0.3-0.3-0.5-0.5-0.7
	c-0.2-0.2-0.4-0.3-0.7-0.5c-0.3-0.1-0.5-0.2-0.8-0.2c-0.3,0-0.6,0.1-0.8,0.2c-0.3,0.1-0.5,0.3-0.7,0.5c-0.2,0.2-0.3,0.4-0.4,0.7
	c-0.1,0.3-0.2,0.5-0.2,0.8c0,0.3,0.1,0.6,0.2,0.9c0.1,0.3,0.2,0.5,0.4,0.7c0.2,0.2,0.4,0.4,0.7,0.5C54.7,22.6,55,22.7,55.3,22.7z"/>
<path class="st0" d="M64.3,21.2h-3V24h-1.6v-7h1.6v2.7h3V17H66v7h-1.6V21.2z"/>
<path class="st0" d="M70.1,24.2c-0.4,0-0.8-0.1-1.3-0.2c-0.4-0.2-0.8-0.4-1.1-0.7s-0.6-0.7-0.8-1.1s-0.3-1-0.3-1.5
	c0-0.6,0.1-1.1,0.3-1.6c0.2-0.5,0.5-0.8,0.8-1.1c0.3-0.3,0.7-0.5,1.1-0.7s0.8-0.2,1.3-0.2c0.5,0,0.9,0.1,1.3,0.3
	c0.4,0.2,0.7,0.4,1,0.7V17H74v7h-1.6v-0.9c-0.3,0.3-0.6,0.6-1,0.8C71,24.1,70.6,24.2,70.1,24.2z M70.4,22.7c0.3,0,0.6-0.1,0.8-0.2
	c0.3-0.1,0.5-0.3,0.7-0.5c0.2-0.2,0.3-0.4,0.4-0.7c0.1-0.3,0.2-0.5,0.2-0.9c0-0.3-0.1-0.6-0.2-0.8c-0.1-0.3-0.3-0.5-0.4-0.7
	c-0.2-0.2-0.4-0.3-0.7-0.5c-0.3-0.1-0.5-0.2-0.8-0.2c-0.3,0-0.6,0.1-0.8,0.2c-0.3,0.1-0.5,0.3-0.7,0.5c-0.2,0.2-0.3,0.4-0.5,0.7
	c-0.1,0.3-0.2,0.5-0.2,0.9s0.1,0.6,0.2,0.9s0.3,0.5,0.5,0.7c0.2,0.2,0.4,0.4,0.7,0.5C69.8,22.6,70.1,22.7,70.4,22.7z"/>
<path class="st0" d="M78.4,24.2c-0.5,0-1-0.1-1.4-0.3s-0.8-0.5-1.2-0.8S75.2,22.4,75,22c-0.2-0.4-0.3-0.9-0.3-1.4
	c0-0.5,0.1-1,0.3-1.4c0.2-0.4,0.4-0.8,0.8-1.2s0.7-0.6,1.2-0.8s0.9-0.3,1.4-0.3c0.4,0,0.8,0.1,1.1,0.2s0.7,0.3,1,0.5
	c0.3,0.2,0.5,0.4,0.8,0.7c0.2,0.3,0.4,0.6,0.5,0.9l-1.5,0.6c-0.2-0.4-0.4-0.7-0.7-0.9s-0.7-0.3-1.1-0.3c-0.3,0-0.6,0.1-0.8,0.2
	c-0.3,0.1-0.5,0.3-0.7,0.5c-0.2,0.2-0.3,0.4-0.4,0.7c-0.1,0.3-0.2,0.5-0.2,0.8c0,0.3,0.1,0.6,0.2,0.8c0.1,0.3,0.2,0.5,0.4,0.7
	c0.2,0.2,0.4,0.3,0.7,0.5c0.3,0.1,0.5,0.2,0.8,0.2c0.5,0,0.8-0.1,1.2-0.4c0.3-0.2,0.6-0.6,0.7-0.9l1.5,0.6c-0.1,0.3-0.3,0.6-0.5,0.9
	c-0.2,0.3-0.5,0.5-0.8,0.7c-0.3,0.2-0.6,0.3-1,0.5C79.1,24.1,78.8,24.2,78.4,24.2z"/>
<path class="st0" d="M87.9,25.6V24h-5.6v-7H84v5.5h2.9V17h1.6v5.5h0.9v3H87.9z"/>
<path class="st0" d="M90,17h1.6v2.1H93c0.4,0,0.8,0.1,1.2,0.2s0.6,0.3,0.9,0.5c0.2,0.2,0.4,0.5,0.6,0.8s0.2,0.6,0.2,0.9
	s-0.1,0.7-0.2,1c-0.1,0.3-0.3,0.6-0.6,0.8s-0.5,0.4-0.9,0.5C93.8,24,93.5,24,93,24H90V17z M92.9,22.6c0.4,0,0.7-0.1,0.9-0.3
	c0.2-0.2,0.4-0.5,0.4-0.8c0-0.3-0.1-0.6-0.4-0.8c-0.2-0.2-0.5-0.3-0.9-0.3h-1.4v2.1H92.9z"/>
</svg>
