<?xml version="1.0" encoding="utf-8"?>
<!-- Generator: Adobe Illustrator 24.0.3, SVG Export Plug-In . SVG Version: 6.00 Build 0)  -->
<svg version="1.1" id="Слой_1" xmlns="http://www.w3.org/2000/svg" xmlns:xlink="http://www.w3.org/1999/xlink" x="0px" y="0px"
	 viewBox="0 0 245.8 79.3" style="enable-background:new 0 0 245.8 79.3;" xml:space="preserve">
<style type="text/css">
	.st0{fill:#FFFFFF;}
</style>
<g>
	<path class="st0" d="M0.4,0.6v29.2h7V6.2H12v23.6h7V0.6H0.4z"/>
	<path class="st0" d="M27.6,0.6l-6.3,29.2h7l0.9-5.8h5.4l1.1,5.8h6.9L36,0.6H27.6z M29.8,18.7l1.8-12.8h0l1.9,12.8H29.8z"/>
	<path class="st0" d="M51.4,0.6h-6.7v29.2h6.7V23l1.9-3.4l3.2,10.2h7.4l-6.5-16.3l6.5-12.9h-7.6l-4.9,11.6V0.6z"/>
	<path class="st0" d="M66.6,29.8h16.3v-5.5h-9.3v-6.9h8.3v-5.5h-8.3V6.2h9.3V0.6H66.6V29.8z"/>
	<path class="st0" d="M96.5,6.2h5.2V0.6H84.5v5.5h5.5v23.6h6.5V6.2z"/>
	<path class="st0" d="M115.1,0.6v29.2h7V6.2h4.6v23.6h7V0.6H115.1z"/>
	<path class="st0" d="M146.9,0c-6.6,0-9.5,3.6-9.5,8.2v13.1c0,5.8,3,9.2,9.5,9.2c6.6,0,9.5-3.4,9.5-9.2V8.2
		C156.3,3.7,153.5,0,146.9,0z M146.9,5.4c1.2,0,2.4,0.7,2.4,2.4v14.8c0,1.7-1.3,2.6-2.4,2.6c-1.2,0-2.4-0.9-2.4-2.6V7.8
		C144.4,6.1,145.7,5.4,146.9,5.4z"/>
	<path class="st0" d="M171.8,18.3v3.9c0,2.2-1.1,3-2.6,3c-1.5,0-2.4-0.9-2.4-3.1V7.5c0-1.5,1.2-2.2,2.4-2.2c1.1,0,2.6,0.7,2.6,2.3
		v2.6h7v-2c0-4.5-2.9-8.3-9.5-8.3c-6.7,0-9.5,3.7-9.5,8.2V21c0,6.7,3,9.5,9.5,9.5c6.5,0,9.5-2.9,9.5-9.5v-2.7H171.8z"/>
	<path class="st0" d="M185,0.6v13.8c0,9-0.1,10.2-2.1,10.2c-0.7,0-1.4-0.1-1.7-0.2v4.9c1.2,0.5,2.3,0.9,3.8,0.9
		c4.7,0,6.8-2.9,6.8-13.9v-10h4.6v23.6h7V0.6H185z"/>
	<path class="st0" d="M205.9,0.6l6.6,23c-0.3,0.9-1.1,1-1.7,1c-0.7,0-1.4-0.1-1.7-0.2v5c0.6,0.5,2.2,0.8,3.5,0.8
		c4.9,0,6.6-1.4,8.2-7L227,0.6h-7.3L217,13.4c-0.2,1.1-0.4,2.9-0.7,6h-0.1c-0.2-3-0.2-5-0.4-6l-2.6-12.7H205.9z"/>
	<path class="st0" d="M229.4,0.6v29.2h7V6.2h9.3V0.6H229.4z"/>
	<path class="st0" d="M0,68.9V71c0,5.4,2.9,8.2,9,8.2c5.5,0,8.8-2.9,8.8-8.9c0-4.5-1.7-6.5-4.3-8l-4.3-2.6c-1.7-1-2.3-1.9-2.3-3.5
		C6.8,54.8,7.6,54,9,54c1.5,0,2.5,1.1,2.5,3.6v0.6h6.3v-0.5c0-6.3-4-8.9-8.7-8.9c-5.2,0-8.6,2.8-8.6,8c0,3.8,1.7,6.5,4.1,8l4.2,2.6
		c1.8,1.1,2.7,2.1,2.7,3.8c0,1.8-0.9,2.8-2.3,2.8c-1.7,0-2.7-0.7-2.7-3.3v-1.8H0z"/>
	<path class="st0" d="M21.6,49.4v29.2h6.7V68.3c0-3.9-0.2-10.6-0.4-12.7h0l4.3,23h4.9l4.3-23h0c-0.2,2.4-0.4,9.9-0.4,12.7v10.2h6.7
		V49.4h-9.8l-2.3,11.8c-0.4,2.1-0.7,6.6-1.1,9.2h-0.1c-0.3-2.8-0.6-6.8-1.1-9.2l-2.3-11.8H21.6z"/>
	<path class="st0" d="M56.5,49.4l-6.3,29.2h7l0.9-5.8h5.4l1.1,5.8h6.9l-6.5-29.2H56.5z M58.7,67.5l1.8-12.8h0l1.9,12.8H58.7z"/>
	<path class="st0" d="M80.6,67.2h1.5c2.2,0,2.8,0.9,2.8,2.8v4.8c0,2.2,0.3,3.8,2.1,3.8h6.2v-0.9c-0.6,0-1.3-0.6-1.3-2.7v-5.6
		c0-3-1.5-4.6-3.7-5.2c2.7-1.3,4-3,4-7.4c0-4.9-3.3-7.4-7.7-7.4h-11v29.2h7V67.2z M80.6,54.6h1.7c1.7,0,2.9,1.1,2.9,3.7
		c0,2.6-1.2,3.7-2.9,3.7h-1.8V54.6z"/>
	<path class="st0" d="M106.7,54.9h5.2v-5.5H94.7v5.5h5.5v23.6h6.5V54.9z"/>
</g>
</svg>
