<?xml version="1.0" encoding="utf-8"?>
<!-- Generator: Adobe Illustrator 22.1.0, SVG Export Plug-In . SVG Version: 6.00 Build 0)  -->
<svg version="1.1" id="Layer_1" xmlns="http://www.w3.org/2000/svg" xmlns:xlink="http://www.w3.org/1999/xlink" x="0px" y="0px"
	 viewBox="0 0 91.4 13" style="enable-background:new 0 0 91.4 13;" xml:space="preserve">
<style type="text/css">
	.st0{fill:#FFFFFF;}
</style>
<g>
	<path class="st0" d="M2.9,9.4L0,2.7h1.7l2,4.7l1.8-4.7h1.7L3,13H1.4L2.9,9.4z"/>
	<path class="st0" d="M11.6,7h-0.5l-2,2.8H7.3l2.6-3.6L7.4,2.7h1.8l2,2.8h0.4V2.7h1.6v2.8h0.4l2-2.8h1.8l-2.5,3.4v0l2.6,3.6h-1.8
		l-2-2.8h-0.5v2.8h-1.6V7z"/>
	<path class="st0" d="M20.8,9.9c-0.5,0-1-0.1-1.4-0.3c-0.4-0.2-0.8-0.4-1.2-0.8s-0.6-0.7-0.8-1.2c-0.2-0.4-0.3-0.9-0.3-1.4
		c0-0.5,0.1-1,0.3-1.4c0.2-0.4,0.4-0.8,0.8-1.2s0.7-0.6,1.2-0.8c0.4-0.2,0.9-0.3,1.4-0.3s1,0.1,1.4,0.3c0.4,0.2,0.8,0.4,1.2,0.8
		s0.6,0.7,0.8,1.2c0.2,0.4,0.3,0.9,0.3,1.4c0,0.5-0.1,1-0.3,1.4c-0.2,0.4-0.4,0.8-0.8,1.2s-0.7,0.6-1.2,0.8
		C21.8,9.8,21.3,9.9,20.8,9.9z M20.8,8.4c0.3,0,0.6-0.1,0.8-0.2s0.5-0.3,0.6-0.5c0.2-0.2,0.3-0.4,0.4-0.7c0.1-0.3,0.2-0.5,0.2-0.8
		c0-0.3-0.1-0.6-0.2-0.8c-0.1-0.3-0.2-0.5-0.4-0.7c-0.2-0.2-0.4-0.3-0.6-0.5c-0.2-0.1-0.5-0.2-0.8-0.2S20.2,4.2,20,4.3
		c-0.3,0.1-0.5,0.3-0.6,0.5c-0.2,0.2-0.3,0.4-0.4,0.7c-0.1,0.3-0.2,0.5-0.2,0.8c0,0.3,0.1,0.6,0.2,0.8c0.1,0.3,0.2,0.5,0.4,0.7
		s0.4,0.3,0.6,0.5S20.5,8.4,20.8,8.4z"/>
	<path class="st0" d="M30.6,9.4l-2.9-6.7h1.7l2,4.7l1.8-4.7h1.7L30.7,13h-1.6L30.6,9.4z M31.3,1.3c0.3,0,0.5-0.1,0.7-0.3
		c0.2-0.2,0.3-0.5,0.3-0.8h1.1c0,0.3,0,0.6-0.1,0.8c-0.1,0.3-0.2,0.5-0.4,0.7c-0.2,0.2-0.4,0.3-0.7,0.4c-0.3,0.1-0.6,0.2-0.9,0.2
		c-0.4,0-0.7-0.1-0.9-0.2c-0.3-0.1-0.5-0.2-0.7-0.4c-0.2-0.2-0.3-0.4-0.4-0.7s-0.1-0.5-0.1-0.8h1.1c0,0.4,0.1,0.6,0.3,0.8
		C30.8,1.2,31,1.3,31.3,1.3z"/>
	<path class="st0" d="M43.8,1v1.5h-3.7v1.8h1.4c0.5,0,0.9,0.1,1.3,0.2c0.4,0.1,0.7,0.3,1,0.6c0.3,0.2,0.5,0.5,0.6,0.9
		c0.1,0.3,0.2,0.7,0.2,1.1s-0.1,0.8-0.2,1.1C44.2,8.5,44,8.8,43.7,9c-0.3,0.2-0.6,0.4-1,0.6c-0.4,0.1-0.8,0.2-1.3,0.2h-3V1H43.8z
		 M41.4,8.2c0.5,0,0.9-0.1,1.1-0.3s0.4-0.5,0.4-0.9c0-0.4-0.1-0.7-0.4-0.9s-0.6-0.3-1.1-0.3h-1.3v2.4H41.4z"/>
	<path class="st0" d="M48.8,9.9c-0.6,0-1.1-0.1-1.5-0.3c-0.5-0.2-0.8-0.4-1.2-0.8c-0.3-0.3-0.6-0.7-0.8-1.2
		c-0.2-0.4-0.3-0.9-0.3-1.4c0-0.5,0.1-1,0.3-1.4c0.2-0.4,0.4-0.8,0.8-1.2s0.7-0.6,1.2-0.8s0.9-0.3,1.4-0.3c0.5,0,1,0.1,1.4,0.3
		C50.6,3,51,3.3,51.3,3.6c0.3,0.3,0.6,0.7,0.8,1.1c0.2,0.4,0.3,0.9,0.3,1.4v0.6h-5.7C46.8,7.3,47,7.7,47.4,8
		c0.4,0.3,0.9,0.5,1.4,0.5c0.5,0,0.9-0.1,1.2-0.3c0.3-0.2,0.6-0.5,0.8-0.9L52.1,8c-0.3,0.6-0.7,1-1.3,1.4S49.6,9.9,48.8,9.9z
		 M48.8,4c-0.5,0-0.9,0.1-1.3,0.4c-0.4,0.3-0.6,0.6-0.8,1h4C50.6,5,50.4,4.6,50,4.4S49.3,4,48.8,4z"/>
	<path class="st0" d="M52.4,9.8l2.8-7h1.5l2.8,7h-1.7L56,4.9l-1.9,4.9H52.4z"/>
	<path class="st0" d="M63,9.9c-0.4,0-0.8-0.1-1.3-0.2c-0.4-0.2-0.8-0.4-1.1-0.7c-0.3-0.3-0.6-0.7-0.8-1.1s-0.3-1-0.3-1.5
		c0-0.6,0.1-1.1,0.3-1.6c0.2-0.5,0.5-0.8,0.8-1.1c0.3-0.3,0.7-0.5,1.1-0.7s0.8-0.2,1.3-0.2c0.5,0,0.9,0.1,1.3,0.3
		c0.4,0.2,0.7,0.4,1,0.7V2.7h1.6v7h-1.6V8.8c-0.3,0.3-0.6,0.6-1,0.8C63.9,9.8,63.5,9.9,63,9.9z M63.3,8.4c0.3,0,0.6-0.1,0.8-0.2
		s0.5-0.3,0.7-0.5c0.2-0.2,0.3-0.4,0.4-0.7c0.1-0.3,0.2-0.5,0.2-0.9c0-0.3-0.1-0.6-0.2-0.8c-0.1-0.3-0.3-0.5-0.4-0.7
		c-0.2-0.2-0.4-0.4-0.7-0.5c-0.3-0.1-0.5-0.2-0.8-0.2c-0.3,0-0.6,0.1-0.8,0.2c-0.3,0.1-0.5,0.3-0.7,0.5c-0.2,0.2-0.3,0.4-0.5,0.7
		s-0.2,0.5-0.2,0.9c0,0.3,0.1,0.6,0.2,0.9s0.3,0.5,0.5,0.7c0.2,0.2,0.4,0.3,0.7,0.5S63,8.4,63.3,8.4z"/>
	<path class="st0" d="M71.8,9.9c-0.5,0-0.9-0.1-1.3-0.3s-0.7-0.4-1-0.7V13h-1.6V2.7h1.6v0.9c0.2-0.3,0.6-0.6,1-0.8
		c0.4-0.2,0.8-0.3,1.3-0.3c0.4,0,0.9,0.1,1.3,0.2s0.8,0.4,1.1,0.7c0.3,0.3,0.6,0.7,0.8,1.1c0.2,0.5,0.3,1,0.3,1.6
		c0,0.6-0.1,1.1-0.3,1.5s-0.5,0.8-0.8,1.1c-0.3,0.3-0.7,0.6-1.1,0.7C72.6,9.8,72.2,9.9,71.8,9.9z M71.5,8.4c0.3,0,0.6-0.1,0.8-0.2
		S72.8,8,73,7.8c0.2-0.2,0.3-0.4,0.5-0.7c0.1-0.3,0.2-0.6,0.2-0.9c0-0.3-0.1-0.6-0.2-0.9c-0.1-0.3-0.3-0.5-0.5-0.7
		c-0.2-0.2-0.4-0.3-0.7-0.5c-0.3-0.1-0.5-0.2-0.8-0.2c-0.3,0-0.6,0.1-0.8,0.2c-0.3,0.1-0.5,0.3-0.7,0.5c-0.2,0.2-0.3,0.4-0.4,0.7
		c-0.1,0.3-0.2,0.5-0.2,0.8c0,0.3,0.1,0.6,0.2,0.9c0.1,0.3,0.2,0.5,0.4,0.7c0.2,0.2,0.4,0.4,0.7,0.5S71.2,8.4,71.5,8.4z"/>
	<path class="st0" d="M77.8,9.4l-2.9-6.7h1.7l2,4.7l1.8-4.7h1.7L78,13h-1.6L77.8,9.4z"/>
	<path class="st0" d="M85.5,9.9c-0.5,0-1-0.1-1.4-0.3c-0.4-0.2-0.8-0.5-1.2-0.8s-0.6-0.7-0.8-1.2c-0.2-0.4-0.3-0.9-0.3-1.4
		c0-0.5,0.1-1,0.3-1.4c0.2-0.4,0.4-0.8,0.8-1.2s0.7-0.6,1.2-0.8c0.4-0.2,0.9-0.3,1.4-0.3c0.4,0,0.8,0.1,1.1,0.2s0.7,0.3,1,0.5
		c0.3,0.2,0.5,0.4,0.8,0.7c0.2,0.3,0.4,0.6,0.5,0.9l-1.5,0.6C87.3,5,87,4.7,86.7,4.5c-0.3-0.2-0.7-0.3-1.1-0.3
		c-0.3,0-0.6,0.1-0.8,0.2c-0.3,0.1-0.5,0.3-0.7,0.5c-0.2,0.2-0.3,0.4-0.4,0.7c-0.1,0.3-0.2,0.5-0.2,0.8c0,0.3,0.1,0.6,0.2,0.8
		c0.1,0.3,0.2,0.5,0.4,0.7c0.2,0.2,0.4,0.3,0.7,0.5s0.5,0.2,0.8,0.2c0.5,0,0.8-0.1,1.2-0.4s0.6-0.6,0.7-0.9l1.5,0.6
		c-0.1,0.3-0.3,0.6-0.5,0.9c-0.2,0.3-0.5,0.5-0.8,0.7c-0.3,0.2-0.6,0.3-1,0.5C86.3,9.8,85.9,9.9,85.5,9.9z"/>
	<path class="st0" d="M89.3,1c0-0.3,0.1-0.5,0.3-0.7C89.8,0.1,90,0,90.3,0c0.3,0,0.6,0.1,0.8,0.3c0.2,0.2,0.3,0.4,0.3,0.7
		c0,0.3-0.1,0.5-0.3,0.7C90.9,1.9,90.7,2,90.3,2c-0.3,0-0.6-0.1-0.8-0.3C89.4,1.6,89.3,1.3,89.3,1z M89.5,2.7h1.6v7h-1.6V2.7z"/>
</g>
</svg>
