<?xml version="1.0" encoding="utf-8"?>
<!-- Generator: Adobe Illustrator 24.0.3, SVG Export Plug-In . SVG Version: 6.00 Build 0)  -->
<svg version="1.1" xmlns="http://www.w3.org/2000/svg" xmlns:xlink="http://www.w3.org/1999/xlink" x="0px" y="0px"
	 viewBox="0 0 300 103" style="enable-background:new 0 0 300 103;" xml:space="preserve">
<style type="text/css">
	.st0{fill:#FFFFFF;}
	.st1{clip-path:url(#SVGID_2_);}
	.st2{fill:#FFFFFF;filter:url(#Adobe_OpacityMaskFilter);}
	.st3{mask:url(#mask0_1983_557_1_);}
</style>
<g id="Слой_1">
</g>
<g id="Шар_1">
	<rect class="st0" width="300" height="103"/>
	<g>
		<defs>
			<rect id="SVGID_1_" x="2.2" y="4.5" width="295.6" height="94"/>
		</defs>
		<clipPath id="SVGID_2_">
			<use xlink:href="#SVGID_1_"  style="overflow:visible;"/>
		</clipPath>
		<g class="st1">
			<defs>
				<filter id="Adobe_OpacityMaskFilter" filterUnits="userSpaceOnUse" x="2.2" y="4.5" width="295.3" height="93.9">
					<feColorMatrix  type="matrix" values="1 0 0 0 0  0 1 0 0 0  0 0 1 0 0  0 0 0 1 0"/>
				</filter>
			</defs>
			<mask maskUnits="userSpaceOnUse" x="2.2" y="4.5" width="295.3" height="93.9" id="mask0_1983_557_1_">
				<path class="st2" d="M297.5,4.5H2.2v93.9h295.3V4.5z"/>
			</mask>
			<g class="st3">
				<path d="M7.2,4.5c0.8,0,1.6,0.3,2.3,0.9c0.7,0.6,1.2,1.5,1.6,2.4c0.4,1.1,0.7,2.3,0.9,3.5c0.2,1.4,0.3,2.9,0.3,4.3V19h-0.8v-3.4
					c0-1.3-0.1-2.5-0.2-3.8c-0.1-1.1-0.4-2.1-0.7-3.1c-0.3-0.8-0.7-1.5-1.3-2.1c-0.6-0.5-1.3-0.8-2-0.8c-0.7,0-1.4,0.2-2,0.8
					c-0.6,0.5-1,1.3-1.3,2.1c-0.4,1-0.6,2-0.7,3.1C3,13,3,14.3,3,15.6V38c0,1.3,0.1,2.5,0.2,3.7c0.1,1.1,0.4,2.1,0.7,3.1
					c0.3,0.8,0.7,1.5,1.3,2.1c0.6,0.5,1.3,0.8,2,0.8c0.7,0,1.4-0.3,2-0.8c0.6-0.6,1-1.3,1.3-2.1c0.4-1,0.6-2,0.7-3.1
					c0.2-1.2,0.2-2.5,0.2-3.8v-4.8h0.7V38c0,1.4-0.1,2.9-0.3,4.3c-0.1,1.2-0.4,2.4-0.9,3.5c-0.4,0.9-0.9,1.8-1.6,2.4
					c-0.7,0.6-1.5,0.9-2.3,0.9c-0.8,0-1.6-0.3-2.3-0.9c-0.7-0.6-1.2-1.5-1.5-2.4c-0.4-1.1-0.7-2.3-0.9-3.5c-0.2-1.4-0.3-2.9-0.3-4.3
					V15.6c0-1.4,0.1-2.9,0.3-4.3c0.2-1.2,0.4-2.4,0.9-3.5C3.7,6.8,4.2,6,4.9,5.4C5.6,4.8,6.4,4.5,7.2,4.5z"/>
				<path d="M16.8,38.4l-1.4,10.4h-0.7l5.8-44h1.1l5.9,44h-0.7l-1.4-10.4H16.8z M17,37.1h8.2L21,6.4L17,37.1z"/>
				<path d="M37.5,48.6h-0.9L30.8,6.9v41.9h-0.7V4.8h1.2l5.9,41.7L43,4.8h1.2v43.9h-0.7V6.9L37.5,48.6z"/>
				<path d="M46.8,15.6c0-1.5,0.1-2.9,0.3-4.3c0.2-1.2,0.5-2.4,0.9-3.5c0.4-0.9,0.9-1.7,1.6-2.4c0.7-0.6,1.5-0.9,2.3-0.9
					c0.8,0,1.7,0.3,2.3,0.9c0.7,0.6,1.2,1.4,1.6,2.4c0.4,1.1,0.7,2.3,0.9,3.5c0.2,1.4,0.3,2.9,0.3,4.3V38c0,1.5-0.1,2.9-0.3,4.3
					c-0.2,1.2-0.5,2.4-0.9,3.5c-0.4,0.9-0.9,1.8-1.6,2.4c-0.7,0.6-1.5,0.9-2.3,0.9c-0.8,0-1.6-0.3-2.3-0.9c-0.7-0.6-1.2-1.5-1.6-2.4
					c-0.4-1.1-0.7-2.3-0.9-3.5c-0.2-1.4-0.3-2.9-0.3-4.3L46.8,15.6z M47.6,38c0,1.3,0.1,2.5,0.2,3.8c0.1,1.1,0.4,2.1,0.7,3.1
					c0.3,0.8,0.8,1.5,1.3,2.1c0.6,0.5,1.3,0.8,2,0.8c0.7,0,1.4-0.2,2-0.8c0.6-0.6,1-1.3,1.3-2.1c0.4-1,0.6-2,0.8-3.1
					c0.2-1.3,0.2-2.5,0.2-3.8V15.5c0-1.3-0.1-2.5-0.2-3.8c-0.1-1.1-0.4-2.1-0.7-3.1c-0.3-0.8-0.8-1.5-1.3-2.1
					c-0.6-0.5-1.3-0.8-2-0.8c-0.7,0-1.4,0.2-2,0.8c-0.6,0.6-1,1.3-1.3,2.1c-0.4,1-0.6,2-0.7,3.1c-0.2,1.3-0.2,2.5-0.2,3.8V38z"/>
				<path d="M64.2,6.1l-0.7,32c0,1.3-0.1,2.6-0.2,3.8c-0.1,1.1-0.2,2.3-0.5,3.4c-0.2,0.9-0.6,1.8-1.1,2.4c-0.3,0.3-0.6,0.6-0.9,0.7
					c-0.3,0.2-0.7,0.3-1.1,0.3h-0.2v-1.3c0.3,0,0.7,0,1-0.2c0.3-0.1,0.6-0.4,0.8-0.7c0.5-0.6,0.8-1.3,1-2.1c0.2-1,0.3-2,0.4-3
					c0-1.1,0.1-2.2,0.1-3.4l0.7-33.3h8.3v43.9H71V6.1H64.2z"/>
				<path d="M75.2,4.8v43.9h-0.8V4.8H75.2z"/>
				<path d="M80.5,26.9l-1.8,5v16.8H78V4.8h0.7v24.8l8.9-24.8h0.8L81,25.6l8,23.2h-0.8L80.5,26.9z"/>
				<path d="M96.8,41.7c-0.2,1.1-0.4,2.1-0.6,3c-0.2,0.8-0.5,1.5-0.8,2.2c-0.3,0.6-0.7,1-1.2,1.4c-0.5,0.3-1.1,0.5-1.8,0.5v-1.2
					c0.5,0,1-0.1,1.4-0.4c0.4-0.3,0.7-0.7,1-1.2c0.3-0.6,0.5-1.2,0.7-1.8c0.2-0.7,0.4-1.5,0.6-2.4l1.4-7.2l-6-29.8h0.8l5.5,27.9
					l2.3-12.4l2.9-15.6h0.8L96.8,41.7z"/>
				<path d="M111.1,4.8c1.7,0,2.9,0.8,3.6,2.4c0.7,1.6,1,3.8,1,6.8v2.8c0,1.1,0,2.2-0.1,3.3c-0.1,0.9-0.2,1.7-0.5,2.6
					c-0.2,0.7-0.6,1.3-1,1.8c-0.5,0.5-1.1,0.9-1.7,1c0.7,0.2,1.3,0.5,1.8,1c0.5,0.5,0.9,1.2,1.1,2c0.6,2,0.9,4.2,0.8,6.3v3.9
					c0,3.1-0.4,5.6-1.2,7.4c-0.4,0.9-0.9,1.6-1.6,2.1c-0.7,0.5-1.5,0.7-2.3,0.7h-4.8V4.9L111.1,4.8z M110.2,24.8
					c0.7,0,1.4-0.1,2.1-0.3c0.6-0.2,1.1-0.6,1.5-1.2c0.4-0.7,0.7-1.5,0.9-2.4c0.2-1.3,0.3-2.6,0.3-3.9V14c0-2.6-0.3-4.6-0.8-5.9
					c-0.5-1.3-1.5-2-3.1-2h-4v18.6H110.2z M111.2,47.4c0.7,0.1,1.4-0.1,1.9-0.5c0.6-0.4,1.1-1,1.4-1.8c0.6-1.5,1-3.7,1-6.5v-3.9
					c0-3.2-0.4-5.4-1.2-6.7c-0.8-1.3-2-1.9-3.7-1.9h-3.4v21.4L111.2,47.4z"/>
				<path d="M120.9,38.4l-1.4,10.4h-0.7l5.8-44h1.1l5.9,44h-0.7l-1.4-10.4L120.9,38.4z M121,37.1h8.2L125,6.4L121,37.1z"/>
				<path d="M134.9,27.4v21.3h-0.7V4.8h0.7v21.3h8.6V4.8h0.7v43.9h-0.7V27.4H134.9z"/>
				<path d="M147.7,27.4v21.3H147V4.8h0.7v21.3h8.6V4.8h0.7v43.9h-0.7V27.4H147.7z"/>
				<path d="M166.4,28.5c-0.7,0-1.4,0.1-2.1,0.4c-0.6,0.2-1.2,0.7-1.7,1.3c-0.5,0.7-0.9,1.6-1.1,2.5c-0.3,1.3-0.4,2.7-0.4,4v6.9
					c0,1,0,1.9-0.1,2.8c-0.1,0.8-0.2,1.6-0.5,2.4h-0.8c0.3-0.8,0.5-1.6,0.5-2.5c0.1-0.9,0.1-1.8,0.1-2.7v-6.9
					c-0.1-2,0.2-4.1,0.9-5.9c0.3-0.7,0.7-1.4,1.2-1.9c0.5-0.5,1.1-0.8,1.7-1c-0.6-0.2-1.2-0.6-1.7-1.1c-0.5-0.5-0.9-1.1-1.2-1.8
					c-0.6-1.5-0.9-3.6-0.9-6.3v-4c0-3,0.4-5.4,1.1-7.2c0.3-0.9,0.9-1.6,1.6-2c0.7-0.5,1.4-0.7,2.2-0.6h4.7v43.9h-0.7V28.5H166.4z
					 M165.3,6.1c-0.7-0.1-1.3,0.1-1.9,0.5c-0.6,0.4-1,1-1.3,1.8c-0.7,2-1,4.2-0.9,6.3v4c0,1.4,0.1,2.8,0.4,4.2
					c0.2,0.9,0.5,1.8,1,2.5c0.4,0.6,1,1.1,1.6,1.3c0.7,0.2,1.5,0.4,2.2,0.3h2.9v-21H165.3z"/>
				<path d="M185.5,48.6h-0.9l-5.9-41.7v41.9H178V4.8h1.2l5.9,41.7l5.9-41.7h1.2v43.9h-0.7V6.9L185.5,48.6z"/>
				<path d="M194.8,15.6c0-1.5,0.1-2.9,0.3-4.3c0.2-1.2,0.5-2.4,0.9-3.5c0.4-0.9,0.9-1.7,1.6-2.4c0.7-0.6,1.5-0.9,2.3-0.9
					c0.8,0,1.7,0.3,2.3,0.9c0.7,0.6,1.2,1.4,1.6,2.4c0.4,1.1,0.7,2.3,0.9,3.5c0.2,1.4,0.3,2.9,0.3,4.3V38c0,1.5-0.1,2.9-0.3,4.3
					c-0.2,1.2-0.5,2.4-0.9,3.5c-0.4,0.9-0.9,1.8-1.6,2.4c-0.7,0.6-1.5,0.9-2.3,0.9c-0.8,0-1.6-0.3-2.3-0.9c-0.7-0.6-1.2-1.5-1.6-2.4
					c-0.4-1.1-0.7-2.3-0.9-3.5c-0.2-1.4-0.3-2.9-0.3-4.3L194.8,15.6z M195.5,38c0,1.3,0.1,2.5,0.2,3.8c0.1,1.1,0.4,2.1,0.7,3.1
					c0.3,0.8,0.8,1.5,1.3,2.1c0.6,0.5,1.3,0.8,2,0.8c0.7,0,1.4-0.3,2-0.8c0.6-0.6,1-1.3,1.3-2.1c0.4-1,0.6-2,0.7-3.1
					c0.2-1.3,0.2-2.5,0.2-3.8V15.5c0-1.3-0.1-2.5-0.2-3.8c-0.1-1.1-0.4-2.1-0.7-3.1c-0.3-0.8-0.8-1.5-1.3-2.1
					c-0.6-0.5-1.3-0.8-2-0.8c-0.7,0-1.4,0.2-2,0.8c-0.6,0.6-1,1.3-1.3,2.1c-0.4,1-0.6,2-0.7,3.1c-0.2,1.3-0.2,2.5-0.2,3.8L195.5,38z
					"/>
				<path d="M219.2,25.8l-1.9,5.6v17.3h-0.7V31.4l-1.8-5.6l-6.5,22.9h-0.8l6.8-24.1l-6.4-19.8h0.8l6.5,19.8l1.5,4.6V4.8h0.7v24.4
					l1.5-4.8l6.5-19.6h0.8l-6.4,19.8l6.8,24.1h-0.8L219.2,25.8z"/>
				<path d="M236.9,25.8v1.3h-7v20.3h8.3v1.3h-9.1V4.8h9.1v1.3h-8.3v19.7H236.9z"/>
				<path d="M250.7,23.9c1.8,0,3.2,0.7,4.1,2.1c0.9,1.4,1.4,3.8,1.4,7.3v5.1c0,3.3-0.4,5.8-1.2,7.6c-0.8,1.8-2.1,2.7-4,2.7h-5V4.8
					h9.3v1.3h-8.5v17.8H250.7z M251.1,47.4c1.6,0,2.7-0.8,3.4-2.3c0.7-1.5,1-3.7,1-6.6v-5.2c0-3.1-0.4-5.3-1.2-6.4
					c-0.8-1.1-2-1.7-3.6-1.6h-3.9v22.2L251.1,47.4z"/>
				<path d="M264.1,41.7c-0.2,1.1-0.4,2.1-0.6,3c-0.2,0.8-0.4,1.5-0.8,2.2c-0.3,0.6-0.7,1-1.2,1.4c-0.5,0.3-1.1,0.5-1.8,0.5v-1.2
					c0.5,0,1-0.1,1.4-0.4c0.4-0.3,0.7-0.7,1-1.2c0.3-0.6,0.5-1.2,0.7-1.8c0.2-0.7,0.4-1.5,0.6-2.4l1.4-7.2l-6-29.8h0.8l5.5,27.9
					l2.3-12.4l2.9-15.6h0.8L264.1,41.7z"/>
				<path d="M278.8,48.8V6.1h-5.2V4.8h11.2v1.3h-5.2v42.6H278.8z"/>
				<path d="M292.5,27.9l-4.2,20.8h-0.9V4.8h0.7v41.3l8.4-41.3h1v43.9h-0.7V6.9L292.5,27.9z"/>
				<path d="M2.9,57.3v34.9h5.7V57.3h0.6v34.9h5.6V57.3h0.6v36H2.2v-36H2.9z"/>
				<path d="M19.7,75.5l-1.5,4.1v13.8h-0.6v-36h0.6v20.3l7.3-20.3h0.7l-6.1,17l6.6,19H26L19.7,75.5z"/>
				<path d="M29.4,57.3v36h-0.6v-36H29.4z"/>
				<path d="M42.5,98.4v-5H32.2v5h-0.6v-6.1H33c0.4-0.8,0.7-1.8,0.8-2.7c0.1-1.1,0.2-2.2,0.2-3.4l0.8-28.8h6.6v34.9h1.7v6.1H42.5z
					 M34.6,86.2c0,1.2-0.1,2.3-0.2,3.3c-0.1,1-0.3,1.9-0.8,2.7h7.2V58.4h-5.4L34.6,86.2z"/>
				<path d="M49,58.4l-0.6,26.2c0,1.1-0.1,2.1-0.1,3.1c0,0.9-0.2,1.8-0.4,2.7c-0.2,0.7-0.5,1.4-0.9,2c-0.2,0.3-0.5,0.5-0.7,0.6
					c-0.3,0.1-0.6,0.2-0.9,0.2h-0.2v-1.1c0.3,0,0.5,0,0.8-0.1c0.3-0.1,0.5-0.3,0.7-0.5c0.4-0.5,0.6-1.1,0.8-1.8
					c0.2-0.8,0.3-1.6,0.3-2.4c0-0.9,0.1-1.8,0.1-2.7l0.6-27.3h6.8v36h-0.6V58.4H49z"/>
				<path d="M61.7,76.3l-3.4,17.1h-0.8v-36H58v33.8L65,57.3h0.8v36h-0.6V59.1L61.7,76.3z"/>
				<path d="M71.9,57.3c1.4,0,2.4,0.6,2.9,1.9c0.6,1.3,0.8,3.1,0.8,5.5v2.3c0,0.9,0,1.8-0.1,2.7c-0.1,0.7-0.2,1.4-0.4,2.1
					c-0.2,0.6-0.5,1.1-0.8,1.5c-0.4,0.4-0.8,0.7-1.4,0.8c0.5,0.1,1,0.4,1.5,0.9c0.4,0.4,0.7,1,0.9,1.6c0.5,1.7,0.7,3.4,0.7,5.2v3.2
					c0.1,2.1-0.3,4.2-1,6c-0.3,0.7-0.7,1.3-1.3,1.7c-0.6,0.4-1.2,0.6-1.9,0.5h-3.9v-36H71.9z M71.2,73.7c0.6,0,1.2-0.1,1.7-0.3
					c0.5-0.2,0.9-0.5,1.2-1c0.4-0.6,0.6-1.3,0.7-2c0.2-1.1,0.2-2.1,0.2-3.2v-2.4c0.1-1.6-0.2-3.3-0.7-4.8c-0.4-1.1-1.3-1.6-2.5-1.6
					h-3.3v15.3L71.2,73.7z M72,92.3c0.6,0.1,1.1-0.1,1.6-0.4c0.5-0.3,0.9-0.8,1.1-1.5c0.6-1.7,0.9-3.5,0.8-5.3v-3.2
					c0-2.6-0.3-4.4-1-5.5c-0.4-0.5-0.8-1-1.4-1.2c-0.5-0.3-1.1-0.4-1.7-0.3h-2.8v17.6L72,92.3z"/>
				<path d="M82.5,76.3L79,93.4h-0.8v-36h0.6v33.8l6.9-33.9h0.8v36H86V59L82.5,76.3z"/>
				<path d="M94.9,93.2h-0.7L89.4,59v34.3h-0.6v-36h0.9l4.8,34.2l4.8-34.2h1v36h-0.6V59.1L94.9,93.2z"/>
				<path d="M117.8,98.4v-5h-10.4v5h-0.6v-6.1h1.4c0.4-0.8,0.7-1.8,0.8-2.7c0.1-1.1,0.2-2.2,0.2-3.4l0.8-28.8h6.6v34.9h1.7v6.1
					H117.8z M109.9,86.2c0,1.2-0.1,2.3-0.2,3.3c-0.1,1-0.3,1.9-0.8,2.7h7.2V58.4h-5.4L109.9,86.2z"/>
				<path d="M124.3,58.4l-0.6,26.2c0,1.1-0.1,2.1-0.1,3.1c0,0.9-0.2,1.8-0.4,2.7c-0.2,0.7-0.5,1.4-0.9,2c-0.2,0.3-0.5,0.5-0.7,0.6
					c-0.3,0.1-0.6,0.2-0.9,0.2h-0.2v-1.1c0.3,0,0.5,0,0.8-0.1c0.3-0.1,0.5-0.3,0.7-0.5c0.4-0.5,0.6-1.1,0.8-1.8
					c0.2-0.8,0.3-1.6,0.3-2.4c0-0.9,0.1-1.8,0.1-2.7l0.6-27.3h6.8v36h-0.6V58.4H124.3z"/>
				<path d="M138.1,76.8c-0.6,0-1.2,0.1-1.7,0.3c-0.5,0.2-1,0.6-1.4,1.1c-0.4,0.6-0.7,1.3-0.9,2.1c-0.2,1.1-0.3,2.2-0.3,3.3v5.6
					c0,0.8,0,1.6-0.1,2.3c0,0.7-0.2,1.4-0.4,2h-0.7c0.2-0.7,0.4-1.3,0.4-2.1c0.1-0.7,0.1-1.5,0.1-2.2v-5.7c-0.1-1.7,0.2-3.3,0.7-4.9
					c0.2-0.6,0.5-1.1,1-1.5c0.4-0.4,0.9-0.7,1.4-0.8c-0.5-0.2-1-0.5-1.4-0.9c-0.4-0.4-0.7-0.9-1-1.5c-0.6-1.6-0.8-3.4-0.7-5.2v-3.3
					c-0.1-2,0.2-4,0.9-5.9c0.3-0.7,0.7-1.3,1.3-1.7c0.6-0.4,1.2-0.6,1.8-0.5h3.9v36h-0.6V76.8H138.1z M137.2,58.4
					c-0.5-0.1-1.1,0.1-1.6,0.4c-0.5,0.3-0.9,0.8-1.1,1.4c-0.6,1.6-0.8,3.4-0.8,5.2v3.3c0,1.2,0.1,2.3,0.3,3.4
					c0.2,0.8,0.4,1.5,0.8,2.1c0.4,0.5,0.8,0.9,1.3,1.1c0.6,0.2,1.2,0.3,1.8,0.3h2.4V58.4L137.2,58.4z"/>
				<path d="M151.6,57.3c1.4,0,2.4,0.6,3,1.9c0.6,1.3,0.8,3.1,0.8,5.5v2.3c0,0.9,0,1.8-0.1,2.7c-0.1,0.7-0.2,1.4-0.4,2.1
					c-0.2,0.6-0.5,1.1-0.8,1.5c-0.4,0.4-0.9,0.7-1.4,0.8c0.5,0.1,1.1,0.4,1.5,0.9c0.4,0.4,0.7,1,0.9,1.6c0.5,1.7,0.7,3.4,0.7,5.2
					v3.2c0.1,2.1-0.3,4.2-1,6c-0.3,0.7-0.7,1.3-1.3,1.7c-0.6,0.4-1.2,0.6-1.9,0.5h-3.9v-36H151.6z M150.8,73.7
					c0.6,0,1.2-0.1,1.7-0.3c0.5-0.2,0.9-0.5,1.2-1c0.4-0.6,0.6-1.3,0.7-2c0.2-1.1,0.2-2.1,0.2-3.2v-2.4c0.1-1.6-0.2-3.3-0.7-4.8
					c-0.4-1.1-1.3-1.6-2.5-1.6h-3.3v15.3L150.8,73.7z M151.6,92.3c0.6,0.1,1.1-0.1,1.6-0.4c0.5-0.3,0.9-0.8,1.1-1.5
					c0.6-1.7,0.9-3.5,0.8-5.3v-3.2c0-2.6-0.3-4.4-1-5.5c-0.4-0.5-0.8-1-1.4-1.2c-0.5-0.3-1.1-0.4-1.7-0.3h-2.8v17.6L151.6,92.3z"/>
				<path d="M159.5,84.9l-1.1,8.5h-0.6l4.7-36.1h0.9l4.8,36.1h-0.6l-1.1-8.5H159.5z M159.7,83.8h6.7L163,58.6L159.7,83.8z"/>
				<path d="M171,57.3v34.9h5.6V57.3h0.6v34.9h5.6V57.3h0.6v36h-13.1v-36H171z"/>
				<path d="M185.7,66.2c0-1.2,0.1-2.4,0.2-3.6c0.1-1,0.4-2,0.7-2.9c0.3-0.8,0.7-1.4,1.3-2c0.6-0.5,1.2-0.7,1.9-0.7
					c0.7,0,1.4,0.2,1.9,0.7c0.6,0.5,1,1.2,1.3,2c0.4,0.9,0.6,1.9,0.7,2.9c0.2,1.2,0.2,2.4,0.2,3.6v18.3c0,1.2-0.1,2.4-0.2,3.6
					c-0.1,1-0.4,2-0.7,2.9c-0.3,0.8-0.7,1.4-1.3,2c-0.6,0.5-1.2,0.7-1.9,0.7c-0.7,0-1.3-0.2-1.9-0.7c-0.5-0.5-1-1.2-1.3-2
					c-0.4-0.9-0.6-1.9-0.7-2.9c-0.2-1.2-0.2-2.4-0.2-3.6V66.2z M186.4,84.6c0,1,0.1,2.1,0.2,3.1c0.1,0.9,0.3,1.7,0.6,2.5
					c0.3,0.7,0.6,1.3,1.1,1.7c0.5,0.4,1.1,0.7,1.6,0.6c0.6,0,1.2-0.2,1.7-0.6c0.5-0.5,0.9-1,1.1-1.7c0.3-0.8,0.5-1.7,0.6-2.5
					c0.1-1,0.2-2.1,0.2-3.1V66.1c0-1-0.1-2.1-0.2-3.1c-0.1-0.9-0.3-1.7-0.6-2.5c-0.3-0.7-0.6-1.3-1.1-1.7c-0.5-0.4-1.1-0.7-1.7-0.6
					c-0.6,0-1.2,0.2-1.6,0.6c-0.5,0.5-0.9,1-1.1,1.7c-0.3,0.8-0.5,1.7-0.6,2.6c-0.1,1-0.2,2.1-0.2,3.1L186.4,84.6z"/>
				<path d="M196.9,58.4v34.9h-0.6v-36h7.3v1.1L196.9,58.4z"/>
				<path d="M205.7,66.2c0-1.2,0.1-2.4,0.2-3.6c0.1-1,0.4-2,0.7-2.9c0.3-0.8,0.7-1.4,1.3-2c0.6-0.5,1.2-0.7,1.9-0.7
					c0.7,0,1.4,0.2,1.9,0.7c0.6,0.5,1,1.2,1.3,2c0.4,0.9,0.6,1.9,0.7,2.9c0.2,1.2,0.2,2.4,0.2,3.6v18.3c0,1.2-0.1,2.4-0.2,3.6
					c-0.1,1-0.4,2-0.7,2.9c-0.3,0.8-0.7,1.4-1.3,2c-0.6,0.5-1.2,0.7-1.9,0.7c-0.7,0-1.3-0.2-1.9-0.7c-0.5-0.5-1-1.2-1.3-2
					c-0.4-0.9-0.6-1.9-0.7-2.9c-0.2-1.2-0.2-2.4-0.2-3.6V66.2z M206.3,84.6c0,1,0.1,2.1,0.2,3.1c0.1,0.9,0.3,1.7,0.6,2.5
					c0.3,0.7,0.6,1.3,1.1,1.7c0.5,0.4,1.1,0.7,1.6,0.6c0.6,0,1.2-0.2,1.7-0.6c0.5-0.5,0.9-1,1.1-1.7c0.3-0.8,0.5-1.7,0.6-2.5
					c0.1-1,0.2-2.1,0.2-3.1V66.1c0-1-0.1-2.1-0.3-3.1c-0.1-0.9-0.3-1.7-0.6-2.5c-0.3-0.7-0.6-1.3-1.1-1.7c-0.5-0.4-1.1-0.7-1.7-0.6
					c-0.6,0-1.2,0.2-1.6,0.6c-0.5,0.5-0.9,1-1.1,1.7c-0.3,0.8-0.5,1.7-0.5,2.5c-0.1,1-0.2,2.1-0.2,3.1L206.3,84.6z"/>
				<path d="M224.7,57.1c0.7,0,1.3,0.2,1.9,0.7c0.5,0.5,1,1.2,1.3,2c0.3,0.9,0.6,1.9,0.7,2.9c0.2,1.2,0.2,2.4,0.2,3.6v0.9
					c0,1.6-0.2,3.2-0.8,4.7c-0.4,1.2-1.1,2.2-2.1,2.7c0.5,0.2,0.9,0.6,1.3,1c0.4,0.4,0.7,1,0.8,1.6c0.5,1.5,0.7,3,0.7,4.6v2.7
					c0,1.2-0.1,2.4-0.2,3.6c-0.1,1-0.4,2-0.7,2.9c-0.3,0.8-0.7,1.4-1.3,2c-0.6,0.5-1.2,0.7-1.9,0.7c-0.7,0-1.3-0.3-1.9-0.7
					c-0.5-0.5-1-1.2-1.3-2c-0.3-0.9-0.6-1.9-0.7-2.9c-0.2-1.2-0.2-2.4-0.2-3.6v-2.6h0.6v2.7c0,1,0.1,2.1,0.2,3.1
					c0.1,0.9,0.3,1.7,0.6,2.5c0.2,0.7,0.6,1.3,1.1,1.7c0.5,0.4,1,0.7,1.6,0.6c0.6,0,1.2-0.2,1.7-0.6c0.5-0.5,0.8-1.1,1.1-1.7
					c0.3-0.8,0.5-1.7,0.6-2.6c0.1-1,0.2-2.1,0.2-3.1v-2.7c0.1-1.7-0.3-3.3-0.9-4.8c-0.2-0.6-0.6-1-1-1.4c-0.4-0.3-0.9-0.5-1.4-0.5
					h-1.3v-1h1.3c0.5,0,1-0.2,1.3-0.6c0.4-0.4,0.8-0.9,1.1-1.5c0.3-0.7,0.6-1.4,0.7-2.2c0.2-0.8,0.3-1.7,0.3-2.6v-1
					c0-1.1-0.1-2.1-0.2-3.2c-0.1-0.9-0.3-1.7-0.6-2.5c-0.2-0.7-0.6-1.3-1.1-1.7c-0.5-0.4-1.1-0.6-1.6-0.6c-0.6,0-1.2,0.2-1.6,0.6
					c-0.5,0.5-0.8,1.1-1.1,1.7c-0.3,0.8-0.5,1.7-0.6,2.5c-0.1,1-0.2,2.1-0.2,3.1v1.5h-0.6v-1.6c0-1.2,0.1-2.3,0.2-3.5
					c0.1-1,0.4-2,0.7-2.9c0.3-0.8,0.7-1.4,1.3-2C223.3,57.3,224,57.1,224.7,57.1z"/>
				<path d="M241.8,98.4v-5h-10.4v5h-0.6v-6.1h1.4c0.4-0.8,0.7-1.8,0.8-2.7c0.1-1.1,0.2-2.2,0.2-3.4l0.8-28.8h6.6v34.9h1.7v6.1
					H241.8z M233.9,86.2c0,1.2-0.1,2.3-0.2,3.3c-0.1,1-0.3,1.9-0.8,2.7h7.2V58.4h-5.4L233.9,86.2z"/>
				<path d="M244.6,66.2c0-1.2,0.1-2.4,0.2-3.6c0.1-1,0.4-2,0.7-2.9c0.3-0.8,0.7-1.4,1.3-2c0.6-0.5,1.2-0.7,1.9-0.7
					c0.7,0,1.4,0.2,1.9,0.7c0.6,0.5,1,1.2,1.3,2c0.4,0.9,0.6,1.9,0.7,2.9c0.2,1.2,0.2,2.4,0.2,3.6v18.3c0,1.2-0.1,2.4-0.2,3.6
					c-0.1,1-0.4,2-0.7,2.9c-0.3,0.8-0.7,1.4-1.3,2c-0.6,0.5-1.2,0.7-1.9,0.7c-0.7,0-1.3-0.2-1.9-0.7c-0.5-0.5-1-1.2-1.3-2
					c-0.4-0.9-0.6-1.9-0.7-2.9c-0.2-1.2-0.2-2.4-0.2-3.6V66.2z M245.2,84.6c0,1,0.1,2.1,0.2,3.1c0.1,0.9,0.3,1.7,0.6,2.5
					c0.3,0.7,0.6,1.3,1.1,1.7c0.5,0.4,1.1,0.7,1.6,0.6c0.6,0,1.2-0.2,1.7-0.6c0.5-0.5,0.9-1,1.1-1.7c0.3-0.8,0.5-1.7,0.6-2.5
					c0.1-1,0.2-2.1,0.2-3.1V66.1c0-1-0.1-2.1-0.3-3.1c-0.1-0.9-0.3-1.7-0.6-2.5c-0.3-0.7-0.6-1.3-1.1-1.7c-0.5-0.4-1.1-0.7-1.7-0.6
					c-0.6,0-1.2,0.2-1.6,0.6c-0.5,0.5-0.9,1-1.1,1.7c-0.3,0.8-0.5,1.7-0.5,2.5c-0.1,1-0.2,2.1-0.2,3.1L245.2,84.6z"/>
				<path d="M259,57.3c0.7,0,1.3,0.2,1.9,0.6c0.5,0.5,1,1.1,1.3,1.8c0.3,0.9,0.6,1.8,0.7,2.7c0.1,1.2,0.2,2.3,0.2,3.5v3.6
					c0,2.9-0.4,5-1.1,6.4s-1.9,2.1-3.4,2.1h-2.8v15.3h-0.6v-36H259z M258.5,77c1.4,0,2.4-0.6,3-1.7c0.6-1.1,0.9-3,0.9-5.6V66
					c0-1-0.1-2-0.2-3c-0.1-0.8-0.3-1.6-0.6-2.4c-0.2-0.6-0.6-1.2-1.1-1.6c-0.5-0.4-1.1-0.6-1.6-0.6h-3.2V77H258.5z"/>
				<path d="M265.1,66.2c0-1.2,0.1-2.4,0.2-3.6c0.1-1,0.4-2,0.7-2.9c0.3-0.8,0.7-1.4,1.3-2c0.6-0.5,1.2-0.7,1.9-0.7
					c0.7,0,1.4,0.2,1.9,0.7c0.6,0.5,1,1.2,1.3,2c0.4,0.9,0.6,1.9,0.7,2.9c0.2,1.2,0.2,2.4,0.2,3.6v18.3c0,1.2-0.1,2.4-0.2,3.6
					c-0.1,1-0.4,2-0.7,2.9c-0.3,0.8-0.7,1.4-1.3,2c-0.6,0.5-1.2,0.7-1.9,0.7c-0.7,0-1.3-0.2-1.9-0.7c-0.5-0.5-1-1.2-1.3-2
					c-0.4-0.9-0.6-1.9-0.7-2.9c-0.2-1.2-0.2-2.4-0.2-3.6V66.2z M265.7,84.6c0,1,0.1,2.1,0.2,3.1c0.1,0.9,0.3,1.7,0.6,2.5
					c0.3,0.7,0.6,1.3,1.1,1.7c0.5,0.4,1.1,0.7,1.6,0.6c0.6,0,1.2-0.2,1.7-0.6c0.5-0.5,0.9-1,1.1-1.7c0.3-0.8,0.5-1.7,0.6-2.5
					c0.1-1,0.2-2.1,0.2-3.1V66.1c0-1-0.1-2.1-0.2-3.1c-0.1-0.9-0.3-1.7-0.6-2.5c-0.3-0.7-0.6-1.3-1.1-1.7c-0.5-0.4-1.1-0.7-1.7-0.6
					c-0.6,0-1.2,0.2-1.6,0.6c-0.5,0.5-0.9,1-1.1,1.7c-0.3,0.8-0.5,1.7-0.6,2.6c-0.1,1-0.2,2.1-0.2,3.1V84.6z"/>
				<path d="M279.6,57.3c1.4,0,2.4,0.6,2.9,1.9c0.6,1.3,0.8,3.1,0.8,5.5v2.3c0,0.9,0,1.8-0.1,2.7c-0.1,0.7-0.2,1.4-0.4,2.1
					c-0.2,0.6-0.5,1.1-0.8,1.5c-0.4,0.4-0.8,0.7-1.4,0.8c0.5,0.1,1,0.4,1.5,0.9c0.4,0.4,0.7,1,0.9,1.6c0.5,1.7,0.7,3.4,0.7,5.2v3.2
					c0.1,2.1-0.3,4.2-1,6c-0.3,0.7-0.7,1.3-1.3,1.7c-0.6,0.4-1.2,0.6-1.9,0.5h-3.9v-36H279.6z M278.8,73.7c0.6,0,1.2-0.1,1.7-0.3
					c0.5-0.2,0.9-0.5,1.2-1c0.4-0.6,0.6-1.3,0.7-2c0.2-1.1,0.2-2.1,0.2-3.2v-2.4c0.1-1.6-0.2-3.3-0.7-4.8c-0.4-1.1-1.3-1.6-2.5-1.6
					h-3.3v15.3L278.8,73.7z M279.6,92.3c0.6,0.1,1.1-0.1,1.6-0.4c0.5-0.3,0.9-0.8,1.1-1.5c0.6-1.7,0.9-3.5,0.8-5.3v-3.2
					c0-2.6-0.3-4.4-1-5.5c-0.4-0.5-0.8-1-1.4-1.2c-0.5-0.3-1.1-0.4-1.7-0.3h-2.8v17.6L279.6,92.3z"/>
				<path d="M286.3,65H286l0.3-3.4v-4.2h0.6v4.1L286.3,65z"/>
				<path d="M294.5,76.8c-0.6,0-1.2,0.1-1.7,0.3c-0.5,0.2-1,0.6-1.4,1.1c-0.4,0.6-0.7,1.3-0.9,2.1c-0.2,1.1-0.3,2.2-0.3,3.3v5.6
					c0,0.8,0,1.6-0.1,2.3c0,0.7-0.2,1.4-0.4,2h-0.7c0.2-0.7,0.4-1.3,0.4-2.1c0.1-0.7,0.1-1.5,0.1-2.2v-5.7c-0.1-1.7,0.2-3.3,0.7-4.9
					c0.2-0.6,0.5-1.1,1-1.5c0.4-0.4,0.9-0.7,1.4-0.8c-0.5-0.2-1-0.5-1.4-0.9c-0.4-0.4-0.7-0.9-1-1.5c-0.6-1.6-0.8-3.4-0.7-5.2v-3.3
					c-0.1-2,0.2-4,0.9-5.9c0.3-0.7,0.7-1.3,1.3-1.7c0.6-0.4,1.2-0.6,1.8-0.5h3.9v36h-0.6V76.8H294.5z M293.7,58.4
					c-0.5-0.1-1.1,0.1-1.6,0.4c-0.5,0.3-0.9,0.8-1.1,1.4c-0.6,1.6-0.8,3.4-0.8,5.2v3.3c0,1.2,0.1,2.3,0.3,3.4
					c0.2,0.8,0.4,1.5,0.8,2.1c0.4,0.5,0.8,0.9,1.3,1.1c0.6,0.2,1.2,0.3,1.8,0.3h2.4V58.4L293.7,58.4z"/>
			</g>
		</g>
	</g>
</g>
</svg>
