<?xml version="1.0" encoding="utf-8"?>
<!-- Generator: Adobe Illustrator 24.0.3, SVG Export Plug-In . SVG Version: 6.00 Build 0)  -->
<svg version="1.1" xmlns="http://www.w3.org/2000/svg" xmlns:xlink="http://www.w3.org/1999/xlink" x="0px" y="0px"
	 viewBox="0 0 200.3 20.3" style="enable-background:new 0 0 200.3 20.3;" xml:space="preserve">
<style type="text/css">
	.st0{fill:#FFFFFF;}
	.st1{fill:#263068;}
	.st2{fill:#D90C2E;}
</style>
<g id="Слой_1">
</g>
<g id="Шар_1">
	<g>
		<path class="st0" d="M2.5,20.2l182.1,0.1c0.7,0,1.3-0.3,1.8-0.8l13.3-15.3c1.4-1.6,0.2-4.1-1.9-4L15.6,0c-0.7,0-1.3,0.3-1.8,0.8
			L0.6,16.2C-0.8,17.8,0.4,20.2,2.5,20.2z"/>
	</g>
	<g>
		<path class="st1" d="M23.8,6h2.9c0.4,0,0.8,0.1,1.2,0.2c0.7,0.3,1.1,1,1.1,1.9c0,1.3-0.7,2.4-1.7,2.8c-0.4,0.2-0.8,0.3-1.2,0.3
			h-1.4l-0.5,2.3h-1.9L23.8,6z M25.8,9.6c0.2,0,0.5,0,0.6-0.2C26.8,9.2,27,8.8,27,8.3c0-0.4-0.3-0.7-0.8-0.7h-0.9l-0.4,2.1H25.8z"/>
		<path class="st1" d="M33.7,5.8c2.2,0,3.6,1.4,3.6,3.3c0,2.4-2.2,4.5-4.5,4.5c-2.2,0-3.6-1.4-3.6-3.4C29.2,7.9,31.4,5.8,33.7,5.8z
			 M32.8,12c1.2,0,2.5-1.2,2.5-2.7c0-1-0.7-1.7-1.7-1.7c-1.3,0-2.5,1.2-2.5,2.7C31.2,11.3,31.8,12,32.8,12z"/>
		<path class="st1" d="M38.3,11.3c0.4,0.5,1,0.7,1.5,0.7c0.6,0,1.2-0.3,1.2-1c0-0.4-0.2-0.6-0.8-0.6h-1.1L39.5,9h0.9
			c0.5,0,1-0.4,1-0.9c0-0.4-0.2-0.6-0.7-0.6c-0.4,0-0.9,0.1-1.6,0.6l-0.7-1.3C39.4,6,40.4,5.8,41,5.8c1.3,0,2.4,0.6,2.4,1.9
			c0,0.9-0.5,1.6-1.3,1.9l0,0c0.5,0.2,0.9,0.8,0.9,1.5c0,1.6-1.6,2.5-3.1,2.5c-1,0-2-0.4-2.6-1.2L38.3,11.3z"/>
		<path class="st1" d="M45.2,6h2.9c0.4,0,0.8,0.1,1.2,0.2c0.7,0.3,1.1,1,1.1,1.9c0,1.3-0.7,2.4-1.7,2.8c-0.4,0.2-0.8,0.3-1.2,0.3H46
			l-0.5,2.3h-1.9L45.2,6z M47.3,9.6c0.2,0,0.5,0,0.6-0.2c0.4-0.2,0.6-0.7,0.6-1.2c0-0.4-0.3-0.7-0.8-0.7h-0.9l-0.4,2.1H47.3z"/>
		<path class="st1" d="M51.9,6h1.9l-1.5,7.6h-1.9L51.9,6z"/>
		<path class="st1" d="M53.5,12h0.8c0.9-1.3,1.5-2.8,1.8-4.2L56.4,6h5.1l-1.2,6h0.8L60.6,15h-1.6l0.3-1.5h-4.4L54.6,15h-1.7L53.5,12
			z M58.5,12l0.8-4.4h-1.5l-0.1,0.4c-0.2,1.1-0.8,3-1.5,4.1H58.5z"/>
		<path class="st1" d="M64.3,9.5L64.3,9.5L62.9,6h1.9l1.2,2.9h0.7L67.2,6H69l-0.6,2.9h0.7L71.1,6h2.2l-2.6,3.8v0l1.3,3.8H70l-1-3.1
			h-0.9l-0.6,3.1h-1.9l0.6-3.1h-0.7l-2,3.1h-2.2L64.3,9.5z"/>
		<path class="st1" d="M73.6,11.8c0.2,0.2,0.5,0.3,0.9,0.3c0.3,0,0.5-0.2,0.7-0.4L73.4,6h1.9L76,8.7c0.1,0.5,0.2,1,0.2,1h0
			c0,0,0.2-0.5,0.5-1L78.2,6h2.1L77,11.7c-0.6,1-1.3,2-2.5,2c-0.7,0-1.2-0.2-1.7-0.6L73.6,11.8z"/>
		<path class="st1" d="M84.5,5.8c1,0,2.1,0.3,2.8,1.1l-1,1.4c-0.4-0.5-1.2-0.8-1.8-0.8c-1.1,0-1.9,0.6-2.3,1.5h3.1l-0.3,1.5h-3.1
			c0,1.1,0.7,1.5,1.8,1.5c0.8,0,1.6-0.4,2.2-0.9l0.8,1.4c-0.8,0.7-2.1,1.2-3.2,1.2c-2.2,0-3.5-1.4-3.5-3.3C79.8,8,81.8,5.8,84.5,5.8
			z"/>
		<path class="st1" d="M90.8,8.8h1.8l0.3,2.1c0,0.2,0.1,0.6,0.1,0.6h0c0,0,0.1-0.3,0.3-0.6l1.1-2.1h1.8l-0.5,4.7h-1.5l0.3-2.2
			c0.1-0.4,0.1-0.8,0.1-0.8h0c0,0-0.2,0.4-0.4,0.7l-0.9,1.6h-1.3l-0.3-1.6c-0.1-0.3-0.1-0.7-0.1-0.7h0c0,0-0.1,0.5-0.2,0.8L91,13.6
			h-1.5L90.8,8.8z"/>
		<path class="st1" d="M99.7,8.7c1.4,0,2.4,0.8,2.4,2.1c0,1.7-1.5,2.8-2.9,2.8c-1.4,0-2.4-0.8-2.4-2.1C96.8,9.9,98.2,8.7,99.7,8.7z
			 M99.3,12.3c0.6,0,1.3-0.5,1.3-1.4c0-0.6-0.4-0.9-0.9-0.9c-0.6,0-1.3,0.6-1.3,1.4C98.4,12,98.7,12.3,99.3,12.3z"/>
		<path class="st1" d="M103.4,8.8h1.6l-0.3,1.7h0.5l1.1-1.7h1.8l-1.8,2.4v0l1.1,2.3h-1.7l-0.8-1.7h-0.5l-0.3,1.7h-1.6L103.4,8.8z"/>
		<path class="st1" d="M109.1,15.4h-1.6l1.3-6.5h1.4l0,0.2c0,0.2-0.1,0.3-0.1,0.3h0c0.3-0.4,0.9-0.6,1.4-0.6c1.1,0,1.8,0.8,1.8,2.1
			c0,1.7-1.3,2.9-2.6,2.9c-0.5,0-0.9-0.2-1.2-0.5h0c0,0,0,0.2-0.1,0.4L109.1,15.4z M110.6,12.4c0.5,0,1.2-0.5,1.2-1.5
			c0-0.5-0.3-0.8-0.7-0.8c-0.5,0-1.2,0.5-1.2,1.5C109.8,12,110.1,12.4,110.6,12.4z"/>
		<path class="st1" d="M116.8,8.7c1.4,0,2.4,0.8,2.4,2.1c0,1.7-1.5,2.8-2.9,2.8c-1.4,0-2.4-0.8-2.4-2.1
			C113.8,9.9,115.3,8.7,116.8,8.7z M116.3,12.3c0.6,0,1.3-0.5,1.3-1.4c0-0.6-0.4-0.9-0.9-0.9c-0.6,0-1.3,0.6-1.3,1.4
			C115.4,12,115.8,12.3,116.3,12.3z"/>
		<path class="st1" d="M121.2,10.2h-1.4l0.3-1.3h4.4l-0.3,1.3h-1.4l-0.7,3.4h-1.6L121.2,10.2z"/>
		<path class="st1" d="M125.2,8.8h1.5l-0.4,2c0,0.2-0.1,0.5-0.1,0.5h0c0,0,0.1-0.2,0.4-0.5l1.7-2h1.6l-0.9,4.7h-1.5l0.4-2
			c0-0.2,0.1-0.5,0.1-0.5h0c0,0-0.1,0.2-0.4,0.5l-1.7,2h-1.6L125.2,8.8z"/>
		<path class="st1" d="M130.9,8.8h1.6l-0.3,1.7h1.5l0.3-1.7h1.6l-0.9,4.7H133l0.3-1.7h-1.5l-0.3,1.7h-1.6L130.9,8.8z"/>
		<path class="st1" d="M136.6,8.8h1.6l-0.3,1.7h1.5l0.3-1.7h1.6l-0.9,4.7h-1.6l0.3-1.7h-1.5l-0.3,1.7h-1.6L136.6,8.8z"/>
		<path class="st1" d="M142.1,12.1c0.2-0.2,0.3-0.3,0.3-0.3v0c-0.4-0.2-0.6-0.7-0.6-1.2c0-1,0.8-1.7,1.9-1.7h2.6l-0.9,4.7h-1.6
			l0.3-1.4h-0.3l-1.1,1.4h-1.7L142.1,12.1z M143.9,11.1h0.4l0.2-1.2h-0.4c-0.4,0-0.8,0.3-0.8,0.8C143.4,10.9,143.6,11.1,143.9,11.1z
			"/>
	</g>
	<path class="st2" d="M12.5,6.1c-0.5-0.3-0.8-0.1-0.8,0.5v7.2c0,0.6,0.4,0.8,0.9,0.5l6.6-3.8L12.5,6.1z"/>
</g>
</svg>
