<?xml version="1.0" encoding="utf-8"?>
<!-- Generator: Adobe Illustrator 24.0.3, SVG Export Plug-In . SVG Version: 6.00 Build 0)  -->
<svg version="1.1" xmlns="http://www.w3.org/2000/svg" xmlns:xlink="http://www.w3.org/1999/xlink" x="0px" y="0px"
	 viewBox="0 0 200.3 20.3" style="enable-background:new 0 0 200.3 20.3;" xml:space="preserve">
<style type="text/css">
	.st0{fill:#FFFFFF;}
	.st1{fill:#263068;}
	.st2{fill:#D90C2E;}
</style>
<g id="Слой_1">
</g>
<g id="Шар_1">
	<g>
		<path class="st0" d="M2.5,20.2l182.1,0.1c0.7,0,1.3-0.3,1.8-0.8l13.3-15.3c1.4-1.6,0.2-4.1-1.9-4L15.6,0c-0.7,0-1.3,0.3-1.8,0.8
			L0.6,16.2C-0.8,17.8,0.4,20.2,2.5,20.2z"/>
	</g>
	<g>
		<path class="st1" d="M23.8,6.2h6.4l-1.5,7.6h-1.9l1.2-6h-2.7l-1.2,6h-1.9L23.8,6.2z"/>
		<path class="st1" d="M34.9,6c2.2,0,3.6,1.4,3.6,3.3c0,2.4-2.2,4.5-4.5,4.5c-2.2,0-3.6-1.4-3.6-3.4C30.5,8.1,32.6,6,34.9,6z
			 M34,12.2c1.2,0,2.5-1.2,2.5-2.7c0-1-0.7-1.7-1.7-1.7c-1.3,0-2.5,1.2-2.5,2.7C32.4,11.5,33.1,12.2,34,12.2z"/>
		<path class="st1" d="M42.8,13.8l1.2-6h-1.5l-0.2,0.9c-0.7,3.7-2.1,5.2-4.3,5.2l0.3-1.7c0.9-0.1,1.7-0.8,2.2-3.5l0.5-2.5h5.1
			l-1.5,7.6H42.8z"/>
		<path class="st1" d="M47.6,6.2h4.7L52,7.8h-2.9l-0.3,1.4h2.3l-0.3,1.6h-2.3l-0.3,1.4h3L51,13.8h-4.9L47.6,6.2z"/>
		<path class="st1" d="M53.6,6.2h4.6l-0.3,1.6h-2.8l-1.2,6h-1.9L53.6,6.2z"/>
		<path class="st1" d="M59,6.2h1.9l-1.2,6h1.9l1.2-6h1.9l-1.2,6h1.9l1.2-6h1.9l-1.5,7.6h-9.4L59,6.2z"/>
		<path class="st1" d="M69.1,12c0.2,0.2,0.5,0.3,0.9,0.3c0.3,0,0.5-0.2,0.7-0.4l-1.8-5.7h1.9l0.8,2.7c0.1,0.5,0.2,1,0.2,1h0
			c0,0,0.2-0.5,0.5-1l1.4-2.7h2.1l-3.3,5.7c-0.6,1-1.3,2-2.5,2c-0.7,0-1.2-0.2-1.7-0.6L69.1,12z"/>
		<path class="st1" d="M79.8,6c1,0,2.1,0.3,2.8,1.1l-1,1.4c-0.4-0.5-1.2-0.8-1.8-0.8c-1.1,0-1.9,0.6-2.3,1.5h3.1l-0.3,1.5h-3.1
			c0,1.1,0.7,1.5,1.8,1.5c0.8,0,1.6-0.4,2.2-0.9l0.8,1.4c-0.8,0.7-2.1,1.2-3.2,1.2c-2.2,0-3.5-1.4-3.5-3.3C75.1,8.2,77.2,6,79.8,6z"
			/>
		<path class="st1" d="M85.6,9H87l-0.4,2c0,0.2-0.1,0.5-0.1,0.5h0c0,0,0.1-0.2,0.4-0.5l1.7-2h1.6l-0.9,4.7h-1.5l0.4-2
			c0-0.2,0.1-0.5,0.1-0.5h0c0,0-0.1,0.2-0.4,0.5l-1.7,2h-1.6L85.6,9z M86.5,7.6c0-0.1,0-0.2,0-0.3h1.2c0,0.1,0,0.1,0,0.2
			c0,0.2,0.1,0.4,0.5,0.4c0.3,0,0.6-0.2,0.7-0.6h1.2c-0.2,1.1-1,1.5-1.9,1.5C87.2,8.7,86.5,8.2,86.5,7.6z"/>
		<path class="st1" d="M93.3,8.9c1.4,0,2.4,0.8,2.4,2.1c0,1.7-1.5,2.8-2.9,2.8c-1.4,0-2.4-0.8-2.4-2.1C90.3,10.1,91.8,8.9,93.3,8.9z
			 M92.8,12.5c0.6,0,1.3-0.5,1.3-1.4c0-0.6-0.4-0.9-0.9-0.9c-0.6,0-1.3,0.6-1.3,1.4C91.9,12.2,92.3,12.5,92.8,12.5z"/>
		<path class="st1" d="M96.8,9h3.3l-0.3,1.3h-1.7l-0.7,3.4h-1.6L96.8,9z"/>
		<path class="st1" d="M102.8,8.9c1.4,0,2.4,0.8,2.4,2.1c0,1.7-1.5,2.8-2.9,2.8c-1.4,0-2.4-0.8-2.4-2.1
			C99.9,10.1,101.3,8.9,102.8,8.9z M102.3,12.5c0.6,0,1.3-0.5,1.3-1.4c0-0.6-0.4-0.9-0.9-0.9c-0.6,0-1.3,0.6-1.3,1.4
			C101.5,12.2,101.8,12.5,102.3,12.5z"/>
		<path class="st1" d="M108.4,9h2.5c0.9,0,1.4,0.4,1.4,1.1c0,0.4-0.2,0.9-0.8,1.2v0c0.4,0.2,0.6,0.6,0.6,1c0,1-1.1,1.5-2.1,1.5h-2.6
			L108.4,9z M110,12.8c0.3,0,0.6-0.2,0.6-0.6c0-0.2-0.1-0.4-0.4-0.4h-0.7l-0.2,0.9H110z M110.2,10.9c0.3,0,0.6-0.2,0.6-0.5
			c0-0.2-0.1-0.3-0.4-0.3h-0.6l-0.2,0.9H110.2z"/>
		<path class="st1" d="M113.5,9h1.5l-0.4,2c0,0.2-0.1,0.5-0.1,0.5h0c0,0,0.1-0.2,0.4-0.5l1.7-2h1.6l-0.9,4.7h-1.5l0.4-2
			c0-0.2,0.1-0.5,0.1-0.5h0c0,0-0.1,0.2-0.4,0.5l-1.7,2h-1.6L113.5,9z"/>
		<path class="st1" d="M119,9h2.5c0.9,0,1.4,0.4,1.4,1.1c0,0.4-0.2,0.9-0.8,1.2v0c0.4,0.2,0.6,0.6,0.6,1c0,1-1.1,1.5-2.1,1.5h-2.6
			L119,9z M120.5,12.8c0.3,0,0.6-0.2,0.6-0.6c0-0.2-0.1-0.4-0.4-0.4H120l-0.2,0.9H120.5z M120.8,10.9c0.3,0,0.6-0.2,0.6-0.5
			c0-0.2-0.1-0.3-0.4-0.3h-0.6l-0.2,0.9H120.8z"/>
		<path class="st1" d="M126,8.9c1.3,0,2,0.8,2,1.8c0,0.3-0.1,0.6-0.2,0.9h-3v0.1c0,0.5,0.3,0.8,0.9,0.8c0.5,0,1-0.2,1.4-0.5l0.4,1.2
			c-0.4,0.3-1.2,0.6-1.9,0.6c-1.6,0-2.4-1-2.4-2.1C123.3,10.2,124.4,8.9,126,8.9z M126.5,10.8c0-0.1,0-0.1,0-0.2
			c0-0.3-0.2-0.5-0.5-0.5c-0.5,0-0.8,0.3-0.9,0.7H126.5z"/>
		<path class="st1" d="M128,12.5h0.5c0.4-0.6,0.8-1.4,0.9-2.2l0.2-1.3h3.9l-0.7,3.5h0.7l-0.5,2.4h-1.4l0.2-1.1h-2.8l-0.2,1.1h-1.5
			L128,12.5z M131.3,12.5l0.4-2.2h-0.8l0,0.2c-0.1,0.7-0.4,1.6-0.8,2H131.3z"/>
		<path class="st1" d="M136.8,8.9c1.3,0,2,0.8,2,1.8c0,0.3-0.1,0.6-0.2,0.9h-3v0.1c0,0.5,0.3,0.8,0.9,0.8c0.5,0,1-0.2,1.4-0.5
			l0.4,1.2c-0.4,0.3-1.2,0.6-1.9,0.6c-1.6,0-2.4-1-2.4-2.1C134.1,10.2,135.3,8.9,136.8,8.9z M137.3,10.8c0-0.1,0-0.1,0-0.2
			c0-0.3-0.2-0.5-0.5-0.5c-0.5,0-0.8,0.3-0.9,0.7H137.3z"/>
		<path class="st1" d="M139.9,9h1.6l-0.3,1.7h1.5l0.3-1.7h1.6l-0.9,4.7H142l0.3-1.7h-1.5l-0.3,1.7h-1.6L139.9,9z"/>
		<path class="st1" d="M145.4,9h1.6l-0.3,1.7h1.5l0.3-1.7h1.6l-0.9,4.7h-1.6l0.3-1.7h-1.5l-0.3,1.7h-1.6L145.4,9z"/>
		<path class="st1" d="M150.8,12.3c0.2-0.2,0.3-0.3,0.3-0.3v0c-0.4-0.2-0.6-0.7-0.6-1.2c0-1,0.8-1.7,1.9-1.7h2.6l-0.9,4.7h-1.6
			l0.3-1.4h-0.3l-1.1,1.4h-1.7L150.8,12.3z M152.6,11.3h0.4l0.2-1.2h-0.4c-0.4,0-0.8,0.3-0.8,0.8C152.1,11.1,152.3,11.3,152.6,11.3z
			"/>
	</g>
	<path class="st2" d="M12.5,6.1c-0.5-0.3-0.8-0.1-0.8,0.5v7.2c0,0.6,0.4,0.8,0.9,0.5l6.6-3.8L12.5,6.1z"/>
</g>
</svg>
