<?xml version="1.0" encoding="utf-8"?>
<!-- Generator: Adobe Illustrator 24.0.3, SVG Export Plug-In . SVG Version: 6.00 Build 0)  -->
<svg version="1.1" xmlns="http://www.w3.org/2000/svg" xmlns:xlink="http://www.w3.org/1999/xlink" x="0px" y="0px"
	 viewBox="0 0 200.3 20.3" style="enable-background:new 0 0 200.3 20.3;" xml:space="preserve">
<style type="text/css">
	.st0{fill:#FFFFFF;}
	.st1{fill:#263068;}
	.st2{fill:#D90C2E;}
</style>
<g id="Слой_1">
</g>
<g id="Шар_1">
	<g>
		<path class="st0" d="M2.5,20.2l182.1,0.1c0.7,0,1.3-0.3,1.8-0.8l13.3-15.3c1.4-1.6,0.2-4.1-1.9-4L15.6,0c-0.7,0-1.3,0.3-1.8,0.8
			L0.6,16.2C-0.8,17.8,0.4,20.2,2.5,20.2z"/>
	</g>
	<g>
		<path class="st1" d="M23.8,6h6.4l-1.5,7.6h-1.9l1.2-6h-2.7l-1.2,6h-1.9L23.8,6z"/>
		<path class="st1" d="M35.1,5.9c2.2,0,3.6,1.4,3.6,3.3c0,2.4-2.2,4.5-4.5,4.5c-2.2,0-3.6-1.4-3.6-3.4C30.6,7.9,32.7,5.9,35.1,5.9z
			 M34.2,12c1.2,0,2.5-1.2,2.5-2.7c0-1-0.7-1.7-1.7-1.7c-1.3,0-2.5,1.2-2.5,2.7C32.5,11.3,33.2,12,34.2,12z"/>
		<path class="st1" d="M43.8,5.9c1,0,2.2,0.3,2.9,1.1l-1,1.3c-0.4-0.4-1.1-0.7-1.8-0.7c-1.7,0-2.6,1.5-2.6,2.7c0,1,0.6,1.8,1.8,1.8
			c0.8,0,1.6-0.4,2.2-0.9l0.7,1.5c-0.7,0.6-1.9,1.1-3,1.1c-2.2,0-3.6-1.4-3.6-3.4C39.3,7.9,41.3,5.9,43.8,5.9z"/>
		<path class="st1" d="M48.1,6H50l-0.7,3.5c-0.1,0.5-0.3,1.3-0.3,1.3h0c0,0,0.5-0.8,0.9-1.3L52.6,6h1.9L53,13.6h-1.9l0.7-3.5
			c0.1-0.5,0.3-1.3,0.3-1.3h0c0,0-0.5,0.8-0.9,1.3l-2.8,3.5h-1.9L48.1,6z"/>
		<path class="st1" d="M58.8,13.6l1.2-6h-1.5l-0.2,0.9c-0.7,3.7-2.1,5.2-4.3,5.2l0.3-1.7c0.9-0.1,1.7-0.8,2.2-3.5L57,6h5.1l-1.5,7.6
			H58.8z"/>
		<path class="st1" d="M63.7,6h1.9l-0.6,3h0.9c0.6-1.8,2.3-3.2,4.2-3.2c2.1,0,3.5,1.4,3.5,3.3c0,2.4-2.1,4.5-4.4,4.5
			c-2,0-3.4-1.3-3.5-3.1h-1.1l-0.6,3h-1.9L63.7,6z M69.2,12c1.2,0,2.5-1.2,2.5-2.7c0-1-0.7-1.7-1.6-1.7c-1.2,0-2.5,1.2-2.5,2.7
			C67.6,11.3,68.3,12,69.2,12z"/>
		<path class="st1" d="M78.9,5.9c1,0,2.1,0.3,2.8,1.1l-1,1.4c-0.4-0.5-1.2-0.8-1.8-0.8c-1.1,0-1.9,0.6-2.3,1.5h3.1l-0.3,1.5h-3.1
			c0,1.1,0.7,1.5,1.8,1.5c0.8,0,1.6-0.4,2.2-0.9l0.8,1.4c-0.8,0.7-2.1,1.2-3.2,1.2c-2.2,0-3.5-1.4-3.5-3.3
			C74.3,8.1,76.3,5.9,78.9,5.9z"/>
		<path class="st1" d="M84.7,12.1c0.3,0.2,0.7,0.5,1.1,0.5c0.3,0,0.7-0.1,0.7-0.5c0-0.2-0.1-0.3-0.4-0.3h-0.6l0.2-1h0.5
			c0.3,0,0.6-0.1,0.6-0.4c0-0.2-0.1-0.3-0.5-0.3c-0.3,0-0.6,0.1-1.1,0.4l-0.4-1c0.5-0.3,1.2-0.5,1.9-0.5c1.1,0,1.7,0.5,1.7,1.2
			c0,0.5-0.3,0.9-0.8,1.2v0c0.3,0.2,0.6,0.5,0.6,1c0,1-1,1.5-2.1,1.5c-0.7,0-1.4-0.2-1.9-0.7L84.7,12.1z"/>
		<path class="st1" d="M91.5,10.7L91.5,10.7c0.1-0.1,0.1-0.1,0.1-0.2c0-0.3-0.2-0.4-0.6-0.4c-0.5,0-0.9,0.2-1.4,0.4l-0.3-1.2
			c0.3-0.2,1.2-0.5,2-0.5c0.8,0,1.9,0.3,1.9,1.5c0,0.1,0,0.3,0,0.5l-0.5,2.9h-1.4l0.1-0.3c0-0.2,0.1-0.3,0.1-0.3h0
			c-0.2,0.3-0.7,0.7-1.4,0.7c-0.7,0-1.4-0.4-1.4-1.2C88.5,11.1,90.3,10.7,91.5,10.7z M90.4,12.5c0.4,0,0.9-0.4,0.9-0.8l0-0.1h-0.2
			c-0.3,0-1.2,0.1-1.2,0.6C90,12.4,90.1,12.5,90.4,12.5z"/>
		<path class="st1" d="M95.1,11.2L94,8.9h1.7l0.4,1c0,0.1,0.1,0.3,0.1,0.3h0c0,0,0.1-0.2,0.2-0.3l0.7-1h1.8l-2,2.4l1.1,2.3h-1.6
			l-0.4-1c0-0.1-0.1-0.3-0.1-0.3h0c0,0-0.1,0.2-0.2,0.3l-0.7,1h-1.8L95.1,11.2z"/>
		<path class="st1" d="M99.5,8.9h1.5l-0.4,2c0,0.2-0.1,0.5-0.1,0.5h0c0,0,0.1-0.2,0.4-0.5l1.7-2h1.6l-0.9,4.7h-1.5l0.4-2
			c0-0.2,0.1-0.5,0.1-0.5h0c0,0-0.1,0.2-0.4,0.5l-1.7,2h-1.6L99.5,8.9z"/>
		<path class="st1" d="M107.4,8.8c0.7,0,1.4,0.2,1.9,0.7l-0.8,1c-0.3-0.2-0.7-0.4-1.1-0.4c-0.9,0-1.4,0.7-1.4,1.4
			c0,0.5,0.3,0.9,1,0.9c0.5,0,1-0.3,1.4-0.6l0.4,1.2c-0.5,0.4-1.3,0.7-2,0.7c-1.6,0-2.4-1-2.4-2.2C104.4,10.2,105.6,8.8,107.4,8.8z"
			/>
		<path class="st1" d="M111,10.2h-1.4l0.3-1.3h4.4l-0.3,1.3h-1.4l-0.7,3.4h-1.6L111,10.2z"/>
		<path class="st1" d="M116.3,12.3c0.4-0.1,0.9-0.3,1.2-1.9l0.3-1.5h3.9l-0.9,4.7h-1.6l0.7-3.5h-0.8l0,0.3c-0.4,1.9-1.1,3.2-3,3.2
			L116.3,12.3z"/>
		<path class="st1" d="M124.7,8.8c1.3,0,2,0.8,2,1.8c0,0.3-0.1,0.6-0.2,0.9h-3v0.1c0,0.5,0.3,0.8,0.9,0.8c0.5,0,1-0.2,1.4-0.5
			l0.4,1.2c-0.4,0.3-1.2,0.6-1.9,0.6c-1.6,0-2.4-1-2.4-2.1C122,10,123.2,8.8,124.7,8.8z M125.2,10.7c0-0.1,0-0.1,0-0.2
			c0-0.3-0.2-0.5-0.5-0.5c-0.5,0-0.8,0.3-0.9,0.7H125.2z"/>
		<path class="st1" d="M127.9,8.9h3.3l-0.3,1.3h-1.7l-0.7,3.4H127L127.9,8.9z"/>
		<path class="st1" d="M133.9,8.8c1.3,0,2,0.8,2,1.8c0,0.3-0.1,0.6-0.2,0.9h-3v0.1c0,0.5,0.3,0.8,0.9,0.8c0.5,0,1-0.2,1.4-0.5
			l0.4,1.2c-0.4,0.3-1.2,0.6-1.9,0.6c-1.6,0-2.4-1-2.4-2.1C131.2,10,132.3,8.8,133.9,8.8z M134.4,10.7c0-0.1,0-0.1,0-0.2
			c0-0.3-0.2-0.5-0.5-0.5c-0.5,0-0.8,0.3-0.9,0.7H134.4z"/>
		<path class="st1" d="M137.1,8.9h1.6l-0.3,1.7h1.5l0.3-1.7h1.6l-0.9,4.7h-1.6l0.3-1.7h-1.5l-0.3,1.7h-1.6L137.1,8.9z"/>
		<path class="st1" d="M142.8,8.9h1.6l-0.3,1.5h0.8c1.1,0,1.6,0.6,1.6,1.4c0,1.1-0.8,1.8-2.1,1.8h-2.5L142.8,8.9z M144.2,12.6
			c0.4,0,0.7-0.3,0.7-0.7c0-0.3-0.2-0.5-0.5-0.5h-0.5l-0.2,1.2H144.2z"/>
		<path class="st1" d="M147.2,10l0.4-0.4l-0.4-0.1l0.3-0.6l0.4,0.2l0-0.5h0.7l-0.1,0.5l0.5-0.2l0.1,0.6l-0.5,0.1l0.3,0.3l-0.6,0.4
			L148,9.9l-0.3,0.4L147.2,10z"/>
		<path class="st1" d="M149.4,10l0.4-0.4l-0.4-0.1l0.3-0.6l0.4,0.2l0-0.5h0.7l-0.1,0.5l0.5-0.2l0.1,0.6l-0.5,0.1l0.3,0.3l-0.6,0.4
			l-0.2-0.4l-0.3,0.4L149.4,10z"/>
	</g>
	<path class="st2" d="M12.5,6.1c-0.5-0.3-0.8-0.1-0.8,0.5v7.2c0,0.6,0.4,0.8,0.9,0.5l6.6-3.8L12.5,6.1z"/>
</g>
</svg>
