<?xml version="1.0" encoding="utf-8"?>
<!-- Generator: Adobe Illustrator 24.0.3, SVG Export Plug-In . SVG Version: 6.00 Build 0)  -->
<svg version="1.1" id="Слой_1" xmlns="http://www.w3.org/2000/svg" xmlns:xlink="http://www.w3.org/1999/xlink" x="0px" y="0px"
	 viewBox="0 0 288 109.8" style="enable-background:new 0 0 288 109.8;" xml:space="preserve">
<g>
	<path d="M25.7,0c-3,0-4.1,5.6-4.1,12.4v24.9c0,6.8,1.1,12.4,4.1,12.4c3,0,4.2-5.6,4.2-12.4V32h-0.6v5.4c0,6-0.9,10.9-3.5,10.9
		c-2.6,0-3.5-4.9-3.5-10.9V12.3c0-6,0.9-10.9,3.5-10.9c2.6,0,3.5,5,3.5,10.9v3.9h0.6v-3.8C29.9,5.6,28.8,0,25.7,0z"/>
	<path d="M40.4,37.8l1.2,11.6h0.6L37.3,0.3h-0.9l-4.8,49.1h0.6l1.2-11.6H40.4z M36.8,2.1l3.5,34.3h-6.8L36.8,2.1z"/>
	<path d="M55,2.7v46.7h0.6v-49h-1l-4.9,46.5L44.9,0.3h-1v49h0.6V2.7l4.9,46.6h0.7L55,2.7z"/>
	<path d="M57.5,37.3c0,6.9,1.2,12.4,4.2,12.4c3.1,0,4.2-5.5,4.2-12.4V12.4C65.9,5.5,64.8,0,61.7,0c-3,0-4.2,5.5-4.2,12.4V37.3z
		 M58.1,12.3c0-6,0.9-10.9,3.6-10.9c2.7,0,3.6,4.9,3.6,10.9v25.1c0,6-1,10.9-3.6,10.9c-2.6,0-3.6-4.9-3.6-10.9V12.3z"/>
	<path d="M77.2,1.8v47.5h0.7v-49h-6.9l-0.6,37.2c-0.1,5-0.1,10.4-2.7,10.4v1.5h0.2c2.8-0.2,3-6.1,3.1-11.9l0.6-35.7H77.2z"/>
	<path d="M79.7,0.3v49h0.6v-49H79.7z"/>
	<path d="M90.7,49.4h0.7l-6.7-25.8l6.1-23.2h-0.7L82.8,28V0.3h-0.6v49h0.6V30.6l1.5-5.6L90.7,49.4z"/>
	<path d="M103.3,0.3h-0.7l-2.4,17.4l-1.9,13.8L93.7,0.3H93L98,33.5l-1.1,8c-0.6,4-1.1,6.4-3,6.4v1.4c2.3,0.1,3-3,3.6-7.8L103.3,0.3z
		"/>
	<path d="M105,0.3v49h4c3,0,4.2-4.3,4.2-11.3v-4.3c0-5.7-0.8-9.6-3.1-10.4c2.2-0.8,2.7-4.2,2.7-9.7v-3.2c0-6.6-0.9-10.2-3.8-10.2
		H105z M105.6,22.6V1.8h3.3c2.5,0,3.2,3,3.2,8.8v3.3c0,7.1-1.2,8.8-4,8.8H105.6z M105.6,47.9V24h2.9c2.7,0,4.1,2.6,4.1,9.7v4.4
		c0,6.2-1,9.8-3.6,9.8H105.6z"/>
	<path d="M123.7,37.8l1.2,11.6h0.6l-4.9-49.1h-0.9l-4.8,49.1h0.6l1.2-11.6H123.7z M120.1,2.1l3.5,34.3h-6.8L120.1,2.1z"/>
	<path d="M135.1,25.6v23.8h0.6v-49h-0.6v23.8h-7.2V0.3h-0.6v49h0.6V25.6H135.1z"/>
	<path d="M145.4,25.6v23.8h0.6v-49h-0.6v23.8h-7.2V0.3h-0.6v49h0.6V25.6H145.4z"/>
	<path d="M155.7,26.7v22.6h0.6v-49h-3.9c-2.9,0-4.1,4.3-4.1,11v4.4c0,6,1,9.3,3.1,10.3c-2.2,0.8-3.1,4.4-3.1,9.8v7.7
		c0,1.9-0.1,4.3-0.5,5.8h0.7c0.4-1.5,0.5-3.7,0.5-5.8v-7.7c0-7.2,1.8-9.1,4.3-9.1H155.7z M155.7,1.8v23.5h-2.4
		c-2.7,0-4.3-1.8-4.3-9.3v-4.5c0-6,0.9-9.7,3.5-9.7H155.7z"/>
	<path d="M177.3,2.7v46.7h0.6v-49h-1L172,46.8l-4.9-46.5h-1v49h0.6V2.7l4.9,46.6h0.7L177.3,2.7z"/>
	<path d="M179.7,37.3c0,6.9,1.2,12.4,4.2,12.4c3.1,0,4.2-5.5,4.2-12.4V12.4c0-6.9-1.2-12.4-4.2-12.4c-3,0-4.2,5.5-4.2,12.4V37.3z
		 M180.3,12.3c0-6,0.9-10.9,3.6-10.9c2.7,0,3.6,4.9,3.6,10.9v25.1c0,6-1,10.9-3.6,10.9c-2.6,0-3.6-4.9-3.6-10.9V12.3z"/>
	<path d="M205,49.4h0.7l-5.6-27l5.4-22.1h-0.7l-5.4,21.9l-1.2,5.3V0.3h-0.6v27.2l-1.2-5.2l-5.4-22.1h-0.7l5.4,22.1l-5.7,27h0.7
		l5.4-25.6l1.5,6.2v19.3h0.6V30l1.6-6.2L205,49.4z"/>
	<path d="M208.1,23.8v-22h6.9V0.3h-7.6v49h7.6v-1.5h-6.9V25.2h5.8v-1.4H208.1z"/>
	<path d="M225.4,21.7V1.8h7.1V0.3h-7.7v49h4.1c3.1,0,4.3-4.3,4.3-11.5v-5.7c0-7.8-1.5-10.5-4.6-10.5H225.4z M225.4,47.9V23.2h3.2
		c2.7,0,4,2,4,9v5.8c0,6.3-1,9.9-3.7,9.9H225.4z"/>
	<path d="M245.2,0.3h-0.7l-2.4,17.4l-1.9,13.8l-4.6-31.2H235l4.9,33.2l-1.1,8c-0.6,4-1.1,6.4-3,6.4v1.4c2.3,0.1,3-3,3.6-7.8
		L245.2,0.3z"/>
	<path d="M251.8,49.4V1.8h4.3V0.3h-9.3v1.5h4.3v47.5H251.8z"/>
	<path d="M265.7,2.7v46.6h0.6v-49h-0.9l-7,46.1V0.3h-0.6v49h0.8l3.5-23.2L265.7,2.7z"/>
	<path d="M0,54v49h13.3V54h-0.6v47.5H7V54H6.3v47.5H0.6V54H0z"/>
	<path d="M23.7,103h0.7l-6.7-25.8L23.9,54h-0.7l-7.4,27.7V54h-0.6v49h0.6V84.2l1.5-5.6L23.7,103z"/>
	<path d="M26.1,54v49h0.6V54H26.1z"/>
	<path d="M40.3,109.8v-8.3h-1.8V54h-6.7L31,93.1c-0.1,3.3-0.2,6.2-1,8.4h-1.4v8.3h0.6V103h10.5v6.9H40.3z M32.4,55.4h5.5v46.1h-7.3
		c0.8-2.2,0.9-5.1,1-8.3L32.4,55.4z"/>
	<path d="M51.5,55.4V103h0.7V54h-6.9l-0.6,37.2c-0.1,5-0.1,10.4-2.7,10.4v1.5h0.2c2.8-0.2,3-6.1,3.1-11.9l0.6-35.7H51.5z"/>
	<path d="M61.9,56.4V103h0.6V54h-0.9l-7,46.1V54H54v49h0.8l3.5-23.2L61.9,56.4z"/>
	<path d="M64.3,54v49h4c3,0,4.2-4.3,4.2-11.3v-4.3c0-5.7-0.8-9.6-3.1-10.4c2.2-0.8,2.7-4.2,2.7-9.7v-3.2c0-6.6-0.9-10.2-3.8-10.2
		H64.3z M65,76.2V55.4h3.3c2.5,0,3.2,3,3.2,8.8v3.3c0,7.1-1.2,8.8-4,8.8H65z M65,101.5V77.6h2.9c2.7,0,4.1,2.6,4.1,9.7v4.4
		c0,6.2-1,9.8-3.6,9.8H65z"/>
	<path d="M82.2,56.4V103h0.6V54h-0.8l-7,46.1V54h-0.6v49h0.8l3.5-23.2L82.2,56.4z"/>
	<path d="M95.7,56.3V103h0.6V54h-1l-4.9,46.5L85.6,54h-1v49h0.6V56.3l4.9,46.6h0.7L95.7,56.3z"/>
	<path d="M113.9,109.8v-8.3h-1.8V54h-6.7l-0.8,39.1c-0.1,3.3-0.2,6.2-1,8.4h-1.4v8.3h0.6V103h10.5v6.9H113.9z M106,55.4h5.5v46.1
		h-7.3c0.8-2.2,0.9-5.1,1-8.3L106,55.4z"/>
	<path d="M125.1,55.4V103h0.7V54h-6.9l-0.6,37.2c-0.1,5-0.1,10.4-2.7,10.4v1.5h0.2c2.8-0.2,3-6.1,3.1-11.9l0.6-35.7H125.1z"/>
	<path d="M135.5,80.4V103h0.6V54h-3.9c-2.9,0-4.1,4.3-4.1,11v4.4c0,6,1,9.3,3.1,10.3c-2.2,0.8-3.1,4.4-3.1,9.8v7.7
		c0,1.9-0.1,4.3-0.5,5.8h0.7c0.4-1.5,0.5-3.7,0.5-5.8v-7.7c0-7.2,1.8-9.1,4.3-9.1H135.5z M135.5,55.4v23.5H133
		c-2.7,0-4.3-1.8-4.3-9.3v-4.5c0-6,0.9-9.7,3.5-9.7H135.5z"/>
	<path d="M141.9,54v49h4c3,0,4.2-4.3,4.2-11.3v-4.3c0-5.7-0.8-9.6-3.1-10.4c2.2-0.8,2.7-4.2,2.7-9.7v-3.2c0-6.6-0.9-10.2-3.8-10.2
		H141.9z M142.6,76.2V55.4h3.3c2.5,0,3.2,3,3.2,8.8v3.3c0,7.1-1.2,8.8-4,8.8H142.6z M142.6,101.5V77.6h2.9c2.7,0,4.1,2.6,4.1,9.7
		v4.4c0,6.2-1,9.8-3.6,9.8H142.6z"/>
	<path d="M160.6,91.4l1.2,11.6h0.6l-4.9-49.1h-0.9l-4.8,49.1h0.6l1.2-11.6H160.6z M157.1,55.7l3.5,34.3h-6.8L157.1,55.7z"/>
	<path d="M164.2,54v49h13.3V54h-0.6v47.5h-5.7V54h-0.6v47.5h-5.7V54H164.2z"/>
	<path d="M179.4,90.9c0,6.9,1.2,12.4,4.2,12.4c3.1,0,4.2-5.5,4.2-12.4V66c0-6.9-1.2-12.4-4.2-12.4c-3,0-4.2,5.5-4.2,12.4V90.9z
		 M180,65.9c0-6,0.9-10.9,3.6-10.9c2.7,0,3.6,4.9,3.6,10.9V91c0,6-1,10.9-3.6,10.9c-2.6,0-3.6-4.9-3.6-10.9V65.9z"/>
	<path d="M197,55.4V54h-7.4v49h0.6V55.4H197z"/>
	<path d="M198.8,90.9c0,6.9,1.2,12.4,4.2,12.4c3.1,0,4.2-5.5,4.2-12.4V66c0-6.9-1.2-12.4-4.2-12.4c-3,0-4.2,5.5-4.2,12.4V90.9z
		 M199.5,65.9c0-6,0.9-10.9,3.6-10.9c2.7,0,3.6,4.9,3.6,10.9V91c0,6-1,10.9-3.6,10.9c-2.6,0-3.6-4.9-3.6-10.9V65.9z"/>
	<path d="M217.2,53.6c-3,0-4.1,5.5-4.1,12.3V68h0.6v-2.1c0-6,0.9-10.9,3.5-10.9c2.6,0,3.5,4.9,3.5,11v1.5c0,4.8-1.4,9.2-3.4,9.2
		h-1.3v1.4h1.3c2.1,0,3.4,3.9,3.4,9v3.8c0,6-0.9,11-3.5,11c-2.6,0-3.5-5-3.5-10.9v-3.6h-0.6v3.6c0,6.9,1.1,12.4,4.2,12.4
		s4.1-5.5,4.1-12.4v-3.8c0-4.7-1-8.7-2.9-9.8c1.8-1.3,2.9-5.4,2.9-10.1V66C221.4,59.2,220.3,53.6,217.2,53.6z"/>
	<path d="M234.9,109.8v-8.3h-1.8V54h-6.7l-0.8,39.1c-0.1,3.3-0.2,6.2-1,8.4h-1.4v8.3h0.6V103h10.5v6.9H234.9z M227,55.4h5.5v46.1
		h-7.3c0.8-2.2,0.9-5.1,1-8.3L227,55.4z"/>
	<path d="M236.7,90.9c0,6.9,1.2,12.4,4.2,12.4c3.1,0,4.2-5.5,4.2-12.4V66c0-6.9-1.2-12.4-4.2-12.4c-3,0-4.2,5.5-4.2,12.4V90.9z
		 M237.3,65.9c0-6,0.9-10.9,3.6-10.9c2.7,0,3.6,4.9,3.6,10.9V91c0,6-1,10.9-3.6,10.9c-2.6,0-3.6-4.9-3.6-10.9V65.9z"/>
	<path d="M247,54v49h0.6V82.2h2.8c3.1,0,4.6-3.7,4.6-11.5v-4.9c0-6.9-1-11.8-4.1-11.8H247z M247.6,80.7V55.4h3.3
		c2.7,0,3.5,4.3,3.5,10.3v5c0,6.9-1.2,9.9-3.9,9.9H247.6z"/>
	<path d="M256.7,90.9c0,6.9,1.2,12.4,4.2,12.4c3.1,0,4.2-5.5,4.2-12.4V66c0-6.9-1.2-12.4-4.2-12.4c-3,0-4.2,5.5-4.2,12.4V90.9z
		 M257.3,65.9c0-6,0.9-10.9,3.6-10.9c2.7,0,3.6,4.9,3.6,10.9V91c0,6-1,10.9-3.6,10.9c-2.6,0-3.6-4.9-3.6-10.9V65.9z"/>
	<path d="M267,54v49h4c3,0,4.2-4.3,4.2-11.3v-4.3c0-5.7-0.8-9.6-3.1-10.4c2.2-0.8,2.7-4.2,2.7-9.7v-3.2c0-6.6-0.9-10.2-3.8-10.2H267
		z M267.6,76.2V55.4h3.3c2.5,0,3.2,3,3.2,8.8v3.3c0,7.1-1.2,8.8-4,8.8H267.6z M267.6,101.5V77.6h2.9c2.7,0,4.1,2.6,4.1,9.7v4.4
		c0,6.2-1,9.8-3.6,9.8H267.6z"/>
	<path d="M277,53.9l0,11.3h0.5l0.1-11.3H277z"/>
	<path d="M287.3,80.4V103h0.6V54H284c-2.9,0-4.1,4.3-4.1,11v4.4c0,6,1,9.3,3.1,10.3c-2.2,0.8-3.1,4.4-3.1,9.8v7.7
		c0,1.9-0.1,4.3-0.5,5.8h0.7c0.4-1.5,0.5-3.7,0.5-5.8v-7.7c0-7.2,1.8-9.1,4.3-9.1H287.3z M287.3,55.4v23.5h-2.4
		c-2.7,0-4.3-1.8-4.3-9.3v-4.5c0-6,0.9-9.7,3.5-9.7H287.3z"/>
</g>
</svg>
