<?xml version="1.0" encoding="utf-8"?>
<!-- Generator: Adobe Illustrator 22.1.0, SVG Export Plug-In . SVG Version: 6.00 Build 0)  -->
<svg version="1.1" id="Layer_1" xmlns="http://www.w3.org/2000/svg" xmlns:xlink="http://www.w3.org/1999/xlink" x="0px" y="0px"
	 viewBox="0 0 154.5 6.9" style="enable-background:new 0 0 154.5 6.9;" xml:space="preserve">
<style type="text/css">
	.st0{fill:#FFFFFF;}
</style>
<g>
	<path class="st0" d="M2.3,5.5c0.3,0,0.5,0,0.8-0.1c0.2-0.1,0.4-0.1,0.6-0.2L3.4,4.7C3.1,4.8,2.7,4.9,2.3,4.9c-0.6,0-1-0.2-1.3-0.5
		C0.8,4,0.6,3.5,0.6,2.8c0-0.6,0.1-1.2,0.4-1.5c0.3-0.4,0.7-0.5,1.2-0.5c0.4,0,0.7,0.1,1.1,0.2l0.2-0.5C3.2,0.3,2.8,0.2,2.3,0.2
		c-0.5,0-0.9,0.1-1.2,0.3C0.7,0.7,0.5,1,0.3,1.4C0.1,1.8,0,2.3,0,2.8c0,0.6,0.1,1,0.3,1.4c0.2,0.4,0.4,0.7,0.8,0.9
		C1.4,5.4,1.8,5.5,2.3,5.5L2.3,5.5z"/>
	<path class="st0" d="M6.6,5.4h0.5V2.7C7.1,2.3,7,2,6.7,1.8c-0.3-0.2-0.6-0.3-1-0.3C5.4,1.5,5,1.6,4.6,1.8l0.1,0.5
		C5.1,2.1,5.4,2,5.7,2C6,2,6.2,2.1,6.3,2.2c0.1,0.1,0.2,0.3,0.2,0.5V3C5.8,3,5.2,3.1,4.8,3.3c-0.4,0.2-0.6,0.5-0.6,1
		c0,0.4,0.1,0.6,0.3,0.8c0.2,0.2,0.5,0.3,0.9,0.3c0.5,0,0.9-0.2,1.1-0.6V5.4z M6.6,3.5v1C6.4,4.7,6.3,4.8,6.1,4.8
		C6,4.9,5.8,4.9,5.6,4.9C5.3,4.9,5.2,4.9,5,4.8C4.9,4.7,4.8,4.5,4.8,4.3C4.8,4,5,3.8,5.3,3.7C5.5,3.5,6,3.5,6.6,3.5L6.6,3.5z"/>
	<path class="st0" d="M12.3,1.6h-0.7l-1.2,2.5L9.2,1.6H8.5v3.8H9V2.4l1.1,2.3h0.5l1.1-2.3v2.9h0.5V1.6z"/>
	<path class="st0" d="M15.1,5.5c0.2,0,0.4,0,0.6-0.1c0.2-0.1,0.4-0.1,0.5-0.2L16,4.7c-0.3,0.2-0.6,0.2-0.8,0.2
		c-0.4,0-0.7-0.1-0.9-0.4C14.1,4.3,14,3.9,14,3.4c0-0.4,0.1-0.8,0.3-1C14.5,2.1,14.7,2,15.1,2c0.3,0,0.6,0.1,0.9,0.2l0.2-0.5
		c-0.2-0.1-0.3-0.2-0.5-0.2c-0.2-0.1-0.4-0.1-0.6-0.1c-0.3,0-0.6,0.1-0.9,0.2c-0.3,0.2-0.4,0.4-0.6,0.7c-0.1,0.3-0.2,0.6-0.2,1
		c0,0.6,0.1,1.1,0.5,1.5C14.2,5.3,14.6,5.5,15.1,5.5L15.1,5.5z"/>
	<path class="st0" d="M18.7,5.4L20,1.6h-0.6l-1,3.1l-1-3.1h-0.6l1.3,3.8C18,5.7,17.9,5.9,17.6,6c-0.2,0.2-0.5,0.3-0.8,0.4L17,6.9
		C17.9,6.6,18.5,6.1,18.7,5.4L18.7,5.4z"/>
	<path class="st0" d="M23.9,1.6h-0.6v1.6h-1.7V1.6H21v3.8h0.6V3.7h1.7v1.7h0.6V1.6z"/>
	<path class="st0" d="M25.3,5.4h0.6V2.1h1.7V1.6h-2.3V5.4z"/>
	<path class="st0" d="M31.4,0.2c-0.3,0-0.5,0-0.7,0.1c-0.2,0.1-0.4,0.1-0.6,0.2l0.2,0.5c0.3-0.2,0.7-0.2,1.1-0.2
		c0.5,0,0.9,0.2,1.2,0.5c0.3,0.3,0.4,0.8,0.5,1.3h-2.2V3H33c0,0.6-0.2,1.1-0.5,1.4c-0.3,0.3-0.7,0.5-1.2,0.5c-0.4,0-0.8-0.1-1.1-0.2
		L30,5.1c0.1,0.1,0.3,0.2,0.6,0.2c0.2,0.1,0.5,0.1,0.7,0.1c0.5,0,0.9-0.1,1.2-0.3c0.3-0.2,0.6-0.5,0.8-0.9c0.2-0.4,0.3-0.9,0.3-1.5
		c0-0.5-0.1-1-0.3-1.4s-0.4-0.7-0.8-0.9C32.2,0.3,31.8,0.2,31.4,0.2L31.4,0.2z"/>
	<path class="st0" d="M35.5,3.6l0.1-1.5h1.2v3.3h0.6V1.6h-2.3L35,3.5c0,0.3-0.1,0.5-0.1,0.7c0,0.2-0.1,0.3-0.2,0.5
		c-0.1,0.1-0.3,0.3-0.5,0.4l0.2,0.5c0.3-0.2,0.5-0.3,0.7-0.5c0.2-0.2,0.3-0.4,0.3-0.6C35.4,4.2,35.5,3.9,35.5,3.6L35.5,3.6z"/>
	<path class="st0" d="M41.5,5.1l-0.2-0.5c-0.3,0.2-0.6,0.3-1,0.3c-0.4,0-0.6-0.1-0.8-0.3c-0.2-0.2-0.3-0.5-0.3-1h2.5
		c0-0.1,0-0.2,0-0.3c0-0.6-0.1-1-0.4-1.3c-0.3-0.3-0.6-0.5-1.1-0.5c-0.5,0-0.9,0.2-1.2,0.5c-0.3,0.3-0.4,0.8-0.4,1.5
		c0,0.6,0.2,1.1,0.5,1.5c0.3,0.3,0.7,0.5,1.3,0.5c0.2,0,0.5,0,0.7-0.1C41.1,5.3,41.3,5.2,41.5,5.1L41.5,5.1z M40.1,2
		c0.3,0,0.5,0.1,0.7,0.3c0.2,0.2,0.3,0.5,0.3,0.9h-1.9C39.2,2.4,39.5,2,40.1,2L40.1,2z"/>
	<path class="st0" d="M45.8,5.4l-1.3-2C44.8,3.2,45,3,45.1,2.8c0.2-0.3,0.3-0.7,0.4-1.2H45c-0.1,0.4-0.2,0.6-0.3,0.9
		c-0.1,0.2-0.3,0.4-0.4,0.5c-0.2,0.1-0.4,0.2-0.7,0.4l-0.3,0.1V1.6h-0.6v3.8h0.6V4l0.5-0.2L44,3.7l1.2,1.7H45.8z"/>
	<path class="st0" d="M48,2.1h1.1V1.6h-2.7v0.5h1.1v3.3H48V2.1z"/>
	<path class="st0" d="M53.1,3.5c0-0.6-0.1-1.1-0.4-1.5c-0.3-0.4-0.6-0.5-1-0.5c-0.2,0-0.4,0-0.6,0.1c-0.2,0.1-0.3,0.2-0.5,0.4V1.6
		H50v5.3h0.6V5c0.1,0.1,0.3,0.2,0.4,0.3c0.2,0.1,0.3,0.1,0.5,0.1c0.5,0,0.8-0.2,1.1-0.5C53,4.6,53.1,4.1,53.1,3.5L53.1,3.5z
		 M52.5,3.5c0,0.5-0.1,0.8-0.2,1.1C52.1,4.8,51.9,5,51.6,5c-0.2,0-0.3,0-0.5-0.1c-0.2-0.1-0.3-0.2-0.4-0.3v-2
		c0.1-0.2,0.3-0.3,0.4-0.3C51.2,2.1,51.3,2,51.5,2c0.3,0,0.6,0.1,0.7,0.4C52.4,2.7,52.5,3,52.5,3.5L52.5,3.5z"/>
	<path class="st0" d="M55.6,5.5c0.5,0,0.9-0.2,1.2-0.5c0.3-0.3,0.4-0.8,0.4-1.5c0-0.7-0.1-1.1-0.4-1.5c-0.3-0.3-0.7-0.5-1.2-0.5
		c-0.5,0-0.9,0.2-1.2,0.5C54.1,2.3,54,2.8,54,3.5c0,0.6,0.1,1.1,0.4,1.5C54.7,5.3,55.1,5.5,55.6,5.5L55.6,5.5z M55.6,5
		c-0.3,0-0.6-0.1-0.7-0.4c-0.2-0.2-0.3-0.6-0.3-1.1c0-0.5,0.1-0.9,0.3-1.1C55,2.1,55.3,2,55.6,2c0.3,0,0.6,0.1,0.7,0.4
		c0.2,0.3,0.3,0.6,0.3,1.1c0,0.5-0.1,0.9-0.3,1.1C56.2,4.8,55.9,5,55.6,5L55.6,5z"/>
	<path class="st0" d="M61.2,1.6h-0.6v1.6h-1.7V1.6h-0.6v3.8h0.6V3.7h1.7v1.7h0.6V1.6z"/>
	<path class="st0" d="M63,0.9c0.1,0,0.2,0,0.3-0.1s0.1-0.2,0.1-0.3c0-0.1,0-0.2-0.1-0.3c-0.1-0.1-0.2-0.1-0.3-0.1
		c-0.1,0-0.2,0-0.3,0.1c-0.1,0.1-0.1,0.2-0.1,0.3s0,0.2,0.1,0.3S62.9,0.9,63,0.9L63,0.9z M62.7,1.6v3.8h0.6V1.6H62.7z"/>
	<path class="st0" d="M67.8,5.4l-1.3-2c0.3-0.2,0.5-0.4,0.7-0.7c0.2-0.3,0.3-0.7,0.4-1.2h-0.6c-0.1,0.4-0.2,0.6-0.3,0.9
		c-0.1,0.2-0.3,0.4-0.4,0.5c-0.2,0.1-0.4,0.2-0.7,0.4l-0.3,0.1V1.6h-0.6v3.8h0.6V4l0.5-0.2l0.1-0.1l1.2,1.7H67.8z"/>
	<path class="st0" d="M70,5.5c0.2,0,0.4,0,0.6-0.1s0.4-0.1,0.5-0.2l-0.2-0.5c-0.3,0.2-0.6,0.2-0.8,0.2c-0.4,0-0.7-0.1-0.9-0.4
		c-0.2-0.3-0.3-0.6-0.3-1.1c0-0.4,0.1-0.8,0.3-1C69.4,2.1,69.6,2,70,2c0.3,0,0.6,0.1,0.9,0.2l0.2-0.5c-0.2-0.1-0.3-0.2-0.5-0.2
		c-0.2-0.1-0.4-0.1-0.6-0.1c-0.3,0-0.6,0.1-0.9,0.2c-0.3,0.2-0.4,0.4-0.6,0.7c-0.1,0.3-0.2,0.6-0.2,1c0,0.6,0.1,1.1,0.5,1.5
		C69.1,5.3,69.5,5.5,70,5.5L70,5.5z"/>
	<path class="st0" d="M71.9,6.7c0.3-0.2,0.5-0.5,0.6-0.7c0.1-0.3,0.2-0.5,0.2-0.8c0-0.1,0-0.3,0-0.4h-0.6c0,0.1,0,0.3,0,0.4
		c0,0.2,0,0.5-0.1,0.7C72,6,71.8,6.2,71.6,6.4L71.9,6.7z"/>
	<path class="st0" d="M76.4,0.8h2.5v4.6h0.6V0.3h-3.7v5.1h0.6V0.8z"/>
	<path class="st0" d="M82.9,5.4h0.5V2.7c0-0.4-0.1-0.7-0.4-0.9c-0.3-0.2-0.6-0.3-1-0.3c-0.4,0-0.8,0.1-1.1,0.3l0.1,0.5
		C81.4,2.1,81.7,2,82,2c0.3,0,0.5,0.1,0.6,0.2c0.1,0.1,0.2,0.3,0.2,0.5V3c-0.8,0-1.4,0.1-1.7,0.3c-0.4,0.2-0.6,0.5-0.6,1
		c0,0.4,0.1,0.6,0.3,0.8c0.2,0.2,0.5,0.3,0.9,0.3c0.5,0,0.9-0.2,1.1-0.6V5.4z M82.8,3.5v1c-0.1,0.2-0.3,0.3-0.4,0.3
		c-0.2,0.1-0.3,0.1-0.5,0.1c-0.2,0-0.4-0.1-0.6-0.2c-0.1-0.1-0.2-0.3-0.2-0.5c0-0.3,0.1-0.5,0.4-0.6C81.8,3.5,82.3,3.5,82.8,3.5
		L82.8,3.5z"/>
	<path class="st0" d="M86.2,5.4l1.3-3.8h-0.6l-1,3.1l-1-3.1h-0.6l1.3,3.8c-0.1,0.2-0.3,0.4-0.5,0.6c-0.2,0.2-0.5,0.3-0.8,0.4
		l0.2,0.5C85.4,6.6,85.9,6.1,86.2,5.4L86.2,5.4z M85.9,1c0.3,0,0.6-0.1,0.8-0.3C86.9,0.6,87,0.3,87,0h-0.4c-0.1,0.4-0.3,0.5-0.8,0.5
		c-0.2,0-0.4,0-0.5-0.1c-0.1-0.1-0.2-0.2-0.2-0.4h-0.4c0,0.3,0.2,0.6,0.3,0.8C85.3,0.9,85.5,1,85.9,1L85.9,1z"/>
	<path class="st0" d="M90.9,4.9V1.6h-2.2l-0.2,1.9c0,0.4-0.1,0.7-0.2,0.9c-0.1,0.2-0.3,0.4-0.5,0.5h-0.3v1.5h0.5l0.1-1.1h2.8
		l0.1,1.1h0.4V4.9H90.9z M88.6,4.9c0.2-0.2,0.3-0.3,0.4-0.5c0.1-0.2,0.1-0.5,0.2-0.8l0.1-1.5h1v2.8H88.6z"/>
	<path class="st0" d="M95.5,1.6h-0.6v1.6h-1.7V1.6h-0.6v3.8h0.6V3.7h1.7v1.7h0.6V1.6z"/>
	<path class="st0" d="M99.6,5.1l-0.2-0.5c-0.3,0.2-0.6,0.3-1,0.3c-0.4,0-0.6-0.1-0.8-0.3c-0.2-0.2-0.3-0.5-0.3-1h2.5
		c0-0.1,0-0.2,0-0.3c0-0.6-0.1-1-0.4-1.3c-0.3-0.3-0.6-0.5-1.1-0.5c-0.5,0-0.9,0.2-1.2,0.5c-0.3,0.3-0.4,0.8-0.4,1.5
		c0,0.6,0.1,1.1,0.5,1.5c0.3,0.3,0.7,0.5,1.3,0.5c0.2,0,0.5,0,0.7-0.1C99.2,5.3,99.4,5.2,99.6,5.1L99.6,5.1z M98.2,2
		c0.3,0,0.5,0.1,0.7,0.3s0.3,0.5,0.3,0.9h-1.9C97.3,2.4,97.6,2,98.2,2L98.2,2z"/>
	<path class="st0" d="M102.9,3.4c0.2-0.1,0.3-0.2,0.4-0.3c0.1-0.1,0.1-0.3,0.1-0.5c0-0.3-0.1-0.6-0.3-0.8c-0.2-0.2-0.5-0.3-0.9-0.3
		h-1.4v3.8h1.6c0.4,0,0.7-0.1,0.9-0.3c0.2-0.2,0.3-0.5,0.3-0.8c0-0.2-0.1-0.4-0.2-0.6C103.4,3.5,103.2,3.4,102.9,3.4L102.9,3.4z
		 M101.4,2.1h0.9c0.2,0,0.4,0,0.5,0.1c0.1,0.1,0.2,0.2,0.2,0.4c0,0.2-0.1,0.3-0.2,0.4c-0.1,0.1-0.3,0.1-0.5,0.1h-0.9V2.1z
		 M102.5,4.9h-1V3.7h1c0.2,0,0.4,0.1,0.5,0.2c0.1,0.1,0.2,0.3,0.2,0.5c0,0.2-0.1,0.3-0.2,0.5C102.8,4.9,102.6,4.9,102.5,4.9
		L102.5,4.9z"/>
	<path class="st0" d="M106.7,5.4h0.5V2.7c0-0.4-0.1-0.7-0.4-0.9c-0.3-0.2-0.6-0.3-1-0.3c-0.4,0-0.8,0.1-1.1,0.3l0.1,0.5
		c0.3-0.1,0.6-0.2,0.9-0.2c0.3,0,0.5,0.1,0.6,0.2c0.1,0.1,0.2,0.3,0.2,0.5V3c-0.8,0-1.4,0.1-1.7,0.3c-0.4,0.2-0.6,0.5-0.6,1
		c0,0.4,0.1,0.6,0.3,0.8c0.2,0.2,0.5,0.3,0.9,0.3c0.5,0,0.9-0.2,1.1-0.6V5.4z M106.7,3.5v1c-0.1,0.2-0.3,0.3-0.4,0.3
		c-0.2,0.1-0.3,0.1-0.5,0.1c-0.2,0-0.4-0.1-0.6-0.2C105,4.7,105,4.5,105,4.3c0-0.3,0.1-0.5,0.4-0.6C105.7,3.5,106.1,3.5,106.7,3.5
		L106.7,3.5z"/>
	<path class="st0" d="M108.9,5.4l0.9-1.4h0.8v1.4h0.6V1.6h-1.4c-0.4,0-0.7,0.1-0.9,0.3c-0.2,0.2-0.3,0.5-0.3,0.9
		c0,0.6,0.2,1,0.7,1.1l-1,1.5H108.9z M110.6,2.1v1.4h-0.8c-0.2,0-0.4-0.1-0.5-0.2c-0.1-0.1-0.2-0.3-0.2-0.5c0-0.2,0.1-0.4,0.2-0.5
		s0.3-0.2,0.5-0.2H110.6z"/>
	<path class="st0" d="M118.1,5.4l-1.8-2.7c0.3-0.2,0.5-0.4,0.7-0.5c0.2-0.2,0.3-0.4,0.5-0.7c0.1-0.3,0.2-0.7,0.3-1.2h-0.6
		c-0.1,0.5-0.2,0.9-0.4,1.2c-0.1,0.3-0.3,0.5-0.5,0.7c-0.2,0.2-0.5,0.3-0.9,0.6L115,2.9V0.3h-0.6v5.1h0.6V3.5l0.6-0.3l0.3-0.2
		l1.6,2.4H118.1z"/>
	<path class="st0" d="M121.1,5.4h0.5V2.7c0-0.4-0.1-0.7-0.4-0.9c-0.3-0.2-0.6-0.3-1-0.3c-0.4,0-0.8,0.1-1.1,0.3l0.1,0.5
		c0.3-0.1,0.6-0.2,0.9-0.2c0.3,0,0.5,0.1,0.6,0.2c0.1,0.1,0.2,0.3,0.2,0.5V3c-0.8,0-1.4,0.1-1.7,0.3c-0.4,0.2-0.6,0.5-0.6,1
		c0,0.4,0.1,0.6,0.3,0.8c0.2,0.2,0.5,0.3,0.9,0.3c0.5,0,0.9-0.2,1.1-0.6V5.4z M121,3.5v1c-0.1,0.2-0.3,0.3-0.4,0.3
		c-0.2,0.1-0.3,0.1-0.5,0.1c-0.2,0-0.4-0.1-0.6-0.2c-0.1-0.1-0.2-0.3-0.2-0.5c0-0.3,0.1-0.5,0.4-0.6C120,3.5,120.4,3.5,121,3.5
		L121,3.5z"/>
	<path class="st0" d="M126,3.5c0-0.6-0.1-1.1-0.4-1.5c-0.3-0.4-0.6-0.5-1-0.5c-0.2,0-0.4,0-0.6,0.1c-0.2,0.1-0.3,0.2-0.5,0.4V1.6
		H123v5.3h0.6V5c0.1,0.1,0.3,0.2,0.4,0.3c0.2,0.1,0.3,0.1,0.5,0.1c0.5,0,0.8-0.2,1.1-0.5C125.9,4.6,126,4.1,126,3.5L126,3.5z
		 M125.4,3.5c0,0.5-0.1,0.8-0.2,1.1C125,4.8,124.8,5,124.5,5c-0.2,0-0.3,0-0.5-0.1c-0.2-0.1-0.3-0.2-0.4-0.3v-2
		c0.1-0.2,0.3-0.3,0.4-0.3c0.1-0.1,0.3-0.1,0.5-0.1c0.3,0,0.6,0.1,0.7,0.4C125.3,2.7,125.4,3,125.4,3.5L125.4,3.5z"/>
	<path class="st0" d="M127.8,1.5c-0.4,0-0.8,0.1-1.1,0.3l0.2,0.4c0.3-0.1,0.6-0.2,0.9-0.2c0.7,0,1,0.4,1.1,1.2h-1.5v0.5h1.5
		c0,0.4-0.1,0.7-0.3,0.9c-0.2,0.2-0.5,0.3-0.8,0.3c-0.3,0-0.6-0.1-0.9-0.2l-0.2,0.5c0.1,0.1,0.3,0.2,0.5,0.2
		c0.2,0.1,0.4,0.1,0.6,0.1c0.4,0,0.7-0.1,0.9-0.2c0.3-0.2,0.5-0.4,0.6-0.7c0.1-0.3,0.2-0.7,0.2-1.1c0-0.6-0.1-1.1-0.4-1.4
		C128.8,1.7,128.4,1.5,127.8,1.5L127.8,1.5z"/>
	<path class="st0" d="M130.8,5.4l0.9-1.4h0.8v1.4h0.6V1.6h-1.4c-0.4,0-0.7,0.1-0.9,0.3c-0.2,0.2-0.3,0.5-0.3,0.9
		c0,0.6,0.2,1,0.7,1.1l-1,1.5H130.8z M132.5,2.1v1.4h-0.8c-0.2,0-0.4-0.1-0.5-0.2c-0.1-0.1-0.2-0.3-0.2-0.5c0-0.2,0.1-0.4,0.2-0.5
		s0.3-0.2,0.5-0.2H132.5z"/>
	<path class="st0" d="M134.3,6.7c0.3-0.2,0.5-0.5,0.6-0.7c0.1-0.3,0.2-0.5,0.2-0.8c0-0.1,0-0.3,0-0.4h-0.6c0,0.1,0,0.3,0,0.4
		c0,0.2,0,0.5-0.1,0.7c-0.1,0.2-0.2,0.4-0.4,0.6L134.3,6.7z"/>
	<path class="st0" d="M140.1,5.5c0.3,0,0.5,0,0.8-0.1s0.4-0.1,0.6-0.2l-0.2-0.5c-0.3,0.2-0.6,0.2-1.1,0.2c-0.6,0-1-0.2-1.3-0.5
		c-0.3-0.4-0.4-0.9-0.4-1.6c0-0.6,0.1-1.2,0.4-1.5s0.7-0.5,1.2-0.5c0.4,0,0.7,0.1,1.1,0.2l0.2-0.5c-0.3-0.2-0.8-0.3-1.3-0.3
		c-0.5,0-0.9,0.1-1.2,0.3c-0.3,0.2-0.6,0.5-0.8,0.9c-0.2,0.4-0.3,0.9-0.3,1.4c0,0.6,0.1,1,0.3,1.4c0.2,0.4,0.4,0.7,0.8,0.9
		C139.3,5.4,139.7,5.5,140.1,5.5L140.1,5.5z"/>
	<path class="st0" d="M145.1,5.1l-0.2-0.5c-0.3,0.2-0.6,0.3-1,0.3c-0.4,0-0.6-0.1-0.8-0.3c-0.2-0.2-0.3-0.5-0.3-1h2.5
		c0-0.1,0-0.2,0-0.3c0-0.6-0.1-1-0.4-1.3c-0.3-0.3-0.6-0.5-1.1-0.5c-0.5,0-0.9,0.2-1.2,0.5c-0.3,0.3-0.4,0.8-0.4,1.5
		c0,0.6,0.1,1.1,0.5,1.5c0.3,0.3,0.7,0.5,1.3,0.5c0.2,0,0.5,0,0.7-0.1C144.7,5.3,144.9,5.2,145.1,5.1L145.1,5.1z M143.7,2
		c0.3,0,0.5,0.1,0.7,0.3c0.2,0.2,0.3,0.5,0.3,0.9h-1.9C142.8,2.4,143.1,2,143.7,2L143.7,2z"/>
	<path class="st0" d="M147.7,5.4l1.3-3.8h-0.6l-1,3.1l-1-3.1h-0.6l1.3,3.8c-0.1,0.2-0.3,0.4-0.5,0.6c-0.2,0.2-0.5,0.3-0.8,0.4
		l0.2,0.5C146.9,6.6,147.4,6.1,147.7,5.4L147.7,5.4z"/>
	<path class="st0" d="M150.6,3.6l0.1-1.5h1.2v3.3h0.6V1.6h-2.3L150,3.5c0,0.3-0.1,0.5-0.1,0.7c0,0.2-0.1,0.3-0.2,0.5
		c-0.1,0.1-0.3,0.3-0.5,0.4l0.2,0.5c0.3-0.2,0.5-0.3,0.7-0.5c0.2-0.2,0.3-0.4,0.3-0.6C150.5,4.2,150.6,3.9,150.6,3.6L150.6,3.6z"/>
	<path class="st0" d="M154.1,5.5c0.1,0,0.2,0,0.3-0.1c0.1-0.1,0.1-0.2,0.1-0.3c0-0.1,0-0.2-0.1-0.3c-0.1-0.1-0.2-0.1-0.3-0.1
		c-0.1,0-0.2,0-0.3,0.1s-0.1,0.2-0.1,0.3c0,0.1,0,0.2,0.1,0.3C153.9,5.4,154,5.5,154.1,5.5L154.1,5.5z"/>
</g>
</svg>
