<?xml version="1.0" encoding="utf-8"?>
<!-- Generator: Adobe Illustrator 24.1.3, SVG Export Plug-In . SVG Version: 6.00 Build 0)  -->
<svg version="1.1" id="Слой_1" xmlns="http://www.w3.org/2000/svg" xmlns:xlink="http://www.w3.org/1999/xlink" x="0px" y="0px"
	 viewBox="0 0 144.3 75.2" style="enable-background:new 0 0 144.3 75.2;" xml:space="preserve">
<style type="text/css">
	.st0{fill:#FFFFFF;}
</style>
<g>
	<path class="st0" d="M35.5,2.6H29v8.9h-7.5V2.6H15v24.1h6.5v-9.8H29v9.8h6.5V2.6z"/>
	<path class="st0" d="M56.8,12.2c-0.8-1.5-1.8-2.6-3.2-3.3c-1.4-0.8-3-1.2-4.8-1.2c-2.9,0-5.2,0.8-6.8,2.5c-1.6,1.7-2.4,4-2.4,7.1
		c0,3,0.8,5.3,2.5,7.1c1.7,1.7,3.9,2.6,6.7,2.6c2.9,0,5.2-0.9,6.8-2.6c1.6-1.7,2.4-4.1,2.4-7.1C57.9,15.4,57.5,13.7,56.8,12.2z
		 M46.6,13.7c0.4-0.8,1.1-1.2,2.1-1.2c1,0,1.7,0.4,2.1,1.2c0.4,0.8,0.6,2,0.6,3.6c0,1.6-0.2,2.8-0.6,3.7c-0.4,0.8-1.1,1.3-2.1,1.3
		c-1,0-1.7-0.4-2.1-1.3c-0.4-0.8-0.6-2.1-0.6-3.7C45.9,15.7,46.1,14.5,46.6,13.7z"/>
	<path class="st0" d="M77.6,9.2c-1.3-0.8-3.3-1.2-6-1.2H61.5v18.6h10.1c5.7,0,8.6-1.8,8.6-5.3c0-1.2-0.4-2.2-1.1-2.9
		c-0.7-0.8-1.7-1.2-3-1.4v-0.1c1.1-0.2,2-0.6,2.6-1.3c0.6-0.7,0.9-1.6,0.9-2.7C79.6,11.2,79,10,77.6,9.2z M71.4,22.5h-3.5v-3.4h3.5
		c0.7,0,1.3,0.1,1.7,0.4c0.4,0.3,0.6,0.7,0.6,1.3C73.7,21.9,72.9,22.5,71.4,22.5L71.4,22.5z M72.8,14.7c-0.3,0.3-0.8,0.4-1.5,0.4
		h-3.4v-2.8h3.6c1.2,0,1.8,0.5,1.8,1.5C73.3,14.1,73.1,14.4,72.8,14.7z"/>
	<path class="st0" d="M83.9,8v18.6H91l7.4-11.3c-0.2,2.4-0.2,4.5-0.2,6.3v5.1h5.7V8h-7l-7.4,11.4c0.1-3.6,0.2-5.6,0.2-5.9
		c0-0.3,0-0.6,0-0.9V8H83.9z"/>
	<path class="st0" d="M108.2,8v18.6h7.1l7.4-11.3c-0.2,2.4-0.2,4.5-0.2,6.3v5.1h5.7V8h-7l-7.4,11.4c0.1-3.6,0.2-5.6,0.2-5.9
		c0-0.3,0-0.6,0-0.9V8H108.2z M126.4,0H121c-0.2,2-1,3.1-2.7,3.1c-0.9,0-1.6-0.2-2-0.7c-0.4-0.5-0.6-1.3-0.7-2.3h-5.3
		c0.2,2.1,0.9,3.7,2.2,4.7c1.3,1,3.2,1.5,5.8,1.5C123.3,6.3,125.9,4.2,126.4,0L126.4,0z"/>
	<path class="st0" d="M16,64.9c1.2-1.7,1.8-4.1,1.8-7.1c0-3-0.6-5.3-1.7-7c-1.2-1.7-2.8-2.6-4.8-2.6c-2.1,0-3.7,0.9-4.9,2.7H6.1
		l-0.9-2.4H0v26.7h6.4v-7.5c0-0.3-0.1-1.1-0.3-2.4h0.3c0.7,0.8,1.5,1.4,2.2,1.7c0.7,0.3,1.6,0.5,2.5,0.5
		C13.2,67.5,14.8,66.6,16,64.9z M10.8,54.3c0.4,0.7,0.6,1.8,0.6,3.4c0,1.6-0.2,2.8-0.6,3.5c-0.4,0.7-1,1.1-1.8,1.1
		c-0.9,0-1.6-0.4-2-1.1c-0.4-0.7-0.6-1.9-0.6-3.5v-0.5c0-1.3,0.2-2.3,0.6-3s1-1,2-1C9.8,53.2,10.4,53.6,10.8,54.3z"/>
	<path class="st0" d="M34.2,67.2c1.1-0.2,2.1-0.6,3.1-1.1v-4.6c-1.1,0.5-2.1,0.9-3.1,1.1c-0.9,0.2-2,0.3-3.1,0.3
		c-1.2,0-2.2-0.3-2.9-0.9c-0.7-0.6-1.1-1.4-1.1-2.5h11.4v-2.9c0-2.8-0.8-4.9-2.3-6.3c-1.5-1.5-3.7-2.2-6.4-2.2
		c-2.9,0-5.2,0.8-6.7,2.5c-1.6,1.7-2.4,4.1-2.4,7.2c0,3.1,0.9,5.4,2.6,7.1c1.7,1.7,4.1,2.5,7.2,2.5C31.9,67.5,33.1,67.4,34.2,67.2z
		 M32,53.4c0.5,0.5,0.7,1.3,0.8,2.2h-5.5c0.1-1,0.4-1.8,0.9-2.2c0.5-0.5,1.1-0.7,1.9-0.7C30.8,52.5,31.5,52.8,32,53.4z"/>
	<path class="st0" d="M64.9,62.4h-4.1V48.5h-6.4v13.9h-5.9V48.5h-6.4v18.6h17.2V74h5.6V62.4z"/>
	<path class="st0" d="M80.3,67.2c1.1-0.2,2.1-0.6,3.1-1.1v-4.6c-1.1,0.5-2.1,0.9-3.1,1.1c-0.9,0.2-2,0.3-3.1,0.3
		c-1.2,0-2.2-0.3-2.9-0.9c-0.7-0.6-1.1-1.4-1.1-2.5h11.4v-2.9c0-2.8-0.8-4.9-2.3-6.3c-1.5-1.5-3.7-2.2-6.4-2.2
		c-2.9,0-5.2,0.8-6.7,2.5c-1.6,1.7-2.4,4.1-2.4,7.2c0,3.1,0.9,5.4,2.6,7.1c1.7,1.7,4.1,2.5,7.2,2.5C77.9,67.5,79.2,67.4,80.3,67.2z
		 M78,53.4c0.5,0.5,0.7,1.3,0.8,2.2h-5.5c0.1-1,0.4-1.8,0.9-2.2c0.5-0.5,1.1-0.7,1.9-0.7C76.9,52.5,77.5,52.8,78,53.4z"/>
	<path class="st0" d="M88.2,48.5v18.6h6.4V53.3h4.8v13.9h6.4V48.5H88.2z"/>
	<path class="st0" d="M127.2,48.5h-18.5v4.8h6.1v13.9h6.4V53.3h6.1V48.5z"/>
	<path class="st0" d="M137.9,58.6v-0.8c0-0.5,0.1-0.9,0.4-1.2c0.3-0.3,1-0.9,2.1-1.6c1.3-0.9,2.3-1.8,2.9-2.8c0.6-1,0.9-2.1,0.9-3.4
		c0-1.9-0.7-3.3-2.1-4.4c-1.4-1.1-3.3-1.6-5.7-1.6c-2.9,0-5.8,0.8-8.5,2.3l2.3,4.5c2.2-1.2,4.1-1.8,5.8-1.8c0.7,0,1.2,0.1,1.6,0.4
		c0.4,0.3,0.6,0.6,0.6,1.1c0,0.6-0.2,1.1-0.6,1.5c-0.4,0.5-1,1-1.9,1.5c-1.1,0.7-1.9,1.4-2.3,2.2c-0.4,0.7-0.7,1.6-0.7,2.7v1.4
		H137.9z M133.1,66.7c0.6,0.5,1.5,0.8,2.5,0.8c1,0,1.9-0.3,2.5-0.8s0.9-1.3,0.9-2.3c0-1-0.3-1.8-0.9-2.3c-0.6-0.6-1.4-0.8-2.5-0.8
		c-1.1,0-2,0.3-2.6,0.8c-0.6,0.5-0.9,1.3-0.9,2.3C132.2,65.4,132.5,66.2,133.1,66.7z"/>
</g>
</svg>
