<?xml version="1.0" encoding="utf-8"?>
<!-- Generator: Adobe Illustrator 24.1.3, SVG Export Plug-In . SVG Version: 6.00 Build 0)  -->
<svg version="1.1" id="Слой_1" xmlns="http://www.w3.org/2000/svg" xmlns:xlink="http://www.w3.org/1999/xlink" x="0px" y="0px"
	 viewBox="0 0 194.8 73" style="enable-background:new 0 0 194.8 73;" xml:space="preserve">
<style type="text/css">
	.st0{fill:#FFFFFF;}
</style>
<g>
	<path class="st0" d="M39.5,5.8c0.9,0.3,1.8,0.6,2.6,1.1l2-5.1C41.7,0.6,39.3,0,36.7,0c-2.4,0-4.4,0.5-6.2,1.5c-1.7,1-3.1,2.5-4,4.4
		c-0.9,1.9-1.4,4.1-1.4,6.6c0,4,1,7,2.9,9.1c1.9,2.1,4.7,3.2,8.3,3.2c2.5,0,4.8-0.4,6.7-1.3v-5.5c-1,0.4-2,0.8-3,1.1
		c-1,0.3-2,0.4-3.1,0.4c-3.5,0-5.2-2.3-5.2-6.9c0-2.2,0.4-4,1.3-5.2c0.9-1.3,2.1-1.9,3.6-1.9C37.6,5.3,38.6,5.5,39.5,5.8z"/>
	<path class="st0" d="M71.6,5.8H63l-1.8,5.5l-0.6,2.2c-0.7,2.4-1.1,3.9-1.2,4.4c-0.1-0.7-0.4-2-0.9-3.8c-0.5-1.8-0.9-3.1-1.1-4
		L56,5.8h-8.7v18.6H53V10.5l0.4,1.2c0.7,2.5,1.4,4.7,2,6.7l1.9,6h4.3c1.6-4.8,2.6-8,3.1-9.5c0.4-1.5,0.8-3,1.2-4.4v13.9h5.7V5.8z"/>
	<path class="st0" d="M92.5,24.4V12.2c0-2.1-0.6-3.8-1.9-5C89.2,6,87.4,5.4,85,5.4c-3.3,0-6,0.6-8.2,1.7l1.8,4.2
		c2.1-0.9,3.8-1.4,5.1-1.4c1.5,0,2.2,0.8,2.2,2.3v0.3L83,12.6c-2.6,0.1-4.6,0.7-6,1.6c-1.4,1-2.1,2.4-2.1,4.4c0,1.9,0.5,3.4,1.5,4.4
		c1,1.1,2.4,1.6,4.1,1.6c1.4,0,2.6-0.2,3.5-0.6c0.9-0.4,1.8-1.1,2.6-2.2h0.1l1.2,2.5H92.5z M81.5,18.5c0-1.5,1-2.3,3.1-2.3l1.5-0.1
		v1.4c0,0.8-0.3,1.4-0.8,1.9c-0.5,0.5-1.2,0.7-2,0.7C82.1,20.2,81.5,19.6,81.5,18.5L81.5,18.5z"/>
	<path class="st0" d="M96,5.8v6.9c0,2.2,0.5,3.8,1.6,4.8c1.1,1,2.7,1.6,5,1.6c1.8,0,3.7-0.5,5.9-1.4v6.8h6.4V5.8h-6.4v7.7
		c-1.6,0.5-3.1,0.8-4.3,0.8c-1.2,0-1.7-0.6-1.7-1.9V5.8H96z"/>
	<path class="st0" d="M119.2,5.8v18.6h6.4v-7.1h5.1v7.1h6.4V5.8h-6.4v6.7h-5.1V5.8H119.2z"/>
	<path class="st0" d="M157.9,9.9c-0.8-1.5-1.8-2.6-3.2-3.3c-1.4-0.8-3-1.2-4.8-1.2c-2.9,0-5.2,0.8-6.8,2.5c-1.6,1.7-2.4,4-2.4,7.1
		c0,3,0.8,5.3,2.5,7.1c1.7,1.7,3.9,2.6,6.7,2.6c2.9,0,5.2-0.9,6.8-2.6c1.6-1.7,2.4-4.1,2.4-7.1C159,13.1,158.7,11.4,157.9,9.9z
		 M147.7,11.4c0.4-0.8,1.1-1.2,2.1-1.2c1,0,1.7,0.4,2.1,1.2c0.4,0.8,0.6,2,0.6,3.6c0,1.6-0.2,2.8-0.6,3.7c-0.4,0.8-1.1,1.3-2.1,1.3
		c-1,0-1.7-0.4-2.1-1.3c-0.4-0.8-0.6-2.1-0.6-3.7C147.1,13.4,147.3,12.2,147.7,11.4z"/>
	<path class="st0" d="M163,19.5c-0.1,1.1-0.3,2.6-0.7,4.5c-0.3,1.9-0.6,3.6-1,5.1h4.5c0.9-2,1.8-5.1,2.9-9.2l-0.2-0.4H163z"/>
	<path class="st0" d="M17.5,64.9V52.6c0-2.1-0.6-3.8-1.9-5c-1.3-1.2-3.1-1.8-5.5-1.8c-3.3,0-6,0.6-8.2,1.7l1.8,4.2
		c2.1-0.9,3.8-1.4,5.1-1.4c1.5,0,2.2,0.8,2.2,2.3V53L8,53.1c-2.6,0.1-4.6,0.7-6,1.6c-1.4,1-2.1,2.4-2.1,4.4c0,1.9,0.5,3.4,1.5,4.4
		c1,1.1,2.4,1.6,4.1,1.6c1.4,0,2.6-0.2,3.5-0.6c0.9-0.4,1.8-1.1,2.6-2.2h0.1l1.2,2.5H17.5z M6.5,58.9c0-1.5,1-2.3,3.1-2.3l1.5-0.1
		V58c0,0.8-0.3,1.4-0.8,1.9c-0.5,0.5-1.2,0.7-2,0.7C7.1,60.6,6.5,60.1,6.5,58.9L6.5,58.9z"/>
	<path class="st0" d="M26.9,46.2h-6.8l6.2,8.9l-6.9,9.8h6.9l6.3-9.5v9.5h6.2v-9.5l6.3,9.5h6.9l-6.9-9.8l6.2-8.9h-6.8l-5.7,9v-9h-6.2
		v9L26.9,46.2z"/>
	<path class="st0" d="M62.9,46.2v18.6h6.4V51H74v13.9h6.4V46.2H62.9z"/>
	<path class="st0" d="M97.5,64.9c1.1-0.2,2.1-0.6,3.1-1.1v-4.6c-1.1,0.5-2.1,0.9-3.1,1.1c-0.9,0.2-2,0.3-3.1,0.3
		c-1.2,0-2.2-0.3-2.9-0.9c-0.7-0.6-1.1-1.4-1.1-2.5h11.4v-2.9c0-2.8-0.8-4.9-2.3-6.3c-1.5-1.5-3.7-2.2-6.4-2.2
		c-2.9,0-5.2,0.8-6.7,2.5c-1.6,1.7-2.4,4.1-2.4,7.2c0,3.1,0.9,5.4,2.6,7.1c1.7,1.7,4.1,2.5,7.2,2.5C95.2,65.2,96.5,65.1,97.5,64.9z
		 M95.3,51.1c0.5,0.5,0.7,1.3,0.8,2.2h-5.5c0.1-1,0.4-1.8,0.9-2.2c0.5-0.5,1.1-0.7,1.9-0.7C94.2,50.3,94.8,50.5,95.3,51.1z"/>
	<path class="st0" d="M121.5,62.6c1.2-1.7,1.8-4.1,1.8-7.1c0-3-0.6-5.3-1.7-7c-1.2-1.7-2.8-2.6-4.8-2.6c-2.1,0-3.7,0.9-4.9,2.7h-0.3
		l-0.9-2.4h-5.2V73h6.4v-7.5c0-0.3-0.1-1.1-0.3-2.4h0.3c0.7,0.8,1.5,1.4,2.2,1.7c0.7,0.3,1.6,0.5,2.5,0.5
		C118.6,65.2,120.3,64.3,121.5,62.6z M116.2,52c0.4,0.7,0.6,1.8,0.6,3.4c0,1.6-0.2,2.8-0.6,3.5c-0.4,0.7-1,1.1-1.8,1.1
		c-0.9,0-1.6-0.4-2-1.1c-0.4-0.7-0.6-1.9-0.6-3.5v-0.5c0-1.3,0.2-2.3,0.6-3s1-1,2-1C115.3,50.9,115.9,51.3,116.2,52z"/>
	<path class="st0" d="M139.7,64.9c1.1-0.2,2.1-0.6,3.1-1.1v-4.6c-1.1,0.5-2.1,0.9-3.1,1.1c-0.9,0.2-2,0.3-3.1,0.3
		c-1.2,0-2.2-0.3-2.9-0.9c-0.7-0.6-1.1-1.4-1.1-2.5H144v-2.9c0-2.8-0.8-4.9-2.3-6.3c-1.5-1.5-3.7-2.2-6.4-2.2
		c-2.9,0-5.2,0.8-6.7,2.5c-1.6,1.7-2.4,4.1-2.4,7.2c0,3.1,0.9,5.4,2.6,7.1c1.7,1.7,4.1,2.5,7.2,2.5
		C137.3,65.2,138.6,65.1,139.7,64.9z M137.4,51.1c0.5,0.5,0.7,1.3,0.8,2.2h-5.5c0.1-1,0.4-1.8,0.9-2.2c0.5-0.5,1.1-0.7,1.9-0.7
		C136.3,50.3,136.9,50.5,137.4,51.1z"/>
	<path class="st0" d="M154,46.2h-6.4v18.6h6.4V46.2z M144.9,43.5c0.5,0.5,1.2,0.7,2,0.7c0.9,0,1.5-0.2,2-0.7
		c0.5-0.5,0.8-1.1,0.8-1.9c0-0.8-0.3-1.4-0.8-1.9c-0.5-0.5-1.2-0.7-2-0.7c-0.8,0-1.5,0.2-2,0.7c-0.5,0.5-0.7,1.1-0.7,1.9
		C144.2,42.4,144.4,43,144.9,43.5z M152.7,43.5c0.5,0.5,1.2,0.7,2.1,0.7c0.9,0,1.6-0.2,2.1-0.7c0.5-0.5,0.8-1.1,0.8-1.9
		c0-0.8-0.3-1.4-0.8-1.9c-0.5-0.5-1.2-0.7-2.1-0.7c-0.9,0-1.6,0.2-2.1,0.7c-0.5,0.5-0.7,1.1-0.7,1.9C152,42.4,152.2,43,152.7,43.5z"
		/>
	<path class="st0" d="M174.5,47.4c-1.3-0.8-3.3-1.2-6-1.2h-10.1v18.6h10.1c5.7,0,8.6-1.8,8.6-5.3c0-1.2-0.4-2.2-1.1-2.9
		c-0.7-0.8-1.7-1.2-3-1.4v-0.1c1.1-0.2,2-0.6,2.6-1.3c0.6-0.7,0.9-1.6,0.9-2.7C176.5,49.4,175.9,48.2,174.5,47.4z M168.3,60.6h-3.5
		v-3.4h3.5c0.7,0,1.3,0.1,1.7,0.4c0.4,0.3,0.6,0.7,0.6,1.3C170.6,60.1,169.8,60.6,168.3,60.6L168.3,60.6z M169.7,52.8
		c-0.3,0.3-0.8,0.4-1.5,0.4h-3.4v-2.8h3.6c1.2,0,1.8,0.5,1.8,1.5C170.2,52.3,170,52.6,169.7,52.8z"/>
	<path class="st0" d="M188.4,56.4v-0.8c0-0.5,0.1-0.9,0.4-1.2c0.3-0.3,1-0.9,2.1-1.6c1.3-0.9,2.3-1.8,2.9-2.8c0.6-1,0.9-2.1,0.9-3.4
		c0-1.9-0.7-3.3-2.1-4.4c-1.4-1.1-3.3-1.6-5.7-1.6c-2.9,0-5.8,0.8-8.5,2.3l2.3,4.5c2.2-1.2,4.1-1.8,5.8-1.8c0.7,0,1.2,0.1,1.6,0.4
		c0.4,0.3,0.6,0.6,0.6,1.1c0,0.6-0.2,1.1-0.6,1.5c-0.4,0.5-1,1-1.9,1.5c-1.1,0.7-1.9,1.4-2.3,2.2c-0.4,0.7-0.7,1.6-0.7,2.7v1.4
		H188.4z M183.6,64.5c0.6,0.5,1.5,0.8,2.5,0.8c1,0,1.9-0.3,2.5-0.8c0.6-0.5,0.9-1.3,0.9-2.3c0-1-0.3-1.8-0.9-2.3
		c-0.6-0.6-1.4-0.8-2.5-0.8c-1.1,0-2,0.3-2.6,0.8c-0.6,0.5-0.9,1.3-0.9,2.3C182.7,63.1,183,63.9,183.6,64.5z"/>
</g>
</svg>
