<?xml version="1.0" encoding="utf-8"?>
<!-- Generator: Adobe Illustrator 24.0.3, SVG Export Plug-In . SVG Version: 6.00 Build 0)  -->
<svg version="1.1" id="Слой_1" xmlns="http://www.w3.org/2000/svg" xmlns:xlink="http://www.w3.org/1999/xlink" x="0px" y="0px"
	 viewBox="0 0 162.4 94.2" style="enable-background:new 0 0 162.4 94.2;" xml:space="preserve">
<style type="text/css">
	.st0{fill:#FFFFFF;}
</style>
<g>
	<path class="st0" d="M67.1,24.1c-1.6,0-2.5-2.7-2.5-8.2c0-3.9,0.5-8.5,1.6-13.7c0.1-0.3,0.1-0.5,0.1-0.6c0-0.5-0.2-0.9-0.5-1.2
		C65.5,0.1,65.1,0,64.7,0c-0.8,0-1.4,0.5-1.6,1.4c-0.6,2.6-1.3,5-2,7.3c-0.7,2.2-1.4,4.1-2,5.6c-0.6,1.5-1.3,2.8-1.9,3.9
		c-0.6,1.1-1.2,1.9-1.6,2.4c-0.5,0.5-0.9,0.7-1.2,0.7c-0.6,0-1-0.6-1.3-1.9c-0.3-1.3-0.5-3-0.5-5.1C52.5,10.8,53,7,53.9,3
		c0.2-0.7,0.3-1.2,0.3-1.4c0-0.5-0.1-0.9-0.4-1.1C53.4,0.2,53.1,0,52.7,0c-0.9,0-1.5,0.5-1.7,1.5c0,0.2-0.1,0.3-0.1,0.5
		c-0.1,0.2-0.1,0.3-0.1,0.5c0,0.1-0.1,0.3-0.1,0.5c-0.3,1.3-0.6,2.3-0.8,3.1c-0.2,0.8-0.5,1.9-0.9,3.4c-0.4,1.4-0.8,2.6-1.1,3.6
		c-0.3,1-0.7,2.1-1.2,3.3c-0.5,1.3-0.9,2.3-1.4,3.1c-0.5,0.8-1,1.6-1.5,2.4c-0.5,0.8-1.1,1.3-1.6,1.7c-0.6,0.4-1.2,0.6-1.8,0.6
		c-0.6,0-1.1-0.2-1.7-0.6c-0.6-0.4-1.1-0.6-1.4-0.6c-0.4,0-0.7,0.1-0.9,0.4c-0.2,0.2-0.3,0.6-0.3,1c0,0.8,0.4,1.4,1.3,2
		C38,26.8,39,27,40.3,27c1.8,0,3.5-0.9,5-2.6c1.6-1.7,2.9-4.3,4.1-7.6c0.1,2.5,0.6,4.3,1.4,5.5c0.8,1.2,1.9,1.8,3.3,1.8
		c2.7,0,5.2-2.8,7.4-8.5c0,0.6,0,1.2,0,1.7c0,3.4,0.5,5.9,1.4,7.4c0.9,1.5,2.2,2.3,3.7,2.3c1.5,0,2.8-0.7,3.8-2.1
		c1.1-1.4,2.2-3.6,3.5-6.8c0.1-0.2,0.1-0.4,0.1-0.6c0-0.4-0.1-0.7-0.3-0.9c-0.2-0.2-0.5-0.4-0.8-0.4c-0.6,0-1,0.4-1.3,1.1
		C69.8,21.9,68.3,24.1,67.1,24.1L67.1,24.1z"/>
	<path class="st0" d="M84.3,20.9c0.2-0.9,0.3-1.9,0.3-2.8c0-1.5-0.3-2.9-1-4.1c-0.6-1.2-1.5-2.1-2.6-2.5c-0.8-0.3-1.6-0.5-2.6-0.5
		c-1.5,0-2.8,0.5-4,1.4c-1.2,1-2.1,2.1-2.6,3.5c-0.6,1.4-0.9,2.9-0.9,4.4c0,1.9,0.5,3.6,1.5,4.9c1,1.3,2.5,2,4.5,2
		c2.7,0,4.8-1.2,6.2-3.7c1.5-0.1,2.8-0.7,4.1-1.6c1.3-0.9,2.2-2.2,2.8-3.8c0.1-0.2,0.1-0.4,0.1-0.6c0-0.4-0.1-0.6-0.4-0.9
		c-0.2-0.2-0.5-0.3-0.9-0.3c-0.6,0-1,0.3-1.3,1C87,19.1,85.9,20.3,84.3,20.9L84.3,20.9z M81.1,15.2c0.3,0.7,0.5,1.7,0.5,2.8
		c0,1.1-0.1,2-0.4,2.9c-0.5-0.2-1-0.6-1.4-1c-0.4-0.4-0.7-1-0.9-1.5c-0.2-0.6-0.3-1.2-0.3-1.8c0-0.7,0.1-1.3,0.4-1.7
		c0.2-0.5,0.6-0.7,1-0.7C80.4,14.1,80.8,14.4,81.1,15.2z M75.8,24.2c-0.4-0.2-0.7-0.4-1-0.8c-0.3-0.3-0.5-0.8-0.6-1.3
		C74.1,21.7,74,21,74,20.4c0-1.1,0.2-2.2,0.6-3.3c0.4-1.1,1-1.9,1.7-2.5C76.1,15.3,76,16.1,76,17c0,0.8,0.2,1.6,0.5,2.4
		c0.3,0.8,0.8,1.5,1.4,2.2c0.6,0.6,1.3,1.1,2.1,1.5c-0.8,1-1.8,1.4-2.9,1.4C76.6,24.5,76.2,24.4,75.8,24.2z"/>
	<path class="st0" d="M113.4,19.1c-0.2,0.5-0.5,1-0.8,1.8c-0.3,0.7-0.7,1.3-0.9,1.8c-0.3,0.4-0.6,0.8-1,1.2c-0.4,0.3-0.7,0.5-1,0.5
		c-1.6,0-2.8-2.7-3.5-8c1.3-1.3,2.8-2.1,4.4-2.4c0.3-0.1,0.5-0.2,0.8-0.3c0.2-0.2,0.4-0.3,0.5-0.5c0.1-0.2,0.2-0.4,0.2-0.6
		c0-0.4-0.1-0.6-0.4-0.9c-0.3-0.2-0.7-0.3-1.2-0.3c-0.4,0-0.9,0.1-1.4,0.2c-0.8,0.2-1.6,0.6-2.4,1.1c-0.8,0.5-1.6,1.2-2.3,2
		c-0.7,0.8-1.4,1.7-1.9,2.7c0.3-4.6,0.9-8.7,1.6-12.4c0.1-0.5,0.2-0.9,0.2-1.3c0-0.5-0.1-0.8-0.4-1c-0.3-0.2-0.6-0.4-1-0.4
		c-0.4,0-0.7,0.1-1,0.4c-0.3,0.2-0.5,0.6-0.6,1c-0.8,4.5-1.3,8.9-1.6,13.3c-0.5-1.2-1-2.2-1.6-3c-0.6-0.8-1.3-1.5-2.1-1.9
		c-0.7-0.4-1.5-0.6-2.3-0.6c-0.5,0-1,0.1-1.5,0.2c-0.5,0.1-0.9,0.3-1.2,0.7c-0.4,0.3-0.7,0.6-0.9,0.9c-0.2,0.3-0.5,0.7-0.8,1.2
		c-0.3,0.5-0.5,0.9-0.6,1.3c-0.1,0.3-0.3,0.8-0.5,1.4c-0.1,0.2-0.1,0.3-0.2,0.4c-0.1,0.2-0.1,0.4-0.1,0.5c0,0.4,0.1,0.7,0.4,0.9
		c0.2,0.3,0.5,0.4,0.9,0.4c0.6,0,1-0.3,1.3-1c0.1-0.1,0.1-0.3,0.2-0.6c0.1-0.3,0.2-0.5,0.2-0.6c0.1-0.1,0.1-0.3,0.2-0.6
		c0.1-0.3,0.2-0.5,0.3-0.6c0.1-0.1,0.2-0.3,0.3-0.5c0.1-0.2,0.2-0.3,0.3-0.4c0.1-0.1,0.2-0.2,0.3-0.3c0.1-0.1,0.3-0.2,0.4-0.3
		c0.1-0.1,0.3-0.1,0.4-0.2c0.2-0.1,0.3-0.1,0.5-0.1c0.8,0,1.7,0.5,2.5,1.6c-0.1,2-0.7,3.9-1.7,5.5c-1,1.6-2.2,2.8-3.6,3.7
		c-0.7,0.4-1,0.9-1,1.5c0,0.3,0.1,0.6,0.3,0.8c0.2,0.2,0.5,0.3,0.9,0.3c0.4,0,0.8-0.1,1.3-0.4c1.4-0.7,2.6-1.8,3.6-3.2
		c1-1.4,1.7-3,2.1-4.6c0.8,2,1.3,4,1.3,5.8c0,0.2,0,0.3,0,0.5v0.2c0,0.5,0.1,0.9,0.4,1.2c0.3,0.3,0.6,0.4,1,0.4
		c0.9,0,1.4-0.6,1.4-1.7c0-2.1,0.7-4.2,1.9-6.4c0.2,1.1,0.4,2,0.7,2.9c0.3,0.9,0.6,1.7,1.1,2.5c0.4,0.8,1,1.4,1.6,1.9
		c0.6,0.4,1.4,0.7,2.1,0.7c0.5,0,1-0.1,1.5-0.2c0.4-0.2,0.9-0.4,1.3-0.8c0.4-0.4,0.8-0.8,1.1-1.2c0.3-0.4,0.7-1,1.1-1.8
		c0.4-0.7,0.7-1.5,1-2.2c0.3-0.7,0.7-1.7,1.2-2.8c0.1-0.2,0.1-0.4,0.1-0.5c0-0.4-0.1-0.7-0.4-0.9c-0.3-0.2-0.5-0.4-0.9-0.4
		c-0.6,0-1,0.3-1.2,1C113.8,18,113.6,18.6,113.4,19.1z"/>
	<path class="st0" d="M121.1,24.4c-1.3,0-2.3-0.4-3-1.1c-0.7-0.7-1.2-1.7-1.3-3.1c1,0.5,2.1,0.7,3.3,0.7c1.6,0,2.9-0.5,4-1.5
		c1.1-1,1.6-2.2,1.6-3.5c0-1.3-0.4-2.4-1.3-3.3c-0.9-0.9-2.1-1.3-3.5-1.3c-2,0-3.6,0.8-5,2.3c-1.4,1.5-2,3.5-2,6
		c0,2.3,0.6,4.1,1.9,5.5c1.3,1.4,3,2,5.1,2c2.1,0,3.9-0.7,5.5-2.2c1.6-1.5,3-3.8,4.1-6.8c0.1-0.2,0.1-0.4,0.1-0.5
		c0-0.4-0.1-0.7-0.4-0.9c-0.3-0.2-0.5-0.4-0.8-0.4c-0.6,0-1,0.3-1.3,1C126.2,22.1,123.9,24.4,121.1,24.4L121.1,24.4z M122.3,14.6
		c0.3,0.3,0.5,0.8,0.5,1.4c0,0.7-0.2,1.3-0.7,1.7c-0.5,0.5-1.1,0.7-2,0.7c-1.1,0-2.1-0.2-3-0.6c0.2-0.8,0.5-1.4,0.9-2
		c0.4-0.6,0.8-1,1.4-1.3c0.5-0.3,1.1-0.4,1.6-0.4C121.5,14.1,122,14.3,122.3,14.6z"/>
	<path class="st0" d="M14.1,49.8c0.3-1,0.5-2.1,0.5-3.1c0-1.1-0.2-2.2-0.5-3.1c-0.3-0.9-0.9-1.7-1.7-2.3c-0.8-0.6-1.7-0.9-2.8-0.9
		C8,40.5,6.8,41,5.9,42c-0.9,1-1.4,2.4-1.4,4.1c0,1.4,0.5,2.7,1.4,3.7c0.9,1.1,2.1,1.8,3.6,2.3c-0.7,0.7-1.4,1.1-2.2,1.1
		c-1,0-1.8-0.6-2.5-1.9c-0.6-1.3-1-3.3-1-6.2c0-2.2,0.2-4.3,0.6-6.1c0.2,0,0.5,0,0.8,0c1.5,0,2.9-0.2,4.1-0.5
		c1.2-0.3,2.1-0.8,2.8-1.4c0.7-0.6,1.2-1.2,1.6-2c0.4-0.7,0.5-1.5,0.5-2.3c0-1.2-0.4-2.3-1.2-3.1c-0.8-0.8-1.9-1.2-3.2-1.2
		c-1.7,0-3.2,0.7-4.6,2c-1.3,1.3-2.4,3.2-3.1,5.6c-0.4-0.1-0.7-0.2-0.8-0.2c-0.4,0-0.7,0.1-0.9,0.4C0.1,36.7,0,37,0,37.3
		c0,0.2,0,0.4,0.1,0.6c0.1,0.2,0.2,0.3,0.4,0.5c0.2,0.2,0.4,0.3,0.7,0.3c0.1,0,0.2,0.1,0.3,0.1c-0.4,2-0.6,4.3-0.6,6.7
		C0.8,52.5,3,56,7.3,56c2.3,0,4.1-1.1,5.5-3.4c1.6-0.1,3-0.7,4.2-1.6c1.2-1,2.1-2.3,2.7-4c0.1-0.2,0.1-0.4,0.1-0.6
		c0-0.2-0.1-0.4-0.2-0.6c-0.1-0.2-0.3-0.3-0.4-0.4c-0.2-0.1-0.3-0.1-0.5-0.1c-0.6,0-1,0.3-1.3,1C16.5,48.1,15.4,49.3,14.1,49.8
		L14.1,49.8z M11,31.9c0.3,0.3,0.4,0.6,0.4,1.1c0,0.6-0.2,1.1-0.6,1.7c-0.4,0.5-1.1,1-2,1.4c-0.9,0.4-2,0.6-3.2,0.6
		c-0.2,0-0.4,0-0.6,0c0.4-1.1,0.8-2,1.3-2.8s1-1.3,1.6-1.7c0.6-0.4,1.2-0.6,1.8-0.6C10.3,31.5,10.7,31.6,11,31.9z M7.8,44
		c0.4-0.6,0.9-0.8,1.6-0.8c0.7,0,1.2,0.3,1.6,0.9c0.4,0.6,0.6,1.4,0.6,2.3c0,1.2-0.2,2.3-0.6,3.5c-1.2-0.2-2.1-0.7-2.7-1.4
		c-0.6-0.7-1-1.5-1-2.4C7.2,45.3,7.4,44.6,7.8,44z"/>
	<path class="st0" d="M32.3,50.9c-0.8,1.4-1.4,2.1-2,2.1c-0.8,0-1.2-1.4-1.2-4.1c0-0.9,0.2-3.2,0.6-7.1c0.1-0.5-0.1-0.9-0.4-1.2
		c-0.3-0.3-0.6-0.4-1-0.4c-0.4,0-0.7,0.1-1,0.3c-0.3,0.2-0.5,0.6-0.5,1c-0.2,1.7-0.4,3.1-0.5,4c-0.3,2.6-0.9,4.5-1.9,5.7
		c-1,1.2-2,1.8-3,1.8c-1.1,0-1.6-0.8-1.6-2.3c0-0.7,0.2-2,0.5-3.9c0.3-1.9,0.5-3.4,0.5-4.3c0-0.5-0.1-1-0.4-1.5
		c-0.3-0.4-0.6-0.8-1-1c-0.4-0.3-0.9-0.4-1.3-0.4c-0.4,0-0.8,0.1-1,0.4c-0.3,0.3-0.4,0.6-0.4,1c0,0.3,0.2,0.7,0.5,1.1
		c0.4,0.4,0.5,0.8,0.5,1.2c0,0.3-0.1,1.4-0.4,3.3c-0.3,1.9-0.4,3.6-0.4,5c0,1.2,0.4,2.2,1.2,3c0.8,0.8,1.8,1.2,3.1,1.2
		c2.2,0,4.1-1.2,5.6-3.5c0.6,2.4,1.7,3.5,3.5,3.5c0.7,0,1.4-0.2,2.1-0.7c0.7-0.5,1.3-1.2,1.8-2c0.6-0.9,1-1.8,1.5-2.8
		c0.4-0.9,0.9-2.1,1.3-3.3c0.1-0.2,0.1-0.4,0.1-0.5c0-0.4-0.1-0.7-0.4-0.9c-0.3-0.2-0.5-0.3-0.9-0.3c-0.6,0-1,0.3-1.2,1
		C33.8,47.9,33.1,49.5,32.3,50.9z"/>
	<path class="st0" d="M34.7,38.8c-0.5,2.4-0.4,4.3-0.4,6.8c0,3.3,0.1,6.1,0.2,8.4c0.1,1.3,0.6,1.9,1.5,1.9c1,0,1.5-0.6,1.5-1.8
		c0-0.2,0-0.3,0-0.5c0-0.2,0-0.4,0-0.6c0-0.2,0-0.4,0-0.5c-0.1-1.3,0.5-2.8,1.7-4.5c0.8,5.3,2.7,7.9,5.7,7.9c1.4,0,2.7-0.7,3.7-2.2
		c1.1-1.5,2.2-3.7,3.3-6.8c0.1-0.2,0.1-0.4,0.1-0.6c0-0.4-0.1-0.7-0.4-0.9c-0.2-0.2-0.5-0.4-0.9-0.4c-0.6,0-1,0.3-1.3,1
		c-0.4,0.9-0.7,1.7-0.9,2.2c-0.2,0.5-0.6,1.3-1,2.1c-0.5,0.9-0.9,1.5-1.3,2c-0.4,0.4-0.9,0.7-1.3,0.7c-0.5,0-1-0.3-1.4-0.8
		c-0.4-0.5-0.8-1.2-1.1-2.1c-0.3-0.8-0.5-1.7-0.7-2.5c-0.2-0.8-0.3-1.6-0.4-2.3c0.9-0.9,1.8-1.5,2.5-1.9c0.5-0.3,1.1-0.5,1.8-0.7
		c0.7-0.2,1.1-0.3,1.2-0.4c0.3-0.2,0.5-0.5,0.5-0.9c0-0.4-0.2-0.7-0.5-0.9c-0.3-0.3-0.7-0.4-1.3-0.4c-0.9,0-1.8,0.3-2.8,0.9
		c-1,0.6-2,1.4-2.9,2.4c-1,1-1.8,2.1-2.6,3.4c0-3,0.2-5.5,0.5-7.6C37.7,39.1,36.2,36.2,34.7,38.8z"/>
	<path class="st0" d="M63.9,53c-0.2,0-0.4-0.1-0.5-0.2c-0.1-0.1-0.3-0.4-0.5-0.9c-0.2-0.5-0.3-1.1-0.4-1.9c-0.1-0.8-0.2-1.9-0.3-3.3
		c-0.1-1.4-0.1-3.1-0.1-5.1c0-0.4-0.2-0.8-0.5-1.1c-0.3-0.3-0.7-0.4-1.1-0.4c-0.8,0-1.4,0.5-1.8,1.4c-0.2,0.5-0.5,1.4-0.9,2.6
		c-0.4,1.2-0.8,2.3-1.1,3.2c-0.3,0.9-0.7,1.8-1.1,2.8c-0.4,1-0.9,1.7-1.3,2.3c-0.5,0.5-0.9,0.8-1.3,0.8c-0.5,0-0.8-0.2-1.2-0.7
		c-0.3-0.4-0.5-1.1-0.5-1.9c0-1,0.1-1.9,0.3-2.7c0.2-0.8,0.3-1.3,0.3-1.4c0-0.4-0.1-0.7-0.4-0.9c-0.2-0.2-0.5-0.4-0.9-0.4
		c-0.6,0-1,0.5-1.4,1.5c-0.4,1-0.6,2.2-0.6,3.7c0,1.8,0.4,3.2,1.1,4.1c0.7,0.9,1.7,1.4,2.9,1.4c1.5,0,2.7-0.7,3.8-2.1
		c1.1-1.4,2-3.5,2.9-6.2c0.2,5.4,1.5,8.2,4.2,8.2c0.7,0,1.3-0.2,1.9-0.5c0.6-0.3,1.1-0.7,1.5-1.2c0.4-0.5,0.8-1.1,1.3-2
		c0.4-0.8,0.8-1.6,1.1-2.3c0.3-0.7,0.6-1.6,1-2.7c0.1-0.2,0.1-0.5,0.1-0.7c0-0.4-0.1-0.7-0.3-0.9c-0.2-0.2-0.5-0.4-0.8-0.4
		c-0.6,0-1,0.3-1.2,1C66.4,50.7,65,53,63.9,53L63.9,53z"/>
	<path class="st0" d="M82.9,50.9c-0.8,1.4-1.4,2.1-2,2.1c-0.8,0-1.2-1.4-1.2-4.1c0-0.9,0.2-3.2,0.6-7.1c0.1-0.5-0.1-0.9-0.4-1.2
		c-0.3-0.3-0.6-0.4-1-0.4c-0.4,0-0.7,0.1-1,0.3c-0.3,0.2-0.5,0.6-0.5,1c-0.2,1.7-0.4,3.1-0.5,4c-0.3,2.6-0.9,4.5-1.9,5.7
		c-1,1.2-2,1.8-3,1.8c-1.1,0-1.6-0.8-1.6-2.3c0-0.7,0.2-2,0.5-3.9c0.3-1.9,0.5-3.4,0.5-4.3c0-0.5-0.1-1-0.4-1.5
		c-0.3-0.4-0.6-0.8-1-1c-0.4-0.3-0.9-0.4-1.3-0.4c-0.4,0-0.8,0.1-1,0.4c-0.3,0.3-0.4,0.6-0.4,1c0,0.3,0.2,0.7,0.5,1.1
		c0.4,0.4,0.5,0.8,0.5,1.2c0,0.3-0.1,1.4-0.4,3.3c-0.3,1.9-0.4,3.6-0.4,5c0,1.2,0.4,2.2,1.2,3c0.8,0.8,1.8,1.2,3.1,1.2
		c2.2,0,4.1-1.2,5.6-3.5c0.6,2.4,1.7,3.5,3.5,3.5c0.7,0,1.4-0.2,2.1-0.7c0.7-0.5,1.3-1.2,1.8-2c0.6-0.9,1-1.8,1.5-2.8
		c0.4-0.9,0.9-2.1,1.3-3.3c0.1-0.2,0.1-0.4,0.1-0.5c0-0.4-0.1-0.7-0.4-0.9c-0.3-0.2-0.5-0.3-0.9-0.3c-0.6,0-1,0.3-1.2,1
		C84.4,47.9,83.7,49.5,82.9,50.9z"/>
	<path class="st0" d="M85.3,38.8c-0.1,0.4-0.4,4.3-0.4,6.8c0,3.3,0.1,6.1,0.2,8.4c0.1,1.3,0.6,1.9,1.5,1.9c1,0,1.5-0.6,1.5-1.8
		c0-0.2,0-0.3,0-0.5c0-0.2,0-0.4,0-0.6c0-0.2,0-0.4,0-0.5c-0.1-1.3,0.5-2.8,1.7-4.5c0.8,5.3,2.7,7.9,5.7,7.9c1.4,0,2.7-0.7,3.7-2.2
		c1.1-1.5,2.2-3.7,3.3-6.8c0.1-0.2,0.1-0.4,0.1-0.6c0-0.4-0.1-0.7-0.4-0.9c-0.2-0.2-0.5-0.4-0.9-0.4c-0.6,0-1,0.3-1.3,1
		c-0.4,0.9-0.7,1.7-0.9,2.2c-0.2,0.5-0.6,1.3-1,2.1c-0.5,0.9-0.9,1.5-1.3,2c-0.4,0.4-0.9,0.7-1.3,0.7c-0.5,0-1-0.3-1.4-0.8
		c-0.4-0.5-0.8-1.2-1.1-2.1c-0.3-0.8-0.5-1.7-0.7-2.5c-0.2-0.8-0.3-1.6-0.4-2.3c0.9-0.9,1.8-1.5,2.5-1.9c0.5-0.3,1.1-0.5,1.8-0.7
		c0.7-0.2,1.1-0.3,1.2-0.4c0.3-0.2,0.5-0.5,0.5-0.9c0-0.4-0.2-0.7-0.5-0.9c-0.3-0.3-0.7-0.4-1.3-0.4c-0.9,0-1.8,0.3-2.8,0.9
		c-1,0.6-2,1.4-2.9,2.4c-1,1-1.8,2.1-2.6,3.4c0-3,0.2-5.5,0.5-7.6C88.3,39.1,87.2,37.2,85.3,38.8z"/>
	<path class="st0" d="M113.9,53.1c-1,0-1.5-1.3-1.5-4c0-0.8,0.1-2.3,0.3-4.3c0.2-2,0.3-3.1,0.3-3.3c0-0.5-0.1-0.9-0.4-1.2
		c-0.3-0.3-0.6-0.4-1-0.4c-0.7,0-1.2,0.4-1.5,1.2c-0.9-0.6-1.9-0.8-3-0.8c-1,0-1.9,0.2-2.8,0.7c-0.9,0.5-1.7,1.1-2.5,2
		c-0.7,0.8-1.3,1.8-1.7,3c-0.4,1.2-0.7,2.5-0.7,3.8c0,2,0.5,3.5,1.4,4.6c0.9,1.1,2.2,1.6,3.7,1.6c2,0,3.8-1.1,5.4-3.4
		c0.2,0.7,0.5,1.4,0.9,1.9c0.4,0.5,0.8,0.9,1.3,1.1c0.5,0.2,1,0.4,1.5,0.4c1.3,0,2.5-0.7,3.6-2.2c1.1-1.5,2.2-3.7,3.3-6.8
		c0.1-0.2,0.1-0.4,0.1-0.5c0-0.4-0.1-0.7-0.4-0.9c-0.3-0.3-0.5-0.4-0.8-0.4c-0.6,0-1,0.3-1.3,1C116.3,50.8,114.9,53.1,113.9,53.1
		L113.9,53.1z M103.1,52.2c-0.5-0.6-0.7-1.4-0.7-2.6c0-1.8,0.5-3.4,1.5-4.7c1-1.3,2.2-1.9,3.5-1.9c1.2,0,2,0.5,2.3,1.4
		c0,1.1-0.1,2.2-0.3,3.1c-0.4,1.9-1.1,3.3-2,4.2c-0.9,0.9-1.8,1.3-2.6,1.3C104.2,53.1,103.6,52.8,103.1,52.2z"/>
	<path class="st0" d="M138.6,53c-0.6,0-0.9-0.4-0.9-1.2c0-1.1,0.1-2.5,0.3-4.2c0.2-1.7,0.3-2.8,0.3-3.4c0-1.1-0.3-2-1-2.7
		c-0.7-0.7-1.6-1-2.7-1c-1.8,0-3.4,0.9-4.8,2.7c-0.2-0.4-0.5-0.7-0.8-0.9c-0.3-0.3-0.6-0.4-1-0.6c-0.4-0.1-0.8-0.2-1.2-0.2
		c-2.2,0-4.1,1.2-5.6,3.5c0-0.5,0.1-1,0.1-1.5c0.1-0.5,0.1-0.8,0.1-1c0-0.2,0-0.4,0-0.5c0-1.1-0.5-1.6-1.4-1.6
		c-0.5,0-0.8,0.1-1.1,0.4c-0.3,0.3-0.4,0.6-0.5,1.1c-0.4,3-0.6,7.2-0.6,12.6c0,1.1,0.5,1.7,1.6,1.7c0.5,0,0.8-0.2,1.1-0.5
		c0.3-0.3,0.4-0.7,0.4-1.3c0-0.9,0-1.7,0-2.6c0.2-2.2,0.9-4.1,2-5.5c1.1-1.4,2.2-2.2,3.2-2.2c0.8,0,1.1,0.4,1.1,1.1
		c0,0.3-0.2,1.2-0.5,2.7s-0.5,2.9-0.5,4.1c0,1.5,0.1,2.6,0.4,3.1c0.3,0.5,0.8,0.8,1.5,0.8c0.4,0,0.7-0.1,0.9-0.4
		c0.2-0.3,0.3-0.6,0.3-1c0,0,0-0.4-0.1-1.1c-0.1-0.7-0.1-1.2-0.1-1.6v0c0-1.6,0.2-3,0.5-4.2c0.3-1.2,0.7-2.1,1.2-2.7
		c0.5-0.6,1-1,1.4-1.3c0.5-0.3,1-0.4,1.4-0.4c0.3,0,0.5,0,0.6,0.1c0.2,0.1,0.3,0.2,0.4,0.3c0.1,0.1,0.2,0.3,0.3,0.5
		c0.1,0.2,0.1,0.5,0.1,0.8c0,0.5-0.1,1.4-0.3,2.8c-0.2,1.4-0.3,2.7-0.3,3.7c0,1.4,0.3,2.5,1,3.3c0.6,0.8,1.5,1.1,2.6,1.1
		c0.9,0,1.7-0.4,2.5-1.1c0.8-0.7,1.6-1.7,2.3-3c0.7-1.3,1.4-2.9,2.2-4.8c0.1-0.2,0.1-0.4,0.1-0.6c0-0.4-0.1-0.6-0.4-0.9
		c-0.2-0.2-0.5-0.3-0.8-0.3c-0.6,0-1,0.3-1.3,0.9C141.1,50.7,139.7,53,138.6,53L138.6,53z"/>
	<path class="st0" d="M157.9,50.9c-0.8,1.4-1.4,2.1-2,2.1c-0.8,0-1.2-1.4-1.2-4.1c0-0.9,0.2-3.2,0.6-7.1c0.1-0.5-0.1-0.9-0.4-1.2
		c-0.3-0.3-0.6-0.4-1-0.4c-0.4,0-0.7,0.1-1,0.3c-0.3,0.2-0.5,0.6-0.5,1c-0.2,1.7-0.4,3.1-0.5,4c-0.3,2.6-0.9,4.5-1.9,5.7
		c-1,1.2-2,1.8-3,1.8c-1.1,0-1.6-0.8-1.6-2.3c0-0.7,0.2-2,0.5-3.9c0.3-1.9,0.5-3.4,0.5-4.3c0-0.5-0.1-1-0.4-1.5
		c-0.3-0.4-0.6-0.8-1-1c-0.4-0.3-0.9-0.4-1.3-0.4c-0.4,0-0.8,0.1-1,0.4c-0.3,0.3-0.4,0.6-0.4,1c0,0.3,0.2,0.7,0.5,1.1
		c0.4,0.4,0.5,0.8,0.5,1.2c0,0.3-0.1,1.4-0.4,3.3c-0.3,1.9-0.4,3.6-0.4,5c0,1.2,0.4,2.2,1.2,3c0.8,0.8,1.8,1.2,3.1,1.2
		c2.2,0,4.1-1.2,5.6-3.5c0.6,2.4,1.7,3.5,3.5,3.5c0.7,0,1.4-0.2,2.1-0.7c0.7-0.5,1.3-1.2,1.8-2c0.6-0.9,1-1.8,1.5-2.8
		c0.4-0.9,0.9-2.1,1.3-3.3c0.1-0.2,0.1-0.4,0.1-0.5c0-0.4-0.1-0.7-0.4-0.9c-0.3-0.2-0.5-0.3-0.9-0.3c-0.6,0-1,0.3-1.2,1
		C159.3,47.9,158.6,49.5,157.9,50.9z"/>
	<path class="st0" d="M48.3,82.8c-0.5-1.6-1.5-2.7-3-3.3c0.6-0.5,1.1-1.1,1.6-1.7c0.5-0.6,0.8-1.4,1.1-2.1c0.3-0.8,0.4-1.5,0.4-2.2
		c0-0.9-0.2-1.7-0.7-2.4c-0.4-0.7-1-1.2-1.8-1.6c-0.7-0.4-1.6-0.5-2.5-0.5c-2.4,0-4.2,1.3-5.3,3.9l-0.8,2.1
		c-0.1,0.2-0.1,0.4-0.1,0.6c0,0.4,0.1,0.7,0.4,0.9c0.2,0.2,0.5,0.4,0.9,0.4c0.6,0,1-0.3,1.3-1c0.3-0.8,0.5-1.3,0.6-1.5
		c0.7-1.6,1.7-2.5,2.9-2.5c0.4,0,0.8,0.1,1.1,0.2c0.3,0.2,0.5,0.4,0.7,0.7c0.2,0.3,0.3,0.7,0.3,1.1c0,0.7-0.2,1.4-0.5,2.1
		c-0.3,0.7-0.7,1.3-1.2,1.9c-0.5,0.5-1,1-1.6,1.3c-0.8,0.4-1.3,0.9-1.3,1.4c0,0.3,0.1,0.5,0.2,0.6c0.1,0.2,0.3,0.3,0.5,0.4
		c0.2,0.1,0.4,0.1,0.7,0.1c0.6,0,1.1,0,1.5,0.1c0.4,0.1,0.7,0.2,1,0.4c0.3,0.2,0.5,0.5,0.7,0.9c0.2,0.4,0.3,0.9,0.3,1.5
		c-0.3,0.2-0.8,0.5-1.4,0.8c-0.6,0.3-1.1,0.6-1.5,0.8c-0.4,0.2-0.8,0.5-1.3,0.9c-0.5,0.4-0.9,0.7-1.2,1.1c-0.3,0.3-0.5,0.8-0.7,1.3
		c-0.2,0.5-0.3,1-0.3,1.6c0,0.4,0.1,0.8,0.2,1.2c0.2,0.4,0.4,0.7,0.7,1c0.3,0.3,0.6,0.5,1.1,0.6c0.4,0.2,0.9,0.2,1.3,0.2
		c1.6,0,3-0.7,4.2-2.2c1.2-1.4,1.8-3.5,1.9-6.2c0.9-0.7,1.7-1.5,2.4-2.5c0.7-1,1.3-2,1.8-3c0.5-1,1.1-2.5,1.9-4.5
		c0.1-0.2,0.1-0.4,0.1-0.5c0-0.4-0.1-0.7-0.4-0.9c-0.3-0.3-0.5-0.4-0.9-0.4c-0.6,0-1,0.3-1.2,1C50.8,79.1,49.4,81.7,48.3,82.8
		L48.3,82.8z M42.1,90.6c0-0.4,0.2-0.8,0.5-1.1c0.3-0.4,0.7-0.7,1-0.9c0.3-0.2,0.9-0.5,1.6-0.9c0.2-0.1,0.3-0.2,0.3-0.2
		c-0.2,1.3-0.5,2.3-1,2.9c-0.5,0.7-1,1-1.6,1C42.4,91.3,42.1,91.1,42.1,90.6L42.1,90.6z"/>
	<path class="st0" d="M66.1,81.9c-1,0-1.5-1.3-1.5-4c0-0.8,0.1-2.3,0.3-4.3c0.2-2,0.3-3.1,0.3-3.3c0-0.5-0.1-0.9-0.4-1.2
		c-0.3-0.3-0.6-0.4-1-0.4c-0.7,0-1.2,0.4-1.5,1.2c-0.9-0.6-1.9-0.8-3-0.8c-1,0-1.9,0.2-2.8,0.7c-0.9,0.5-1.7,1.1-2.5,2
		c-0.7,0.8-1.3,1.8-1.7,3c-0.4,1.2-0.7,2.5-0.7,3.8c0,2,0.5,3.5,1.4,4.6c0.9,1.1,2.2,1.6,3.7,1.6c2,0,3.8-1.1,5.4-3.4
		c0.2,0.7,0.5,1.4,0.9,1.9c0.4,0.5,0.8,0.9,1.3,1.1c0.5,0.2,1,0.4,1.5,0.4c1.3,0,2.5-0.7,3.6-2.2c1.1-1.5,2.2-3.7,3.3-6.8
		c0.1-0.2,0.1-0.4,0.1-0.5c0-0.4-0.1-0.7-0.4-0.9c-0.3-0.3-0.5-0.4-0.8-0.4c-0.6,0-1,0.3-1.3,1C68.5,79.6,67.1,81.9,66.1,81.9
		L66.1,81.9z M55.3,81c-0.5-0.6-0.7-1.4-0.7-2.6c0-1.8,0.5-3.4,1.5-4.7c1-1.3,2.2-1.9,3.5-1.9c1.2,0,2,0.5,2.3,1.4
		c0,1.1-0.1,2.2-0.3,3.1c-0.4,1.9-1.1,3.3-2,4.2c-0.9,0.9-1.8,1.3-2.6,1.3C56.4,81.9,55.8,81.6,55.3,81z"/>
	<path class="st0" d="M70.6,67.6c-0.4,0.6-0.4,4.3-0.4,6.8c0,3.3,0.1,6.1,0.2,8.4c0.1,1.3,0.6,1.9,1.5,1.9c1,0,1.5-0.6,1.5-1.8
		c0-0.2,0-0.3,0-0.5c0-0.2,0-0.4,0-0.6c0-0.2,0-0.4,0-0.5c-0.1-1.3,0.5-2.8,1.7-4.5c0.8,5.3,2.7,7.9,5.7,7.9c1.4,0,2.7-0.7,3.7-2.2
		c1.1-1.5,2.2-3.7,3.3-6.8c0.1-0.2,0.1-0.4,0.1-0.6c0-0.4-0.1-0.7-0.4-0.9c-0.2-0.2-0.5-0.4-0.9-0.4c-0.6,0-1,0.3-1.3,1
		c-0.4,0.9-0.7,1.7-0.9,2.2c-0.2,0.5-0.6,1.3-1,2.1s-0.9,1.5-1.3,2c-0.4,0.4-0.9,0.7-1.3,0.7c-0.5,0-1-0.3-1.4-0.8
		c-0.4-0.5-0.8-1.2-1.1-2.1c-0.3-0.8-0.5-1.7-0.7-2.5c-0.2-0.8-0.3-1.6-0.4-2.3c0.9-0.9,1.8-1.5,2.5-1.9c0.5-0.3,1.1-0.5,1.8-0.7
		c0.7-0.2,1.1-0.3,1.2-0.4c0.3-0.2,0.5-0.5,0.5-0.9c0-0.4-0.2-0.7-0.5-0.9c-0.3-0.3-0.7-0.4-1.3-0.4c-0.9,0-1.8,0.3-2.8,0.9
		c-1,0.6-2,1.4-2.9,2.4c-1,1-1.8,2.1-2.6,3.4c0-3,0.2-5.5,0.5-7.6C73.6,67.9,72.2,66.2,70.6,67.6z"/>
	<path class="st0" d="M97.7,80c0.9-1.8,1.4-3.6,1.4-5.4s-0.4-3.1-1.3-4.1c-0.9-1-2.1-1.5-3.5-1.5c-1,0-2,0.3-3,0.9
		c-1,0.6-1.9,1.4-2.8,2.4c-0.1-0.9-0.2-1.7-0.4-2.5c-0.1-0.3-0.3-0.6-0.5-0.8c-0.3-0.2-0.5-0.3-0.9-0.3c-0.4,0-0.8,0.1-1.1,0.4
		c-0.3,0.3-0.5,0.6-0.5,1.1c0,0.1,0,0.5,0.1,1.2c0.1,0.7,0.2,1.6,0.3,2.7c0.1,1.1,0.1,2.1,0.1,3.2c0,2.1-0.1,4.4-0.3,6.8
		c-0.2,2.4-0.5,4.4-0.7,6c-0.2,1.6-0.3,2.4-0.3,2.5c0,0.2,0,0.4,0.1,0.6c0.1,0.2,0.2,0.3,0.3,0.5c0.1,0.1,0.3,0.2,0.5,0.3
		c0.2,0.1,0.4,0.1,0.6,0.1c0.4,0,0.7-0.1,1-0.4c0.3-0.2,0.5-0.6,0.5-1c0.9-6.7,1.4-11.9,1.4-15.5c0.3-1.4,1-2.7,2-3.8
		c1-1.1,2.1-1.7,3.2-1.7c0.7,0,1.2,0.3,1.6,0.8c0.4,0.5,0.5,1.2,0.5,2c0,1.1-0.3,2.4-0.8,3.7c-0.5,1.3-1.2,2.3-2,3.1
		c-0.5,0.1-1.1,0.1-1.6,0.1c-0.6,0-1,0.2-1.4,0.6c-0.4,0.4-0.5,0.8-0.5,1.3c0,0.5,0.2,0.9,0.5,1.2c0.4,0.3,0.8,0.5,1.5,0.5
		c1.1,0,2.2-0.5,3.3-1.4c2.3-0.5,4.3-1.4,5.9-2.7s2.8-3.1,3.6-5.2c0.1-0.2,0.1-0.4,0.1-0.6c0-0.4-0.1-0.6-0.4-0.9
		c-0.2-0.2-0.5-0.3-0.8-0.3c-0.6,0-1,0.3-1.3,1C101.2,77.2,99.7,78.9,97.7,80L97.7,80z"/>
	<path class="st0" d="M109.1,82c-1.3,0-2.3-0.4-3-1.1c-0.7-0.7-1.2-1.7-1.3-3.1c1,0.5,2.1,0.7,3.3,0.7c1.6,0,2.9-0.5,4-1.5
		c1.1-1,1.6-2.2,1.6-3.5c0-1.3-0.4-2.4-1.3-3.3c-0.9-0.9-2.1-1.3-3.5-1.3c-2,0-3.6,0.8-5,2.3c-1.4,1.5-2,3.5-2,6
		c0,2.3,0.6,4.1,1.9,5.5c1.3,1.4,3,2,5.1,2c2.1,0,3.9-0.7,5.5-2.2c1.6-1.5,3-3.8,4.1-6.8c0.1-0.2,0.1-0.4,0.1-0.5
		c0-0.4-0.1-0.7-0.4-0.9c-0.3-0.2-0.5-0.4-0.8-0.4c-0.6,0-1,0.3-1.3,1C114.2,79.7,111.9,82,109.1,82L109.1,82z M110.3,72.2
		c0.3,0.3,0.5,0.8,0.5,1.4c0,0.7-0.2,1.3-0.7,1.7c-0.5,0.5-1.1,0.7-2,0.7c-1.1,0-2.1-0.2-3-0.6c0.2-0.8,0.5-1.4,0.9-2
		c0.4-0.6,0.8-1,1.4-1.3c0.5-0.3,1.1-0.4,1.6-0.4C109.5,71.7,110,71.9,110.3,72.2z"/>
	<path class="st0" d="M128.6,81.8c-0.7,0-1-0.6-1-1.9c0-0.8,0.1-2,0.3-3.6c0.2-1.6,0.3-2.8,0.3-3.5c0-1-0.4-1.9-1.1-2.6
		c-0.7-0.7-1.7-1-2.8-1c-2,0-3.7,1.1-5.1,3.2c0.1-0.5,0.1-1.1,0.2-1.7c0-0.1,0-0.2,0-0.3c0-0.3-0.1-0.5-0.2-0.7
		c-0.1-0.2-0.3-0.4-0.5-0.5c-0.2-0.1-0.5-0.2-0.8-0.2c-1,0-1.5,0.4-1.6,1.3c-0.4,2.8-0.6,7.1-0.6,12.8c0,1.1,0.5,1.6,1.6,1.6
		c1,0,1.4-0.5,1.4-1.6c0-1.3,0-2.2,0-2.8c0-1.4,0.2-2.6,0.5-3.7c0.3-1.1,0.8-2,1.3-2.7c0.5-0.6,1-1.1,1.6-1.5c0.5-0.3,1-0.5,1.5-0.5
		c0.5,0,0.9,0.1,1.1,0.4c0.2,0.2,0.3,0.7,0.3,1.2c0,0.4-0.1,1.4-0.3,2.8c-0.2,1.5-0.3,2.7-0.3,3.7c0,1.4,0.3,2.5,1,3.3
		c0.7,0.8,1.6,1.1,2.7,1.1c1.4,0,2.6-0.7,3.6-2.1c1-1.4,2.1-3.7,3.3-6.8c0.1-0.2,0.1-0.3,0.1-0.5c0-0.4-0.1-0.7-0.4-0.9
		c-0.3-0.3-0.6-0.4-0.9-0.4c-0.6,0-0.9,0.3-1.2,1C131,79.5,129.6,81.8,128.6,81.8L128.6,81.8z"/>
</g>
</svg>
