<?xml version="1.0" encoding="UTF-8"?>
<svg id="Layer_1" xmlns="http://www.w3.org/2000/svg" version="1.1" viewBox="0 0 477.23 477.23">
  <!-- Generator: Adobe Illustrator 29.6.1, SVG Export Plug-In . SVG Version: 2.1.1 Build 9)  -->
  <defs>
    <style>
      .st0 {
        fill: #fff;
      }
    </style>
  </defs>
  <circle class="st0" cx="238.61" cy="238.61" r="238.61"/>
  <g>
    <path d="M218.58,47.4c46.1,4.3,73.63,55.55,53.04,96.77-2.72,5.44-14.15,25.3-21.27,16.98-4.62-5.4,1.53-8.86,4.14-12.41,37.36-50.91-19.53-112.21-71.03-81.46-26.78,15.99-34.73,52.27-16.83,78.04,3.18,4.58,11.42,9.85,7.05,15.41-5.6,7.13-12-2.07-15.29-6.43-30.87-40.98-4.49-102.14,46.72-106.91,3.56-.33,9.91-.33,13.47,0Z"/>
    <path d="M238.79,198.51c12.19-5.42,26.29-4.15,35.56,5.97,15.77-16.15,45.37-8.03,46.79,15.72,17.9-10.19,38.09.93,39.69,21.29,1.53,19.48,1.15,49.92,0,69.63-.9,15.38-5.6,31.13-13.11,44.49-9.41,16.73-24.04,26.25-25.83,47.5-.57,6.72.95,15.3-.05,21.64-.38,2.44-2.27,4.31-4.41,5.32l-119.62-.23c-.79-.42-1.52-.97-2.04-1.7-2.29-3.19-.8-18.27-1.24-23.45-2-23.74-20.33-36.27-29.45-57.35-10.97-25.36-15.84-46.08-31.53-70.23-4.97-7.65-12.92-16.05-16.05-24.36-9.42-25.05,14.39-39.31,36.46-30.45,14.73,5.92,20.9,20.46,30.93,31.55V114.36c0-19.47,21.51-32.74,38.95-23.97,7.06,3.55,14.94,13.58,14.94,21.72v86.4Z"/>
  </g>
</svg>