<?xml version="1.0" encoding="utf-8"?>
<!-- Generator: Adobe Illustrator 24.1.3, SVG Export Plug-In . SVG Version: 6.00 Build 0)  -->
<svg version="1.1" id="Слой_1" xmlns="http://www.w3.org/2000/svg" xmlns:xlink="http://www.w3.org/1999/xlink" x="0px" y="0px"
	 viewBox="0 0 259.4 72.6" style="enable-background:new 0 0 259.4 72.6;" xml:space="preserve">
<style type="text/css">
	.st0{fill:#FFFFFF;}
</style>
<g>
	<path class="st0" d="M27.2,0h-6.1v8.9h-7V0H8v24.1h6.1v-9.8h7v9.8h6.1V0z"/>
	<path class="st0" d="M43.7,24.1c1-0.2,2-0.6,2.9-1.1v-4.6c-1,0.5-2,0.9-2.9,1.1c-0.9,0.2-1.9,0.3-2.9,0.3c-1.2,0-2.1-0.3-2.7-0.9
		c-0.7-0.6-1-1.4-1.1-2.5h10.7v-2.9c0-2.8-0.7-4.9-2.1-6.3c-1.4-1.5-3.5-2.2-6.1-2.2c-2.8,0-4.9,0.8-6.4,2.5
		c-1.5,1.7-2.2,4.1-2.2,7.2c0,3.1,0.8,5.4,2.4,7.1c1.6,1.7,3.9,2.5,6.7,2.5C41.5,24.4,42.7,24.3,43.7,24.1z M41.6,10.3
		c0.5,0.5,0.7,1.3,0.7,2.2h-5.2c0.1-1,0.4-1.8,0.8-2.2c0.5-0.5,1.1-0.7,1.8-0.7C40.5,9.5,41.1,9.7,41.6,10.3z"/>
	<path class="st0" d="M74.5,6.6c-1.2-0.8-3.1-1.2-5.7-1.2h-9.5v18.6h9.5c5.4,0,8.1-1.8,8.1-5.3c0-1.2-0.3-2.2-1-2.9
		c-0.7-0.8-1.6-1.2-2.9-1.4v-0.1c1-0.2,1.8-0.6,2.4-1.3c0.6-0.7,0.9-1.6,0.9-2.7C76.4,8.6,75.8,7.4,74.5,6.6z M68.6,19.8h-3.3v-3.4
		h3.3c0.7,0,1.2,0.1,1.6,0.4c0.4,0.3,0.6,0.7,0.6,1.3C70.8,19.3,70.1,19.8,68.6,19.8L68.6,19.8z M69.9,12c-0.3,0.3-0.8,0.4-1.4,0.4
		h-3.2V9.6h3.4c1.1,0,1.7,0.5,1.7,1.5C70.4,11.5,70.2,11.8,69.9,12z"/>
	<path class="st0" d="M96.5,5.4H79.1v4.8h5.7v13.9h6V10.2h5.7V5.4z"/>
	<path class="st0" d="M114.4,21.8c1.1-1.7,1.7-4.1,1.7-7.1c0-3-0.5-5.3-1.6-7c-1.1-1.7-2.6-2.6-4.5-2.6c-2,0-3.5,0.9-4.6,2.7h-0.3
		l-0.8-2.4h-4.9v26.7h6v-7.5c0-0.3-0.1-1.1-0.3-2.4h0.3c0.7,0.8,1.4,1.4,2.1,1.7c0.7,0.3,1.5,0.5,2.4,0.5
		C111.8,24.4,113.3,23.5,114.4,21.8z M109.5,11.2c0.3,0.7,0.5,1.8,0.5,3.4c0,1.6-0.2,2.8-0.5,3.5c-0.3,0.7-0.9,1.1-1.7,1.1
		c-0.9,0-1.5-0.4-1.9-1.1c-0.4-0.7-0.6-1.9-0.6-3.5v-0.5c0-1.3,0.2-2.3,0.6-3c0.4-0.7,1-1,1.9-1C108.6,10.1,109.2,10.5,109.5,11.2z"
		/>
	<path class="st0" d="M119.6,5.4v18.6h6.7l6.9-11.3c-0.1,2.4-0.2,4.5-0.2,6.3v5.1h5.3V5.4h-6.6l-7,11.4c0.1-3.6,0.2-5.6,0.2-5.9
		c0-0.3,0-0.6,0-0.9V5.4H119.6z"/>
	<path class="st0" d="M165.3,5.4h-8l-1.7,5.5l-0.6,2.2c-0.7,2.4-1,3.9-1.1,4.4c-0.1-0.7-0.4-2-0.8-3.8c-0.5-1.8-0.8-3.1-1.1-4
		l-1.4-4.4h-8.2v18.6h5.4V10.1l0.3,1.2c0.7,2.5,1.3,4.7,1.9,6.7l1.8,6h4.1c1.5-4.8,2.5-8,2.9-9.5c0.4-1.5,0.8-3,1.1-4.4v13.9h5.4
		V5.4z"/>
	<path class="st0" d="M185,24.1V11.8c0-2.1-0.6-3.8-1.8-5c-1.2-1.2-3-1.8-5.2-1.8c-3.1,0-5.7,0.6-7.7,1.7L172,11
		c2-0.9,3.6-1.4,4.8-1.4c1.4,0,2.1,0.8,2.1,2.3v0.3l-2.9,0.1c-2.4,0.1-4.3,0.7-5.6,1.6c-1.3,1-1.9,2.4-1.9,4.4
		c0,1.9,0.5,3.4,1.4,4.4c0.9,1.1,2.2,1.6,3.9,1.6c1.3,0,2.4-0.2,3.3-0.6c0.8-0.4,1.7-1.1,2.5-2.2h0.1l1.2,2.5H185z M174.6,18.1
		c0-1.5,1-2.3,3-2.3l1.4-0.1v1.4c0,0.8-0.3,1.4-0.8,1.9c-0.5,0.5-1.1,0.7-1.9,0.7C175.2,19.8,174.6,19.3,174.6,18.1L174.6,18.1z"/>
	<path class="st0" d="M204.2,6.6c-1.2-0.8-3.1-1.2-5.7-1.2H189v18.6h9.5c5.4,0,8.1-1.8,8.1-5.3c0-1.2-0.3-2.2-1-2.9
		c-0.7-0.8-1.6-1.2-2.9-1.4v-0.1c1-0.2,1.8-0.6,2.4-1.3c0.6-0.7,0.9-1.6,0.9-2.7C206.1,8.6,205.5,7.4,204.2,6.6z M198.3,19.8h-3.3
		v-3.4h3.3c0.7,0,1.2,0.1,1.6,0.4c0.4,0.3,0.6,0.7,0.6,1.3C200.5,19.3,199.8,19.8,198.3,19.8L198.3,19.8z M199.7,12
		c-0.3,0.3-0.8,0.4-1.4,0.4h-3.2V9.6h3.4c1.1,0,1.7,0.5,1.7,1.5C200.1,11.5,200,11.8,199.7,12z"/>
	<path class="st0" d="M223.6,22.7v-5.1c-1.6,1.1-3.3,1.6-5.1,1.6c-2.1,0-3.1-1.5-3.1-4.5c0-1.5,0.3-2.6,0.8-3.4
		c0.5-0.8,1.3-1.2,2.3-1.2c0.7,0,1.3,0.1,1.9,0.3c0.6,0.2,1.3,0.5,2,0.8l1.8-4.8c-1.8-0.9-3.7-1.4-5.7-1.4c-2.9,0-5.2,0.9-6.8,2.6
		c-1.6,1.7-2.4,4.1-2.4,7.2c0,3.1,0.7,5.4,2.2,7.1c1.5,1.6,3.6,2.5,6.5,2.5C220.2,24.4,222.1,23.8,223.6,22.7L223.6,22.7z"/>
	<path class="st0" d="M234.3,17.6h1.8v6.5h6V5.4h-8.3c-2.4,0-4.3,0.5-5.6,1.6c-1.3,1-2,2.5-2,4.4c0,1.3,0.3,2.4,0.8,3.4
		c0.5,1,1.2,1.7,2.1,2.2l-4.5,7.1h6.4L234.3,17.6z M232.7,10.1c0.4-0.3,0.9-0.5,1.6-0.5h1.7v3.8h-1.7c-0.7,0-1.2-0.2-1.6-0.5
		c-0.4-0.3-0.6-0.8-0.6-1.3C232.2,11,232.4,10.5,232.7,10.1z"/>
	<path class="st0" d="M15.2,47c-1.2-0.8-3.1-1.2-5.7-1.2H0v18.6h9.5c5.4,0,8.1-1.8,8.1-5.3c0-1.2-0.3-2.2-1-2.9
		c-0.7-0.8-1.6-1.2-2.9-1.4v-0.1c1-0.2,1.8-0.6,2.4-1.3c0.6-0.7,0.9-1.6,0.9-2.7C17,49,16.4,47.8,15.2,47z M9.3,60.3H6v-3.4h3.3
		c0.7,0,1.2,0.1,1.6,0.4c0.4,0.3,0.6,0.7,0.6,1.3C11.5,59.7,10.7,60.3,9.3,60.3L9.3,60.3z M10.6,52.5c-0.3,0.3-0.8,0.4-1.4,0.4H6
		v-2.8h3.4c1.1,0,1.7,0.5,1.7,1.5C11.1,51.9,10.9,52.2,10.6,52.5z"/>
	<path class="st0" d="M27.1,45.9h-6v18.6h6V45.9z M24.1,44.1c2.1,0,3.2-0.9,3.2-2.8c0-0.9-0.3-1.7-0.8-2.1c-0.5-0.5-1.3-0.7-2.4-0.7
		c-1.1,0-1.9,0.2-2.4,0.7c-0.5,0.5-0.8,1.2-0.8,2.2C20.9,43.1,22,44.1,24.1,44.1L24.1,44.1z"/>
	<path class="st0" d="M51.6,59.7H49V45.9H34.7c-0.2,2.8-0.7,5.3-1.3,7.8c-0.6,2.4-1.4,4.5-2.2,6.1h-1.5v11.6h5.3v-6.8h11.5v6.8h5.3
		V59.7z M37.5,59.7c0.6-1.8,1.1-3.3,1.4-4.7c0.3-1.4,0.6-2.8,0.8-4.3H43v9.1H37.5z"/>
	<path class="st0" d="M67.1,45.9h-6.4l5.9,8.9L60,64.5h6.5l5.9-9.5v9.5h5.9V55l5.9,9.5h6.5l-6.5-9.8l5.9-8.9h-6.4l-5.4,9v-9h-5.9v9
		L67.1,45.9z"/>
	<path class="st0" d="M92.7,45.9v18.6h6.7l6.9-11.3c-0.1,2.4-0.2,4.5-0.2,6.3v5.1h5.3V45.9h-6.6l-7,11.4c0.1-3.6,0.2-5.6,0.2-5.9
		c0-0.3,0-0.6,0-0.9v-4.7H92.7z"/>
	<path class="st0" d="M130.7,62.2c1.1-1.7,1.7-4.1,1.7-7.1c0-3-0.5-5.3-1.6-7c-1.1-1.7-2.6-2.6-4.5-2.6c-2,0-3.5,0.9-4.6,2.7h-0.3
		l-0.8-2.4h-4.9v26.7h6v-7.5c0-0.3-0.1-1.1-0.3-2.4h0.3c0.7,0.8,1.4,1.4,2.1,1.7c0.7,0.3,1.5,0.5,2.4,0.5
		C128,64.8,129.6,64,130.7,62.2z M125.8,51.6c0.3,0.7,0.5,1.8,0.5,3.4c0,1.6-0.2,2.8-0.5,3.5c-0.3,0.7-0.9,1.1-1.7,1.1
		c-0.9,0-1.5-0.4-1.9-1.1c-0.4-0.7-0.6-1.9-0.6-3.5v-0.5c0-1.3,0.2-2.3,0.6-3c0.4-0.7,1-1,1.9-1C124.8,50.6,125.4,50.9,125.8,51.6z"
		/>
	<path class="st0" d="M135.8,45.9v18.6h6v-7.1h4.8v7.1h6V45.9h-6v6.7h-4.8v-6.7H135.8z"/>
	<path class="st0" d="M172.3,50.1c-0.7-1.5-1.7-2.6-3-3.3c-1.3-0.8-2.8-1.2-4.5-1.2c-2.8,0-4.9,0.8-6.4,2.5c-1.5,1.7-2.3,4-2.3,7.1
		c0,3,0.8,5.3,2.3,7.1c1.6,1.7,3.7,2.6,6.3,2.6c2.8,0,4.9-0.9,6.4-2.6c1.5-1.7,2.3-4.1,2.3-7.1C173.4,53.2,173,51.5,172.3,50.1z
		 M162.7,51.5c0.4-0.8,1.1-1.2,2-1.2c0.9,0,1.6,0.4,2,1.2c0.4,0.8,0.6,2,0.6,3.6c0,1.6-0.2,2.8-0.6,3.7c-0.4,0.8-1,1.3-2,1.3
		c-0.9,0-1.6-0.4-2-1.3c-0.4-0.8-0.6-2.1-0.6-3.7C162.1,53.5,162.3,52.3,162.7,51.5z"/>
	<path class="st0" d="M182.8,45.9h-6v18.6h6V45.9z M174.3,43.1c0.5,0.5,1.1,0.7,1.9,0.7c0.8,0,1.5-0.2,1.9-0.7
		c0.5-0.5,0.7-1.1,0.7-1.9c0-0.8-0.2-1.4-0.7-1.9c-0.5-0.5-1.1-0.7-1.9-0.7c-0.8,0-1.4,0.2-1.9,0.7c-0.5,0.5-0.7,1.1-0.7,1.9
		C173.6,42.1,173.8,42.7,174.3,43.1z M181.6,43.1c0.5,0.5,1.1,0.7,1.9,0.7c0.8,0,1.5-0.2,1.9-0.7c0.5-0.5,0.7-1.1,0.7-1.9
		c0-0.8-0.2-1.4-0.7-1.9c-0.5-0.5-1.1-0.7-1.9-0.7c-0.8,0-1.5,0.2-1.9,0.7c-0.5,0.5-0.7,1.1-0.7,1.9
		C180.9,42.1,181.2,42.7,181.6,43.1z"/>
	<path class="st0" d="M201.2,45.9h-6v18.6h6V45.9z M192.7,43.1c0.5,0.5,1.1,0.7,1.9,0.7c0.8,0,1.5-0.2,1.9-0.7
		c0.5-0.5,0.7-1.1,0.7-1.9c0-0.8-0.2-1.4-0.7-1.9c-0.5-0.5-1.1-0.7-1.9-0.7c-0.8,0-1.4,0.2-1.9,0.7c-0.5,0.5-0.7,1.1-0.7,1.9
		C192,42.1,192.2,42.7,192.7,43.1z M200,43.1c0.5,0.5,1.1,0.7,1.9,0.7c0.8,0,1.5-0.2,1.9-0.7c0.5-0.5,0.7-1.1,0.7-1.9
		c0-0.8-0.2-1.4-0.7-1.9c-0.5-0.5-1.1-0.7-1.9-0.7c-0.8,0-1.5,0.2-1.9,0.7c-0.5,0.5-0.7,1.1-0.7,1.9C199.3,42.1,199.6,42.7,200,43.1
		z"/>
	<path class="st0" d="M210.3,45.9h-6.4l5.9,8.9l-6.5,9.8h6.5l5.9-9.5v9.5h5.9V55l5.9,9.5h6.5l-6.5-9.8l5.9-8.9h-6.4l-5.4,9v-9h-5.9
		v9L210.3,45.9z"/>
	<path class="st0" d="M241.9,45.9h-6v18.6h6V45.9z M239,44.1c2.1,0,3.2-0.9,3.2-2.8c0-0.9-0.3-1.7-0.8-2.1c-0.5-0.5-1.3-0.7-2.4-0.7
		c-1.1,0-1.9,0.2-2.4,0.7c-0.5,0.5-0.8,1.2-0.8,2.2C235.8,43.1,236.8,44.1,239,44.1L239,44.1z"/>
	<path class="st0" d="M253.3,56v-0.8c0-0.5,0.1-0.9,0.4-1.2c0.3-0.3,0.9-0.9,2-1.6c1.3-0.9,2.2-1.8,2.8-2.8c0.6-1,0.9-2.1,0.9-3.4
		c0-1.9-0.7-3.3-2-4.4c-1.3-1.1-3.1-1.6-5.4-1.6c-2.8,0-5.4,0.8-8,2.3l2.1,4.5c2.1-1.2,3.9-1.8,5.4-1.8c0.6,0,1.1,0.1,1.5,0.4
		c0.4,0.3,0.6,0.6,0.6,1.1c0,0.6-0.2,1.1-0.5,1.5c-0.4,0.5-1,1-1.8,1.5c-1,0.7-1.8,1.4-2.2,2.2c-0.4,0.7-0.6,1.6-0.6,2.7V56H253.3z
		 M248.8,64.1c0.6,0.5,1.4,0.8,2.4,0.8c1,0,1.8-0.3,2.3-0.8c0.6-0.5,0.9-1.3,0.9-2.3c0-1-0.3-1.8-0.8-2.3c-0.5-0.6-1.3-0.8-2.4-0.8
		c-1.1,0-1.9,0.3-2.4,0.8c-0.5,0.5-0.8,1.3-0.8,2.3C247.9,62.8,248.2,63.6,248.8,64.1z"/>
</g>
</svg>
