<?xml version="1.0" standalone="no"?>
<!DOCTYPE svg PUBLIC "-//W3C//DTD SVG 1.1//EN" "http://www.w3.org/Graphics/SVG/1.1/DTD/svg11.dtd" >
<svg xmlns="http://www.w3.org/2000/svg" xmlns:xlink="http://www.w3.org/1999/xlink" version="1.1">
<metadata>
Created by FontForge 20190801 at Sat Jun 13 13:55:48 2015
 By www-data
(c) 2014 Apple Inc. All rights reserved.
</metadata>
<defs>
<font id="SFUIDisplayBlack" horiz-adv-x="0" >
  <font-face 
    font-family="SFUIDisplayBlack"
    font-weight="250"
    font-stretch="normal"
    units-per-em="2048"
    panose-1="0 0 3 0 0 0 0 0 0 0"
    ascent="1638"
    descent="-410"
    x-height="1124"
    cap-height="1443"
    bbox="-660 -854 2717 2231"
    underline-thickness="50"
    underline-position="-125"
    unicode-range="U+0020-FB02"
  />
<missing-glyph horiz-adv-x="1293" 
d="M119 1365h1053v-1365h-1053v1365zM533 236q34 -30 87 -30q55 0 89 30q33 29 33 77q0 49 -33 78q-34 30 -89 30q-54 0 -87 -30t-33 -78q0 -47 33 -77zM507 888q1 59 34 95q34 35 91 35q54 0 87 -30t33 -80q0 -38 -20 -66q-21 -27 -83 -72q-128 -90 -118 -221l1 -18h166v15
q0 48 19 76t88 77q133 96 133 218q0 113 -81 182q-81 68 -215 68q-143 0 -225 -76q-83 -76 -79 -203h169z" />
    <glyph glyph-name=".notdef" horiz-adv-x="1293" 
d="M119 1365h1053v-1365h-1053v1365zM533 236q34 -30 87 -30q55 0 89 30q33 29 33 77q0 49 -33 78q-34 30 -89 30q-54 0 -87 -30t-33 -78q0 -47 33 -77zM507 888q1 59 34 95q34 35 91 35q54 0 87 -30t33 -80q0 -38 -20 -66q-21 -27 -83 -72q-128 -90 -118 -221l1 -18h166v15
q0 48 19 76t88 77q133 96 133 218q0 113 -81 182q-81 68 -215 68q-143 0 -225 -76q-83 -76 -79 -203h169z" />
    <glyph glyph-name="glyph1" 
 />
    <glyph glyph-name="glyph2" 
 />
    <glyph glyph-name="space" unicode=" " horiz-adv-x="390" 
 />
    <glyph glyph-name="exclam" unicode="!" horiz-adv-x="749" 
d="M584 1443l-36 -972h-348l-36 972h420zM223 18q-62 58 -62 142q0 83 62 141t151 58q87 0 150 -58q62 -58 62 -141q0 -84 -62 -142q-63 -58 -150 -58q-89 0 -151 58z" />
    <glyph glyph-name="quotedbl" unicode="&#x22;" horiz-adv-x="1050" 
d="M80 801v642h340v-642h-340zM628 801v642h340v-642h-340z" />
    <glyph glyph-name="numbersign" unicode="#" horiz-adv-x="1336" 
d="M1059 821l-34 -177h201l-53 -287h-204l-70 -357h-301l71 357h-161l-71 -357h-299l70 357h-196l54 287h197l35 177h-194l54 284h196l67 339h299l-66 -339h161l66 339h301l-66 -339h203l-53 -284h-207zM529 610h214l51 244h-216z" />
    <glyph glyph-name="dollar" unicode="$" horiz-adv-x="1413" 
d="M644 -136v121q-269 12 -415 127q-146 116 -147 316h401q2 -55 49 -97q46 -42 112 -48v261l-131 27q-407 85 -407 433q0 203 140 324q140 120 398 137v135h148v-137q233 -23 370 -143t138 -303h-387q-2 49 -36 89q-36 40 -85 50v-257l129 -22q408 -71 408 -423
q0 -204 -138 -325q-139 -120 -399 -142v-123h-148zM792 520v-236q67 6 105 38t38 82q0 92 -143 116zM644 928v230q-59 -4 -95 -35t-36 -78q0 -89 131 -117z" />
    <glyph glyph-name="percent" unicode="%" horiz-adv-x="1733" 
d="M156 0l1051 1443h340l-1051 -1443h-340zM1597 79q-96 -105 -260 -105t-260 105q-95 104 -95 284q0 179 95 282q94 102 260 102t261 -102q94 -102 94 -282t-95 -284zM1405 363q0 156 -68 156q-67 0 -67 -157q0 -160 67 -160q68 0 68 161zM654 837q-96 -105 -260 -105
t-260 105q-95 104 -95 284q0 179 95 282q94 102 260 102t261 -102q94 -102 94 -282t-95 -284zM462 1121q0 156 -68 156q-67 0 -67 -157q0 -160 67 -160q68 0 68 161z" />
    <glyph glyph-name="ampersand" unicode="&#x26;" horiz-adv-x="1504" 
d="M1007 94q-148 -122 -432 -122q-245 0 -384 106t-139 293q0 120 60 207q59 86 192 162q1 0 74 41q-178 179 -178 325q0 152 128 251t325 99q196 0 317 -93q122 -93 122 -244q0 -226 -275 -380l192 -207q34 56 34 161v109h321v-142q0 -217 -125 -367l284 -293h-427z
M420 406q0 -73 55 -116q54 -44 144 -44q132 0 187 66l-255 270q-18 -7 -32 -16q-99 -65 -99 -160zM775 1085q0 55 -34 90q-33 35 -86 35q-54 0 -89 -35q-36 -36 -36 -89q0 -71 114 -176q131 70 131 175z" />
    <glyph glyph-name="quotesingle" unicode="'" horiz-adv-x="502" 
d="M80 801v642h340v-642h-340z" />
    <glyph glyph-name="parenleft" unicode="(" horiz-adv-x="784" 
d="M360 -277q-271 341 -271 877q0 486 280 843h392q-107 -124 -177 -359q-70 -237 -70 -482q0 -451 244 -879h-398z" />
    <glyph glyph-name="parenright" unicode=")" horiz-adv-x="784" 
d="M24 -277q244 428 244 879q0 243 -70 481q-70 235 -177 360h391q281 -358 281 -843q0 -540 -272 -877h-397z" />
    <glyph glyph-name="asterisk" unicode="*" horiz-adv-x="1000" 
d="M570 912l62 -287h-266l62 287l-217 -197l-133 230l283 90l-283 89l133 230l220 -202l-65 292h266l-65 -292l220 202l133 -230l-283 -89l283 -90l-133 -230z" />
    <glyph glyph-name="plus" unicode="+" horiz-adv-x="1413" 
d="M886 -2h-361v416h-390v348h390v416h361v-416h390v-348h-390v-416z" />
    <glyph glyph-name="comma" unicode="," horiz-adv-x="618" 
d="M77 -285l66 622h364l-123 -622h-307z" />
    <glyph glyph-name="hyphen" unicode="-" horiz-adv-x="931" 
d="M135 414v348h659v-348h-659z" />
    <glyph glyph-name="period" unicode="." horiz-adv-x="618" 
d="M161 47q-61 61 -61 147t61 147t147 61t147 -61t61 -147t-61 -147t-147 -61t-147 61z" />
    <glyph glyph-name="slash" unicode="/" horiz-adv-x="783" 
d="M0 -257l388 1701h395l-396 -1701h-387z" />
    <glyph glyph-name="zero" unicode="0" horiz-adv-x="1423" 
d="M247 164q-172 205 -172 561q0 357 173 560q170 199 463 199t463 -199q172 -202 172 -559q0 -356 -171 -561t-464 -205q-294 0 -464 204zM857 394q57 116 57 331t-57 328q-53 105 -146 105t-146 -105q-58 -113 -58 -328t58 -331q54 -108 146 -108t146 108z" />
    <glyph glyph-name="one" unicode="1" horiz-adv-x="1058" 
d="M439 1080h-8l-354 -234v355l362 242h424v-1443h-424v1080z" />
    <glyph glyph-name="two" unicode="2" horiz-adv-x="1311" 
d="M61 990q0 222 161 357q161 136 428 136q260 0 414 -121q151 -120 151 -318q0 -201 -243 -416l-339 -300v-8h599v-320h-1146v282l580 513q141 126 141 236q0 60 -45 99q-47 40 -127 40q-83 0 -135 -50q-53 -50 -53 -129v-9h-386v8z" />
    <glyph glyph-name="three" unicode="3" horiz-adv-x="1367" 
d="M494 878h176q83 0 132 40q48 40 48 109q0 68 -49 108q-49 39 -136 39q-85 0 -138 -48q-53 -47 -53 -123h-382q1 217 163 348q162 132 428 132q256 0 406 -107q151 -108 151 -291q0 -128 -85 -219q-83 -88 -216 -112v-8q161 -18 255 -107q96 -92 96 -238q0 -202 -170 -322
q-170 -119 -457 -119q-262 0 -425 132q-162 131 -173 352h404q2 -72 56 -113q54 -42 147 -42q84 0 136 43q51 42 51 112q0 71 -50 110q-51 40 -141 40h-174v284z" />
    <glyph glyph-name="four" unicode="4" horiz-adv-x="1414" 
d="M775 214h-710v351q183 358 524 878h586v-904h172v-325h-172v-214h-400v214zM417 522h370v643h-8q-234 -359 -362 -631v-12z" />
    <glyph glyph-name="five" unicode="5" horiz-adv-x="1362" 
d="M277 92q-164 132 -166 339h381q13 -67 71 -109q59 -42 139 -42q90 0 146 57q55 57 55 147q0 95 -55 153t-146 58q-130 0 -197 -105h-371l64 853h1009v-320h-683l-22 -320h8q86 176 319 176q205 0 338 -137q133 -136 133 -348q0 -241 -165 -387q-165 -147 -436 -147
q-257 0 -422 132z" />
    <glyph glyph-name="six" unicode="6" horiz-adv-x="1407" 
d="M247 165q-172 206 -172 557t178 557q176 204 472 204q228 0 392 -120q164 -119 190 -304h-411q-14 47 -62 76t-110 29q-123 0 -193 -119q-71 -122 -55 -320h8q40 109 131 171q97 65 235 65q204 0 340 -135q135 -135 135 -340q0 -232 -168 -379q-167 -147 -430 -147
q-310 0 -480 205zM863 337q57 55 57 137q0 81 -57 136t-140 55t-139 -55q-57 -55 -57 -136q0 -82 57 -137q56 -56 139 -56t140 56z" />
    <glyph glyph-name="seven" unicode="7" horiz-adv-x="1223" 
d="M742 1115v8h-692v320h1110v-319l-563 -1124h-444z" />
    <glyph glyph-name="eight" unicode="8" horiz-adv-x="1445" 
d="M250 78q-175 118 -175 313q0 149 103 251q102 101 265 118v8q-136 23 -222 115q-88 92 -88 217q0 168 163 275q164 108 425 108t425 -108q163 -108 163 -276q0 -123 -87 -216q-87 -92 -221 -115v-8q163 -17 265 -118q102 -102 102 -252q0 -193 -178 -312
q-178 -118 -469 -118q-295 0 -471 118zM865 294q55 50 55 128t-55 128q-56 52 -144 52t-144 -52q-55 -50 -55 -128t55 -128q56 -52 144 -52t144 52zM843 929q48 46 48 113q0 68 -48 114q-49 46 -122 46t-121 -46t-48 -114q0 -67 48 -113t121 -46t122 46z" />
    <glyph glyph-name="nine" unicode="9" horiz-adv-x="1415" 
d="M290 80q-166 120 -192 305h413q14 -47 65 -76q50 -29 116 -29q122 0 188 115q69 120 53 324h-8q-34 -107 -126 -170q-98 -66 -240 -66q-203 0 -340 135q-139 136 -139 340q0 231 170 378t431 147q316 0 485 -204q172 -206 172 -557q0 -353 -174 -557q-175 -205 -479 -205
q-230 0 -395 120zM825 835q57 55 57 136q0 82 -57 137q-56 56 -138 56q-83 0 -140 -56q-58 -56 -58 -137t57 -136q58 -55 141 -55q82 0 138 55z" />
    <glyph glyph-name="colon" unicode=":" horiz-adv-x="618" 
d="M161 47q-61 61 -61 147t61 147t147 61t147 -61t61 -147t-61 -147t-147 -61t-147 61zM161 741q-61 61 -61 147t61 147t147 61t147 -61t61 -147t-61 -147t-147 -61t-147 61z" />
    <glyph glyph-name="semicolon" unicode=";" horiz-adv-x="618" 
d="M161 741q-61 61 -61 147t61 147t147 61t147 -61t61 -147t-61 -147t-147 -61t-147 61zM47 -285l66 622h364l-123 -622h-307z" />
    <glyph glyph-name="less" unicode="&#x3c;" horiz-adv-x="1413" 
d="M613 593v-11l606 -239v-395l-1027 485v309l1027 485v-395z" />
    <glyph glyph-name="equal" unicode="=" horiz-adv-x="1413" 
d="M146 138v349h1119v-349h-1119zM146 689v349h1119v-349h-1119z" />
    <glyph glyph-name="greater" unicode="&#x3e;" horiz-adv-x="1413" 
d="M192 1227l1027 -485v-309l-1027 -485v395l606 239v11l-606 239v395z" />
    <glyph glyph-name="question" unicode="?" horiz-adv-x="1184" 
d="M50 1010q0 207 144 327q143 120 392 120q240 0 383 -112t143 -300q0 -207 -218 -332q-106 -61 -141 -102q-37 -43 -37 -110v-42h-355l-3 24q-19 136 19 215q35 77 141 138q107 62 141 100q34 39 34 100q0 50 -38 82q-38 31 -97 31t-97 -39t-39 -100h-372zM396 18
q-62 58 -62 142q0 83 62 141t150 58t150 -58q63 -58 63 -141q0 -84 -63 -142q-62 -58 -150 -58t-150 58z" />
    <glyph glyph-name="at" unicode="@" horiz-adv-x="1828" 
d="M804 756q-33 -49 -33 -137q0 -87 33 -136t92 -49q58 0 91 49t33 136q0 88 -33 137q-33 50 -91 50q-59 0 -92 -50zM1513 1256q225 -207 225 -543q0 -233 -110 -368t-300 -135q-207 0 -257 146h-20q-60 -149 -229 -149q-156 0 -250 115q-95 115 -95 305q0 182 89 294
q90 111 236 111q171 0 233 -142h20v117h254v-483q0 -114 78 -114q58 0 91 73q34 73 34 198q0 273 -158 432q-158 158 -428 158q-286 0 -463 -179q-176 -178 -176 -468q0 -292 183 -461q184 -169 500 -169q129 0 210 22v-194q-105 -25 -238 -25q-394 0 -637 230
q-244 230 -244 601q0 370 241 602q241 233 624 233q363 0 587 -207z" />
    <glyph glyph-name="A" unicode="A" horiz-adv-x="1534" 
d="M976 287h-440l-75 -287h-432l471 1443h532l471 -1443h-452zM613 586h286l-139 524h-8z" />
    <glyph glyph-name="B" unicode="B" horiz-adv-x="1382" 
d="M99 0v1443h709q221 0 345 -96q123 -95 123 -264q0 -123 -84 -210q-82 -86 -209 -102v-8q148 -4 252 -102q106 -99 106 -241q0 -190 -139 -305t-370 -115h-733zM523 865h164q81 0 129 39t48 105q0 67 -45 105q-46 38 -126 38h-170v-287zM704 291q99 0 152 43q54 44 54 125
q0 77 -54 120t-149 43h-184v-331h181z" />
    <glyph glyph-name="C" unicode="C" horiz-adv-x="1513" 
d="M256 170q-192 198 -192 552t193 552q189 194 523 194q288 0 478 -169q191 -171 192 -437h-406q-7 123 -81 198q-72 75 -183 75q-131 0 -207 -109q-77 -111 -77 -303q0 -195 77 -305q75 -110 208 -110q110 0 182 74q73 75 83 200h406q-1 -269 -191 -438
q-188 -169 -481 -169q-334 0 -524 195z" />
    <glyph glyph-name="D" unicode="D" horiz-adv-x="1477" 
d="M716 1443q331 0 512 -182q183 -185 183 -529q0 -346 -184 -539q-183 -193 -511 -193h-617v1443h617zM523 337h133q323 0 323 395q0 181 -85 278q-84 96 -238 96h-133v-769z" />
    <glyph glyph-name="E" unicode="E" horiz-adv-x="1216" 
d="M1117 0h-1018v1443h1018v-337h-594v-233h557v-304h-557v-232h594v-337z" />
    <glyph glyph-name="F" unicode="F" horiz-adv-x="1164" 
d="M99 0v1443h1014v-337h-590v-277h534v-318h-534v-511h-424z" />
    <glyph glyph-name="G" unicode="G" horiz-adv-x="1530" 
d="M1461 614q0 -297 -177 -468q-178 -171 -491 -171q-345 0 -536 194q-193 196 -193 554q0 353 191 550q189 195 525 195q270 0 456 -143q184 -143 208 -366h-417q-21 80 -87 127q-67 48 -158 48q-135 0 -210 -106q-76 -107 -76 -299q0 -196 84 -309q82 -111 223 -111
q103 0 171 53t77 140l2 20h-220v282h628v-190z" />
    <glyph glyph-name="H" unicode="H" horiz-adv-x="1556" 
d="M1031 0v558h-508v-558h-424v1443h424v-548h508v548h424v-1443h-424z" />
    <glyph glyph-name="I" unicode="I" horiz-adv-x="624" 
d="M99 0v1443h424v-1443h-424z" />
    <glyph glyph-name="J" unicode="J" horiz-adv-x="1271" 
d="M425 511q0 -85 42 -133q41 -48 114 -48q143 0 143 174v939h424v-942q0 -252 -149 -390q-147 -136 -412 -136q-263 0 -415 143q-153 143 -153 393h406z" />
    <glyph glyph-name="K" unicode="K" horiz-adv-x="1445" 
d="M99 0v1443h424v-612h8l446 612h445l-475 -641l497 -802h-493l-315 530l-113 -152v-378h-424z" />
    <glyph glyph-name="L" unicode="L" horiz-adv-x="1150" 
d="M1089 0h-990v1443h424v-1106h566v-337z" />
    <glyph glyph-name="M" unicode="M" horiz-adv-x="1833" 
d="M1732 0h-370v836h-8l-325 -819h-227l-325 819h-8v-836h-370v1443h490l323 -842h8l322 842h490v-1443z" />
    <glyph glyph-name="N" unicode="N" horiz-adv-x="1494" 
d="M99 0v1443h329l557 -748h8v748h400v-1443h-325l-561 760h-8v-760h-400z" />
    <glyph glyph-name="O" unicode="O" horiz-adv-x="1584" 
d="M1322 1267q196 -201 196 -546t-196 -546q-196 -200 -531 -200q-336 0 -531 200q-196 201 -196 546t196 546t531 201t531 -201zM577 1019q-81 -111 -81 -298q0 -186 81 -297q80 -111 214 -111t214 111q81 111 81 297q0 187 -81 298t-214 111t-214 -111z" />
    <glyph glyph-name="P" unicode="P" horiz-adv-x="1346" 
d="M758 1443q242 0 389 -143q148 -143 148 -383q0 -237 -157 -381q-155 -142 -409 -142h-206v-394h-424v1443h659zM523 707h119q107 0 165 53q60 54 60 156q0 101 -59 155q-58 53 -163 53h-122v-417z" />
    <glyph glyph-name="Q" unicode="Q" horiz-adv-x="1583" 
d="M1110 -108l-72 117q-114 -34 -247 -34q-337 0 -531 198q-196 199 -196 548q0 344 196 546q196 201 531 201q334 0 530 -201q196 -202 196 -546q0 -359 -198 -542l175 -287h-384zM844 313l-136 223h345l3 -4q29 90 29 189q0 187 -81 301q-80 114 -213 114t-214 -114
q-81 -113 -81 -301q0 -187 81 -301q80 -113 214 -113q29 0 53 6z" />
    <glyph glyph-name="R" unicode="R" horiz-adv-x="1395" 
d="M523 764h175q89 0 141 50q51 50 51 132q0 81 -53 132q-53 52 -138 52h-176v-366zM523 0h-424v1443h641q286 0 436 -129q147 -127 147 -361q0 -131 -60 -240q-63 -113 -173 -166l274 -547h-474l-228 484h-139v-484z" />
    <glyph glyph-name="S" unicode="S" horiz-adv-x="1370" 
d="M460 425q9 -60 75 -99q64 -37 151 -37q94 0 150 34q55 34 55 87q0 50 -46 77q-44 26 -162 47l-191 34q-198 34 -304 145q-105 109 -105 279q0 216 168 348q164 128 426 128q285 0 444 -123q155 -121 157 -333h-387q-2 66 -61 105q-57 38 -145 38q-83 0 -132 -32t-49 -86
q0 -51 47 -81q45 -30 149 -48l198 -34q210 -37 311 -139q100 -101 100 -277q0 -221 -171 -352q-172 -131 -460 -131q-292 0 -454 117q-164 118 -165 333h401z" />
    <glyph glyph-name="T" unicode="T" horiz-adv-x="1274" 
d="M424 0v1106h-380v337h1184v-337h-380v-1106h-424z" />
    <glyph glyph-name="U" unicode="U" horiz-adv-x="1472" 
d="M523 561q0 -114 55 -174q54 -61 157 -61t157 61q55 60 55 174v882h424v-929q0 -246 -175 -393q-174 -146 -461 -146t-461 146q-175 147 -175 393v929h424v-882z" />
    <glyph glyph-name="V" unicode="V" horiz-adv-x="1486" 
d="M467 0l-438 1443h488l231 -1041h8l231 1041h468l-438 -1443h-550z" />
    <glyph glyph-name="W" unicode="W" horiz-adv-x="2062" 
d="M811 0h-400l-372 1443h438l166 -912h8l215 912h328l215 -912h8l166 912h438l-372 -1443h-400l-215 826h-8z" />
    <glyph glyph-name="X" unicode="X" horiz-adv-x="1507" 
d="M465 723v8l-426 712h494l227 -460h8l228 460h470l-447 -714v-8l445 -721h-472l-248 435h-9l-247 -435h-448z" />
    <glyph glyph-name="Y" unicode="Y" horiz-adv-x="1470" 
d="M522 0v457l-493 986h453l253 -585h8l253 585h443l-493 -986v-457h-424z" />
    <glyph glyph-name="Z" unicode="Z" horiz-adv-x="1321" 
d="M79 266l643 832v8h-637v337h1131v-265l-641 -833v-8h665v-337h-1161v266z" />
    <glyph glyph-name="bracketleft" unicode="[" horiz-adv-x="846" 
d="M786 1444v-294h-304v-1096h317v-294h-710v1684h697z" />
    <glyph glyph-name="backslash" unicode="\" horiz-adv-x="783" 
d="M0 1443h395l388 -1701h-386z" />
    <glyph glyph-name="bracketright" unicode="]" horiz-adv-x="846" 
d="M755 -240h-710v294h317v1096h-304v294h697v-1684z" />
    <glyph glyph-name="asciicircum" unicode="^" horiz-adv-x="1060" 
d="M359 829h-345l354 596h329l349 -596h-358l-150 279h-18z" />
    <glyph glyph-name="underscore" unicode="_" horiz-adv-x="886" 
d="M-38 -415v308h962v-308h-962z" />
    <glyph glyph-name="grave" unicode="`" horiz-adv-x="1015" 
d="M482 1275l-265 321h347l232 -321h-314z" />
    <glyph glyph-name="a" unicode="a" horiz-adv-x="1231" 
d="M695 297q55 39 55 101v74l-181 -13q-128 -9 -128 -101q0 -46 35 -73q34 -26 92 -26q74 0 127 38zM149 79q-112 99 -112 248q0 322 465 350l248 15v57q0 56 -39 88q-38 31 -100 31q-63 0 -105 -31q-40 -30 -45 -75h-366q8 179 151 284q144 106 387 106q232 0 375 -106
q142 -106 142 -277v-769h-400v152h-8q-43 -80 -136 -125q-87 -43 -190 -43q-158 0 -267 95z" />
    <glyph glyph-name="b" unicode="b" horiz-adv-x="1330" 
d="M630 40q-89 55 -128 154h-8v-194h-410v1518h410v-596h8q86 218 335 218q213 0 328 -150q114 -150 114 -428t-113 -428q-114 -150 -324 -150q-123 0 -212 56zM542 752q-49 -71 -50 -191q1 -121 50 -190q49 -70 134 -70q84 0 134 71q49 70 49 190q0 119 -50 190t-133 71
q-84 0 -134 -71z" />
    <glyph glyph-name="c" unicode="c" horiz-adv-x="1223" 
d="M804 662q-7 85 -51 135q-45 49 -114 49q-85 0 -130 -73t-45 -210q0 -285 175 -285q72 0 115 47q44 46 50 130h373q-4 -226 -149 -355q-145 -128 -394 -128q-273 0 -429 157t-156 434q0 274 157 432q156 157 426 157q244 0 392 -132q149 -133 153 -358h-373z" />
    <glyph glyph-name="d" unicode="d" horiz-adv-x="1325" 
d="M165 137q-116 154 -116 428q0 271 118 423t328 152q120 0 211 -62q86 -59 120 -156h8v596h410v-1518h-410v194h-8q-29 -91 -120 -149q-94 -61 -217 -61q-208 0 -324 153zM518 753q-49 -69 -49 -191q0 -123 48 -192q49 -69 135 -69q87 0 136 69q48 68 48 191
q0 122 -49 192t-135 70q-85 0 -134 -70z" />
    <glyph glyph-name="e" unicode="e" horiz-adv-x="1243" 
d="M507 821q-50 -48 -56 -123h358q-5 78 -54 125q-49 46 -125 46q-73 0 -123 -48zM1187 363q-26 -181 -174 -286q-149 -105 -378 -105q-275 0 -431 155q-155 155 -155 429q0 275 155 436q154 160 418 160q260 0 415 -154t155 -412v-111h-747v-26q0 -86 55 -140
q55 -55 141 -55q140 0 180 109h366z" />
    <glyph glyph-name="f" unicode="f" horiz-adv-x="839" 
d="M178 826h-149v298h149v96q0 168 96 239q97 71 329 71q91 0 173 -12v-261q-40 6 -80 6q-120 0 -120 -78v-61h202v-298h-190v-826h-410v826z" />
    <glyph glyph-name="g" unicode="g" horiz-adv-x="1325" 
d="M788 375q48 64 48 186t-49 192t-135 70q-85 0 -134 -70q-49 -69 -49 -191t48 -187q48 -64 135 -64q88 0 136 64zM236 -326q-156 96 -160 258h394q9 -41 60 -66q50 -25 118 -25q84 0 134 39q52 41 52 110v224h-8q-29 -89 -120 -144q-92 -56 -217 -56q-201 0 -319 144
q-121 147 -121 407q0 271 118 423t328 152q120 0 211 -62q86 -59 120 -156h8v202h410v-1104q0 -199 -165 -320t-435 -121q-253 0 -408 95z" />
    <glyph glyph-name="h" unicode="h" horiz-adv-x="1328" 
d="M84 1518h400v-614h8q42 117 138 180q94 62 223 62q189 0 294 -112t105 -314v-720h-410v629q0 86 -46 136q-47 50 -127 50q-76 0 -126 -52q-49 -53 -49 -134v-629h-410v1518z" />
    <glyph glyph-name="i" unicode="i" horiz-adv-x="570" 
d="M79 1124h410v-1124h-410v1124zM139 1245q-60 56 -60 140t60 140q59 55 145 55t145 -55q60 -56 60 -140t-60 -140q-59 -55 -145 -55t-145 55z" />
    <glyph glyph-name="j" unicode="j" horiz-adv-x="570" 
d="M490 7q0 -171 -119 -266q-118 -95 -332 -95q-77 0 -125 6v286q18 -3 47 -3q119 0 119 90v1099h410v-1117zM140 1245q-60 56 -60 140t60 140q59 55 145 55t145 -55q60 -56 60 -140t-60 -140q-59 -55 -145 -55t-145 55z" />
    <glyph glyph-name="k" unicode="k" horiz-adv-x="1226" 
d="M782 1124h452l-378 -480l404 -644h-471l-238 399l-57 -74v-325h-410v1518h410v-803h8z" />
    <glyph glyph-name="l" unicode="l" horiz-adv-x="580" 
d="M84 1518h410v-1518h-410v1518z" />
    <glyph glyph-name="m" unicode="m" horiz-adv-x="1920" 
d="M79 1124h400v-226h8q31 113 119 181q87 67 202 67q128 0 210 -64t103 -182h8q29 111 123 179q95 67 222 67q164 0 267 -107t103 -279v-760h-410v654q0 163 -140 163q-64 0 -101 -44q-37 -43 -37 -119v-654h-389v654q0 163 -139 163q-64 0 -102 -44q-37 -44 -37 -119v-654
h-410v1124z" />
    <glyph glyph-name="n" unicode="n" horiz-adv-x="1319" 
d="M79 1124h400v-220h8q88 242 355 242q189 0 295 -112t106 -314v-720h-410v629q0 87 -45 136q-46 50 -126 50q-76 0 -125 -52q-48 -53 -48 -134v-629h-410v1124z" />
    <glyph glyph-name="o" unicode="o" horiz-adv-x="1278" 
d="M207 125q-158 156 -158 438q0 275 160 433q158 156 429 156q273 0 430 -155q159 -158 159 -434q0 -283 -157 -438q-155 -153 -432 -153q-276 0 -431 153zM765 342q46 78 46 220q0 139 -47 218q-46 78 -126 78t-126 -78q-47 -79 -47 -218q0 -142 46 -220q45 -76 127 -76
q81 0 127 76z" />
    <glyph glyph-name="p" unicode="p" horiz-adv-x="1325" 
d="M1160 990q114 -150 114 -428t-113 -428q-114 -150 -324 -150q-123 0 -212 56q-89 55 -128 154h-8v-526h-410v1456h410v-202h8q86 218 335 218q213 0 328 -150zM805 372q49 70 49 190q0 119 -50 190t-133 71q-84 0 -134 -71q-49 -71 -50 -191q1 -121 50 -190
q49 -70 134 -70q84 0 134 71z" />
    <glyph glyph-name="q" unicode="q" horiz-adv-x="1325" 
d="M706 1078q86 -59 120 -156h8v202h410v-1456h-410v526h-8q-29 -91 -120 -149q-94 -61 -217 -61q-208 0 -324 153q-116 154 -116 428q0 271 118 423t328 152q120 0 211 -62zM788 370q48 68 48 191q0 122 -49 192t-135 70q-85 0 -134 -70q-49 -69 -49 -191q0 -123 48 -192
q49 -69 135 -69q87 0 136 69z" />
    <glyph glyph-name="r" unicode="r" horiz-adv-x="868" 
d="M79 1124h400v-220h8q62 236 263 236q54 0 97 -16v-345q-54 23 -121 23q-237 0 -237 -238v-564h-410v1124z" />
    <glyph glyph-name="s" unicode="s" horiz-adv-x="1172" 
d="M199 1051q139 101 383 101t382 -103q139 -104 139 -287h-372q-1 56 -42 88q-41 33 -110 33q-58 0 -92 -22q-35 -22 -35 -58q0 -55 111 -76l251 -50q167 -33 245 -107q77 -75 77 -203q0 -181 -150 -289q-148 -106 -395 -106q-257 0 -404 106q-142 103 -153 285h396
q7 -57 51 -89q44 -33 115 -33q134 0 134 77q0 52 -108 73l-216 43q-347 69 -347 342q0 175 140 275z" />
    <glyph glyph-name="t" unicode="t" horiz-adv-x="847" 
d="M588 1371v-247h198v-298h-198v-423q0 -108 127 -108q41 0 71 5v-285q-73 -15 -170 -15q-235 0 -337 73q-101 73 -101 240v513h-149v298h149v247h410z" />
    <glyph glyph-name="u" unicode="u" horiz-adv-x="1319" 
d="M1238 0h-400v220h-8q-34 -114 -123 -178q-90 -64 -216 -64q-185 0 -299 112q-118 117 -118 313v721h410v-629q0 -88 50 -138q47 -48 125 -48q73 0 121 51q48 52 48 135v629h410v-1124z" />
    <glyph glyph-name="v" unicode="v" horiz-adv-x="1189" 
d="M837 0h-480l-367 1124h442l167 -791h8l163 791h429z" />
    <glyph glyph-name="w" unicode="w" horiz-adv-x="1796" 
d="M1502 0h-445l-159 729h-8l-157 -729h-437l-286 1124h415l122 -764h8l151 764h391l154 -764h8l122 764h405z" />
    <glyph glyph-name="x" unicode="x" horiz-adv-x="1216" 
d="M591 356l-158 -356h-422l326 558l-327 566h464l142 -344h8l141 344h441l-327 -558l327 -566h-443l-164 356h-8z" />
    <glyph glyph-name="y" unicode="y" horiz-adv-x="1246" 
d="M122 -412v306h60q189 0 192 74v20l-374 1136h455l175 -828h8l175 828h433l-339 -1101q-72 -233 -221 -334t-418 -101h-146z" />
    <glyph glyph-name="z" unicode="z" horiz-adv-x="1128" 
d="M59 209l506 603v8h-490v304h970v-244l-446 -568v-8h468v-304h-1008v209z" />
    <glyph glyph-name="braceleft" unicode="{" horiz-adv-x="940" 
d="M409 588q236 -20 236 -260v-198q0 -116 38 -152q38 -37 157 -37h44v-283h-149q-262 0 -372 94q-111 94 -111 317v161q0 115 -34 159t-124 44v347q89 0 124 45q34 44 34 159v128q0 220 110 311t373 91h149v-284h-44q-120 0 -157 -37q-38 -36 -38 -152v-188
q0 -110 -56 -164q-56 -55 -180 -65v-36z" />
    <glyph glyph-name="bar" unicode="|" horiz-adv-x="760" 
d="M179 -259v1702h400v-1702h-400z" />
    <glyph glyph-name="braceright" unicode="}" horiz-adv-x="940" 
d="M531 624q-125 10 -182 65q-57 54 -57 164v188q0 116 -37 153q-38 36 -157 36h-44v284h150q263 0 372 -91t109 -311v-128q0 -115 35 -159q35 -45 124 -45v-347q-90 0 -124 -44q-35 -44 -35 -159v-161q0 -224 -110 -318q-109 -93 -371 -93h-150v283h44q119 0 157 37
q37 36 37 152v198q0 240 239 260v36z" />
    <glyph glyph-name="asciitilde" unicode="~" horiz-adv-x="1159" 
d="M424 675q-91 0 -91 -177h-296q-17 230 75 367q91 137 262 137q137 0 273 -136q62 -62 116 -62q91 0 91 178h296q17 -230 -74 -367q-92 -137 -263 -137q-134 0 -269 133q-64 64 -120 64z" />
    <glyph glyph-name="uni00A0" unicode="&#xa0;" horiz-adv-x="390" 
 />
    <glyph glyph-name="exclamdown" unicode="&#xa1;" horiz-adv-x="749" 
d="M200 667h348l36 -972h-420zM223 838q-62 58 -62 141q0 84 62 142q62 57 151 57q88 0 150 -57q62 -59 62 -142t-62 -141q-63 -58 -150 -58q-89 0 -151 58z" />
    <glyph glyph-name="cent" unicode="&#xa2;" horiz-adv-x="1413" 
d="M1297 545q-11 -177 -128 -295q-113 -115 -298 -149v-195h-312v202q-205 46 -323 193q-122 153 -122 379q0 224 122 377q119 147 323 193v203h312v-197q182 -36 297 -154q118 -123 129 -299h-370q-13 69 -65 114q-53 44 -122 44q-95 0 -154 -72q-63 -77 -63 -209
q0 -134 62 -211q59 -72 153 -72q74 0 125 41q50 40 64 107h370z" />
    <glyph glyph-name="sterling" unicode="&#xa3;" horiz-adv-x="1413" 
d="M1298 342v-342h-1185v312q136 10 216 92q81 82 81 211h-289v270h213q-56 131 -56 225q0 179 156 276t443 97q225 0 360 -48v-312q-134 48 -293 48q-118 0 -182 -40q-63 -39 -63 -113q0 -55 29 -133h359v-270h-288q-17 -183 -143 -261v-12h642z" />
    <glyph glyph-name="currency" unicode="&#xa4;" horiz-adv-x="1462" 
d="M586 497q61 -62 144 -62t144 62t61 145t-61 145t-144 62t-144 -62t-61 -145t61 -145zM1185 871q55 -108 55 -229t-55 -229l132 -132l-226 -226l-132 132q-108 -55 -229 -55t-229 55l-132 -132l-226 226l132 132q-55 108 -55 229t55 229l-132 132l226 226l132 -132
q108 55 229 55t229 -55l132 132l226 -226z" />
    <glyph glyph-name="yen" unicode="&#xa5;" horiz-adv-x="1413" 
d="M919 155v-155h-424v155h-265v196h265v106h-265v196h167l-395 790h449l251 -579h12l248 579h449l-394 -790h167v-196h-265v-106h265v-196h-265z" />
    <glyph glyph-name="brokenbar" unicode="&#xa6;" horiz-adv-x="760" 
d="M179 773v670h400v-670h-400zM179 -259v670h400v-670h-400z" />
    <glyph glyph-name="section" unicode="&#xa7;" horiz-adv-x="1000" 
d="M594 444q61 37 61 95q0 73 -113 115l-135 55q-61 -38 -61 -95q0 -72 113 -116zM162 -210q-128 100 -133 263h330q4 -43 42 -72q37 -28 90 -28t86 28t33 73q0 57 -100 94l-210 78q-152 58 -219 131q-66 73 -66 182q0 92 56 166q56 73 152 106v20q-105 55 -148 118
q-44 62 -44 157q0 163 129 260t346 97q202 0 330 -100t133 -263h-330q-4 43 -42 72q-37 28 -90 28t-86 -28t-33 -73q0 -53 100 -94l200 -78q158 -63 227 -136q68 -73 68 -177q0 -92 -56 -166q-56 -73 -152 -106v-20q105 -57 149 -119q43 -62 43 -156q0 -163 -129 -260
t-346 -97q-202 0 -330 100z" />
    <glyph glyph-name="dieresis" unicode="&#xa8;" horiz-adv-x="1016" 
d="M172 1300q-45 44 -45 106q0 63 45 106q45 44 113 44t114 -44q44 -43 44 -106q0 -62 -44 -106q-46 -44 -114 -44t-113 44zM616 1300q-45 44 -45 106q0 63 45 106q45 44 113 44t114 -44q44 -43 44 -106q0 -62 -44 -106q-46 -44 -114 -44t-113 44z" />
    <glyph glyph-name="copyright" unicode="&#xa9;" horiz-adv-x="1688" 
d="M289 120q-230 231 -230 554t230 554q231 230 554 230t554 -230q230 -231 230 -554t-230 -554q-231 -230 -554 -230t-554 230zM1265 252q175 175 175 422t-175 422t-422 175t-422 -175t-175 -422t175 -422t422 -175t422 175zM962 752q-11 101 -102 101q-111 0 -111 -178
q0 -180 111 -180q91 0 102 94h237q-10 -136 -101 -213t-241 -77q-172 0 -271 100q-98 100 -98 276q0 173 98 274q99 100 269 100q148 0 241 -80t103 -217h-237z" />
    <glyph glyph-name="ordfeminine" unicode="&#xaa;" horiz-adv-x="1041" 
d="M511 727q47 0 77 28q29 29 29 75v50l-107 -8q-95 -8 -95 -73q0 -72 96 -72zM141 561q-82 78 -82 213q0 263 389 287l169 9v70q1 30 -23 49q-25 18 -66 18q-86 0 -98 -59h-338q8 151 126 235t323 84q203 0 321 -89t118 -242v-641h-357v108h-20q-26 -56 -90 -88
q-66 -33 -151 -33q-140 0 -221 79z" />
    <glyph glyph-name="guillemotleft" unicode="&#xab;" horiz-adv-x="1409" 
d="M976 565l342 -409h-347l-338 406v8l347 407h338l-342 -406v-6zM432 565l342 -409h-347l-338 406v8l347 407h338l-342 -406v-6z" />
    <glyph glyph-name="logicalnot" unicode="&#xac;" horiz-adv-x="1413" 
d="M1276 5h-362v409h-779v348h1141v-757z" />
    <glyph glyph-name="registered" unicode="&#xae;" horiz-adv-x="1196" 
d="M217 525q-158 158 -158 380t158 380t380 158t380 -158t158 -380t-158 -380t-380 -158t-380 158zM863 639q110 110 110 266t-110 266t-266 110t-266 -110t-110 -266t110 -266t266 -110t266 110zM379 671v477h263q86 0 136 -43q51 -43 51 -116q0 -111 -91 -146l116 -172
h-177l-94 150h-52v-150h-152zM531 928h74q65 0 65 50q0 54 -63 54h-76v-104z" />
    <glyph glyph-name="macron" unicode="&#xaf;" horiz-adv-x="1000" 
d="M851 1276h-704v180h704v-180z" />
    <glyph glyph-name="degree" unicode="&#xb0;" horiz-adv-x="704" 
d="M124 858q-92 92 -92 228t91 227t228 91t228 -91q91 -90 91 -227q0 -136 -91 -228q-91 -91 -228 -91q-136 0 -227 91zM429 1007q30 32 30 79t-31 79q-30 32 -76 32q-45 0 -77 -32q-32 -33 -32 -79t32 -79q32 -34 77 -34q46 0 77 34z" />
    <glyph glyph-name="plusminus" unicode="&#xb1;" horiz-adv-x="1413" 
d="M1191 37h-975v288h975v-288zM880 452h-350v188h-314v296h314v188h350v-188h315v-296h-315v-188z" />
    <glyph glyph-name="uni00B2" unicode="&#xb2;" horiz-adv-x="719" 
d="M16 1546q0 123 90 194t245 71q145 0 232 -61q88 -61 88 -162q0 -110 -129 -206l-127 -94v-5h262v-218h-643v198l316 248q32 26 32 49q0 38 -46 38q-50 0 -50 -52v-7h-270v7z" />
    <glyph glyph-name="uni00B3" unicode="&#xb3;" horiz-adv-x="748" 
d="M279 1521h89q53 0 53 38q0 42 -56 42q-27 0 -44 -16t-17 -42h-264q-5 122 85 195q89 73 243 73q146 0 236 -57q89 -57 89 -151q0 -60 -42 -104q-42 -45 -110 -57v-6q82 -11 127 -56q46 -45 46 -113q0 -106 -92 -167q-93 -61 -254 -61q-148 0 -241 74q-94 74 -100 196h284
q0 -43 54 -43q52 0 52 36q0 37 -54 37h-84v182z" />
    <glyph glyph-name="acute" unicode="&#xb4;" horiz-adv-x="1015" 
d="M217 1275l232 321h347l-265 -321h-314z" />
    <glyph glyph-name="paragraph" unicode="&#xb6;" horiz-adv-x="1744" 
d="M673 -290v625h-20q-247 0 -412 163q-162 159 -162 390q0 241 156 396q160 159 419 159h399v-1733h-380zM1243 1443h380v-1733h-380v1733z" />
    <glyph glyph-name="periodcentered" unicode="&#xb7;" horiz-adv-x="744" 
d="M224 506q-61 61 -61 147t61 147t147 61t147 -61t61 -147t-61 -147t-147 -61t-147 61z" />
    <glyph glyph-name="cedilla" unicode="&#xb8;" horiz-adv-x="1015" 
d="M386 -98l63 114l180 -16l-46 -89q72 0 117 -46t45 -122q0 -195 -263 -195q-94 0 -133 15v141q38 -12 99 -12q94 0 94 37q0 26 -22 36t-78 10h-56v127z" />
    <glyph glyph-name="uni00B9" unicode="&#xb9;" horiz-adv-x="604" 
d="M208 1542h-5l-166 -102v237l172 108h302v-720h-303v477z" />
    <glyph glyph-name="ordmasculine" unicode="&#xba;" horiz-adv-x="1128" 
d="M470 802q33 -59 92 -59q60 0 93 59q32 59 32 167q0 106 -33 166q-34 61 -92 61t-91 -61t-33 -166q0 -108 32 -167zM191 599q-132 133 -132 371q0 233 135 367q135 135 368 135q235 0 370 -134t135 -368q0 -240 -132 -371q-133 -132 -373 -132q-238 0 -371 132z" />
    <glyph glyph-name="guillemotright" unicode="&#xbb;" horiz-adv-x="1409" 
d="M89 977h338l347 -407v-8l-338 -406h-347l342 409v6zM633 977h338l347 -407v-8l-338 -406h-347l342 409v6z" />
    <glyph glyph-name="onequarter" unicode="&#xbc;" horiz-adv-x="1787" 
d="M135 0l1051 1443h340l-1051 -1443h-340zM1388 76h-350v243q92 183 222 401h409v-422h74v-222h-74v-76h-281v76zM1275 283h123v253h-6q-44 -87 -117 -248v-5zM218 1205h-5l-166 -102v237l172 108h302v-720h-303v477z" />
    <glyph glyph-name="onehalf" unicode="&#xbd;" horiz-adv-x="1782" 
d="M135 0l1051 1443h340l-1051 -1443h-340zM218 1205h-5l-166 -102v237l172 108h302v-720h-303v477zM1079 481q0 123 90 194t245 71q145 0 232 -61q88 -61 88 -162q0 -110 -129 -206l-127 -94v-5h262v-218h-643v198l316 248q32 26 32 49q0 38 -46 38q-50 0 -50 -52v-7h-270
v7z" />
    <glyph glyph-name="threequarters" unicode="&#xbe;" horiz-adv-x="1857" 
d="M235 0l1051 1443h340l-1051 -1443h-340zM1458 76h-350v243q92 183 222 401h409v-422h74v-222h-74v-76h-281v76zM1345 283h123v253h-6q-44 -87 -117 -248v-5zM279 1184h89q53 0 53 38q0 42 -56 42q-27 0 -44 -16t-17 -42h-264q-5 122 85 195q89 73 243 73q146 0 236 -57
q89 -57 89 -151q0 -60 -42 -104q-42 -45 -110 -57v-6q82 -11 127 -56q46 -45 46 -113q0 -106 -92 -167q-93 -61 -254 -61q-148 0 -241 74q-94 74 -100 196h284q0 -43 54 -43q52 0 52 36q0 37 -54 37h-84v182z" />
    <glyph glyph-name="questiondown" unicode="&#xbf;" horiz-adv-x="1184" 
d="M1133 128q-1 -207 -144 -327q-144 -120 -392 -120q-241 0 -384 112t-143 300q0 206 219 332q106 61 141 102q37 43 37 110v42h354l3 -24q19 -136 -18 -215q-36 -77 -142 -138q-107 -62 -141 -100q-34 -39 -34 -100q0 -50 38 -81t98 -31q59 0 96 38q38 39 39 100h373z
M486 838q-63 58 -63 141q0 84 63 142q62 57 150 57t150 -57q63 -59 63 -142t-63 -141t-150 -58q-88 0 -150 58z" />
    <glyph glyph-name="Agrave" unicode="&#xc0;" horiz-adv-x="1534" 
d="M976 287h-440l-75 -287h-432l471 1443h532l471 -1443h-452zM613 586h286l-139 524h-8zM346 1885h348l232 -321h-306z" />
    <glyph glyph-name="Aacute" unicode="&#xc1;" horiz-adv-x="1534" 
d="M976 287h-440l-75 -287h-432l471 1443h532l471 -1443h-452zM613 586h286l-139 524h-8zM600 1555l232 321h348l-274 -321h-306z" />
    <glyph glyph-name="Acircumflex" unicode="&#xc2;" horiz-adv-x="1534" 
d="M976 287h-440l-75 -287h-432l471 1443h532l471 -1443h-452zM613 586h286l-139 524h-8zM923 1872l255 -336h-276l-132 192h-8l-132 -192h-276l255 336h314z" />
    <glyph glyph-name="Atilde" unicode="&#xc3;" horiz-adv-x="1534" 
d="M976 287h-440l-75 -287h-432l471 1443h532l471 -1443h-452zM613 586h286l-139 524h-8zM756 1606q-80 59 -105 59q-63 0 -69 -101h-201q0 135 75 217q71 76 176 76q83 0 163 -59q80 -60 105 -60q64 0 69 106h201q0 -135 -75 -219q-71 -79 -176 -79q-83 0 -163 60z" />
    <glyph glyph-name="Adieresis" unicode="&#xc4;" horiz-adv-x="1534" 
d="M976 287h-440l-75 -287h-432l471 1443h532l471 -1443h-452zM613 586h286l-139 524h-8zM431 1580q-45 44 -45 106q0 63 45 106q45 44 113 44t114 -44q44 -43 44 -106q0 -62 -44 -106q-46 -44 -114 -44t-113 44zM875 1580q-45 44 -45 106q0 63 45 106q45 44 113 44t114 -44
q44 -43 44 -106q0 -62 -44 -106q-46 -44 -114 -44t-113 44z" />
    <glyph glyph-name="Aring" unicode="&#xc5;" horiz-adv-x="1534" 
d="M976 287h-440l-75 -287h-432l471 1443h532l471 -1443h-452zM613 586h286l-139 524h-8zM595 1586q-73 70 -73 166q0 97 73 167q72 69 171 69t171 -69q72 -70 72 -167t-72 -166t-171 -69t-171 69zM828 1693q26 25 26 59q0 35 -26 61q-27 25 -62 25t-62 -25q-26 -26 -26 -61
q0 -34 26 -59q27 -25 62 -25t62 25z" />
    <glyph glyph-name="AE" unicode="&#xc6;" horiz-adv-x="2104" 
d="M669 586h300v543h-112zM969 286h-403l-99 -286h-418l540 1443h1395v-336h-643v-234h606v-304h-606v-233h643v-336h-1015v286z" />
    <glyph glyph-name="Ccedilla" unicode="&#xc7;" horiz-adv-x="1513" 
d="M1452 582q-1 -249 -166 -415q-163 -164 -425 -188l-35 -68q72 0 117 -46t45 -122q0 -195 -263 -195q-94 0 -133 15v141q38 -12 99 -12q94 0 94 37q0 26 -22 36t-78 10h-56v127l43 79q-286 31 -446 222q-162 195 -162 519q0 354 193 552q189 194 523 194q288 0 478 -169
q191 -171 192 -437h-406q-7 123 -81 198q-72 75 -183 75q-131 0 -207 -109q-77 -111 -77 -303q0 -195 77 -305q75 -110 208 -110q110 0 182 74q73 75 83 200h406z" />
    <glyph glyph-name="Egrave" unicode="&#xc8;" horiz-adv-x="1216" 
d="M1117 0h-1018v1443h1018v-337h-594v-233h557v-304h-557v-232h594v-337zM187 1885h348l232 -321h-306z" />
    <glyph glyph-name="Eacute" unicode="&#xc9;" horiz-adv-x="1216" 
d="M1117 0h-1018v1443h1018v-337h-594v-233h557v-304h-557v-232h594v-337zM441 1555l232 321h348l-274 -321h-306z" />
    <glyph glyph-name="Ecircumflex" unicode="&#xca;" horiz-adv-x="1216" 
d="M1117 0h-1018v1443h1018v-337h-594v-233h557v-304h-557v-232h594v-337zM764 1872l255 -336h-276l-132 192h-8l-132 -192h-276l255 336h314z" />
    <glyph glyph-name="Edieresis" unicode="&#xcb;" horiz-adv-x="1216" 
d="M1117 0h-1018v1443h1018v-337h-594v-233h557v-304h-557v-232h594v-337zM272 1580q-45 44 -45 106q0 63 45 106q45 44 113 44t114 -44q44 -43 44 -106q0 -62 -44 -106q-46 -44 -114 -44t-113 44zM716 1580q-45 44 -45 106q0 63 45 106q45 44 113 44t114 -44
q44 -43 44 -106q0 -62 -44 -106q-46 -44 -114 -44t-113 44z" />
    <glyph glyph-name="Igrave" unicode="&#xcc;" horiz-adv-x="624" 
d="M100 0v1443h424v-1443h-424zM-108 1885h348l232 -321h-306z" />
    <glyph glyph-name="Iacute" unicode="&#xcd;" horiz-adv-x="624" 
d="M99 0v1443h424v-1443h-424zM145 1555l232 321h348l-274 -321h-306z" />
    <glyph glyph-name="Icircumflex" unicode="&#xce;" horiz-adv-x="624" 
d="M100 0v1443h424v-1443h-424zM469 1872l255 -336h-276l-132 192h-8l-132 -192h-276l255 336h314z" />
    <glyph glyph-name="Idieresis" unicode="&#xcf;" horiz-adv-x="624" 
d="M100 0v1443h424v-1443h-424zM-23 1580q-45 44 -45 106q0 63 45 106q45 44 113 44t114 -44q44 -43 44 -106q0 -62 -44 -106q-46 -44 -114 -44t-113 44zM421 1580q-45 44 -45 106q0 63 45 106q45 44 113 44t114 -44q44 -43 44 -106q0 -62 -44 -106q-46 -44 -114 -44
t-113 44z" />
    <glyph glyph-name="Eth" unicode="&#xd0;" horiz-adv-x="1506" 
d="M656 337q323 0 323 395q0 181 -85 278q-84 96 -238 96h-133v-246h253v-279h-253v-244h133zM716 1443q331 0 512 -182q183 -185 183 -529q0 -346 -184 -539q-183 -193 -511 -193h-617v581h-46v279h46v583h617z" />
    <glyph glyph-name="Ntilde" unicode="&#xd1;" horiz-adv-x="1494" 
d="M99 0v1443h329l557 -748h8v748h400v-1443h-325l-561 760h-8v-760h-400zM736 1606q-80 59 -105 59q-63 0 -69 -101h-201q0 135 75 217q71 76 176 76q83 0 163 -59q80 -60 105 -60q64 0 69 106h201q0 -135 -75 -219q-71 -79 -176 -79q-83 0 -163 60z" />
    <glyph glyph-name="Ograve" unicode="&#xd2;" horiz-adv-x="1584" 
d="M1322 1267q196 -201 196 -546t-196 -546q-196 -200 -531 -200q-336 0 -531 200q-196 201 -196 546t196 546t531 201t531 -201zM577 1019q-81 -111 -81 -298q0 -186 81 -297q80 -111 214 -111t214 111q81 111 81 297q0 187 -81 298t-214 111t-214 -111zM371 1885h348
l232 -321h-306z" />
    <glyph glyph-name="Oacute" unicode="&#xd3;" horiz-adv-x="1584" 
d="M1322 1267q196 -201 196 -546t-196 -546q-196 -200 -531 -200q-336 0 -531 200q-196 201 -196 546t196 546t531 201t531 -201zM577 1019q-81 -111 -81 -298q0 -186 81 -297q80 -111 214 -111t214 111q81 111 81 297q0 187 -81 298t-214 111t-214 -111zM625 1555l232 321
h348l-274 -321h-306z" />
    <glyph glyph-name="Ocircumflex" unicode="&#xd4;" horiz-adv-x="1584" 
d="M1322 1267q196 -201 196 -546t-196 -546q-196 -200 -531 -200q-336 0 -531 200q-196 201 -196 546t196 546t531 201t531 -201zM577 1019q-81 -111 -81 -298q0 -186 81 -297q80 -111 214 -111t214 111q81 111 81 297q0 187 -81 298t-214 111t-214 -111zM948 1872l255 -336
h-276l-132 192h-8l-132 -192h-276l255 336h314z" />
    <glyph glyph-name="Otilde" unicode="&#xd5;" horiz-adv-x="1584" 
d="M1322 1267q196 -201 196 -546t-196 -546q-196 -200 -531 -200q-336 0 -531 200q-196 201 -196 546t196 546t531 201t531 -201zM577 1019q-81 -111 -81 -298q0 -186 81 -297q80 -111 214 -111t214 111q81 111 81 297q0 187 -81 298t-214 111t-214 -111zM781 1606
q-80 59 -105 59q-63 0 -69 -101h-201q0 135 75 217q71 76 176 76q83 0 163 -59q80 -60 105 -60q64 0 69 106h201q0 -135 -75 -219q-71 -79 -176 -79q-83 0 -163 60z" />
    <glyph glyph-name="Odieresis" unicode="&#xd6;" horiz-adv-x="1584" 
d="M1322 1267q196 -201 196 -546t-196 -546q-196 -200 -531 -200q-336 0 -531 200q-196 201 -196 546t196 546t531 201t531 -201zM577 1019q-81 -111 -81 -298q0 -186 81 -297q80 -111 214 -111t214 111q81 111 81 297q0 187 -81 298t-214 111t-214 -111zM456 1580
q-45 44 -45 106q0 63 45 106q45 44 113 44t114 -44q44 -43 44 -106q0 -62 -44 -106q-46 -44 -114 -44t-113 44zM900 1580q-45 44 -45 106q0 63 45 106q45 44 113 44t114 -44q44 -43 44 -106q0 -62 -44 -106q-46 -44 -114 -44t-113 44z" />
    <glyph glyph-name="multiply" unicode="&#xd7;" horiz-adv-x="1414" 
d="M405 41l-246 246l301 301l-301 301l246 246l301 -301l301 301l246 -246l-301 -301l301 -301l-246 -246l-301 301z" />
    <glyph glyph-name="Oslash" unicode="&#xd8;" horiz-adv-x="1584" 
d="M671 341q56 -28 120 -28q134 0 214 111q81 111 81 297q0 151 -54 253zM948 1078q-67 52 -157 52q-133 0 -214 -111t-81 -298t82 -299zM1240 1338q278 -199 278 -617q0 -345 -196 -546q-196 -200 -531 -200q-167 0 -299 51l-64 -112l-103 58l59 105q-320 192 -320 644
q0 345 196 546t531 201q190 0 338 -67l69 122l118 -51z" />
    <glyph glyph-name="Ugrave" unicode="&#xd9;" horiz-adv-x="1472" 
d="M523 561q0 -114 55 -174q54 -61 157 -61t157 61q55 60 55 174v882h424v-929q0 -246 -175 -393q-174 -146 -461 -146t-461 146q-175 147 -175 393v929h424v-882zM315 1885h348l232 -321h-306z" />
    <glyph glyph-name="Uacute" unicode="&#xda;" horiz-adv-x="1472" 
d="M523 561q0 -114 55 -174q54 -61 157 -61t157 61q55 60 55 174v882h424v-929q0 -246 -175 -393q-174 -146 -461 -146t-461 146q-175 147 -175 393v929h424v-882zM569 1555l232 321h348l-274 -321h-306z" />
    <glyph glyph-name="Ucircumflex" unicode="&#xdb;" horiz-adv-x="1472" 
d="M523 561q0 -114 55 -174q54 -61 157 -61t157 61q55 60 55 174v882h424v-929q0 -246 -175 -393q-174 -146 -461 -146t-461 146q-175 147 -175 393v929h424v-882zM892 1872l255 -336h-276l-132 192h-8l-132 -192h-276l255 336h314z" />
    <glyph glyph-name="Udieresis" unicode="&#xdc;" horiz-adv-x="1472" 
d="M523 561q0 -114 55 -174q54 -61 157 -61t157 61q55 60 55 174v882h424v-929q0 -246 -175 -393q-174 -146 -461 -146t-461 146q-175 147 -175 393v929h424v-882zM400 1580q-45 44 -45 106q0 63 45 106q45 44 113 44t114 -44q44 -43 44 -106q0 -62 -44 -106
q-46 -44 -114 -44t-113 44zM844 1580q-45 44 -45 106q0 63 45 106q45 44 113 44t114 -44q44 -43 44 -106q0 -62 -44 -106q-46 -44 -114 -44t-113 44z" />
    <glyph glyph-name="Yacute" unicode="&#xdd;" horiz-adv-x="1470" 
d="M522 0v457l-493 986h453l253 -585h8l253 585h443l-493 -986v-457h-424zM568 1555l232 321h348l-274 -321h-306z" />
    <glyph glyph-name="Thorn" unicode="&#xde;" horiz-adv-x="1428" 
d="M568 1443v-204h242q243 0 385 -134q142 -135 142 -366q0 -229 -150 -363t-406 -134h-216v-242h-424v1443h427zM565 556h129q215 0 215 182q0 181 -212 181h-132v-363z" />
    <glyph glyph-name="germandbls" unicode="&#xdf;" horiz-adv-x="1481" 
d="M113 0v1061q0 190 156 299q155 109 425 109q255 0 414 -105t159 -274q0 -117 -57 -202q-56 -86 -150 -110v-20q148 -5 241 -106t93 -256q0 -193 -137 -302q-137 -110 -377 -110q-144 0 -218 18v313q53 -20 125 -20q186 0 186 133q0 64 -56 100q-55 36 -152 36h-83v306h48
q63 0 102 37t39 96q0 69 -45 108t-125 39q-178 0 -178 -188v-962h-410z" />
    <glyph glyph-name="agrave" unicode="&#xe0;" horiz-adv-x="1231" 
d="M695 297q55 39 55 101v74l-181 -13q-128 -9 -128 -101q0 -46 35 -73q34 -26 92 -26q74 0 127 38zM149 79q-112 99 -112 248q0 322 465 350l248 15v57q0 56 -39 88q-38 31 -100 31q-63 0 -105 -31q-40 -30 -45 -75h-366q8 179 151 284q144 106 387 106q232 0 375 -106
q142 -106 142 -277v-769h-400v152h-8q-43 -80 -136 -125q-87 -43 -190 -43q-158 0 -267 95zM489 1275l-265 321h347l232 -321h-314z" />
    <glyph glyph-name="aacute" unicode="&#xe1;" horiz-adv-x="1231" 
d="M695 297q55 39 55 101v74l-181 -13q-128 -9 -128 -101q0 -46 35 -73q34 -26 92 -26q74 0 127 38zM149 79q-112 99 -112 248q0 322 465 350l248 15v57q0 56 -39 88q-38 31 -100 31q-63 0 -105 -31q-40 -30 -45 -75h-366q8 179 151 284q144 106 387 106q232 0 375 -106
q142 -106 142 -277v-769h-400v152h-8q-43 -80 -136 -125q-87 -43 -190 -43q-158 0 -267 95zM464 1275l232 321h347l-265 -321h-314z" />
    <glyph glyph-name="acircumflex" unicode="&#xe2;" horiz-adv-x="1231" 
d="M695 297q55 39 55 101v74l-181 -13q-128 -9 -128 -101q0 -46 35 -73q34 -26 92 -26q74 0 127 38zM149 79q-112 99 -112 248q0 322 465 350l248 15v57q0 56 -39 88q-38 31 -100 31q-63 0 -105 -31q-40 -30 -45 -75h-366q8 179 151 284q144 106 387 106q232 0 375 -106
q142 -106 142 -277v-769h-400v152h-8q-43 -80 -136 -125q-87 -43 -190 -43q-158 0 -267 95zM1041 1256h-284l-124 180h-8l-124 -180h-284l255 336h314z" />
    <glyph glyph-name="atilde" unicode="&#xe3;" horiz-adv-x="1231" 
d="M695 297q55 39 55 101v74l-181 -13q-128 -9 -128 -101q0 -46 35 -73q34 -26 92 -26q74 0 127 38zM149 79q-112 99 -112 248q0 322 465 350l248 15v57q0 56 -39 88q-38 31 -100 31q-63 0 -105 -31q-40 -30 -45 -75h-366q8 179 151 284q144 106 387 106q232 0 375 -106
q142 -106 142 -277v-769h-400v152h-8q-43 -80 -136 -125q-87 -43 -190 -43q-158 0 -267 95zM619 1318q-80 59 -105 59q-63 0 -69 -101h-201q0 135 75 217q71 76 176 76q83 0 163 -59q80 -60 105 -60q64 0 69 106h201q0 -135 -75 -219q-71 -79 -176 -79q-83 0 -163 60z" />
    <glyph glyph-name="adieresis" unicode="&#xe4;" horiz-adv-x="1231" 
d="M695 297q55 39 55 101v74l-181 -13q-128 -9 -128 -101q0 -46 35 -73q34 -26 92 -26q74 0 127 38zM149 79q-112 99 -112 248q0 322 465 350l248 15v57q0 56 -39 88q-38 31 -100 31q-63 0 -105 -31q-40 -30 -45 -75h-366q8 179 151 284q144 106 387 106q232 0 375 -106
q142 -106 142 -277v-769h-400v152h-8q-43 -80 -136 -125q-87 -43 -190 -43q-158 0 -267 95zM294 1300q-45 44 -45 106q0 63 45 106q45 44 113 44t114 -44q44 -43 44 -106q0 -62 -44 -106q-46 -44 -114 -44t-113 44zM738 1300q-45 44 -45 106q0 63 45 106q45 44 113 44
t114 -44q44 -43 44 -106q0 -62 -44 -106q-46 -44 -114 -44t-113 44z" />
    <glyph glyph-name="aring" unicode="&#xe5;" horiz-adv-x="1231" 
d="M695 297q55 39 55 101v74l-181 -13q-128 -9 -128 -101q0 -46 35 -73q34 -26 92 -26q74 0 127 38zM149 79q-112 99 -112 248q0 322 465 350l248 15v57q0 56 -39 88q-38 31 -100 31q-63 0 -105 -31q-40 -30 -45 -75h-366q8 179 151 284q144 106 387 106q232 0 375 -106
q142 -106 142 -277v-769h-400v152h-8q-43 -80 -136 -125q-87 -43 -190 -43q-158 0 -267 95zM458 1304q-73 70 -73 166q0 97 73 167q72 69 171 69t171 -69q72 -70 72 -167t-72 -166t-171 -69t-171 69zM691 1411q26 25 26 59q0 35 -26 61q-27 25 -62 25t-62 -25
q-26 -26 -26 -61q0 -34 26 -59q27 -25 62 -25t62 25z" />
    <glyph glyph-name="ae" unicode="&#xe6;" horiz-adv-x="1918" 
d="M1055 24q-111 51 -165 138h-8q-109 -178 -404 -178q-196 0 -319 97q-122 95 -122 246q0 323 465 350l248 15v57q0 55 -38 87q-37 32 -101 32q-61 0 -102 -29q-42 -30 -48 -77h-366q7 179 148 285q139 105 360 105q235 0 353 -123h8q121 123 339 123q255 0 410 -155
q154 -155 154 -411v-111h-747v-26q0 -86 55 -140q55 -55 141 -55q139 0 180 109h366q-26 -181 -174 -286q-149 -105 -378 -105q-141 0 -255 52zM1182 821q-50 -48 -56 -123h358q-5 78 -54 125q-49 46 -125 46q-73 0 -123 -48zM698 299q52 40 52 99v74l-181 -13
q-128 -9 -128 -101q0 -46 34 -72q34 -27 93 -27q77 0 130 40z" />
    <glyph glyph-name="ccedilla" unicode="&#xe7;" horiz-adv-x="1223" 
d="M804 662q-7 85 -51 135q-45 49 -114 49q-85 0 -130 -73t-45 -210q0 -285 175 -285q72 0 115 47q44 46 50 130h373q-4 -208 -128 -334t-340 -146l-33 -64q72 0 117 -46t45 -122q0 -195 -263 -195q-94 0 -133 15v141q38 -12 99 -12q94 0 94 37q0 26 -22 36t-78 10h-56v127
l43 78q-223 31 -347 183q-126 154 -126 400q0 274 157 432q156 157 426 157q244 0 392 -132q149 -133 153 -358h-373z" />
    <glyph glyph-name="egrave" unicode="&#xe8;" horiz-adv-x="1243" 
d="M507 821q-50 -48 -56 -123h358q-5 78 -54 125q-49 46 -125 46q-73 0 -123 -48zM1187 363q-26 -181 -174 -286q-149 -105 -378 -105q-275 0 -431 155q-155 155 -155 429q0 275 155 436q154 160 418 160q260 0 415 -154t155 -412v-111h-747v-26q0 -86 55 -140
q55 -55 141 -55q140 0 180 109h366zM481 1275l-265 321h347l232 -321h-314z" />
    <glyph glyph-name="eacute" unicode="&#xe9;" horiz-adv-x="1243" 
d="M507 821q-50 -48 -56 -123h358q-5 78 -54 125q-49 46 -125 46q-73 0 -123 -48zM1187 363q-26 -181 -174 -286q-149 -105 -378 -105q-275 0 -431 155q-155 155 -155 429q0 275 155 436q154 160 418 160q260 0 415 -154t155 -412v-111h-747v-26q0 -86 55 -140
q55 -55 141 -55q140 0 180 109h366zM456 1275l232 321h347l-265 -321h-314z" />
    <glyph glyph-name="ecircumflex" unicode="&#xea;" horiz-adv-x="1243" 
d="M507 821q-50 -48 -56 -123h358q-5 78 -54 125q-49 46 -125 46q-73 0 -123 -48zM1187 363q-26 -181 -174 -286q-149 -105 -378 -105q-275 0 -431 155q-155 155 -155 429q0 275 155 436q154 160 418 160q260 0 415 -154t155 -412v-111h-747v-26q0 -86 55 -140
q55 -55 141 -55q140 0 180 109h366zM1033 1256h-284l-124 180h-8l-124 -180h-284l255 336h314z" />
    <glyph glyph-name="edieresis" unicode="&#xeb;" horiz-adv-x="1243" 
d="M507 821q-50 -48 -56 -123h358q-5 78 -54 125q-49 46 -125 46q-73 0 -123 -48zM1187 363q-26 -181 -174 -286q-149 -105 -378 -105q-275 0 -431 155q-155 155 -155 429q0 275 155 436q154 160 418 160q260 0 415 -154t155 -412v-111h-747v-26q0 -86 55 -140
q55 -55 141 -55q140 0 180 109h366zM286 1300q-45 44 -45 106q0 63 45 106q45 44 113 44t114 -44q44 -43 44 -106q0 -62 -44 -106q-46 -44 -114 -44t-113 44zM730 1300q-45 44 -45 106q0 63 45 106q45 44 113 44t114 -44q44 -43 44 -106q0 -62 -44 -106q-46 -44 -114 -44
t-113 44z" />
    <glyph glyph-name="igrave" unicode="&#xec;" horiz-adv-x="570" 
d="M80 1124h410v-1124h-410v1124zM145 1275l-265 321h347l232 -321h-314z" />
    <glyph glyph-name="iacute" unicode="&#xed;" horiz-adv-x="570" 
d="M79 1124h410v-1124h-410v1124zM119 1275l232 321h347l-265 -321h-314z" />
    <glyph glyph-name="icircumflex" unicode="&#xee;" horiz-adv-x="570" 
d="M80 1124h410v-1124h-410v1124zM697 1256h-284l-124 180h-8l-124 -180h-284l255 336h314z" />
    <glyph glyph-name="idieresis" unicode="&#xef;" horiz-adv-x="570" 
d="M80 1124h410v-1124h-410v1124zM-50 1300q-45 44 -45 106q0 63 45 106q45 44 113 44t114 -44q44 -43 44 -106q0 -62 -44 -106q-46 -44 -114 -44t-113 44zM394 1300q-45 44 -45 106q0 63 45 106q45 44 113 44t114 -44q44 -43 44 -106q0 -62 -44 -106q-46 -44 -114 -44
t-113 44z" />
    <glyph glyph-name="eth" unicode="&#xf0;" horiz-adv-x="1365" 
d="M239 140q-165 157 -165 410q0 226 135 366q129 134 329 134q159 0 247 -90h20q-40 107 -161 224l-291 -99l-76 168l225 77q-98 70 -283 178h520q44 -30 92 -67l280 96l80 -169l-201 -68q279 -291 279 -669q0 -295 -170 -473q-167 -174 -435 -174q-261 0 -425 156z
M543 728q-49 -67 -49 -181q0 -115 49 -181q48 -66 134 -66t135 65q49 66 49 181t-49 181q-50 67 -135 67t-134 -66z" />
    <glyph glyph-name="ntilde" unicode="&#xf1;" horiz-adv-x="1319" 
d="M79 1124h400v-220h8q88 242 355 242q189 0 295 -112t106 -314v-720h-410v629q0 87 -45 136q-46 50 -126 50q-76 0 -125 -52q-48 -53 -48 -134v-629h-410v1124zM649 1318q-80 59 -105 59q-63 0 -69 -101h-201q0 135 75 217q71 76 176 76q83 0 163 -59q80 -60 105 -60
q64 0 69 106h201q0 -135 -75 -219q-71 -79 -176 -79q-83 0 -163 60z" />
    <glyph glyph-name="ograve" unicode="&#xf2;" horiz-adv-x="1278" 
d="M207 125q-158 156 -158 438q0 275 160 433q158 156 429 156q273 0 430 -155q159 -158 159 -434q0 -283 -157 -438q-155 -153 -432 -153q-276 0 -431 153zM765 342q46 78 46 220q0 139 -47 218q-46 78 -126 78t-126 -78q-47 -79 -47 -218q0 -142 46 -220q45 -76 127 -76
q81 0 127 76zM498 1275l-265 321h347l232 -321h-314z" />
    <glyph glyph-name="oacute" unicode="&#xf3;" horiz-adv-x="1278" 
d="M207 125q-158 156 -158 438q0 275 160 433q158 156 429 156q273 0 430 -155q159 -158 159 -434q0 -283 -157 -438q-155 -153 -432 -153q-276 0 -431 153zM765 342q46 78 46 220q0 139 -47 218q-46 78 -126 78t-126 -78q-47 -79 -47 -218q0 -142 46 -220q45 -76 127 -76
q81 0 127 76zM473 1275l232 321h347l-265 -321h-314z" />
    <glyph glyph-name="ocircumflex" unicode="&#xf4;" horiz-adv-x="1278" 
d="M207 125q-158 156 -158 438q0 275 160 433q158 156 429 156q273 0 430 -155q159 -158 159 -434q0 -283 -157 -438q-155 -153 -432 -153q-276 0 -431 153zM765 342q46 78 46 220q0 139 -47 218q-46 78 -126 78t-126 -78q-47 -79 -47 -218q0 -142 46 -220q45 -76 127 -76
q81 0 127 76zM1050 1256h-284l-124 180h-8l-124 -180h-284l255 336h314z" />
    <glyph glyph-name="otilde" unicode="&#xf5;" horiz-adv-x="1278" 
d="M207 125q-158 156 -158 438q0 275 160 433q158 156 429 156q273 0 430 -155q159 -158 159 -434q0 -283 -157 -438q-155 -153 -432 -153q-276 0 -431 153zM765 342q46 78 46 220q0 139 -47 218q-46 78 -126 78t-126 -78q-47 -79 -47 -218q0 -142 46 -220q45 -76 127 -76
q81 0 127 76zM628 1318q-80 59 -105 59q-63 0 -69 -101h-201q0 135 75 217q71 76 176 76q83 0 163 -59q80 -60 105 -60q64 0 69 106h201q0 -135 -75 -219q-71 -79 -176 -79q-83 0 -163 60z" />
    <glyph glyph-name="odieresis" unicode="&#xf6;" horiz-adv-x="1278" 
d="M207 125q-158 156 -158 438q0 275 160 433q158 156 429 156q273 0 430 -155q159 -158 159 -434q0 -283 -157 -438q-155 -153 -432 -153q-276 0 -431 153zM765 342q46 78 46 220q0 139 -47 218q-46 78 -126 78t-126 -78q-47 -79 -47 -218q0 -142 46 -220q45 -76 127 -76
q81 0 127 76zM303 1300q-45 44 -45 106q0 63 45 106q45 44 113 44t114 -44q44 -43 44 -106q0 -62 -44 -106q-46 -44 -114 -44t-113 44zM747 1300q-45 44 -45 106q0 63 45 106q45 44 113 44t114 -44q44 -43 44 -106q0 -62 -44 -106q-46 -44 -114 -44t-113 44z" />
    <glyph glyph-name="divide" unicode="&#xf7;" horiz-adv-x="1413" 
d="M554 870q-57 53 -57 139q0 87 57 140q57 52 152 52t152 -52q57 -53 57 -140t-57 -139q-57 -53 -152 -53q-94 0 -152 53zM554 28q-57 53 -57 139q0 87 57 140q57 52 152 52t152 -52q57 -53 57 -140t-57 -139q-57 -53 -152 -53q-94 0 -152 53zM135 444v288h1141v-288h-1141
z" />
    <glyph glyph-name="oslash" unicode="&#xf8;" horiz-adv-x="1278" 
d="M560 289q35 -23 78 -23q81 0 127 76q46 78 46 220q0 73 -14 132zM730 822q-37 36 -92 36q-80 0 -126 -78q-47 -79 -47 -218q0 -96 21 -162zM1005 1049q222 -154 222 -486q0 -283 -157 -438q-155 -153 -432 -153q-132 0 -241 37l-65 -111l-103 58l60 104
q-240 151 -240 503q0 275 160 433q158 156 429 156q145 0 257 -45l64 110l112 -54z" />
    <glyph glyph-name="ugrave" unicode="&#xf9;" horiz-adv-x="1319" 
d="M1238 0h-400v220h-8q-34 -114 -123 -178q-90 -64 -216 -64q-185 0 -299 112q-118 117 -118 313v721h410v-629q0 -88 50 -138q47 -48 125 -48q73 0 121 51q48 52 48 135v629h410v-1124zM519 1275l-265 321h347l232 -321h-314z" />
    <glyph glyph-name="uacute" unicode="&#xfa;" horiz-adv-x="1319" 
d="M1238 0h-400v220h-8q-34 -114 -123 -178q-90 -64 -216 -64q-185 0 -299 112q-118 117 -118 313v721h410v-629q0 -88 50 -138q47 -48 125 -48q73 0 121 51q48 52 48 135v629h410v-1124zM494 1275l232 321h347l-265 -321h-314z" />
    <glyph glyph-name="ucircumflex" unicode="&#xfb;" horiz-adv-x="1319" 
d="M1238 0h-400v220h-8q-34 -114 -123 -178q-90 -64 -216 -64q-185 0 -299 112q-118 117 -118 313v721h410v-629q0 -88 50 -138q47 -48 125 -48q73 0 121 51q48 52 48 135v629h410v-1124zM1071 1256h-284l-124 180h-8l-124 -180h-284l255 336h314z" />
    <glyph glyph-name="udieresis" unicode="&#xfc;" horiz-adv-x="1319" 
d="M1238 0h-400v220h-8q-34 -114 -123 -178q-90 -64 -216 -64q-185 0 -299 112q-118 117 -118 313v721h410v-629q0 -88 50 -138q47 -48 125 -48q73 0 121 51q48 52 48 135v629h410v-1124zM324 1300q-45 44 -45 106q0 63 45 106q45 44 113 44t114 -44q44 -43 44 -106
q0 -62 -44 -106q-46 -44 -114 -44t-113 44zM768 1300q-45 44 -45 106q0 63 45 106q45 44 113 44t114 -44q44 -43 44 -106q0 -62 -44 -106q-46 -44 -114 -44t-113 44z" />
    <glyph glyph-name="yacute" unicode="&#xfd;" horiz-adv-x="1246" 
d="M122 -412v306h60q189 0 192 74v20l-374 1136h455l175 -828h8l175 828h433l-339 -1101q-72 -233 -221 -334t-418 -101h-146zM458 1275l232 321h347l-265 -321h-314z" />
    <glyph glyph-name="thorn" unicode="&#xfe;" horiz-adv-x="1335" 
d="M1164 991q115 -150 115 -429q0 -278 -114 -428q-113 -150 -323 -150q-250 0 -328 190h-20v-506h-410v1840h410v-566h20q81 198 323 198q213 0 327 -149zM811 370q48 69 48 192q0 122 -49 192t-134 70t-134 -70t-50 -193q1 -124 49 -192q49 -69 135 -69t135 70z" />
    <glyph glyph-name="ydieresis" unicode="&#xff;" horiz-adv-x="1246" 
d="M122 -412v306h60q189 0 192 74v20l-374 1136h455l175 -828h8l175 828h433l-339 -1101q-72 -233 -221 -334t-418 -101h-146zM288 1300q-45 44 -45 106q0 63 45 106q45 44 113 44t114 -44q44 -43 44 -106q0 -62 -44 -106q-46 -44 -114 -44t-113 44zM732 1300
q-45 44 -45 106q0 63 45 106q45 44 113 44t114 -44q44 -43 44 -106q0 -62 -44 -106q-46 -44 -114 -44t-113 44z" />
    <glyph glyph-name="Amacron" unicode="&#x100;" horiz-adv-x="1534" 
d="M976 287h-440l-75 -287h-432l471 1443h532l471 -1443h-452zM613 586h286l-139 524h-8zM1140 1606h-748v180h748v-180z" />
    <glyph glyph-name="amacron" unicode="&#x101;" horiz-adv-x="1231" 
d="M695 297q55 39 55 101v74l-181 -13q-128 -9 -128 -101q0 -46 35 -73q34 -26 92 -26q74 0 127 38zM149 79q-112 99 -112 248q0 322 465 350l248 15v57q0 56 -39 88q-38 31 -100 31q-63 0 -105 -31q-40 -30 -45 -75h-366q8 179 151 284q144 106 387 106q232 0 375 -106
q142 -106 142 -277v-769h-400v152h-8q-43 -80 -136 -125q-87 -43 -190 -43q-158 0 -267 95zM981 1276h-704v180h704v-180z" />
    <glyph glyph-name="Abreve" unicode="&#x102;" horiz-adv-x="1534" 
d="M976 287h-440l-75 -287h-432l471 1443h532l471 -1443h-452zM613 586h286l-139 524h-8zM607 1870q3 -67 44 -106q42 -42 115 -42t116 42q40 39 43 106h236q-5 -142 -105 -234q-109 -100 -290 -100t-290 100q-100 92 -105 234h236z" />
    <glyph glyph-name="abreve" unicode="&#x103;" horiz-adv-x="1231" 
d="M695 297q55 39 55 101v74l-181 -13q-128 -9 -128 -101q0 -46 35 -73q34 -26 92 -26q74 0 127 38zM149 79q-112 99 -112 248q0 322 465 350l248 15v57q0 56 -39 88q-38 31 -100 31q-63 0 -105 -31q-40 -30 -45 -75h-366q8 179 151 284q144 106 387 106q232 0 375 -106
q142 -106 142 -277v-769h-400v152h-8q-43 -80 -136 -125q-87 -43 -190 -43q-158 0 -267 95zM470 1590q3 -67 44 -106q42 -42 115 -42t116 42q40 39 43 106h236q-5 -142 -105 -234q-109 -100 -290 -100t-290 100q-100 92 -105 234h236z" />
    <glyph glyph-name="Aogonek" unicode="&#x104;" horiz-adv-x="1534" 
d="M1107 -410q-74 63 -74 164q0 156 166 246h-148l-75 287h-440l-75 -287h-432l471 1443h532l471 -1443h-106q-127 -71 -127 -174q0 -44 32 -72q31 -28 81 -28q30 0 72 8v-185q-60 -23 -157 -23q-117 0 -191 64zM613 586h286l-139 524h-8z" />
    <glyph glyph-name="aogonek" unicode="&#x105;" horiz-adv-x="1231" 
d="M801 -410q-74 63 -74 164q0 154 166 246h-143v152h-8q-41 -77 -130 -122q-89 -46 -196 -46q-161 0 -270 98q-109 99 -109 245q0 323 465 350l248 15v57q0 55 -38 87q-37 32 -101 32q-61 0 -102 -29q-42 -30 -48 -77h-366q8 180 152 285q145 105 386 105q232 0 374 -106
q143 -105 143 -277v-769h-59q-127 -71 -127 -174q0 -44 32 -72q31 -28 81 -28q34 0 72 8v-185q-60 -23 -157 -23q-117 0 -191 64zM698 299q52 40 52 99v74l-181 -13q-128 -9 -128 -101q0 -46 34 -72q34 -27 93 -27q77 0 130 40z" />
    <glyph glyph-name="Cacute" unicode="&#x106;" horiz-adv-x="1513" 
d="M256 170q-192 198 -192 552t193 552q189 194 523 194q288 0 478 -169q191 -171 192 -437h-406q-7 123 -81 198q-72 75 -183 75q-131 0 -207 -109q-77 -111 -77 -303q0 -195 77 -305q75 -110 208 -110q110 0 182 74q73 75 83 200h406q-1 -269 -191 -438
q-188 -169 -481 -169q-334 0 -524 195zM590 1555l232 321h348l-274 -321h-306z" />
    <glyph glyph-name="cacute" unicode="&#x107;" horiz-adv-x="1223" 
d="M804 662q-7 85 -51 135q-45 49 -114 49q-85 0 -130 -73t-45 -210q0 -285 175 -285q72 0 115 47q44 46 50 130h373q-4 -226 -149 -355q-145 -128 -394 -128q-273 0 -429 157t-156 434q0 274 157 432q156 157 426 157q244 0 392 -132q149 -133 153 -358h-373zM441 1275
l232 321h347l-265 -321h-314z" />
    <glyph glyph-name="Ccircumflex" unicode="&#x108;" horiz-adv-x="1513" 
d="M256 170q-192 198 -192 552t193 552q189 194 523 194q288 0 478 -169q191 -171 192 -437h-406q-7 123 -81 198q-72 75 -183 75q-131 0 -207 -109q-77 -111 -77 -303q0 -195 77 -305q75 -110 208 -110q110 0 182 74q73 75 83 200h406q-1 -269 -191 -438
q-188 -169 -481 -169q-334 0 -524 195zM913 1872l255 -336h-276l-132 192h-8l-132 -192h-276l255 336h314z" />
    <glyph glyph-name="ccircumflex" unicode="&#x109;" horiz-adv-x="1223" 
d="M804 662q-7 85 -51 135q-45 49 -114 49q-85 0 -130 -73t-45 -210q0 -285 175 -285q72 0 115 47q44 46 50 130h373q-4 -226 -149 -355q-145 -128 -394 -128q-273 0 -429 157t-156 434q0 274 157 432q156 157 426 157q244 0 392 -132q149 -133 153 -358h-373zM1018 1256
h-284l-124 180h-8l-124 -180h-284l255 336h314z" />
    <glyph glyph-name="Cdotaccent" unicode="&#x10a;" horiz-adv-x="1513" 
d="M256 170q-192 198 -192 552t193 552q189 194 523 194q288 0 478 -169q191 -171 192 -437h-406q-7 123 -81 198q-72 75 -183 75q-131 0 -207 -109q-77 -111 -77 -303q0 -195 77 -305q75 -110 208 -110q110 0 182 74q73 75 83 200h406q-1 -269 -191 -438
q-188 -169 -481 -169q-334 0 -524 195zM630 1588q-51 52 -51 125t51 124q51 52 126 52t126 -52q51 -51 51 -124t-51 -125q-52 -52 -126 -52t-126 52z" />
    <glyph glyph-name="cdotaccent" unicode="&#x10b;" horiz-adv-x="1223" 
d="M804 662q-7 85 -51 135q-45 49 -114 49q-85 0 -130 -73t-45 -210q0 -285 175 -285q72 0 115 47q44 46 50 130h373q-4 -226 -149 -355q-145 -128 -394 -128q-273 0 -429 157t-156 434q0 274 157 432q156 157 426 157q244 0 392 -132q149 -133 153 -358h-373zM478 1315
q-51 50 -51 122t51 122q51 51 126 51t126 -51q51 -50 51 -122t-51 -122q-51 -51 -126 -51t-126 51z" />
    <glyph glyph-name="Ccaron" unicode="&#x10c;" horiz-adv-x="1513" 
d="M256 170q-192 198 -192 552t193 552q189 194 523 194q288 0 478 -169q191 -171 192 -437h-406q-7 123 -81 198q-72 75 -183 75q-131 0 -207 -109q-77 -111 -77 -303q0 -195 77 -305q75 -110 208 -110q110 0 182 74q73 75 83 200h406q-1 -269 -191 -438
q-188 -169 -481 -169q-334 0 -524 195zM344 1872h276l132 -192h8l132 192h276l-255 -336h-314z" />
    <glyph glyph-name="ccaron" unicode="&#x10d;" horiz-adv-x="1223" 
d="M804 662q-7 85 -51 135q-45 49 -114 49q-85 0 -130 -73t-45 -210q0 -285 175 -285q72 0 115 47q44 46 50 130h373q-4 -226 -149 -355q-145 -128 -394 -128q-273 0 -429 157t-156 434q0 274 157 432q156 157 426 157q244 0 392 -132q149 -133 153 -358h-373zM449 1256
l-255 336h284l124 -180h8l124 180h284l-255 -336h-314z" />
    <glyph glyph-name="Dcaron" unicode="&#x10e;" horiz-adv-x="1477" 
d="M716 1443q331 0 512 -182q183 -185 183 -529q0 -346 -184 -539q-183 -193 -511 -193h-617v1443h617zM523 337h133q323 0 323 395q0 181 -85 278q-84 96 -238 96h-133v-769zM326 1872h276l132 -192h8l132 192h276l-255 -336h-314z" />
    <glyph glyph-name="dcaron" unicode="&#x10f;" horiz-adv-x="1591" 
d="M1690 1508l-50 -518h-243v518h293zM165 137q-116 154 -116 428q0 271 118 423t328 152q120 0 211 -62q86 -59 120 -156h8v596h410v-1518h-410v194h-8q-29 -91 -120 -149q-94 -61 -217 -61q-208 0 -324 153zM518 753q-49 -69 -49 -191q0 -123 48 -192q49 -69 135 -69
q87 0 136 69q48 68 48 191q0 122 -49 192t-135 70q-85 0 -134 -70z" />
    <glyph glyph-name="Dcroat" unicode="&#x110;" horiz-adv-x="1503" 
d="M682 337q323 0 323 395q0 181 -85 278q-84 96 -238 96h-133v-246h253v-279h-253v-244h133zM742 1443q331 0 512 -182q183 -185 183 -529q0 -346 -184 -539q-183 -193 -511 -193h-617v581h-46v279h46v583h617z" />
    <glyph glyph-name="dcroat" unicode="&#x111;" horiz-adv-x="1380" 
d="M813 369q48 69 48 192t-49 193t-135 70q-85 0 -134 -70t-49 -192q0 -123 48 -192q49 -70 135 -70q87 0 136 69zM1333 1237h-64v-1237h-410v174h-20q-81 -190 -325 -190q-207 0 -323 153q-117 153 -117 428q0 272 118 424q118 151 328 151q111 0 196 -52q83 -53 123 -146
h20v295h-186v176h186v135h410v-135h64v-176z" />
    <glyph glyph-name="Emacron" unicode="&#x112;" horiz-adv-x="1216" 
d="M1117 0h-1018v1443h1018v-337h-594v-233h557v-304h-557v-232h594v-337zM981 1606h-748v180h748v-180z" />
    <glyph glyph-name="emacron" unicode="&#x113;" horiz-adv-x="1243" 
d="M507 821q-50 -48 -56 -123h358q-5 78 -54 125q-49 46 -125 46q-73 0 -123 -48zM1187 363q-26 -181 -174 -286q-149 -105 -378 -105q-275 0 -431 155q-155 155 -155 429q0 275 155 436q154 160 418 160q260 0 415 -154t155 -412v-111h-747v-26q0 -86 55 -140
q55 -55 141 -55q140 0 180 109h366zM973 1276h-704v180h704v-180z" />
    <glyph glyph-name="Ebreve" unicode="&#x114;" horiz-adv-x="1216" 
d="M1117 0h-1018v1443h1018v-337h-594v-233h557v-304h-557v-232h594v-337zM448 1870q3 -67 44 -106q42 -42 115 -42t116 42q40 39 43 106h236q-5 -142 -105 -234q-109 -100 -290 -100t-290 100q-100 92 -105 234h236z" />
    <glyph glyph-name="ebreve" unicode="&#x115;" horiz-adv-x="1243" 
d="M507 821q-50 -48 -56 -123h358q-5 78 -54 125q-49 46 -125 46q-73 0 -123 -48zM1187 363q-26 -181 -174 -286q-149 -105 -378 -105q-275 0 -431 155q-155 155 -155 429q0 275 155 436q154 160 418 160q260 0 415 -154t155 -412v-111h-747v-26q0 -86 55 -140
q55 -55 141 -55q140 0 180 109h366zM462 1590q3 -67 44 -106q42 -42 115 -42t116 42q40 39 43 106h236q-5 -142 -105 -234q-109 -100 -290 -100t-290 100q-100 92 -105 234h236z" />
    <glyph glyph-name="Edotaccent" unicode="&#x116;" horiz-adv-x="1216" 
d="M1117 0h-1018v1443h1018v-337h-594v-233h557v-304h-557v-232h594v-337zM481 1588q-51 52 -51 125t51 124q51 52 126 52t126 -52q51 -51 51 -124t-51 -125q-52 -52 -126 -52t-126 52z" />
    <glyph glyph-name="edotaccent" unicode="&#x117;" horiz-adv-x="1243" 
d="M507 821q-50 -48 -56 -123h358q-5 78 -54 125q-49 46 -125 46q-73 0 -123 -48zM1187 363q-26 -181 -174 -286q-149 -105 -378 -105q-275 0 -431 155q-155 155 -155 429q0 275 155 436q154 160 418 160q260 0 415 -154t155 -412v-111h-747v-26q0 -86 55 -140
q55 -55 141 -55q140 0 180 109h366zM493 1315q-51 50 -51 122t51 122q51 51 126 51t126 -51q51 -50 51 -122t-51 -122q-51 -51 -126 -51t-126 51z" />
    <glyph glyph-name="Eogonek" unicode="&#x118;" horiz-adv-x="1216" 
d="M99 0v1443h1018v-337h-594v-233h557v-304h-557v-232h594v-317q-182 -84 -182 -201q0 -42 31 -67q30 -26 82 -26q34 0 69 8v-185q-60 -23 -154 -23q-121 0 -194 60q-73 59 -73 158q0 168 168 256h-765z" />
    <glyph glyph-name="eogonek" unicode="&#x119;" horiz-adv-x="1243" 
d="M567 -423q-71 56 -71 152q0 153 145 243h-6q-275 0 -431 155q-155 155 -155 429q0 275 155 436q154 160 418 160q260 0 415 -154t155 -412v-111h-747v-26q0 -86 55 -140q55 -55 141 -55q139 0 180 109h366q-22 -178 -242 -331q-126 -85 -147 -104q-65 -56 -65 -114
q0 -42 31 -67q30 -26 82 -26q32 0 72 8v-185q-60 -23 -157 -23q-122 0 -194 56zM507 821q-50 -48 -56 -123h358q-5 78 -54 125q-49 46 -125 46q-73 0 -123 -48z" />
    <glyph glyph-name="Ecaron" unicode="&#x11a;" horiz-adv-x="1216" 
d="M1117 0h-1018v1443h1018v-337h-594v-233h557v-304h-557v-232h594v-337zM195 1872h276l132 -192h8l132 192h276l-255 -336h-314z" />
    <glyph glyph-name="ecaron" unicode="&#x11b;" horiz-adv-x="1243" 
d="M507 821q-50 -48 -56 -123h358q-5 78 -54 125q-49 46 -125 46q-73 0 -123 -48zM1187 363q-26 -181 -174 -286q-149 -105 -378 -105q-275 0 -431 155q-155 155 -155 429q0 275 155 436q154 160 418 160q260 0 415 -154t155 -412v-111h-747v-26q0 -86 55 -140
q55 -55 141 -55q140 0 180 109h366zM464 1256l-255 336h284l124 -180h8l124 180h284l-255 -336h-314z" />
    <glyph glyph-name="Gcircumflex" unicode="&#x11c;" horiz-adv-x="1530" 
d="M1461 614q0 -297 -177 -468q-178 -171 -491 -171q-345 0 -536 194q-193 196 -193 554q0 353 191 550q189 195 525 195q270 0 456 -143q184 -143 208 -366h-417q-21 80 -87 127q-67 48 -158 48q-135 0 -210 -106q-76 -107 -76 -299q0 -196 84 -309q82 -111 223 -111
q103 0 171 53t77 140l2 20h-220v282h628v-190zM912 1872l255 -336h-276l-132 192h-8l-132 -192h-276l255 336h314z" />
    <glyph glyph-name="gcircumflex" unicode="&#x11d;" horiz-adv-x="1325" 
d="M788 375q48 64 48 186t-49 192t-135 70q-85 0 -134 -70q-49 -69 -49 -191t48 -187q48 -64 135 -64q88 0 136 64zM236 -326q-156 96 -160 258h394q9 -41 60 -66q50 -25 118 -25q84 0 134 39q52 41 52 110v224h-8q-29 -89 -120 -144q-92 -56 -217 -56q-201 0 -319 144
q-121 147 -121 407q0 271 118 423t328 152q120 0 211 -62q86 -59 120 -156h8v202h410v-1104q0 -199 -165 -320t-435 -121q-253 0 -408 95zM1074 1256h-284l-124 180h-8l-124 -180h-284l255 336h314z" />
    <glyph glyph-name="Gbreve" unicode="&#x11e;" horiz-adv-x="1530" 
d="M1461 614q0 -297 -177 -468q-178 -171 -491 -171q-345 0 -536 194q-193 196 -193 554q0 353 191 550q189 195 525 195q270 0 456 -143q184 -143 208 -366h-417q-21 80 -87 127q-67 48 -158 48q-135 0 -210 -106q-76 -107 -76 -299q0 -196 84 -309q82 -111 223 -111
q103 0 171 53t77 140l2 20h-220v282h628v-190zM596 1870q3 -67 44 -106q42 -42 115 -42t116 42q40 39 43 106h236q-5 -142 -105 -234q-109 -100 -290 -100t-290 100q-100 92 -105 234h236z" />
    <glyph glyph-name="gbreve" unicode="&#x11f;" horiz-adv-x="1325" 
d="M788 375q48 64 48 186t-49 192t-135 70q-85 0 -134 -70q-49 -69 -49 -191t48 -187q48 -64 135 -64q88 0 136 64zM236 -326q-156 96 -160 258h394q9 -41 60 -66q50 -25 118 -25q84 0 134 39q52 41 52 110v224h-8q-29 -89 -120 -144q-92 -56 -217 -56q-201 0 -319 144
q-121 147 -121 407q0 271 118 423t328 152q120 0 211 -62q86 -59 120 -156h8v202h410v-1104q0 -199 -165 -320t-435 -121q-253 0 -408 95zM503 1590q3 -67 44 -106q42 -42 115 -42t116 42q40 39 43 106h236q-5 -142 -105 -234q-109 -100 -290 -100t-290 100
q-100 92 -105 234h236z" />
    <glyph glyph-name="Gdotaccent" unicode="&#x120;" horiz-adv-x="1530" 
d="M1461 614q0 -297 -177 -468q-178 -171 -491 -171q-345 0 -536 194q-193 196 -193 554q0 353 191 550q189 195 525 195q270 0 456 -143q184 -143 208 -366h-417q-21 80 -87 127q-67 48 -158 48q-135 0 -210 -106q-76 -107 -76 -299q0 -196 84 -309q82 -111 223 -111
q103 0 171 53t77 140l2 20h-220v282h628v-190zM629 1588q-51 52 -51 125t51 124q51 52 126 52t126 -52q51 -51 51 -124t-51 -125q-52 -52 -126 -52t-126 52z" />
    <glyph glyph-name="gdotaccent" unicode="&#x121;" horiz-adv-x="1325" 
d="M788 375q48 64 48 186t-49 192t-135 70q-85 0 -134 -70q-49 -69 -49 -191t48 -187q48 -64 135 -64q88 0 136 64zM236 -326q-156 96 -160 258h394q9 -41 60 -66q50 -25 118 -25q84 0 134 39q52 41 52 110v224h-8q-29 -89 -120 -144q-92 -56 -217 -56q-201 0 -319 144
q-121 147 -121 407q0 271 118 423t328 152q120 0 211 -62q86 -59 120 -156h8v202h410v-1104q0 -199 -165 -320t-435 -121q-253 0 -408 95zM534 1315q-51 50 -51 122t51 122q51 51 126 51t126 -51q51 -50 51 -122t-51 -122q-51 -51 -126 -51t-126 51z" />
    <glyph glyph-name="uni0122" unicode="&#x122;" horiz-adv-x="1530" 
d="M1461 614q0 -297 -177 -468q-178 -171 -491 -171q-345 0 -536 194q-193 196 -193 554q0 353 191 550q189 195 525 195q270 0 456 -143q184 -143 208 -366h-417q-21 80 -87 127q-67 48 -158 48q-135 0 -210 -106q-76 -107 -76 -299q0 -196 84 -309q82 -111 223 -111
q103 0 171 53t77 140l2 20h-220v282h628v-190zM418 -457l152 321h359l-203 -321h-308z" />
    <glyph glyph-name="uni0123" unicode="&#x123;" horiz-adv-x="1325" 
d="M788 375q48 64 48 186t-49 192t-135 70q-85 0 -134 -70q-49 -69 -49 -191t48 -187q48 -64 135 -64q88 0 136 64zM236 -326q-156 96 -160 258h394q9 -41 60 -66q50 -25 118 -25q84 0 134 39q52 41 52 110v224h-8q-29 -89 -120 -144q-92 -56 -217 -56q-201 0 -319 144
q-121 147 -121 407q0 271 118 423t328 152q120 0 211 -62q86 -59 120 -156h8v202h410v-1104q0 -199 -165 -320t-435 -121q-253 0 -408 95zM325 -854l152 321h359l-203 -321h-308z" />
    <glyph glyph-name="Hcircumflex" unicode="&#x124;" horiz-adv-x="1556" 
d="M1031 0v558h-508v-558h-424v1443h424v-548h508v548h424v-1443h-424zM934 1872l255 -336h-276l-132 192h-8l-132 -192h-276l255 336h314z" />
    <glyph glyph-name="hcircumflex" unicode="&#x125;" horiz-adv-x="1328" 
d="M85 1518h400v-614h8q42 117 138 180q94 62 223 62q189 0 294 -112t105 -314v-720h-410v629q0 86 -46 136q-47 50 -127 50q-76 0 -126 -52q-49 -53 -49 -134v-629h-410v1518zM445 1947l255 -336h-276l-132 192h-8l-132 -192h-276l255 336h314z" />
    <glyph glyph-name="Hbar" unicode="&#x126;" horiz-adv-x="1639" 
d="M1072 1028h-508v-133h508v133zM1572 1028h-76v-1028h-424v558h-508v-558h-424v1028h-75v279h75v136h424v-136h508v136h424v-136h76v-279z" />
    <glyph glyph-name="hbar" unicode="&#x127;" horiz-adv-x="1378" 
d="M529 934q36 97 133 155q95 57 216 57q187 0 292 -110q107 -112 107 -316v-720h-410v629q0 89 -48 139q-47 48 -125 48q-75 0 -125 -52q-50 -53 -50 -135v-629h-410v1237h-59v176h59v145h400v-145h201v-176h-201v-303h20z" />
    <glyph glyph-name="Itilde" unicode="&#x128;" horiz-adv-x="624" 
d="M100 0v1443h424v-1443h-424zM302 1606q-80 59 -105 59q-63 0 -69 -101h-201q0 135 75 217q71 76 176 76q83 0 163 -59q80 -60 105 -60q64 0 69 106h201q0 -135 -75 -219q-71 -79 -176 -79q-83 0 -163 60z" />
    <glyph glyph-name="itilde" unicode="&#x129;" horiz-adv-x="570" 
d="M80 1124h410v-1124h-410v1124zM275 1318q-80 59 -105 59q-63 0 -69 -101h-201q0 135 75 217q71 76 176 76q83 0 163 -59q80 -60 105 -60q64 0 69 106h201q0 -135 -75 -219q-71 -79 -176 -79q-83 0 -163 60z" />
    <glyph glyph-name="Imacron" unicode="&#x12a;" horiz-adv-x="624" 
d="M100 0v1443h424v-1443h-424zM686 1606h-748v180h748v-180z" />
    <glyph glyph-name="imacron" unicode="&#x12b;" horiz-adv-x="570" 
d="M80 1124h410v-1124h-410v1124zM637 1276h-704v180h704v-180z" />
    <glyph glyph-name="Ibreve" unicode="&#x12c;" horiz-adv-x="624" 
d="M100 0v1443h424v-1443h-424zM153 1870q3 -67 44 -106q42 -42 115 -42t116 42q40 39 43 106h236q-5 -142 -105 -234q-109 -100 -290 -100t-290 100q-100 92 -105 234h236z" />
    <glyph glyph-name="ibreve" unicode="&#x12d;" horiz-adv-x="570" 
d="M80 1124h410v-1124h-410v1124zM126 1590q3 -67 44 -106q42 -42 115 -42t116 42q40 39 43 106h236q-5 -142 -105 -234q-109 -100 -290 -100t-290 100q-100 92 -105 234h236z" />
    <glyph glyph-name="Iogonek" unicode="&#x12e;" horiz-adv-x="624" 
d="M125 -410q-74 63 -74 164q0 154 166 246h-118v1443h424v-1443h-108q-127 -71 -127 -174q0 -44 32 -72q31 -28 81 -28q32 0 72 8v-185q-60 -23 -157 -23q-117 0 -191 64z" />
    <glyph glyph-name="iogonek" unicode="&#x12f;" horiz-adv-x="570" 
d="M139 1245q-60 56 -60 140t60 140q59 55 145 55t145 -55q60 -56 60 -140t-60 -140q-59 -55 -145 -55t-145 55zM140 -410q-74 63 -74 164q0 154 166 246h-153v1124h410v-1124h-59q-127 -71 -127 -174q0 -44 32 -72q31 -28 81 -28q36 0 72 8v-185q-60 -23 -157 -23
q-117 0 -191 64z" />
    <glyph glyph-name="Idotaccent" unicode="&#x130;" horiz-adv-x="624" 
d="M99 0v1443h424v-1443h-424zM185 1588q-51 52 -51 125t51 124q51 52 126 52t126 -52q51 -51 51 -124t-51 -125q-52 -52 -126 -52t-126 52z" />
    <glyph glyph-name="dotlessi" unicode="&#x131;" horiz-adv-x="570" 
d="M79 1124h410v-1124h-410v1124z" />
    <glyph glyph-name="IJ" unicode="&#x132;" horiz-adv-x="1895" 
d="M99 0v1443h424v-1443h-424zM1049 511q0 -85 42 -133q41 -48 114 -48q143 0 143 174v939h424v-942q0 -252 -149 -390q-147 -136 -412 -136q-263 0 -415 143q-153 143 -153 393h406z" />
    <glyph glyph-name="ij" unicode="&#x133;" horiz-adv-x="1140" 
d="M79 1124h410v-1124h-410v1124zM139 1245q-60 56 -60 140t60 140q59 55 145 55t145 -55q60 -56 60 -140t-60 -140q-59 -55 -145 -55t-145 55zM1059 7q0 -171 -119 -266q-118 -95 -332 -95q-77 0 -125 6v286q18 -3 47 -3q119 0 119 90v1099h410v-1117zM709 1245
q-60 56 -60 140t60 140q59 55 145 55t145 -55q60 -56 60 -140t-60 -140q-59 -55 -145 -55t-145 55z" />
    <glyph glyph-name="Jcircumflex" unicode="&#x134;" horiz-adv-x="1271" 
d="M425 511q0 -85 42 -133q41 -48 114 -48q143 0 143 174v939h424v-942q0 -252 -149 -390q-147 -136 -412 -136q-263 0 -415 143q-153 143 -153 393h406zM1102 1872l255 -336h-276l-132 192h-8l-132 -192h-276l255 336h314z" />
    <glyph glyph-name="jcircumflex" unicode="&#x135;" horiz-adv-x="570" 
d="M490 7q0 -171 -119 -266q-118 -95 -332 -95q-77 0 -125 6v286q18 -3 47 -3q119 0 119 90v1099h410v-1117zM697 1256h-284l-124 180h-8l-124 -180h-284l255 336h314z" />
    <glyph glyph-name="uni0136" unicode="&#x136;" horiz-adv-x="1445" 
d="M99 0v1443h424v-612h8l446 612h445l-475 -641l497 -802h-493l-315 530l-113 -152v-378h-424zM385 -457l152 321h359l-203 -321h-308z" />
    <glyph glyph-name="uni0137" unicode="&#x137;" horiz-adv-x="1226" 
d="M782 1124h452l-378 -480l404 -644h-471l-238 399l-57 -74v-325h-410v1518h410v-803h8zM275 -457l152 321h359l-203 -321h-308z" />
    <glyph glyph-name="Lacute" unicode="&#x139;" horiz-adv-x="1150" 
d="M1089 0h-990v1443h424v-1106h566v-337zM144 1555l232 321h348l-274 -321h-306z" />
    <glyph glyph-name="lacute" unicode="&#x13a;" horiz-adv-x="580" 
d="M84 1518h410v-1518h-410v1518zM123 1630l232 321h348l-274 -321h-306z" />
    <glyph glyph-name="uni013B" unicode="&#x13b;" horiz-adv-x="1150" 
d="M1089 0h-990v1443h424v-1106h566v-337zM237 -457l152 321h359l-203 -321h-308z" />
    <glyph glyph-name="uni013C" unicode="&#x13c;" horiz-adv-x="580" 
d="M85 1518h410v-1518h-410v1518zM-47 -457l152 321h359l-203 -321h-308z" />
    <glyph glyph-name="Lcaron" unicode="&#x13d;" horiz-adv-x="1150" 
d="M1081 1443l-50 -518h-272v518h322zM1089 0h-990v1443h424v-1106h566v-337z" />
    <glyph glyph-name="lcaron" unicode="&#x13e;" horiz-adv-x="863" 
d="M942 1508l-50 -518h-243v518h293zM84 1518h410v-1518h-410v1518z" />
    <glyph glyph-name="Lslash" unicode="&#x141;" horiz-adv-x="1182" 
d="M1121 337v-337h-990v573l-72 -39v256l72 39v614h424v-383l250 136v-256l-250 -136v-467h566z" />
    <glyph glyph-name="lslash" unicode="&#x142;" horiz-adv-x="630" 
d="M630 912l-135 -74v-838h-410v613l-85 -47v256l85 47v649h410v-424l135 74v-256z" />
    <glyph glyph-name="Nacute" unicode="&#x143;" horiz-adv-x="1494" 
d="M99 0v1443h329l557 -748h8v748h400v-1443h-325l-561 760h-8v-760h-400zM580 1555l232 321h348l-274 -321h-306z" />
    <glyph glyph-name="nacute" unicode="&#x144;" horiz-adv-x="1319" 
d="M79 1124h400v-220h8q88 242 355 242q189 0 295 -112t106 -314v-720h-410v629q0 87 -45 136q-46 50 -126 50q-76 0 -125 -52q-48 -53 -48 -134v-629h-410v1124zM494 1275l232 321h347l-265 -321h-314z" />
    <glyph glyph-name="uni0145" unicode="&#x145;" horiz-adv-x="1494" 
d="M99 0v1443h329l557 -748h8v748h400v-1443h-325l-561 760h-8v-760h-400zM409 -457l152 321h359l-203 -321h-308z" />
    <glyph glyph-name="uni0146" unicode="&#x146;" horiz-adv-x="1319" 
d="M79 1124h400v-220h8q88 242 355 242q189 0 295 -112t106 -314v-720h-410v629q0 87 -45 136q-46 50 -126 50q-76 0 -125 -52q-48 -53 -48 -134v-629h-410v1124zM322 -457l152 321h359l-203 -321h-308z" />
    <glyph glyph-name="Ncaron" unicode="&#x147;" horiz-adv-x="1494" 
d="M99 0v1443h329l557 -748h8v748h400v-1443h-325l-561 760h-8v-760h-400zM334 1872h276l132 -192h8l132 192h276l-255 -336h-314z" />
    <glyph glyph-name="ncaron" unicode="&#x148;" horiz-adv-x="1319" 
d="M79 1124h400v-220h8q88 242 355 242q189 0 295 -112t106 -314v-720h-410v629q0 87 -45 136q-46 50 -126 50q-76 0 -125 -52q-48 -53 -48 -134v-629h-410v1124zM502 1256l-255 336h284l124 -180h8l124 180h284l-255 -336h-314z" />
    <glyph glyph-name="Omacron" unicode="&#x14c;" horiz-adv-x="1584" 
d="M1322 1267q196 -201 196 -546t-196 -546q-196 -200 -531 -200q-336 0 -531 200q-196 201 -196 546t196 546t531 201t531 -201zM577 1019q-81 -111 -81 -298q0 -186 81 -297q80 -111 214 -111t214 111q81 111 81 297q0 187 -81 298t-214 111t-214 -111zM1165 1606h-748
v180h748v-180z" />
    <glyph glyph-name="omacron" unicode="&#x14d;" horiz-adv-x="1278" 
d="M207 125q-158 156 -158 438q0 275 160 433q158 156 429 156q273 0 430 -155q159 -158 159 -434q0 -283 -157 -438q-155 -153 -432 -153q-276 0 -431 153zM765 342q46 78 46 220q0 139 -47 218q-46 78 -126 78t-126 -78q-47 -79 -47 -218q0 -142 46 -220q45 -76 127 -76
q81 0 127 76zM990 1276h-704v180h704v-180z" />
    <glyph glyph-name="Obreve" unicode="&#x14e;" horiz-adv-x="1584" 
d="M1322 1267q196 -201 196 -546t-196 -546q-196 -200 -531 -200q-336 0 -531 200q-196 201 -196 546t196 546t531 201t531 -201zM577 1019q-81 -111 -81 -298q0 -186 81 -297q80 -111 214 -111t214 111q81 111 81 297q0 187 -81 298t-214 111t-214 -111zM632 1870
q3 -67 44 -106q42 -42 115 -42t116 42q40 39 43 106h236q-5 -142 -105 -234q-109 -100 -290 -100t-290 100q-100 92 -105 234h236z" />
    <glyph glyph-name="obreve" unicode="&#x14f;" horiz-adv-x="1278" 
d="M207 125q-158 156 -158 438q0 275 160 433q158 156 429 156q273 0 430 -155q159 -158 159 -434q0 -283 -157 -438q-155 -153 -432 -153q-276 0 -431 153zM765 342q46 78 46 220q0 139 -47 218q-46 78 -126 78t-126 -78q-47 -79 -47 -218q0 -142 46 -220q45 -76 127 -76
q81 0 127 76zM479 1590q3 -67 44 -106q42 -42 115 -42t116 42q40 39 43 106h236q-5 -142 -105 -234q-109 -100 -290 -100t-290 100q-100 92 -105 234h236z" />
    <glyph glyph-name="Ohungarumlaut" unicode="&#x150;" horiz-adv-x="1584" 
d="M1322 1267q196 -201 196 -546t-196 -546q-196 -200 -531 -200q-336 0 -531 200q-196 201 -196 546t196 546t531 201t531 -201zM577 1019q-81 -111 -81 -298q0 -186 81 -297q80 -111 214 -111t214 111q81 111 81 297q0 187 -81 298t-214 111t-214 -111zM871 1555l232 321
h348l-274 -321h-306zM391 1555l232 321h348l-274 -321h-306z" />
    <glyph glyph-name="ohungarumlaut" unicode="&#x151;" horiz-adv-x="1278" 
d="M207 125q-158 156 -158 438q0 275 160 433q158 156 429 156q273 0 430 -155q159 -158 159 -434q0 -283 -157 -438q-155 -153 -432 -153q-276 0 -431 153zM765 342q46 78 46 220q0 139 -47 218q-46 78 -126 78t-126 -78q-47 -79 -47 -218q0 -142 46 -220q45 -76 127 -76
q81 0 127 76zM880 1596h309l-211 -320h-280zM456 1596h308l-211 -320h-280z" />
    <glyph glyph-name="OE" unicode="&#x152;" horiz-adv-x="2216" 
d="M587 1022q-81 -114 -81 -301t81 -301q80 -113 214 -113t214 113q81 114 81 301t-81 301t-214 114t-214 -114zM1159 244q-32 -122 -164 -203q-130 -81 -290 -81q-270 0 -450 214q-181 216 -181 547q0 333 183 549q181 213 455 213q156 0 276 -78t171 -216v254h958v-337
h-594v-233h557v-304h-557v-232h594v-337h-958v244z" />
    <glyph glyph-name="oe" unicode="&#x153;" horiz-adv-x="1987" 
d="M1185 19q-106 48 -158 131h-20q-129 -178 -388 -178q-261 0 -415 159q-155 158 -155 426q0 269 155 432q154 163 409 163q266 0 393 -178h20q52 81 155 130q104 48 227 48q235 0 381 -157q147 -158 147 -409v-111h-725v-44q0 -78 54 -127q55 -50 141 -50q133 0 159 89
h366q-23 -164 -165 -267q-142 -104 -342 -104q-134 0 -239 47zM1547 698q-4 79 -49 125q-44 47 -115 47q-73 0 -121 -48q-49 -49 -51 -124h336zM494 352q45 -74 125 -74t125 74q44 74 44 208q0 133 -45 210q-45 76 -124 76t-124 -76q-45 -77 -45 -211q0 -133 44 -207z" />
    <glyph glyph-name="Racute" unicode="&#x154;" horiz-adv-x="1395" 
d="M523 764h175q89 0 141 50q51 50 51 132q0 81 -53 132q-53 52 -138 52h-176v-366zM523 0h-424v1443h641q286 0 436 -129q147 -127 147 -361q0 -131 -60 -240q-63 -113 -173 -166l274 -547h-474l-228 484h-139v-484zM531 1555l232 321h348l-274 -321h-306z" />
    <glyph glyph-name="racute" unicode="&#x155;" horiz-adv-x="868" 
d="M79 1124h400v-220h8q62 236 263 236q54 0 97 -16v-345q-54 23 -121 23q-237 0 -237 -238v-564h-410v1124zM274 1275l232 321h347l-265 -321h-314z" />
    <glyph glyph-name="uni0156" unicode="&#x156;" horiz-adv-x="1395" 
d="M523 764h175q89 0 141 50q51 50 51 132q0 81 -53 132q-53 52 -138 52h-176v-366zM523 0h-424v1443h641q286 0 436 -129q147 -127 147 -361q0 -131 -60 -240q-63 -113 -173 -166l274 -547h-474l-228 484h-139v-484zM360 -457l152 321h359l-203 -321h-308z" />
    <glyph glyph-name="uni0157" unicode="&#x157;" horiz-adv-x="868" 
d="M80 1124h400v-220h8q62 236 263 236q54 0 97 -16v-345q-54 23 -121 23q-237 0 -237 -238v-564h-410v1124zM-48 -457l152 321h359l-203 -321h-308z" />
    <glyph glyph-name="Rcaron" unicode="&#x158;" horiz-adv-x="1395" 
d="M523 764h175q89 0 141 50q51 50 51 132q0 81 -53 132q-53 52 -138 52h-176v-366zM523 0h-424v1443h641q286 0 436 -129q147 -127 147 -361q0 -131 -60 -240q-63 -113 -173 -166l274 -547h-474l-228 484h-139v-484zM285 1872h276l132 -192h8l132 192h276l-255 -336h-314z
" />
    <glyph glyph-name="rcaron" unicode="&#x159;" horiz-adv-x="868" 
d="M79 1124h400v-220h8q62 236 263 236q54 0 97 -16v-345q-54 23 -121 23q-237 0 -237 -238v-564h-410v1124zM282 1256l-255 336h284l124 -180h8l124 180h284l-255 -336h-314z" />
    <glyph glyph-name="Sacute" unicode="&#x15a;" horiz-adv-x="1370" 
d="M460 425q9 -60 75 -99q64 -37 151 -37q94 0 150 34q55 34 55 87q0 50 -46 77q-44 26 -162 47l-191 34q-198 34 -304 145q-105 109 -105 279q0 216 168 348q164 128 426 128q285 0 444 -123q155 -121 157 -333h-387q-2 66 -61 105q-57 38 -145 38q-83 0 -132 -32t-49 -86
q0 -51 47 -81q45 -30 149 -48l198 -34q210 -37 311 -139q100 -101 100 -277q0 -221 -171 -352q-172 -131 -460 -131q-292 0 -454 117q-164 118 -165 333h401zM518 1555l232 321h348l-274 -321h-306z" />
    <glyph glyph-name="sacute" unicode="&#x15b;" horiz-adv-x="1172" 
d="M199 1051q139 101 383 101t382 -103q139 -104 139 -287h-372q-1 56 -42 88q-41 33 -110 33q-58 0 -92 -22q-35 -22 -35 -58q0 -55 111 -76l251 -50q167 -33 245 -107q77 -75 77 -203q0 -181 -150 -289q-148 -106 -395 -106q-257 0 -404 106q-142 103 -153 285h396
q7 -57 51 -89q44 -33 115 -33q134 0 134 77q0 52 -108 73l-216 43q-347 69 -347 342q0 175 140 275zM420 1275l232 321h347l-265 -321h-314z" />
    <glyph glyph-name="Scircumflex" unicode="&#x15c;" horiz-adv-x="1370" 
d="M460 425q9 -60 75 -99q64 -37 151 -37q94 0 150 34q55 34 55 87q0 50 -46 77q-44 26 -162 47l-191 34q-198 34 -304 145q-105 109 -105 279q0 216 168 348q164 128 426 128q285 0 444 -123q155 -121 157 -333h-387q-2 66 -61 105q-57 38 -145 38q-83 0 -132 -32t-49 -86
q0 -51 47 -81q45 -30 149 -48l198 -34q210 -37 311 -139q100 -101 100 -277q0 -221 -171 -352q-172 -131 -460 -131q-292 0 -454 117q-164 118 -165 333h401zM841 1872l255 -336h-276l-132 192h-8l-132 -192h-276l255 336h314z" />
    <glyph glyph-name="scircumflex" unicode="&#x15d;" horiz-adv-x="1172" 
d="M199 1051q139 101 383 101t382 -103q139 -104 139 -287h-372q-1 56 -42 88q-41 33 -110 33q-58 0 -92 -22q-35 -22 -35 -58q0 -55 111 -76l251 -50q167 -33 245 -107q77 -75 77 -203q0 -181 -150 -289q-148 -106 -395 -106q-257 0 -404 106q-142 103 -153 285h396
q7 -57 51 -89q44 -33 115 -33q134 0 134 77q0 52 -108 73l-216 43q-347 69 -347 342q0 175 140 275zM997 1256h-284l-124 180h-8l-124 -180h-284l255 336h314z" />
    <glyph glyph-name="Scedilla" unicode="&#x15e;" horiz-adv-x="1370" 
d="M898 874q210 -37 311 -139q100 -101 100 -277q0 -198 -140 -325q-139 -127 -379 -152l-36 -70q72 0 117 -46t45 -122q0 -195 -263 -195q-94 0 -133 15v141q38 -12 99 -12q94 0 94 37q0 26 -22 36t-78 10h-56v127l42 75q-256 16 -397 131q-142 117 -143 317h401
q9 -60 75 -99q64 -37 151 -37q94 0 150 34q55 34 55 87q0 50 -46 77q-44 26 -162 47l-191 34q-198 34 -304 145q-105 109 -105 279q0 216 168 348q164 128 426 128q285 0 444 -123q155 -121 157 -333h-387q-2 66 -61 105q-57 38 -145 38q-83 0 -132 -32t-49 -86
q0 -51 47 -81q45 -30 149 -48z" />
    <glyph glyph-name="scedilla" unicode="&#x15f;" horiz-adv-x="1172" 
d="M814 677q167 -33 245 -107q77 -75 77 -203q0 -162 -121 -267q-120 -103 -326 -123l-34 -66q72 0 117 -46t45 -122q0 -195 -263 -195q-94 0 -133 15v141q38 -12 99 -12q94 0 94 37q0 26 -22 36t-78 10h-56v127l41 74q-215 19 -336 122q-119 101 -129 265h396q7 -57 51 -89
q44 -33 115 -33q134 0 134 77q0 52 -108 73l-216 43q-347 69 -347 342q0 175 140 275q139 101 383 101t382 -103q139 -104 139 -287h-372q-1 56 -42 88q-41 33 -110 33q-58 0 -92 -22q-35 -22 -35 -58q0 -55 111 -76z" />
    <glyph glyph-name="Scaron" unicode="&#x160;" horiz-adv-x="1370" 
d="M460 425q9 -60 75 -99q64 -37 151 -37q94 0 150 34q55 34 55 87q0 50 -46 77q-44 26 -162 47l-191 34q-198 34 -304 145q-105 109 -105 279q0 216 168 348q164 128 426 128q285 0 444 -123q155 -121 157 -333h-387q-2 66 -61 105q-57 38 -145 38q-83 0 -132 -32t-49 -86
q0 -51 47 -81q45 -30 149 -48l198 -34q210 -37 311 -139q100 -101 100 -277q0 -221 -171 -352q-172 -131 -460 -131q-292 0 -454 117q-164 118 -165 333h401zM272 1872h276l132 -192h8l132 192h276l-255 -336h-314z" />
    <glyph glyph-name="scaron" unicode="&#x161;" horiz-adv-x="1172" 
d="M199 1051q139 101 383 101t382 -103q139 -104 139 -287h-372q-1 56 -42 88q-41 33 -110 33q-58 0 -92 -22q-35 -22 -35 -58q0 -55 111 -76l251 -50q167 -33 245 -107q77 -75 77 -203q0 -181 -150 -289q-148 -106 -395 -106q-257 0 -404 106q-142 103 -153 285h396
q7 -57 51 -89q44 -33 115 -33q134 0 134 77q0 52 -108 73l-216 43q-347 69 -347 342q0 175 140 275zM428 1256l-255 336h284l124 -180h8l124 180h284l-255 -336h-314z" />
    <glyph glyph-name="uni0162" unicode="&#x162;" horiz-adv-x="1274" 
d="M752 0l-46 -89q72 0 117 -46t45 -122q0 -195 -263 -195q-94 0 -133 15v141q38 -12 99 -12q94 0 94 37q0 26 -22 36t-78 10h-56v127l54 98h-139v1106h-380v337h1184v-337h-380v-1106h-96z" />
    <glyph glyph-name="uni0163" unicode="&#x163;" horiz-adv-x="847" 
d="M588 826v-423q0 -108 127 -108q41 0 71 5v-285q-73 -15 -170 -15l-46 -89q72 0 117 -46t45 -122q0 -195 -263 -195q-94 0 -133 15v141q38 -12 99 -12q94 0 94 37q0 26 -22 36t-78 10h-56v127l62 112q-135 25 -197 97q-60 71 -60 202v513h-149v298h149v247h410v-247h198
v-298h-198z" />
    <glyph glyph-name="Tcaron" unicode="&#x164;" horiz-adv-x="1274" 
d="M424 0v1106h-380v337h1184v-337h-380v-1106h-424zM224 1872h276l132 -192h8l132 192h276l-255 -336h-314z" />
    <glyph glyph-name="tcaron" unicode="&#x165;" horiz-adv-x="947" 
d="M1028 1768l-50 -518h-243v518h293zM588 1371v-247h198v-298h-198v-423q0 -108 127 -108q41 0 71 5v-285q-73 -15 -170 -15q-235 0 -337 73q-101 73 -101 240v513h-149v298h149v247h410z" />
    <glyph glyph-name="Tbar" unicode="&#x166;" horiz-adv-x="1345" 
d="M868 1106v-299h277v-279h-277v-528h-424v528h-245v279h245v299h-380v337h1184v-337h-380z" />
    <glyph glyph-name="tbar" unicode="&#x167;" horiz-adv-x="947" 
d="M588 490v-87q0 -108 127 -108q41 0 71 5v-285q-73 -15 -170 -15q-235 0 -337 73q-101 73 -101 240v177h-128v176h128v160h-149v298h149v247h410v-247h198v-298h-198v-160h252v-176h-252z" />
    <glyph glyph-name="Utilde" unicode="&#x168;" horiz-adv-x="1472" 
d="M523 561q0 -114 55 -174q54 -61 157 -61t157 61q55 60 55 174v882h424v-929q0 -246 -175 -393q-174 -146 -461 -146t-461 146q-175 147 -175 393v929h424v-882zM725 1606q-80 59 -105 59q-63 0 -69 -101h-201q0 135 75 217q71 76 176 76q83 0 163 -59q80 -60 105 -60
q64 0 69 106h201q0 -135 -75 -219q-71 -79 -176 -79q-83 0 -163 60z" />
    <glyph glyph-name="utilde" unicode="&#x169;" horiz-adv-x="1319" 
d="M1238 0h-400v220h-8q-34 -114 -123 -178q-90 -64 -216 -64q-185 0 -299 112q-118 117 -118 313v721h410v-629q0 -88 50 -138q47 -48 125 -48q73 0 121 51q48 52 48 135v629h410v-1124zM649 1318q-80 59 -105 59q-63 0 -69 -101h-201q0 135 75 217q71 76 176 76
q83 0 163 -59q80 -60 105 -60q64 0 69 106h201q0 -135 -75 -219q-71 -79 -176 -79q-83 0 -163 60z" />
    <glyph glyph-name="Umacron" unicode="&#x16a;" horiz-adv-x="1472" 
d="M523 561q0 -114 55 -174q54 -61 157 -61t157 61q55 60 55 174v882h424v-929q0 -246 -175 -393q-174 -146 -461 -146t-461 146q-175 147 -175 393v929h424v-882zM1109 1606h-748v180h748v-180z" />
    <glyph glyph-name="umacron" unicode="&#x16b;" horiz-adv-x="1319" 
d="M1238 0h-400v220h-8q-34 -114 -123 -178q-90 -64 -216 -64q-185 0 -299 112q-118 117 -118 313v721h410v-629q0 -88 50 -138q47 -48 125 -48q73 0 121 51q48 52 48 135v629h410v-1124zM1011 1276h-704v180h704v-180z" />
    <glyph glyph-name="Ubreve" unicode="&#x16c;" horiz-adv-x="1472" 
d="M523 561q0 -114 55 -174q54 -61 157 -61t157 61q55 60 55 174v882h424v-929q0 -246 -175 -393q-174 -146 -461 -146t-461 146q-175 147 -175 393v929h424v-882zM576 1870q3 -67 44 -106q42 -42 115 -42t116 42q40 39 43 106h236q-5 -142 -105 -234q-109 -100 -290 -100
t-290 100q-100 92 -105 234h236z" />
    <glyph glyph-name="ubreve" unicode="&#x16d;" horiz-adv-x="1319" 
d="M1238 0h-400v220h-8q-34 -114 -123 -178q-90 -64 -216 -64q-185 0 -299 112q-118 117 -118 313v721h410v-629q0 -88 50 -138q47 -48 125 -48q73 0 121 51q48 52 48 135v629h410v-1124zM500 1590q3 -67 44 -106q42 -42 115 -42t116 42q40 39 43 106h236q-5 -142 -105 -234
q-109 -100 -290 -100t-290 100q-100 92 -105 234h236z" />
    <glyph glyph-name="Uring" unicode="&#x16e;" horiz-adv-x="1472" 
d="M523 561q0 -114 55 -174q54 -61 157 -61t157 61q55 60 55 174v882h424v-929q0 -246 -175 -393q-174 -146 -461 -146t-461 146q-175 147 -175 393v929h424v-882zM564 1586q-73 70 -73 166q0 97 73 167q72 69 171 69t171 -69q72 -70 72 -167t-72 -166t-171 -69t-171 69z
M797 1693q26 25 26 59q0 35 -26 61q-27 25 -62 25t-62 -25q-26 -26 -26 -61q0 -34 26 -59q27 -25 62 -25t62 25z" />
    <glyph glyph-name="uring" unicode="&#x16f;" horiz-adv-x="1319" 
d="M1238 0h-400v220h-8q-34 -114 -123 -178q-90 -64 -216 -64q-185 0 -299 112q-118 117 -118 313v721h410v-629q0 -88 50 -138q47 -48 125 -48q73 0 121 51q48 52 48 135v629h410v-1124zM488 1304q-73 70 -73 166q0 97 73 167q72 69 171 69t171 -69q72 -70 72 -167
t-72 -166t-171 -69t-171 69zM721 1411q26 25 26 59q0 35 -26 61q-27 25 -62 25t-62 -25q-26 -26 -26 -61q0 -34 26 -59q27 -25 62 -25t62 25z" />
    <glyph glyph-name="Uhungarumlaut" unicode="&#x170;" horiz-adv-x="1472" 
d="M523 561q0 -114 55 -174q54 -61 157 -61t157 61q55 60 55 174v882h424v-929q0 -246 -175 -393q-174 -146 -461 -146t-461 146q-175 147 -175 393v929h424v-882zM815 1555l232 321h348l-274 -321h-306zM335 1555l232 321h348l-274 -321h-306z" />
    <glyph glyph-name="uhungarumlaut" unicode="&#x171;" horiz-adv-x="1319" 
d="M1238 0h-400v220h-8q-34 -114 -123 -178q-90 -64 -216 -64q-185 0 -299 112q-118 117 -118 313v721h410v-629q0 -88 50 -138q47 -48 125 -48q73 0 121 51q48 52 48 135v629h410v-1124zM901 1596h309l-211 -320h-280zM477 1596h308l-211 -320h-280z" />
    <glyph glyph-name="Uogonek" unicode="&#x172;" horiz-adv-x="1472" 
d="M729 -423q-71 56 -71 152q0 148 151 247q-6 -1 -74 -1q-289 0 -462 147q-174 147 -174 392v929h424v-882q0 -114 55 -174q54 -61 157 -61t157 61q55 60 55 174v882h424v-929q0 -267 -238 -445q-16 -12 -87 -62q-51 -35 -77 -58q-74 -65 -74 -135q0 -42 31 -67
q30 -26 82 -26q33 0 72 8v-185q-60 -23 -157 -23q-122 0 -194 56z" />
    <glyph glyph-name="uogonek" unicode="&#x173;" horiz-adv-x="1319" 
d="M1238 -451q-60 -23 -157 -23q-117 0 -191 64q-74 63 -74 164q0 154 166 246h-144v220h-8q-34 -114 -123 -178q-90 -64 -216 -64q-188 0 -303 117q-114 116 -114 308v721h410v-629q0 -85 47 -136q48 -50 128 -50q74 0 122 52q47 52 47 134v629h410v-1124h-58
q-127 -71 -127 -174q0 -44 32 -72q31 -28 81 -28q32 0 72 8v-185z" />
    <glyph glyph-name="Wcircumflex" unicode="&#x174;" horiz-adv-x="2062" 
d="M811 0h-400l-372 1443h438l166 -912h8l215 912h328l215 -912h8l166 912h438l-372 -1443h-400l-215 826h-8zM1187 1872l255 -336h-276l-132 192h-8l-132 -192h-276l255 336h314z" />
    <glyph glyph-name="wcircumflex" unicode="&#x175;" horiz-adv-x="1796" 
d="M1502 0h-445l-159 729h-8l-157 -729h-437l-286 1124h415l122 -764h8l151 764h391l154 -764h8l122 764h405zM1310 1256h-284l-124 180h-8l-124 -180h-284l255 336h314z" />
    <glyph glyph-name="Ycircumflex" unicode="&#x176;" horiz-adv-x="1470" 
d="M522 0v457l-493 986h453l253 -585h8l253 585h443l-493 -986v-457h-424zM891 1872l255 -336h-276l-132 192h-8l-132 -192h-276l255 336h314z" />
    <glyph glyph-name="ycircumflex" unicode="&#x177;" horiz-adv-x="1246" 
d="M122 -412v306h60q189 0 192 74v20l-374 1136h455l175 -828h8l175 828h433l-339 -1101q-72 -233 -221 -334t-418 -101h-146zM1035 1256h-284l-124 180h-8l-124 -180h-284l255 336h314z" />
    <glyph glyph-name="Ydieresis" unicode="&#x178;" horiz-adv-x="1470" 
d="M522 0v457l-493 986h453l253 -585h8l253 585h443l-493 -986v-457h-424zM399 1580q-45 44 -45 106q0 63 45 106q45 44 113 44t114 -44q44 -43 44 -106q0 -62 -44 -106q-46 -44 -114 -44t-113 44zM843 1580q-45 44 -45 106q0 63 45 106q45 44 113 44t114 -44
q44 -43 44 -106q0 -62 -44 -106q-46 -44 -114 -44t-113 44z" />
    <glyph glyph-name="Zacute" unicode="&#x179;" horiz-adv-x="1321" 
d="M79 266l643 832v8h-637v337h1131v-265l-641 -833v-8h665v-337h-1161v266zM494 1555l232 321h348l-274 -321h-306z" />
    <glyph glyph-name="zacute" unicode="&#x17a;" horiz-adv-x="1128" 
d="M59 209l506 603v8h-490v304h970v-244l-446 -568v-8h468v-304h-1008v209zM398 1275l232 321h347l-265 -321h-314z" />
    <glyph glyph-name="Zdotaccent" unicode="&#x17b;" horiz-adv-x="1321" 
d="M79 266l643 832v8h-637v337h1131v-265l-641 -833v-8h665v-337h-1161v266zM534 1588q-51 52 -51 125t51 124q51 52 126 52t126 -52q51 -51 51 -124t-51 -125q-52 -52 -126 -52t-126 52z" />
    <glyph glyph-name="zdotaccent" unicode="&#x17c;" horiz-adv-x="1128" 
d="M59 209l506 603v8h-490v304h970v-244l-446 -568v-8h468v-304h-1008v209zM435 1315q-51 50 -51 122t51 122q51 51 126 51t126 -51q51 -50 51 -122t-51 -122q-51 -51 -126 -51t-126 51z" />
    <glyph glyph-name="Zcaron" unicode="&#x17d;" horiz-adv-x="1321" 
d="M79 266l643 832v8h-637v337h1131v-265l-641 -833v-8h665v-337h-1161v266zM248 1872h276l132 -192h8l132 192h276l-255 -336h-314z" />
    <glyph glyph-name="zcaron" unicode="&#x17e;" horiz-adv-x="1128" 
d="M59 209l506 603v8h-490v304h970v-244l-446 -568v-8h468v-304h-1008v209zM406 1256l-255 336h284l124 -180h8l124 180h284l-255 -336h-314z" />
    <glyph glyph-name="florin" unicode="&#x192;" horiz-adv-x="1413" 
d="M1316 1111q-63 29 -149 29q-174 0 -205 -184l-14 -86h329v-276h-376l-28 -169q-39 -234 -180 -343q-137 -106 -383 -106q-144 0 -215 33v311q70 -32 156 -32q89 0 136 43q46 43 63 141l20 122h-297v276h343l23 136q40 235 178 340q137 106 405 106q128 0 194 -31v-310z
" />
    <glyph glyph-name="Ohorn" unicode="&#x1a0;" horiz-adv-x="1653" 
d="M577 1019q-81 -111 -81 -298q0 -186 81 -297q80 -111 214 -111t214 111q81 111 81 297q0 187 -81 298t-214 111t-214 -111zM1320 176q-198 -201 -530 -201q-333 0 -529 202t-196 546q0 341 193 543q194 202 520 202q159 0 315 -58t193 -58q80 0 80 83v205h303v-336
q0 -83 -46 -135q-45 -51 -119 -51q-41 0 -64 10l-5 -7q83 -144 83 -408q0 -337 -198 -537z" />
    <glyph glyph-name="ohorn" unicode="&#x1a1;" horiz-adv-x="1400" 
d="M765 344q46 78 46 218q0 138 -46 217q-47 79 -127 79t-127 -79q-46 -79 -46 -217q0 -141 45 -218q46 -78 128 -78t127 78zM1071 125q-156 -153 -437 -153q-273 0 -429 155t-156 426q0 272 154 435q155 164 412 164q160 0 308 -76q149 -77 173 -77q70 0 70 84v133h285
v-198q0 -127 -56 -198q-57 -71 -157 -71q-18 0 -36 3l-7 -9q32 -99 32 -191q0 -275 -156 -427z" />
    <glyph glyph-name="Uhorn" unicode="&#x1af;" horiz-adv-x="1654" 
d="M1375 1443q40 0 56 11q20 12 20 73v139h286v-204q0 -290 -286 -290h-80v-658q0 -245 -174 -392q-173 -147 -462 -147q-288 0 -462 147q-174 148 -174 392v929h424v-882q0 -113 55 -174q54 -60 157 -60q212 0 212 234v882h428z" />
    <glyph glyph-name="uhorn" unicode="&#x1b0;" horiz-adv-x="1502" 
d="M830 220q-34 -114 -123 -178q-90 -64 -216 -64q-188 0 -303 117q-114 116 -114 308v721h410v-629q0 -85 47 -136q48 -50 128 -50q74 0 122 52q47 52 47 134v629h410q45 0 61 16q15 14 15 68v138h285v-197q0 -150 -64 -221q-63 -71 -197 -71h-100v-857h-400v220h-8z" />
    <glyph glyph-name="uni01C4" unicode="&#x1c4;" horiz-adv-x="2798" 
d="M716 1443q331 0 512 -182q183 -185 183 -529q0 -346 -184 -539q-183 -193 -511 -193h-617v1443h617zM523 337h133q323 0 323 395q0 181 -85 278q-84 96 -238 96h-133v-769zM1556 266l643 832v8h-637v337h1131v-265l-641 -833v-8h665v-337h-1161v266zM1725 1872h276
l132 -192h8l132 192h276l-255 -336h-314z" />
    <glyph glyph-name="uni01C5" unicode="&#x1c5;" horiz-adv-x="2605" 
d="M716 1443q331 0 512 -182q183 -185 183 -529q0 -346 -184 -539q-183 -193 -511 -193h-617v1443h617zM523 337h133q323 0 323 395q0 181 -85 278q-84 96 -238 96h-133v-769zM1536 209l506 603v8h-490v304h970v-244l-446 -568v-8h468v-304h-1008v209zM1883 1256l-255 336
h284l124 -180h8l124 180h284l-255 -336h-314z" />
    <glyph glyph-name="uni01C6" unicode="&#x1c6;" horiz-adv-x="2453" 
d="M165 137q-116 154 -116 428q0 271 118 423t328 152q120 0 211 -62q86 -59 120 -156h8v596h410v-1518h-410v194h-8q-29 -91 -120 -149q-94 -61 -217 -61q-208 0 -324 153zM518 753q-49 -69 -49 -191q0 -123 48 -192q49 -69 135 -69q87 0 136 69q48 68 48 191
q0 122 -49 192t-135 70q-85 0 -134 -70zM1384 209l506 603v8h-490v304h970v-244l-446 -568v-8h468v-304h-1008v209zM1731 1256l-255 336h284l124 -180h8l124 180h284l-255 -336h-314z" />
    <glyph glyph-name="uni01C7" unicode="&#x1c7;" horiz-adv-x="2421" 
d="M1089 0h-990v1443h424v-1106h566v-337zM1575 511q0 -85 42 -133q41 -48 114 -48q143 0 143 174v939h424v-942q0 -252 -149 -390q-147 -136 -412 -136q-263 0 -415 143q-153 143 -153 393h406z" />
    <glyph glyph-name="uni01C8" unicode="&#x1c8;" horiz-adv-x="1720" 
d="M1089 0h-990v1443h424v-1106h566v-337zM1639 7q0 -171 -119 -266q-118 -95 -332 -95q-77 0 -125 6v286q18 -3 47 -3q119 0 119 90v1099h410v-1117zM1289 1245q-60 56 -60 140t60 140q59 55 145 55t145 -55q60 -56 60 -140t-60 -140q-59 -55 -145 -55t-145 55z" />
    <glyph glyph-name="uni01C9" unicode="&#x1c9;" horiz-adv-x="1150" 
d="M84 1518h410v-1518h-410v1518zM1069 7q0 -171 -119 -266q-118 -95 -332 -95q-77 0 -125 6v286q18 -3 47 -3q119 0 119 90v1099h410v-1117zM719 1245q-60 56 -60 140t60 140q59 55 145 55t145 -55q60 -56 60 -140t-60 -140q-59 -55 -145 -55t-145 55z" />
    <glyph glyph-name="uni01CA" unicode="&#x1ca;" horiz-adv-x="2765" 
d="M99 0v1443h329l557 -748h8v748h400v-1443h-325l-561 760h-8v-760h-400zM1919 511q0 -85 42 -133q41 -48 114 -48q143 0 143 174v939h424v-942q0 -252 -149 -390q-147 -136 -412 -136q-263 0 -415 143q-153 143 -153 393h406z" />
    <glyph glyph-name="uni01CB" unicode="&#x1cb;" horiz-adv-x="2064" 
d="M99 0v1443h329l557 -748h8v748h400v-1443h-325l-561 760h-8v-760h-400zM1983 7q0 -171 -119 -266q-118 -95 -332 -95q-77 0 -125 6v286q18 -3 47 -3q119 0 119 90v1099h410v-1117zM1633 1245q-60 56 -60 140t60 140q59 55 145 55t145 -55q60 -56 60 -140t-60 -140
q-59 -55 -145 -55t-145 55z" />
    <glyph glyph-name="uni01CC" unicode="&#x1cc;" horiz-adv-x="1889" 
d="M79 1124h400v-220h8q88 242 355 242q189 0 295 -112t106 -314v-720h-410v629q0 87 -45 136q-46 50 -126 50q-76 0 -125 -52q-48 -53 -48 -134v-629h-410v1124zM1808 7q0 -171 -119 -266q-118 -95 -332 -95q-77 0 -125 6v286q18 -3 47 -3q119 0 119 90v1099h410v-1117z
M1458 1245q-60 56 -60 140t60 140q59 55 145 55t145 -55q60 -56 60 -140t-60 -140q-59 -55 -145 -55t-145 55z" />
    <glyph glyph-name="uni01CD" unicode="&#x1cd;" horiz-adv-x="1534" 
d="M976 287h-440l-75 -287h-432l471 1443h532l471 -1443h-452zM613 586h286l-139 524h-8zM354 1872h276l132 -192h8l132 192h276l-255 -336h-314z" />
    <glyph glyph-name="uni01CE" unicode="&#x1ce;" horiz-adv-x="1231" 
d="M695 297q55 39 55 101v74l-181 -13q-128 -9 -128 -101q0 -46 35 -73q34 -26 92 -26q74 0 127 38zM149 79q-112 99 -112 248q0 322 465 350l248 15v57q0 56 -39 88q-38 31 -100 31q-63 0 -105 -31q-40 -30 -45 -75h-366q8 179 151 284q144 106 387 106q232 0 375 -106
q142 -106 142 -277v-769h-400v152h-8q-43 -80 -136 -125q-87 -43 -190 -43q-158 0 -267 95zM472 1256l-255 336h284l124 -180h8l124 180h284l-255 -336h-314z" />
    <glyph glyph-name="uni01CF" unicode="&#x1cf;" horiz-adv-x="624" 
d="M100 0v1443h424v-1443h-424zM-100 1872h276l132 -192h8l132 192h276l-255 -336h-314z" />
    <glyph glyph-name="uni01D0" unicode="&#x1d0;" horiz-adv-x="570" 
d="M80 1124h410v-1124h-410v1124zM128 1256l-255 336h284l124 -180h8l124 180h284l-255 -336h-314z" />
    <glyph glyph-name="uni01D1" unicode="&#x1d1;" horiz-adv-x="1584" 
d="M1322 1267q196 -201 196 -546t-196 -546q-196 -200 -531 -200q-336 0 -531 200q-196 201 -196 546t196 546t531 201t531 -201zM577 1019q-81 -111 -81 -298q0 -186 81 -297q80 -111 214 -111t214 111q81 111 81 297q0 187 -81 298t-214 111t-214 -111zM379 1872h276
l132 -192h8l132 192h276l-255 -336h-314z" />
    <glyph glyph-name="uni01D2" unicode="&#x1d2;" horiz-adv-x="1278" 
d="M207 125q-158 156 -158 438q0 275 160 433q158 156 429 156q273 0 430 -155q159 -158 159 -434q0 -283 -157 -438q-155 -153 -432 -153q-276 0 -431 153zM765 342q46 78 46 220q0 139 -47 218q-46 78 -126 78t-126 -78q-47 -79 -47 -218q0 -142 46 -220q45 -76 127 -76
q81 0 127 76zM481 1256l-255 336h284l124 -180h8l124 180h284l-255 -336h-314z" />
    <glyph glyph-name="uni01D3" unicode="&#x1d3;" horiz-adv-x="1472" 
d="M523 561q0 -114 55 -174q54 -61 157 -61t157 61q55 60 55 174v882h424v-929q0 -246 -175 -393q-174 -146 -461 -146t-461 146q-175 147 -175 393v929h424v-882zM323 1872h276l132 -192h8l132 192h276l-255 -336h-314z" />
    <glyph glyph-name="uni01D4" unicode="&#x1d4;" horiz-adv-x="1319" 
d="M1238 0h-400v220h-8q-34 -114 -123 -178q-90 -64 -216 -64q-185 0 -299 112q-118 117 -118 313v721h410v-629q0 -88 50 -138q47 -48 125 -48q73 0 121 51q48 52 48 135v629h410v-1124zM502 1256l-255 336h284l124 -180h8l124 180h284l-255 -336h-314z" />
    <glyph glyph-name="uni01D5" unicode="&#x1d5;" horiz-adv-x="1472" 
d="M523 561q0 -114 55 -174q54 -61 157 -61t157 61q55 60 55 174v882h424v-929q0 -246 -175 -393q-174 -146 -461 -146t-461 146q-175 147 -175 393v929h424v-882zM627 1792q44 -43 44 -106q0 -62 -44 -106q-46 -44 -114 -44t-113 44t-45 106q0 63 45 106q45 44 113 44
t114 -44zM1109 2120v-180h-748v180h748zM1071 1792q44 -43 44 -106q0 -62 -44 -106q-46 -44 -114 -44t-113 44t-45 106q0 63 45 106q45 44 113 44t114 -44z" />
    <glyph glyph-name="uni01D6" unicode="&#x1d6;" horiz-adv-x="1319" 
d="M1238 0h-400v220h-8q-34 -114 -123 -178q-90 -64 -216 -64q-185 0 -299 112q-118 117 -118 313v721h410v-629q0 -88 50 -138q47 -48 125 -48q73 0 121 51q48 52 48 135v629h410v-1124zM343 1297q-42 40 -42 99t42 100q43 41 107 41t107 -41q42 -41 42 -100t-42 -99
q-43 -42 -107 -42t-107 42zM761 1297q-42 40 -42 99t42 100q43 41 107 41t107 -41q42 -41 42 -100t-42 -99q-43 -42 -107 -42t-107 42zM1011 1660h-704v180h704v-180z" />
    <glyph glyph-name="uni01D7" unicode="&#x1d7;" horiz-adv-x="1472" 
d="M523 561q0 -114 55 -174q54 -61 157 -61t157 61q55 60 55 174v882h424v-929q0 -246 -175 -393q-174 -146 -461 -146t-461 146q-175 147 -175 393v929h424v-882zM781 2206h322l-238 -281h-286zM400 1580q-45 44 -45 106q0 63 45 106q45 44 113 44t114 -44q44 -43 44 -106
q0 -62 -44 -106q-46 -44 -114 -44t-113 44zM844 1580q-45 44 -45 106q0 63 45 106q45 44 113 44t114 -44q44 -43 44 -106q0 -62 -44 -106q-46 -44 -114 -44t-113 44z" />
    <glyph glyph-name="uni01D8" unicode="&#x1d8;" horiz-adv-x="1319" 
d="M1238 0h-400v220h-8q-34 -114 -123 -178q-90 -64 -216 -64q-185 0 -299 112q-118 117 -118 313v721h410v-629q0 -88 50 -138q47 -48 125 -48q73 0 121 51q48 52 48 135v629h410v-1124zM719 1932h322l-238 -281h-286zM324 1300q-45 44 -45 106q0 63 45 106q45 44 113 44
t114 -44q44 -43 44 -106q0 -62 -44 -106q-46 -44 -114 -44t-113 44zM768 1300q-45 44 -45 106q0 63 45 106q45 44 113 44t114 -44q44 -43 44 -106q0 -62 -44 -106q-46 -44 -114 -44t-113 44z" />
    <glyph glyph-name="uni01D9" unicode="&#x1d9;" horiz-adv-x="1472" 
d="M523 561q0 -114 55 -174q54 -61 157 -61t157 61q55 60 55 174v882h424v-929q0 -246 -175 -393q-174 -146 -461 -146t-461 146q-175 147 -175 393v929h424v-882zM346 2231h267l111 -153h22l111 153h267l-247 -305h-284zM627 1792q44 -43 44 -106q0 -62 -44 -106
q-46 -44 -114 -44t-113 44t-45 106q0 63 45 106q45 44 113 44t114 -44zM1071 1792q44 -43 44 -106q0 -62 -44 -106q-46 -44 -114 -44t-113 44t-45 106q0 63 45 106q45 44 113 44t114 -44z" />
    <glyph glyph-name="uni01DA" unicode="&#x1da;" horiz-adv-x="1319" 
d="M1238 0h-400v220h-8q-34 -114 -123 -178q-90 -64 -216 -64q-185 0 -299 112q-118 117 -118 313v721h410v-629q0 -88 50 -138q47 -48 125 -48q73 0 121 51q48 52 48 135v629h410v-1124zM343 1297q-42 40 -42 99t42 100q43 41 107 41t107 -41q42 -41 42 -100t-42 -99
q-43 -42 -107 -42t-107 42zM761 1297q-42 40 -42 99t42 100q43 41 107 41t107 -41q42 -41 42 -100t-42 -99q-43 -42 -107 -42t-107 42zM502 1614l-255 336h284l124 -180h8l124 180h284l-255 -336h-314z" />
    <glyph glyph-name="uni01DB" unicode="&#x1db;" horiz-adv-x="1472" 
d="M523 561q0 -114 55 -174q54 -61 157 -61t157 61q55 60 55 174v882h424v-929q0 -246 -175 -393q-174 -146 -461 -146t-461 146q-175 147 -175 393v929h424v-882zM605 1925l-238 281h322l202 -281h-286zM400 1580q-45 44 -45 106q0 63 45 106q45 44 113 44t114 -44
q44 -43 44 -106q0 -62 -44 -106q-46 -44 -114 -44t-113 44zM844 1580q-45 44 -45 106q0 63 45 106q45 44 113 44t114 -44q44 -43 44 -106q0 -62 -44 -106q-46 -44 -114 -44t-113 44z" />
    <glyph glyph-name="uni01DC" unicode="&#x1dc;" horiz-adv-x="1319" 
d="M1238 0h-400v220h-8q-34 -114 -123 -178q-90 -64 -216 -64q-185 0 -299 112q-118 117 -118 313v721h410v-629q0 -88 50 -138q47 -48 125 -48q73 0 121 51q48 52 48 135v629h410v-1124zM529 1675l-244 275h343l183 -275h-282zM324 1300q-45 44 -45 106q0 63 45 106
q45 44 113 44t114 -44q44 -43 44 -106q0 -62 -44 -106q-46 -44 -114 -44t-113 44zM768 1300q-45 44 -45 106q0 63 45 106q45 44 113 44t114 -44q44 -43 44 -106q0 -62 -44 -106q-46 -44 -114 -44t-113 44z" />
    <glyph glyph-name="uni01DE" unicode="&#x1de;" horiz-adv-x="1534" 
d="M976 287h-440l-75 -287h-432l471 1443h532l471 -1443h-452zM613 586h286l-139 524h-8zM658 1792q44 -43 44 -106q0 -62 -44 -106q-46 -44 -114 -44t-113 44t-45 106q0 63 45 106q45 44 113 44t114 -44zM1140 2120v-180h-748v180h748zM1102 1792q44 -43 44 -106
q0 -62 -44 -106q-46 -44 -114 -44t-113 44t-45 106q0 63 45 106q45 44 113 44t114 -44z" />
    <glyph glyph-name="uni01DF" unicode="&#x1df;" horiz-adv-x="1231" 
d="M695 297q55 39 55 101v74l-181 -13q-128 -9 -128 -101q0 -46 35 -73q34 -26 92 -26q74 0 127 38zM149 79q-112 99 -112 248q0 322 465 350l248 15v57q0 56 -39 88q-38 31 -100 31q-63 0 -105 -31q-40 -30 -45 -75h-366q8 179 151 284q144 106 387 106q232 0 375 -106
q142 -106 142 -277v-769h-400v152h-8q-43 -80 -136 -125q-87 -43 -190 -43q-158 0 -267 95zM313 1297q-42 40 -42 99t42 100q43 41 107 41t107 -41q42 -41 42 -100t-42 -99q-43 -42 -107 -42t-107 42zM731 1297q-42 40 -42 99t42 100q43 41 107 41t107 -41q42 -41 42 -100
t-42 -99q-43 -42 -107 -42t-107 42zM981 1660h-704v180h704v-180z" />
    <glyph glyph-name="uni01E0" unicode="&#x1e0;" horiz-adv-x="1534" 
d="M976 287h-440l-75 -287h-432l471 1443h532l471 -1443h-452zM613 586h286l-139 524h-8zM653 1580q-45 44 -45 106q0 63 45 106q45 44 113 44t114 -44q44 -43 44 -106q0 -62 -44 -106q-46 -44 -114 -44t-113 44zM1140 1940h-748v180h748v-180z" />
    <glyph glyph-name="uni01E1" unicode="&#x1e1;" horiz-adv-x="1231" 
d="M695 297q55 39 55 101v74l-181 -13q-128 -9 -128 -101q0 -46 35 -73q34 -26 92 -26q74 0 127 38zM149 79q-112 99 -112 248q0 322 465 350l248 15v57q0 56 -39 88q-38 31 -100 31q-63 0 -105 -31q-40 -30 -45 -75h-366q8 179 151 284q144 106 387 106q232 0 375 -106
q142 -106 142 -277v-769h-400v152h-8q-43 -80 -136 -125q-87 -43 -190 -43q-158 0 -267 95zM503 1293q-51 50 -51 122t51 122q51 51 126 51t126 -51q51 -50 51 -122t-51 -122q-51 -51 -126 -51t-126 51zM981 1670h-704v180h704v-180z" />
    <glyph glyph-name="uni01E2" unicode="&#x1e2;" horiz-adv-x="2104" 
d="M669 586h300v543h-112zM969 286h-403l-99 -286h-418l540 1443h1395v-336h-643v-234h606v-304h-606v-233h643v-336h-1015v286zM1870 1606h-748v180h748v-180z" />
    <glyph glyph-name="uni01E3" unicode="&#x1e3;" horiz-adv-x="1918" 
d="M1055 24q-111 51 -165 138h-8q-109 -178 -404 -178q-196 0 -319 97q-122 95 -122 246q0 323 465 350l248 15v57q0 55 -38 87q-37 32 -101 32q-61 0 -102 -29q-42 -30 -48 -77h-366q7 179 148 285q139 105 360 105q235 0 353 -123h8q121 123 339 123q255 0 410 -155
q154 -155 154 -411v-111h-747v-26q0 -86 55 -140q55 -55 141 -55q139 0 180 109h366q-26 -181 -174 -286q-149 -105 -378 -105q-141 0 -255 52zM1182 821q-50 -48 -56 -123h358q-5 78 -54 125q-49 46 -125 46q-73 0 -123 -48zM698 299q52 40 52 99v74l-181 -13
q-128 -9 -128 -101q0 -46 34 -72q34 -27 93 -27q77 0 130 40zM1299 1276h-704v180h704v-180z" />
    <glyph glyph-name="Gcaron" unicode="&#x1e6;" horiz-adv-x="1530" 
d="M1461 614q0 -297 -177 -468q-178 -171 -491 -171q-345 0 -536 194q-193 196 -193 554q0 353 191 550q189 195 525 195q270 0 456 -143q184 -143 208 -366h-417q-21 80 -87 127q-67 48 -158 48q-135 0 -210 -106q-76 -107 -76 -299q0 -196 84 -309q82 -111 223 -111
q103 0 171 53t77 140l2 20h-220v282h628v-190zM343 1872h276l132 -192h8l132 192h276l-255 -336h-314z" />
    <glyph glyph-name="gcaron" unicode="&#x1e7;" horiz-adv-x="1325" 
d="M788 375q48 64 48 186t-49 192t-135 70q-85 0 -134 -70q-49 -69 -49 -191t48 -187q48 -64 135 -64q88 0 136 64zM236 -326q-156 96 -160 258h394q9 -41 60 -66q50 -25 118 -25q84 0 134 39q52 41 52 110v224h-8q-29 -89 -120 -144q-92 -56 -217 -56q-201 0 -319 144
q-121 147 -121 407q0 271 118 423t328 152q120 0 211 -62q86 -59 120 -156h8v202h410v-1104q0 -199 -165 -320t-435 -121q-253 0 -408 95zM505 1256l-255 336h284l124 -180h8l124 180h284l-255 -336h-314z" />
    <glyph glyph-name="uni01E8" unicode="&#x1e8;" horiz-adv-x="1445" 
d="M99 0v1443h424v-612h8l446 612h445l-475 -641l497 -802h-493l-315 530l-113 -152v-378h-424zM310 1872h276l132 -192h8l132 192h276l-255 -336h-314z" />
    <glyph glyph-name="uni01E9" unicode="&#x1e9;" horiz-adv-x="1226" 
d="M783 1124h452l-378 -480l404 -644h-471l-238 399l-57 -74v-325h-410v1518h410v-803h8zM-124 1947h276l132 -192h8l132 192h276l-255 -336h-314z" />
    <glyph glyph-name="uni01EA" unicode="&#x1ea;" horiz-adv-x="1584" 
d="M1130 -456q-60 -23 -154 -23q-123 0 -195 56q-73 57 -73 152q0 152 141 246h-58q-336 0 -531 201q-196 200 -196 545t196 546t531 201t531 -201t196 -546q0 -409 -286 -627q-38 -29 -106 -74q-66 -44 -91 -63q-90 -69 -90 -143q0 -42 31 -67q30 -26 82 -26q39 0 72 8
v-185zM576 1019q-80 -112 -80 -298t80 -297q81 -111 215 -111t215 111q80 111 80 297t-80 298q-81 111 -215 111t-215 -111z" />
    <glyph glyph-name="uni01EB" unicode="&#x1eb;" horiz-adv-x="1278" 
d="M631 -415q-74 63 -74 164q0 135 147 224q-6 -1 -66 -1q-278 0 -434 156q-155 155 -155 435q0 273 158 431t431 158q275 0 432 -157t157 -432q0 -298 -226 -487q-129 -108 -168 -158q-39 -49 -39 -104q0 -42 31 -67q30 -26 82 -26q39 0 72 8v-185q-60 -23 -157 -23
q-117 0 -191 64zM765 344q46 78 46 218q0 138 -46 217q-47 79 -127 79t-127 -79q-46 -79 -46 -217q0 -141 45 -218q46 -78 128 -78t127 78z" />
    <glyph glyph-name="uni01EC" unicode="&#x1ec;" horiz-adv-x="1584" 
d="M1165 1606h-748v180h748v-180zM1130 -456q-60 -23 -154 -23q-123 0 -195 56q-73 57 -73 152q0 152 141 246h-58q-336 0 -531 201q-196 200 -196 545t196 546t531 201t531 -201t196 -546q0 -409 -286 -627q-38 -29 -106 -74q-66 -44 -91 -63q-90 -69 -90 -143
q0 -42 31 -67q30 -26 82 -26q39 0 72 8v-185zM576 1019q-80 -112 -80 -298t80 -297q81 -111 215 -111t215 111q80 111 80 297t-80 298q-81 111 -215 111t-215 -111z" />
    <glyph glyph-name="uni01ED" unicode="&#x1ed;" horiz-adv-x="1278" 
d="M990 1276h-704v180h704v-180zM631 -415q-74 63 -74 164q0 135 147 224q-6 -1 -66 -1q-278 0 -434 156q-155 155 -155 435q0 273 158 431t431 158q275 0 432 -157t157 -432q0 -298 -226 -487q-129 -108 -168 -158q-39 -49 -39 -104q0 -42 31 -67q30 -26 82 -26q39 0 72 8
v-185q-60 -23 -157 -23q-117 0 -191 64zM765 344q46 78 46 218q0 138 -46 217q-47 79 -127 79t-127 -79q-46 -79 -46 -217q0 -141 45 -218q46 -78 128 -78t127 78z" />
    <glyph glyph-name="uni01F1" unicode="&#x1f1;" horiz-adv-x="2798" 
d="M716 1443q331 0 512 -182q183 -185 183 -529q0 -346 -184 -539q-183 -193 -511 -193h-617v1443h617zM523 337h133q323 0 323 395q0 181 -85 278q-84 96 -238 96h-133v-769zM1556 266l643 832v8h-637v337h1131v-265l-641 -833v-8h665v-337h-1161v266z" />
    <glyph glyph-name="uni01F2" unicode="&#x1f2;" horiz-adv-x="2605" 
d="M716 1443q331 0 512 -182q183 -185 183 -529q0 -346 -184 -539q-183 -193 -511 -193h-617v1443h617zM523 337h133q323 0 323 395q0 181 -85 278q-84 96 -238 96h-133v-769zM1536 209l506 603v8h-490v304h970v-244l-446 -568v-8h468v-304h-1008v209z" />
    <glyph glyph-name="uni01F3" unicode="&#x1f3;" horiz-adv-x="2453" 
d="M165 137q-116 154 -116 428q0 271 118 423t328 152q120 0 211 -62q86 -59 120 -156h8v596h410v-1518h-410v194h-8q-29 -91 -120 -149q-94 -61 -217 -61q-208 0 -324 153zM518 753q-49 -69 -49 -191q0 -123 48 -192q49 -69 135 -69q87 0 136 69q48 68 48 191
q0 122 -49 192t-135 70q-85 0 -134 -70zM1384 209l506 603v8h-490v304h970v-244l-446 -568v-8h468v-304h-1008v209z" />
    <glyph glyph-name="uni01F4" unicode="&#x1f4;" horiz-adv-x="1530" 
d="M1461 614q0 -297 -177 -468q-178 -171 -491 -171q-345 0 -536 194q-193 196 -193 554q0 353 191 550q189 195 525 195q270 0 456 -143q184 -143 208 -366h-417q-21 80 -87 127q-67 48 -158 48q-135 0 -210 -106q-76 -107 -76 -299q0 -196 84 -309q82 -111 223 -111
q103 0 171 53t77 140l2 20h-220v282h628v-190zM589 1555l232 321h348l-274 -321h-306z" />
    <glyph glyph-name="uni01F5" unicode="&#x1f5;" horiz-adv-x="1325" 
d="M788 375q48 64 48 186t-49 192t-135 70q-85 0 -134 -70q-49 -69 -49 -191t48 -187q48 -64 135 -64q88 0 136 64zM236 -326q-156 96 -160 258h394q9 -41 60 -66q50 -25 118 -25q84 0 134 39q52 41 52 110v224h-8q-29 -89 -120 -144q-92 -56 -217 -56q-201 0 -319 144
q-121 147 -121 407q0 271 118 423t328 152q120 0 211 -62q86 -59 120 -156h8v202h410v-1104q0 -199 -165 -320t-435 -121q-253 0 -408 95zM497 1275l232 321h347l-265 -321h-314z" />
    <glyph glyph-name="uni01F8" unicode="&#x1f8;" horiz-adv-x="1494" 
d="M99 0v1443h329l557 -748h8v748h400v-1443h-325l-561 760h-8v-760h-400zM326 1885h348l232 -321h-306z" />
    <glyph glyph-name="uni01F9" unicode="&#x1f9;" horiz-adv-x="1319" 
d="M79 1124h400v-220h8q88 242 355 242q189 0 295 -112t106 -314v-720h-410v629q0 87 -45 136q-46 50 -126 50q-76 0 -125 -52q-48 -53 -48 -134v-629h-410v1124zM519 1275l-265 321h347l232 -321h-314z" />
    <glyph glyph-name="Aringacute" unicode="&#x1fa;" horiz-adv-x="1534" 
d="M976 287h-440l-75 -287h-432l471 1443h532l471 -1443h-452zM613 586h286l-139 524h-8zM612 1576q-60 58 -60 147t60 147t154 58q93 0 153 -57q60 -58 60 -148t-60 -147q-60 -58 -153 -58q-94 0 -154 58zM816 1673q20 20 20 50t-20 50q-20 19 -50 19q-31 0 -51 -19
q-20 -20 -20 -50t20 -50t51 -20q30 0 50 20zM1067 2201l-162 -202h-276l115 202h323z" />
    <glyph glyph-name="aringacute" unicode="&#x1fb;" horiz-adv-x="1231" 
d="M695 297q55 39 55 101v74l-181 -13q-128 -9 -128 -101q0 -46 35 -73q34 -26 92 -26q74 0 127 38zM149 79q-112 99 -112 248q0 322 465 350l248 15v57q0 56 -39 88q-38 31 -100 31q-63 0 -105 -31q-40 -30 -45 -75h-366q8 179 151 284q144 106 387 106q232 0 375 -106
q142 -106 142 -277v-769h-400v152h-8q-43 -80 -136 -125q-87 -43 -190 -43q-158 0 -267 95zM461 1300q-66 64 -66 163q0 100 66 164q67 64 171 64t171 -64q66 -64 66 -164q0 -99 -66 -163q-67 -64 -171 -64t-171 64zM576 1408q22 -22 56 -22t56 22q22 21 22 55t-22 56
t-56 22t-56 -22t-22 -56t22 -55zM657 2001h314l-190 -230h-268z" />
    <glyph glyph-name="AEacute" unicode="&#x1fc;" horiz-adv-x="2104" 
d="M669 586h300v543h-112zM969 286h-403l-99 -286h-418l540 1443h1395v-336h-643v-234h606v-304h-606v-233h643v-336h-1015v286zM1330 1555l232 321h348l-274 -321h-306z" />
    <glyph glyph-name="aeacute" unicode="&#x1fd;" horiz-adv-x="1918" 
d="M1055 24q-111 51 -165 138h-8q-109 -178 -404 -178q-196 0 -319 97q-122 95 -122 246q0 323 465 350l248 15v57q0 55 -38 87q-37 32 -101 32q-61 0 -102 -29q-42 -30 -48 -77h-366q7 179 148 285q139 105 360 105q235 0 353 -123h8q121 123 339 123q255 0 410 -155
q154 -155 154 -411v-111h-747v-26q0 -86 55 -140q55 -55 141 -55q139 0 180 109h366q-26 -181 -174 -286q-149 -105 -378 -105q-141 0 -255 52zM1182 821q-50 -48 -56 -123h358q-5 78 -54 125q-49 46 -125 46q-73 0 -123 -48zM698 299q52 40 52 99v74l-181 -13
q-128 -9 -128 -101q0 -46 34 -72q34 -27 93 -27q77 0 130 40zM782 1275l232 321h347l-265 -321h-314z" />
    <glyph glyph-name="Oslashacute" unicode="&#x1fe;" horiz-adv-x="1584" 
d="M956 1555h-306l232 321h348zM671 341q56 -28 120 -28q134 0 214 111q81 111 81 297q0 151 -54 253zM948 1078q-67 52 -157 52q-133 0 -214 -111t-81 -298t82 -299zM1240 1338q278 -199 278 -617q0 -345 -196 -546q-196 -200 -531 -200q-167 0 -299 51l-64 -112l-103 58
l59 105q-320 192 -320 644q0 345 196 546t531 201q190 0 338 -67l69 122l118 -51z" />
    <glyph glyph-name="oslashacute" unicode="&#x1ff;" horiz-adv-x="1278" 
d="M812 1275h-314l232 321h347zM560 289q35 -23 78 -23q81 0 127 76q46 78 46 220q0 73 -14 132zM730 822q-37 36 -92 36q-80 0 -126 -78q-47 -79 -47 -218q0 -96 21 -162zM1005 1049q222 -154 222 -486q0 -283 -157 -438q-155 -153 -432 -153q-132 0 -241 37l-65 -111
l-103 58l60 104q-240 151 -240 503q0 275 160 433q158 156 429 156q145 0 257 -45l64 110l112 -54z" />
    <glyph glyph-name="uni0200" unicode="&#x200;" horiz-adv-x="1534" 
d="M976 287h-440l-75 -287h-432l471 1443h532l471 -1443h-452zM613 586h286l-139 524h-8zM586 1876h348l232 -321h-306zM106 1876h348l232 -321h-306z" />
    <glyph glyph-name="uni0201" unicode="&#x201;" horiz-adv-x="1231" 
d="M695 297q55 39 55 101v74l-181 -13q-128 -9 -128 -101q0 -46 35 -73q34 -26 92 -26q74 0 127 38zM149 79q-112 99 -112 248q0 322 465 350l248 15v57q0 56 -39 88q-38 31 -100 31q-63 0 -105 -31q-40 -30 -45 -75h-366q8 179 151 284q144 106 387 106q232 0 375 -106
q142 -106 142 -277v-769h-400v152h-8q-43 -80 -136 -125q-87 -43 -190 -43q-158 0 -267 95zM289 1276l-211 320h309l182 -320h-280zM714 1276l-211 320h308l183 -320h-280z" />
    <glyph glyph-name="uni0202" unicode="&#x202;" horiz-adv-x="1534" 
d="M976 287h-440l-75 -287h-432l471 1443h532l471 -1443h-452zM613 586h286l-139 524h-8zM371 1536q5 142 105 235q109 99 290 99t290 -99q100 -93 105 -235h-236q-3 67 -43 106q-43 42 -116 42t-115 -42q-41 -39 -44 -106h-236z" />
    <glyph glyph-name="uni0203" unicode="&#x203;" horiz-adv-x="1231" 
d="M695 297q55 39 55 101v74l-181 -13q-128 -9 -128 -101q0 -46 35 -73q34 -26 92 -26q74 0 127 38zM149 79q-112 99 -112 248q0 322 465 350l248 15v57q0 56 -39 88q-38 31 -100 31q-63 0 -105 -31q-40 -30 -45 -75h-366q8 179 151 284q144 106 387 106q232 0 375 -106
q142 -106 142 -277v-769h-400v152h-8q-43 -80 -136 -125q-87 -43 -190 -43q-158 0 -267 95zM234 1256q5 142 105 235q109 99 290 99t290 -99q100 -93 105 -235h-236q-3 67 -43 106q-43 42 -116 42t-115 -42q-41 -39 -44 -106h-236z" />
    <glyph glyph-name="uni0204" unicode="&#x204;" horiz-adv-x="1216" 
d="M1118 0h-1018v1443h1018v-337h-594v-233h557v-304h-557v-232h594v-337zM428 1876h348l232 -321h-306zM-52 1876h348l232 -321h-306z" />
    <glyph glyph-name="uni0205" unicode="&#x205;" horiz-adv-x="1243" 
d="M507 821q-50 -48 -56 -123h358q-5 78 -54 125q-49 46 -125 46q-73 0 -123 -48zM1187 363q-26 -181 -174 -286q-149 -105 -378 -105q-275 0 -431 155q-155 155 -155 429q0 275 155 436q154 160 418 160q260 0 415 -154t155 -412v-111h-747v-26q0 -86 55 -140
q55 -55 141 -55q140 0 180 109h366zM281 1276l-211 320h309l182 -320h-280zM706 1276l-211 320h308l183 -320h-280z" />
    <glyph glyph-name="uni0206" unicode="&#x206;" horiz-adv-x="1216" 
d="M1117 0h-1018v1443h1018v-337h-594v-233h557v-304h-557v-232h594v-337zM212 1536q5 142 105 235q109 99 290 99t290 -99q100 -93 105 -235h-236q-3 67 -43 106q-43 42 -116 42t-115 -42q-41 -39 -44 -106h-236z" />
    <glyph glyph-name="uni0207" unicode="&#x207;" horiz-adv-x="1243" 
d="M507 821q-50 -48 -56 -123h358q-5 78 -54 125q-49 46 -125 46q-73 0 -123 -48zM1187 363q-26 -181 -174 -286q-149 -105 -378 -105q-275 0 -431 155q-155 155 -155 429q0 275 155 436q154 160 418 160q260 0 415 -154t155 -412v-111h-747v-26q0 -86 55 -140
q55 -55 141 -55q140 0 180 109h366zM226 1256q5 142 105 235q109 99 290 99t290 -99q100 -93 105 -235h-236q-3 67 -43 106q-43 42 -116 42t-115 -42q-41 -39 -44 -106h-236z" />
    <glyph glyph-name="uni0208" unicode="&#x208;" horiz-adv-x="624" 
d="M100 0v1443h424v-1443h-424zM132 1876h348l232 -321h-306zM-348 1876h348l232 -321h-306z" />
    <glyph glyph-name="uni0209" unicode="&#x209;" horiz-adv-x="570" 
d="M80 1124h410v-1124h-410v1124zM-55 1276l-211 320h309l182 -320h-280zM370 1276l-211 320h308l183 -320h-280z" />
    <glyph glyph-name="uni020A" unicode="&#x20a;" horiz-adv-x="624" 
d="M100 0v1443h424v-1443h-424zM-83 1536q5 142 105 235q109 99 290 99t290 -99q100 -93 105 -235h-236q-3 67 -43 106q-43 42 -116 42t-115 -42q-41 -39 -44 -106h-236z" />
    <glyph glyph-name="uni020B" unicode="&#x20b;" horiz-adv-x="570" 
d="M80 1124h410v-1124h-410v1124zM-110 1256q5 142 105 235q109 99 290 99t290 -99q100 -93 105 -235h-236q-3 67 -43 106q-43 42 -116 42t-115 -42q-41 -39 -44 -106h-236z" />
    <glyph glyph-name="uni020C" unicode="&#x20c;" horiz-adv-x="1584" 
d="M1322 1267q196 -201 196 -546t-196 -546q-196 -200 -531 -200q-336 0 -531 200q-196 201 -196 546t196 546t531 201t531 -201zM577 1019q-81 -111 -81 -298q0 -186 81 -297q80 -111 214 -111t214 111q81 111 81 297q0 187 -81 298t-214 111t-214 -111zM611 1876h348
l232 -321h-306zM131 1876h348l232 -321h-306z" />
    <glyph glyph-name="uni020D" unicode="&#x20d;" horiz-adv-x="1278" 
d="M207 125q-158 156 -158 438q0 275 160 433q158 156 429 156q273 0 430 -155q159 -158 159 -434q0 -283 -157 -438q-155 -153 -432 -153q-276 0 -431 153zM765 342q46 78 46 220q0 139 -47 218q-46 78 -126 78t-126 -78q-47 -79 -47 -218q0 -142 46 -220q45 -76 127 -76
q81 0 127 76zM298 1276l-211 320h309l182 -320h-280zM723 1276l-211 320h308l183 -320h-280z" />
    <glyph glyph-name="uni020E" unicode="&#x20e;" horiz-adv-x="1584" 
d="M1322 1267q196 -201 196 -546t-196 -546q-196 -200 -531 -200q-336 0 -531 200q-196 201 -196 546t196 546t531 201t531 -201zM577 1019q-81 -111 -81 -298q0 -186 81 -297q80 -111 214 -111t214 111q81 111 81 297q0 187 -81 298t-214 111t-214 -111zM396 1536
q5 142 105 235q109 99 290 99t290 -99q100 -93 105 -235h-236q-3 67 -43 106q-43 42 -116 42t-115 -42q-41 -39 -44 -106h-236z" />
    <glyph glyph-name="uni020F" unicode="&#x20f;" horiz-adv-x="1278" 
d="M207 125q-158 156 -158 438q0 275 160 433q158 156 429 156q273 0 430 -155q159 -158 159 -434q0 -283 -157 -438q-155 -153 -432 -153q-276 0 -431 153zM765 342q46 78 46 220q0 139 -47 218q-46 78 -126 78t-126 -78q-47 -79 -47 -218q0 -142 46 -220q45 -76 127 -76
q81 0 127 76zM243 1256q5 142 105 235q109 99 290 99t290 -99q100 -93 105 -235h-236q-3 67 -43 106q-43 42 -116 42t-115 -42q-41 -39 -44 -106h-236z" />
    <glyph glyph-name="uni0210" unicode="&#x210;" horiz-adv-x="1395" 
d="M523 764h175q89 0 141 50q51 50 51 132q0 81 -53 132q-53 52 -138 52h-176v-366zM523 0h-424v1443h641q286 0 436 -129q147 -127 147 -361q0 -131 -60 -240q-63 -113 -173 -166l274 -547h-474l-228 484h-139v-484zM517 1876h348l232 -321h-306zM37 1876h348l232 -321
h-306z" />
    <glyph glyph-name="uni0211" unicode="&#x211;" horiz-adv-x="868" 
d="M80 1124h400v-220h8q62 236 263 236q54 0 97 -16v-345q-54 23 -121 23q-237 0 -237 -238v-564h-410v1124zM100 1276l-211 320h309l182 -320h-280zM525 1276l-211 320h308l183 -320h-280z" />
    <glyph glyph-name="uni0212" unicode="&#x212;" horiz-adv-x="1395" 
d="M523 764h175q89 0 141 50q51 50 51 132q0 81 -53 132q-53 52 -138 52h-176v-366zM523 0h-424v1443h641q286 0 436 -129q147 -127 147 -361q0 -131 -60 -240q-63 -113 -173 -166l274 -547h-474l-228 484h-139v-484zM302 1536q5 142 105 235q109 99 290 99t290 -99
q100 -93 105 -235h-236q-3 67 -43 106q-43 42 -116 42t-115 -42q-41 -39 -44 -106h-236z" />
    <glyph glyph-name="uni0213" unicode="&#x213;" horiz-adv-x="868" 
d="M79 1124h400v-220h8q62 236 263 236q54 0 97 -16v-345q-54 23 -121 23q-237 0 -237 -238v-564h-410v1124zM44 1256q5 142 105 235q109 99 290 99t290 -99q100 -93 105 -235h-236q-3 67 -43 106q-43 42 -116 42t-115 -42q-41 -39 -44 -106h-236z" />
    <glyph glyph-name="uni0214" unicode="&#x214;" horiz-adv-x="1472" 
d="M523 561q0 -114 55 -174q54 -61 157 -61t157 61q55 60 55 174v882h424v-929q0 -246 -175 -393q-174 -146 -461 -146t-461 146q-175 147 -175 393v929h424v-882zM555 1876h348l232 -321h-306zM75 1876h348l232 -321h-306z" />
    <glyph glyph-name="uni0215" unicode="&#x215;" horiz-adv-x="1319" 
d="M1238 0h-400v220h-8q-34 -114 -123 -178q-90 -64 -216 -64q-185 0 -299 112q-118 117 -118 313v721h410v-629q0 -88 50 -138q47 -48 125 -48q73 0 121 51q48 52 48 135v629h410v-1124zM319 1276l-211 320h309l182 -320h-280zM744 1276l-211 320h308l183 -320h-280z" />
    <glyph glyph-name="uni0216" unicode="&#x216;" horiz-adv-x="1472" 
d="M523 561q0 -114 55 -174q54 -61 157 -61t157 61q55 60 55 174v882h424v-929q0 -246 -175 -393q-174 -146 -461 -146t-461 146q-175 147 -175 393v929h424v-882zM340 1536q5 142 105 235q109 99 290 99t290 -99q100 -93 105 -235h-236q-3 67 -43 106q-43 42 -116 42
t-115 -42q-41 -39 -44 -106h-236z" />
    <glyph glyph-name="uni0217" unicode="&#x217;" horiz-adv-x="1319" 
d="M1238 0h-400v220h-8q-34 -114 -123 -178q-90 -64 -216 -64q-185 0 -299 112q-118 117 -118 313v721h410v-629q0 -88 50 -138q47 -48 125 -48q73 0 121 51q48 52 48 135v629h410v-1124zM264 1256q5 142 105 235q109 99 290 99t290 -99q100 -93 105 -235h-236
q-3 67 -43 106q-43 42 -116 42t-115 -42q-41 -39 -44 -106h-236z" />
    <glyph glyph-name="uni0218" unicode="&#x218;" horiz-adv-x="1370" 
d="M460 425q9 -60 75 -99q64 -37 151 -37q94 0 150 34q55 34 55 87q0 50 -46 77q-44 26 -162 47l-191 34q-198 34 -304 145q-105 109 -105 279q0 216 168 348q164 128 426 128q285 0 444 -123q155 -121 157 -333h-387q-2 66 -61 105q-57 38 -145 38q-83 0 -132 -32t-49 -86
q0 -51 47 -81q45 -30 149 -48l198 -34q210 -37 311 -139q100 -101 100 -277q0 -221 -171 -352q-172 -131 -460 -131q-292 0 -454 117q-164 118 -165 333h401zM347 -457l152 321h359l-203 -321h-308z" />
    <glyph glyph-name="uni0219" unicode="&#x219;" horiz-adv-x="1172" 
d="M199 1051q139 101 383 101t382 -103q139 -104 139 -287h-372q-1 56 -42 88q-41 33 -110 33q-58 0 -92 -22q-35 -22 -35 -58q0 -55 111 -76l251 -50q167 -33 245 -107q77 -75 77 -203q0 -181 -150 -289q-148 -106 -395 -106q-257 0 -404 106q-142 103 -153 285h396
q7 -57 51 -89q44 -33 115 -33q134 0 134 77q0 52 -108 73l-216 43q-347 69 -347 342q0 175 140 275zM248 -457l152 321h359l-203 -321h-308z" />
    <glyph glyph-name="uni021A" unicode="&#x21a;" horiz-adv-x="1274" 
d="M424 0v1106h-380v337h1184v-337h-380v-1106h-424zM299 -457l152 321h359l-203 -321h-308z" />
    <glyph glyph-name="uni021B" unicode="&#x21b;" horiz-adv-x="847" 
d="M588 1371v-247h198v-298h-198v-423q0 -108 127 -108q41 0 71 5v-285q-73 -15 -170 -15q-235 0 -337 73q-101 73 -101 240v513h-149v298h149v247h410zM143 -457l152 321h359l-203 -321h-308z" />
    <glyph glyph-name="uni021E" unicode="&#x21e;" horiz-adv-x="1556" 
d="M1031 0v558h-508v-558h-424v1443h424v-548h508v548h424v-1443h-424zM365 1872h276l132 -192h8l132 192h276l-255 -336h-314z" />
    <glyph glyph-name="uni021F" unicode="&#x21f;" horiz-adv-x="1328" 
d="M85 1518h400v-614h8q42 117 138 180q94 62 223 62q189 0 294 -112t105 -314v-720h-410v629q0 86 -46 136q-47 50 -127 50q-76 0 -126 -52q-49 -53 -49 -134v-629h-410v1518zM-124 1947h276l132 -192h8l132 192h276l-255 -336h-314z" />
    <glyph glyph-name="uni0226" unicode="&#x226;" horiz-adv-x="1534" 
d="M976 287h-440l-75 -287h-432l471 1443h532l471 -1443h-452zM613 586h286l-139 524h-8zM640 1588q-51 52 -51 125t51 124q51 52 126 52t126 -52q51 -51 51 -124t-51 -125q-52 -52 -126 -52t-126 52z" />
    <glyph glyph-name="uni0227" unicode="&#x227;" horiz-adv-x="1231" 
d="M695 297q55 39 55 101v74l-181 -13q-128 -9 -128 -101q0 -46 35 -73q34 -26 92 -26q74 0 127 38zM149 79q-112 99 -112 248q0 322 465 350l248 15v57q0 56 -39 88q-38 31 -100 31q-63 0 -105 -31q-40 -30 -45 -75h-366q8 179 151 284q144 106 387 106q232 0 375 -106
q142 -106 142 -277v-769h-400v152h-8q-43 -80 -136 -125q-87 -43 -190 -43q-158 0 -267 95zM501 1315q-51 50 -51 122t51 122q51 51 126 51t126 -51q51 -50 51 -122t-51 -122q-51 -51 -126 -51t-126 51z" />
    <glyph glyph-name="uni0228" unicode="&#x228;" horiz-adv-x="1216" 
d="M523 1106v-233h557v-304h-557v-232h594v-337h-394l-46 -89q72 0 117 -46t45 -122q0 -195 -263 -195q-94 0 -133 15v141q38 -12 99 -12q94 0 94 37q0 26 -22 36t-78 10h-56v127l54 98h-435v1443h1018v-337h-594z" />
    <glyph glyph-name="uni0229" unicode="&#x229;" horiz-adv-x="1243" 
d="M809 698q-5 78 -54 125q-49 46 -125 46q-73 0 -123 -48t-56 -123h358zM445 475v-26q0 -86 55 -140q55 -55 141 -55q140 0 180 109h366q-23 -162 -146 -265q-123 -101 -316 -121l-34 -66q72 0 117 -46t45 -122q0 -195 -263 -195q-94 0 -133 15v141q38 -12 99 -12
q94 0 94 37q0 26 -22 36t-78 10h-56v127l42 76q-231 27 -359 178q-128 152 -128 400q0 275 155 436q154 160 418 160q260 0 415 -154t155 -412v-111h-747z" />
    <glyph glyph-name="uni022A" unicode="&#x22a;" horiz-adv-x="1584" 
d="M1322 1267q196 -201 196 -546t-196 -546q-196 -200 -531 -200q-336 0 -531 200q-196 201 -196 546t196 546t531 201t531 -201zM577 1019q-81 -111 -81 -298q0 -186 81 -297q80 -111 214 -111t214 111q81 111 81 297q0 187 -81 298t-214 111t-214 -111zM683 1792
q44 -43 44 -106q0 -62 -44 -106q-46 -44 -114 -44t-113 44t-45 106q0 63 45 106q45 44 113 44t114 -44zM1165 2120v-180h-748v180h748zM1127 1792q44 -43 44 -106q0 -62 -44 -106q-46 -44 -114 -44t-113 44t-45 106q0 63 45 106q45 44 113 44t114 -44z" />
    <glyph glyph-name="uni022B" unicode="&#x22b;" horiz-adv-x="1278" 
d="M207 125q-158 156 -158 438q0 275 160 433q158 156 429 156q273 0 430 -155q159 -158 159 -434q0 -283 -157 -438q-155 -153 -432 -153q-276 0 -431 153zM765 342q46 78 46 220q0 139 -47 218q-46 78 -126 78t-126 -78q-47 -79 -47 -218q0 -142 46 -220q45 -76 127 -76
q81 0 127 76zM322 1297q-42 40 -42 99t42 100q43 41 107 41t107 -41q42 -41 42 -100t-42 -99q-43 -42 -107 -42t-107 42zM740 1297q-42 40 -42 99t42 100q43 41 107 41t107 -41q42 -41 42 -100t-42 -99q-43 -42 -107 -42t-107 42zM990 1660h-704v180h704v-180z" />
    <glyph glyph-name="uni022C" unicode="&#x22c;" horiz-adv-x="1584" 
d="M1322 1267q196 -201 196 -546t-196 -546q-196 -200 -531 -200q-336 0 -531 200q-196 201 -196 546t196 546t531 201t531 -201zM577 1019q-81 -111 -81 -298q0 -186 81 -297q80 -111 214 -111t214 111q81 111 81 297q0 187 -81 298t-214 111t-214 -111zM773 1597
q-82 60 -107 60q-63 0 -69 -101h-201q0 136 74 217q69 76 175 76q83 0 164 -60q82 -61 107 -61q64 0 69 106h201q0 -136 -73 -219q-70 -79 -176 -79q-83 0 -164 61zM1165 1940h-748v180h748v-180z" />
    <glyph glyph-name="uni022D" unicode="&#x22d;" horiz-adv-x="1278" 
d="M207 125q-158 156 -158 438q0 275 160 433q158 156 429 156q273 0 430 -155q159 -158 159 -434q0 -283 -157 -438q-155 -153 -432 -153q-276 0 -431 153zM765 342q46 78 46 220q0 139 -47 218q-46 78 -126 78t-126 -78q-47 -79 -47 -218q0 -142 46 -220q45 -76 127 -76
q81 0 127 76zM628 1318q-80 59 -105 59q-63 0 -69 -101h-201q0 135 75 217q71 76 176 76q83 0 163 -59q80 -60 105 -60q64 0 69 106h201q0 -135 -75 -219q-71 -79 -176 -79q-83 0 -163 60zM990 1660h-704v180h704v-180z" />
    <glyph glyph-name="uni022E" unicode="&#x22e;" horiz-adv-x="1584" 
d="M1322 1267q196 -201 196 -546t-196 -546q-196 -200 -531 -200q-336 0 -531 200q-196 201 -196 546t196 546t531 201t531 -201zM577 1019q-81 -111 -81 -298q0 -186 81 -297q80 -111 214 -111t214 111q81 111 81 297q0 187 -81 298t-214 111t-214 -111zM665 1588
q-51 52 -51 125t51 124q51 52 126 52t126 -52q51 -51 51 -124t-51 -125q-52 -52 -126 -52t-126 52z" />
    <glyph glyph-name="uni022F" unicode="&#x22f;" horiz-adv-x="1278" 
d="M207 125q-158 156 -158 438q0 275 160 433q158 156 429 156q273 0 430 -155q159 -158 159 -434q0 -283 -157 -438q-155 -153 -432 -153q-276 0 -431 153zM765 342q46 78 46 220q0 139 -47 218q-46 78 -126 78t-126 -78q-47 -79 -47 -218q0 -142 46 -220q45 -76 127 -76
q81 0 127 76zM510 1315q-51 50 -51 122t51 122q51 51 126 51t126 -51q51 -50 51 -122t-51 -122q-51 -51 -126 -51t-126 51z" />
    <glyph glyph-name="uni0230" unicode="&#x230;" horiz-adv-x="1584" 
d="M1322 1267q196 -201 196 -546t-196 -546q-196 -200 -531 -200q-336 0 -531 200q-196 201 -196 546t196 546t531 201t531 -201zM577 1019q-81 -111 -81 -298q0 -186 81 -297q80 -111 214 -111t214 111q81 111 81 297q0 187 -81 298t-214 111t-214 -111zM678 1580
q-45 44 -45 106q0 63 45 106q45 44 113 44t114 -44q44 -43 44 -106q0 -62 -44 -106q-46 -44 -114 -44t-113 44zM1165 1940h-748v180h748v-180z" />
    <glyph glyph-name="uni0231" unicode="&#x231;" horiz-adv-x="1278" 
d="M207 125q-158 156 -158 438q0 275 160 433q158 156 429 156q273 0 430 -155q159 -158 159 -434q0 -283 -157 -438q-155 -153 -432 -153q-276 0 -431 153zM765 342q46 78 46 220q0 139 -47 218q-46 78 -126 78t-126 -78q-47 -79 -47 -218q0 -142 46 -220q45 -76 127 -76
q81 0 127 76zM512 1293q-51 50 -51 122t51 122q51 51 126 51t126 -51q51 -50 51 -122t-51 -122q-51 -51 -126 -51t-126 51zM990 1670h-704v180h704v-180z" />
    <glyph glyph-name="uni0232" unicode="&#x232;" horiz-adv-x="1470" 
d="M522 0v457l-493 986h453l253 -585h8l253 585h443l-493 -986v-457h-424zM1108 1606h-748v180h748v-180z" />
    <glyph glyph-name="uni0233" unicode="&#x233;" horiz-adv-x="1246" 
d="M122 -412v306h60q189 0 192 74v20l-374 1136h455l175 -828h8l175 828h433l-339 -1101q-72 -233 -221 -334t-418 -101h-146zM975 1276h-704v180h704v-180z" />
    <glyph glyph-name="uni0237" unicode="&#x237;" horiz-adv-x="570" 
d="M490 7q0 -171 -119 -266q-118 -95 -332 -95q-77 0 -125 6v286q18 -3 47 -3q119 0 119 90v1099h410v-1117z" />
    <glyph glyph-name="circumflex" unicode="&#x2c6;" horiz-adv-x="1016" 
d="M919 1256h-284l-124 180h-8l-124 -180h-284l255 336h314z" />
    <glyph glyph-name="caron" unicode="&#x2c7;" horiz-adv-x="1016" 
d="M350 1256l-255 336h284l124 -180h8l124 180h284l-255 -336h-314z" />
    <glyph glyph-name="breve" unicode="&#x2d8;" horiz-adv-x="1000" 
d="M340 1590q3 -67 44 -106q42 -42 115 -42t116 42q40 39 43 106h236q-5 -142 -105 -234q-109 -100 -290 -100t-290 100q-100 92 -105 234h236z" />
    <glyph glyph-name="dotaccent" unicode="&#x2d9;" horiz-adv-x="1000" 
d="M371 1315q-51 50 -51 122t51 122q51 51 126 51t126 -51q51 -50 51 -122t-51 -122q-51 -51 -126 -51t-126 51z" />
    <glyph glyph-name="ring" unicode="&#x2da;" horiz-adv-x="1016" 
d="M336 1304q-73 70 -73 166q0 97 73 167q72 69 171 69t171 -69q72 -70 72 -167t-72 -166t-171 -69t-171 69zM569 1411q26 25 26 59q0 35 -26 61q-27 25 -62 25t-62 -25q-26 -26 -26 -61q0 -34 26 -59q27 -25 62 -25t62 25z" />
    <glyph glyph-name="ogonek" unicode="&#x2db;" horiz-adv-x="1000" 
d="M717 -451q-60 -23 -157 -23q-117 0 -191 64q-74 63 -74 164q0 154 166 246h198q-127 -71 -127 -174q0 -44 32 -72q31 -28 81 -28q36 0 72 8v-185z" />
    <glyph glyph-name="tilde" unicode="&#x2dc;" horiz-adv-x="1015" 
d="M487 1318q-80 59 -105 59q-63 0 -69 -101h-201q0 135 75 217q71 76 176 76q83 0 163 -59q80 -60 105 -60q64 0 69 106h201q0 -135 -75 -219q-71 -79 -176 -79q-83 0 -163 60z" />
    <glyph glyph-name="hungarumlaut" unicode="&#x2dd;" horiz-adv-x="1000" 
d="M648 1596h309l-211 -320h-280zM224 1596h308l-211 -320h-280z" />
    <glyph glyph-name="gravecomb" unicode="&#x300;" 
d="M-140 1275l-265 321h347l232 -321h-314z" />
    <glyph glyph-name="acutecomb" unicode="&#x301;" 
d="M-165 1275l232 321h347l-265 -321h-314z" />
    <glyph glyph-name="uni0302" unicode="&#x302;" 
d="M412 1256h-284l-124 180h-8l-124 -180h-284l255 336h314z" />
    <glyph glyph-name="tildecomb" unicode="&#x303;" 
d="M-10 1318q-80 59 -105 59q-63 0 -69 -101h-201q0 135 75 217q71 76 176 76q83 0 163 -59q80 -60 105 -60q64 0 69 106h201q0 -135 -75 -219q-71 -79 -176 -79q-83 0 -163 60z" />
    <glyph glyph-name="uni0304" unicode="&#x304;" 
d="M352 1276h-704v180h704v-180z" />
    <glyph glyph-name="uni0306" unicode="&#x306;" 
d="M-159 1590q3 -67 44 -106q42 -42 115 -42t116 42q40 39 43 106h236q-5 -142 -105 -234q-109 -100 -290 -100t-290 100q-100 92 -105 234h236z" />
    <glyph glyph-name="uni0307" unicode="&#x307;" 
d="M-128 1315q-51 50 -51 122t51 122q51 51 126 51t126 -51q51 -50 51 -122t-51 -122q-51 -51 -126 -51t-126 51z" />
    <glyph glyph-name="uni0308" unicode="&#x308;" 
d="M-335 1300q-45 44 -45 106q0 63 45 106q45 44 113 44t114 -44q44 -43 44 -106q0 -62 -44 -106q-46 -44 -114 -44t-113 44zM109 1300q-45 44 -45 106q0 63 45 106q45 44 113 44t114 -44q44 -43 44 -106q0 -62 -44 -106q-46 -44 -114 -44t-113 44z" />
    <glyph glyph-name="hookabovecomb" unicode="&#x309;" 
d="M-188 1702q69 30 165 30q127 0 202 -65q75 -64 75 -173q0 -163 -216 -268l-108 125q99 52 99 122q0 38 -31 60q-32 23 -84 23q-56 0 -102 -18v164z" />
    <glyph glyph-name="uni030A" unicode="&#x30a;" 
d="M-171 1304q-73 70 -73 166q0 97 73 167q72 69 171 69t171 -69q72 -70 72 -167t-72 -166t-171 -69t-171 69zM62 1411q26 25 26 59q0 35 -26 61q-27 25 -62 25t-62 -25q-26 -26 -26 -61q0 -34 26 -59q27 -25 62 -25t62 25z" />
    <glyph glyph-name="uni030B" unicode="&#x30b;" 
d="M242 1596h309l-211 -320h-280zM-182 1596h308l-211 -320h-280z" />
    <glyph glyph-name="uni030C" unicode="&#x30c;" 
d="M-157 1256l-255 336h284l124 -180h8l124 180h284l-255 -336h-314z" />
    <glyph glyph-name="uni030F" unicode="&#x30f;" 
d="M-340 1276l-211 320h309l182 -320h-280zM85 1276l-211 320h308l183 -320h-280z" />
    <glyph glyph-name="uni0311" unicode="&#x311;" 
d="M-395 1256q5 142 105 235q109 99 290 99t290 -99q100 -93 105 -235h-236q-3 67 -43 106q-43 42 -116 42t-115 -42q-41 -39 -44 -106h-236z" />
    <glyph glyph-name="uni031B" unicode="&#x31b;" 
d="M0 1123q23 -3 39 0q41 10 41 79v149h285v-210q0 -132 -64 -205q-64 -74 -177 -74q-87 0 -124 13v248z" />
    <glyph glyph-name="dotbelowcomb" unicode="&#x323;" 
d="M-126 -472q-51 52 -51 125t51 124q51 52 126 52t126 -52q51 -51 51 -124t-51 -125q-52 -52 -126 -52t-126 52z" />
    <glyph glyph-name="uni0324" unicode="&#x324;" 
d="M-335 -432q-45 44 -45 106q0 63 45 106q45 44 113 44t114 -44q44 -43 44 -106q0 -62 -44 -106q-46 -44 -114 -44t-113 44zM109 -432q-45 44 -45 106q0 63 45 106q45 44 113 44t114 -44q44 -43 44 -106q0 -62 -44 -106q-46 -44 -114 -44t-113 44z" />
    <glyph glyph-name="uni0325" unicode="&#x325;" 
d="M-171 -534q-73 70 -73 166q0 97 73 167q72 69 171 69t171 -69q72 -70 72 -167t-72 -166t-171 -69t-171 69zM62 -427q26 25 26 59q0 35 -26 61q-27 25 -62 25t-62 -25q-26 -26 -26 -61q0 -34 26 -59q27 -25 62 -25t62 25z" />
    <glyph glyph-name="uni0326" unicode="&#x326;" 
d="M-337 -457l152 321h359l-203 -321h-308z" />
    <glyph glyph-name="uni0327" unicode="&#x327;" 
d="M-127 -98l63 114l180 -16l-46 -89q72 0 117 -46t45 -122q0 -195 -263 -195q-94 0 -133 15v141q38 -12 99 -12q94 0 94 37q0 26 -22 36t-78 10h-56v127z" />
    <glyph glyph-name="uni0328" unicode="&#x328;" 
d="M236 -451q-60 -23 -157 -23q-117 0 -191 64q-74 63 -74 164q0 154 166 246h198q-127 -71 -127 -174q0 -44 32 -72q31 -28 81 -28q36 0 72 8v-185z" />
    <glyph glyph-name="uni032D" unicode="&#x32d;" 
d="M157 -154l255 -336h-276l-132 192h-8l-132 -192h-276l255 336h314z" />
    <glyph glyph-name="uni032E" unicode="&#x32e;" 
d="M-159 -156q3 -67 44 -106q42 -42 115 -42t116 42q40 39 43 106h236q-5 -142 -105 -234q-109 -100 -290 -100t-290 100q-100 92 -105 234h236z" />
    <glyph glyph-name="uni0330" unicode="&#x330;" 
d="M-10 -396q-80 59 -105 59q-63 0 -69 -101h-201q0 135 75 217q71 76 176 76q83 0 163 -59q80 -60 105 -60q64 0 69 106h201q0 -135 -75 -219q-71 -79 -176 -79q-83 0 -163 60z" />
    <glyph glyph-name="uni0331" unicode="&#x331;" 
d="M374 -420h-748v180h748v-180z" />
    <glyph glyph-name="uni037E" unicode="&#x37e;" horiz-adv-x="742" 
d="M165 741q-61 61 -61 147t61 147t147 61t147 -61t61 -147t-61 -147t-147 -61t-147 61zM51 -285l66 622h364l-123 -622h-307z" />
    <glyph glyph-name="tonos" unicode="&#x384;" horiz-adv-x="884" 
d="M287 1616h392l-156 -341h-320z" />
    <glyph glyph-name="dieresistonos" unicode="&#x385;" horiz-adv-x="1396" 
d="M182 1300q-45 44 -45 106q0 63 45 106q45 44 113 44t114 -44q44 -43 44 -106q0 -62 -44 -106q-46 -44 -114 -44t-113 44zM986 1300q-45 44 -45 106q0 63 45 106q45 44 113 44t114 -44q44 -43 44 -106q0 -62 -44 -106q-46 -44 -114 -44t-113 44zM532 1276l20 340h373
l-143 -340h-250z" />
    <glyph glyph-name="Alphatonos" unicode="&#x386;" horiz-adv-x="1798" 
d="M1152 287h-440l-75 -287h-432l471 1443h532l471 -1443h-452zM789 586h286l-139 524h-8zM81 1102l74 341h392l-166 -341h-300z" />
    <glyph glyph-name="anoteleia" unicode="&#x387;" horiz-adv-x="732" 
d="M218 803q-61 61 -61 147t61 147t147 61t147 -61t61 -147t-61 -147t-147 -61t-147 61z" />
    <glyph glyph-name="Epsilontonos" unicode="&#x388;" horiz-adv-x="1753" 
d="M1632 0h-1018v1443h1018v-337h-594v-233h557v-304h-557v-232h594v-337zM29 1102l74 341h392l-166 -341h-300z" />
    <glyph glyph-name="Etatonos" unicode="&#x389;" horiz-adv-x="2115" 
d="M1546 0v558h-508v-558h-424v1443h424v-548h508v548h424v-1443h-424zM29 1102l74 341h392l-166 -341h-300z" />
    <glyph glyph-name="Iotatonos" unicode="&#x38a;" horiz-adv-x="1183" 
d="M614 0v1443h424v-1443h-424zM29 1102l74 341h392l-166 -341h-300z" />
    <glyph glyph-name="Omicrontonos" unicode="&#x38c;" horiz-adv-x="1929" 
d="M1667 1267q196 -201 196 -546t-196 -546q-196 -200 -531 -200q-336 0 -531 200q-196 201 -196 546t196 546t531 201t531 -201zM922 1019q-81 -111 -81 -298q0 -186 81 -297q80 -111 214 -111t214 111q81 111 81 297q0 187 -81 298t-214 111t-214 -111zM29 1102l74 341
h392l-166 -341h-300z" />
    <glyph glyph-name="Upsilontonos" unicode="&#x38e;" horiz-adv-x="1995" 
d="M1046 0v457l-493 986h453l253 -585h8l253 585h443l-493 -986v-457h-424zM29 1102l74 341h392l-166 -341h-300z" />
    <glyph glyph-name="Omegatonos" unicode="&#x38f;" horiz-adv-x="1954" 
d="M1372 1040q-85 90 -226 90t-226 -90q-89 -94 -89 -258q0 -266 206 -378v-404h-628v316h273v8q-123 63 -196 191q-77 135 -77 307q0 289 205 468q204 178 532 178t532 -178q205 -179 205 -468q0 -172 -77 -307q-73 -128 -196 -191v-8h273v-316h-628v404q206 112 206 378
q0 164 -89 258zM29 1102l74 341h392l-166 -341h-300z" />
    <glyph glyph-name="iotadieresistonos" unicode="&#x390;" horiz-adv-x="738" 
d="M184 73q-104 73 -104 240v811h410v-721q0 -108 132 -108q50 0 86 5l10 -285q-70 -15 -196 -15q-235 0 -338 73zM-197 1300q-45 44 -45 106q0 63 45 106q45 44 113 44t114 -44q44 -43 44 -106q0 -62 -44 -106q-46 -44 -114 -44t-113 44zM607 1300q-45 44 -45 106
q0 63 45 106q45 44 113 44t114 -44q44 -43 44 -106q0 -62 -44 -106q-46 -44 -114 -44t-113 44zM153 1276l20 340h373l-143 -340h-250z" />
    <glyph glyph-name="Alpha" unicode="&#x391;" horiz-adv-x="1534" 
d="M976 287h-440l-75 -287h-432l471 1443h532l471 -1443h-452zM613 586h286l-139 524h-8z" />
    <glyph glyph-name="Beta" unicode="&#x392;" horiz-adv-x="1405" 
d="M99 0v1443h709q221 0 345 -96q123 -95 123 -264q0 -123 -84 -210q-82 -86 -209 -102v-8q148 -4 252 -102q106 -99 106 -241q0 -190 -139 -305t-370 -115h-733zM523 865h164q81 0 129 39t48 105q0 67 -45 105q-46 38 -126 38h-170v-287zM704 291q99 0 152 43q54 44 54 125
q0 77 -54 120t-149 43h-184v-331h181z" />
    <glyph glyph-name="Gamma" unicode="&#x393;" horiz-adv-x="1167" 
d="M121 0v1443h994v-337h-570v-1106h-424z" />
    <glyph glyph-name="uni0394" unicode="&#x394;" horiz-adv-x="1490" 
d="M49 0v217l429 1226h532l429 -1226v-217h-1390zM483 336h479v8l-232 775h-8l-239 -775v-8z" />
    <glyph glyph-name="Epsilon" unicode="&#x395;" horiz-adv-x="1238" 
d="M1117 0h-1018v1443h1018v-337h-594v-233h557v-304h-557v-232h594v-337z" />
    <glyph glyph-name="Zeta" unicode="&#x396;" horiz-adv-x="1323" 
d="M79 266l643 832v8h-637v337h1131v-265l-641 -833v-8h665v-337h-1161v266z" />
    <glyph glyph-name="Eta" unicode="&#x397;" horiz-adv-x="1600" 
d="M1031 0v558h-508v-558h-424v1443h424v-548h508v548h424v-1443h-424z" />
    <glyph glyph-name="Theta" unicode="&#x398;" horiz-adv-x="1663" 
d="M620 568v294h418v-294h-418zM1400 1264q197 -198 197 -542q0 -343 -202 -543q-206 -204 -564 -204q-359 0 -565 204q-202 200 -202 543q0 344 197 542q203 204 570 204q366 0 569 -204zM578 1023q-88 -106 -88 -301t88 -302q89 -107 253 -107q163 0 252 107
q88 107 88 302t-88 301q-89 107 -252 107q-164 0 -253 -107z" />
    <glyph glyph-name="Iota" unicode="&#x399;" horiz-adv-x="668" 
d="M99 0v1443h424v-1443h-424z" />
    <glyph glyph-name="Kappa" unicode="&#x39a;" horiz-adv-x="1467" 
d="M99 0v1443h424v-612h8l446 612h445l-475 -641l497 -802h-493l-315 530l-113 -152v-378h-424z" />
    <glyph glyph-name="Lambda" unicode="&#x39b;" horiz-adv-x="1513" 
d="M750 1110h-8l-281 -1110h-432l461 1443h532l460 -1443h-451z" />
    <glyph glyph-name="Mu" unicode="&#x39c;" horiz-adv-x="1878" 
d="M1732 0h-370v836h-8l-325 -819h-227l-325 819h-8v-836h-370v1443h490l323 -842h8l322 842h490v-1443z" />
    <glyph glyph-name="Nu" unicode="&#x39d;" horiz-adv-x="1538" 
d="M99 0v1443h329l557 -748h8v748h400v-1443h-325l-561 760h-8v-760h-400z" />
    <glyph glyph-name="Xi" unicode="&#x39e;" horiz-adv-x="1312" 
d="M1213 1443v-346h-1116v346h1116zM184 563v314h942v-314h-942zM1213 346v-346h-1116v346h1116z" />
    <glyph glyph-name="Omicron" unicode="&#x39f;" horiz-adv-x="1584" 
d="M1322 1267q196 -201 196 -546t-196 -546q-196 -200 -531 -200q-336 0 -531 200q-196 201 -196 546t196 546t531 201t531 -201zM577 1019q-81 -111 -81 -298q0 -186 81 -297q80 -111 214 -111t214 111q81 111 81 297q0 187 -81 298t-214 111t-214 -111z" />
    <glyph glyph-name="Pi" unicode="&#x3a0;" horiz-adv-x="1580" 
d="M1033 0v1107h-488v-1107h-424v1443h1336v-1443h-424z" />
    <glyph glyph-name="Rho" unicode="&#x3a1;" horiz-adv-x="1369" 
d="M758 1443q242 0 389 -143q148 -143 148 -383q0 -237 -157 -381q-155 -142 -409 -142h-206v-394h-424v1443h659zM523 707h119q107 0 165 53q60 54 60 156q0 101 -59 155q-58 53 -163 53h-122v-417z" />
    <glyph glyph-name="Sigma" unicode="&#x3a3;" horiz-adv-x="1314" 
d="M602 337h629v-337h-1150v239l345 483l-321 436v285h1103v-337h-571v-8l251 -363v-8l-286 -382v-8z" />
    <glyph glyph-name="Tau" unicode="&#x3a4;" horiz-adv-x="1306" 
d="M424 0v1106h-380v337h1184v-337h-380v-1106h-424z" />
    <glyph glyph-name="Upsilon" unicode="&#x3a5;" horiz-adv-x="1470" 
d="M522 0v457l-493 986h453l253 -585h8l253 585h443l-493 -986v-457h-424z" />
    <glyph glyph-name="Phi" unicode="&#x3a6;" horiz-adv-x="1946" 
d="M1401 977q-85 101 -242 121v-776q157 20 242 121q86 101 86 267t-86 267zM543 443q85 -101 242 -121v776q-157 -20 -242 -121q-86 -101 -86 -267t86 -267zM785 -153v158q-324 16 -529 210q-207 197 -207 495t207 495q205 194 529 210v158h374v-158q324 -16 529 -210
q207 -197 207 -495t-207 -495q-205 -194 -529 -210v-158h-374z" />
    <glyph glyph-name="Chi" unicode="&#x3a7;" horiz-adv-x="1509" 
d="M465 723v8l-426 712h494l227 -460h8l228 460h470l-447 -714v-8l445 -721h-472l-248 435h-9l-247 -435h-448z" />
    <glyph glyph-name="Psi" unicode="&#x3a8;" horiz-adv-x="1794" 
d="M699 0v279q-293 9 -456 177q-162 166 -162 452v535h394v-546q0 -260 224 -293v839h394v-839q224 33 224 293v546h394v-535q0 -286 -162 -452q-163 -168 -456 -177v-279h-394z" />
    <glyph glyph-name="uni03A9" unicode="&#x3a9;" horiz-adv-x="1614" 
d="M1032 1040q-85 90 -226 90t-226 -90q-89 -94 -89 -258q0 -266 206 -378v-404h-628v316h273v8q-123 63 -196 191q-77 135 -77 307q0 289 205 468q204 178 532 178t532 -178q205 -179 205 -468q0 -172 -77 -307q-73 -128 -196 -191v-8h273v-316h-628v404q206 112 206 378
q0 164 -89 258z" />
    <glyph glyph-name="Iotadieresis" unicode="&#x3aa;" horiz-adv-x="484" 
d="M8 0v1443h424v-1443h-424zM-115 1580q-45 44 -45 106q0 63 45 106q45 44 113 44t114 -44q44 -43 44 -106q0 -62 -44 -106q-46 -44 -114 -44t-113 44zM329 1580q-45 44 -45 106q0 63 45 106q45 44 113 44t114 -44q44 -43 44 -106q0 -62 -44 -106q-46 -44 -114 -44t-113 44
z" />
    <glyph glyph-name="Upsilondieresis" unicode="&#x3ab;" horiz-adv-x="1470" 
d="M522 0v457l-493 986h453l253 -585h8l253 585h443l-493 -986v-457h-424zM399 1580q-45 44 -45 106q0 63 45 106q45 44 113 44t114 -44q44 -43 44 -106q0 -62 -44 -106q-46 -44 -114 -44t-113 44zM843 1580q-45 44 -45 106q0 63 45 106q45 44 113 44t114 -44
q44 -43 44 -106q0 -62 -44 -106q-46 -44 -114 -44t-113 44z" />
    <glyph glyph-name="alphatonos" unicode="&#x3ac;" horiz-adv-x="1452" 
d="M788 371q48 69 48 190q0 120 -49 192q-49 71 -131 71q-81 0 -129 -71t-48 -191q0 -121 48 -191q47 -70 130 -70t131 70zM179 135q-120 152 -120 430q0 273 120 424q119 151 335 151q105 0 191 -55q94 -60 131 -163h8v202h410v-727q0 -67 17 -93q18 -26 62 -26q40 0 58 11
l10 -276q-73 -23 -194 -23q-236 0 -320 161q-10 19 -19 41h-8q-113 -208 -341 -208q-220 0 -340 151zM598 1616h392l-156 -341h-320z" />
    <glyph glyph-name="epsilontonos" unicode="&#x3ad;" horiz-adv-x="1275" 
d="M214 60q-150 89 -150 244q0 95 55 167t151 102v8q-181 67 -181 237q0 153 150 244q149 90 397 90q265 0 419 -105q156 -106 180 -307h-397q-33 118 -186 118q-72 0 -115 -22q-44 -23 -44 -64q0 -72 156 -72h138v-267h-136q-168 0 -168 -80q0 -41 41 -64q40 -23 107 -23
q174 0 217 140h421q-22 -194 -204 -314q-180 -120 -445 -120q-258 0 -406 88zM544 1616h392l-156 -341h-320z" />
    <glyph glyph-name="etatonos" unicode="&#x3ae;" horiz-adv-x="1436" 
d="M945 -332v961q0 86 -46 136t-125 50q-75 0 -124 -52q-49 -53 -49 -134v-629h-410v725q0 121 -88 121q-36 0 -73 -11v276q74 23 197 23q255 0 338 -178q10 -19 20 -52h8q39 112 134 176q97 66 231 66q188 0 293 -112q104 -113 104 -314v-1052h-410zM552 1616h392
l-156 -341h-320z" />
    <glyph glyph-name="iotatonos" unicode="&#x3af;" horiz-adv-x="738" 
d="M183 77q-104 73 -104 240v811h410v-721q0 -108 132 -108q50 0 86 5l10 -285q-70 -15 -196 -15q-235 0 -338 73zM197 1616h392l-156 -341h-320z" />
    <glyph glyph-name="upsilondieresistonos" unicode="&#x3b0;" horiz-adv-x="1240" 
d="M205 104q-126 123 -126 377v643h380v-582q0 -123 38 -177q38 -55 124 -55q89 0 127 70q39 69 39 228q0 237 -80 516h390q82 -210 82 -519q0 -305 -146 -466t-426 -161q-273 0 -402 126zM72 1300q-45 44 -45 106q0 63 45 106q45 44 113 44t114 -44q44 -43 44 -106
q0 -62 -44 -106q-46 -44 -114 -44t-113 44zM876 1300q-45 44 -45 106q0 63 45 106q45 44 113 44t114 -44q44 -43 44 -106q0 -62 -44 -106q-46 -44 -114 -44t-113 44zM422 1276l20 340h373l-143 -340h-250z" />
    <glyph glyph-name="alpha" unicode="&#x3b1;" horiz-adv-x="1457" 
d="M788 371q48 69 48 190q0 120 -49 192q-49 71 -131 71q-81 0 -129 -71t-48 -191q0 -121 48 -191q47 -70 130 -70t131 70zM179 135q-120 152 -120 430q0 273 120 424q119 151 335 151q105 0 191 -55q94 -60 131 -163h8v202h410v-727q0 -67 17 -93q18 -26 62 -26q40 0 58 11
l10 -276q-73 -23 -194 -23q-236 0 -320 161q-10 19 -19 41h-8q-113 -208 -341 -208q-220 0 -340 151z" />
    <glyph glyph-name="beta" unicode="&#x3b2;" horiz-adv-x="1339" 
d="M577 931h57q78 0 124 40t46 107q0 71 -40 112q-41 40 -113 40q-79 0 -121 -53q-43 -53 -43 -151v-456q0 -269 209 -269q77 0 123 44q45 43 45 117q0 89 -57 139q-58 52 -165 52h-65v278zM79 932q0 604 580 604q236 0 369 -103q135 -105 135 -290q0 -108 -56 -190
q-57 -81 -159 -122v-8q335 -71 335 -410q0 -199 -118 -315q-117 -114 -317 -114q-124 0 -215 54q-94 55 -136 156h-8v-526h-410v1264z" />
    <glyph glyph-name="gamma" unicode="&#x3b3;" horiz-adv-x="1262" 
d="M1098 462q-91 -217 -304 -509v-285h-400v236l-414 1220h423l216 -801h8q169 281 169 614q0 107 -12 187h398q14 -95 14 -185q0 -243 -98 -477z" />
    <glyph glyph-name="delta" unicode="&#x3b4;" horiz-adv-x="1251" 
d="M198 108q-149 134 -149 379q0 174 102 302q99 125 267 167v8q-186 91 -186 272q0 143 116 221q117 79 332 79q267 0 416 -62l-10 -275q-156 59 -323 59q-96 0 -96 -64q0 -43 75 -88q262 -156 367 -309q86 -126 86 -290q0 -243 -155 -389t-416 -146q-276 0 -426 136z
M773 504q0 123 -40 191q-41 69 -116 69q-76 0 -118 -70q-42 -68 -42 -190q0 -259 160 -259q156 0 156 259z" />
    <glyph glyph-name="epsilon" unicode="&#x3b5;" horiz-adv-x="1295" 
d="M214 60q-150 89 -150 244q0 95 55 167t151 102v8q-181 67 -181 237q0 153 150 244q149 90 397 90q265 0 419 -105q156 -106 180 -307h-397q-33 118 -186 118q-72 0 -115 -22q-44 -23 -44 -64q0 -72 156 -72h138v-267h-136q-168 0 -168 -80q0 -41 41 -64q40 -23 107 -23
q174 0 217 140h421q-22 -194 -204 -314q-180 -120 -445 -120q-258 0 -406 88z" />
    <glyph glyph-name="zeta" unicode="&#x3b6;" horiz-adv-x="1096" 
d="M606 -361q84 127 84 223q0 66 -38 104t-140 73q-255 87 -361 205q-97 107 -97 272q0 161 92 316q93 158 315 370v8h-331v308h926v-247q-592 -397 -592 -666q0 -85 45 -128q47 -46 203 -106q204 -78 281 -164q77 -87 77 -237q0 -195 -151 -393z" />
    <glyph glyph-name="eta" unicode="&#x3b7;" horiz-adv-x="1436" 
d="M945 -332v961q0 86 -46 136t-125 50q-75 0 -124 -52q-49 -53 -49 -134v-629h-410v725q0 121 -88 121q-36 0 -73 -11v276q74 23 197 23q255 0 338 -178q10 -19 20 -52h8q39 112 134 176q97 66 231 66q188 0 293 -112q104 -113 104 -314v-1052h-410z" />
    <glyph glyph-name="theta" unicode="&#x3b8;" horiz-adv-x="1319" 
d="M206 166q-147 194 -147 592q0 382 152 580t448 198q295 0 447 -198t152 -580q0 -397 -147 -591q-148 -195 -452 -195q-305 0 -453 194zM805 339q46 88 46 279h-385q0 -191 46 -278q47 -88 147 -88t146 87zM851 896q0 361 -192 361q-193 0 -193 -361h385z" />
    <glyph glyph-name="iota" unicode="&#x3b9;" horiz-adv-x="738" 
d="M183 73q-104 73 -104 240v811h410v-721q0 -108 132 -108q50 0 86 5l10 -285q-70 -15 -196 -15q-235 0 -338 73z" />
    <glyph glyph-name="kappa" unicode="&#x3ba;" horiz-adv-x="1313" 
d="M79 1124h400v-437h8l222 253q101 115 166 153q70 41 173 41q108 0 169 -22v-277q-24 11 -70 11q-66 0 -128 -66l-158 -169l395 -611h-422l-254 393l-101 -110v-283h-400v1124z" />
    <glyph glyph-name="lambda" unicode="&#x3bb;" horiz-adv-x="1272" 
d="M459 1055l-17 45q-31 81 -74 115q-45 33 -123 33q-67 0 -89 -11v276q63 23 177 23q187 0 280 -85q96 -88 191 -356l244 -689q27 -75 57 -102q28 -26 83 -26q39 0 59 11l10 -276q-57 -23 -196 -23q-137 0 -214 48q-79 49 -114 160l-117 375h-8l-213 -573h-395z" />
    <glyph glyph-name="uni03BC" unicode="&#x3bc;" horiz-adv-x="1461" 
d="M79 1124h410v-623q0 -91 47 -141q46 -51 130 -51q72 0 120 53q47 53 47 133v629h410v-727q0 -67 17 -93q18 -26 62 -26q40 0 58 11l10 -276q-85 -23 -199 -23q-123 0 -197 40q-75 39 -121 130l-15 32h-8q-24 -100 -91 -157q-68 -57 -163 -57q-65 0 -99 22h-8v-332h-410
v1456z" />
    <glyph glyph-name="nu" unicode="&#x3bd;" horiz-adv-x="1261" 
d="M-20 1124h423l216 -801h8q168 286 168 614q0 108 -12 187h398q14 -98 14 -185q0 -233 -80 -436q-77 -194 -285 -503h-470z" />
    <glyph glyph-name="xi" unicode="&#x3be;" horiz-adv-x="1105" 
d="M606 -361q84 127 84 224q0 67 -40 105q-40 37 -158 80q-263 96 -355 185q-83 81 -83 221q0 113 73 190q67 71 180 95v8q-191 75 -191 233q0 176 231 222v8h-227v308h907v-269l-156 -21q-215 -29 -287 -64q-68 -33 -68 -102q0 -105 193 -105h237v-288h-261
q-220 0 -220 -113q0 -58 50 -94q49 -36 208 -95q193 -71 270 -159t77 -237q0 -195 -151 -394z" />
    <glyph glyph-name="omicron" unicode="&#x3bf;" horiz-adv-x="1288" 
d="M209 128q-155 155 -155 435q0 273 158 431t431 158q275 0 432 -157t157 -432q0 -280 -155 -436q-155 -155 -434 -155q-278 0 -434 156zM768 353q44 74 44 209q0 132 -45 208t-124 76t-124 -76t-45 -208q0 -135 44 -209q45 -75 125 -75t125 75z" />
    <glyph glyph-name="pi" unicode="&#x3c0;" horiz-adv-x="1625" 
d="M292 815h-218v309h1465v-309h-242v-420q0 -117 113 -117q24 0 58 11l10 -276q-66 -23 -206 -23q-205 0 -285 73q-80 74 -80 262v490h-225v-815h-390v815z" />
    <glyph glyph-name="rho" unicode="&#x3c1;" horiz-adv-x="1319" 
d="M794 370q49 69 49 198q0 131 -47 205q-47 73 -131 73q-91 0 -139 -73q-47 -72 -47 -206q0 -266 179 -266q88 0 136 69zM69 532q0 290 164 456q161 164 439 164q279 0 435 -156t156 -434q0 -271 -121 -425q-121 -153 -336 -153q-110 0 -195 56q-85 55 -125 154h-8v-526
h-409v864z" />
    <glyph glyph-name="sigma1" unicode="&#x3c2;" horiz-adv-x="1226" 
d="M606 -361q84 127 84 224q0 65 -38 103t-140 74q-241 85 -348 210q-110 129 -110 335q0 262 155 414q155 153 422 153q243 0 388 -132q144 -131 151 -358h-369q-8 86 -52 135t-111 49q-83 0 -129 -54q-45 -55 -45 -155q0 -91 49 -147q56 -63 199 -118q204 -78 281 -164
q77 -87 77 -237q0 -196 -151 -394z" />
    <glyph glyph-name="sigma" unicode="&#x3c3;" horiz-adv-x="1433" 
d="M198 119q-154 148 -154 407q0 267 170 433q171 165 446 165h717v-309h-253v-8q87 -99 87 -292q0 -250 -159 -396q-159 -147 -430 -147q-270 0 -424 147zM756 345q47 76 47 205q0 115 -45 183q-45 67 -118 67q-83 0 -129 -70q-47 -69 -47 -193q0 -122 48 -196
q46 -71 118 -71q79 0 126 75z" />
    <glyph glyph-name="tau" unicode="&#x3c4;" horiz-adv-x="1181" 
d="M469 73q-102 73 -102 240v502h-313v309h1111v-309h-389v-412q0 -108 130 -108q40 0 81 5l10 -285q-73 -15 -192 -15q-234 0 -336 73z" />
    <glyph glyph-name="upsilon" unicode="&#x3c5;" horiz-adv-x="1240" 
d="M205 104q-126 123 -126 377v643h380v-582q0 -123 38 -177q38 -55 124 -55q89 0 127 70q39 69 39 228q0 237 -80 516h390q82 -210 82 -519q0 -305 -146 -466t-426 -161q-273 0 -402 126z" />
    <glyph glyph-name="phi" unicode="&#x3c6;" horiz-adv-x="1674" 
d="M653 -29q-269 9 -440 160q-184 161 -184 432t184 433q171 151 440 160v245h366v-245q269 -9 440 -160q184 -162 184 -433t-184 -432q-171 -151 -440 -160v-303h-366v303zM1009 271q116 6 180 78q68 75 68 214t-67 214q-64 72 -181 78v-584zM663 855q-117 -6 -181 -78
q-67 -75 -67 -214t68 -214q64 -72 180 -78v584z" />
    <glyph glyph-name="chi" unicode="&#x3c7;" horiz-adv-x="1320" 
d="M481 369l-197 353q-44 79 -81 105q-28 19 -77 19q-36 0 -65 -11v277q77 22 183 22q131 0 209 -45q76 -43 133 -148l127 -233h8l220 416h399l-437 -756l165 -298q38 -68 70 -95q35 -29 85 -29q42 0 69 11v-276q-71 -23 -194 -23q-126 0 -200 42q-71 41 -125 139l-105 191
h-8l-178 -362h-400z" />
    <glyph glyph-name="psi" unicode="&#x3c8;" horiz-adv-x="1703" 
d="M651 -21q-281 1 -427 129q-145 127 -145 374v642h380v-542q0 -168 37 -219q36 -52 155 -52v1090h385v-1087q102 0 158 77t56 219q0 236 -80 514h390q82 -210 82 -518q0 -306 -155 -466q-155 -161 -451 -161v-311h-385v311z" />
    <glyph glyph-name="omega" unicode="&#x3c9;" horiz-adv-x="1712" 
d="M59 535q0 336 152 589h397q-159 -312 -159 -604q0 -114 29 -165q28 -51 91 -51q106 0 106 130v370h360v-370q0 -130 105 -130q63 0 92 51q29 52 29 165q0 292 -159 604h397q152 -253 152 -589q0 -563 -456 -563q-235 0 -336 251h-8q-101 -251 -336 -251q-456 0 -456 563z
" />
    <glyph glyph-name="iotadieresis" unicode="&#x3ca;" horiz-adv-x="738" 
d="M184 73q-104 73 -104 240v811h410v-721q0 -108 132 -108q50 0 86 5l10 -285q-70 -15 -196 -15q-235 0 -338 73zM-45 1300q-45 44 -45 106q0 63 45 106q45 44 113 44t114 -44q44 -43 44 -106q0 -62 -44 -106q-46 -44 -114 -44t-113 44zM399 1300q-45 44 -45 106
q0 63 45 106q45 44 113 44t114 -44q44 -43 44 -106q0 -62 -44 -106q-46 -44 -114 -44t-113 44z" />
    <glyph glyph-name="upsilondieresis" unicode="&#x3cb;" horiz-adv-x="1240" 
d="M205 104q-126 123 -126 377v643h380v-582q0 -123 38 -177q38 -55 124 -55q89 0 127 70q39 69 39 228q0 237 -80 516h390q82 -210 82 -519q0 -305 -146 -466t-426 -161q-273 0 -402 126zM260 1300q-45 44 -45 106q0 63 45 106q45 44 113 44t114 -44q44 -43 44 -106
q0 -62 -44 -106q-46 -44 -114 -44t-113 44zM704 1300q-45 44 -45 106q0 63 45 106q45 44 113 44t114 -44q44 -43 44 -106q0 -62 -44 -106q-46 -44 -114 -44t-113 44z" />
    <glyph glyph-name="omicrontonos" unicode="&#x3cc;" horiz-adv-x="1288" 
d="M209 128q-155 155 -155 435q0 273 158 431t431 158q275 0 432 -157t157 -432q0 -280 -155 -436q-155 -155 -434 -155q-278 0 -434 156zM768 353q44 74 44 209q0 132 -45 208t-124 76t-124 -76t-45 -208q0 -135 44 -209q45 -75 125 -75t125 75zM561 1616h392l-156 -341
h-320z" />
    <glyph glyph-name="upsilontonos" unicode="&#x3cd;" horiz-adv-x="1240" 
d="M205 104q-126 123 -126 377v643h380v-582q0 -123 38 -177q38 -55 124 -55q89 0 127 70q39 69 39 228q0 237 -80 516h390q82 -210 82 -519q0 -305 -146 -466t-426 -161q-273 0 -402 126zM490 1616h392l-156 -341h-320z" />
    <glyph glyph-name="omegatonos" unicode="&#x3ce;" horiz-adv-x="1712" 
d="M59 535q0 336 152 589h397q-159 -312 -159 -604q0 -114 29 -165q28 -51 91 -51q106 0 106 130v370h360v-370q0 -130 105 -130q63 0 92 51q29 52 29 165q0 292 -159 604h397q152 -253 152 -589q0 -563 -456 -563q-235 0 -336 251h-8q-101 -251 -336 -251q-456 0 -456 563z
M735 1616h392l-156 -341h-320z" />
    <glyph glyph-name="uni0401" unicode="&#x401;" horiz-adv-x="1258" 
d="M1127 0h-1018v1443h1018v-337h-594v-233h557v-304h-557v-232h594v-337zM282 1580q-45 44 -45 106q0 63 45 106q45 44 113 44t114 -44q44 -43 44 -106q0 -62 -44 -106q-46 -44 -114 -44t-113 44zM726 1580q-45 44 -45 106q0 63 45 106q45 44 113 44t114 -44
q44 -43 44 -106q0 -62 -44 -106q-46 -44 -114 -44t-113 44z" />
    <glyph glyph-name="uni0402" unicode="&#x402;" horiz-adv-x="1809" 
d="M989 -101v312q34 -9 109 -9q95 0 149 46q55 47 55 134q0 81 -54 127q-53 45 -150 45q-164 0 -229 -115v-439h-424v1107h-381v336h1186v-336h-381v-298h8q125 97 330 97q253 0 393 -143q128 -132 128 -347q0 -242 -151 -386q-156 -148 -426 -148q-104 0 -162 17z" />
    <glyph glyph-name="uni0403" unicode="&#x403;" horiz-adv-x="1196" 
d="M131 0v1443h1004v-336h-580v-1107h-424zM486 1525l232 321h348l-274 -321h-306z" />
    <glyph glyph-name="uni0404" unicode="&#x404;" horiz-adv-x="1537" 
d="M1466 542q-17 -258 -203 -420q-187 -162 -468 -162q-332 0 -524 203t-192 559t193 559q191 202 523 202q274 0 463 -164q189 -163 206 -416h-410q-18 106 -88 169q-71 63 -171 63q-104 0 -178 -67q-77 -70 -96 -190h492v-306h-494q18 -124 96 -195q75 -69 181 -69
q101 0 171 63t89 171h410z" />
    <glyph glyph-name="uni0405" unicode="&#x405;" horiz-adv-x="1392" 
d="M470 425q9 -60 75 -99q64 -37 151 -37q94 0 150 34q55 34 55 87q0 50 -46 77q-44 26 -162 47l-191 34q-198 34 -304 145q-105 109 -105 279q0 216 168 348q164 128 426 128q285 0 444 -123q155 -121 157 -333h-387q-2 66 -61 105q-57 38 -145 38q-83 0 -132 -32t-49 -86
q0 -51 47 -81q45 -30 149 -48l198 -34q210 -37 311 -139q100 -101 100 -277q0 -221 -171 -352q-172 -131 -460 -131q-292 0 -454 117q-164 118 -165 333h401z" />
    <glyph glyph-name="uni0406" unicode="&#x406;" horiz-adv-x="776" 
d="M109 0v1443h424v-1443h-424z" />
    <glyph glyph-name="uni0407" unicode="&#x407;" horiz-adv-x="776" 
d="M110 0v1443h424v-1443h-424zM-13 1580q-45 44 -45 106q0 63 45 106q45 44 113 44t114 -44q44 -43 44 -106q0 -62 -44 -106q-46 -44 -114 -44t-113 44zM431 1580q-45 44 -45 106q0 63 45 106q45 44 113 44t114 -44q44 -43 44 -106q0 -62 -44 -106q-46 -44 -114 -44
t-113 44z" />
    <glyph glyph-name="uni0408" unicode="&#x408;" horiz-adv-x="1292" 
d="M435 511q0 -85 42 -133q41 -48 114 -48q143 0 143 174v939h424v-942q0 -252 -149 -390q-147 -136 -412 -136q-263 0 -415 143q-153 143 -153 393h406z" />
    <glyph glyph-name="uni0409" unicode="&#x409;" horiz-adv-x="2298" 
d="M703 600q-29 -616 -487 -616q-91 0 -147 16v367q51 -9 80 -9q91 0 131 79q31 63 37 196l34 810h1114v-434h206q254 0 409 -137q157 -138 157 -366q0 -231 -148 -369q-147 -137 -389 -137h-659v1107h-314zM1587 320q104 0 160 47q58 48 58 140t-59 141q-57 47 -162 47
h-119v-375h122z" />
    <glyph glyph-name="uni040A" unicode="&#x40a;" horiz-adv-x="2300" 
d="M1619 320q195 0 195 145q0 68 -51 104q-52 37 -147 37h-149v-286h152zM555 0h-424v1443h424v-528h488v528h424v-528h206q256 0 411 -124q155 -125 155 -330q0 -209 -147 -335q-146 -126 -390 -126h-659v589h-488v-589z" />
    <glyph glyph-name="uni040B" unicode="&#x40b;" horiz-adv-x="1809" 
d="M869 439v-439h-424v1107h-381v336h1186v-336h-381v-298h8q124 97 315 97q248 0 381 -152q125 -142 125 -387v-367h-424v342q0 100 -48 156q-50 56 -139 56q-145 0 -218 -115z" />
    <glyph glyph-name="uni040C" unicode="&#x40c;" horiz-adv-x="1487" 
d="M932 1525h-306l232 321h348zM1491 0h-507l-421 567h-8v-567h-424v1443h424v-558h8l446 558h455l-540 -677z" />
    <glyph glyph-name="uni040E" unicode="&#x40e;" horiz-adv-x="1451" 
d="M237 0v330q24 -10 96 -10q120 0 171 60l-465 1063h449l243 -669h8l222 669h449l-442 -1030q-93 -216 -211 -315q-137 -114 -351 -114q-91 0 -169 16zM580 1827q2 -66 44 -102q41 -34 110 -34t110 34q42 36 44 102h229q0 -148 -106 -235q-104 -86 -277 -86t-277 86
q-106 87 -106 235h229z" />
    <glyph glyph-name="uni040F" unicode="&#x40f;" horiz-adv-x="1610" 
d="M131 0v1443h424v-1107h498v1107h424v-1443h-473v-285h-400v285h-473z" />
    <glyph glyph-name="uni0410" unicode="&#x410;" horiz-adv-x="1554" 
d="M986 287h-440l-75 -287h-432l471 1443h532l471 -1443h-452zM623 586h286l-139 524h-8z" />
    <glyph glyph-name="uni0411" unicode="&#x411;" horiz-adv-x="1379" 
d="M1179 129q-147 -129 -389 -129h-659v1443h1074v-336h-650v-173h216q250 0 402 -124q154 -126 154 -334q0 -217 -148 -347zM687 320q98 0 152 40q56 40 56 117q0 158 -211 158h-129v-315h132z" />
    <glyph glyph-name="uni0412" unicode="&#x412;" horiz-adv-x="1425" 
d="M109 0v1443h709q221 0 345 -96q123 -95 123 -264q0 -123 -84 -210q-82 -86 -209 -102v-8q148 -4 252 -102q106 -99 106 -241q0 -190 -139 -305t-370 -115h-733zM533 865h164q81 0 129 39t48 105q0 67 -45 105q-46 38 -126 38h-170v-287zM714 291q99 0 152 43
q54 44 54 125q0 77 -54 120t-149 43h-184v-331h181z" />
    <glyph glyph-name="uni0413" unicode="&#x413;" horiz-adv-x="1196" 
d="M131 0v1443h1004v-336h-580v-1107h-424z" />
    <glyph glyph-name="uni0414" unicode="&#x414;" horiz-adv-x="1642" 
d="M629 679q-18 -252 -91 -334v-8h479v771h-359zM399 -285h-380v622h95q68 59 95 147q23 73 33 236l45 723h1154v-1106h180v-622h-380v285h-842v-285z" />
    <glyph glyph-name="uni0415" unicode="&#x415;" horiz-adv-x="1258" 
d="M1127 0h-1018v1443h1018v-337h-594v-233h557v-304h-557v-232h594v-337z" />
    <glyph glyph-name="uni0416" unicode="&#x416;" horiz-adv-x="2161" 
d="M2145 0h-497l-359 567h-8v-567h-408v567h-8l-359 -567h-492l505 757l-493 686h455l384 -558h8v558h408v-558h8l384 558h450l-488 -678z" />
    <glyph glyph-name="uni0417" unicode="&#x417;" horiz-adv-x="1385" 
d="M497 892h187q86 0 136 37q50 38 50 103q0 66 -51 104q-51 37 -140 37q-90 0 -145 -47q-56 -47 -56 -123h-383q2 220 162 350q161 130 431 130q261 0 419 -108q157 -109 157 -288q0 -125 -76 -214t-200 -111v-8q148 -14 237 -108q89 -95 89 -238q0 -200 -176 -324
t-461 -124q-267 0 -433 132q-165 132 -175 352h404q1 -73 59 -114q56 -42 154 -42q87 0 140 43t53 113q0 65 -52 102q-53 36 -145 36h-185v310z" />
    <glyph glyph-name="uni0418" unicode="&#x418;" horiz-adv-x="1630" 
d="M1073 803h-8l-530 -803h-404v1443h424v-803h8l530 803h404v-1443h-424v803z" />
    <glyph glyph-name="uni0419" unicode="&#x419;" horiz-adv-x="1630" 
d="M1073 803h-8l-530 -803h-404v1443h424v-803h8l530 803h404v-1443h-424v803zM650 1827q2 -66 44 -102q41 -34 110 -34t110 34q42 36 44 102h229q0 -148 -106 -235q-104 -86 -277 -86t-277 86q-106 87 -106 235h229z" />
    <glyph glyph-name="uni041A" unicode="&#x41a;" horiz-adv-x="1507" 
d="M1491 0h-507l-421 567h-8v-567h-424v1443h424v-558h8l446 558h455l-540 -677z" />
    <glyph glyph-name="uni041B" unicode="&#x41b;" horiz-adv-x="1568" 
d="M1011 0v1107h-314l-24 -507q-29 -616 -487 -616q-91 0 -147 16v367q51 -9 80 -9q91 0 131 79q31 63 37 196l34 810h1114v-1443h-424z" />
    <glyph glyph-name="uni041C" unicode="&#x41c;" horiz-adv-x="1898" 
d="M1742 0h-370v836h-8l-325 -819h-227l-325 819h-8v-836h-370v1443h490l323 -842h8l322 842h490v-1443z" />
    <glyph glyph-name="uni041D" unicode="&#x41d;" horiz-adv-x="1620" 
d="M1041 0v558h-508v-558h-424v1443h424v-548h508v548h424v-1443h-424z" />
    <glyph glyph-name="uni041E" unicode="&#x41e;" horiz-adv-x="1614" 
d="M1332 1267q196 -201 196 -546t-196 -546q-196 -200 -531 -200q-336 0 -531 200q-196 201 -196 546t196 546t531 201t531 -201zM587 1019q-81 -111 -81 -298q0 -186 81 -297q80 -111 214 -111t214 111q81 111 81 297q0 187 -81 298t-214 111t-214 -111z" />
    <glyph glyph-name="uni041F" unicode="&#x41f;" horiz-adv-x="1610" 
d="M1053 0v1107h-498v-1107h-424v1443h1346v-1443h-424z" />
    <glyph glyph-name="uni0420" unicode="&#x420;" horiz-adv-x="1388" 
d="M768 1443q242 0 389 -143q148 -143 148 -383q0 -237 -157 -381q-155 -142 -409 -142h-206v-394h-424v1443h659zM533 707h119q107 0 165 53q60 54 60 156q0 101 -59 155q-58 53 -163 53h-122v-417z" />
    <glyph glyph-name="uni0421" unicode="&#x421;" horiz-adv-x="1537" 
d="M271 163q-192 203 -192 559t193 559q191 202 523 202q274 0 463 -164q189 -163 206 -416h-410q-18 106 -88 169q-71 63 -171 63q-131 0 -207 -109q-77 -111 -77 -303q0 -195 77 -305q75 -110 208 -110q101 0 171 63t89 171h410q-17 -258 -203 -420q-187 -162 -468 -162
q-332 0 -524 203z" />
    <glyph glyph-name="uni0422" unicode="&#x422;" horiz-adv-x="1325" 
d="M434 0v1106h-380v337h1184v-337h-380v-1106h-424z" />
    <glyph glyph-name="uni0423" unicode="&#x423;" horiz-adv-x="1451" 
d="M237 0v330q24 -10 96 -10q120 0 171 60l-465 1063h449l243 -669h8l222 669h449l-442 -1030q-93 -216 -211 -315q-137 -114 -351 -114q-91 0 -169 16z" />
    <glyph glyph-name="uni0424" unicode="&#x424;" horiz-adv-x="1938" 
d="M767 1002q-123 -8 -197 -81q-76 -75 -76 -199t76 -200q74 -73 197 -81v561zM1366 921q-74 73 -197 81v-561q123 8 197 81q76 75 76 199t-76 200zM760 117q-315 12 -500 167q-191 161 -191 438q0 275 192 437q185 155 499 167v157h416v-157q315 -12 500 -167
q191 -161 191 -438q0 -275 -192 -437q-185 -155 -499 -167v-157h-416v157z" />
    <glyph glyph-name="uni0425" unicode="&#x425;" horiz-adv-x="1529" 
d="M475 723v8l-426 712h494l227 -460h8l228 460h470l-447 -714v-8l445 -721h-472l-248 435h-9l-247 -435h-448z" />
    <glyph glyph-name="uni0426" unicode="&#x426;" horiz-adv-x="1678" 
d="M1277 -285v285h-1146v1443h424v-1107h498v1107h424v-1107h180v-621h-380z" />
    <glyph glyph-name="uni0427" unicode="&#x427;" horiz-adv-x="1558" 
d="M1001 0v557h-8q-134 -97 -340 -97q-240 0 -386 146q-148 148 -148 393v444h424v-397q0 -234 230 -234q167 0 228 115v516h424v-1443h-424z" />
    <glyph glyph-name="uni0428" unicode="&#x428;" horiz-adv-x="2132" 
d="M131 1443h424v-1107h298v1107h424v-1107h298v1107h424v-1443h-1868v1443z" />
    <glyph glyph-name="uni0429" unicode="&#x429;" horiz-adv-x="2200" 
d="M1799 -285v285h-1668v1443h424v-1107h298v1107h424v-1107h298v1107h424v-1107h180v-621h-380z" />
    <glyph glyph-name="uni042A" unicode="&#x42a;" horiz-adv-x="1656" 
d="M399 0v1108h-340v335h764v-434h206q254 0 409 -137q157 -138 157 -366q0 -231 -148 -369q-147 -137 -389 -137h-659zM945 320q104 0 160 47q58 48 58 140t-59 141q-57 47 -162 47h-119v-375h122z" />
    <glyph glyph-name="uni042B" unicode="&#x42b;" horiz-adv-x="2008" 
d="M131 1443h424v-434h206q254 0 409 -137q157 -138 157 -366q0 -231 -148 -369q-147 -137 -389 -137h-659v1443zM677 320q104 0 160 47q58 48 58 140t-59 141q-57 47 -162 47h-119v-375h122zM1429 0v1443h424v-1443h-424z" />
    <glyph glyph-name="uni042C" unicode="&#x42c;" horiz-adv-x="1388" 
d="M131 1443h424v-434h206q254 0 409 -137q157 -138 157 -366q0 -231 -148 -369q-147 -137 -389 -137h-659v1443zM677 320q104 0 160 47q58 48 58 140t-59 141q-57 47 -162 47h-119v-375h122z" />
    <glyph glyph-name="uni042D" unicode="&#x42d;" horiz-adv-x="1537" 
d="M274 122q-188 163 -205 420h410q19 -108 91 -171t175 -63q105 0 179 69q77 72 92 195h-494v306h492q-16 119 -92 190q-74 67 -176 67q-103 0 -175 -63t-90 -169h-410q17 253 208 416q190 164 467 164q329 0 519 -202q191 -203 191 -559t-191 -559q-189 -203 -519 -203
q-283 0 -472 162z" />
    <glyph glyph-name="uni042E" unicode="&#x42e;" horiz-adv-x="2213" 
d="M941 119q-187 158 -230 440h-156v-559h-424v1443h424v-548h158q46 276 232 432q187 156 471 156q328 0 521 -204q195 -205 195 -557q0 -353 -195 -558q-193 -204 -521 -204q-288 0 -475 159zM1207 1024q-80 -114 -80 -302q0 -189 80 -303q79 -113 207 -113q127 0 206 113
q80 114 80 303q0 188 -80 302q-79 113 -206 113q-128 0 -207 -113z" />
    <glyph glyph-name="uni042F" unicode="&#x42f;" horiz-adv-x="1472" 
d="M920 1130h-181q-86 0 -138 -49q-53 -50 -53 -130q0 -82 51 -129q52 -48 141 -48h180v356zM508 0h-454l345 548q-129 53 -205 157q-79 109 -79 248q0 224 154 356q156 134 432 134h638v-1443h-419v487h-124z" />
    <glyph glyph-name="uni0430" unicode="&#x430;" horiz-adv-x="1222" 
d="M705 297q55 39 55 101v74l-181 -13q-128 -9 -128 -101q0 -46 35 -73q34 -26 92 -26q74 0 127 38zM159 79q-112 99 -112 248q0 322 465 350l248 15v57q0 56 -39 88q-38 31 -100 31q-63 0 -105 -31q-40 -30 -45 -75h-366q8 179 151 284q144 106 387 106q232 0 375 -106
q142 -106 142 -277v-769h-400v152h-8q-43 -80 -136 -125q-87 -43 -190 -43q-158 0 -267 95z" />
    <glyph glyph-name="uni0431" unicode="&#x431;" horiz-adv-x="1323" 
d="M229 140q-160 172 -160 496q0 878 643 896l173 5q172 5 298 34v-302q-93 -29 -269 -33l-159 -4q-182 -4 -273 -100q-87 -91 -109 -282h8q104 220 372 220q228 0 366 -141q138 -142 138 -382q0 -266 -157 -421q-157 -154 -426 -154q-288 0 -445 168zM791 344q46 66 46 188
q0 119 -47 187q-46 67 -127 67t-127 -67q-47 -68 -47 -187q0 -122 46 -188t128 -66t128 66z" />
    <glyph glyph-name="uni0432" unicode="&#x432;" horiz-adv-x="1261" 
d="M489 893v-214h110q65 0 103 29q37 29 37 78q0 50 -36 79q-36 28 -100 28h-114zM489 479v-248h123q164 0 164 127q0 57 -43 89t-118 32h-126zM89 1124h645q191 0 299 -74q107 -74 107 -206q0 -94 -63 -163q-62 -70 -157 -81v-8q119 -13 194 -86q76 -73 76 -179
q0 -148 -118 -237q-120 -90 -320 -90h-663v1124z" />
    <glyph glyph-name="uni0433" unicode="&#x433;" horiz-adv-x="987" 
d="M499 825v-825h-410v1124h837v-299h-427z" />
    <glyph glyph-name="uni0434" unicode="&#x434;" horiz-adv-x="1433" 
d="M847 827h-263l-16 -250q-11 -168 -74 -270v-8h353v528zM19 -285v584h79q100 47 116 310l31 515h1010v-825h157v-584h-370v285h-653v-285h-370z" />
    <glyph glyph-name="uni0435" unicode="&#x435;" horiz-adv-x="1253" 
d="M517 821q-50 -48 -56 -123h358q-5 78 -54 125q-49 46 -125 46q-73 0 -123 -48zM1197 363q-26 -181 -174 -286q-149 -105 -378 -105q-275 0 -431 155q-155 155 -155 429q0 275 155 436q154 160 418 160q260 0 415 -154t155 -412v-111h-747v-26q0 -86 55 -140
q55 -55 141 -55q140 0 180 109h366z" />
    <glyph glyph-name="uni0436" unicode="&#x436;" horiz-adv-x="1849" 
d="M1849 0h-471l-246 430h-8v-430h-403v430h-8l-247 -430h-466l360 602l-344 522h457l240 -413h8v413h403v-413h8l239 413h452l-338 -514z" />
    <glyph glyph-name="uni0437" unicode="&#x437;" horiz-adv-x="1224" 
d="M221 88q-145 115 -162 325h382q42 -134 174 -134t132 91q0 80 -130 80h-143v239h127q118 0 118 79q0 88 -118 88q-124 0 -143 -119h-380q14 196 152 305q137 110 368 110q253 0 386 -86q133 -85 133 -248q0 -174 -155 -225v-8q196 -59 196 -244q0 -175 -143 -272
t-400 -97q-249 0 -394 116z" />
    <glyph glyph-name="uni0438" unicode="&#x438;" horiz-adv-x="1344" 
d="M89 0v1124h400v-585h8l356 585h400v-1124h-400v600h-8l-356 -600h-400z" />
    <glyph glyph-name="uni0439" unicode="&#x439;" horiz-adv-x="1344" 
d="M89 0v1124h400v-585h8l356 585h400v-1124h-400v600h-8l-356 -600h-400zM517 1624q3 -74 44 -118q41 -43 109 -43t109 43q41 44 44 118h229q0 -158 -104 -253q-105 -95 -278 -95t-278 95q-104 95 -104 253h229z" />
    <glyph glyph-name="uni043A" unicode="&#x43a;" horiz-adv-x="1277" 
d="M1276 0h-481l-288 430h-8v-430h-410v1124h410v-413h8l281 413h452l-382 -510z" />
    <glyph glyph-name="uni043B" unicode="&#x43b;" horiz-adv-x="1308" 
d="M595 577q-14 -287 -107 -429q-106 -164 -330 -164q-70 0 -124 15v336q35 -7 73 -7q71 0 104 84q25 65 30 197l21 515h955v-1124h-410v825h-200z" />
    <glyph glyph-name="uni043C" unicode="&#x43c;" horiz-adv-x="1674" 
d="M89 0v1124h545l199 -610h8l198 610h544v-1124h-376v711h-8l-227 -622h-272l-227 622h-8v-711h-376z" />
    <glyph glyph-name="uni043D" unicode="&#x43d;" horiz-adv-x="1334" 
d="M833 420h-334v-420h-410v1124h410v-405h334v405h410v-1124h-410v420z" />
    <glyph glyph-name="uni043E" unicode="&#x43e;" horiz-adv-x="1308" 
d="M217 125q-158 156 -158 438q0 275 160 433q158 156 429 156q273 0 430 -155q159 -158 159 -434q0 -283 -157 -438q-155 -153 -432 -153q-276 0 -431 153zM775 342q46 78 46 220q0 139 -47 218q-46 78 -126 78t-126 -78q-47 -79 -47 -218q0 -142 46 -220q45 -76 127 -76
q81 0 127 76z" />
    <glyph glyph-name="uni043F" unicode="&#x43f;" horiz-adv-x="1324" 
d="M823 825h-324v-825h-410v1124h1144v-1124h-410v825z" />
    <glyph glyph-name="uni0440" unicode="&#x440;" horiz-adv-x="1350" 
d="M1170 990q114 -150 114 -428t-113 -428q-114 -150 -324 -150q-123 0 -212 56q-89 55 -128 154h-8v-526h-410v1456h410v-202h8q86 218 335 218q213 0 328 -150zM815 372q49 70 49 190q0 119 -50 190t-133 71q-84 0 -134 -71q-49 -71 -50 -191q1 -121 50 -190
q49 -70 134 -70q84 0 134 71z" />
    <glyph glyph-name="uni0441" unicode="&#x441;" horiz-adv-x="1244" 
d="M804 706q-32 140 -156 140q-84 0 -129 -73t-45 -210q0 -285 174 -285q130 0 158 140h372q-15 -210 -157 -328t-378 -118q-270 0 -424 157q-155 157 -155 434q0 274 155 432q154 157 422 157q230 0 374 -120t163 -326h-374z" />
    <glyph glyph-name="uni0442" unicode="&#x442;" horiz-adv-x="1130" 
d="M1079 825h-310v-825h-410v825h-310v299h1030v-299z" />
    <glyph glyph-name="uni0443" unicode="&#x443;" horiz-adv-x="1266" 
d="M132 -412v306h60q189 0 192 74v20l-374 1136h455l175 -828h8l175 828h433l-339 -1101q-72 -233 -221 -334t-418 -101h-146z" />
    <glyph glyph-name="uni0444" unicode="&#x444;" horiz-adv-x="1798" 
d="M702 849q-102 -4 -162 -79q-62 -77 -62 -208q0 -135 61 -210q58 -73 163 -77v574zM1257 772q-59 73 -164 77v-574q102 4 163 79q62 77 62 208q0 135 -61 210zM697 -18q-296 8 -463 158q-170 153 -170 423q0 263 172 418q170 153 461 161v326h402v-326q296 -8 463 -158
q170 -153 170 -423q0 -263 -172 -418q-170 -153 -461 -161v-314h-402v314z" />
    <glyph glyph-name="uni0445" unicode="&#x445;" horiz-adv-x="1236" 
d="M600 356l-158 -356h-422l326 558l-327 566h464l142 -344h8l141 344h441l-327 -558l327 -566h-443l-164 356h-8z" />
    <glyph glyph-name="uni0446" unicode="&#x446;" horiz-adv-x="1414" 
d="M1023 -285v285h-934v1124h410v-825h324v825h410v-825h160v-584h-370z" />
    <glyph glyph-name="uni0447" unicode="&#x447;" horiz-adv-x="1299" 
d="M798 0v468h-8q-98 -150 -319 -150q-175 0 -284 112q-113 117 -113 313v381h410v-299q0 -83 45 -130q42 -45 110 -45q106 0 159 87v387h410v-1124h-410z" />
    <glyph glyph-name="uni0448" unicode="&#x448;" horiz-adv-x="1858" 
d="M89 1124h410v-825h224v825h410v-825h224v825h410v-1124h-1678v1124z" />
    <glyph glyph-name="uni0449" unicode="&#x449;" horiz-adv-x="1935" 
d="M1544 -285v285h-1455v1124h410v-825h224v825h410v-825h224v825h410v-825h147v-584h-370z" />
    <glyph glyph-name="uni044A" unicode="&#x44a;" horiz-adv-x="1462" 
d="M329 0v825h-280v299h690v-295h225q205 0 326 -113q121 -112 121 -302t-121 -302t-326 -112h-635zM739 540v-246h133q60 0 96 35q36 34 36 88t-36 89q-36 34 -96 34h-133z" />
    <glyph glyph-name="uni044B" unicode="&#x44b;" horiz-adv-x="1754" 
d="M1253 1124h410v-1124h-410v1124zM499 540v-246h133q60 0 96 35q36 34 36 88t-36 89q-36 34 -96 34h-133zM89 1124h410v-295h225q205 0 326 -113q121 -112 121 -302t-121 -302t-326 -112h-635v1124z" />
    <glyph glyph-name="uni044C" unicode="&#x44c;" horiz-adv-x="1222" 
d="M499 540v-246h133q60 0 96 35q36 34 36 88t-36 89q-36 34 -96 34h-133zM89 1124h410v-295h225q205 0 326 -113q121 -112 121 -302t-121 -302t-326 -112h-635v1124z" />
    <glyph glyph-name="uni044D" unicode="&#x44d;" horiz-adv-x="1244" 
d="M436 418q28 -140 167 -140q64 0 108 44q47 46 56 128h-311v239h308q-12 75 -57 117q-43 40 -104 40q-133 0 -165 -140h-374q19 206 166 326t380 120q264 0 416 -157q152 -158 152 -432q0 -277 -152 -434q-151 -157 -418 -157q-240 0 -384 118q-145 118 -160 328h372z" />
    <glyph glyph-name="uni044E" unicode="&#x44e;" horiz-adv-x="1858" 
d="M815 88q-152 116 -189 332h-127v-420h-410v1124h410v-405h130q43 205 194 319t380 114q273 0 430 -155q159 -158 159 -434q0 -283 -157 -438q-155 -153 -432 -153q-238 0 -388 116zM1326 351q46 75 46 211q0 133 -46 209q-46 75 -125 75t-125 -75q-47 -77 -47 -209
q0 -136 46 -211q46 -73 126 -73t125 73z" />
    <glyph glyph-name="uni044F" unicode="&#x44f;" horiz-adv-x="1256" 
d="M767 598v233h-156q-55 0 -89 -33q-33 -33 -33 -84t33 -83q34 -33 89 -33h156zM767 330h-57l-218 -330h-448l280 385q-241 83 -241 334q0 184 129 295q129 110 342 110h611v-1124h-398v330z" />
    <glyph glyph-name="uni0451" unicode="&#x451;" horiz-adv-x="1253" 
d="M517 821q-50 -48 -56 -123h358q-5 78 -54 125q-49 46 -125 46q-73 0 -123 -48zM1197 363q-26 -181 -174 -286q-149 -105 -378 -105q-275 0 -431 155q-155 155 -155 429q0 275 155 436q154 160 418 160q260 0 415 -154t155 -412v-111h-747v-26q0 -86 55 -140
q55 -55 141 -55q140 0 180 109h366zM296 1300q-45 44 -45 106q0 63 45 106q45 44 113 44t114 -44q44 -43 44 -106q0 -62 -44 -106q-46 -44 -114 -44t-113 44zM740 1300q-45 44 -45 106q0 63 45 106q45 44 113 44t114 -44q44 -43 44 -106q0 -62 -44 -106q-46 -44 -114 -44
t-113 44z" />
    <glyph glyph-name="uni0452" unicode="&#x452;" horiz-adv-x="1378" 
d="M1287 7q0 -171 -119 -266q-118 -95 -332 -95q-77 0 -125 6v286q18 -3 47 -3q119 0 119 90v604q0 89 -48 139q-47 48 -125 48q-75 0 -125 -52q-50 -53 -50 -135v-629h-410v1237h-59v176h59v145h400v-145h201v-176h-201v-303h20q36 97 133 155q95 57 216 57q187 0 292 -110
q107 -112 107 -316v-713z" />
    <glyph glyph-name="uni0453" unicode="&#x453;" horiz-adv-x="1010" 
d="M499 825v-825h-410v1124h837v-299h-427zM356 1275l232 321h347l-265 -321h-314z" />
    <glyph glyph-name="uni0454" unicode="&#x454;" horiz-adv-x="1244" 
d="M1178 418q-15 -210 -157 -328t-378 -118q-270 0 -424 157q-155 157 -155 434q0 274 155 432q154 157 422 157q230 0 374 -120t163 -326h-374q-32 140 -161 140q-63 0 -107 -40q-45 -42 -57 -117h306v-239h-309q9 -83 56 -128q45 -44 111 -44q135 0 163 140h372z" />
    <glyph glyph-name="uni0455" unicode="&#x455;" horiz-adv-x="1192" 
d="M209 1051q139 101 383 101t382 -103q139 -104 139 -287h-372q-1 56 -42 88q-41 33 -110 33q-58 0 -92 -22q-35 -22 -35 -58q0 -55 111 -76l251 -50q167 -33 245 -107q77 -75 77 -203q0 -181 -150 -289q-148 -106 -395 -106q-257 0 -404 106q-142 103 -153 285h396
q7 -57 51 -89q44 -33 115 -33q134 0 134 77q0 52 -108 73l-216 43q-347 69 -347 342q0 175 140 275z" />
    <glyph glyph-name="uni0456" unicode="&#x456;" horiz-adv-x="590" 
d="M79 1124h410v-1124h-410v1124zM139 1245q-60 56 -60 140t60 140q59 55 145 55t145 -55q60 -56 60 -140t-60 -140q-59 -55 -145 -55t-145 55z" />
    <glyph glyph-name="uni0457" unicode="&#x457;" horiz-adv-x="604" 
d="M87 1124h410v-1124h-410v1124zM-43 1300q-45 44 -45 106q0 63 45 106q45 44 113 44t114 -44q44 -43 44 -106q0 -62 -44 -106q-46 -44 -114 -44t-113 44zM401 1300q-45 44 -45 106q0 63 45 106q45 44 113 44t114 -44q44 -43 44 -106q0 -62 -44 -106q-46 -44 -114 -44
t-113 44z" />
    <glyph glyph-name="uni0458" unicode="&#x458;" horiz-adv-x="601" 
d="M501 7q0 -171 -119 -266q-118 -95 -332 -95q-77 0 -125 6v286q18 -3 47 -3q119 0 119 90v1099h410v-1117zM151 1245q-60 56 -60 140t60 140q59 55 145 55t145 -55q60 -56 60 -140t-60 -140q-59 -55 -145 -55t-145 55z" />
    <glyph glyph-name="uni0459" unicode="&#x459;" horiz-adv-x="1940" 
d="M595 577q-14 -287 -107 -429q-106 -164 -330 -164q-70 0 -124 15v336q35 -7 73 -7q71 0 104 84q25 65 30 197l21 515h955v-295h225q205 0 326 -113q121 -112 121 -302t-121 -302t-326 -112h-635v825h-200zM1217 540v-246h133q60 0 96 35q36 34 36 88t-36 89
q-36 34 -96 34h-133z" />
    <glyph glyph-name="uni045A" unicode="&#x45a;" horiz-adv-x="1956" 
d="M1233 485v-196h160q50 0 82 29q30 28 30 69t-30 69q-32 29 -82 29h-160zM823 469h-324v-469h-410v1124h410v-365h324v365h410v-355h225q205 0 326 -104q121 -105 121 -281t-121 -280t-326 -104h-635v469z" />
    <glyph glyph-name="uni045B" unicode="&#x45b;" horiz-adv-x="1378" 
d="M539 934q36 97 133 155q95 57 216 57q187 0 292 -110q107 -112 107 -316v-720h-410v629q0 89 -48 139q-47 48 -125 48q-75 0 -125 -52q-50 -53 -50 -135v-629h-410v1237h-59v176h59v145h400v-145h201v-176h-201v-303h20z" />
    <glyph glyph-name="uni045C" unicode="&#x45c;" horiz-adv-x="1277" 
d="M840 1275h-314l232 321h347zM1276 0h-481l-288 430h-8v-430h-410v1124h410v-413h8l281 413h452l-382 -510z" />
    <glyph glyph-name="uni045E" unicode="&#x45e;" horiz-adv-x="1266" 
d="M132 -412v306h60q189 0 192 74v20l-374 1136h455l175 -828h8l175 828h433l-339 -1101q-72 -233 -221 -334t-418 -101h-146zM490 1624q3 -74 44 -118q41 -43 109 -43t109 43q41 44 44 118h229q0 -158 -104 -253q-105 -95 -278 -95t-278 95q-104 95 -104 253h229z" />
    <glyph glyph-name="uni045F" unicode="&#x45f;" horiz-adv-x="1324" 
d="M846 0v-285h-370v285h-387v1124h410v-825h324v825h410v-1124h-387z" />
    <glyph glyph-name="uni0490" unicode="&#x490;" horiz-adv-x="1196" 
d="M555 0h-424v1443h604v285h400v-621h-580v-1107z" />
    <glyph glyph-name="uni0491" unicode="&#x491;" horiz-adv-x="987" 
d="M499 825v-825h-410v1124h467v285h370v-584h-427z" />
    <glyph glyph-name="uni0E3F" unicode="&#xe3f;" horiz-adv-x="1413" 
d="M745 292q150 14 150 167q0 147 -150 160v-327zM598 290v331h-101v-331h101zM497 865h101v288h-101v-288zM745 870q122 26 122 139q0 118 -122 140v-279zM987 757q140 -4 239 -102q100 -99 100 -235q0 -190 -138 -305q-139 -115 -370 -115h-73v-134h-147v134h-513v1443
h513v136h147v-136h49q221 0 344 -96q123 -95 123 -264q0 -117 -78 -204t-196 -102v-20z" />
    <glyph glyph-name="uni1E00" unicode="&#x1e00;" horiz-adv-x="1534" 
d="M976 287h-440l-75 -287h-432l471 1443h532l471 -1443h-452zM613 586h286l-139 524h-8zM595 -534q-73 70 -73 166q0 97 73 167q72 69 171 69t171 -69q72 -70 72 -167t-72 -166t-171 -69t-171 69zM828 -427q26 25 26 59q0 35 -26 61q-27 25 -62 25t-62 -25q-26 -26 -26 -61
q0 -34 26 -59q27 -25 62 -25t62 25z" />
    <glyph glyph-name="uni1E01" unicode="&#x1e01;" horiz-adv-x="1231" 
d="M695 297q55 39 55 101v74l-181 -13q-128 -9 -128 -101q0 -46 35 -73q34 -26 92 -26q74 0 127 38zM149 79q-112 99 -112 248q0 322 465 350l248 15v57q0 56 -39 88q-38 31 -100 31q-63 0 -105 -31q-40 -30 -45 -75h-366q8 179 151 284q144 106 387 106q232 0 375 -106
q142 -106 142 -277v-769h-400v152h-8q-43 -80 -136 -125q-87 -43 -190 -43q-158 0 -267 95zM449 -534q-73 70 -73 166q0 97 73 167q72 69 171 69t171 -69q72 -70 72 -167t-72 -166t-171 -69t-171 69zM682 -427q26 25 26 59q0 35 -26 61q-27 25 -62 25t-62 -25
q-26 -26 -26 -61q0 -34 26 -59q27 -25 62 -25t62 25z" />
    <glyph glyph-name="uni1E02" unicode="&#x1e02;" horiz-adv-x="1382" 
d="M99 0v1443h709q221 0 345 -96q123 -95 123 -264q0 -123 -84 -210q-82 -86 -209 -102v-8q148 -4 252 -102q106 -99 106 -241q0 -190 -139 -305t-370 -115h-733zM523 865h164q81 0 129 39t48 105q0 67 -45 105q-46 38 -126 38h-170v-287zM704 291q99 0 152 43q54 44 54 125
q0 77 -54 120t-149 43h-184v-331h181zM564 1588q-51 52 -51 125t51 124q51 52 126 52t126 -52q51 -51 51 -124t-51 -125q-52 -52 -126 -52t-126 52z" />
    <glyph glyph-name="uni1E03" unicode="&#x1e03;" horiz-adv-x="1330" 
d="M630 40q-89 55 -128 154h-8v-194h-410v1518h410v-596h8q86 218 335 218q213 0 328 -150q114 -150 114 -428t-113 -428q-114 -150 -324 -150q-123 0 -212 56zM542 752q-49 -71 -50 -191q1 -121 50 -190q49 -70 134 -70q84 0 134 71q49 70 49 190q0 119 -50 190t-133 71
q-84 0 -134 -71zM163 1663q-51 52 -51 125t51 124q51 52 126 52t126 -52q51 -51 51 -124t-51 -125q-52 -52 -126 -52t-126 52z" />
    <glyph glyph-name="uni1E04" unicode="&#x1e04;" horiz-adv-x="1382" 
d="M99 0v1443h709q221 0 345 -96q123 -95 123 -264q0 -123 -84 -210q-82 -86 -209 -102v-8q148 -4 252 -102q106 -99 106 -241q0 -190 -139 -305t-370 -115h-733zM523 865h164q81 0 129 39t48 105q0 67 -45 105q-46 38 -126 38h-170v-287zM704 291q99 0 152 43q54 44 54 125
q0 77 -54 120t-149 43h-184v-331h181zM564 -472q-51 52 -51 125t51 124q51 52 126 52t126 -52q51 -51 51 -124t-51 -125q-52 -52 -126 -52t-126 52z" />
    <glyph glyph-name="uni1E05" unicode="&#x1e05;" horiz-adv-x="1330" 
d="M630 40q-89 55 -128 154h-8v-194h-410v1518h410v-596h8q86 218 335 218q213 0 328 -150q114 -150 114 -428t-113 -428q-114 -150 -324 -150q-123 0 -212 56zM542 752q-49 -71 -50 -191q1 -121 50 -190q49 -70 134 -70q84 0 134 71q49 70 49 190q0 119 -50 190t-133 71
q-84 0 -134 -71zM538 -472q-51 52 -51 125t51 124q51 52 126 52t126 -52q51 -51 51 -124t-51 -125q-52 -52 -126 -52t-126 52z" />
    <glyph glyph-name="uni1E06" unicode="&#x1e06;" horiz-adv-x="1382" 
d="M99 0v1443h709q221 0 345 -96q123 -95 123 -264q0 -123 -84 -210q-82 -86 -209 -102v-8q148 -4 252 -102q106 -99 106 -241q0 -190 -139 -305t-370 -115h-733zM523 865h164q81 0 129 39t48 105q0 67 -45 105q-46 38 -126 38h-170v-287zM704 291q99 0 152 43q54 44 54 125
q0 77 -54 120t-149 43h-184v-331h181zM1064 -420h-748v180h748v-180z" />
    <glyph glyph-name="uni1E07" unicode="&#x1e07;" horiz-adv-x="1330" 
d="M630 40q-89 55 -128 154h-8v-194h-410v1518h410v-596h8q86 218 335 218q213 0 328 -150q114 -150 114 -428t-113 -428q-114 -150 -324 -150q-123 0 -212 56zM542 752q-49 -71 -50 -191q1 -121 50 -190q49 -70 134 -70q84 0 134 71q49 70 49 190q0 119 -50 190t-133 71
q-84 0 -134 -71zM1038 -420h-748v180h748v-180z" />
    <glyph glyph-name="uni1E08" unicode="&#x1e08;" horiz-adv-x="1513" 
d="M896 1555h-306l232 321h348zM1452 582q-1 -249 -166 -415q-163 -164 -425 -188l-35 -68q72 0 117 -46t45 -122q0 -195 -263 -195q-94 0 -133 15v141q38 -12 99 -12q94 0 94 37q0 26 -22 36t-78 10h-56v127l43 79q-286 31 -446 222q-162 195 -162 519q0 354 193 552
q189 194 523 194q288 0 478 -169q191 -171 192 -437h-406q-7 123 -81 198q-72 75 -183 75q-131 0 -207 -109q-77 -111 -77 -303q0 -195 77 -305q75 -110 208 -110q110 0 182 74q73 75 83 200h406z" />
    <glyph glyph-name="uni1E09" unicode="&#x1e09;" horiz-adv-x="1223" 
d="M755 1275h-314l232 321h347zM804 662q-7 85 -51 135q-45 49 -114 49q-85 0 -130 -73t-45 -210q0 -285 175 -285q72 0 115 47q44 46 50 130h373q-4 -208 -128 -334t-340 -146l-33 -64q72 0 117 -46t45 -122q0 -195 -263 -195q-94 0 -133 15v141q38 -12 99 -12q94 0 94 37
q0 26 -22 36t-78 10h-56v127l43 78q-223 31 -347 183q-126 154 -126 400q0 274 157 432q156 157 426 157q244 0 392 -132q149 -133 153 -358h-373z" />
    <glyph glyph-name="uni1E0A" unicode="&#x1e0a;" horiz-adv-x="1477" 
d="M716 1443q331 0 512 -182q183 -185 183 -529q0 -346 -184 -539q-183 -193 -511 -193h-617v1443h617zM523 337h133q323 0 323 395q0 181 -85 278q-84 96 -238 96h-133v-769zM612 1588q-51 52 -51 125t51 124q51 52 126 52t126 -52q51 -51 51 -124t-51 -125
q-52 -52 -126 -52t-126 52z" />
    <glyph glyph-name="uni1E0B" unicode="&#x1e0b;" horiz-adv-x="1325" 
d="M165 137q-116 154 -116 428q0 271 118 423t328 152q120 0 211 -62q86 -59 120 -156h8v596h410v-1518h-410v194h-8q-29 -91 -120 -149q-94 -61 -217 -61q-208 0 -324 153zM518 753q-49 -69 -49 -191q0 -123 48 -192q49 -69 135 -69q87 0 136 69q48 68 48 191
q0 122 -49 192t-135 70q-85 0 -134 -70zM926 1663q-51 52 -51 125t51 124q51 52 126 52t126 -52q51 -51 51 -124t-51 -125q-52 -52 -126 -52t-126 52z" />
    <glyph glyph-name="uni1E0C" unicode="&#x1e0c;" horiz-adv-x="1477" 
d="M716 1443q331 0 512 -182q183 -185 183 -529q0 -346 -184 -539q-183 -193 -511 -193h-617v1443h617zM523 337h133q323 0 323 395q0 181 -85 278q-84 96 -238 96h-133v-769zM612 -472q-51 52 -51 125t51 124q51 52 126 52t126 -52q51 -51 51 -124t-51 -125
q-52 -52 -126 -52t-126 52z" />
    <glyph glyph-name="uni1E0D" unicode="&#x1e0d;" horiz-adv-x="1325" 
d="M165 137q-116 154 -116 428q0 271 118 423t328 152q120 0 211 -62q86 -59 120 -156h8v596h410v-1518h-410v194h-8q-29 -91 -120 -149q-94 -61 -217 -61q-208 0 -324 153zM518 753q-49 -69 -49 -191q0 -123 48 -192q49 -69 135 -69q87 0 136 69q48 68 48 191
q0 122 -49 192t-135 70q-85 0 -134 -70zM536 -472q-51 52 -51 125t51 124q51 52 126 52t126 -52q51 -51 51 -124t-51 -125q-52 -52 -126 -52t-126 52z" />
    <glyph glyph-name="uni1E0E" unicode="&#x1e0e;" horiz-adv-x="1477" 
d="M716 1443q331 0 512 -182q183 -185 183 -529q0 -346 -184 -539q-183 -193 -511 -193h-617v1443h617zM523 337h133q323 0 323 395q0 181 -85 278q-84 96 -238 96h-133v-769zM1112 -420h-748v180h748v-180z" />
    <glyph glyph-name="uni1E0F" unicode="&#x1e0f;" horiz-adv-x="1325" 
d="M165 137q-116 154 -116 428q0 271 118 423t328 152q120 0 211 -62q86 -59 120 -156h8v596h410v-1518h-410v194h-8q-29 -91 -120 -149q-94 -61 -217 -61q-208 0 -324 153zM518 753q-49 -69 -49 -191q0 -123 48 -192q49 -69 135 -69q87 0 136 69q48 68 48 191
q0 122 -49 192t-135 70q-85 0 -134 -70zM1036 -420h-748v180h748v-180z" />
    <glyph glyph-name="uni1E10" unicode="&#x1e10;" horiz-adv-x="1477" 
d="M716 1443q331 0 512 -182q183 -185 183 -529q0 -346 -184 -539q-183 -193 -511 -193h-617v1443h617zM523 337h133q323 0 323 395q0 181 -85 278q-84 96 -238 96h-133v-769zM401 -457l152 321h359l-203 -321h-308z" />
    <glyph glyph-name="uni1E11" unicode="&#x1e11;" horiz-adv-x="1325" 
d="M165 137q-116 154 -116 428q0 271 118 423t328 152q120 0 211 -62q86 -59 120 -156h8v596h410v-1518h-410v194h-8q-29 -91 -120 -149q-94 -61 -217 -61q-208 0 -324 153zM518 753q-49 -69 -49 -191q0 -123 48 -192q49 -69 135 -69q87 0 136 69q48 68 48 191
q0 122 -49 192t-135 70q-85 0 -134 -70zM325 -457l152 321h359l-203 -321h-308z" />
    <glyph glyph-name="uni1E12" unicode="&#x1e12;" horiz-adv-x="1477" 
d="M716 1443q331 0 512 -182q183 -185 183 -529q0 -346 -184 -539q-183 -193 -511 -193h-617v1443h617zM523 337h133q323 0 323 395q0 181 -85 278q-84 96 -238 96h-133v-769zM895 -154l255 -336h-276l-132 192h-8l-132 -192h-276l255 336h314z" />
    <glyph glyph-name="uni1E13" unicode="&#x1e13;" horiz-adv-x="1325" 
d="M165 137q-116 154 -116 428q0 271 118 423t328 152q120 0 211 -62q86 -59 120 -156h8v596h410v-1518h-410v194h-8q-29 -91 -120 -149q-94 -61 -217 -61q-208 0 -324 153zM518 753q-49 -69 -49 -191q0 -123 48 -192q49 -69 135 -69q87 0 136 69q48 68 48 191
q0 122 -49 192t-135 70q-85 0 -134 -70zM819 -154l255 -336h-276l-132 192h-8l-132 -192h-276l255 336h314z" />
    <glyph glyph-name="uni1E14" unicode="&#x1e14;" horiz-adv-x="1216" 
d="M1117 0h-1018v1443h1018v-337h-594v-233h557v-304h-557v-232h594v-337zM233 1786h748v-180h-748v180zM477 1925l-238 281h322l202 -281h-286z" />
    <glyph glyph-name="uni1E15" unicode="&#x1e15;" horiz-adv-x="1243" 
d="M507 821q-50 -48 -56 -123h358q-5 78 -54 125q-49 46 -125 46q-73 0 -123 -48zM1187 363q-26 -181 -174 -286q-149 -105 -378 -105q-275 0 -431 155q-155 155 -155 429q0 275 155 436q154 160 418 160q260 0 415 -154t155 -412v-111h-747v-26q0 -86 55 -140
q55 -55 141 -55q140 0 180 109h366zM496 1645l-233 287h322l172 -287h-261zM973 1276h-704v180h704v-180z" />
    <glyph glyph-name="uni1E16" unicode="&#x1e16;" horiz-adv-x="1216" 
d="M1117 0h-1018v1443h1018v-337h-594v-233h557v-304h-557v-232h594v-337zM233 1606v180h748v-180h-748zM653 2206h322l-238 -281h-286z" />
    <glyph glyph-name="uni1E17" unicode="&#x1e17;" horiz-adv-x="1243" 
d="M507 821q-50 -48 -56 -123h358q-5 78 -54 125q-49 46 -125 46q-73 0 -123 -48zM1187 363q-26 -181 -174 -286q-149 -105 -378 -105q-275 0 -431 155q-155 155 -155 429q0 275 155 436q154 160 418 160q260 0 415 -154t155 -412v-111h-747v-26q0 -86 55 -140
q55 -55 141 -55q140 0 180 109h366zM681 1932h322l-238 -281h-286zM973 1276h-704v180h704v-180z" />
    <glyph glyph-name="uni1E18" unicode="&#x1e18;" horiz-adv-x="1216" 
d="M1117 0h-1018v1443h1018v-337h-594v-233h557v-304h-557v-232h594v-337zM764 -154l255 -336h-276l-132 192h-8l-132 -192h-276l255 336h314z" />
    <glyph glyph-name="uni1E19" unicode="&#x1e19;" horiz-adv-x="1243" 
d="M507 821q-50 -48 -56 -123h358q-5 78 -54 125q-49 46 -125 46q-73 0 -123 -48zM1187 363q-26 -181 -174 -286q-149 -105 -378 -105q-275 0 -431 155q-155 155 -155 429q0 275 155 436q154 160 418 160q260 0 415 -154t155 -412v-111h-747v-26q0 -86 55 -140
q55 -55 141 -55q140 0 180 109h366zM778 -154l255 -336h-276l-132 192h-8l-132 -192h-276l255 336h314z" />
    <glyph glyph-name="uni1E1A" unicode="&#x1e1a;" horiz-adv-x="1216" 
d="M1117 0h-1018v1443h1018v-337h-594v-233h557v-304h-557v-232h594v-337zM597 -396q-80 59 -105 59q-63 0 -69 -101h-201q0 135 75 217q71 76 176 76q83 0 163 -59q80 -60 105 -60q64 0 69 106h201q0 -135 -75 -219q-71 -79 -176 -79q-83 0 -163 60z" />
    <glyph glyph-name="uni1E1B" unicode="&#x1e1b;" horiz-adv-x="1243" 
d="M507 821q-50 -48 -56 -123h358q-5 78 -54 125q-49 46 -125 46q-73 0 -123 -48zM1187 363q-26 -181 -174 -286q-149 -105 -378 -105q-275 0 -431 155q-155 155 -155 429q0 275 155 436q154 160 418 160q260 0 415 -154t155 -412v-111h-747v-26q0 -86 55 -140
q55 -55 141 -55q140 0 180 109h366zM611 -396q-80 59 -105 59q-63 0 -69 -101h-201q0 135 75 217q71 76 176 76q83 0 163 -59q80 -60 105 -60q64 0 69 106h201q0 -135 -75 -219q-71 -79 -176 -79q-83 0 -163 60z" />
    <glyph glyph-name="uni1E1C" unicode="&#x1e1c;" horiz-adv-x="1216" 
d="M1002 1870q-5 -142 -105 -234q-109 -100 -290 -100t-290 100q-100 92 -105 234h236q3 -67 44 -106q42 -42 115 -42t116 42q40 39 43 106h236zM523 1106v-233h557v-304h-557v-232h594v-337h-394l-46 -89q72 0 117 -46t45 -122q0 -195 -263 -195q-94 0 -133 15v141
q38 -12 99 -12q94 0 94 37q0 26 -22 36t-78 10h-56v127l54 98h-435v1443h1018v-337h-594z" />
    <glyph glyph-name="uni1E1D" unicode="&#x1e1d;" horiz-adv-x="1243" 
d="M1016 1590q-5 -142 -105 -234q-109 -100 -290 -100t-290 100q-100 92 -105 234h236q3 -67 44 -106q42 -42 115 -42t116 42q40 39 43 106h236zM809 698q-5 78 -54 125q-49 46 -125 46q-73 0 -123 -48t-56 -123h358zM445 475v-26q0 -86 55 -140q55 -55 141 -55
q140 0 180 109h366q-23 -162 -146 -265q-123 -101 -316 -121l-34 -66q72 0 117 -46t45 -122q0 -195 -263 -195q-94 0 -133 15v141q38 -12 99 -12q94 0 94 37q0 26 -22 36t-78 10h-56v127l42 76q-231 27 -359 178q-128 152 -128 400q0 275 155 436q154 160 418 160
q260 0 415 -154t155 -412v-111h-747z" />
    <glyph glyph-name="uni1E1E" unicode="&#x1e1e;" horiz-adv-x="1164" 
d="M99 0v1443h1014v-337h-590v-277h534v-318h-534v-511h-424zM455 1588q-51 52 -51 125t51 124q51 52 126 52t126 -52q51 -51 51 -124t-51 -125q-52 -52 -126 -52t-126 52z" />
    <glyph glyph-name="uni1E1F" unicode="&#x1e1f;" horiz-adv-x="839" 
d="M178 826h-149v298h149v96q0 168 96 239q97 71 329 71q91 0 173 -12v-261q-40 6 -80 6q-120 0 -120 -78v-61h202v-298h-190v-826h-410v826zM380 1669q-51 52 -51 125t51 124q51 52 126 52t126 -52q51 -51 51 -124t-51 -125q-52 -52 -126 -52t-126 52z" />
    <glyph glyph-name="uni1E20" unicode="&#x1e20;" horiz-adv-x="1530" 
d="M1461 614q0 -297 -177 -468q-178 -171 -491 -171q-345 0 -536 194q-193 196 -193 554q0 353 191 550q189 195 525 195q270 0 456 -143q184 -143 208 -366h-417q-21 80 -87 127q-67 48 -158 48q-135 0 -210 -106q-76 -107 -76 -299q0 -196 84 -309q82 -111 223 -111
q103 0 171 53t77 140l2 20h-220v282h628v-190zM1129 1606h-748v180h748v-180z" />
    <glyph glyph-name="uni1E21" unicode="&#x1e21;" horiz-adv-x="1325" 
d="M788 375q48 64 48 186t-49 192t-135 70q-85 0 -134 -70q-49 -69 -49 -191t48 -187q48 -64 135 -64q88 0 136 64zM236 -326q-156 96 -160 258h394q9 -41 60 -66q50 -25 118 -25q84 0 134 39q52 41 52 110v224h-8q-29 -89 -120 -144q-92 -56 -217 -56q-201 0 -319 144
q-121 147 -121 407q0 271 118 423t328 152q120 0 211 -62q86 -59 120 -156h8v202h410v-1104q0 -199 -165 -320t-435 -121q-253 0 -408 95zM1014 1276h-704v180h704v-180z" />
    <glyph glyph-name="uni1E22" unicode="&#x1e22;" horiz-adv-x="1556" 
d="M1031 0v558h-508v-558h-424v1443h424v-548h508v548h424v-1443h-424zM651 1588q-51 52 -51 125t51 124q51 52 126 52t126 -52q51 -51 51 -124t-51 -125q-52 -52 -126 -52t-126 52z" />
    <glyph glyph-name="uni1E23" unicode="&#x1e23;" horiz-adv-x="1328" 
d="M84 1518h400v-614h8q42 117 138 180q94 62 223 62q189 0 294 -112t105 -314v-720h-410v629q0 86 -46 136q-47 50 -127 50q-76 0 -126 -52q-49 -53 -49 -134v-629h-410v1518zM161 1663q-51 52 -51 125t51 124q51 52 126 52t126 -52q51 -51 51 -124t-51 -125
q-52 -52 -126 -52t-126 52z" />
    <glyph glyph-name="uni1E24" unicode="&#x1e24;" horiz-adv-x="1556" 
d="M1031 0v558h-508v-558h-424v1443h424v-548h508v548h424v-1443h-424zM651 -472q-51 52 -51 125t51 124q51 52 126 52t126 -52q51 -51 51 -124t-51 -125q-52 -52 -126 -52t-126 52z" />
    <glyph glyph-name="uni1E25" unicode="&#x1e25;" horiz-adv-x="1328" 
d="M84 1518h400v-614h8q42 117 138 180q94 62 223 62q189 0 294 -112t105 -314v-720h-410v629q0 86 -46 136q-47 50 -127 50q-76 0 -126 -52q-49 -53 -49 -134v-629h-410v1518zM537 -472q-51 52 -51 125t51 124q51 52 126 52t126 -52q51 -51 51 -124t-51 -125
q-52 -52 -126 -52t-126 52z" />
    <glyph glyph-name="uni1E26" unicode="&#x1e26;" horiz-adv-x="1556" 
d="M1031 0v558h-508v-558h-424v1443h424v-548h508v548h424v-1443h-424zM442 1580q-45 44 -45 106q0 63 45 106q45 44 113 44t114 -44q44 -43 44 -106q0 -62 -44 -106q-46 -44 -114 -44t-113 44zM886 1580q-45 44 -45 106q0 63 45 106q45 44 113 44t114 -44q44 -43 44 -106
q0 -62 -44 -106q-46 -44 -114 -44t-113 44z" />
    <glyph glyph-name="uni1E27" unicode="&#x1e27;" horiz-adv-x="1328" 
d="M85 1518h400v-614h8q42 117 138 180q94 62 223 62q189 0 294 -112t105 -314v-720h-410v629q0 86 -46 136q-47 50 -127 50q-76 0 -126 -52q-49 -53 -49 -134v-629h-410v1518zM-47 1655q-45 44 -45 106q0 63 45 106q45 44 113 44t114 -44q44 -43 44 -106q0 -62 -44 -106
q-46 -44 -114 -44t-113 44zM397 1655q-45 44 -45 106q0 63 45 106q45 44 113 44t114 -44q44 -43 44 -106q0 -62 -44 -106q-46 -44 -114 -44t-113 44z" />
    <glyph glyph-name="uni1E28" unicode="&#x1e28;" horiz-adv-x="1556" 
d="M1455 1443v-1443h-424v558h-508v-558h-198l-46 -89q72 0 117 -46t45 -122q0 -195 -263 -195q-94 0 -133 15v141q38 -12 99 -12q94 0 94 37q0 26 -22 36t-78 10h-56v127l54 98h-37v1443h424v-548h508v548h424z" />
    <glyph glyph-name="uni1E29" unicode="&#x1e29;" horiz-adv-x="1328" 
d="M492 904q42 117 138 180q94 62 223 62q189 0 294 -112t105 -314v-720h-410v629q0 86 -46 136q-47 50 -127 50q-76 0 -126 -52q-49 -53 -49 -134v-629h-169l-46 -89q72 0 117 -46t45 -122q0 -195 -263 -195q-94 0 -133 15v141q38 -12 99 -12q94 0 94 37q0 26 -22 36
t-78 10h-56v127l54 98h-52v1518h400v-614h8z" />
    <glyph glyph-name="uni1E2A" unicode="&#x1e2a;" horiz-adv-x="1556" 
d="M1031 0v558h-508v-558h-424v1443h424v-548h508v548h424v-1443h-424zM618 -156q3 -67 44 -106q42 -42 115 -42t116 42q40 39 43 106h236q-5 -142 -105 -234q-109 -100 -290 -100t-290 100q-100 92 -105 234h236z" />
    <glyph glyph-name="uni1E2B" unicode="&#x1e2b;" horiz-adv-x="1328" 
d="M84 1518h400v-614h8q42 117 138 180q94 62 223 62q189 0 294 -112t105 -314v-720h-410v629q0 86 -46 136q-47 50 -127 50q-76 0 -126 -52q-49 -53 -49 -134v-629h-410v1518zM504 -156q3 -67 44 -106q42 -42 115 -42t116 42q40 39 43 106h236q-5 -142 -105 -234
q-109 -100 -290 -100t-290 100q-100 92 -105 234h236z" />
    <glyph glyph-name="uni1E2C" unicode="&#x1e2c;" horiz-adv-x="624" 
d="M100 0v1443h424v-1443h-424zM302 -396q-80 59 -105 59q-63 0 -69 -101h-201q0 135 75 217q71 76 176 76q83 0 163 -59q80 -60 105 -60q64 0 69 106h201q0 -135 -75 -219q-71 -79 -176 -79q-83 0 -163 60z" />
    <glyph glyph-name="uni1E2D" unicode="&#x1e2d;" horiz-adv-x="570" 
d="M80 1124h410v-1124h-410v1124zM140 1245q-60 56 -60 140t60 140q59 55 145 55t145 -55q60 -56 60 -140t-60 -140q-59 -55 -145 -55t-145 55zM275 -396q-80 59 -105 59q-63 0 -69 -101h-201q0 135 75 217q71 76 176 76q83 0 163 -59q80 -60 105 -60q64 0 69 106h201
q0 -135 -75 -219q-71 -79 -176 -79q-83 0 -163 60z" />
    <glyph glyph-name="uni1E2E" unicode="&#x1e2e;" horiz-adv-x="624" 
d="M100 0v1443h424v-1443h-424zM358 2206h322l-238 -281h-286zM-23 1580q-45 44 -45 106q0 63 45 106q45 44 113 44t114 -44q44 -43 44 -106q0 -62 -44 -106q-46 -44 -114 -44t-113 44zM421 1580q-45 44 -45 106q0 63 45 106q45 44 113 44t114 -44q44 -43 44 -106
q0 -62 -44 -106q-46 -44 -114 -44t-113 44z" />
    <glyph glyph-name="uni1E2F" unicode="&#x1e2f;" horiz-adv-x="570" 
d="M80 1124h410v-1124h-410v1124zM345 1932h322l-238 -281h-286zM-50 1300q-45 44 -45 106q0 63 45 106q45 44 113 44t114 -44q44 -43 44 -106q0 -62 -44 -106q-46 -44 -114 -44t-113 44zM394 1300q-45 44 -45 106q0 63 45 106q45 44 113 44t114 -44q44 -43 44 -106
q0 -62 -44 -106q-46 -44 -114 -44t-113 44z" />
    <glyph glyph-name="uni1E30" unicode="&#x1e30;" horiz-adv-x="1445" 
d="M99 0v1443h424v-612h8l446 612h445l-475 -641l497 -802h-493l-315 530l-113 -152v-378h-424zM556 1555l232 321h348l-274 -321h-306z" />
    <glyph glyph-name="uni1E31" unicode="&#x1e31;" horiz-adv-x="1226" 
d="M782 1124h452l-378 -480l404 -644h-471l-238 399l-57 -74v-325h-410v1518h410v-803h8zM121 1630l232 321h348l-274 -321h-306z" />
    <glyph glyph-name="uni1E32" unicode="&#x1e32;" horiz-adv-x="1445" 
d="M99 0v1443h424v-612h8l446 612h445l-475 -641l497 -802h-493l-315 530l-113 -152v-378h-424zM596 -472q-51 52 -51 125t51 124q51 52 126 52t126 -52q51 -51 51 -124t-51 -125q-52 -52 -126 -52t-126 52z" />
    <glyph glyph-name="uni1E33" unicode="&#x1e33;" horiz-adv-x="1226" 
d="M782 1124h452l-378 -480l404 -644h-471l-238 399l-57 -74v-325h-410v1518h410v-803h8zM486 -472q-51 52 -51 125t51 124q51 52 126 52t126 -52q51 -51 51 -124t-51 -125q-52 -52 -126 -52t-126 52z" />
    </font>
</defs>
</svg>
