<svg xmlns="http://www.w3.org/2000/svg" id="Слой_1" viewBox="0 0 296.6 92.2"><style>.st0{fill:#fff}</style><path d="M8.4 32.9H7.2c0 2.3-.2 4.6-1 6-.4.8-1 1.3-1.9 1.3-.9.0-1.6-.5-2-1.5-1-2-1.1-3.8-1.1-17.6S1.4 5.6 2.3 3.5c.4-.9 1.1-1.5 2-1.5.8.0 1.5.5 1.9 1.3.7 1.4 1 3.7 1 6h1.2c0-3-.4-5.6-1.2-7.4C6.5.8 5.6.0 4.3.0 3.2.0 2.1.7 1.5 2 .2 4.5.0 6.9.0 21.2c0 14.3.2 16.6 1.5 19.1.7 1.3 1.7 2 2.8 2 1.1.0 2-.6 2.6-1.7 1-1.7 1.5-4.6 1.5-7.7zM22.1 41.8 17.7.5h-1.1L12 41.8h1.3l1.3-12.4h5l1.3 12.4h1.2zm-2.8-14.5h-4.5L17 5.2l2.3 22.1zM38.4 41.8V.5h-1.3l-4.6 25.3L27.9.5h-1.3v41.4h1.2V6.7L32 29.5h1l4.2-23.6v36h1.2zM52.5 21.2C52.5 6.9 52.3 4.5 51 2c-.7-1.3-1.7-2-2.8-2-1.2.0-2.2.7-2.8 2-1.3 2.5-1.5 4.8-1.5 19.1s.2 16.6 1.5 19.1c.7 1.3 1.7 2 2.8 2 1.2.0 2.2-.7 2.8-2 1.3-2.4 1.5-4.8 1.5-19zm-1.2.0c0 13.8-.2 15.6-1.1 17.6-.4.9-1.1 1.5-2 1.5-.9.0-1.6-.5-2-1.5-1-2-1.1-3.8-1.1-17.6s.2-15.6 1.1-17.6c.4-.9 1.1-1.5 2-1.5.9.0 1.6.5 2 1.5 1 2 1.1 3.8 1.1 17.6zM66.8 41.8V.5h-6.9v20.4c0 18.1-1.6 18.9-3.2 18.9h-.2v2.1h.3c2.2.0 4.2-1.5 4.2-20.2V2.6h4.5v39.3h1.3zM73.7 41.8V.5h-1.2v41.4h1.2zM89 41.8l-7-21.7L88.5.4h-1.4l-6.4 19.8 6.8 21.6H89zm-8.4.0V.5h-1.2v41.4h1.2zM102 .5h-1.3l-3.6 24.7L93.5.5h-1.3l4.3 28.1-1 6.8c-.6 3.7-1.3 4.4-2.8 4.4v2.1c1.9.0 3.1-.5 3.9-5.5L102 .5zm12.5 30.1c0-3.1-.1-6.2-1.4-8.6-.4-.8-1-1.4-1.6-1.6.4-.2 1-.8 1.4-1.7 1.1-2.2 1.3-4.8 1.3-7.7.0-4.4-.3-6.3-1.1-8.2-.8-1.7-1.8-2.3-3.4-2.3h-3.3v41.4h3.3c1.7.0 2.7-.6 3.5-2.3.9-1.8 1.3-3.7 1.3-9zm-1.2.0c0 7.3-1.3 9.1-3.4 9.1h-2.3V21.5h2.3c2.1.0 3.4 2.6 3.4 9.1zm-.2-19.6c0 6-1.2 8.4-3.2 8.4h-2.3V2.6h2.3c2 0 3.2 1.7 3.2 8.4zM128.4 41.8 123.9.4h-1.1l-4.6 41.4h1.3l1.3-12.4h5l1.3 12.4h1.3zm-2.8-14.5h-4.5l2.2-22.1 2.3 22.1zM140.9 41.8V.5h-1.2v19.3H134V.5h-1.2v41.4h1.2v-20h5.7v20h1.2zM154.7 41.8V.5h-1.2v19.3h-5.7V.5h-1.2v41.4h1.2v-20h5.7v20h1.2zM161.1 41.8l3.2-19.1h3v19.1h1.2V.5h-3.8c-2.1.0-4.3 1.1-4.3 11.2.0 6.9 1 9.8 2.7 10.8L159.7 42h1.4zm.6-30.2c0-6 .8-9.1 3-9.1h2.7v18.1h-2.7c-2.2.1-3-2.9-3-9zm30.5 30.2V.5h-1.3l-4.6 25.3L181.7.5h-1.3v41.4h1.2V6.7l4.2 22.8h1.1L191 5.9v36h1.2zM206.3 21.2c0-14.3-.2-16.6-1.5-19.1-.7-1.3-1.7-2-2.8-2s-2.2.7-2.8 2c-1.3 2.5-1.5 4.8-1.5 19.1s.2 16.6 1.5 19.1c.7 1.3 1.7 2 2.8 2s2.2-.7 2.8-2c1.3-2.5 1.5-4.9 1.5-19.1zm-1.2.0c0 13.8-.2 15.6-1.1 17.6-.4.9-1.1 1.5-2 1.5-.9.0-1.6-.5-2-1.5-1-2-1.1-3.8-1.1-17.6S199 5.6 2e2 3.5c.4-.9 1.1-1.5 2-1.5.9.0 1.6.5 2 1.5.9 2.1 1.1 3.9 1.1 17.7zM227.2 41.8l-6.5-21.7L226.8.4h-1.4l-6.1 19.8 6.5 21.6h1.4zm-7.9.0V.5h-1.2v41.4h1.2zm-1.2-21.5L211.7.5h-1.4l6.4 19.7-6.7 21.6h1.3l6.8-21.5zM238.7 41.8v-2.1H233V22.2h4.9v-2.1H233V2.6h5.7V.5h-6.9v41.4h6.9zM258 30.6c0-10.1-2.3-11.3-4.4-11.3h-2.7V2.6h6.2V.5h-7.4v41.4h3.9c2.1-.1 4.4-1.3 4.4-11.3zm-1.2.0c0 8-1.5 9.2-3.3 9.2h-2.6V21.4h2.6c1.8.0 3.3 1.1 3.3 9.2zM271.5.5h-1.3l-3.6 24.7L263 .5h-1.3l4.3 28.1-1 6.8c-.6 3.7-1.3 4.4-2.8 4.4v2.1c1.9.0 3.1-.5 3.9-5.5L271.5.5zM283.4 2.6V.5h-8.3v2.1h3.6v39.3h1.2V2.6h3.5zM296.6 41.8V.5h-1.2l-6.1 34.7V.5h-1.2v41.4h1.2l6.1-34.7v34.7h1.2zM12.3 85.9V46.1h-1v37.7H6.7V46.1h-1v37.7H1.1V46.1h-1v39.7h12.2zm12.3.0-6-20.8 5.6-18.9H23l-5.4 19 5.8 20.7h1.2zm-7.2.0V46.1h-1v39.7h1zM28.7 85.9V46.1h-1v39.7h1zM41.5 92.2v-8.3h-1.3V46.1h-5.9v18c0 7.6-.5 14.3-1.4 19.8h-1.1v8.3h1v-6.3h7.6v6.3h1.1zm-2.3-8.3H34c1-5.7 1.4-12.3 1.4-19.6V48.1h3.9v35.8zM52.9 85.9V46.1H47v19.6c0 17.4-1.4 18.1-2.7 18.1h-.2v2h.3c1.9.0 3.6-1.4 3.6-19.4V48.1h3.9v37.7h1zM64.2 85.9V46.1h-1L58 79.5V46.1h-1v39.7h1l5.2-33.4v33.4h1zM75.2 75.1c0-3-.1-6-1.2-8.3-.4-.8-.8-1.3-1.3-1.6.4-.2.8-.8 1.2-1.6 1-2.1 1.1-4.6 1.1-7.4.0-4.2-.2-6.1-1-7.9-.7-1.7-1.5-2.2-2.9-2.2h-2.8v39.7h2.8c1.4.0 2.3-.6 3-2.2.7-1.6 1.1-3.5 1.1-8.5zm-1 0c0 7-1.1 8.8-2.9 8.8h-1.9V66.3h1.9c1.8.0 2.9 2.5 2.9 8.8zM74 56.2c0 5.8-1 8.1-2.7 8.1h-1.9V48.1h1.9c1.7.0 2.7 1.7 2.7 8.1zM86.1 85.9V46.1h-1l-5.2 33.4V46.1h-1v39.7h1l5.2-33.4v33.4h1zM100.3 85.9V46.1h-1.1l-3.9 24.3-3.9-24.3h-1.1v39.7h1V52.1L94.8 74h.9l3.6-22.7v34.6h1zM117.1 92.2v-8.3h-1.3V46.1h-5.9v18c0 7.6-.5 14.3-1.4 19.8h-1.1v8.3h1v-6.3h7.6v6.3h1.1zm-2.3-8.3h-5.2c1-5.7 1.4-12.3 1.4-19.6V48.1h3.9v35.8zM128.4 85.9V46.1h-5.8v19.6c0 17.4-1.4 18.1-2.7 18.1h-.2v2h.3c1.9.0 3.6-1.4 3.6-19.4V48.1h3.9v37.7h.9zM133.2 85.9l2.7-18.4h2.6v18.4h1V46.1h-3.2c-1.8.0-3.7 1.1-3.7 10.7.0 6.6.9 9.4 2.3 10.3L132 85.8h1.2zm.5-29c0-5.8.7-8.7 2.6-8.7h2.3v17.4h-2.3c-2 0-2.6-2.9-2.6-8.7zM154.8 75.1c0-3-.1-6-1.2-8.3-.4-.8-.8-1.3-1.3-1.6.4-.2.8-.8 1.2-1.6 1-2.1 1.1-4.6 1.1-7.4.0-4.2-.2-6.1-1-7.9-.7-1.7-1.5-2.2-2.9-2.2H148v39.7h2.8c1.4.0 2.3-.6 3-2.2.7-1.6 1-3.5 1-8.5zm-1 0c0 7-1.1 8.8-2.9 8.8H149V66.3h1.9c1.8.0 2.9 2.5 2.9 8.8zm-.2-18.9c0 5.8-1 8.1-2.7 8.1H149V48.1h1.9c1.7.0 2.7 1.7 2.7 8.1zM165.9 85.9l-3.8-39.7h-.9l-3.9 39.7h1.1l1.1-11.9h4.2l1.1 11.9h1.1zm-2.4-14h-3.8l1.9-21.2 1.9 21.2zM181.1 85.9V46.1h-1v37.7h-4.6V46.1h-1v37.7h-4.6V46.1h-1v39.7h12.2zM192.4 66c0-13.7-.2-16-1.3-18.4-.6-1.3-1.4-2-2.4-2s-1.9.7-2.4 2C185.2 50 185 52.3 185 66s.2 16 1.3 18.4c.6 1.3 1.4 2 2.4 2s1.9-.7 2.4-2c1.1-2.4 1.3-4.7 1.3-18.4zm-1.1.0c0 13.2-.2 15-1 16.9-.4.9-1 1.4-1.7 1.4s-1.3-.5-1.7-1.4c-.8-2-1-3.7-1-16.9s.2-15 1-16.9c.4-.9 1-1.4 1.7-1.4s1.3.5 1.7 1.4c.9 1.9 1 3.7 1 16.9zM202 48.1v-2h-5.7v39.7h1V48.1h4.7zM212.1 66c0-13.7-.2-16-1.3-18.4-.6-1.3-1.4-2-2.4-2s-1.9.7-2.4 2c-1.1 2.4-1.3 4.6-1.3 18.4.0 13.7.2 16 1.3 18.4.6 1.3 1.4 2 2.4 2s1.9-.7 2.4-2c1.1-2.4 1.3-4.7 1.3-18.4zm-1 0c0 13.2-.2 15-1 16.9-.4.9-1 1.4-1.7 1.4s-1.3-.5-1.7-1.4c-.8-2-1-3.7-1-16.9s.2-15 1-16.9c.4-.9 1-1.4 1.7-1.4s1.3.5 1.7 1.4c.8 1.9 1 3.7 1 16.9zM226.5 75.7c0-4.7-.3-6.3-.9-7.8-.3-.8-.7-1.5-1.2-2 .5-.6.9-1.3 1.1-2.1.5-1.6.8-3 .8-7.5.0-3.4.0-6.4-1.1-8.7-.6-1.3-1.4-2-2.4-2-1.1.0-1.8.8-2.4 2-.7 1.7-1 4.2-1 7h1c0-2.2.2-4.4.8-5.7.4-.8.9-1.3 1.6-1.3.7.0 1.3.5 1.7 1.4.8 1.8.8 3.9.8 7.3.0 4.5-.3 5.9-.8 7.2-.4 1-.9 1.5-1.6 1.5h-1.5v2h1.5c.6.0 1.1.4 1.6 1.5.6 1.5.9 2.9.9 7.3.0 3.3-.2 5.5-.8 7.1-.4.9-1 1.5-1.7 1.5s-1.2-.5-1.6-1.3c-.6-1.3-.8-3.6-.8-5.7h-1c0 3 .4 5.7 1.2 7.4.5 1.1 1.3 1.7 2.2 1.7 1 0 1.9-.7 2.4-2 1-2.5 1.2-4.8 1.2-8.8zM238.8 92.2v-8.3h-1.3V46.1h-5.9v18c0 7.6-.5 14.3-1.4 19.8h-1.1v8.3h1v-6.3h7.6v6.3h1.1zm-2.3-8.3h-5.2c1-5.7 1.4-12.3 1.4-19.6V48.1h3.9v35.8zM249 66c0-13.7-.2-16-1.3-18.4-.6-1.3-1.4-2-2.4-2s-1.9.7-2.4 2c-1.1 2.4-1.3 4.6-1.3 18.4.0 13.7.2 16 1.3 18.4.6 1.3 1.4 2 2.4 2s1.9-.7 2.4-2c1-2.4 1.3-4.7 1.3-18.4zm-1.1.0c0 13.2-.2 15-1 16.9-.4.9-1 1.4-1.7 1.4s-1.3-.5-1.7-1.4c-.8-2-1-3.7-1-16.9s.2-15 1-16.9c.4-.9 1-1.4 1.7-1.4s1.3.5 1.7 1.4c.9 1.9 1 3.7 1 16.9zM259.7 56.9c0-9.7-1.9-10.7-3.7-10.7h-3.2v39.7h1V67.6h2.2c1.8.0 3.7-1.2 3.7-10.7zm-1 0c0 7.6-1.2 8.7-2.7 8.7h-2.1V48.1h2.1c1.4.0 2.7 1.1 2.7 8.8zM270.5 66c0-13.7-.2-16-1.3-18.4-.6-1.3-1.4-2-2.4-2s-1.9.7-2.4 2c-1.1 2.4-1.3 4.6-1.3 18.4.0 13.7.2 16 1.3 18.4.6 1.3 1.4 2 2.4 2s1.9-.7 2.4-2c1.1-2.4 1.3-4.7 1.3-18.4zm-1 0c0 13.2-.2 15-1 16.9-.4.9-1 1.4-1.7 1.4s-1.3-.5-1.7-1.4c-.8-2-1-3.7-1-16.9s.2-15 1-16.9c.4-.9 1-1.4 1.7-1.4s1.3.5 1.7 1.4c.8 1.9 1 3.7 1 16.9zM281.2 75.1c0-3-.1-6-1.2-8.3-.4-.8-.8-1.3-1.3-1.6.4-.2.8-.8 1.2-1.6 1-2.1 1.1-4.6 1.1-7.4.0-4.2-.2-6.1-1-7.9-.7-1.7-1.5-2.2-2.9-2.2h-2.8v39.7h2.8c1.4.0 2.3-.6 3-2.2.8-1.6 1.1-3.5 1.1-8.5zm-1 0c0 7-1.1 8.8-2.9 8.8h-1.9V66.3h1.9c1.8.0 2.9 2.5 2.9 8.8zm-.2-18.9c0 5.8-1 8.1-2.7 8.1h-1.9V48.1h1.9c1.7.0 2.7 1.7 2.7 8.1zM286 50.6v-4.5h-1.3v6.6l1.3-2.1zM290.2 85.9l2.7-18.4h2.6v18.4h1V46.1h-3.2c-1.8.0-3.7 1.1-3.7 10.7.0 6.6.9 9.4 2.3 10.3L289 85.9h1.2zm.4-29c0-5.8.7-8.7 2.6-8.7h2.3v17.4h-2.3c-1.9.0-2.6-2.9-2.6-8.7z" class="st0"/></svg>