<svg id="Слой_1" xmlns="http://www.w3.org/2000/svg" xmlns:xlink="http://www.w3.org/1999/xlink" viewBox="0 0 106.5 77.8" style="enable-background:new 0 0 106.5 77.8"><style>.st0{fill:#fff}</style><g><path class="st0" d="M24 0h-2.7v10.6h-4.7V0h-2.7v12.8h9.5v3.7h2.6v-5.9H24V0z"/><path class="st0" d="M33.1 5.3c.3.4.5.9.5 1.5h-3.8c0-.7.2-1.2.6-1.5.3-.4.8-.5 1.3-.5C32.3 4.7 32.7 4.9 33.1 5.3zM34.1 12.9c.5-.1 1-.3 1.5-.5v-2.1c-.6.3-1.1.5-1.7.6C33.4 11 32.8 11 32.2 11c-.8.0-1.4-.2-1.8-.6-.4-.4-.6-1-.7-1.8H36V7.3c0-1.4-.4-2.5-1.2-3.3-.8-.8-1.9-1.2-3.2-1.2-1.5.0-2.6.4-3.4 1.3-.8.9-1.2 2.2-1.2 3.8.0 1.6.4 2.8 1.3 3.7.9.9 2.1 1.3 3.7 1.3C32.9 13 33.5 13 34.1 12.9z"/><path class="st0" d="M55.4 3h-3.7c-1 2.5-1.6 4-1.8 4.3-.1.3-.2.7-.4 1.1-.1.4-.3 1-.5 1.9-.1-.4-.2-.9-.3-1.5s-.3-1.1-.5-1.6L46.7 3H43v9.8h2.5V5.1l.2.6c.3 1.2.6 2.1.8 2.7l1.8 4.4h1.9l1.7-4.4c.3-.6.5-1.6.9-2.8l.1-.5v7.7h2.5V3z"/><path class="st0" d="M60.8 5.7C61.1 5.2 61.6 5 62.4 5c.7.0 1.2.2 1.6.7.3.5.5 1.2.5 2.2.0 1-.2 1.7-.5 2.2-.3.5-.8.7-1.5.7-.7.0-1.2-.2-1.6-.7-.3-.5-.5-1.2-.5-2.2C60.3 6.9 60.5 6.2 60.8 5.7zM66.6 5.2c-.4-.8-.9-1.4-1.7-1.8-.7-.4-1.6-.6-2.5-.6-1.5.0-2.7.4-3.5 1.3-.8.9-1.3 2.1-1.3 3.7.0 1 .2 1.9.6 2.7.4.8.9 1.4 1.7 1.8.7.4 1.6.6 2.5.6 1.5.0 2.7-.5 3.5-1.4.8-.9 1.3-2.2 1.3-3.8C67.1 6.9 67 6 66.6 5.2z"/><path class="st0" d="M71.1 3h-2.8l3.6 4.7-4 5.1h2.9l3.7-5v5H77v-5l3.7 5h2.9l-4-5.1L83.3 3h-2.8L77 7.8V3h-2.5v4.8L71.1 3z"/><path class="st0" d="M90.5 5.3c.3.4.5.9.5 1.5h-3.8c0-.7.2-1.2.6-1.5.3-.4.8-.5 1.3-.5C89.7 4.7 90.2 4.9 90.5 5.3zM91.5 12.9c.5-.1 1-.3 1.5-.5v-2.1c-.6.3-1.1.5-1.7.6C90.8 11 90.3 11 89.7 11c-.8.0-1.4-.2-1.8-.6-.4-.4-.6-1-.7-1.8h6.3V7.3c0-1.4-.4-2.5-1.2-3.3-.8-.8-1.9-1.2-3.2-1.2-1.5.0-2.6.4-3.4 1.3-.8.9-1.2 2.2-1.2 3.8.0 1.6.4 2.8 1.3 3.7.9.9 2.1 1.3 3.7 1.3C90.3 13 91 13 91.5 12.9z"/><path class="st0" d="M16.1 25.3c-.7-.4-1.7-.7-3-.7H8v9.8h5c1.4.0 2.5-.3 3.2-.8.8-.5 1.1-1.2 1.1-2.2.0-.6-.2-1.1-.6-1.5-.4-.4-1-.6-1.7-.7v-.1c.6-.1 1.1-.3 1.5-.7.3-.4.5-.8.5-1.3C17.1 26.4 16.8 25.7 16.1 25.3zM14.2 32.3c-.3.2-.7.3-1.3.3h-2.2v-2.3h2.1c.6.0 1 .1 1.3.3.3.2.4.5.4.8S14.5 32.1 14.2 32.3zM14 28.2c-.3.2-.7.2-1.3.2h-1.9v-1.9H13c1 0 1.4.3 1.4.9C14.4 27.8 14.3 28 14 28.2z"/><path class="st0" d="M19.6 24.6v9.8h2.7v-7.8h3.6v7.8h2.7v-9.8h-9z"/><path class="st0" d="M40.1 24.6h-7.4c-.1 2-.3 3.5-.5 4.6-.2 1.1-.4 1.9-.6 2.4-.2.5-.5.7-.8.7-.3.0-.6-.1-.9-.2v2.1c.4.2.9.3 1.5.3.7.0 1.3-.2 1.8-.7.4-.5.8-1.3 1.1-2.3.3-1.1.5-2.7.7-4.9h2.5v7.8h2.7V24.6z"/><path class="st0" d="M42.9 24.6v9.8h3.2l4.5-6.9c-.1 1.3-.2 2.3-.2 3v3.9H53v-9.8h-3.2l-4.5 6.9c.1-1.6.2-2.6.2-3v-3.9H42.9z"/><path class="st0" d="M64 25.3c-.7-.4-1.7-.7-3-.7h-5v9.8h5c1.4.0 2.5-.3 3.2-.8.8-.5 1.1-1.2 1.1-2.2.0-.6-.2-1.1-.6-1.5-.4-.4-1-.6-1.7-.7v-.1c.6-.1 1.1-.3 1.5-.7.3-.4.5-.8.5-1.3C65 26.4 64.7 25.7 64 25.3zM62.1 32.3c-.3.2-.7.3-1.3.3h-2.2v-2.3h2.1c.6.0 1 .1 1.3.3.3.2.4.5.4.8S62.4 32.1 62.1 32.3zM61.8 28.2c-.3.2-.7.2-1.3.2h-1.9v-1.9h2.3c1 0 1.4.3 1.4.9C62.3 27.8 62.1 28 61.8 28.2z"/><path class="st0" d="M75.6 34.4v-6.5c0-1.2-.4-2-1.1-2.6-.7-.6-1.7-.9-3-.9-1.4.0-2.6.3-3.8.9l.9 1.8c1.1-.5 2-.7 2.8-.7 1 0 1.5.5 1.5 1.5v.4l-1.7.1c-1.5.1-2.6.3-3.3.8-.7.5-1.1 1.3-1.1 2.3.0 1 .3 1.8.8 2.3.5.5 1.3.8 2.2.8.8.0 1.4-.1 1.9-.3.5-.2.9-.6 1.4-1.2h.1l.5 1.3H75.6zM72.9 30.7c0 .6-.2 1.1-.6 1.4-.4.4-.9.5-1.5.5-.9.0-1.3-.4-1.3-1.1.0-.5.2-.9.6-1.2.4-.3 1-.4 1.7-.4h1V30.7z"/><path class="st0" d="M77.3 24.6v2h3.2v7.8h2.7v-7.8h3.2v-2H77.3z"/><path class="st0" d="M88.3 24.6v9.8h3.2l4.5-6.9c-.1 1.3-.2 2.3-.2 3v3.9h2.6v-9.8h-3.2l-4.5 6.9c.1-1.6.2-2.6.2-3v-3.9H88.3z"/><path class="st0" d="M0 46.2V56h2.7V52h3.7v4h2.7v-9.8H6.4V50H2.7v-3.8H0z"/><path class="st0" d="M20.1 56v-6.5c0-1.2-.4-2-1.1-2.6-.7-.6-1.7-.9-3-.9-1.4.0-2.6.3-3.8.9l.9 1.8c1.1-.5 2-.7 2.8-.7 1 0 1.5.5 1.5 1.5v.4L15.7 50c-1.5.1-2.6.3-3.3.8-.7.5-1.1 1.3-1.1 2.3.0 1 .3 1.8.8 2.3.5.5 1.3.8 2.2.8.8.0 1.4-.1 1.9-.3.5-.2.9-.6 1.4-1.2h.1l.5 1.3H20.1zM17.4 52.3c0 .6-.2 1.1-.6 1.4-.4.4-.9.5-1.5.5-.9.0-1.3-.4-1.3-1.1.0-.5.2-.9.6-1.2.4-.3 1-.4 1.7-.4h1V52.3z"/><path class="st0" d="M29 50v1.9h1c1 0 1.7.1 2.1.3.5.2.7.5.7.9.0.4-.2.6-.7.8-.4.2-1.1.3-2 .3-.6.0-1.1-.1-1.7-.2-.6-.1-1.2-.3-1.7-.6v2.2c.9.4 2.1.6 3.8.6 1 0 1.9-.1 2.6-.4.7-.3 1.3-.6 1.7-1.1.4-.5.6-1 .6-1.6.0-.6-.2-1.1-.5-1.4-.3-.4-.9-.6-1.7-.8v-.1c1.3-.3 2-1.1 2-2.2.0-.8-.4-1.4-1.1-1.9-.7-.5-1.7-.7-2.9-.7-.8.0-1.5.1-2.2.2-.7.1-1.3.3-2 .6l.8 1.9c.5-.2 1-.3 1.6-.5.6-.1 1.1-.2 1.5-.2.7.0 1.2.1 1.5.2.3.2.5.4.5.7.0.4-.2.6-.6.8C31.7 49.9 31 50 30 50H29z"/><path class="st0" d="M40 54.1c.5-.9.8-1.8 1.1-2.8.3-1 .5-2 .6-3.1h2v5.9H40zM47.8 54.1h-1.4v-7.9h-7c-.2 1.7-.4 3.2-.8 4.6-.4 1.3-.9 2.4-1.4 3.3h-.8v5.5h2.4V56h6.6v3.5h2.4V54.1z"/><path class="st0" d="M52.1 48.9c.3-.5.8-.7 1.5-.7.7.0 1.2.2 1.6.7.3.5.5 1.2.5 2.2.0 1-.2 1.7-.5 2.2-.3.5-.8.7-1.5.7-.7.0-1.2-.2-1.6-.7-.3-.5-.5-1.2-.5-2.2C51.6 50.1 51.8 49.4 52.1 48.9zM57.8 48.4c-.4-.8-.9-1.4-1.7-1.8-.7-.4-1.6-.6-2.5-.6-1.5.0-2.7.4-3.5 1.3-.8.9-1.3 2.1-1.3 3.7.0 1 .2 1.9.6 2.7.4.8.9 1.4 1.7 1.8.7.4 1.6.6 2.5.6 1.5.0 2.7-.5 3.5-1.4.8-.9 1.3-2.2 1.3-3.8C58.4 50.1 58.2 49.2 57.8 48.4z"
		/><path class="st0" d="M68.1 55.6c.6-.4 1-1 1.3-1.8.3-.8.5-1.7.5-2.7.0-1.6-.3-2.8-1-3.7-.7-.9-1.6-1.3-2.7-1.3-1.2.0-2.2.5-2.8 1.5h-.1l-.4-1.3h-2.2v14.2h2.7v-4c0-.1.0-.6-.1-1.4h.1c.7.8 1.6 1.3 2.7 1.3C66.8 56.2 67.5 56 68.1 55.6zM66.7 48.9c.3.5.4 1.2.4 2.2.0 2-.6 3-1.8 3-.7.0-1.2-.2-1.5-.7-.3-.5-.5-1.2-.5-2.3v-.3c0-.9.2-1.6.5-2 .3-.4.8-.6 1.5-.6C65.9 48.2 66.4 48.4 66.7 48.9z"/><path class="st0" d="M74.7 48.9c.3-.5.8-.7 1.5-.7.7.0 1.2.2 1.6.7.3.5.5 1.2.5 2.2.0 1-.2 1.7-.5 2.2-.3.5-.8.7-1.5.7-.7.0-1.2-.2-1.6-.7-.3-.5-.5-1.2-.5-2.2C74.2 50.1 74.3 49.4 74.7 48.9zM80.4 48.4c-.4-.8-.9-1.4-1.7-1.8C78 46.2 77.2 46 76.3 46c-1.5.0-2.7.4-3.5 1.3-.8.9-1.3 2.1-1.3 3.7.0 1 .2 1.9.6 2.7.4.8.9 1.4 1.7 1.8.7.4 1.6.6 2.5.6 1.5.0 2.7-.5 3.5-1.4.8-.9 1.3-2.2 1.3-3.8C81 50.1 80.8 49.2 80.4 48.4z"/><path class="st0" d="M91.3 46.9c-.7-.4-1.7-.7-3-.7h-5V56h5c1.4.0 2.5-.3 3.2-.8.8-.5 1.1-1.2 1.1-2.2.0-.6-.2-1.1-.6-1.5-.4-.4-1-.6-1.7-.7v-.1c.6-.1 1.1-.3 1.5-.7.3-.4.5-.8.5-1.3C92.3 48 92 47.3 91.3 46.9zM89.4 53.9c-.3.2-.7.3-1.3.3h-2.2v-2.3H88c.6.0 1 .1 1.3.3.3.2.4.5.4.8S89.7 53.7 89.4 53.9zM89.1 49.8c-.3.2-.7.2-1.3.2h-1.9v-1.9h2.3c1 0 1.4.3 1.4.9C89.6 49.4 89.4 49.6 89.1 49.8z"/><path class="st0" d="M94.4 43.2c-.2 1.2-.5 2.7-.9 4.4h1.9c.7-1.7 1.3-3.1 1.5-4.2l-.1-.2H94.4z"/><path class="st0" d="M102.4 52.4h1.5V56h2.7v-9.8h-4.6c-1.2.0-2.2.3-2.9.8-.7.5-1.1 1.3-1.1 2.2.0.7.2 1.3.5 1.8.3.5.8.9 1.4 1.1L97.2 56h2.9L102.4 52.4zM101 48.4c.2-.2.6-.3 1-.3h1.8v2.5h-1.5c-.5.0-.9-.1-1.3-.3-.3-.2-.5-.6-.5-1C100.6 48.9 100.7 48.6 101 48.4z"/><path class="st0" d="M16.8 67.8v9.8h2.7v-7.8H23v7.8h2.7v-9.8H16.8z"/><path class="st0" d="M33.9 70.1c.3.4.5.9.5 1.5h-3.8c0-.7.2-1.2.6-1.5.3-.4.8-.5 1.3-.5C33.2 69.5 33.6 69.7 33.9 70.1zM34.9 77.7c.5-.1 1-.3 1.5-.5v-2.1c-.6.3-1.1.5-1.7.6-.5.1-1.1.2-1.7.2-.8.0-1.4-.2-1.8-.6-.4-.4-.6-1-.7-1.8H37v-1.3c0-1.4-.4-2.5-1.2-3.3C35 68 34 67.6 32.6 67.6c-1.5.0-2.6.4-3.4 1.3-.8.9-1.2 2.2-1.2 3.8.0 1.6.4 2.8 1.3 3.7.9.9 2.1 1.3 3.7 1.3C33.7 77.8 34.4 77.8 34.9 77.7z"/><path class="st0" d="M38.8 67.8v3.7c0 1 .3 1.8.9 2.3.6.5 1.4.8 2.5.8.5.0 1-.1 1.5-.2.5-.1 1.1-.4 1.7-.7v3.9h2.7v-9.8h-2.7V72c-.5.2-.9.3-1.3.5-.4.1-.9.2-1.4.2-.8.0-1.2-.4-1.2-1.3v-3.6H38.8z"/><path class="st0" d="M52.3 66.6c.5.0.9-.1 1.1-.3.2-.2.4-.6.4-1 0-.9-.5-1.3-1.5-1.3-1 0-1.5.4-1.5 1.3C50.9 66.2 51.4 66.6 52.3 66.6v0zM53.7 67.8H51v9.8h2.7V67.8z"/><path class="st0" d="M56.5 67.8v9.8h2.7v-4.1h3.7v4.1h2.7v-9.8h-2.7v3.8h-3.7v-3.8H56.5z"/><path class="st0" d="M71.1 72.6v-4.8h-2.7v9.8h2.7v-5l4 5.1h3l-4.2-5.1 3.9-4.7h-3L71.1 72.6z"/><path class="st0" d="M79.6 67.8v9.8h3.2l4.5-6.9c-.1 1.3-.2 2.3-.2 3v3.9h2.6v-9.8h-3.2L82 74.7c.1-1.6.2-2.6.2-3v-3.9H79.6z"/></g></svg>