<svg id="Слой_1" xmlns="http://www.w3.org/2000/svg" xmlns:xlink="http://www.w3.org/1999/xlink" viewBox="0 0 291.9 10.1" style="enable-background:new 0 0 291.9 10.1"><style>.st0{fill:#fff}</style><g><path class="st0" d="M1.8.1 2.1 2l-2-.5L0 2.3l1.8.2L.7 4.1l.9.5.8-1.8.9 1.8L4 4.1 2.8 2.5l1.9-.2L4.5 1.5 2.6 2l.2-1.9H1.8z"/><path class="st0" d="M7.4.1 7.6 2 5.7 1.5 5.5 2.3l1.8.2L6.2 4.1l.9.5.8-1.8.9 1.8.8-.5L8.3 2.5l1.9-.2-.1-.9L8.1 2l.2-1.9H7.4z"/><path class="st0" d="M16.4 6.9h-.9V.5h-3.2c0 1-.2 2.1-.6 3.3-.4 1.2-.8 2.2-1.3 3.1H9.8v2.6h.8V7.7h5v1.9h.8V6.9zM11.3 6.9c.4-.8.8-1.7 1.2-2.8C12.8 3 13 2.1 13 1.3h1.6v5.6H11.3z"/><path class="st0" d="M21.8 2.3h-3.1c-.1 1.6-.3 2.8-.5 3.6-.2.8-.5 1.2-.9 1.2-.1.0-.2.0-.2.0v.6c.1.0.2.1.4.1.4.0.7-.2.9-.5.2-.3.5-.8.6-1.5.2-.7.3-1.6.4-2.8H21v4.7h.8V2.3z"/><path class="st0" d="M25.1 5.5h1.4v2.1h.8V2.3h-2.4c-.6.0-1 .1-1.4.4C23.2 3 23 3.4 23 3.9c0 .4.1.7.3 1 .2.3.5.4.9.5l-1.5 2.3h.9L25.1 5.5zM25 3h1.5v1.8h-1.3c-.9.0-1.3-.3-1.3-.9C23.8 3.3 24.2 3 25 3V3z"/><path class="st0" d="M33.4 2.3h-2.3v5.4h2.4c.7.0 1.2-.1 1.6-.4.4-.3.5-.7.5-1.2.0-.4-.1-.6-.3-.8-.2-.2-.5-.3-1-.4v0c.4-.1.6-.2.8-.4.2-.2.3-.4.3-.8C35.4 2.8 34.7 2.3 33.4 2.3v0zm0 4.7h-1.5V5.2h1.5c.5.0.9.1 1.1.2s.3.3.3.6C34.8 6.7 34.3 7 33.4 7V7zM34.3 4.3c-.2.1-.6.2-1.1.2h-1.4V3h1.5c.4.0.7.1.9.2.2.1.3.3.3.6C34.6 4 34.5 4.2 34.3 4.3z"/><path class="st0" d="M40.2 7.5V6.8c-.5.2-.9.3-1.4.3-.5.0-.9-.2-1.2-.5-.3-.4-.4-.9-.4-1.5.0-1.4.5-2.1 1.6-2.1.2.0.3.0.6.1.2.0.4.1.6.2l.2-.7c-.1-.1-.3-.1-.6-.2-.3-.1-.5-.1-.8-.1-.8.0-1.4.2-1.8.7-.4.5-.6 1.2-.6 2.1.0.9.2 1.5.6 2s1 .7 1.8.7C39.4 7.8 39.9 7.7 40.2 7.5v0z"/><path class="st0" d="M45.3 2.3H41V3h1.7v4.7h.8V3h1.7V2.3z"/><path class="st0" d="M50.1 7.7V4c0-.6-.2-1.1-.5-1.4-.3-.3-.8-.4-1.4-.4-.3.0-.6.0-.9.1-.3.1-.6.2-.9.3l.2.6c.6-.3 1.1-.4 1.5-.4.4.0.7.1.9.3.2.2.3.5.3.9v.3h-.9c-1.7.1-2.6.6-2.6 1.7.0.5.2.9.5 1.2.3.3.7.4 1.2.4.4.0.7-.1 1-.2.3-.1.5-.3.8-.7h0l.2.8H50.1zM46.9 6.9c-.2-.2-.3-.4-.3-.7.0-.4.1-.7.4-.8.3-.2.7-.3 1.4-.3h.8v.5c0 .5-.1.9-.4 1.2-.3.3-.7.4-1.2.4C47.3 7.1 47.1 7 46.9 6.9z"/><path class="st0" d="M51.6 2.3v5.4h.8V5.2h3v2.4h.8V2.3h-.8v2.2h-3V2.3H51.6z"/><path class="st0" d="M61.7 3c-.4-.5-1-.7-1.8-.7-.8.0-1.4.2-1.8.7-.4.5-.7 1.2-.7 2 0 .6.1 1.1.3 1.5.2.4.5.7.9 1 .4.2.8.3 1.3.3.8.0 1.4-.2 1.8-.7.4-.5.7-1.2.7-2C62.4 4.1 62.2 3.5 61.7 3zM58.7 3.4c.3-.3.7-.5 1.2-.5.5.0.9.2 1.2.5.3.4.4.9.4 1.6.0.7-.1 1.2-.4 1.6-.3.4-.7.5-1.2.5-.5.0-.9-.2-1.2-.5-.3-.4-.4-.9-.4-1.6C58.3 4.3 58.4 3.8 58.7 3.4z"/><path class="st0" d="M66 2.3h-2.3v5.4H66c.7.0 1.2-.1 1.6-.4C68 7 68.2 6.6 68.2 6.1c0-.4-.1-.6-.3-.8-.2-.2-.5-.3-1-.4v0c.4-.1.6-.2.8-.4C67.9 4.3 68 4 68 3.7 68 2.8 67.3 2.3 66 2.3v0zM65.9 7h-1.5V5.2h1.5c.5.0.9.1 1.1.2.2.1.3.3.3.6C67.3 6.7 66.9 7 65.9 7V7zm1-2.7c-.2.1-.6.2-1.1.2h-1.4V3H66c.4.0.7.1.9.2.2.1.3.3.3.6C67.2 4 67.1 4.2 66.9 4.3z"/><path class="st0" d="M73.5 2.3h-3.1c-.1 1.6-.3 2.8-.5 3.6-.2.8-.5 1.2-.9 1.2-.1.0-.2.0-.2.0v.6c.1.0.2.1.4.1.4.0.7-.2.9-.5.2-.3.5-.8.6-1.5C70.8 5.1 70.9 4.2 71 3h1.6v4.7h.8V2.3z"/><path class="st0" d="M78.2 7.7c.3-.1.5-.1.8-.3V6.7c-.6.2-1.1.4-1.7.4-.5.0-1-.2-1.3-.5-.3-.3-.5-.8-.5-1.4h3.7V4.6c0-.7-.2-1.3-.6-1.7-.4-.4-.9-.7-1.6-.7-.7.0-1.3.3-1.7.8-.4.5-.6 1.2-.6 2.1.0.9.2 1.5.7 2 .5.5 1.1.7 1.9.7C77.6 7.8 77.9 7.7 78.2 7.7zM78 3.3c.2.3.3.7.3 1.2h-2.8c0-.5.2-.9.5-1.2.3-.3.6-.4 1-.4C77.5 2.9 77.8 3 78 3.3z"/><path class="st0" d="M80.5 2.3v5.4h.8V5.2h3v2.4h.8V2.3h-.8v2.2h-3V2.3H80.5z"/><path class="st0" d="M86.6 2.3v5.4h.8V5.2h3v2.4h.8V2.3h-.8v2.2h-3V2.3H86.6z"/><path class="st0" d="M94.6 5.5H96v2.1h.8V2.3h-2.4c-.6.0-1 .1-1.4.4-.3.3-.5.7-.5 1.2.0.4.1.7.3 1 .2.3.5.4.9.5l-1.5 2.3h.9L94.6 5.5zM94.5 3H96v1.8h-1.3c-.9.0-1.3-.3-1.3-.9C93.3 3.3 93.7 3 94.5 3V3z"/><path class="st0" d="M105.2 7h-.8V2.3h-2.7c0 .9-.1 1.8-.4 2.6-.2.8-.6 1.5-1 2.1h-.4v2.5h.8V7.7h3.7v1.9h.8V7zm-4 0c.4-.5.6-1.1.9-1.8.2-.7.4-1.5.4-2.2h1.2v4H101.2z"/><path class="st0" d="M107 2.3h-.8v5.4h.8V2.3zM106.3 1.3c.1.1.2.1.3.1.1.0.2.0.3-.1.1-.1.1-.2.1-.4s0-.3-.1-.4c-.1-.1-.2-.1-.3-.1-.1.0-.3.0-.3.1-.1.1-.1.2-.1.4C106.1 1 106.2 1.2 106.3 1.3z"/><path class="st0" d="M112.4 7.7V4c0-.6-.2-1.1-.5-1.4s-.8-.4-1.4-.4c-.3.0-.6.0-.9.1-.3.1-.6.2-.9.3l.2.6c.6-.3 1.1-.4 1.5-.4.4.0.7.1.9.3.2.2.3.5.3.9v.3h-.9c-1.7.1-2.6.6-2.6 1.7.0.5.2.9.5 1.2.3.3.7.4 1.2.4.4.0.7-.1 1-.2.3-.1.5-.3.8-.7h0l.2.8H112.4zM109.3 6.9c-.2-.2-.3-.4-.3-.7.0-.4.1-.7.4-.8.3-.2.7-.3 1.4-.3h.8v.5c0 .5-.1.9-.4 1.2-.3.3-.7.4-1.2.4C109.7 7.1 109.4 7 109.3 6.9z"/><path class="st0" d="M117.2 2.3H114v5.4h.8V3h2.4V2.3z"/><path class="st0" d="M118.2 2.3v5.4h.8V5.2h3v2.4h.8V2.3H122v2.2h-3V2.3H118.2z"/><path class="st0" d="M128.3 3c-.4-.5-1-.7-1.8-.7-.8.0-1.4.2-1.8.7-.4.5-.7 1.2-.7 2 0 .6.1 1.1.3 1.5.2.4.5.7.9 1 .4.2.8.3 1.3.3.8.0 1.4-.2 1.8-.7.4-.5.7-1.2.7-2C129 4.1 128.7 3.5 128.3 3zM125.3 3.4c.3-.3.7-.5 1.2-.5.5.0.9.2 1.2.5.3.4.4.9.4 1.6.0.7-.1 1.2-.4 1.6-.3.4-.7.5-1.2.5-.5.0-.9-.2-1.2-.5-.3-.4-.4-.9-.4-1.6C124.9 4.3 125 3.8 125.3 3.4z"/><path class="st0" d="M130.7 4.5v.7h.7c1 0 1.5.3 1.5.9.0.3-.1.5-.4.7-.2.2-.6.2-1.1.2-.6.0-1.2-.1-1.8-.4v.7c.4.2 1 .3 1.8.3.7.0 1.3-.1 1.7-.4.4-.3.6-.7.6-1.2.0-.3-.1-.6-.3-.8-.2-.2-.5-.4-.9-.5v0c.7-.2 1-.6 1-1.2.0-.4-.2-.8-.5-1-.4-.3-.8-.4-1.5-.4-.7.0-1.3.1-1.8.4l.3.7c.3-.1.6-.2.8-.3.2.0.4-.1.7-.1.8.0 1.2.3 1.2.8.0.6-.5.8-1.5.8H130.7z"/><path class="st0" d="M136.3 7.7 136 8.5c-.2.6-.6.9-1.2.9-.2.0-.4.0-.6-.1V10c.2.1.5.1.7.1.4.0.8-.1 1.1-.4.3-.3.6-.7.8-1.3l2.3-6.1h-.9c-.7 2.1-1.2 3.3-1.3 3.7-.1.4-.2.7-.3.9h0c-.1-.3-.2-.8-.5-1.5L135 2.3h-.9L136.3 7.7z"/><path class="st0" d="M142.2 2.3v5.4h.8V5.2h3v2.4h.8V2.3H146v2.2h-3V2.3H142.2z"/><path class="st0" d="M151.5 7.7c.3-.1.5-.1.8-.3V6.7c-.6.2-1.1.4-1.7.4-.5.0-1-.2-1.3-.5-.3-.3-.5-.8-.5-1.4h3.7V4.6c0-.7-.2-1.3-.6-1.7-.4-.4-.9-.7-1.6-.7-.7.0-1.3.3-1.7.8C148.3 3.5 148 4.2 148 5c0 .9.2 1.5.7 2 .5.5 1.1.7 1.9.7C151 7.8 151.3 7.7 151.5 7.7zM151.4 3.3c.2.3.3.7.3 1.2h-2.8c0-.5.2-.9.5-1.2.3-.3.6-.4 1-.4C150.8 2.9 151.1 3 151.4 3.3z"/><path class="st0" d="M157.8 3c-.4-.5-1-.7-1.8-.7-.8.0-1.4.2-1.8.7-.4.5-.7 1.2-.7 2 0 .6.1 1.1.3 1.5.2.4.5.7.9 1 .4.2.8.3 1.3.3.8.0 1.4-.2 1.8-.7.4-.5.7-1.2.7-2C158.5 4.1 158.3 3.5 157.8 3zM154.8 3.4c.3-.3.7-.5 1.2-.5.5.0.9.2 1.2.5.3.4.4.9.4 1.6.0.7-.1 1.2-.4 1.6-.3.4-.7.5-1.2.5-.5.0-.9-.2-1.2-.5-.3-.4-.4-.9-.4-1.6C154.4 4.3 154.5 3.8 154.8 3.4z"/><path class="st0" d="M160.2 6.9c.4.6 1 .9 1.8.9.8.0 1.4-.2 1.8-.7.4-.5.6-1.1.6-2 0-.8-.2-1.3-.6-1.8-.4-.4-.9-.6-1.5-.6-.3.0-.7.1-1 .2-.3.2-.6.4-.8.6h-.1c0-.7.2-1.2.4-1.6.2-.4.6-.7 1.1-.8.5-.1 1.3-.3 2.4-.4L164.1.0c-.7.1-1.5.3-2.5.5-.7.2-1.3.6-1.6 1.2-.3.7-.5 1.6-.5 2.7C159.5 5.5 159.7 6.3 160.2 6.9zM160.8 6.4c-.3-.4-.4-1.1-.4-2 .1-.2.3-.4.4-.5.2-.2.4-.3.6-.4.2-.1.5-.2.7-.2.9.0 1.4.6 1.4 1.8.0 1.3-.5 1.9-1.5 1.9C161.4 7.1 161 6.9 160.8 6.4z"/><path class="st0" d="M164.8 7.7h.9l1.5-2.2 1.5 2.2h.9l-2-2.7 1.9-2.6h-.9l-1.4 2.1-1.4-2.1h-.9l1.9 2.6-2 2.7z"/><path class="st0" d="M171.4 2.3h-.8v5.4h.8V2.3zM170.7 1.3c.1.1.2.1.3.1.1.0.2.0.3-.1.1-.1.1-.2.1-.4s0-.3-.1-.4c-.1-.1-.2-.1-.3-.1-.1.0-.3.0-.3.1-.1.1-.1.2-.1.4C170.5 1 170.6 1.2 170.7 1.3z"/><path class="st0" d="M177.7 7h-.8V2.3h-2.7c0 .9-.1 1.8-.4 2.6-.2.8-.6 1.5-1 2.1h-.4v2.5h.8V7.7h3.7v1.9h.8V7zm-4 0c.4-.5.6-1.1.9-1.8.2-.7.4-1.5.4-2.2h1.2v4h-2.5z"/><path class="st0" d="M178.7 2.3v5.4h.8V5.2h3v2.4h.8V2.3h-.8v2.2h-3V2.3H178.7z"/><path class="st0" d="M188.8 3c-.4-.5-1-.7-1.8-.7-.8.0-1.4.2-1.8.7-.4.5-.7 1.2-.7 2 0 .6.1 1.1.3 1.5s.5.7.9 1c.4.2.8.3 1.3.3.8.0 1.4-.2 1.8-.7.4-.5.7-1.2.7-2C189.5 4.1 189.3 3.5 188.8 3zM185.8 3.4c.3-.3.7-.5 1.2-.5.5.0.9.2 1.2.5.3.4.4.9.4 1.6.0.7-.1 1.2-.4 1.6-.3.4-.7.5-1.2.5-.5.0-.9-.2-1.2-.5-.3-.4-.4-.9-.4-1.6C185.4 4.3 185.5 3.8 185.8 3.4z"/><path class="st0" d="M193.4 4.5v.7h.7c1 0 1.5.3 1.5.9.0.3-.1.5-.4.7-.2.2-.6.2-1.1.2-.6.0-1.2-.1-1.8-.4v.7c.4.2 1 .3 1.8.3.7.0 1.3-.1 1.7-.4.4-.3.6-.7.6-1.2.0-.3-.1-.6-.3-.8-.2-.2-.5-.4-.9-.5v0c.7-.2 1-.6 1-1.2.0-.4-.2-.8-.5-1-.4-.3-.8-.4-1.5-.4-.7.0-1.3.1-1.8.4l.3.7c.3-.1.6-.2.8-.3.2.0.4-.1.7-.1.8.0 1.2.3 1.2.8.0.6-.5.8-1.5.8H193.4z"/><path class="st0" d="M200.1 2.3h-2.3v5.4h2.4c.7.0 1.2-.1 1.6-.4.4-.3.5-.7.5-1.2.0-.4-.1-.6-.3-.8-.2-.2-.5-.3-1-.4v0c.4-.1.6-.2.8-.4.2-.2.3-.4.3-.8C202.1 2.8 201.4 2.3 200.1 2.3v0zM2e2 7h-1.5V5.2h1.5c.5.0.9.1 1.1.2.2.1.3.3.3.6C201.4 6.7 201 7 2e2 7V7zm1-2.7c-.2.1-.6.2-1.1.2h-1.4V3h1.5c.4.0.7.1.9.2.2.1.3.3.3.6C201.3 4 201.2 4.2 201 4.3z"/><path class="st0" d="M206.6 7.7c.3-.1.5-.1.8-.3V6.7c-.6.2-1.1.4-1.7.4-.5.0-1-.2-1.3-.5-.3-.3-.5-.8-.5-1.4h3.7V4.6c0-.7-.2-1.3-.6-1.7-.4-.4-.9-.7-1.6-.7-.7.0-1.3.3-1.7.8-.4.5-.6 1.2-.6 2.1.0.9.2 1.5.7 2 .5.5 1.1.7 1.9.7C206 7.8 206.3 7.7 206.6 7.7zM206.4 3.3c.2.3.3.7.3 1.2H204c0-.5.2-.9.5-1.2.3-.3.6-.4 1-.4C205.9 2.9 206.2 3 206.4 3.3z"/><path class="st0" d="M213 7c.4-.5.6-1.2.6-2 0-.9-.2-1.6-.6-2-.4-.5-.9-.7-1.6-.7-.4.0-.7.1-1 .2-.3.1-.5.3-.7.6h0l-.1-.7h-.7v7.8h.8V7.9c0-.3.0-.6-.1-.9h.1c.2.3.4.5.7.6.3.1.6.2 1 .2C212.1 7.8 212.6 7.5 213 7zM212.4 3.4c.3.4.4.9.4 1.5.0.7-.1 1.2-.4 1.5-.3.4-.6.6-1.1.6-.6.0-1-.2-1.2-.5-.3-.3-.4-.9-.4-1.6V4.8c0-.7.1-1.1.4-1.4.2-.3.6-.5 1.2-.5C211.7 2.9 212.1 3.1 212.4 3.4z"/><path class="st0" d="M214.9 2.3v5.4h.8V5.2h3v2.4h.8V2.3h-.8v2.2h-3V2.3H214.9z"/><path class="st0" d="M222.5 7.7l-.3.8c-.2.6-.6.9-1.2.9-.2.0-.4.0-.6-.1V10c.2.1.5.1.7.1.4.0.8-.1 1.1-.4.3-.3.6-.7.8-1.3l2.3-6.1h-.9c-.7 2.1-1.2 3.3-1.3 3.7-.1.4-.2.7-.3.9h0c-.1-.3-.2-.8-.5-1.5l-1.2-3.1h-.9L222.5 7.7z"/><path class="st0" d="M230.2 2.3H226V3h1.7v4.7h.8V3h1.7V2.3z"/><path class="st0" d="M231.2 2.3v5.4h1l2.9-4.6v.6.6 3.3h.8V2.3h-1l-2.9 4.6v-.3-.9V2.3H231.2z"/><path class="st0" d="M240.9 7.5V6.8c-.5.2-.9.3-1.4.3-.5.0-.9-.2-1.2-.5C238.1 6.2 238 5.7 238 5c0-1.4.5-2.1 1.6-2.1.2.0.3.0.6.1s.4.1.6.2l.2-.7c-.1-.1-.3-.1-.6-.2-.3-.1-.5-.1-.8-.1-.8.0-1.4.2-1.8.7-.4.5-.6 1.2-.6 2.1.0.9.2 1.5.6 2 .4.5 1 .7 1.8.7C240.1 7.8 240.5 7.7 240.9 7.5v0z"/><path class="st0" d="M244 5.5h1.4v2.1h.8V2.3h-2.4c-.6.0-1 .1-1.4.4-.3.3-.5.7-.5 1.2.0.4.1.7.3 1 .2.3.5.4.9.5l-1.5 2.3h.9L244 5.5zM243.9 3h1.5v1.8H244c-.9.0-1.3-.3-1.3-.9C242.7 3.3 243.1 3 243.9 3V3z"
		/><path class="st0" d="M254.6 7h-.8V2.3h-2.7c0 .9-.1 1.8-.4 2.6-.2.8-.6 1.5-1 2.1h-.4v2.5h.8V7.7h3.7v1.9h.8V7zm-4 0c.4-.5.6-1.1.9-1.8.2-.7.4-1.5.4-2.2h1.2v4h-2.5z"/><path class="st0" d="M259.5 3c-.4-.5-1-.7-1.8-.7-.8.0-1.4.2-1.8.7-.4.5-.7 1.2-.7 2 0 .6.1 1.1.3 1.5.2.4.5.7.9 1 .4.2.8.3 1.3.3.8.0 1.4-.2 1.8-.7.4-.5.7-1.2.7-2C260.2 4.1 259.9 3.5 259.5 3zM256.5 3.4c.3-.3.7-.5 1.2-.5.5.0.9.2 1.2.5.3.4.4.9.4 1.6.0.7-.1 1.2-.4 1.6-.3.4-.7.5-1.2.5-.5.0-.9-.2-1.2-.5-.3-.4-.4-.9-.4-1.6C256.1 4.3 256.2 3.8 256.5 3.4z"/><path class="st0" d="M267.7 2.3h-3.1c-.1 1.6-.3 2.8-.5 3.6-.2.8-.5 1.2-.9 1.2-.1.0-.2.0-.2.0v.6c.1.0.2.1.4.1.4.0.7-.2.9-.5.2-.3.5-.8.6-1.5.2-.7.3-1.6.4-2.8h1.6v4.7h.8V2.3z"/><path class="st0" d="M270 2.3h-.8v5.4h.8V2.3zM269.3 1.3c.1.1.2.1.3.1.1.0.2.0.3-.1.1-.1.1-.2.1-.4s0-.3-.1-.4c-.1-.1-.2-.1-.3-.1-.1.0-.3.0-.3.1-.1.1-.1.2-.1.4C269.1 1 269.2 1.2 269.3 1.3z"/><path class="st0" d="M272.4 4.9V2.3h-.8v5.4h.8V4.9l2.4 2.7h.9l-2.5-2.8 2.3-2.6h-.9L272.4 4.9z"/><path class="st0" d="M280.5 7.7V4c0-.6-.2-1.1-.5-1.4-.3-.3-.8-.4-1.4-.4-.3.0-.6.0-.9.1-.3.1-.6.2-.9.3l.2.6c.6-.3 1.1-.4 1.5-.4.4.0.7.1.9.3.2.2.3.5.3.9v.3h-.9c-1.7.1-2.6.6-2.6 1.7.0.5.2.9.5 1.2.3.3.7.4 1.2.4.4.0.7-.1 1-.2.3-.1.5-.3.8-.7h0l.2.8H280.5zM277.4 6.9c-.2-.2-.3-.4-.3-.7.0-.4.1-.7.4-.8.3-.2.7-.3 1.4-.3h.8v.5c0 .5-.1.9-.4 1.2-.3.3-.7.4-1.2.4C277.8 7.1 277.5 7 277.4 6.9z"/><path class="st0" d="M286.2 7c.4-.5.6-1.2.6-2 0-.9-.2-1.6-.6-2-.4-.5-.9-.7-1.6-.7-.4.0-.7.1-1 .2-.3.1-.5.3-.7.6h0l-.1-.7H282v7.8h.8V7.9c0-.3.0-.6-.1-.9h.1c.2.3.4.5.7.6.3.1.6.2 1 .2C285.2 7.8 285.8 7.5 286.2 7zM285.5 3.4c.3.4.4.9.4 1.5.0.7-.1 1.2-.4 1.5-.3.4-.6.6-1.1.6-.6.0-1-.2-1.2-.5-.3-.3-.4-.9-.4-1.6V4.8c0-.7.1-1.1.4-1.4.2-.3.6-.5 1.2-.5C284.9 2.9 285.3 3.1 285.5 3.4z"/><path class="st0" d="M289.8 5.5h1.4v2.1h.8V2.3h-2.4c-.6.0-1 .1-1.4.4-.3.3-.5.7-.5 1.2.0.4.1.7.3 1 .2.3.5.4.9.5l-1.5 2.3h.9L289.8 5.5zM289.7 3h1.5v1.8h-1.3c-.9.0-1.3-.3-1.3-.9C288.5 3.3 288.9 3 289.7 3V3z"/></g></svg>