<?xml version="1.0" encoding="utf-8"?>
<!-- Generator: Adobe Illustrator 24.1.3, SVG Export Plug-In . SVG Version: 6.00 Build 0)  -->
<svg version="1.1" id="Слой_1" xmlns="http://www.w3.org/2000/svg" xmlns:xlink="http://www.w3.org/1999/xlink" x="0px" y="0px"
	 viewBox="0 0 286.78 78.68" style="enable-background:new 0 0 286.78 78.68;" xml:space="preserve">
<style type="text/css">
	.st0{fill:#FFFFFF;}
</style>
<g>
	<path class="st0" d="M3.95,0C1.04,0,0,4.18,0,8.91v17.92c0,4.73,1.04,8.91,3.95,8.91c2.91,0,3.95-4.18,3.95-8.91V23.1H7.62v3.72
		c0,4.48-0.93,8.4-3.68,8.4s-3.68-3.93-3.68-8.4V8.91c0-4.48,0.93-8.4,3.68-8.4s3.68,3.93,3.68,8.4v2.67H7.9V8.91
		C7.9,4.18,6.86,0,3.95,0z"/>
	<path class="st0" d="M20.54,26.92l1.21,8.56h0.27L17.06,0.2h-0.38l-4.85,35.28h0.27l1.18-8.56H20.54z M16.87,0.86l3.59,25.56h-7.1
		L16.87,0.86z"/>
	<path class="st0" d="M36.78,0.75v34.72h0.27V0.25h-0.47l-5.1,34.57L26.44,0.25h-0.49v35.23h0.27V0.75l5.07,34.62h0.38L36.78,0.75z"
		/>
	<path class="st0" d="M40.98,26.82c0,4.83,1.1,8.91,4,8.91c2.93,0,4.03-4.08,4.03-8.91V8.91c0-4.83-1.1-8.91-4.03-8.91
		c-2.91,0-4,4.08-4,8.91V26.82z M41.25,8.91c0-4.53,0.96-8.4,3.73-8.4c2.77,0,3.76,3.88,3.76,8.4v17.92c0,4.58-0.99,8.4-3.76,8.4
		c-2.77,0-3.73-3.82-3.73-8.4V8.91z"/>
	<path class="st0" d="M62.31,0.75v34.72h0.27V0.25H56.2l-0.6,26.72c-0.05,3.62-0.03,8.05-2.66,8.05v0.5h0.14
		c2.72-0.15,2.69-4.63,2.8-8.5l0.6-26.27H62.31z"/>
	<path class="st0" d="M66.51,0.25v35.23h0.27V0.25H66.51z"/>
	<path class="st0" d="M79.13,35.48h0.33l-6.77-18.42l6.2-16.81h-0.33l-7.57,20.48V0.25h-0.27v35.23h0.27V21.64l1.54-4.13
		L79.13,35.48z"/>
	<path class="st0" d="M93.14,0.25h-0.3l-4.47,22.7l-2.08-10.06L83.68,0.25h-0.3l4.85,23.4l-1.26,6.49
		c-0.58,2.87-1.07,4.83-2.93,4.83v0.5c2,0,2.58-2.11,3.18-5.18L93.14,0.25z"/>
	<path class="st0" d="M97.07,0.25v35.23h3.76c2.88,0,3.98-3.12,3.98-8.05v-3.17c0-4.13-0.88-7.05-3.24-7.55
		c2.28-0.5,2.85-2.92,2.85-6.84V7.45c0-4.63-0.85-7.2-3.59-7.2H97.07z M97.34,16.46V0.75h3.48c2.58,0,3.32,2.31,3.32,6.69v2.42
		c0,5.44-1.26,6.59-4.14,6.59H97.34z M97.34,34.98V16.96h2.96c2.8,0,4.22,1.96,4.22,7.3v3.17c0,4.68-0.99,7.55-3.7,7.55H97.34z"/>
	<path class="st0" d="M117.44,26.92l1.21,8.56h0.27L113.96,0.2h-0.38l-4.85,35.28H109l1.18-8.56H117.44z M113.77,0.86l3.59,25.56
		h-7.1L113.77,0.86z"/>
	<path class="st0" d="M130.53,18.12v17.36h0.27V0.25h-0.27v17.36h-7.41V0.25h-0.27v35.23h0.27V18.12H130.53z"/>
	<path class="st0" d="M142.4,18.12v17.36h0.27V0.25h-0.27v17.36H135V0.25h-0.27v35.23H135V18.12H142.4z"/>
	<path class="st0" d="M154.47,18.97v16.51h0.27V0.25h-3.7c-2.82,0-3.89,3.12-3.89,7.9v3.17c0,4.43,0.99,6.84,3.21,7.45
		c-2.22,0.55-3.21,3.07-3.21,7v5.54c0,1.31-0.08,3.12-0.55,4.18h0.33c0.41-1.16,0.49-2.82,0.49-4.18v-5.54
		c0-5.44,1.87-6.79,4.53-6.79H154.47z M154.47,0.75v17.71h-2.52c-2.85,0-4.53-1.31-4.53-7.15V8.15c0-4.53,0.96-7.4,3.62-7.4H154.47z
		"/>
	<path class="st0" d="M181.46,0.75v34.72h0.27V0.25h-0.47l-5.1,34.57l-5.05-34.57h-0.49v35.23h0.27V0.75l5.07,34.62h0.38
		L181.46,0.75z"/>
	<path class="st0" d="M185.66,26.82c0,4.83,1.1,8.91,4,8.91c2.93,0,4.03-4.08,4.03-8.91V8.91c0-4.83-1.1-8.91-4.03-8.91
		c-2.91,0-4,4.08-4,8.91V26.82z M185.93,8.91c0-4.53,0.96-8.4,3.73-8.4c2.77,0,3.76,3.88,3.76,8.4v17.92c0,4.58-0.99,8.4-3.76,8.4
		c-2.77,0-3.73-3.82-3.73-8.4V8.91z"/>
	<path class="st0" d="M212.48,35.48h0.3l-5.7-19.17l5.38-16.05h-0.33l-6.8,20.33V0.25h-0.27v20.33l-6.8-20.33h-0.3l5.38,16.05
		l-5.7,19.17h0.3l5.57-18.72l1.56,4.68v14.04h0.27V21.49l1.59-4.73L212.48,35.48z"/>
	<path class="st0" d="M216.98,17.36V0.75h6.91v-0.5h-7.19v35.23h7.19v-0.5h-6.91V17.87h5.84v-0.5H216.98z"/>
	<path class="st0" d="M240.05,15.8V0.75h7.08v-0.5h-7.35v35.23h3.89c2.96,0,4.09-3.07,4.09-8.2v-4.13c0-5.64-1.48-7.35-4.42-7.35
		H240.05z M240.05,34.98V16.31h3.29c2.8,0,4.14,1.46,4.14,6.84v4.13c0,4.83-1.01,7.7-3.81,7.7H240.05z"/>
	<path class="st0" d="M261.44,0.25h-0.3l-4.47,22.7l-2.08-10.06l-2.61-12.63h-0.3l4.85,23.4l-1.26,6.49
		c-0.58,2.87-1.07,4.83-2.93,4.83v0.5c2,0,2.58-2.11,3.18-5.18L261.44,0.25z"/>
	<path class="st0" d="M269.97,35.48V0.75h4.33v-0.5h-8.94v0.5h4.33v34.72H269.97z"/>
	<path class="st0" d="M285.93,0.75v34.72h0.27V0.25h-0.47l-3.46,16.46l-3.78,18.12V0.25h-0.27v35.23h0.41l3.51-16.76L285.93,0.75z"
		/>
	<path class="st0" d="M0,38.47V73.7h12.7V38.47h-0.27V73.2H6.5V38.47H6.23V73.2H0.27V38.47H0z"/>
	<path class="st0" d="M23.31,73.7h0.33l-6.77-18.42l6.2-16.81h-0.33l-7.57,20.48V38.47h-0.27V73.7h0.27V59.86l1.54-4.13L23.31,73.7z
		"/>
	<path class="st0" d="M25.84,38.47V73.7h0.27V38.47H25.84z"/>
	<path class="st0" d="M39.55,78.68V73.2h-1.76V38.47h-6.23l-0.82,28.48c-0.05,2.37-0.14,4.58-1.04,6.24h-1.4v5.49h0.27V73.7h10.7
		v4.98H39.55z M31.84,38.97h5.68V73.2h-7.43c0.82-1.71,0.88-3.93,0.93-6.19L31.84,38.97z"/>
	<path class="st0" d="M51.12,38.97V73.7h0.27V38.47h-6.39l-0.6,26.72c-0.05,3.62-0.03,8.05-2.66,8.05v0.5h0.14
		c2.72-0.15,2.69-4.63,2.8-8.5l0.6-26.27H51.12z"/>
	<path class="st0" d="M61.3,38.97V73.7h0.27V38.47h-0.47l-3.46,16.46l-3.78,18.12V38.47h-0.27V73.7H54l3.51-16.76L61.3,38.97z"/>
	<path class="st0" d="M63.77,38.47V73.7h3.76c2.88,0,3.98-3.12,3.98-8.05v-3.17c0-4.13-0.88-7.05-3.24-7.55
		c2.28-0.5,2.85-2.92,2.85-6.84v-2.42c0-4.63-0.85-7.2-3.59-7.2H63.77z M64.04,54.68v-15.7h3.48c2.58,0,3.32,2.32,3.32,6.69v2.42
		c0,5.44-1.26,6.59-4.14,6.59H64.04z M64.04,73.2V55.18h2.96c2.8,0,4.22,1.96,4.22,7.3v3.17c0,4.68-0.99,7.55-3.7,7.55H64.04z"/>
	<path class="st0" d="M81.4,38.97V73.7h0.27V38.47h-0.47l-3.46,16.46l-3.78,18.12V38.47H73.7V73.7h0.41l3.51-16.76L81.4,38.97z"/>
	<path class="st0" d="M94.71,38.97V73.7h0.27V38.47h-0.47l-5.1,34.57l-5.05-34.57h-0.49V73.7h0.27V38.97l5.07,34.62h0.38
		L94.71,38.97z"/>
	<path class="st0" d="M112.67,78.68V73.2h-1.76V38.47h-6.23l-0.82,28.48c-0.05,2.37-0.14,4.58-1.04,6.24h-1.4v5.49h0.27V73.7h10.7
		v4.98H112.67z M104.96,38.97h5.68V73.2h-7.43c0.82-1.71,0.88-3.93,0.93-6.19L104.96,38.97z"/>
	<path class="st0" d="M124.25,38.97V73.7h0.27V38.47h-6.39l-0.6,26.72c-0.05,3.62-0.03,8.05-2.66,8.05v0.5H115
		c2.72-0.15,2.69-4.63,2.8-8.5l0.6-26.27H124.25z"/>
	<path class="st0" d="M134.59,57.19V73.7h0.27V38.47h-3.7c-2.82,0-3.89,3.12-3.89,7.9v3.17c0,4.43,0.99,6.84,3.21,7.45
		c-2.22,0.55-3.21,3.07-3.21,7v5.54c0,1.31-0.08,3.12-0.55,4.18h0.33c0.41-1.16,0.49-2.82,0.49-4.18v-5.54
		c0-5.44,1.86-6.79,4.53-6.79H134.59z M134.59,38.97v17.71h-2.52c-2.85,0-4.53-1.31-4.53-7.15v-3.17c0-4.53,0.96-7.4,3.62-7.4
		H134.59z"/>
	<path class="st0" d="M141.31,38.47V73.7h3.76c2.88,0,3.98-3.12,3.98-8.05v-3.17c0-4.13-0.88-7.05-3.24-7.55
		c2.28-0.5,2.85-2.92,2.85-6.84v-2.42c0-4.63-0.85-7.2-3.59-7.2H141.31z M141.58,54.68v-15.7h3.48c2.58,0,3.32,2.32,3.32,6.69v2.42
		c0,5.44-1.26,6.59-4.14,6.59H141.58z M141.58,73.2V55.18h2.96c2.8,0,4.22,1.96,4.22,7.3v3.17c0,4.68-0.99,7.55-3.7,7.55H141.58z"/>
	<path class="st0" d="M159.96,65.14l1.21,8.56h0.27l-4.96-35.28h-0.38l-4.85,35.28h0.27l1.18-8.56H159.96z M156.28,39.08l3.59,25.56
		h-7.1L156.28,39.08z"/>
	<path class="st0" d="M163.63,38.47V73.7h12.7V38.47h-0.27V73.2h-5.92V38.47h-0.27V73.2h-5.95V38.47H163.63z"/>
	<path class="st0" d="M178.53,65.04c0,4.83,1.1,8.91,4,8.91c2.93,0,4.03-4.08,4.03-8.91V47.13c0-4.83-1.1-8.91-4.03-8.91
		c-2.91,0-4,4.08-4,8.91V65.04z M178.8,47.13c0-4.53,0.96-8.4,3.73-8.4s3.76,3.88,3.76,8.4v17.92c0,4.58-0.99,8.4-3.76,8.4
		s-3.73-3.82-3.73-8.4V47.13z"/>
	<path class="st0" d="M195.78,38.97v-0.5h-7.02V73.7h0.27V38.97H195.78z"/>
	<path class="st0" d="M197.97,65.04c0,4.83,1.1,8.91,4,8.91c2.93,0,4.03-4.08,4.03-8.91V47.13c0-4.83-1.1-8.91-4.03-8.91
		c-2.91,0-4,4.08-4,8.91V65.04z M198.25,47.13c0-4.53,0.96-8.4,3.73-8.4c2.77,0,3.76,3.88,3.76,8.4v17.92c0,4.58-0.99,8.4-3.76,8.4
		c-2.77,0-3.73-3.82-3.73-8.4V47.13z"/>
	<path class="st0" d="M216.4,38.22c-2.93,0-3.95,4.13-3.95,8.91v1.36h0.27v-1.36c0-4.53,0.9-8.4,3.68-8.4c2.77,0,3.68,3.88,3.68,8.4
		v0.91c0,3.57-1.48,7.05-3.51,7.05h-1.29v0.5h1.29c2.14,0,3.51,2.97,3.51,6.74v2.72c0,4.48-0.9,8.4-3.68,8.4
		c-2.77,0-3.68-3.93-3.68-8.4v-2.42h-0.27v2.42c0,4.78,1.01,8.91,3.95,8.91c2.93,0,3.95-4.13,3.95-8.91v-2.72
		c0-3.37-0.99-6.29-2.91-7c1.81-0.96,2.91-3.98,2.91-7.3v-0.91C220.35,42.35,219.34,38.22,216.4,38.22z"/>
	<path class="st0" d="M233.79,78.68V73.2h-1.76V38.47h-6.23l-0.82,28.48c-0.05,2.37-0.14,4.58-1.04,6.24h-1.4v5.49h0.27V73.7h10.7
		v4.98H233.79z M226.08,38.97h5.68V73.2h-7.43c0.82-1.71,0.88-3.93,0.93-6.19L226.08,38.97z"/>
	<path class="st0" d="M235.99,65.04c0,4.83,1.1,8.91,4,8.91c2.93,0,4.03-4.08,4.03-8.91V47.13c0-4.83-1.1-8.91-4.03-8.91
		c-2.91,0-4,4.08-4,8.91V65.04z M236.26,47.13c0-4.53,0.96-8.4,3.73-8.4c2.77,0,3.76,3.88,3.76,8.4v17.92c0,4.58-0.99,8.4-3.76,8.4
		c-2.77,0-3.73-3.82-3.73-8.4V47.13z"/>
	<path class="st0" d="M246.22,38.47V73.7h0.27V58.5h2.91c3.07,0,4.42-2.62,4.42-8.15v-3.42c0-4.83-0.93-8.45-3.89-8.45H246.22z
		 M246.49,58V38.97h3.43c2.8,0,3.62,3.37,3.62,7.95v3.42c0,5.28-1.21,7.65-4.14,7.65H246.49z"/>
	<path class="st0" d="M256.01,65.04c0,4.83,1.1,8.91,4,8.91c2.93,0,4.03-4.08,4.03-8.91V47.13c0-4.83-1.1-8.91-4.03-8.91
		c-2.91,0-4,4.08-4,8.91V65.04z M256.28,47.13c0-4.53,0.96-8.4,3.73-8.4c2.77,0,3.76,3.88,3.76,8.4v17.92c0,4.58-0.99,8.4-3.76,8.4
		c-2.77,0-3.73-3.82-3.73-8.4V47.13z"/>
	<path class="st0" d="M266.24,38.47V73.7H270c2.88,0,3.98-3.12,3.98-8.05v-3.17c0-4.13-0.88-7.05-3.24-7.55
		c2.28-0.5,2.85-2.92,2.85-6.84v-2.42c0-4.63-0.85-7.2-3.59-7.2H266.24z M266.51,54.68v-15.7H270c2.58,0,3.32,2.32,3.32,6.69v2.42
		c0,5.44-1.26,6.59-4.14,6.59H266.51z M266.51,73.2V55.18h2.96c2.8,0,4.22,1.96,4.22,7.3v3.17c0,4.68-0.99,7.55-3.7,7.55H266.51z"/>
	<path class="st0" d="M276.17,38.42v7.8h0.27v-7.8H276.17z"/>
	<path class="st0" d="M286.51,57.19V73.7h0.27V38.47h-3.7c-2.82,0-3.89,3.12-3.89,7.9v3.17c0,4.43,0.99,6.84,3.21,7.45
		c-2.22,0.55-3.21,3.07-3.21,7v5.54c0,1.31-0.08,3.12-0.55,4.18h0.33c0.41-1.16,0.49-2.82,0.49-4.18v-5.54
		c0-5.44,1.87-6.79,4.53-6.79H286.51z M286.51,38.97v17.71h-2.52c-2.85,0-4.53-1.31-4.53-7.15v-3.17c0-4.53,0.96-7.4,3.62-7.4
		H286.51z"/>
</g>
</svg>
