<?xml version="1.0" encoding="utf-8"?>
<!-- Generator: Adobe Illustrator 24.1.3, SVG Export Plug-In . SVG Version: 6.00 Build 0)  -->
<svg version="1.1" id="Слой_1" xmlns="http://www.w3.org/2000/svg" xmlns:xlink="http://www.w3.org/1999/xlink" x="0px" y="0px"
	 viewBox="0 0 242.81 115.02" style="enable-background:new 0 0 242.81 115.02;" xml:space="preserve">
<style type="text/css">
	.st0{fill:#C6151D;}
</style>
<g>
	<path class="st0" d="M6.93,2.12C5.01,3.23,3.5,4.74,2.41,6.64c-1.1,1.9-1.64,3.99-1.64,6.25c0,3.38,1.18,6.31,3.53,8.77
		c2.35,2.46,5.31,3.69,8.87,3.69c3.4,0,6.28-1.2,8.66-3.59c2.38-2.4,3.57-5.32,3.57-8.78c0-3.49-1.21-6.45-3.62-8.88
		c-2.41-2.43-5.3-3.64-8.65-3.64C10.91,0.45,8.85,1.01,6.93,2.12z M18.61,7.21c1.52,1.56,2.27,3.47,2.27,5.73
		c0,2.27-0.75,4.17-2.26,5.72c-1.51,1.55-3.33,2.32-5.47,2.32c-1.89,0-3.57-0.6-5.03-1.79c-1.88-1.53-2.82-3.6-2.82-6.22
		c0-2.35,0.75-4.29,2.24-5.82c1.49-1.53,3.34-2.29,5.53-2.29C15.25,4.87,17.09,5.65,18.61,7.21z"/>
	<path class="st0" d="M44.91,24.75v3.08h4.19v-7.3h-4.46V7.22h-4.4v13.31h-6.57V7.22h-4.4v17.53H44.91z"/>
	<path class="st0" d="M51.79,0.82c-0.55,0.55-0.82,1.21-0.82,1.98c0,0.81,0.28,1.49,0.83,2.05c0.55,0.56,1.22,0.85,2,0.85
		c0.76,0,1.41-0.28,1.96-0.83c0.55-0.55,0.82-1.22,0.82-2.01c0-0.79-0.28-1.47-0.83-2.03C55.2,0.28,54.54,0,53.77,0
		C53,0,52.34,0.27,51.79,0.82z M51.57,24.75h4.4V7.22h-4.4V24.75z"/>
	<path class="st0" d="M64.92,7.22h-4.4v17.53h4.4v-7.27h6.57v7.27h4.4V7.22h-4.4v6.32h-6.57V7.22z"/>
	<path class="st0" d="M80.65,24.75h4.4v-5.64l0.46-0.55l5.23,6.19h5.83l-7.9-8.99l7.81-8.54H91.1l-6.06,6.56V7.22h-4.4V24.75z"/>
	<path class="st0" d="M110.05,14.66v10.09h4.29V7.22h-2.11l-8.97,10.3V7.22h-4.29v17.53h2.34L110.05,14.66z"/>
	<path class="st0" d="M142.53,24.75v3.05h4.19v-6.77h-2.69L137.9,7.22h-2.84l-6.05,13.81h-2.64v6.77h3.91v-3.05H142.53z
		 M133.51,21.03l2.97-7.39l2.88,7.39H133.51z"/>
	<path class="st0" d="M160.69,14.66v10.09h4.29V7.22h-2.11l-8.97,10.3V7.22h-4.29v17.53h2.34L160.69,14.66z"/>
	<path class="st0" d="M167.91,11.41h6.11v13.34h4.4V11.41h5.83V7.22h-16.34V11.41z"/>
	<path class="st0" d="M198.28,14.66v10.09h4.29V7.22h-2.11l-8.97,10.3V7.22h-4.29v17.53h2.34L198.28,14.66z"/>
	<path class="st0" d="M211.72,7.22h-4.4v17.53h4.4v-7.27h6.57v7.27h4.4V7.22h-4.4v6.32h-6.57V7.22z"/>
	<path class="st0" d="M238.52,14.66v10.09h4.29V7.22h-2.11l-8.97,10.3V7.22h-4.29v17.53h2.34L238.52,14.66z"/>
	<path class="st0" d="M5.53,59.25c0.72,0,1.29,0.2,1.7,0.61c0.41,0.41,0.62,0.89,0.62,1.43c0,0.57-0.22,1.03-0.66,1.39
		c-0.44,0.36-1.04,0.54-1.79,0.54c-0.94,0-1.92-0.39-2.97-1.16L0,65.13c1.55,1.33,3.51,2,5.88,2c2.16,0,3.85-0.52,5.08-1.55
		c1.22-1.03,1.84-2.33,1.84-3.9c0-2.11-1.09-3.56-3.27-4.37c1.63-0.95,2.45-2.18,2.45-3.71c0-1.5-0.56-2.7-1.68-3.59
		c-1.12-0.89-2.54-1.33-4.25-1.33c-1.86,0-3.55,0.6-5.06,1.8l1.74,3.03c1.09-0.7,1.99-1.05,2.71-1.05c0.57,0,1.05,0.17,1.44,0.52
		c0.39,0.35,0.59,0.79,0.59,1.33c0,0.62-0.22,1.07-0.66,1.35c-0.44,0.28-0.96,0.42-1.55,0.42H4.39v3.14H5.53z"/>
	<path class="st0" d="M16.58,42.75c-0.55,0.55-0.82,1.21-0.82,1.98c0,0.81,0.28,1.49,0.83,2.05c0.55,0.56,1.22,0.85,2,0.85
		c0.76,0,1.41-0.28,1.96-0.83c0.55-0.55,0.82-1.22,0.82-2.01c0-0.79-0.28-1.47-0.83-2.03c-0.55-0.56-1.21-0.84-1.98-0.84
		C17.78,41.93,17.12,42.2,16.58,42.75z M16.36,66.68h4.4V49.15h-4.4V66.68z"/>
	<path class="st0" d="M29.71,53.39h6.57v13.29h4.4V49.15H25.31v17.53h4.4V53.39z"/>
	<path class="st0" d="M59.09,49.74c-1.39-0.69-2.95-1.04-4.69-1.04c-1.88,0-3.58,0.41-5.1,1.22c-1.52,0.82-2.7,1.94-3.55,3.37
		c-0.85,1.43-1.27,2.99-1.27,4.69c0,2.45,0.87,4.59,2.62,6.41c1.75,1.83,4.16,2.74,7.24,2.74c3.43,0,6.08-1.22,7.96-3.67l-3.47-2.38
		c-1.1,1.34-2.63,2.01-4.6,2.01c-1.59,0-2.88-0.47-3.85-1.42c-0.98-0.94-1.47-2.16-1.47-3.65c0-1.53,0.51-2.79,1.52-3.77
		c1.02-0.98,2.35-1.47,3.99-1.47c0.9,0,1.69,0.14,2.36,0.42c0.67,0.28,1.35,0.78,2.04,1.5l3.66-2.01
		C61.61,51.42,60.47,50.43,59.09,49.74z"/>
	<path class="st0" d="M71.05,65.37l-3.6,7.72h4.54l10.98-23.94h-4.51l-5.02,11l-4.55-11h-4.49L71.05,65.37z"/>
	<path class="st0" d="M92.45,66.68c1.69,0,3-0.13,3.94-0.39c0.94-0.26,1.72-0.78,2.33-1.55c0.61-0.78,0.92-1.76,0.92-2.96
		c0-2.2-1.16-3.7-3.48-4.5c1.7-0.75,2.55-1.98,2.55-3.69c0-1.15-0.41-2.18-1.24-3.09c-0.83-0.91-2.4-1.36-4.7-1.36h-7.04v17.53
		H92.45z M90.12,52.24h1.49l0.57-0.02c0.52,0,0.97,0.18,1.34,0.55c0.38,0.37,0.57,0.88,0.57,1.53c0,0.44-0.2,0.84-0.59,1.2
		c-0.39,0.36-0.95,0.54-1.67,0.54h-1.7V52.24z M90.12,59.24h1.84c1.02,0,1.73,0.24,2.13,0.71c0.39,0.47,0.59,0.99,0.59,1.56
		c0,0.39-0.18,0.78-0.53,1.18c-0.35,0.4-0.96,0.6-1.82,0.6h-2.21V59.24z"/>
	<path class="st0" d="M116.27,51.08c-0.78-0.79-1.64-1.39-2.56-1.79c-0.92-0.4-1.91-0.6-2.96-0.6c-2.29,0-4.23,0.86-5.83,2.59
		c-1.6,1.73-2.4,3.95-2.4,6.65c0,2.61,0.83,4.79,2.48,6.55c1.65,1.76,3.61,2.63,5.87,2.63c1.01,0,1.94-0.18,2.81-0.54
		c0.86-0.36,1.72-0.95,2.58-1.76v1.85h4.4V49.15h-4.4V51.08z M115.1,54.18c0.91,0.95,1.36,2.18,1.36,3.71
		c0,1.56-0.46,2.82-1.36,3.78c-0.91,0.96-2.06,1.44-3.44,1.44c-1.34,0-2.46-0.49-3.38-1.47c-0.92-0.98-1.37-2.22-1.37-3.74
		c0-1.5,0.45-2.74,1.35-3.7c0.9-0.96,2.03-1.44,3.39-1.44C113.04,52.76,114.19,53.23,115.1,54.18z"/>
	<path class="st0" d="M133.65,49.15h-2.84l-7.48,17.53h4.46l4.47-11.05l4.39,11.05h4.48L133.65,49.15z"/>
	<path class="st0" d="M154.88,56.59v10.09h4.29V49.15h-2.11l-8.97,10.3v-10.3h-4.29v17.53h2.34L154.88,56.59z"/>
	<path class="st0" d="M5.84,91.08h-4.4v17.53h4.4v-7.27h6.57v7.27h4.4V91.08h-4.4v6.32H5.84V91.08z"/>
	<path class="st0" d="M34.43,93.01c-0.78-0.79-1.64-1.39-2.56-1.79c-0.92-0.4-1.91-0.6-2.96-0.6c-2.29,0-4.23,0.86-5.83,2.59
		c-1.6,1.73-2.4,3.95-2.4,6.65c0,2.61,0.83,4.79,2.48,6.55c1.65,1.76,3.61,2.63,5.87,2.63c1.01,0,1.94-0.18,2.81-0.54
		c0.86-0.36,1.72-0.95,2.58-1.76v1.85h4.4V91.08h-4.4V93.01z M33.26,96.11c0.91,0.95,1.36,2.18,1.36,3.71
		c0,1.56-0.46,2.82-1.36,3.78c-0.91,0.96-2.06,1.44-3.44,1.44c-1.34,0-2.46-0.49-3.38-1.47c-0.92-0.98-1.37-2.22-1.37-3.74
		c0-1.5,0.45-2.74,1.35-3.7c0.9-0.96,2.03-1.44,3.39-1.44C31.2,94.69,32.35,95.16,33.26,96.11z"/>
	<path class="st0" d="M57.17,91.67c-1.39-0.69-2.95-1.04-4.69-1.04c-1.88,0-3.58,0.41-5.1,1.22c-1.52,0.82-2.7,1.94-3.55,3.37
		c-0.85,1.43-1.27,2.99-1.27,4.69c0,2.45,0.87,4.59,2.62,6.41c1.75,1.83,4.16,2.74,7.24,2.74c3.43,0,6.08-1.22,7.96-3.67l-3.47-2.37
		c-1.1,1.34-2.63,2.01-4.6,2.01c-1.59,0-2.88-0.47-3.85-1.42c-0.98-0.94-1.47-2.16-1.47-3.65c0-1.53,0.51-2.79,1.52-3.77
		c1.02-0.98,2.35-1.47,3.99-1.47c0.9,0,1.69,0.14,2.36,0.42c0.67,0.28,1.35,0.78,2.04,1.5l3.66-2.01
		C59.69,93.34,58.56,92.36,57.17,91.67z"/>
	<path class="st0" d="M63.27,95.27h6.11v13.34h4.4V95.27h5.83v-4.19H63.27V95.27z"/>
	<path class="st0" d="M82.55,91.08v23.94h4.37v-8.27c0.86,0.82,1.72,1.4,2.59,1.76c0.87,0.36,1.81,0.54,2.82,0.54
		c2.27,0,4.23-0.88,5.88-2.63c1.65-1.76,2.48-3.94,2.48-6.55c0-2.71-0.8-4.93-2.4-6.65c-1.6-1.73-3.54-2.59-5.83-2.59
		c-1.05,0-2.04,0.2-2.96,0.6c-0.92,0.4-1.78,0.99-2.58,1.79v-1.93H82.55z M94.96,96.13c0.9,0.96,1.35,2.19,1.35,3.7
		c0,1.51-0.46,2.76-1.38,3.74c-0.92,0.98-2.05,1.47-3.39,1.47c-1.39,0-2.53-0.48-3.45-1.44c-0.91-0.96-1.37-2.22-1.37-3.78
		c0-1.53,0.46-2.76,1.37-3.71c0.91-0.95,2.06-1.42,3.45-1.42C92.92,94.69,94.06,95.17,94.96,96.13z"/>
	<path class="st0" d="M104.46,84.68c-0.55,0.55-0.82,1.21-0.82,1.98c0,0.81,0.28,1.49,0.83,2.05c0.55,0.56,1.22,0.85,2,0.85
		c0.76,0,1.41-0.28,1.96-0.83c0.55-0.55,0.82-1.22,0.82-2.01c0-0.79-0.28-1.47-0.83-2.03c-0.55-0.56-1.21-0.84-1.98-0.84
		C105.67,83.86,105.01,84.13,104.46,84.68z M104.24,108.61h4.4V91.08h-4.4V108.61z"/>
	<path class="st0" d="M124.14,98.52v10.09h4.29V91.08h-2.11l-8.97,10.3v-10.3h-4.29v17.53h2.34L124.14,98.52z M115.32,85.73
		c0.55,0.69,1.27,1.22,2.17,1.59c0.9,0.37,2.01,0.56,3.34,0.56c1.98,0,3.51-0.41,4.62-1.24c1.1-0.83,1.75-1.92,1.96-3.29h-3.56
		c-0.29,0.45-0.63,0.76-1.01,0.93c-0.59,0.26-1.25,0.39-1.98,0.39c-0.72,0-1.33-0.11-1.83-0.33c-0.5-0.22-0.89-0.55-1.17-0.99h-3.56
		C114.43,84.25,114.78,85.04,115.32,85.73z"/>
	<path class="st0" d="M137.03,88.76c0.63-0.58,1.44-0.87,2.43-0.87c0.97,0,1.74,0.24,2.31,0.72c0.57,0.48,0.86,1.06,0.86,1.75
		c0,0.5-0.12,0.95-0.35,1.32c-0.24,0.38-0.92,1.06-2.06,2.06c-1.18,1.03-2.04,2.14-2.56,3.31c-0.53,1.18-0.79,2.48-0.79,3.92
		l0.02,0.73h4.37c0.04-1.03,0.15-1.84,0.31-2.42c0.16-0.58,0.36-1.04,0.6-1.39c0.24-0.35,0.82-0.95,1.76-1.8
		c0.98-0.89,1.59-1.53,1.85-1.9c0.44-0.64,0.76-1.27,0.97-1.89c0.2-0.61,0.31-1.24,0.31-1.87c0-1.16-0.32-2.27-0.96-3.32
		c-0.64-1.05-1.49-1.86-2.55-2.42c-1.06-0.56-2.35-0.84-3.87-0.84c-2.35,0-4.25,0.68-5.69,2.03c-1.44,1.35-2.15,3.06-2.13,5.13h4.22
		C136.07,90.09,136.39,89.34,137.03,88.76z M137.19,104.34c-0.54,0.54-0.81,1.19-0.81,1.95c0,0.76,0.27,1.42,0.81,1.96
		c0.54,0.54,1.2,0.81,1.97,0.81c0.77,0,1.43-0.27,1.98-0.81c0.55-0.54,0.82-1.19,0.82-1.96c0-0.76-0.28-1.41-0.83-1.95
		c-0.55-0.54-1.22-0.81-2.01-0.81C138.38,103.53,137.73,103.8,137.19,104.34z"/>
</g>
</svg>
