<?xml version="1.0" encoding="utf-8"?>
<!-- Generator: Adobe Illustrator 24.1.3, SVG Export Plug-In . SVG Version: 6.00 Build 0)  -->
<svg version="1.1" id="Слой_1" xmlns="http://www.w3.org/2000/svg" xmlns:xlink="http://www.w3.org/1999/xlink" x="0px" y="0px"
	 viewBox="0 0 238.63 72.33" style="enable-background:new 0 0 238.63 72.33;" xml:space="preserve">
<style type="text/css">
	.st0{fill:#C6151D;}
</style>
<g>
	<path class="st0" d="M0.88,22.94c1.49,1.92,2.87,3.17,4.14,3.75c1.27,0.58,2.7,0.87,4.29,0.87c2.53,0,4.61-0.73,6.22-2.19
		c1.61-1.46,2.42-3.39,2.42-5.79c0-3.26-1.51-5.56-4.53-6.91c1.48-0.98,2.38-1.92,2.7-2.8C16.43,9,16.59,8.1,16.59,7.17
		c0-2.09-0.72-3.74-2.16-4.97C13,0.97,11.23,0.35,9.11,0.35c-0.88,0-1.84,0.14-2.89,0.41C5.18,1.04,3.88,1.88,2.32,3.29l2.9,3.23
		c1.16-1.09,2.3-1.63,3.4-1.63c0.93,0,1.68,0.27,2.24,0.81c0.56,0.54,0.85,1.27,0.85,2.2c0,1.01-0.34,1.81-1.01,2.41
		c-0.67,0.6-1.66,0.9-2.96,0.9H6.68v4.39h1.05c2.19,0,3.63,0.35,4.33,1.05c0.7,0.7,1.05,1.59,1.05,2.65c0,1.09-0.36,1.96-1.07,2.62
		c-0.72,0.66-1.66,0.98-2.82,0.98c-1.75,0-3.28-0.91-4.58-2.72L0.88,22.94z"/>
	<path class="st0" d="M27.05,7.79h-4.8v19.12h4.8v-7.93h7.17v7.93h4.8V7.79h-4.8v6.89h-7.17V7.79z"/>
	<path class="st0" d="M46.42,9.9c-2.19,1.99-3.29,4.48-3.29,7.47c0,2.79,0.97,5.16,2.91,7.11c1.94,1.95,4.28,2.93,7.02,2.93
		c1.86,0,3.57-0.44,5.11-1.33c1.55-0.88,2.77-2.11,3.66-3.68c0.9-1.57,1.34-3.26,1.34-5.06c0-1.79-0.45-3.46-1.34-5.01
		c-0.89-1.55-2.13-2.77-3.72-3.67c-1.59-0.9-3.28-1.35-5.09-1.35C50.55,7.29,48.35,8.16,46.42,9.9L46.42,9.9z M56.89,13.35
		c0.98,1.03,1.47,2.36,1.47,4c0,1.64-0.5,2.98-1.5,4.03c-1,1.04-2.25,1.56-3.75,1.56c-1.5,0-2.74-0.52-3.72-1.55
		c-0.98-1.03-1.47-2.38-1.47-4.04c0-1.62,0.5-2.94,1.49-3.98c0.99-1.04,2.23-1.56,3.72-1.56C54.65,11.81,55.91,12.33,56.89,13.35z"
		/>
	<path class="st0" d="M74.66,26.91c1.84,0,3.27-0.14,4.3-0.42c1.03-0.28,1.87-0.85,2.54-1.7c0.67-0.85,1-1.92,1-3.23
		c0-2.4-1.27-4.04-3.8-4.9c1.85-0.82,2.78-2.16,2.78-4.03c0-1.25-0.45-2.38-1.35-3.37c-0.9-0.99-2.61-1.49-5.13-1.49h-7.68v19.12
		H74.66z M72.11,11.16h1.62l0.62-0.02c0.56,0,1.05,0.2,1.46,0.6c0.41,0.4,0.62,0.96,0.62,1.67c0,0.48-0.21,0.92-0.64,1.31
		c-0.43,0.39-1.04,0.59-1.83,0.59h-1.85V11.16z M72.11,18.79h2.01c1.12,0,1.89,0.26,2.32,0.77c0.43,0.52,0.64,1.08,0.64,1.71
		c0,0.42-0.19,0.85-0.57,1.29c-0.38,0.44-1.04,0.66-1.98,0.66h-2.42V18.79z"/>
	<path class="st0" d="M91.19,25.48l-3.93,8.42h4.96l11.98-26.12h-4.92l-5.48,12l-4.97-12h-4.9L91.19,25.48z"/>
	<path class="st0" d="M130.78,0.32c-2.98,0.13-5.24,0.35-6.77,0.65c-1.54,0.3-2.89,0.91-4.05,1.81c-1.17,0.9-2.11,2.25-2.82,4.05
		c-0.72,1.8-1.07,4.13-1.07,7c0,2.24,0.25,4.34,0.76,6.32c0.5,1.97,1.64,3.68,3.42,5.11c1.78,1.43,3.83,2.14,6.17,2.14
		c2.86,0,5.27-0.98,7.21-2.94c1.95-1.96,2.92-4.41,2.92-7.37c0-2.86-0.91-5.19-2.72-7c-1.81-1.81-3.96-2.72-6.44-2.72
		c-3.37,0-5.75,1.66-7.13,4.98c0.08-1.62,0.31-2.86,0.69-3.72c0.38-0.86,1.02-1.62,1.92-2.29c0.9-0.66,1.95-1.08,3.14-1.27
		c1.19-0.18,2.95-0.28,5.3-0.31c1.29-0.01,2.62-0.09,4-0.25V0C134.3,0.12,132.8,0.22,130.78,0.32L130.78,0.32z M130.18,21.38
		c-1.01,1.03-2.26,1.54-3.74,1.54c-1.51,0-2.75-0.51-3.74-1.54c-0.98-1.03-1.47-2.37-1.47-4.03c0-1.58,0.49-2.9,1.48-3.95
		c0.99-1.05,2.24-1.58,3.74-1.58c1.58,0,2.85,0.52,3.81,1.57c0.96,1.05,1.44,2.37,1.44,3.96C131.7,19.01,131.2,20.36,130.18,21.38z"
		/>
	<path class="st0" d="M142.94,9.9c-2.19,1.99-3.29,4.48-3.29,7.47c0,2.79,0.97,5.16,2.91,7.11c1.94,1.95,4.28,2.93,7.02,2.93
		c1.86,0,3.57-0.44,5.11-1.33c1.55-0.88,2.77-2.11,3.66-3.68c0.9-1.57,1.34-3.26,1.34-5.06c0-1.79-0.45-3.46-1.34-5.01
		c-0.89-1.55-2.13-2.77-3.72-3.67c-1.59-0.9-3.28-1.35-5.09-1.35C147.07,7.29,144.86,8.16,142.94,9.9L142.94,9.9z M153.4,13.35
		c0.98,1.03,1.47,2.36,1.47,4c0,1.64-0.5,2.98-1.5,4.03c-1,1.04-2.25,1.56-3.75,1.56c-1.5,0-2.74-0.52-3.72-1.55
		c-0.98-1.03-1.47-2.38-1.47-4.04c0-1.62,0.5-2.94,1.49-3.98c0.99-1.04,2.23-1.56,3.72-1.56C151.17,11.81,152.42,12.33,153.4,13.35z
		"/>
	<path class="st0" d="M171.93,7.79h-3.09l-8.16,19.12h4.87l4.87-12.06l4.78,12.06h4.89L171.93,7.79z"/>
	<path class="st0" d="M195.07,15.91v11h4.67V7.79h-2.3l-9.79,11.23V7.79h-4.67v19.12h2.55L195.07,15.91z"/>
	<path class="st0" d="M202.93,12.36h6.66v14.55h4.8V12.36h6.36V7.79h-17.82V12.36z"/>
	<path class="st0" d="M228.75,7.79h-4.8v19.12h6.75c1.87,0,3.33-0.16,4.37-0.48c1.04-0.32,1.89-0.97,2.56-1.95
		c0.67-0.98,1-2.21,1-3.68c0-1.49-0.37-2.72-1.11-3.71c-0.74-0.98-1.65-1.63-2.72-1.94c-1.07-0.31-2.61-0.47-4.62-0.47h-1.43V7.79z
		 M228.75,18.58h1.99c1.88,0,2.82,0.82,2.82,2.46c0,0.5-0.15,0.93-0.44,1.28c-0.29,0.35-0.64,0.59-1.02,0.71
		c-0.39,0.12-1.02,0.18-1.89,0.18h-1.46V18.58z"/>
	<path class="st0" d="M12.57,71.84h4.8v-6.15l0.51-0.6l5.7,6.75h6.36l-8.62-9.81l8.52-9.32h-5.88l-6.58,7.16v-7.16h-4.8v7.16
		l-6.61-7.16H0.11l8.53,9.31L0,71.84h6.36l5.69-6.74l0.52,0.59V71.84z"/>
	<path class="st0" d="M44.63,60.84v11h4.67V52.72H47l-9.79,11.23V52.72h-4.67v19.12h2.55L44.63,60.84z"/>
	<path class="st0" d="M61.82,71.84c1.84,0,3.27-0.14,4.3-0.42c1.03-0.28,1.87-0.85,2.54-1.7c0.67-0.85,1-1.92,1-3.23
		c0-2.4-1.27-4.04-3.8-4.9c1.85-0.82,2.78-2.16,2.78-4.03c0-1.25-0.45-2.38-1.35-3.37c-0.9-0.99-2.61-1.49-5.13-1.49h-7.68v19.12
		H61.82z M59.27,56.09h1.62l0.62-0.02c0.56,0,1.05,0.2,1.46,0.6c0.41,0.4,0.62,0.96,0.62,1.67c0,0.48-0.21,0.92-0.64,1.31
		c-0.43,0.39-1.04,0.59-1.83,0.59h-1.85V56.09z M59.27,63.72h2.01c1.12,0,1.89,0.26,2.32,0.77c0.43,0.52,0.64,1.08,0.64,1.71
		c0,0.42-0.19,0.85-0.57,1.29c-0.38,0.44-1.04,0.66-1.98,0.66h-2.42V63.72z"/>
	<path class="st0" d="M73.88,45.74c-0.6,0.6-0.89,1.32-0.89,2.16c0,0.88,0.3,1.63,0.9,2.24c0.6,0.62,1.33,0.92,2.18,0.92
		c0.83,0,1.54-0.3,2.14-0.91c0.6-0.6,0.89-1.33,0.89-2.19c0-0.87-0.3-1.61-0.9-2.21c-0.6-0.61-1.32-0.91-2.16-0.91
		C75.2,44.84,74.48,45.14,73.88,45.74z M73.64,71.84h4.8V52.72h-4.8V71.84z"/>
	<path class="st0" d="M81.39,57.29h6.66v14.55h4.8V57.29h6.36v-4.57H81.39V57.29z"/>
	<path class="st0" d="M107.74,50.19c0.69-0.64,1.58-0.95,2.65-0.95c1.05,0,1.9,0.26,2.52,0.78c0.63,0.52,0.94,1.16,0.94,1.91
		c0,0.55-0.13,1.03-0.39,1.44c-0.26,0.41-1.01,1.16-2.25,2.25c-1.29,1.12-2.22,2.33-2.79,3.61c-0.57,1.28-0.86,2.71-0.86,4.28
		l0.02,0.79h4.76c0.05-1.12,0.16-2,0.33-2.64c0.18-0.63,0.39-1.14,0.65-1.52c0.26-0.38,0.9-1.03,1.92-1.96
		c1.07-0.97,1.74-1.66,2.02-2.07c0.48-0.7,0.83-1.39,1.05-2.06c0.22-0.67,0.33-1.35,0.33-2.04c0-1.27-0.35-2.47-1.05-3.62
		c-0.7-1.15-1.63-2.03-2.79-2.64c-1.16-0.61-2.57-0.91-4.22-0.91c-2.57,0-4.63,0.74-6.2,2.21c-1.57,1.47-2.34,3.34-2.32,5.59h4.6
		C106.7,51.64,107.05,50.82,107.74,50.19z M107.92,67.18c-0.59,0.59-0.88,1.3-0.88,2.13c0,0.83,0.3,1.54,0.89,2.14
		c0.59,0.59,1.31,0.89,2.15,0.89s1.56-0.3,2.16-0.89c0.6-0.59,0.9-1.3,0.9-2.14c0-0.83-0.3-1.54-0.91-2.13
		c-0.6-0.59-1.33-0.88-2.19-0.88C109.21,66.3,108.5,66.6,107.92,67.18z"/>
	<path class="st0" d="M123.77,47.48l-2.28-2.29l-1.36,2.29l3.14,0.88l-3.14,0.9l1.36,2.22l2.28-2.22l-0.79,3.07h2.51l-0.79-3.07
		l2.23,2.22l1.35-2.22l-3.12-0.9l3.12-0.8l-1.2-2.25l-2.32,2.18l0.81-3.08h-2.6L123.77,47.48z"/>
</g>
</svg>
