<?xml version="1.0" encoding="utf-8"?>
<!-- Generator: Adobe Illustrator 24.1.3, SVG Export Plug-In . SVG Version: 6.00 Build 0)  -->
<svg version="1.1" id="Слой_1" xmlns="http://www.w3.org/2000/svg" xmlns:xlink="http://www.w3.org/1999/xlink" x="0px" y="0px"
	 viewBox="0 0 266.97 122.05" style="enable-background:new 0 0 266.97 122.05;" xml:space="preserve">
<style type="text/css">
	.st0{fill:#C6151D;}
</style>
<g>
	<path class="st0" d="M1.04,19.91h3.6v-8.19h6.23v8.19h3.59V1.23h-3.59v7.05H4.65V1.23h-3.6V19.91z"/>
	<path class="st0" d="M22.5,2.08c-1.51,0.88-2.7,2.06-3.56,3.56c-0.86,1.5-1.3,3.14-1.3,4.93c0,2.67,0.93,4.97,2.78,6.91
		c1.85,1.94,4.18,2.91,6.99,2.91c2.68,0,4.95-0.94,6.83-2.83c1.88-1.89,2.81-4.19,2.81-6.92c0-2.75-0.95-5.08-2.85-7
		c-1.9-1.91-4.17-2.87-6.81-2.87C25.64,0.76,24.02,1.2,22.5,2.08z M31.71,6.09c1.19,1.23,1.79,2.74,1.79,4.51
		c0,1.79-0.59,3.29-1.78,4.51c-1.19,1.22-2.62,1.83-4.31,1.83c-1.49,0-2.81-0.47-3.96-1.41c-1.48-1.2-2.22-2.84-2.22-4.9
		c0-1.85,0.59-3.38,1.77-4.58c1.18-1.2,2.63-1.8,4.36-1.8C29.06,4.24,30.51,4.86,31.71,6.09z"/>
	<path class="st0" d="M40.6,14.64h6.45v-3.22H40.6V14.64z"/>
	<path class="st0" d="M54.82,16.71V1.23h-3.6v18.67h20.85V1.23h-3.6v15.48h-5.08V1.23h-3.58v15.48H54.82z"/>
	<path class="st0" d="M76.21,19.91h3.6V4.56h6.23v15.35h3.59V1.23H76.21V19.91z"/>
	<path class="st0" d="M92.23,19.91h3.69l1.52-3.85h7.62l1.46,3.85h3.69l-7.18-18.67h-3.6L92.23,19.91z M103.74,12.6h-5l2.5-6.41
		L103.74,12.6z"/>
	<path class="st0" d="M121.71,2.83c-0.51-0.87-1.2-1.56-2.07-2.07C118.76,0.25,117.81,0,116.8,0c-1.02,0-1.96,0.25-2.84,0.76
		c-0.88,0.51-1.57,1.2-2.07,2.07c-0.51,0.87-0.76,1.82-0.76,2.83c0,1.02,0.25,1.96,0.76,2.83c0.51,0.87,1.2,1.56,2.08,2.07
		c0.88,0.51,1.82,0.76,2.83,0.76c1.02,0,1.96-0.25,2.84-0.76c0.88-0.51,1.57-1.19,2.07-2.07c0.51-0.87,0.76-1.81,0.76-2.82
		C122.47,4.65,122.21,3.7,121.71,2.83z M120.7,7.88c-0.4,0.68-0.95,1.22-1.65,1.62c-0.7,0.4-1.45,0.6-2.25,0.6
		c-0.8,0-1.56-0.2-2.26-0.6c-0.7-0.4-1.25-0.94-1.65-1.63c-0.4-0.69-0.6-1.43-0.6-2.23c0-1.23,0.44-2.29,1.32-3.16
		c0.88-0.87,1.94-1.31,3.19-1.31c1.24,0,2.3,0.44,3.17,1.31c0.88,0.88,1.31,1.94,1.31,3.19C121.3,6.46,121.1,7.2,120.7,7.88z
		 M114.45,8.78h1.36V6.37h1.1c0.34,0,0.56,0.03,0.67,0.1c0.11,0.06,0.19,0.16,0.23,0.29c0.04,0.13,0.07,0.47,0.09,1.01
		c0,0.28,0.02,0.47,0.04,0.58c0.02,0.11,0.06,0.25,0.13,0.42h1.55c-0.14-0.11-0.23-0.23-0.26-0.36c-0.03-0.13-0.07-0.57-0.1-1.34
		c-0.02-0.4-0.07-0.69-0.16-0.85c-0.08-0.16-0.24-0.3-0.47-0.43c0.28-0.2,0.47-0.41,0.57-0.62c0.1-0.21,0.15-0.48,0.15-0.81
		c0-0.39-0.08-0.72-0.25-1c-0.17-0.28-0.38-0.48-0.65-0.61c-0.27-0.13-0.7-0.19-1.27-0.19h-2.75V8.78z M116.96,3.76
		c0.44,0,0.73,0.06,0.87,0.17c0.14,0.11,0.21,0.3,0.21,0.56c0,0.26-0.07,0.45-0.21,0.57c-0.14,0.12-0.43,0.18-0.87,0.18h-1.14V3.76
		H116.96z"/>
	<path class="st0" d="M141.06,24.96h3.44v-6.24c1.21,1.03,2.53,1.54,3.96,1.54c1.7,0,3.2-0.68,4.49-2.04
		c1.29-1.36,1.94-3.09,1.94-5.2c0-1.51-0.3-2.81-0.9-3.9c-0.6-1.09-1.38-1.93-2.34-2.51c-0.96-0.58-1.99-0.88-3.1-0.88
		c-1.56,0-2.91,0.55-4.05,1.64V0.76h-3.44v6.62c-1.14-1.06-2.49-1.59-4.05-1.59c-1.74,0-3.24,0.68-4.48,2.02
		c-1.24,1.35-1.87,3.1-1.87,5.26c0,2.07,0.64,3.79,1.92,5.16c1.28,1.38,2.78,2.06,4.52,2.06c1.43,0,2.75-0.53,3.96-1.58V24.96z
		 M150.38,15.94c-0.69,0.77-1.54,1.16-2.54,1.16c-0.97,0-1.79-0.35-2.44-1.05c-0.66-0.7-0.98-1.67-0.98-2.92
		c0-1.34,0.34-2.36,1.02-3.09c0.68-0.72,1.48-1.08,2.39-1.08c1.06,0,1.92,0.38,2.59,1.13c0.67,0.76,1,1.72,1,2.9
		C151.41,14.19,151.07,15.17,150.38,15.94z M140.17,16.08c-0.66,0.7-1.48,1.05-2.45,1.05c-1.01,0-1.85-0.39-2.54-1.17
		c-0.69-0.78-1.03-1.76-1.03-2.94c0-1.11,0.32-2.06,0.95-2.85c0.63-0.79,1.51-1.19,2.63-1.19c0.65,0,1.23,0.17,1.75,0.52
		c0.51,0.35,0.92,0.81,1.22,1.39c0.3,0.58,0.46,1.32,0.46,2.22C141.16,14.4,140.83,15.38,140.17,16.08z"/>
	<path class="st0" d="M159.5,7.62c-1.58,1.44-2.37,3.24-2.37,5.4c0,2.01,0.7,3.73,2.1,5.14c1.4,1.41,3.09,2.11,5.07,2.11
		c1.35,0,2.58-0.32,3.69-0.96c1.12-0.64,2-1.53,2.65-2.66c0.65-1.13,0.97-2.35,0.97-3.66c0-1.29-0.32-2.5-0.96-3.62
		c-0.64-1.12-1.54-2-2.68-2.65c-1.15-0.65-2.37-0.98-3.67-0.98C162.48,5.74,160.88,6.37,159.5,7.62L159.5,7.62z M167.05,10.11
		c0.71,0.74,1.06,1.7,1.06,2.89c0,1.19-0.36,2.15-1.08,2.91c-0.72,0.75-1.62,1.13-2.71,1.13c-1.08,0-1.98-0.37-2.69-1.12
		c-0.71-0.74-1.06-1.72-1.06-2.92c0-1.17,0.36-2.13,1.07-2.88c0.72-0.75,1.61-1.12,2.69-1.12C165.44,9,166.35,9.37,167.05,10.11z"/>
	<path class="st0" d="M174.57,6.1v18.87h3.44v-6.51c0.68,0.64,1.36,1.11,2.04,1.39c0.69,0.28,1.43,0.43,2.22,0.43
		c1.79,0,3.33-0.69,4.63-2.08c1.3-1.38,1.95-3.1,1.95-5.16c0-2.13-0.63-3.88-1.89-5.24c-1.26-1.36-2.79-2.04-4.59-2.04
		c-0.83,0-1.61,0.16-2.34,0.47c-0.73,0.31-1.4,0.78-2.03,1.41V6.1H174.57z M184.34,10.08c0.71,0.76,1.07,1.73,1.07,2.91
		c0,1.19-0.36,2.18-1.09,2.95c-0.72,0.77-1.61,1.16-2.67,1.16c-1.09,0-2-0.38-2.72-1.14c-0.72-0.76-1.08-1.75-1.08-2.98
		c0-1.2,0.36-2.17,1.08-2.92c0.72-0.74,1.62-1.12,2.72-1.12C182.74,8.94,183.63,9.32,184.34,10.08z"/>
	<path class="st0" d="M190.58,9.4h4.81v10.51h3.47V9.4h4.59V6.1h-12.87V9.4z"/>
	<path class="st0" d="M219.63,13.34c0-2.29-0.68-4.12-2.04-5.52c-1.36-1.39-3.13-2.09-5.31-2.09c-2.05,0-3.75,0.7-5.11,2.09
		c-1.36,1.39-2.04,3.14-2.04,5.25c0,2.06,0.68,3.77,2.04,5.14c1.36,1.37,3.13,2.05,5.29,2.05c1.4,0,2.6-0.25,3.62-0.74
		c1.02-0.5,1.89-1.26,2.61-2.29l-2.92-1.37c-0.93,0.91-2.04,1.36-3.34,1.36c-1.08,0-1.97-0.29-2.67-0.87
		c-0.7-0.58-1.13-1.36-1.29-2.34h11.13L219.63,13.34z M208.64,11.28c0.39-0.85,0.81-1.45,1.27-1.79c0.73-0.54,1.58-0.81,2.54-0.81
		c0.89,0,1.67,0.24,2.35,0.72c0.67,0.48,1.13,1.11,1.35,1.88H208.64z"/>
	<path class="st0" d="M241.14,19.91v2.4h3.3v-5.33h-2.12L237.49,6.1h-2.23l-4.77,10.88h-2.08v5.33h3.08v-2.4H241.14z M234.03,16.98
		l2.34-5.83l2.27,5.83H234.03z"/>
	<path class="st0" d="M246.73,1.06c-0.43,0.43-0.65,0.95-0.65,1.56c0,0.63,0.22,1.17,0.65,1.62c0.43,0.44,0.96,0.67,1.58,0.67
		c0.6,0,1.11-0.22,1.54-0.65c0.43-0.44,0.65-0.96,0.65-1.58c0-0.63-0.22-1.16-0.65-1.6c-0.43-0.44-0.96-0.66-1.56-0.66
		C247.68,0.41,247.16,0.62,246.73,1.06z M246.55,19.91h3.47V6.1h-3.47V19.91z"/>
	<path class="st0" d="M260.43,17.15c1.59,0,2.81-0.55,3.66-1.64l2.73,1.87c-1.64,1.92-3.73,2.88-6.26,2.88
		c-2.38,0-4.27-0.69-5.68-2.08c-1.4-1.38-2.11-3.1-2.11-5.14c0-2.12,0.73-3.86,2.2-5.24c1.47-1.38,3.34-2.07,5.62-2.07
		c2.53,0,4.65,1.05,6.37,3.15l-2.88,1.59c-1.07-1.02-2.26-1.54-3.59-1.54c-1.9,0-3.24,0.83-4.04,2.5h4.63v3.01h-4.63
		C257.2,16.25,258.52,17.15,260.43,17.15L260.43,17.15z"/>
	<path class="st0" d="M11.51,40.49c-1.09-0.55-2.32-0.82-3.69-0.82c-1.48,0-2.82,0.32-4.02,0.96c-1.2,0.64-2.13,1.53-2.8,2.65
		c-0.67,1.13-1,2.36-1,3.69c0,1.93,0.69,3.61,2.06,5.05c1.37,1.44,3.28,2.16,5.71,2.16c2.7,0,4.79-0.96,6.27-2.89l-2.73-1.87
		c-0.86,1.06-2.07,1.59-3.62,1.59c-1.25,0-2.27-0.37-3.04-1.12c-0.77-0.74-1.16-1.7-1.16-2.88c0-1.21,0.4-2.2,1.2-2.97
		c0.8-0.77,1.85-1.16,3.15-1.16c0.71,0,1.33,0.11,1.86,0.33c0.53,0.22,1.07,0.61,1.61,1.18l2.88-1.59
		C13.5,41.81,12.6,41.03,11.51,40.49z"/>
	<path class="st0" d="M27.05,41.55c-0.62-0.63-1.29-1.1-2.02-1.41c-0.73-0.31-1.5-0.47-2.33-0.47c-1.8,0-3.33,0.68-4.59,2.04
		c-1.26,1.36-1.89,3.11-1.89,5.24c0,2.06,0.65,3.78,1.95,5.16c1.3,1.38,2.84,2.08,4.63,2.08c0.79,0,1.53-0.14,2.21-0.43
		c0.68-0.28,1.36-0.75,2.03-1.39v1.46h3.47V40.03h-3.47V41.55z M26.13,43.99c0.72,0.74,1.08,1.72,1.08,2.92
		c0,1.23-0.36,2.22-1.08,2.98c-0.72,0.76-1.62,1.14-2.71,1.14c-1.05,0-1.94-0.38-2.66-1.16c-0.72-0.77-1.08-1.75-1.08-2.95
		c0-1.18,0.35-2.16,1.06-2.91c0.71-0.76,1.6-1.14,2.67-1.14C24.5,42.87,25.41,43.24,26.13,43.99z"/>
	<path class="st0" d="M38.49,40.03H36.2l-3.46,13.81h3.38l1.86-8.11L42,53.84h1.42l4.11-8.1l1.85,8.1h3.39l-3.46-13.81h-2.28
		l-4.24,8.71L38.49,40.03z"/>
	<path class="st0" d="M68.6,47.27c0-2.29-0.68-4.12-2.04-5.52c-1.36-1.39-3.13-2.09-5.31-2.09c-2.05,0-3.75,0.7-5.11,2.09
		c-1.36,1.39-2.04,3.14-2.04,5.25c0,2.06,0.68,3.77,2.04,5.14c1.36,1.37,3.13,2.05,5.29,2.05c1.4,0,2.6-0.25,3.62-0.74
		c1.02-0.5,1.89-1.26,2.61-2.29l-2.92-1.37c-0.93,0.91-2.04,1.36-3.34,1.36c-1.08,0-1.97-0.29-2.67-0.87
		c-0.7-0.58-1.13-1.36-1.29-2.34h11.13L68.6,47.27z M57.61,45.2c0.39-0.85,0.81-1.45,1.27-1.79c0.73-0.54,1.58-0.81,2.54-0.81
		c0.89,0,1.67,0.24,2.35,0.72c0.67,0.48,1.13,1.11,1.35,1.88H57.61z"/>
	<path class="st0" d="M82.12,40.03h-3.47v13.81h3.47v-5.73h5.18v5.73h3.47V40.03H87.3V45h-5.18V40.03z"/>
	<path class="st0" d="M104.68,41.55c-0.62-0.63-1.29-1.1-2.02-1.41c-0.73-0.31-1.5-0.47-2.33-0.47c-1.8,0-3.33,0.68-4.59,2.04
		c-1.26,1.36-1.89,3.11-1.89,5.24c0,2.06,0.65,3.78,1.95,5.16c1.3,1.38,2.84,2.08,4.63,2.08c0.79,0,1.53-0.14,2.21-0.43
		c0.68-0.28,1.36-0.75,2.03-1.39v1.46h3.47V40.03h-3.47V41.55z M103.75,43.99c0.72,0.74,1.08,1.72,1.08,2.92
		c0,1.23-0.36,2.22-1.08,2.98c-0.72,0.76-1.62,1.14-2.71,1.14c-1.05,0-1.94-0.38-2.66-1.16c-0.72-0.77-1.08-1.75-1.08-2.95
		c0-1.18,0.35-2.16,1.06-2.91c0.71-0.76,1.6-1.14,2.67-1.14C102.13,42.87,103.04,43.24,103.75,43.99z"/>
	<path class="st0" d="M122.37,43.36h5.18v10.47h3.47V40.03H118.9v13.81h3.47V43.36z"/>
	<path class="st0" d="M134.78,40.03v18.87h3.44v-6.51c0.68,0.64,1.36,1.11,2.04,1.39c0.69,0.28,1.43,0.43,2.22,0.43
		c1.79,0,3.33-0.69,4.63-2.08c1.3-1.38,1.95-3.1,1.95-5.16c0-2.13-0.63-3.88-1.89-5.24c-1.26-1.36-2.79-2.04-4.59-2.04
		c-0.83,0-1.61,0.16-2.34,0.47c-0.73,0.31-1.4,0.78-2.03,1.41v-1.52H134.78z M144.56,44.01c0.71,0.76,1.07,1.73,1.07,2.91
		c0,1.19-0.36,2.18-1.09,2.95c-0.72,0.77-1.61,1.16-2.67,1.16c-1.09,0-2-0.38-2.72-1.14c-0.72-0.76-1.08-1.75-1.08-2.98
		c0-1.2,0.36-2.18,1.08-2.92c0.72-0.74,1.62-1.12,2.72-1.12C142.95,42.87,143.85,43.25,144.56,44.01z"/>
	<path class="st0" d="M160.89,45.89v7.95h3.38V40.03h-1.66l-7.07,8.11v-8.11h-3.38v13.81H154L160.89,45.89z"/>
	<path class="st0" d="M175.54,53.84H179V40.03h-3.47v5.21h-1.39l-1.35,0.01c-1.62,0-2.44-0.6-2.44-1.82v-3.4h-3.47v3.67
		c0,1.66,0.51,2.85,1.52,3.57c1.01,0.72,2.46,1.09,4.34,1.09h2.78V53.84z"/>
	<path class="st0" d="M191.51,45.89v7.95h3.38V40.03h-1.66l-7.07,8.11v-8.11h-3.38v13.81h1.84L191.51,45.89z"/>
	<path class="st0" d="M202.12,40.03h-3.47v13.81h3.47v-5.73h5.18v5.73h3.47V40.03h-3.47V45h-5.18V40.03z"/>
	<path class="st0" d="M218.21,52.81l-2.84,6.08h3.58l8.65-18.87h-3.55l-3.96,8.67l-3.59-8.67h-3.54L218.21,52.81z"/>
	<path class="st0" d="M11.51,74.42c-1.09-0.55-2.32-0.82-3.69-0.82c-1.48,0-2.82,0.32-4.02,0.96c-1.2,0.64-2.13,1.53-2.8,2.65
		c-0.67,1.13-1,2.36-1,3.69c0,1.93,0.69,3.61,2.06,5.05c1.37,1.44,3.28,2.16,5.71,2.16c2.7,0,4.79-0.96,6.27-2.89l-2.73-1.87
		c-0.86,1.06-2.07,1.59-3.62,1.59c-1.25,0-2.27-0.37-3.04-1.12c-0.77-0.74-1.16-1.7-1.16-2.88c0-1.21,0.4-2.2,1.2-2.97
		c0.8-0.77,1.85-1.16,3.15-1.16c0.71,0,1.33,0.11,1.86,0.33c0.53,0.22,1.07,0.61,1.61,1.18l2.88-1.59
		C13.5,75.74,12.6,74.96,11.51,74.42z"/>
	<path class="st0" d="M20.49,77.29h5.18v10.47h3.47V73.95H17.03v13.81h3.47V77.29z"/>
	<path class="st0" d="M43.05,75.48c-0.62-0.63-1.29-1.1-2.02-1.41c-0.73-0.31-1.5-0.47-2.33-0.47c-1.8,0-3.33,0.68-4.59,2.04
		c-1.26,1.36-1.89,3.11-1.89,5.24c0,2.06,0.65,3.78,1.95,5.16c1.3,1.38,2.84,2.08,4.63,2.08c0.79,0,1.53-0.14,2.21-0.43
		c0.68-0.28,1.36-0.75,2.03-1.39v1.46h3.47V73.95h-3.47V75.48z M42.12,77.92c0.72,0.74,1.08,1.72,1.08,2.92
		c0,1.23-0.36,2.22-1.08,2.98c-0.72,0.76-1.62,1.14-2.71,1.14c-1.05,0-1.94-0.39-2.66-1.16c-0.72-0.77-1.08-1.75-1.08-2.95
		c0-1.18,0.35-2.16,1.06-2.91c0.71-0.76,1.6-1.14,2.67-1.14C40.5,76.8,41.41,77.17,42.12,77.92z"/>
	<path class="st0" d="M60.99,74.42c-1.09-0.55-2.32-0.82-3.69-0.82c-1.48,0-2.82,0.32-4.02,0.96c-1.2,0.64-2.13,1.53-2.8,2.65
		c-0.67,1.13-1,2.36-1,3.69c0,1.93,0.69,3.61,2.06,5.05c1.38,1.44,3.28,2.16,5.71,2.16c2.7,0,4.79-0.96,6.27-2.89l-2.73-1.87
		c-0.86,1.06-2.07,1.59-3.62,1.59c-1.25,0-2.27-0.37-3.04-1.12c-0.77-0.74-1.16-1.7-1.16-2.88c0-1.21,0.4-2.2,1.2-2.97
		c0.8-0.77,1.85-1.16,3.15-1.16c0.71,0,1.33,0.11,1.86,0.33c0.53,0.22,1.07,0.61,1.61,1.18l2.88-1.59
		C62.97,75.74,62.08,74.96,60.99,74.42z"/>
	<path class="st0" d="M65.82,77.26h4.81v10.51h3.47V77.26h4.59v-3.3H65.82V77.26z"/>
	<path class="st0" d="M89.77,79.82v7.95h3.38V73.95h-1.66l-7.07,8.11v-8.11h-3.38v13.81h1.84L89.77,79.82z"/>
	<path class="st0" d="M104.42,87.77h3.47V73.95h-3.47v5.21h-1.39l-1.35,0.01c-1.62,0-2.44-0.61-2.44-1.82v-3.4h-3.47v3.67
		c0,1.66,0.51,2.85,1.52,3.57c1.01,0.72,2.46,1.09,4.34,1.09h2.78V87.77z"/>
	<path class="st0" d="M115.12,73.95h-3.47v13.81h3.47v-5.73h5.18v5.73h3.47V73.95h-3.47v4.98h-5.18V73.95z"/>
	<path class="st0" d="M129.15,75.48c-1.58,1.44-2.37,3.24-2.37,5.4c0,2.01,0.7,3.73,2.1,5.14c1.4,1.41,3.09,2.11,5.07,2.11
		c1.35,0,2.58-0.32,3.69-0.96s2-1.53,2.65-2.66c0.65-1.13,0.97-2.35,0.97-3.66c0-1.29-0.32-2.5-0.96-3.62
		c-0.64-1.12-1.54-2-2.68-2.65c-1.15-0.65-2.37-0.98-3.67-0.98C132.14,73.6,130.54,74.23,129.15,75.48L129.15,75.48z M136.71,77.97
		c0.71,0.74,1.06,1.7,1.06,2.89c0,1.18-0.36,2.15-1.08,2.91c-0.72,0.75-1.62,1.13-2.71,1.13c-1.09,0-1.98-0.37-2.69-1.12
		c-0.71-0.74-1.06-1.72-1.06-2.92c0-1.17,0.36-2.13,1.07-2.88c0.72-0.75,1.61-1.12,2.69-1.12C135.1,76.86,136,77.23,136.71,77.97z"
		/>
	<path class="st0" d="M144.28,87.77h3.47V77.26h4.59v-3.3h-8.06V87.77z"/>
	<path class="st0" d="M156.39,75.48c-1.58,1.44-2.37,3.24-2.37,5.4c0,2.01,0.7,3.73,2.1,5.14c1.4,1.41,3.09,2.11,5.07,2.11
		c1.35,0,2.58-0.32,3.69-0.96c1.12-0.64,2-1.53,2.65-2.66c0.65-1.13,0.97-2.35,0.97-3.66c0-1.29-0.32-2.5-0.96-3.62
		c-0.64-1.12-1.54-2-2.68-2.65c-1.15-0.65-2.37-0.98-3.67-0.98C159.37,73.6,157.77,74.23,156.39,75.48L156.39,75.48z M163.94,77.97
		c0.71,0.74,1.06,1.7,1.06,2.89c0,1.18-0.36,2.15-1.08,2.91c-0.72,0.75-1.62,1.13-2.71,1.13c-1.09,0-1.98-0.37-2.69-1.12
		c-0.71-0.74-1.06-1.72-1.06-2.92c0-1.17,0.36-2.13,1.07-2.88c0.72-0.75,1.61-1.12,2.69-1.12
		C162.33,76.86,163.24,77.23,163.94,77.97z"/>
	<path class="st0" d="M10.63,102.49c-2.15,0.09-3.78,0.25-4.89,0.47c-1.11,0.22-2.09,0.66-2.93,1.31c-0.84,0.65-1.52,1.63-2.04,2.93
		c-0.52,1.3-0.77,2.99-0.77,5.06c0,1.62,0.18,3.14,0.55,4.56c0.36,1.43,1.19,2.66,2.47,3.69c1.28,1.03,2.77,1.55,4.45,1.55
		c2.07,0,3.8-0.71,5.21-2.12c1.41-1.41,2.11-3.19,2.11-5.32c0-2.07-0.66-3.75-1.97-5.06c-1.31-1.31-2.86-1.96-4.65-1.96
		c-2.43,0-4.15,1.2-5.15,3.6c0.06-1.17,0.22-2.06,0.5-2.69c0.27-0.62,0.73-1.17,1.39-1.65c0.65-0.48,1.41-0.78,2.26-0.91
		c0.86-0.13,2.13-0.21,3.83-0.22c0.93-0.01,1.9-0.07,2.89-0.18v-3.28C13.17,102.35,12.09,102.42,10.63,102.49L10.63,102.49z
		 M10.2,117.7c-0.73,0.74-1.63,1.11-2.7,1.11c-1.09,0-1.99-0.37-2.7-1.11c-0.71-0.74-1.07-1.71-1.07-2.91
		c0-1.14,0.36-2.09,1.07-2.86s1.62-1.14,2.7-1.14c1.14,0,2.06,0.38,2.75,1.14c0.69,0.76,1.04,1.71,1.04,2.86
		C11.3,115.99,10.93,116.96,10.2,117.7z"/>
	<path class="st0" d="M19.45,109.41c-1.58,1.44-2.37,3.24-2.37,5.4c0,2.01,0.7,3.73,2.1,5.14c1.4,1.41,3.09,2.11,5.07,2.11
		c1.35,0,2.58-0.32,3.69-0.96c1.12-0.64,2-1.53,2.65-2.66c0.65-1.13,0.97-2.35,0.97-3.66c0-1.3-0.32-2.5-0.96-3.62
		c-0.64-1.12-1.54-2-2.68-2.65c-1.15-0.65-2.37-0.98-3.67-0.98C22.44,107.53,20.84,108.16,19.45,109.41L19.45,109.41z M27.01,111.9
		c0.71,0.74,1.06,1.7,1.06,2.89c0,1.19-0.36,2.15-1.08,2.91c-0.72,0.75-1.62,1.13-2.71,1.13c-1.08,0-1.98-0.37-2.69-1.12
		c-0.71-0.74-1.06-1.72-1.06-2.92c0-1.17,0.36-2.13,1.07-2.88c0.72-0.75,1.61-1.12,2.69-1.12C25.4,110.79,26.3,111.16,27.01,111.9z"
		/>
	<path class="st0" d="M40.44,107.88H38.2l-5.89,13.81h3.52l3.52-8.71l3.46,8.71h3.53L40.44,107.88z"/>
	<path class="st0" d="M51.92,116.53h1.84c0.36,1.57,1.21,2.89,2.55,3.94c1.33,1.05,2.84,1.58,4.5,1.58c2.09,0,3.83-0.72,5.22-2.15
		c1.39-1.43,2.08-3.14,2.08-5.13c0-2.03-0.71-3.75-2.14-5.15c-1.43-1.4-3.15-2.1-5.18-2.1c-1.57,0-3.03,0.51-4.38,1.54
		c-1.35,1.03-2.24,2.46-2.66,4.28h-1.84v-5.47h-3.47v13.81h3.47V116.53z M63.53,117.7c-0.73,0.74-1.63,1.11-2.7,1.11
		c-1.09,0-1.98-0.37-2.69-1.11c-0.71-0.74-1.06-1.72-1.06-2.93c0-1.13,0.35-2.07,1.06-2.84c0.71-0.77,1.6-1.15,2.69-1.15
		c1.11,0,2.02,0.37,2.73,1.11c0.71,0.74,1.06,1.7,1.06,2.89C64.63,115.99,64.26,116.96,63.53,117.7z"/>
	<path class="st0" d="M73.94,106.37l-2.83-2.83l-1.69,2.83l3.88,1.09l-3.88,1.11l1.69,2.75l2.83-2.75l-0.98,3.81h3.11l-0.98-3.81
		l2.77,2.75l1.68-2.75l-3.87-1.11l3.87-1l-1.48-2.79l-2.87,2.7l1-3.82h-3.22L73.94,106.37z"/>
	<path class="st0" d="M100.62,115.74v-3.07h-13.3v3.07H100.62z"/>
	<path class="st0" d="M120.33,108.35c-1.09-0.55-2.32-0.82-3.69-0.82c-1.48,0-2.82,0.32-4.02,0.96c-1.2,0.64-2.13,1.53-2.8,2.65
		c-0.67,1.13-1,2.36-1,3.69c0,1.93,0.69,3.61,2.06,5.05c1.38,1.44,3.28,2.16,5.71,2.16c2.7,0,4.79-0.96,6.27-2.89l-2.73-1.87
		c-0.86,1.06-2.07,1.59-3.62,1.59c-1.25,0-2.27-0.37-3.04-1.12c-0.77-0.74-1.16-1.7-1.16-2.88c0-1.21,0.4-2.2,1.2-2.97
		c0.8-0.77,1.85-1.16,3.15-1.16c0.71,0,1.33,0.11,1.86,0.33c0.53,0.22,1.07,0.61,1.61,1.18l2.88-1.59
		C122.31,109.67,121.42,108.89,120.33,108.35z"/>
	<path class="st0" d="M129.31,111.22h5.18v10.47h3.47v-13.81h-12.11v13.81h3.47V111.22z"/>
	<path class="st0" d="M151.86,109.41c-0.62-0.63-1.29-1.1-2.02-1.41c-0.73-0.31-1.5-0.47-2.33-0.47c-1.8,0-3.33,0.68-4.59,2.04
		c-1.26,1.36-1.89,3.11-1.89,5.24c0,2.06,0.65,3.78,1.95,5.16c1.3,1.38,2.84,2.08,4.63,2.08c0.79,0,1.53-0.14,2.21-0.43
		c0.68-0.28,1.36-0.75,2.03-1.39v1.46h3.47v-13.81h-3.47V109.41z M150.94,111.85c0.72,0.74,1.08,1.72,1.08,2.92
		c0,1.23-0.36,2.22-1.08,2.98c-0.72,0.76-1.62,1.14-2.71,1.14c-1.05,0-1.94-0.38-2.66-1.16c-0.72-0.77-1.08-1.75-1.08-2.95
		c0-1.18,0.35-2.16,1.06-2.91c0.71-0.76,1.6-1.14,2.67-1.14C149.32,110.73,150.22,111.1,150.94,111.85z"/>
	<path class="st0" d="M162.07,115.84c0.57,0,1.01,0.16,1.34,0.48c0.33,0.32,0.49,0.7,0.49,1.13c0,0.45-0.17,0.81-0.52,1.1
		c-0.35,0.28-0.82,0.43-1.41,0.43c-0.74,0-1.52-0.3-2.34-0.91l-1.92,2.41c1.22,1.05,2.76,1.57,4.63,1.57c1.7,0,3.03-0.41,4-1.22
		c0.97-0.81,1.45-1.84,1.45-3.07c0-1.66-0.86-2.81-2.58-3.44c1.29-0.74,1.93-1.72,1.93-2.92c0-1.18-0.44-2.13-1.33-2.82
		c-0.88-0.7-2-1.05-3.35-1.05c-1.46,0-2.79,0.47-3.99,1.42l1.37,2.39c0.86-0.55,1.57-0.83,2.13-0.83c0.45,0,0.83,0.14,1.14,0.41
		c0.31,0.28,0.46,0.62,0.46,1.05c0,0.49-0.17,0.85-0.52,1.07c-0.35,0.22-0.75,0.33-1.22,0.33h-0.69v2.48H162.07z"/>
	<path class="st0" d="M174.98,107.88h-2.28l-3.46,13.81h3.38l1.86-8.11l4.02,8.11h1.42l4.11-8.1l1.85,8.1h3.39l-3.46-13.81h-2.28
		l-4.24,8.71L174.98,107.88z"/>
	<path class="st0" d="M192.22,118.66c-0.39,0.39-0.58,0.85-0.58,1.4c0,0.55,0.19,1.02,0.58,1.41c0.39,0.39,0.86,0.58,1.41,0.58
		c0.55,0,1.02-0.19,1.41-0.58c0.39-0.39,0.58-0.86,0.58-1.41c0-0.55-0.19-1.02-0.58-1.4c-0.39-0.39-0.86-0.58-1.41-0.58
		C193.08,118.08,192.61,118.27,192.22,118.66z"/>
</g>
</svg>
