<?xml version="1.0" encoding="utf-8"?>
<!-- Generator: Adobe Illustrator 24.1.3, SVG Export Plug-In . SVG Version: 6.00 Build 0)  -->
<svg version="1.1" id="Слой_1" xmlns="http://www.w3.org/2000/svg" xmlns:xlink="http://www.w3.org/1999/xlink" x="0px" y="0px"
	 viewBox="0 0 232.26 49.93" style="enable-background:new 0 0 232.26 49.93;" xml:space="preserve">
<style type="text/css">
	.st0{fill:#C6151D;}
</style>
<g>
	<path class="st0" d="M0.41,20.74h3.78v-8.41c1.93,0,3.25-0.1,3.98-0.31c1.24-0.36,2.23-1,2.95-1.92c0.72-0.92,1.09-2.07,1.09-3.46
		c0-1.25-0.28-2.33-0.83-3.22c-0.55-0.9-1.31-1.54-2.27-1.94c-0.96-0.4-2.52-0.6-4.69-0.6H0.41V20.74z M4.19,4.56h1.07
		c1.17,0,1.97,0.13,2.4,0.39c0.59,0.35,0.89,0.91,0.89,1.68c0,0.44-0.11,0.82-0.32,1.13C8.02,8.08,7.73,8.3,7.36,8.44
		c-0.37,0.14-1.03,0.2-1.97,0.2h-1.2V4.56z"/>
	<path class="st0" d="M15.1,0.69c-0.46,0.46-0.69,1.01-0.69,1.66c0,0.68,0.23,1.25,0.69,1.72c0.46,0.47,1.02,0.71,1.68,0.71
		c0.64,0,1.18-0.23,1.64-0.7c0.46-0.46,0.69-1.02,0.69-1.68c0-0.67-0.23-1.23-0.69-1.7C17.96,0.23,17.4,0,16.76,0
		C16.11,0,15.56,0.23,15.1,0.69z M14.91,20.74h3.69V6.05h-3.69V20.74z"/>
	<path class="st0" d="M43.62,6.05h-3.69v11.16h-5.08V6.05h-3.69v11.16h-5.06V6.05h-3.69v14.69h21.2V6.05z"/>
	<path class="st0" d="M51.52,19.65l-3.02,6.47h3.81l9.2-20.07h-3.78l-4.21,9.22L49.7,6.05h-3.77L51.52,19.65z"/>
	<path class="st0" d="M72.4,20.74h3.69V6.05H72.4v5.54h-1.48l-1.44,0.01c-1.73,0-2.59-0.64-2.59-1.93V6.05h-3.69v3.9
		c0,1.76,0.54,3.03,1.62,3.8c1.08,0.77,2.62,1.15,4.62,1.15h2.96V20.74z"/>
	<path class="st0" d="M90.86,7.67c-0.66-0.67-1.37-1.17-2.14-1.5c-0.77-0.33-1.6-0.5-2.48-0.5c-1.92,0-3.54,0.72-4.88,2.17
		c-1.34,1.45-2.01,3.31-2.01,5.58c0,2.19,0.69,4.02,2.08,5.49c1.38,1.47,3.03,2.21,4.92,2.21c0.85,0,1.63-0.15,2.35-0.45
		c0.72-0.3,1.45-0.79,2.16-1.48v1.55h3.69V6.05h-3.69V7.67z M89.88,10.26c0.76,0.79,1.14,1.83,1.14,3.11c0,1.31-0.38,2.36-1.14,3.17
		c-0.76,0.81-1.72,1.21-2.88,1.21c-1.12,0-2.07-0.41-2.83-1.23c-0.77-0.82-1.15-1.86-1.15-3.13c0-1.26,0.38-2.29,1.13-3.1
		c0.75-0.81,1.7-1.21,2.84-1.21C88.15,9.08,89.12,9.47,89.88,10.26z"/>
	<path class="st0" d="M111.66,20.74c1.41,0,2.51-0.11,3.3-0.32c0.79-0.22,1.44-0.65,1.95-1.3c0.51-0.65,0.77-1.48,0.77-2.48
		c0-1.85-0.97-3.1-2.92-3.77c1.42-0.63,2.13-1.66,2.13-3.09c0-0.96-0.35-1.83-1.04-2.59c-0.69-0.76-2.01-1.14-3.94-1.14h-5.9v14.69
		H111.66z M109.7,8.64h1.25l0.47-0.01c0.43,0,0.81,0.15,1.13,0.46c0.32,0.31,0.47,0.73,0.47,1.28c0,0.37-0.17,0.7-0.5,1.01
		c-0.33,0.3-0.8,0.45-1.4,0.45h-1.42V8.64z M109.7,14.5h1.54c0.86,0,1.45,0.2,1.78,0.59c0.33,0.4,0.49,0.83,0.49,1.31
		c0,0.32-0.15,0.66-0.44,0.99c-0.29,0.34-0.8,0.51-1.52,0.51h-1.86V14.5z"/>
	<path class="st0" d="M120.94,0.69c-0.46,0.46-0.69,1.01-0.69,1.66c0,0.68,0.23,1.25,0.69,1.72s1.02,0.71,1.68,0.71
		c0.64,0,1.18-0.23,1.64-0.7c0.46-0.46,0.69-1.02,0.69-1.68c0-0.67-0.23-1.23-0.69-1.7C123.8,0.23,123.24,0,122.6,0
		C121.95,0,121.4,0.23,120.94,0.69z M120.76,20.74h3.69V6.05h-3.69V20.74z"/>
	<path class="st0" d="M140.24,20.74v2.55h3.51v-5.67h-2.25l-5.14-11.57h-2.38l-5.07,11.57h-2.21v5.67h3.28v-2.55H140.24z
		 M132.68,17.62l2.49-6.2l2.41,6.2H132.68z"/>
	<path class="st0" d="M149.86,9.6h5.51v11.14h3.69V6.05h-12.88v14.69h3.69V9.6z"/>
	<path class="st0" d="M164.76,7.67c-1.68,1.53-2.53,3.44-2.53,5.74c0,2.14,0.74,3.96,2.23,5.46c1.49,1.5,3.29,2.25,5.39,2.25
		c1.43,0,2.74-0.34,3.93-1.02c1.19-0.68,2.13-1.62,2.82-2.83c0.69-1.21,1.03-2.5,1.03-3.89c0-1.38-0.34-2.66-1.03-3.85
		c-0.68-1.19-1.64-2.13-2.86-2.82c-1.22-0.69-2.52-1.04-3.91-1.04C167.93,5.67,166.24,6.34,164.76,7.67L164.76,7.67z M172.8,10.32
		c0.75,0.79,1.13,1.81,1.13,3.07c0,1.26-0.38,2.29-1.15,3.09c-0.77,0.8-1.73,1.2-2.88,1.2c-1.15,0-2.11-0.4-2.86-1.19
		c-0.75-0.79-1.13-1.83-1.13-3.11c0-1.24,0.38-2.26,1.14-3.06c0.76-0.8,1.72-1.2,2.86-1.2C171.08,9.14,172.05,9.54,172.8,10.32z"/>
	<path class="st0" d="M186.47,20.74c1.41,0,2.51-0.11,3.3-0.32c0.79-0.22,1.44-0.65,1.95-1.3c0.51-0.65,0.77-1.48,0.77-2.48
		c0-1.85-0.97-3.1-2.92-3.77c1.42-0.63,2.13-1.66,2.13-3.09c0-0.96-0.35-1.83-1.04-2.59c-0.69-0.76-2.01-1.14-3.94-1.14h-5.9v14.69
		H186.47z M184.51,8.64h1.25l0.47-0.01c0.43,0,0.81,0.15,1.13,0.46c0.32,0.31,0.47,0.73,0.47,1.28c0,0.37-0.17,0.7-0.5,1.01
		c-0.33,0.3-0.8,0.45-1.4,0.45h-1.42V8.64z M184.51,14.5h1.54c0.86,0,1.45,0.2,1.78,0.59c0.33,0.4,0.49,0.83,0.49,1.31
		c0,0.32-0.15,0.66-0.44,0.99c-0.29,0.34-0.8,0.51-1.52,0.51h-1.86V14.5z"/>
	<path class="st0" d="M195.75,0.69c-0.46,0.46-0.69,1.01-0.69,1.66c0,0.68,0.23,1.25,0.69,1.72c0.46,0.47,1.02,0.71,1.68,0.71
		c0.64,0,1.18-0.23,1.64-0.7c0.46-0.46,0.69-1.02,0.69-1.68c0-0.67-0.23-1.23-0.69-1.7c-0.46-0.47-1.02-0.7-1.66-0.7
		C196.76,0,196.21,0.23,195.75,0.69z M195.57,20.74h3.69V6.05h-3.69V20.74z"/>
	<path class="st0" d="M215.05,20.74v2.55h3.51v-5.67h-2.25l-5.14-11.57h-2.38l-5.07,11.57h-2.21v5.67h3.28v-2.55H215.05z
		 M207.49,17.62l2.49-6.2l2.41,6.2H207.49z"/>
	<path class="st0" d="M224.67,6.05h-3.69v14.69h5.19c1.44,0,2.56-0.12,3.36-0.37c0.8-0.25,1.45-0.75,1.96-1.5
		c0.51-0.75,0.77-1.69,0.77-2.83c0-1.14-0.28-2.09-0.85-2.85c-0.57-0.76-1.26-1.25-2.09-1.49c-0.83-0.24-2.01-0.36-3.55-0.36h-1.1
		V6.05z M224.67,14.34h1.53c1.45,0,2.17,0.63,2.17,1.89c0,0.39-0.11,0.72-0.34,0.99c-0.23,0.27-0.49,0.45-0.79,0.55
		c-0.3,0.09-0.78,0.14-1.45,0.14h-1.12V14.34z"/>
	<path class="st0" d="M3.69,34.86H0v14.69h3.69v-6.09H9.2v6.09h3.69V34.86H9.2v5.29H3.69V34.86z"/>
	<path class="st0" d="M27.66,36.48c-0.66-0.67-1.37-1.17-2.14-1.5c-0.77-0.33-1.6-0.5-2.48-0.5c-1.92,0-3.54,0.72-4.88,2.17
		c-1.34,1.45-2.01,3.31-2.01,5.58c0,2.19,0.69,4.02,2.08,5.49c1.38,1.47,3.03,2.21,4.92,2.21c0.85,0,1.63-0.15,2.35-0.45
		c0.72-0.3,1.45-0.79,2.16-1.48v1.55h3.69V34.86h-3.69V36.48z M26.67,39.08c0.76,0.79,1.14,1.83,1.14,3.11
		c0,1.31-0.38,2.36-1.14,3.17c-0.76,0.81-1.72,1.21-2.88,1.21c-1.12,0-2.07-0.41-2.83-1.23c-0.77-0.82-1.15-1.86-1.15-3.13
		c0-1.26,0.38-2.29,1.13-3.1c0.75-0.81,1.7-1.21,2.84-1.21C24.95,37.89,25.91,38.28,26.67,39.08z"/>
	<path class="st0" d="M54.34,35.36c-1.16-0.58-2.47-0.87-3.93-0.87c-1.58,0-3,0.34-4.27,1.03c-1.27,0.68-2.27,1.63-2.98,2.82
		c-0.71,1.2-1.07,2.51-1.07,3.93c0,2.05,0.73,3.84,2.19,5.38c1.46,1.53,3.49,2.3,6.07,2.3c2.87,0,5.1-1.02,6.67-3.07l-2.91-1.99
		c-0.92,1.13-2.2,1.69-3.85,1.69c-1.33,0-2.41-0.4-3.23-1.19c-0.82-0.79-1.23-1.81-1.23-3.06c0-1.29,0.43-2.34,1.28-3.16
		c0.85-0.82,1.97-1.23,3.35-1.23c0.76,0,1.42,0.12,1.98,0.35c0.56,0.23,1.13,0.65,1.71,1.26l3.07-1.69
		C56.45,36.76,55.5,35.94,54.34,35.36z"/>
	<path class="st0" d="M63.86,38.41h5.51v11.14h3.69V34.86H60.17v14.69h3.69V38.41z"/>
	<path class="st0" d="M87.83,36.48c-0.66-0.67-1.37-1.17-2.14-1.5c-0.77-0.33-1.6-0.5-2.48-0.5c-1.92,0-3.54,0.72-4.88,2.17
		c-1.34,1.45-2.01,3.31-2.01,5.58c0,2.19,0.69,4.02,2.08,5.49c1.38,1.47,3.03,2.21,4.92,2.21c0.85,0,1.63-0.15,2.35-0.45
		c0.72-0.3,1.45-0.79,2.16-1.48v1.55h3.69V34.86h-3.69V36.48z M86.85,39.08c0.76,0.79,1.14,1.83,1.14,3.11
		c0,1.31-0.38,2.36-1.14,3.17c-0.76,0.81-1.72,1.21-2.88,1.21c-1.12,0-2.07-0.41-2.83-1.23c-0.77-0.82-1.15-1.86-1.15-3.13
		c0-1.26,0.38-2.29,1.13-3.1c0.75-0.81,1.7-1.21,2.84-1.21C85.12,37.89,86.09,38.28,86.85,39.08z"/>
	<path class="st0" d="M98.66,43.33c0.6,0,1.08,0.17,1.42,0.51c0.35,0.34,0.52,0.74,0.52,1.2c0,0.48-0.18,0.87-0.55,1.17
		c-0.37,0.3-0.87,0.45-1.5,0.45c-0.78,0-1.61-0.32-2.49-0.97l-2.04,2.57c1.3,1.12,2.94,1.67,4.93,1.67c1.81,0,3.23-0.43,4.25-1.3
		c1.03-0.86,1.54-1.95,1.54-3.27c0-1.76-0.91-2.98-2.74-3.66c1.37-0.79,2.05-1.83,2.05-3.11c0-1.26-0.47-2.26-1.41-3.01
		c-0.94-0.74-2.13-1.11-3.56-1.11c-1.56,0-2.97,0.5-4.24,1.51l1.46,2.54c0.91-0.59,1.67-0.88,2.27-0.88c0.48,0,0.88,0.15,1.21,0.44
		c0.33,0.29,0.49,0.66,0.49,1.11c0,0.52-0.18,0.9-0.55,1.13c-0.37,0.23-0.8,0.35-1.3,0.35H97.7v2.63H98.66z"/>
	<path class="st0" d="M112.37,34.86h-2.43l-3.68,14.69h3.59l1.98-8.63l4.28,8.63h1.51l4.37-8.62l1.96,8.62h3.61l-3.68-14.69h-2.43
		l-4.51,9.27L112.37,34.86z"/>
	<path class="st0" d="M131.4,30.84l-1.76-1.76l-1.05,1.76l2.41,0.67l-2.41,0.69l1.05,1.71l1.76-1.71l-0.61,2.36h1.93l-0.61-2.36
		l1.72,1.71l1.04-1.71l-2.4-0.69l2.4-0.62l-0.92-1.73l-1.78,1.68l0.62-2.37h-2L131.4,30.84z"/>
	<path class="st0" d="M139.03,30.84l-1.76-1.76l-1.05,1.76l2.41,0.67l-2.41,0.69l1.05,1.71l1.76-1.71l-0.61,2.36h1.93l-0.61-2.36
		l1.72,1.71l1.04-1.71l-2.4-0.69l2.4-0.62l-0.92-1.73l-1.78,1.68l0.62-2.37h-2L139.03,30.84z"/>
</g>
</svg>
