<?xml version="1.0" encoding="utf-8"?>
<!-- Generator: Adobe Illustrator 24.1.3, SVG Export Plug-In . SVG Version: 6.00 Build 0)  -->
<svg version="1.1" id="Слой_1" xmlns="http://www.w3.org/2000/svg" xmlns:xlink="http://www.w3.org/1999/xlink" x="0px" y="0px"
	 viewBox="0 0 206.7 17.2" style="enable-background:new 0 0 206.7 17.2;" xml:space="preserve">
<style type="text/css">
	.st0{fill:#002458;}
</style>
<g>
	<path class="st0" d="M10.3,2.5c-1-0.7-2.4-1-4-1c-1.3,0-2.5,0.1-3.4,0.4C1.8,2.1,0.9,2.5,0,3.1l1.7,2.8C2.8,5.2,4,4.9,5.4,4.9
		c1.5,0,2.2,0.4,2.2,1.2c0,0.4-0.1,0.6-0.3,0.8C7.1,7,6.8,7.1,6.3,7.2C5.8,7.3,5.2,7.3,4.4,7.3H2.8v3.4h1.8c2.3,0,3.5,0.5,3.5,1.5
		c0,0.6-0.2,1-0.7,1.2c-0.5,0.2-1.3,0.4-2.5,0.4c-0.7,0-1.6-0.1-2.5-0.3c-0.9-0.2-1.7-0.4-2.3-0.7v3.6c1.5,0.6,3.4,0.8,5.8,0.8
		c1.3,0,2.5-0.2,3.4-0.6c1-0.4,1.7-0.9,2.2-1.6c0.5-0.7,0.8-1.5,0.8-2.4c0-1.1-0.4-1.9-1.1-2.5c-0.7-0.6-1.7-1-3.1-1.1V8.9
		c2.4-0.4,3.6-1.6,3.6-3.6C11.8,4.1,11.3,3.2,10.3,2.5z"/>
	<path class="st0" d="M25.4,17V9.2c0-1.4-0.4-2.4-1.3-3.2c-0.8-0.8-2-1.1-3.5-1.1c-2.1,0-3.9,0.4-5.2,1.1l1.2,2.7
		c1.3-0.6,2.4-0.9,3.3-0.9c1,0,1.4,0.5,1.4,1.5v0.2l-2,0.1c-1.7,0.1-2.9,0.4-3.8,1c-0.9,0.6-1.3,1.6-1.3,2.8c0,1.2,0.3,2.2,1,2.8
		c0.6,0.7,1.5,1,2.6,1c0.9,0,1.6-0.1,2.2-0.4c0.6-0.3,1.1-0.7,1.7-1.4h0.1l0.8,1.6H25.4z M18.3,13.2c0-0.9,0.7-1.4,2-1.5l0.9,0v0.9
		c0,0.5-0.2,0.9-0.5,1.2c-0.4,0.3-0.8,0.5-1.3,0.5C18.7,14.3,18.3,13.9,18.3,13.2L18.3,13.2z"/>
	<path class="st0" d="M43.7,5.1h-5.5l-1.1,3.5L36.7,10c-0.5,1.5-0.7,2.5-0.7,2.8c-0.1-0.4-0.3-1.2-0.6-2.4c-0.3-1.2-0.5-2-0.7-2.5
		l-0.9-2.8h-5.6V17h3.7V8.1L32,8.9c0.5,1.6,0.9,3,1.3,4.3l1.2,3.8h2.8c1-3.1,1.7-5.1,2-6.1c0.3-1,0.5-1.9,0.8-2.8V17h3.7V5.1z"/>
	<path class="st0" d="M57.2,7.8c-0.5-0.9-1.2-1.6-2.1-2.1c-0.9-0.5-1.9-0.7-3.1-0.7c-1.9,0-3.4,0.5-4.4,1.6c-1,1.1-1.6,2.6-1.6,4.5
		c0,1.9,0.5,3.4,1.6,4.5c1.1,1.1,2.5,1.7,4.3,1.7c1.9,0,3.3-0.5,4.4-1.6c1-1.1,1.6-2.6,1.6-4.5C57.9,9.8,57.7,8.7,57.2,7.8z
		 M50.6,8.7C50.9,8.2,51.4,8,52,8c0.6,0,1.1,0.3,1.4,0.8c0.3,0.5,0.4,1.3,0.4,2.3c0,1-0.1,1.8-0.4,2.3c-0.3,0.5-0.7,0.8-1.3,0.8
		c-0.6,0-1.1-0.3-1.4-0.8c-0.3-0.5-0.4-1.3-0.4-2.3C50.2,10,50.4,9.2,50.6,8.7z"/>
	<path class="st0" d="M70.6,5.9c-0.9-0.5-2.1-0.8-3.9-0.8h-6.5V17h6.5c3.7,0,5.5-1.1,5.5-3.4c0-0.8-0.2-1.4-0.7-1.9
		c-0.5-0.5-1.1-0.8-2-0.9v-0.1c0.7-0.1,1.3-0.4,1.7-0.9c0.4-0.5,0.6-1,0.6-1.7C71.9,7.2,71.4,6.4,70.6,5.9z M66.6,14.3h-2.2v-2.1
		h2.3c0.5,0,0.8,0.1,1.1,0.2c0.3,0.2,0.4,0.4,0.4,0.8C68.1,13.9,67.6,14.3,66.6,14.3L66.6,14.3z M67.5,9.3c-0.2,0.2-0.5,0.2-1,0.2
		h-2.2V7.8h2.3c0.8,0,1.1,0.3,1.1,0.9C67.8,9,67.7,9.2,67.5,9.3z"/>
	<path class="st0" d="M86.5,5.1H76.3c-0.1,1.6-0.2,3-0.4,4.1c-0.1,1.1-0.3,2-0.4,2.7c-0.2,0.7-0.3,1.2-0.5,1.6
		c-0.2,0.3-0.5,0.5-0.8,0.5c-0.4,0-0.7-0.1-0.9-0.2v3c0.5,0.2,1.1,0.3,1.9,0.3c1,0,1.9-0.3,2.5-0.8c0.6-0.5,1.1-1.4,1.4-2.6
		c0.3-1.2,0.6-3.1,0.9-5.6h2.4V17h4.1V5.1z"/>
	<path class="st0" d="M94.3,12.9h1.2V17h4.1V5.1h-5.7c-1.6,0-2.9,0.3-3.8,1c-0.9,0.7-1.4,1.6-1.4,2.8c0,0.8,0.2,1.5,0.5,2.1
		c0.4,0.6,0.8,1.1,1.5,1.4l-3,4.5H92L94.3,12.9z M93.2,8.1c0.3-0.2,0.6-0.3,1.1-0.3h1.2v2.4h-1.2c-0.5,0-0.9-0.1-1.1-0.3
		c-0.3-0.2-0.4-0.5-0.4-0.8C92.8,8.7,93,8.3,93.2,8.1z"/>
	<path class="st0" d="M102.4,5.1V17h4.5l4.7-7.2c-0.1,1.5-0.1,2.9-0.1,4V17h3.6V5.1h-4.5l-4.7,7.3c0.1-2.3,0.1-3.5,0.1-3.7
		c0-0.2,0-0.4,0-0.5v-3H102.4z M114.1,0h-3.5c-0.1,1.3-0.7,1.9-1.7,1.9c-0.6,0-1-0.2-1.3-0.5c-0.3-0.3-0.4-0.8-0.5-1.5h-3.4
		c0.1,1.4,0.6,2.4,1.4,3c0.8,0.6,2.1,1,3.7,1C112.1,4,113.8,2.7,114.1,0L114.1,0z"/>
	<path class="st0" d="M134.2,7.8c-0.5-0.9-1.2-1.6-2.1-2.1c-0.9-0.5-1.9-0.7-3.1-0.7c-1.9,0-3.4,0.5-4.4,1.6c-1,1.1-1.6,2.6-1.6,4.5
		c0,1.9,0.5,3.4,1.6,4.5s2.5,1.7,4.3,1.7c1.9,0,3.3-0.5,4.4-1.6c1-1.1,1.6-2.6,1.6-4.5C134.9,9.8,134.7,8.7,134.2,7.8z M127.6,8.7
		c0.3-0.5,0.7-0.8,1.4-0.8c0.6,0,1.1,0.3,1.4,0.8c0.3,0.5,0.4,1.3,0.4,2.3c0,1-0.1,1.8-0.4,2.3c-0.3,0.5-0.7,0.8-1.3,0.8
		c-0.6,0-1.1-0.3-1.4-0.8c-0.3-0.5-0.4-1.3-0.4-2.3C127.2,10,127.4,9.2,127.6,8.7z"/>
	<path class="st0" d="M137.3,5.1V17h4.1v-4.5h3.2V17h4.1V5.1h-4.1v4.3h-3.2V5.1H137.3z"/>
	<path class="st0" d="M163.4,5.1h-10.2c-0.1,1.6-0.2,3-0.4,4.1c-0.1,1.1-0.3,2-0.4,2.7c-0.2,0.7-0.3,1.2-0.5,1.6
		c-0.2,0.3-0.5,0.5-0.8,0.5c-0.4,0-0.7-0.1-0.9-0.2v3c0.5,0.2,1.1,0.3,1.9,0.3c1,0,1.9-0.3,2.5-0.8c0.6-0.5,1.1-1.4,1.4-2.6
		c0.3-1.2,0.6-3.1,0.9-5.6h2.4V17h4.1V5.1z"/>
	<path class="st0" d="M176.9,17V9.2c0-1.4-0.4-2.4-1.3-3.2c-0.8-0.8-2-1.1-3.5-1.1c-2.1,0-3.9,0.4-5.2,1.1l1.2,2.7
		c1.3-0.6,2.4-0.9,3.3-0.9c1,0,1.4,0.5,1.4,1.5v0.2l-2,0.1c-1.7,0.1-2.9,0.4-3.8,1c-0.9,0.6-1.3,1.6-1.3,2.8c0,1.2,0.3,2.2,1,2.8
		c0.6,0.7,1.5,1,2.6,1c0.9,0,1.6-0.1,2.2-0.4c0.6-0.3,1.1-0.7,1.7-1.4h0.1L174,17H176.9z M169.8,13.2c0-0.9,0.7-1.4,2-1.5l0.9,0v0.9
		c0,0.5-0.2,0.9-0.5,1.2c-0.4,0.3-0.8,0.5-1.3,0.5C170.2,14.3,169.8,13.9,169.8,13.2L169.8,13.2z"/>
	<path class="st0" d="M179.6,5.1V17h4.5l4.7-7.2c-0.1,1.5-0.1,2.9-0.1,4V17h3.6V5.1h-4.5l-4.7,7.3c0.1-2.3,0.1-3.5,0.1-3.7
		c0-0.2,0-0.4,0-0.5v-3H179.6z M191.4,0h-3.5c-0.1,1.3-0.7,1.9-1.7,1.9c-0.6,0-1-0.2-1.3-0.5c-0.3-0.3-0.4-0.8-0.5-1.5H181
		c0.1,1.4,0.6,2.4,1.4,3c0.8,0.6,2.1,1,3.7,1C189.3,4,191.1,2.7,191.4,0L191.4,0z"/>
	<path class="st0" d="M195.2,5.1V17h4.1v-4.5h3.2V17h4.1V5.1h-4.1v4.3h-3.2V5.1H195.2z"/>
</g>
</svg>
