<?xml version="1.0" encoding="utf-8"?>
<!-- Generator: Adobe Illustrator 22.1.0, SVG Export Plug-In . SVG Version: 6.00 Build 0)  -->
<svg version="1.1" id="Layer_1" xmlns="http://www.w3.org/2000/svg" xmlns:xlink="http://www.w3.org/1999/xlink" x="0px" y="0px"
	 viewBox="0 0 121.8 13" style="enable-background:new 0 0 121.8 13;" xml:space="preserve">
<style type="text/css">
	.st0{fill:#FFFFFF;}
</style>
<g>
	<g>
		<path class="st0" d="M4.5,9.9c-0.7,0-1.3-0.1-1.8-0.4c-0.6-0.2-1-0.6-1.4-1C0.8,8.2,0.5,7.7,0.3,7.1S0,6,0,5.4
			c0-0.7,0.1-1.3,0.3-1.8c0.2-0.5,0.5-1,1-1.4c0.4-0.4,0.9-0.7,1.4-0.9s1.1-0.3,1.8-0.3c0.4,0,0.8,0.1,1.2,0.2
			c0.4,0.1,0.7,0.2,1.1,0.4c0.3,0.2,0.6,0.4,0.9,0.7C7.9,2.4,8.1,2.7,8.3,3L6.9,4c-0.3-0.5-0.6-0.8-1-1.1S5.1,2.5,4.5,2.5
			c-0.4,0-0.8,0.1-1.2,0.2C3,2.9,2.7,3.1,2.4,3.3C2.2,3.6,2,3.9,1.8,4.2C1.7,4.6,1.6,5,1.6,5.4c0,0.4,0.1,0.8,0.2,1.1
			C2,6.8,2.2,7.2,2.4,7.4S3,7.9,3.3,8c0.3,0.1,0.7,0.2,1.1,0.2c0.6,0,1.1-0.2,1.5-0.5c0.4-0.3,0.7-0.7,1-1.2l1.5,0.8
			C8.3,7.8,8,8.1,7.8,8.4C7.5,8.7,7.2,9,6.8,9.2C6.5,9.4,6.1,9.6,5.7,9.7C5.3,9.8,4.9,9.9,4.5,9.9z"/>
		<path class="st0" d="M9.1,2.7h1.5l2.3,2.8l2.4-2.8h1.4v7h-1.6V5.1l-2.2,2.6l-2.2-2.5v4.6H9.1V2.7z"/>
		<path class="st0" d="M20.8,9.9c-0.4,0-0.8-0.1-1.3-0.2c-0.4-0.2-0.8-0.4-1.1-0.7c-0.3-0.3-0.6-0.7-0.8-1.1s-0.3-1-0.3-1.5
			c0-0.6,0.1-1.1,0.3-1.6c0.2-0.5,0.5-0.8,0.8-1.1c0.3-0.3,0.7-0.5,1.1-0.7c0.4-0.2,0.8-0.2,1.3-0.2c0.5,0,0.9,0.1,1.3,0.3
			c0.4,0.2,0.7,0.4,1,0.7V2.7h1.6v7h-1.6V8.8c-0.3,0.3-0.6,0.6-1,0.8C21.7,9.8,21.3,9.9,20.8,9.9z M21.1,8.4c0.3,0,0.6-0.1,0.8-0.2
			s0.5-0.3,0.7-0.5c0.2-0.2,0.3-0.4,0.4-0.7c0.1-0.3,0.2-0.5,0.2-0.9c0-0.3-0.1-0.6-0.2-0.8c-0.1-0.3-0.3-0.5-0.4-0.7
			c-0.2-0.2-0.4-0.4-0.7-0.5c-0.3-0.1-0.5-0.2-0.8-0.2c-0.3,0-0.6,0.1-0.8,0.2c-0.3,0.1-0.5,0.3-0.7,0.5c-0.2,0.2-0.3,0.4-0.5,0.7
			S19,5.9,19,6.2c0,0.3,0.1,0.6,0.2,0.9s0.3,0.5,0.5,0.7C19.8,8,20,8.1,20.2,8.2S20.8,8.4,21.1,8.4z"/>
		<path class="st0" d="M29.6,9.9c-0.5,0-0.9-0.1-1.3-0.3s-0.7-0.4-1-0.7V13h-1.6V2.7h1.6v0.9c0.2-0.3,0.6-0.6,1-0.8
			c0.4-0.2,0.8-0.3,1.3-0.3c0.4,0,0.9,0.1,1.3,0.2s0.8,0.4,1.1,0.7c0.3,0.3,0.6,0.7,0.8,1.1C33,5.2,33,5.7,33,6.3
			c0,0.6-0.1,1.1-0.3,1.5S32.3,8.6,32,8.9c-0.3,0.3-0.7,0.6-1.1,0.7C30.4,9.8,30,9.9,29.6,9.9z M29.3,8.4c0.3,0,0.6-0.1,0.8-0.2
			s0.5-0.3,0.7-0.5c0.2-0.2,0.3-0.4,0.5-0.7c0.1-0.3,0.2-0.6,0.2-0.9c0-0.3-0.1-0.6-0.2-0.9c-0.1-0.3-0.3-0.5-0.5-0.7
			c-0.2-0.2-0.4-0.3-0.7-0.5c-0.3-0.1-0.5-0.2-0.8-0.2c-0.3,0-0.6,0.1-0.8,0.2c-0.3,0.1-0.5,0.3-0.7,0.5c-0.2,0.2-0.3,0.4-0.4,0.7
			c-0.1,0.3-0.2,0.5-0.2,0.8c0,0.3,0.1,0.6,0.2,0.9c0.1,0.3,0.2,0.5,0.4,0.7C28,8,28.2,8.1,28.5,8.2S29,8.4,29.3,8.4z"/>
		<path class="st0" d="M35.3,4.2H33V2.7h6v1.5h-2.2v5.5h-1.6V4.2z"/>
		<path class="st0" d="M44.4,0.6v2.1c0.5,0,1,0.1,1.5,0.3c0.4,0.2,0.8,0.4,1.2,0.8c0.3,0.3,0.6,0.7,0.8,1.1S48,5.7,48,6.2
			s-0.1,1-0.3,1.4c-0.2,0.4-0.4,0.8-0.8,1.1c-0.3,0.3-0.7,0.6-1.2,0.8c-0.4,0.2-0.9,0.3-1.5,0.3v3h-1.6V9.8c-0.5,0-1-0.1-1.5-0.3
			c-0.5-0.2-0.8-0.4-1.2-0.8s-0.6-0.7-0.8-1.1c-0.2-0.4-0.3-0.9-0.3-1.4s0.1-1,0.3-1.4c0.2-0.4,0.4-0.8,0.8-1.1s0.7-0.6,1.2-0.8
			c0.4-0.2,0.9-0.3,1.5-0.3V0.6H44.4z M40.7,6.2c0,0.3,0.1,0.6,0.2,0.8c0.1,0.3,0.3,0.5,0.4,0.7c0.2,0.2,0.4,0.3,0.7,0.5
			c0.3,0.1,0.5,0.2,0.8,0.2V4.1c-0.3,0-0.6,0.1-0.8,0.2c-0.3,0.1-0.5,0.3-0.7,0.4c-0.2,0.2-0.3,0.4-0.4,0.7
			C40.7,5.7,40.7,5.9,40.7,6.2z M46.5,6.2c0-0.3-0.1-0.6-0.2-0.8c-0.1-0.3-0.2-0.5-0.4-0.7c-0.2-0.2-0.4-0.3-0.7-0.4
			c-0.3-0.1-0.5-0.2-0.8-0.2v4.2c0.3,0,0.6-0.1,0.8-0.2c0.3-0.1,0.5-0.3,0.7-0.5C46,7.5,46.2,7.3,46.3,7C46.4,6.8,46.5,6.5,46.5,6.2
			z"/>
		<path class="st0" d="M52.2,9.9c-0.5,0-1-0.1-1.4-0.3c-0.4-0.2-0.8-0.4-1.2-0.8S49,8.1,48.8,7.7c-0.2-0.4-0.3-0.9-0.3-1.4
			c0-0.5,0.1-1,0.3-1.4C49,4.4,49.3,4,49.6,3.7s0.7-0.6,1.2-0.8c0.4-0.2,0.9-0.3,1.4-0.3s1,0.1,1.4,0.3c0.4,0.2,0.8,0.4,1.2,0.8
			s0.6,0.7,0.8,1.2c0.2,0.4,0.3,0.9,0.3,1.4c0,0.5-0.1,1-0.3,1.4c-0.2,0.4-0.4,0.8-0.8,1.2S54,9.4,53.6,9.6
			C53.2,9.8,52.7,9.9,52.2,9.9z M52.2,8.4c0.3,0,0.6-0.1,0.8-0.2s0.5-0.3,0.6-0.5c0.2-0.2,0.3-0.4,0.4-0.7c0.1-0.3,0.2-0.5,0.2-0.8
			c0-0.3-0.1-0.6-0.2-0.8c-0.1-0.3-0.2-0.5-0.4-0.7c-0.2-0.2-0.4-0.3-0.6-0.5c-0.2-0.1-0.5-0.2-0.8-0.2s-0.6,0.1-0.8,0.2
			c-0.3,0.1-0.5,0.3-0.6,0.5c-0.2,0.2-0.3,0.4-0.4,0.7c-0.1,0.3-0.2,0.5-0.2,0.8c0,0.3,0.1,0.6,0.2,0.8c0.1,0.3,0.2,0.5,0.4,0.7
			s0.4,0.3,0.6,0.5S51.9,8.4,52.2,8.4z"/>
		<path class="st0" d="M61.2,7h-3v2.8h-1.6v-7h1.6v2.7h3V2.7h1.6v7h-1.6V7z"/>
		<path class="st0" d="M73,2.1l-2.5,0.3c-1.3,0.1-2.1,0.8-2.4,2C68.3,4,68.6,3.7,69,3.5s0.9-0.3,1.4-0.3c0.4,0,0.8,0.1,1.2,0.2
			c0.4,0.2,0.7,0.4,1,0.7c0.3,0.3,0.5,0.6,0.7,1c0.2,0.4,0.2,0.8,0.2,1.3c0,0.5-0.1,0.9-0.3,1.4c-0.2,0.4-0.4,0.8-0.7,1.1
			c-0.3,0.3-0.7,0.5-1.1,0.7s-0.9,0.3-1.4,0.3c-0.6,0-1.1-0.1-1.5-0.3c-0.4-0.2-0.8-0.5-1.1-0.9c-0.3-0.4-0.6-0.9-0.7-1.4
			s-0.2-1.1-0.2-1.8c0-0.7,0.1-1.3,0.3-1.9C67,2.9,67.3,2.4,67.7,2c0.6-0.6,1.5-1,2.7-1.1l2.4-0.3L73,2.1z M70.1,8.4
			c0.3,0,0.5,0,0.7-0.1c0.2-0.1,0.4-0.2,0.6-0.4s0.3-0.4,0.4-0.6s0.1-0.5,0.1-0.7s0-0.5-0.1-0.7c-0.1-0.2-0.2-0.4-0.4-0.6
			s-0.4-0.3-0.6-0.4c-0.2-0.1-0.5-0.1-0.7-0.1c-0.3,0-0.5,0-0.7,0.1c-0.2,0.1-0.4,0.2-0.6,0.4s-0.3,0.4-0.4,0.6
			c-0.1,0.2-0.1,0.5-0.1,0.7s0,0.5,0.1,0.7s0.2,0.4,0.4,0.6s0.4,0.3,0.6,0.4C69.6,8.3,69.8,8.4,70.1,8.4z"/>
		<path class="st0" d="M76.1,9.4l-2.9-6.7H75l2,4.7l1.8-4.7h1.7L76.3,13h-1.6L76.1,9.4z"/>
		<path class="st0" d="M84.4,2.7l2.4,5.5h0.8v3h-1.4V9.8H81v1.6h-1.4v-3h0.8l2.4-5.5H84.4z M82,8.3h3.1l-1.5-3.6L82,8.3z"/>
		<path class="st0" d="M88.1,2.7h1.6v2.1h1.4c0.4,0,0.8,0.1,1.2,0.2s0.6,0.3,0.9,0.5c0.2,0.2,0.4,0.5,0.6,0.8s0.2,0.6,0.2,0.9
			s-0.1,0.7-0.2,1c-0.1,0.3-0.3,0.6-0.6,0.8c-0.2,0.2-0.5,0.4-0.9,0.5s-0.7,0.2-1.1,0.2h-3.1V2.7z M91,8.3c0.4,0,0.7-0.1,0.9-0.3
			c0.2-0.2,0.4-0.5,0.4-0.8c0-0.3-0.1-0.6-0.4-0.8c-0.2-0.2-0.5-0.3-0.9-0.3h-1.4v2.1H91z M94.4,2.7H96v7h-1.6V2.7z"/>
		<path class="st0" d="M101.1,7.5c-0.2,0.1-0.4,0.1-0.7,0.1c-0.2,0-0.5,0-0.7,0c-0.5,0-0.9-0.1-1.3-0.2S97.8,7.2,97.6,7
			c-0.3-0.2-0.5-0.5-0.6-0.8c-0.1-0.3-0.2-0.7-0.2-1V2.7h1.6v2.1c0,0.4,0.1,0.7,0.4,1c0.2,0.2,0.7,0.4,1.3,0.4c0.2,0,0.4,0,0.5,0
			c0.2,0,0.4,0,0.5-0.1V2.7h1.6v7h-1.6V7.5z"/>
		<path class="st0" d="M103.8,2.7h1.6v2.1h1.4c0.4,0,0.8,0.1,1.2,0.2s0.6,0.3,0.9,0.5c0.2,0.2,0.4,0.5,0.6,0.8s0.2,0.6,0.2,0.9
			s-0.1,0.7-0.2,1c-0.1,0.3-0.3,0.6-0.6,0.8c-0.2,0.2-0.5,0.4-0.9,0.5s-0.7,0.2-1.1,0.2h-3.1V2.7z M106.7,8.3c0.4,0,0.7-0.1,0.9-0.3
			c0.2-0.2,0.4-0.5,0.4-0.8c0-0.3-0.1-0.6-0.4-0.8c-0.2-0.2-0.5-0.3-0.9-0.3h-1.4v2.1H106.7z M110.1,2.7h1.6v7h-1.6V2.7z"/>
		<path class="st0" d="M117.4,7h-3v2.8h-1.6v-7h1.6v2.7h3V2.7h1.6v7h-1.6V7z"/>
		<path class="st0" d="M119.7,1c0-0.3,0.1-0.5,0.3-0.7c0.2-0.2,0.4-0.3,0.7-0.3c0.3,0,0.6,0.1,0.8,0.3c0.2,0.2,0.3,0.4,0.3,0.7
			c0,0.3-0.1,0.5-0.3,0.7c-0.2,0.2-0.4,0.3-0.8,0.3c-0.3,0-0.6-0.1-0.8-0.3C119.8,1.6,119.7,1.3,119.7,1z M120,2.7h1.6v7H120V2.7z"
			/>
	</g>
</g>
</svg>
