<?xml version="1.0" encoding="utf-8"?>
<!-- Generator: Adobe Illustrator 24.0.3, SVG Export Plug-In . SVG Version: 6.00 Build 0)  -->
<svg version="1.1" id="Слой_1" xmlns="http://www.w3.org/2000/svg" xmlns:xlink="http://www.w3.org/1999/xlink" x="0px" y="0px"
	 viewBox="0 0 426.9 33.9" style="enable-background:new 0 0 426.9 33.9;" xml:space="preserve">
<style type="text/css">
	.st0{fill:#FFFFFF;stroke:#FFFFFF;stroke-miterlimit:10;}
</style>
<g>
	<path class="st0" d="M0.6,7.9L0.5,25.5c0,0.4,0.3,0.7,0.7,0.7c0.5,0,0.7-0.3,0.7-0.7c0-0.4,0-1.1,0-1.9L2,1.2
		c0-0.5-0.2-0.7-0.7-0.7c-0.5,0-0.7,0.2-0.7,0.7V7.9z"/>
	<path class="st0" d="M16,26L16,26c-0.1,0.5-0.2,1.1-0.4,1.7c0,0,0,0,0,0.1l0,0.1v-0.1l-0.2,0.5c0,0.1-0.1,0.2-0.1,0.3l-0.6,0.9
		c-0.2,0.3-0.5,0.6-0.9,0.9h0c0,0,0,0-0.1,0h0.1l-0.4,0.3l-0.7,0.4c-0.2,0.1-0.3,0.2-0.4,0.2c-0.1,0-0.1,0-0.1,0l-0.3,0.1
		c-0.2,0.1-0.6,0.2-1.1,0.3l-1.1,0.2C9,32,8.5,32,8.1,32c-0.5,0-0.7,0.2-0.7,0.7c0,0.5,0.2,0.7,0.7,0.7c3,0,5.3-0.8,7-2.4
		c1.1-1.1,1.9-2.5,2.2-4.1c0.1-0.6,0.2-1.1,0.2-1.7c-0.2-2.7-0.3-5-0.3-6.8v-0.1c0-1.1,0-2.2,0-3.3c0-2,0.1-3.8,0.2-5.6
		c0-0.1,0-0.2,0-0.3l0-0.3c0-0.5-0.2-0.7-0.7-0.7c-0.4,0-0.7,0.2-0.7,0.7c0,0.3-0.1,1.4-0.2,3l0,0.4c-0.6-1.2-1.4-2.2-2.3-2.9
		c-0.9-0.7-2-1.1-3.2-1.1C9,8.2,7.9,8.5,6.9,9.1C5.5,10,4.5,11.7,4,14c-0.2,1.2-0.3,2.2-0.3,3.1v0c0,0.9,0.1,1.9,0.4,3
		C4.6,22.4,5.6,24,7,25.1c0.9,0.7,1.9,1,3.2,1.1c1.3,0.1,2.5-0.2,3.6-0.8c0.9-0.5,1.6-1.2,2.1-2.1c0,0.6,0.1,1.4,0.1,2.3
		c0,0.1,0,0.2,0,0.3L16,26z M6.8,23L6.8,23l-0.2-0.2c-0.2-0.3-0.3-0.4-0.3-0.6C6.2,22,6.1,21.8,6,21.6c0,0,0,0,0-0.1
		c0,0,0-0.1,0-0.1c0-0.1-0.1-0.3-0.1-0.3c-0.3-0.8-0.4-1.5-0.6-2.3l-0.1-1.6c0-0.4,0-0.7,0-0.9c0-0.2,0-0.5,0.1-0.9l0.2-1
		c0-0.3,0.2-0.7,0.3-1.3c0-0.1,0.1-0.2,0.1-0.3l0.4-0.8c0.1-0.1,0.2-0.3,0.3-0.6l0.2-0.3l0.8-0.7l0.8-0.4l0.9-0.2h1.1l0.9,0.2
		c0.3,0.1,0.4,0.2,0.3,0.1l0.8,0.5l0.4,0.3l0.6,0.7l0.2,0.3c0.2,0.3,0.5,0.8,0.7,1.3c0,0,0,0.1,0.1,0.1c0,0.1,0.1,0.1,0.1,0.2
		s0,0.1,0,0.1c0,0,0,0.1,0.1,0.1l0.2,0.7c0.2,0.5,0.3,0.8,0.3,1.2l0.2,1.1l0.1,1.1c0,0.5,0,0.9,0,1.4c0,0.2,0,0.4,0,0.5l0,0.4
		c0,0.3-0.1,0.7-0.3,1.2l-0.2,0.6c0,0.1-0.1,0.2-0.1,0.3c0,0.1-0.1,0.2-0.1,0.2c0,0.1-0.1,0.2-0.2,0.3L14.5,23l-0.1,0.1
		c-0.2,0.2-0.3,0.4-0.4,0.5c-0.1,0.1-0.2,0.2-0.2,0.2L13.5,24l-0.8,0.4l-0.4,0.1c-0.3,0.1-0.5,0.2-0.8,0.2l-0.8,0.1
		c-0.3,0-0.6,0-0.8,0l-0.8-0.2l-0.6-0.2c-0.2-0.1-0.4-0.2-0.6-0.3c0,0,0,0-0.1-0.1l-0.4-0.3c-0.2-0.2-0.4-0.4-0.5-0.5L6.8,23z"/>
	<path class="st0" d="M30.7,23.6l-1.2,0.7l-0.1,0.1v0l-0.4,0.1c-0.3,0.1-0.4,0.1-0.6,0.2l-0.6,0.1l-0.6,0.1c-0.2,0-0.4,0-0.5,0
		c-0.2,0-0.3,0-0.4,0l-0.3,0c-0.3-0.1-0.6-0.1-0.8-0.2c-0.1,0-0.2,0-0.3,0l-1-0.6c0,0,0,0-0.1,0l-0.1,0l-0.2-0.2
		c-0.2-0.2-0.3-0.3-0.5-0.5L23,22.8c0,0,0,0,0-0.1l-0.1-0.2c-0.3-0.5-0.6-0.9-0.7-1.2c-0.1-0.1-0.2-0.3-0.3-0.5l-0.2-0.6
		c-0.3-0.7-0.4-1.5-0.6-2.3L21,17.2c0.6,0,1.5,0,2.7,0c2.7,0,4.7-0.1,6-0.1c0.7,0,1.8,0,3.3,0c0.5,0,0.7-0.3,0.7-0.7
		c0-0.4,0-0.7,0-0.8c-0.1-0.8-0.3-1.6-0.4-2.2c-0.7-2.2-1.9-3.7-3.7-4.5c-1.2-0.5-2.4-0.7-3.8-0.5c-0.7,0.1-1.4,0.3-2,0.5
		c-0.4,0.2-0.9,0.5-1.4,0.9c-1.3,1-2.1,2.6-2.5,4.7c-0.2,0.9-0.3,1.6-0.2,2.2c0.1,1.4,0.3,2.6,0.8,3.9c0.7,2.2,1.9,3.8,3.5,4.8
		c1.4,0.8,3,1.1,4.8,0.7c0.9-0.2,1.8-0.5,2.5-0.9c1.1-0.7,1.9-1.7,2.3-2.9c0.1-0.3,0.2-0.7,0.3-1c0.1-0.4-0.1-0.7-0.5-0.9
		c-0.2,0-0.4,0-0.5,0.1c-0.2,0.1-0.3,0.3-0.3,0.4c-0.1,0.4-0.2,0.8-0.3,1l-0.1,0.3c-0.1,0.2-0.2,0.4-0.2,0.4c0,0.1-0.1,0.2-0.2,0.3
		L30.7,23.6z M28.8,10c0.1,0,0.3,0.1,0.3,0.2l0.7,0.4l0.1,0.1h0.1l0.3,0.3c0.2,0.1,0.3,0.3,0.5,0.5l0,0v0h0v0l0.1,0.1l0.5,0.9
		c0.1,0.2,0.1,0.3,0.1,0.3c0,0,0.1,0.1,0.1,0.1c0,0,0,0.1,0,0.1l0.4,1.1c0.1,0.3,0.2,0.6,0.2,0.9l0.1,0.6c-1.1,0-1.9,0-2.5,0
		c-1.3,0-3.3,0-6.1,0.1c-1.2,0-2.1,0-2.7,0l0.2-0.9c0-0.3,0.1-0.7,0.3-1.1l0.2-0.6c0,0,0-0.1,0-0.1v0l0,0l0.1-0.3
		c0.1-0.2,0.3-0.6,0.6-1.1l0,0l0,0l0.4-0.4l0.6-0.6c0,0,0,0,0.1,0c0.1-0.1,0.2-0.1,0.3-0.2c0.1-0.1,0.2-0.1,0.3-0.2c0,0,0,0,0.1,0
		l0.1-0.1l0,0c0.4-0.2,0.7-0.2,0.8-0.3l0.5-0.1l1.3,0l0.8,0.1c0.4,0.1,0.7,0.2,0.8,0.2l0.1,0C28.7,10,28.7,10,28.8,10L28.8,10z
		 M30.7,11.5L30.7,11.5L30.7,11.5L30.7,11.5z"/>
	<path class="st0" d="M48.5,8.2c-0.4,0-0.7,0.2-0.7,0.7c0,0.3-0.1,1.4-0.2,3l0,0.4c-0.6-1.2-1.4-2.2-2.3-2.9c-0.9-0.7-2-1.1-3.2-1.1
		c-1.3-0.1-2.4,0.2-3.3,0.8c-1.4,0.9-2.4,2.5-2.9,4.9c-0.2,1.2-0.3,2.2-0.3,3.1v0c0,0.9,0.1,1.9,0.4,3c0.5,2.2,1.5,3.8,2.9,4.9
		c0.9,0.7,1.9,1,3.2,1.1c1.3,0.1,2.5-0.2,3.6-0.8c0.9-0.5,1.6-1.2,2.1-2.1l0.2,2.1c0,0.4,0.3,0.7,0.7,0.7c0.5,0,0.8-0.3,0.7-0.7
		c-0.2-2.5-0.3-4.8-0.3-7v-0.1c0-1.1,0-2.2,0-3.3c0-2,0.1-3.8,0.2-5.6c0-0.1,0-0.2,0-0.3l0-0.3C49.2,8.4,49,8.2,48.5,8.2z
		 M37.2,14.3c0-0.3,0.2-0.7,0.3-1.3c0-0.1,0.1-0.2,0.1-0.3l0.4-0.8c0.1-0.1,0.2-0.3,0.3-0.6l0.2-0.3l0.8-0.7l0.8-0.4l0.9-0.2h1.1
		l0.9,0.2c0.3,0.1,0.4,0.1,0.4,0.2l0.2,0.1l0.8,0.5l0,0l0.3,0.2l0.6,0.7l0.2,0.3c0.2,0.3,0.5,0.8,0.7,1.3c0,0,0,0.1,0.1,0.1
		c0,0.1,0.1,0.1,0.1,0.2v0v0.1h0c0,0,0,0.1,0.1,0.1l0.2,0.7c0.2,0.5,0.3,0.8,0.3,1.2l0.2,1.1l0,0.4l0.1,0.7c0,0.5,0,0.9,0,1.4
		c0,0.2,0,0.4,0,0.5l0,0.4c0,0.3-0.1,0.7-0.3,1.2L47,21.6c0,0.1-0.1,0.2-0.1,0.3c0,0.1-0.1,0.2-0.1,0.2c0,0.1-0.1,0.2-0.2,0.3
		L46.3,23l-0.1,0.1c-0.2,0.2-0.3,0.4-0.4,0.5c-0.1,0.1-0.2,0.2-0.2,0.2L45.3,24l-0.8,0.4l-0.1,0h0l-0.4,0.1
		c-0.3,0.1-0.5,0.2-0.8,0.2l-0.8,0.1c-0.3,0-0.6,0-0.8,0l-1.3-0.3l-0.1-0.1c-0.2-0.1-0.4-0.2-0.6-0.3c0,0,0,0-0.1-0.1l-0.4-0.3
		L38.6,23l-0.2-0.3c-0.2-0.3-0.3-0.4-0.3-0.6c-0.1-0.2-0.2-0.4-0.3-0.6c0,0,0,0,0-0.1c0,0,0-0.1,0-0.1c0-0.1-0.1-0.3-0.1-0.3
		c-0.3-0.8-0.4-1.5-0.6-2.3l-0.1-1.6c0-0.4,0-0.7,0-0.9c0-0.2,0-0.5,0.1-0.9L37.2,14.3z M43.5,10.1L43.5,10.1
		C43.5,10.1,43.5,10.1,43.5,10.1L43.5,10.1z"/>
	<path class="st0" d="M64.1,26.2c0.4,0,0.7-0.2,0.7-0.7c0-0.5,0-1.3-0.1-2.4c-0.1-1.9-0.2-3.7-0.5-5.4c-0.4-2.3-0.9-4.2-1.5-5.7
		c-0.9-1.9-2-3.1-3.4-3.6c-0.8-0.3-1.6-0.3-2.4,0c-0.8,0.2-1.4,0.7-2,1.4c-0.8,0.8-1.4,2.1-1.9,3.6c-0.8,3.1-1.3,6.3-1.4,9.4
		c0,0.4,0,1.1,0,1.9c0,0.2,0,0.4,0,0.5c0,0.5,0.2,0.7,0.7,0.7c0.5,0,0.7-0.2,0.7-0.7v-2.4c0-0.5,0.1-1.4,0.2-2.5
		c0-0.2,0-0.4,0.1-0.7l0.3-2c0.2-1.1,0.4-2.1,0.6-2.9c0.1-0.3,0.2-0.8,0.4-1.4l0.3-0.8l0.2-0.3c0.2-0.4,0.4-0.8,0.6-1.1
		c0.1-0.2,0.2-0.2,0.2-0.3l0.5-0.5c0.1-0.1,0.2-0.1,0.2-0.2l0.2-0.2l0.6-0.3l0.5-0.1c0,0,0.1,0,0.1,0c0.1,0,0.2,0,0.2,0l0.7,0.1
		c0.1,0,0.2,0,0.3,0.1l0.1,0l0.7,0.4l0.8,0.8v0.1c0,0,0,0,0.1,0.1c0,0,0,0,0,0.1c0.3,0.4,0.5,0.8,0.6,1.1c0.1,0.2,0.2,0.4,0.3,0.6
		l0.2,0.5c0.3,0.8,0.6,1.7,0.8,2.8c0,0.2,0.1,0.4,0.2,0.7l0.3,2c0.1,0.6,0.2,1.5,0.3,2.7c0.1,1.3,0.2,2.5,0.2,3.6v0.3
		C63.3,26,63.6,26.2,64.1,26.2z"/>
	<path class="st0" d="M68.5,9c0-0.5-0.2-0.7-0.7-0.7C67.3,8.3,67,8.5,67,9v16.6c0,0.4,0.3,0.7,0.7,0.7c0.4,0,0.7-0.2,0.7-0.7
		c1.3,0,2.4,0,3.2,0c0.7,0,1.8,0,3.3,0c0.5,0,0.7-0.3,0.7-0.7c0-0.4,0-0.7,0-0.8c-0.1-0.8-0.3-1.6-0.4-2.2c-0.7-2.2-1.9-3.7-3.7-4.5
		c-0.9-0.4-1.9-0.6-3-0.6c0-0.3,0-2.4,0-6.3L68.5,9z M70.8,18.5c0.1,0,0.3,0.1,0.3,0.2l0.7,0.4l0.1,0.1h0.1l0.3,0.3
		c0.2,0.1,0.3,0.3,0.5,0.5l0,0v0h0v0l0.1,0.1l0.5,0.9c0.1,0.2,0.1,0.3,0.1,0.3c0,0,0.1,0.1,0.1,0.1c0,0,0,0.1,0,0.1l0.4,1.1
		c0.1,0.3,0.2,0.6,0.2,0.9l0.1,0.6c-1.1,0-1.9,0-2.5,0c-0.8,0-1.9,0-3.3,0v-6.1H69l0.8,0.1c0.4,0.1,0.7,0.2,0.8,0.2l0.1,0
		C70.7,18.4,70.7,18.4,70.8,18.5L70.8,18.5z M72.7,20L72.7,20L72.7,20L72.7,20z"/>
	<path class="st0" d="M86.1,17.3c0.1,0,0.4,0.1,0.8,0.2l0,8.1c0,0.3,0.2,0.5,0.5,0.5c0.3,0,0.5-0.2,0.5-0.5c0-0.3,0-0.7,0-1.3
		l0-15.6c0-0.3-0.1-0.5-0.5-0.5c-0.3,0-0.5,0.1-0.5,0.5l0,7.8c-0.3-0.1-0.8-0.1-1.5-0.2c-0.8,0-1.6,0-2.5,0
		c-1.5,0.1-3.1,0.3-4.7,0.6c-0.2,0-0.3,0.1-0.4,0.1l0-8.4c0-0.3-0.1-0.5-0.5-0.5c-0.3,0-0.5,0.1-0.5,0.5l0,8.7
		c-0.1,0.1-0.1,0.2-0.1,0.4c0,0.1,0,0.1,0.1,0.2l0,7.6c0,0.3,0.2,0.5,0.5,0.5c0.3,0,0.5-0.2,0.5-0.5c0-0.3,0-0.7,0-1.3l0-6.2
		c0.7-0.2,1.4-0.3,2.1-0.4l0.3,0c0.1,0,0.2,0,0.3,0l1.8-0.2c0.9-0.1,1.7-0.1,2.6-0.1l0.4,0c0.2,0,0.3,0,0.3,0L86.1,17.3z M86,17.3
		c0,0,0,0,0.1,0L86,17.3z"/>
	<path class="st0" d="M95.5,24.6l-0.6-0.3l-0.8-0.8v-0.1c0,0,0,0,0-0.1c0,0,0-0.1-0.1-0.1c-0.3-0.4-0.5-0.8-0.6-1.1
		c-0.1-0.2-0.2-0.4-0.3-0.6l-0.2-0.5c-0.3-0.8-0.6-1.7-0.8-2.8l-0.1-0.7c-0.1-0.3-0.1-0.6-0.2-0.7l-0.2-1.1c0-0.1,0-0.1,0-0.2v-0.1
		c-0.1-0.6-0.2-1.5-0.3-2.7c-0.1-1.3-0.2-2.5-0.2-3.6V8.9c0-0.5-0.2-0.7-0.7-0.7c-0.4,0-0.7,0.2-0.7,0.7c0,0.5,0,1.3,0.1,2.4
		c0.1,1.9,0.2,3.7,0.5,5.4c0.4,2.3,0.9,4.2,1.5,5.7c0.9,1.9,2,3.1,3.4,3.6c0.8,0.3,1.6,0.3,2.4,0c0.8-0.2,1.4-0.7,2-1.4
		c0.8-0.8,1.4-2.1,1.9-3.6v4.5c0,0.4,0.3,0.7,0.7,0.7c0.5,0,0.7-0.3,0.7-0.7V11.7c0-0.4,0-1.1,0-1.9c0-0.2,0-0.4,0-0.5
		c0-0.5-0.2-0.7-0.7-0.7c-0.5,0-0.7,0.2-0.7,0.7v2.4c0,0.5-0.1,1.4-0.2,2.5c0,0.2,0,0.4-0.1,0.7l-0.2,1.8c0,0.1,0,0.2,0,0.2
		c-0.2,1.1-0.4,2.1-0.6,2.9c-0.1,0.3-0.2,0.8-0.4,1.4l-0.3,0.8l-0.2,0.3c-0.2,0.4-0.4,0.8-0.6,1.1c-0.1,0.2-0.2,0.2-0.2,0.3
		l-0.5,0.5c-0.1,0.1-0.2,0.1-0.2,0.2l-0.2,0.2l-0.6,0.3c-0.1,0-0.3,0.1-0.5,0.1c0,0-0.1,0-0.1,0c-0.1,0-0.2,0-0.2,0
		c-0.1,0-0.2,0-0.3,0l-0.6-0.1L95.5,24.6L95.5,24.6z"/>
	<path class="st0" d="M106,8.2c-0.4,0-0.7,0.2-0.7,0.7c0,0.5,0,1.3,0.1,2.4c0.1,1.9,0.2,3.7,0.5,5.4c0.4,2.3,0.9,4.2,1.5,5.7
		c0.9,1.9,2,3.1,3.4,3.6c0.8,0.3,1.6,0.3,2.4,0c0.8-0.2,1.4-0.7,2-1.4c0.8-0.8,1.4-2.1,1.9-3.6v4.5c0,0.4,0.3,0.7,0.7,0.7
		c0.5,0,0.7-0.3,0.7-0.7V11.7c0-0.4,0-1.1,0-1.9c0-0.2,0-0.4,0-0.5c0-0.5-0.2-0.7-0.7-0.7c-0.5,0-0.7,0.2-0.7,0.7v2.4
		c0,0.5-0.1,1.4-0.2,2.5c0,0.2,0,0.4-0.1,0.7l-0.2,1.8c0,0.1,0,0.2,0,0.2c-0.2,1.1-0.4,2.1-0.6,2.9c-0.1,0.3-0.2,0.8-0.4,1.4
		l-0.3,0.8l-0.2,0.3c-0.2,0.4-0.4,0.8-0.6,1.1c-0.1,0.2-0.2,0.2-0.2,0.3l-0.5,0.5c-0.1,0.1-0.2,0.1-0.2,0.2l-0.2,0.2l-0.6,0.3
		c-0.1,0-0.3,0.1-0.5,0.1c0,0-0.1,0-0.1,0c-0.1,0-0.2,0-0.2,0c-0.1,0-0.2,0-0.3,0l-0.6-0.1l-0.2-0.1l-0.6-0.3l-0.8-0.8v-0.1
		c0,0,0,0,0-0.1c0,0,0-0.1-0.1-0.1c-0.3-0.4-0.5-0.8-0.6-1.1c-0.1-0.2-0.2-0.4-0.3-0.6l-0.2-0.5c-0.3-0.8-0.6-1.7-0.8-2.8l-0.1-0.7
		c-0.1-0.3-0.1-0.6-0.2-0.7l-0.2-1.1c0-0.1,0-0.1,0-0.2v-0.1c-0.1-0.6-0.2-1.5-0.3-2.7c-0.1-1.3-0.2-2.5-0.2-3.6V8.9
		C106.8,8.5,106.5,8.2,106,8.2z M107.5,3.2c0-0.5-0.2-0.7-0.7-0.7c-0.5,0-0.7,0.3-0.7,0.7c0.1,1.7,0.7,3,1.8,4.1
		c0.9,0.9,2,1.4,3.4,1.4c1.6,0.1,2.9-0.3,4-1c0.8-0.5,1.5-1.2,1.9-2.1c0.3-0.4,0.4-0.8,0.5-1.2c0.1-0.4-0.1-0.7-0.5-0.9
		c-0.5-0.1-0.8,0-0.9,0.5c0,0.2-0.1,0.3-0.1,0.4c-0.1,0.1-0.1,0.2-0.1,0.2l0,0.1c-0.1,0.3-0.2,0.4-0.3,0.5c0,0.1-0.1,0.2-0.2,0.3
		l-0.5,0.6c-0.1,0.1-0.2,0.2-0.3,0.3c0,0,0,0-0.1,0l-0.1,0.1l0,0c-0.2,0.2-0.4,0.3-0.7,0.4l-0.9,0.3c-0.1,0-0.2,0.1-0.3,0.1l-0.3,0
		v0l0,0l0,0c-0.5,0-0.8,0.1-1.1,0c-0.2,0-0.4,0-0.5,0L110.1,7l-0.2-0.1c-0.2-0.1-0.4-0.2-0.7-0.4L108.6,6l-0.1-0.2l0,0
		c-0.2-0.3-0.3-0.4-0.3-0.6L108,4.7c-0.2-0.4-0.3-0.8-0.3-1.1V3.5l-0.1-0.2L107.5,3.2z"/>
	<path class="st0" d="M140.5,26L140.5,26c-0.1,0.5-0.2,1.1-0.4,1.7c0,0,0,0,0,0.1l0,0.1v-0.1l-0.2,0.5c0,0.1-0.1,0.2-0.1,0.3
		l-0.6,0.9c-0.2,0.3-0.5,0.6-0.9,0.9h0c0,0,0,0-0.1,0h0.1l-0.4,0.3l-0.7,0.4c-0.2,0.1-0.3,0.2-0.4,0.2c-0.1,0-0.1,0-0.1,0l-0.3,0.1
		c-0.2,0.1-0.6,0.2-1.1,0.3l-1.1,0.2c-0.5,0.1-0.9,0.1-1.4,0.1c-0.5,0-0.7,0.2-0.7,0.7c0,0.5,0.2,0.7,0.7,0.7c3,0,5.3-0.8,7-2.4
		c1.1-1.1,1.9-2.5,2.2-4.1c0.1-0.6,0.2-1.1,0.2-1.7c-0.2-2.7-0.3-5-0.3-6.8v-0.1c0-1.1,0-2.2,0-3.3c0-2,0.1-3.8,0.2-5.6
		c0-0.1,0-0.2,0-0.3l0-0.3c0-0.5-0.2-0.7-0.7-0.7c-0.4,0-0.7,0.2-0.7,0.7c0,0.3-0.1,1.4-0.2,3l0,0.4c-0.6-1.2-1.4-2.2-2.3-2.9
		c-0.9-0.7-2-1.1-3.2-1.1c-1.3-0.1-2.4,0.2-3.3,0.8c-1.4,0.9-2.4,2.5-2.9,4.9c-0.2,1.2-0.3,2.2-0.3,3.1v0c0,0.9,0.1,1.9,0.4,3
		c0.5,2.2,1.5,3.8,2.9,4.9c0.9,0.7,1.9,1,3.2,1.1c1.3,0.1,2.5-0.2,3.6-0.8c0.9-0.5,1.6-1.2,2.1-2.1c0,0.6,0.1,1.4,0.1,2.3
		c0,0.1,0,0.2,0,0.3L140.5,26z M131.3,23L131.3,23l-0.2-0.2c-0.2-0.3-0.3-0.4-0.3-0.6c-0.1-0.2-0.2-0.4-0.3-0.6c0,0,0,0,0-0.1
		c0,0,0-0.1,0-0.1c0-0.1-0.1-0.3-0.1-0.3c-0.3-0.8-0.4-1.5-0.6-2.3l-0.1-1.6c0-0.4,0-0.7,0-0.9c0-0.2,0-0.5,0.1-0.9l0.2-1
		c0-0.3,0.2-0.7,0.3-1.3c0-0.1,0.1-0.2,0.1-0.3l0.4-0.8c0.1-0.1,0.2-0.3,0.3-0.6l0.2-0.3l0.8-0.7l0.8-0.4l0.9-0.2h1.1l0.9,0.2
		c0.3,0.1,0.4,0.2,0.3,0.1l0.8,0.5l0.4,0.3l0.6,0.7l0.2,0.3c0.2,0.3,0.5,0.8,0.7,1.3c0,0,0,0.1,0.1,0.1c0,0.1,0.1,0.1,0.1,0.2
		s0,0.1,0,0.1c0,0,0,0.1,0.1,0.1l0.2,0.7c0.2,0.5,0.3,0.8,0.3,1.2l0.2,1.1l0.1,1.1c0,0.5,0,0.9,0,1.4c0,0.2,0,0.4,0,0.5l0,0.4
		c0,0.3-0.1,0.7-0.3,1.2l-0.2,0.6c0,0.1-0.1,0.2-0.1,0.3c0,0.1-0.1,0.2-0.1,0.2c0,0.1-0.1,0.2-0.2,0.3L139,23l-0.1,0.1
		c-0.2,0.2-0.3,0.4-0.4,0.5c-0.1,0.1-0.2,0.2-0.2,0.2L138,24l-0.8,0.4l-0.4,0.1c-0.3,0.1-0.5,0.2-0.8,0.2l-0.8,0.1
		c-0.3,0-0.6,0-0.8,0l-0.8-0.2l-0.6-0.2c-0.2-0.1-0.4-0.2-0.6-0.3c0,0,0,0-0.1-0.1l-0.4-0.3c-0.2-0.2-0.4-0.4-0.5-0.5L131.3,23z"/>
	<path class="st0" d="M156.6,26.2c0.4,0,0.7-0.2,0.7-0.7c0-0.5,0-1.3-0.1-2.4c-0.1-1.9-0.2-3.7-0.5-5.4c-0.4-2.3-0.9-4.2-1.5-5.7
		c-0.9-1.9-2-3.1-3.4-3.6c-0.8-0.3-1.6-0.3-2.4,0c-0.8,0.2-1.4,0.7-2,1.4c-0.8,0.8-1.4,2.1-1.9,3.6c-0.8,3.1-1.3,6.3-1.4,9.4
		c0,0.4,0,1.1,0,1.9c0,0.2,0,0.4,0,0.5c0,0.5,0.2,0.7,0.7,0.7c0.5,0,0.7-0.2,0.7-0.7v-2.4c0-0.5,0.1-1.4,0.2-2.5
		c0-0.2,0-0.4,0.1-0.7l0.3-2c0.2-1.1,0.4-2.1,0.6-2.9c0.1-0.3,0.2-0.8,0.4-1.4l0.3-0.8l0.2-0.3c0.2-0.4,0.4-0.8,0.6-1.1
		c0.1-0.2,0.2-0.2,0.2-0.3l0.5-0.5c0.1-0.1,0.2-0.1,0.2-0.2l0.2-0.2l0.6-0.3l0.5-0.1c0,0,0.1,0,0.1,0c0.1,0,0.2,0,0.2,0l0.7,0.1
		c0.1,0,0.2,0,0.3,0.1l0.1,0l0.7,0.4L153,11v0.1c0,0,0,0,0.1,0.1c0,0,0,0,0,0.1c0.3,0.4,0.5,0.8,0.6,1.1c0.1,0.2,0.2,0.4,0.3,0.6
		l0.2,0.5c0.3,0.8,0.6,1.7,0.8,2.8c0,0.2,0.1,0.4,0.2,0.7l0.3,2c0.1,0.6,0.2,1.5,0.3,2.7c0.1,1.3,0.2,2.5,0.2,3.6v0.3
		C155.9,26,156.1,26.2,156.6,26.2z"/>
	<path class="st0" d="M170.9,10.9c0.1,0,0.1,0,0.2,0c0.5,0,0.7-0.3,0.7-0.7c0-0.5-0.2-0.7-0.7-0.7c-0.1,0-0.1,0-0.2,0V9
		c0-0.5-0.3-0.7-0.7-0.7c-0.5,0-0.7,0.2-0.7,0.7v0.3c-1.9-0.4-3.5-0.7-4.6-0.8c-1.5-0.2-2.9-0.3-4.4-0.3c-0.6,0-0.9,0.3-1,0.7
		c0,0.1,0,0.1,0,0.2c0,2.2,0.8,4.3,2.5,6.3c0.6,0.8,1.3,1.5,2.2,2.1l-2.6,4.3c-0.5,0.8-1.1,1.9-2,3.4c-0.3,0.4-0.2,0.7,0.3,0.9
		c0.4,0.3,0.7,0.2,0.9-0.3l4.5-7.5c0.5,0.3,1.1,0.7,1.7,1.1c0.9,0.5,1.7,1,2.4,1.3v4.5c0,0.5,0.2,0.7,0.7,0.7c0.5,0,0.7-0.3,0.7-0.7
		V10.9z M161.6,11.8L161.6,11.8L161.6,11.8L161.6,11.8c-0.1-0.1-0.1-0.2-0.1-0.2l0-0.1c-0.1-0.4-0.2-0.7-0.3-0.8
		c0-0.1-0.1-0.2-0.1-0.4l0-0.3c0-0.1,0-0.3-0.1-0.4c3,0.1,5.8,0.4,8.5,1.1v8.6l-1.2-0.6c-1-0.6-1.8-1.1-2.4-1.5l-0.4-0.3l-0.8-0.7
		c-0.5-0.5-0.9-0.9-1.2-1.2l-1-1.2c-0.3-0.4-0.6-0.9-0.9-1.5L161.6,11.8L161.6,11.8L161.6,11.8z"/>
	<path class="st0" d="M206.5,25.6c0-0.2-0.1-0.3-0.1-0.4c-0.1-0.3-0.3-0.4-0.7-0.4l-1,0h-0.2V11.7c0-0.4,0-1.1,0-1.9
		c0-0.2,0-0.4,0-0.5c0-0.5-0.2-0.7-0.7-0.7c-0.5,0-0.7,0.2-0.7,0.7v2.4c0,0.5-0.1,1.4-0.2,2.5c0,0.1,0,0.3-0.1,0.7l-0.3,2
		c-0.2,1.1-0.4,2-0.6,2.9c-0.1,0.3-0.2,0.8-0.4,1.4l-0.3,0.8l-0.2,0.3c-0.2,0.4-0.4,0.8-0.6,1.1c-0.1,0.2-0.2,0.2-0.2,0.3l-0.5,0.5
		c-0.1,0.1-0.2,0.1-0.2,0.2l-0.2,0.2l-0.6,0.3l-0.6,0.2c0,0-0.1,0-0.1,0c-0.1,0-0.2,0-0.2,0l-0.7-0.1c-0.1,0-0.2,0-0.3,0l-0.8-0.4
		c0,0,0-0.1-0.1-0.1l-0.8-0.7v-0.1c0,0,0,0,0-0.1c0,0,0-0.1-0.1-0.1c-0.3-0.4-0.5-0.8-0.6-1.1c-0.1-0.2-0.2-0.4-0.3-0.6l-0.2-0.5
		c-0.3-0.8-0.6-1.7-0.8-2.8c0-0.2-0.1-0.4-0.1-0.7l-0.3-2c-0.1-0.6-0.2-1.5-0.3-2.7c-0.1-1.4-0.2-2.5-0.2-3.6V9
		c0-0.5-0.2-0.7-0.7-0.7c-0.4,0-0.7,0.2-0.7,0.7c0,0.5,0,1.3,0.1,2.4c0.1,1.9,0.2,3.7,0.5,5.4c0.1,0.8,0.3,1.6,0.5,2.4
		c-0.2,0.7-0.4,1.4-0.7,2.1l-0.2,0.5c-0.1,0.2-0.2,0.4-0.3,0.6c-0.1,0.3-0.3,0.7-0.6,1.1l-0.1,0.2l-0.8,0.8l-0.6,0.3
		c0,0-0.1,0-0.1,0l-0.4,0.1l-0.7,0.1c0,0-0.1,0-0.2,0l-0.1,0l-0.6-0.2c0,0-0.1,0-0.2-0.1l-0.5-0.4c0,0-0.1-0.1-0.2-0.2l-0.5-0.5
		c0,0-0.1-0.1-0.2-0.3c-0.2-0.3-0.4-0.7-0.6-1.1l-0.2-0.3l-0.3-0.8c-0.2-0.6-0.3-1-0.4-1.4c-0.2-0.8-0.4-1.8-0.6-2.9
		c0,0,0-0.1,0-0.2l-0.2-1.8c0-0.3-0.1-0.5-0.1-0.7c-0.1-1.1-0.1-1.9-0.2-2.5V9.2c0-0.5-0.3-0.7-0.7-0.7c-0.5,0-0.7,0.2-0.7,0.7
		c0,0.1,0,0.3,0,0.5c0,1.2,0.1,2.5,0.2,4c0.2,2.3,0.5,4.2,0.9,5.9c0.6,2.2,1.3,3.9,2.3,5c0.6,0.7,1.3,1.1,2,1.4
		c0.8,0.3,1.6,0.3,2.4,0c1.4-0.5,2.5-1.7,3.4-3.6c0.2-0.3,0.3-0.7,0.3-0.9l0.4,0.9c0.9,1.9,2,3.1,3.4,3.6c0.8,0.3,1.6,0.3,2.4,0
		c0.8-0.3,1.4-0.7,2-1.4c0.8-0.8,1.4-2.1,1.9-3.6v4.5c0,0.4,0.3,0.7,0.7,0.7h0.1h0c0.3,0,0.7,0.1,1,0.1l0,0.3l-0.1,0.8
		c0,0.2,0,0.3,0.1,0.4c0.1,0.2,0.3,0.3,0.4,0.3c0.2,0,0.4,0,0.5-0.1c0.2-0.1,0.3-0.3,0.3-0.4l0-0.3c0.1-0.5,0.1-1,0.1-1.5
		L206.5,25.6z"/>
	<path class="st0" d="M222,17.2c0-0.9-0.1-1.9-0.3-3c-0.5-2.2-1.5-3.8-2.9-4.9c-0.9-0.7-1.9-1-3.2-1.1c-1.3-0.1-2.5,0.2-3.6,0.8
		c-1.6,0.8-2.6,2.4-3.1,4.7c-0.2,1.2-0.3,2.2-0.2,3.3c0.2,1.4,0.3,2.3,0.5,3c0.6,2.3,1.7,4,3.1,5.1c0.9,0.7,2,1.1,3.2,1.1
		c1.3,0.1,2.4-0.2,3.3-0.8c1.5-0.9,2.4-2.6,2.9-4.9C222,19.3,222.1,18.3,222,17.2L222,17.2z M212.3,10.5c0.2-0.2,0.4-0.3,0.6-0.3
		l0.6-0.2c0.3-0.1,0.5-0.2,0.8-0.2l0.4,0c0.2,0,0.4,0,0.5,0c0.2,0,0.4,0,0.8,0.1c0.1,0,0.2,0,0.2,0c0.1,0,0.2,0,0.2,0l0.4,0.1
		l0.4,0.2h0l0.2,0.1c0.1,0,0.3,0.1,0.6,0.3c0,0,0,0,0.1,0l0.4,0.3c0.2,0.2,0.4,0.4,0.5,0.5l0.3,0.4c0.2,0.3,0.3,0.4,0.3,0.6
		c0.1,0.2,0.2,0.4,0.3,0.6v0c0,0,0,0.1,0.1,0.1l0.1,0.3c0.3,0.8,0.4,1.5,0.6,2.3v0.2l0.1,0.6v0.9c0,0.3,0,0.5,0,0.8
		c0,0.2,0,0.5-0.1,1c0,0,0,0.1,0,0.2v0.1h0l-0.1,0.8c-0.1,0.4-0.2,0.8-0.3,1.3l-0.5,1.1c-0.1,0.1-0.2,0.3-0.3,0.6l-0.3,0.4l-0.4,0.4
		l-0.5,0.3l-0.5,0.3l-1,0.2c-0.2,0-0.3,0-0.4,0l-0.8,0l-1-0.3v0l-0.3-0.1l-0.8-0.5c0,0,0,0-0.1-0.1l-0.9-0.9c0,0,0-0.1-0.1-0.1
		l-0.1-0.1c-0.2-0.3-0.5-0.8-0.7-1.3c0,0,0-0.1-0.1-0.2l-0.4-1c-0.2-0.5-0.3-0.8-0.3-1.2l-0.2-1.1l-0.1-0.3v-0.1v-0.1l0,0.1h0v-0.1
		l0-0.4c0-0.1,0-0.2,0-0.3c0-0.5,0-0.9,0-1.4c0-0.2,0-0.4,0-0.5l0-0.4l0,0h0c0-0.3,0.1-0.7,0.3-1.1l0.2-0.6l0.1-0.3
		c0-0.1,0.1-0.2,0.1-0.2l0.6-1l0,0c0.2-0.2,0.3-0.4,0.4-0.5c0.1,0,0.2-0.1,0.2-0.2l0.1-0.1L212.3,10.5z M220.5,19.4
		C220.5,19.4,220.5,19.4,220.5,19.4L220.5,19.4L220.5,19.4z M212.1,10.6L212.1,10.6L212.1,10.6C212.1,10.7,212.1,10.7,212.1,10.6z
		 M213,23.8C213,23.8,213,23.8,213,23.8C213,23.8,213,23.8,213,23.8z M220.5,15.9L220.5,15.9L220.5,15.9z"/>
	<path class="st0" d="M235.9,26L235.9,26c-0.1,0.5-0.2,1.1-0.4,1.7c0,0,0,0,0,0.1l0,0.1v-0.1l-0.2,0.5c0,0.1-0.1,0.2-0.1,0.3
		l-0.6,0.9c-0.2,0.3-0.5,0.6-0.9,0.9h0c0,0,0,0-0.1,0h0.1l-0.4,0.3l-0.7,0.4c-0.2,0.1-0.3,0.2-0.4,0.2c-0.1,0-0.1,0-0.1,0l-0.3,0.1
		c-0.2,0.1-0.6,0.2-1.1,0.3l-1.1,0.2c-0.5,0.1-0.9,0.1-1.4,0.1c-0.5,0-0.7,0.2-0.7,0.7c0,0.5,0.2,0.7,0.7,0.7c3,0,5.3-0.8,7-2.4
		c1.1-1.1,1.9-2.5,2.2-4.1c0.1-0.6,0.2-1.1,0.2-1.7c-0.2-2.7-0.3-5-0.3-6.8v-0.1c0-1.1,0-2.2,0-3.3c0-2,0.1-3.8,0.2-5.6
		c0-0.1,0-0.2,0-0.3l0-0.3c0-0.5-0.2-0.7-0.7-0.7c-0.4,0-0.7,0.2-0.7,0.7c0,0.3-0.1,1.4-0.2,3l0,0.4c-0.6-1.2-1.4-2.2-2.3-2.9
		c-0.9-0.7-2-1.1-3.2-1.1c-1.3-0.1-2.4,0.2-3.3,0.8c-1.4,0.9-2.4,2.5-2.9,4.9c-0.2,1.2-0.3,2.2-0.3,3.1v0c0,0.9,0.1,1.9,0.4,3
		c0.5,2.2,1.5,3.8,2.9,4.9c0.9,0.7,1.9,1,3.2,1.1c1.3,0.1,2.5-0.2,3.6-0.8c0.9-0.5,1.6-1.2,2.1-2.1c0,0.6,0.1,1.4,0.1,2.3
		c0,0.1,0,0.2,0,0.3L235.9,26z M226.8,23L226.8,23l-0.2-0.2c-0.2-0.3-0.3-0.4-0.3-0.6c-0.1-0.2-0.2-0.4-0.3-0.6c0,0,0,0,0-0.1
		c0,0,0-0.1,0-0.1c0-0.1-0.1-0.3-0.1-0.3c-0.3-0.8-0.4-1.5-0.6-2.3l-0.1-1.6c0-0.4,0-0.7,0-0.9c0-0.2,0-0.5,0.1-0.9l0.2-1
		c0-0.3,0.2-0.7,0.3-1.3c0-0.1,0.1-0.2,0.1-0.3l0.4-0.8c0.1-0.1,0.2-0.3,0.3-0.6l0.2-0.3l0.8-0.7l0.8-0.4l0.9-0.2h1.1l0.9,0.2
		c0.3,0.1,0.4,0.2,0.3,0.1l0.8,0.5l0.4,0.3l0.6,0.7l0.2,0.3c0.2,0.3,0.5,0.8,0.7,1.3c0,0,0,0.1,0.1,0.1c0,0.1,0.1,0.1,0.1,0.2
		s0,0.1,0,0.1c0,0,0,0.1,0.1,0.1l0.2,0.7c0.2,0.5,0.3,0.8,0.3,1.2l0.2,1.1l0.1,1.1c0,0.5,0,0.9,0,1.4c0,0.2,0,0.4,0,0.5l0,0.4
		c0,0.3-0.1,0.7-0.3,1.2l-0.2,0.6c0,0.1-0.1,0.2-0.1,0.3c0,0.1-0.1,0.2-0.1,0.2c0,0.1-0.1,0.2-0.2,0.3l-0.4,0.6l-0.1,0.1
		c-0.2,0.2-0.3,0.4-0.4,0.5c-0.1,0.1-0.2,0.2-0.2,0.2l-0.2,0.2l-0.8,0.4l-0.4,0.1c-0.3,0.1-0.5,0.2-0.8,0.2l-0.8,0.1
		c-0.3,0-0.6,0-0.8,0l-0.8-0.2l-0.6-0.2c-0.2-0.1-0.4-0.2-0.6-0.3c0,0,0,0-0.1-0.1l-0.4-0.3c-0.2-0.2-0.4-0.4-0.5-0.5L226.8,23z"/>
	<path class="st0" d="M250.6,23.6l-1.2,0.7l-0.1,0.1v0l-0.4,0.1c-0.3,0.1-0.4,0.1-0.6,0.2l-0.6,0.1l-0.6,0.1c-0.2,0-0.4,0-0.5,0
		c-0.2,0-0.3,0-0.4,0l-0.3,0c-0.3-0.1-0.6-0.1-0.8-0.2c-0.1,0-0.2,0-0.3,0l-1-0.6c0,0,0,0-0.1,0l-0.1,0l-0.2-0.2
		c-0.2-0.2-0.3-0.3-0.5-0.5l-0.2-0.2c0,0,0,0,0-0.1l-0.1-0.2c-0.3-0.5-0.6-0.9-0.7-1.2c-0.1-0.1-0.2-0.3-0.3-0.5l-0.2-0.6
		c-0.3-0.7-0.4-1.5-0.6-2.3l-0.1-0.8c0.6,0,1.5,0,2.7,0c2.7,0,4.7-0.1,6-0.1c0.7,0,1.8,0,3.3,0c0.5,0,0.7-0.3,0.7-0.7
		c0-0.4,0-0.7,0-0.8c-0.1-0.8-0.3-1.6-0.4-2.2c-0.7-2.2-1.9-3.7-3.7-4.5c-1.2-0.5-2.4-0.7-3.8-0.5c-0.7,0.1-1.4,0.3-2,0.5
		c-0.4,0.2-0.9,0.5-1.4,0.9c-1.3,1-2.1,2.6-2.5,4.7c-0.2,0.9-0.3,1.6-0.2,2.2c0.1,1.4,0.3,2.6,0.8,3.9c0.7,2.2,1.9,3.8,3.5,4.8
		c1.4,0.8,3,1.1,4.8,0.7c0.9-0.2,1.8-0.5,2.5-0.9c1.1-0.7,1.9-1.7,2.3-2.9c0.1-0.3,0.2-0.7,0.3-1c0.1-0.4-0.1-0.7-0.5-0.9
		c-0.2,0-0.4,0-0.5,0.1c-0.2,0.1-0.3,0.3-0.3,0.4c-0.1,0.4-0.2,0.8-0.3,1l-0.1,0.3c-0.1,0.2-0.2,0.4-0.2,0.4c0,0.1-0.1,0.2-0.2,0.3
		L250.6,23.6z M248.7,10c0.1,0,0.3,0.1,0.3,0.2l0.7,0.4l0.1,0.1h0.1l0.3,0.3c0.2,0.1,0.3,0.3,0.5,0.5l0,0v0h0v0l0.1,0.1l0.5,0.9
		c0.1,0.2,0.1,0.3,0.1,0.3c0,0,0.1,0.1,0.1,0.1c0,0,0,0.1,0,0.1l0.4,1.1c0.1,0.3,0.2,0.6,0.2,0.9l0.1,0.6c-1.1,0-1.9,0-2.5,0
		c-1.3,0-3.3,0-6.1,0.1c-1.2,0-2.1,0-2.7,0l0.2-0.9c0-0.3,0.1-0.7,0.3-1.1l0.2-0.6c0,0,0-0.1,0-0.1v0l0,0l0.1-0.3
		c0.1-0.2,0.3-0.6,0.6-1.1l0,0l0,0l0.4-0.4l0.6-0.6c0,0,0,0,0.1,0c0.1-0.1,0.2-0.1,0.3-0.2c0.1-0.1,0.2-0.1,0.3-0.2c0,0,0,0,0.1,0
		l0.1-0.1l0,0c0.4-0.2,0.7-0.2,0.8-0.3l0.5-0.1l1.3,0l0.8,0.1c0.4,0.1,0.7,0.2,0.8,0.2l0.1,0C248.6,10,248.6,10,248.7,10L248.7,10z
		 M250.6,11.5L250.6,11.5L250.6,11.5L250.6,11.5z"/>
	<path class="st0" d="M264.8,17.3c0.1,0,0.4,0.1,0.8,0.2l0,8.1c0,0.3,0.2,0.5,0.5,0.5c0.3,0,0.5-0.2,0.5-0.5c0-0.3,0-0.7,0-1.3
		l0-15.6c0-0.3-0.1-0.5-0.5-0.5c-0.3,0-0.5,0.1-0.5,0.5l0,7.8c-0.3-0.1-0.8-0.1-1.5-0.2c-0.8,0-1.6,0-2.5,0
		c-1.5,0.1-3.1,0.3-4.7,0.6c-0.2,0-0.3,0.1-0.4,0.1l0-8.4c0-0.3-0.1-0.5-0.5-0.5c-0.3,0-0.5,0.1-0.5,0.5l0,8.7
		c-0.1,0.1-0.1,0.2-0.1,0.4c0,0.1,0,0.1,0.1,0.2l0,7.6c0,0.3,0.2,0.5,0.5,0.5c0.3,0,0.5-0.2,0.5-0.5c0-0.3,0-0.7,0-1.3l0-6.2
		c0.7-0.2,1.4-0.3,2.1-0.4l0.3,0c0.1,0,0.2,0,0.3,0l1.8-0.2c0.9-0.1,1.7-0.1,2.6-0.1l0.4,0c0.2,0,0.3,0,0.3,0L264.8,17.3z
		 M264.7,17.3c0,0,0,0,0.1,0L264.7,17.3z"/>
	<path class="st0" d="M277.9,17.3c0.1,0,0.4,0.1,0.8,0.2l0,8.1c0,0.3,0.2,0.5,0.5,0.5c0.3,0,0.5-0.2,0.5-0.5c0-0.3,0-0.7,0-1.3
		l0-15.6c0-0.3-0.1-0.5-0.5-0.5c-0.3,0-0.5,0.1-0.5,0.5l0,7.8c-0.3-0.1-0.8-0.1-1.5-0.2c-0.8,0-1.6,0-2.5,0
		c-1.5,0.1-3.1,0.3-4.7,0.6c-0.2,0-0.3,0.1-0.4,0.1l0-8.4c0-0.3-0.1-0.5-0.5-0.5c-0.3,0-0.5,0.1-0.5,0.5l0,8.7
		c-0.1,0.1-0.1,0.2-0.1,0.4c0,0.1,0,0.1,0.1,0.2l0,7.6c0,0.3,0.2,0.5,0.5,0.5c0.3,0,0.5-0.2,0.5-0.5c0-0.3,0-0.7,0-1.3l0-6.2
		c0.7-0.2,1.4-0.3,2.1-0.4l0.3,0c0.1,0,0.2,0,0.3,0l1.8-0.2c0.9-0.1,1.7-0.1,2.6-0.1l0.4,0c0.2,0,0.3,0,0.3,0L277.9,17.3z
		 M277.8,17.3c0,0,0,0,0.1,0L277.8,17.3z"/>
	<path class="st0" d="M295,17.2c0-0.9-0.1-1.9-0.3-3c-0.5-2.2-1.5-3.8-2.9-4.9c-0.9-0.7-1.9-1-3.2-1.1c-1.3-0.1-2.5,0.2-3.6,0.8
		c-1.6,0.8-2.6,2.4-3.1,4.7c-0.2,1.2-0.3,2.2-0.2,3.3c0.2,1.4,0.3,2.3,0.5,3c0.6,2.3,1.7,4,3.1,5.1c0.9,0.7,2,1.1,3.2,1.1
		c1.3,0.1,2.4-0.2,3.3-0.8c1.5-0.9,2.4-2.6,2.9-4.9C295,19.3,295.1,18.3,295,17.2L295,17.2z M285.2,10.5c0.2-0.2,0.4-0.3,0.6-0.3
		l0.6-0.2c0.3-0.1,0.5-0.2,0.8-0.2l0.4,0c0.2,0,0.4,0,0.5,0c0.2,0,0.4,0,0.8,0.1c0.1,0,0.2,0,0.2,0c0.1,0,0.2,0,0.2,0l0.4,0.1
		l0.4,0.2h0l0.2,0.1c0.1,0,0.3,0.1,0.6,0.3c0,0,0,0,0.1,0l0.4,0.3c0.2,0.2,0.4,0.4,0.5,0.5l0.3,0.4c0.2,0.3,0.3,0.4,0.3,0.6
		c0.1,0.2,0.2,0.4,0.3,0.6v0c0,0,0,0.1,0.1,0.1l0.1,0.3c0.3,0.8,0.4,1.5,0.6,2.3v0.2l0.1,0.6v0.9c0,0.3,0,0.5,0,0.8
		c0,0.2,0,0.5-0.1,1c0,0,0,0.1,0,0.2v0.1h0l-0.1,0.8c-0.1,0.4-0.2,0.8-0.3,1.3l-0.5,1.1c-0.1,0.1-0.2,0.3-0.3,0.6l-0.3,0.4l-0.4,0.4
		l-0.5,0.3l-0.5,0.3l-1,0.2c-0.2,0-0.3,0-0.4,0l-0.8,0l-1-0.3v0l-0.3-0.1l-0.8-0.5c0,0,0,0-0.1-0.1l-0.9-0.9c0,0,0-0.1-0.1-0.1
		l-0.1-0.1c-0.2-0.3-0.5-0.8-0.7-1.3c0,0,0-0.1-0.1-0.2l-0.4-1c-0.2-0.5-0.3-0.8-0.3-1.2l-0.2-1.1l-0.1-0.3v-0.1v-0.1l0,0.1h0v-0.1
		l0-0.4c0-0.1,0-0.2,0-0.3c0-0.5,0-0.9,0-1.4c0-0.2,0-0.4,0-0.5l0-0.4l0,0h0c0-0.3,0.1-0.7,0.3-1.1l0.2-0.6l0.1-0.3
		c0-0.1,0.1-0.2,0.1-0.2l0.6-1l0,0c0.2-0.2,0.3-0.4,0.4-0.5c0.1,0,0.2-0.1,0.2-0.2l0.1-0.1L285.2,10.5z M293.5,19.4
		C293.5,19.4,293.5,19.4,293.5,19.4L293.5,19.4L293.5,19.4z M285.1,10.6L285.1,10.6L285.1,10.6C285.1,10.7,285.1,10.7,285.1,10.6z
		 M286,23.8C286,23.8,286,23.8,286,23.8C286,23.8,286,23.8,286,23.8z M293.5,15.9L293.5,15.9L293.5,15.9z"/>
	<path class="st0" d="M298.8,10.4c2.8,0,5,0.1,6.7,0.2c0.5,0,0.7-0.3,0.7-0.7c0-0.5-0.2-0.7-0.7-0.7C304.2,9,303.1,9,302.2,9
		c-0.9,0-2,0-3.5,0c0-0.5-0.2-0.7-0.7-0.7c-0.5,0-0.7,0.2-0.7,0.7v16.6c0,0.4,0.3,0.7,0.7,0.7c0.5,0,0.7-0.3,0.7-0.7v-7.9
		c0,0,0-0.1,0-0.1C298.8,17.6,298.8,15.2,298.8,10.4z"/>
	<path class="st0" d="M320.6,17.2c0-0.9-0.1-1.9-0.3-3c-0.5-2.2-1.5-3.8-2.9-4.9c-0.9-0.7-1.9-1-3.2-1.1c-1.3-0.1-2.5,0.2-3.6,0.8
		c-1.6,0.8-2.6,2.4-3.1,4.7c-0.2,1.2-0.3,2.2-0.2,3.3c0.2,1.4,0.3,2.3,0.5,3c0.6,2.3,1.7,4,3.1,5.1c0.9,0.7,2,1.1,3.2,1.1
		c1.3,0.1,2.4-0.2,3.3-0.8c1.5-0.9,2.4-2.6,2.9-4.9C320.6,19.3,320.7,18.3,320.6,17.2L320.6,17.2z M310.8,10.5
		c0.2-0.2,0.4-0.3,0.6-0.3l0.6-0.2c0.3-0.1,0.5-0.2,0.8-0.2l0.4,0c0.2,0,0.4,0,0.5,0c0.2,0,0.4,0,0.8,0.1c0.1,0,0.2,0,0.2,0
		c0.1,0,0.2,0,0.2,0l0.4,0.1l0.4,0.2h0l0.2,0.1c0.1,0,0.3,0.1,0.6,0.3c0,0,0,0,0.1,0l0.4,0.3c0.2,0.2,0.4,0.4,0.5,0.5l0.3,0.4
		c0.2,0.3,0.3,0.4,0.3,0.6c0.1,0.2,0.2,0.4,0.3,0.6v0c0,0,0,0.1,0.1,0.1l0.1,0.3c0.3,0.8,0.4,1.5,0.6,2.3v0.2l0.1,0.6v0.9
		c0,0.3,0,0.5,0,0.8c0,0.2,0,0.5-0.1,1c0,0,0,0.1,0,0.2v0.1h0l-0.1,0.8c-0.1,0.4-0.2,0.8-0.3,1.3l-0.5,1.1c-0.1,0.1-0.2,0.3-0.3,0.6
		l-0.3,0.4l-0.4,0.4l-0.5,0.3l-0.5,0.3l-1,0.2c-0.2,0-0.3,0-0.4,0l-0.8,0l-1-0.3v0l-0.3-0.1l-0.8-0.5c0,0,0,0-0.1-0.1l-0.9-0.9
		c0,0,0-0.1-0.1-0.1l-0.1-0.1c-0.2-0.3-0.5-0.8-0.7-1.3c0,0,0-0.1-0.1-0.2l-0.4-1c-0.2-0.5-0.3-0.8-0.3-1.2l-0.2-1.1l-0.1-0.3v-0.1
		v-0.1l0,0.1h0v-0.1l0-0.4c0-0.1,0-0.2,0-0.3c0-0.5,0-0.9,0-1.4c0-0.2,0-0.4,0-0.5l0-0.4l0,0h0c0-0.3,0.1-0.7,0.3-1.1l0.2-0.6
		l0.1-0.3c0-0.1,0.1-0.2,0.1-0.2l0.6-1l0,0c0.2-0.2,0.3-0.4,0.4-0.5c0.1,0,0.2-0.1,0.2-0.2l0.1-0.1L310.8,10.5z M319.1,19.4
		C319.1,19.4,319.1,19.4,319.1,19.4L319.1,19.4L319.1,19.4z M310.7,10.6L310.7,10.6L310.7,10.6C310.7,10.7,310.7,10.7,310.7,10.6z
		 M311.6,23.8C311.6,23.8,311.6,23.8,311.6,23.8C311.6,23.8,311.6,23.8,311.6,23.8z M319.1,15.9L319.1,15.9L319.1,15.9z"/>
	<path class="st0" d="M341.1,8.3c-0.4,0-0.7,0.2-0.7,0.7c0,0.5,0,1.3,0.1,2.4c0.1,1.9,0.2,3.7,0.5,5.4c0.1,0.8,0.3,1.6,0.5,2.4
		c-0.2,0.7-0.4,1.4-0.7,2.1l-0.2,0.5c-0.1,0.2-0.2,0.4-0.3,0.6c-0.1,0.3-0.3,0.7-0.6,1.1l-0.1,0.2l-0.8,0.8l-0.6,0.3
		c0,0-0.1,0-0.1,0l-0.4,0.1l-0.7,0.1c0,0-0.1,0-0.2,0l-0.1,0l-0.6-0.2c0,0-0.1,0-0.2-0.1l-0.5-0.4c0,0-0.1-0.1-0.2-0.2l-0.5-0.5
		c0,0-0.1-0.1-0.2-0.3c-0.2-0.3-0.4-0.7-0.6-1.1l-0.2-0.3l-0.3-0.8c-0.2-0.6-0.3-1-0.4-1.4c-0.2-0.8-0.4-1.8-0.6-2.9
		c0,0,0-0.1,0-0.2l-0.2-1.8c0-0.3-0.1-0.5-0.1-0.7c-0.1-1.1-0.1-1.9-0.2-2.5V9.2c0-0.5-0.3-0.7-0.7-0.7c-0.5,0-0.7,0.2-0.7,0.7
		c0,0.1,0,0.3,0,0.5c0,1.2,0.1,2.5,0.2,4c0.2,2.3,0.5,4.2,0.9,5.9c0.6,2.2,1.3,3.9,2.3,5c0.6,0.7,1.3,1.1,2,1.4
		c0.8,0.3,1.6,0.3,2.4,0c1.4-0.5,2.5-1.7,3.4-3.6c0.2-0.3,0.3-0.7,0.3-0.9l0.4,0.9c0.9,1.9,2,3.1,3.4,3.6c0.8,0.3,1.6,0.3,2.4,0
		c0.8-0.3,1.4-0.7,2-1.4c0.8-0.8,1.4-2.1,1.9-3.6v4.5c0,0.4,0.3,0.7,0.7,0.7c0.5,0,0.7-0.3,0.7-0.7V11.7c0-0.4,0-1.1,0-1.9
		c0-0.2,0-0.4,0-0.5c0-0.5-0.2-0.7-0.7-0.7c-0.5,0-0.7,0.2-0.7,0.7v2.4c0,0.5-0.1,1.4-0.2,2.5c0,0.1,0,0.3-0.1,0.7l-0.3,2
		c-0.2,1.1-0.4,2-0.6,2.9c-0.1,0.3-0.2,0.8-0.4,1.4l-0.3,0.8l-0.2,0.3c-0.2,0.4-0.4,0.8-0.6,1.1c-0.1,0.2-0.2,0.2-0.2,0.3l-0.5,0.5
		c-0.1,0.1-0.2,0.1-0.2,0.2l-0.2,0.2l-0.6,0.3l-0.6,0.2c0,0-0.1,0-0.1,0c-0.1,0-0.2,0-0.2,0l-0.7-0.1c-0.1,0-0.2,0-0.3,0l-0.8-0.4
		c0,0,0-0.1-0.1-0.1l-0.8-0.7v-0.1c0,0,0,0,0-0.1c0,0,0-0.1-0.1-0.1c-0.3-0.4-0.5-0.8-0.6-1.1c-0.1-0.2-0.2-0.4-0.3-0.6l-0.2-0.5
		c-0.3-0.8-0.6-1.7-0.8-2.8c0-0.2-0.1-0.4-0.1-0.7l-0.3-2c-0.1-0.6-0.2-1.5-0.3-2.7c-0.1-1.4-0.2-2.5-0.2-3.6V9
		C341.8,8.5,341.6,8.3,341.1,8.3z"/>
	<path class="st0" d="M369.3,17.2c0-0.9-0.1-1.9-0.3-3c-0.5-2.2-1.5-3.8-2.9-4.9c-0.9-0.7-1.9-1-3.2-1.1c-1.3-0.1-2.5,0.2-3.6,0.8
		c-1.6,0.8-2.6,2.4-3.1,4.7c-0.2,1.2-0.3,2.2-0.2,3.3c0.2,1.4,0.3,2.3,0.5,3c0.6,2.3,1.7,4,3.1,5.1c0.9,0.7,2,1.1,3.2,1.1
		c1.3,0.1,2.4-0.2,3.3-0.8c1.5-0.9,2.4-2.6,2.9-4.9C369.3,19.3,369.4,18.3,369.3,17.2L369.3,17.2z M359.6,10.5
		c0.2-0.2,0.4-0.3,0.6-0.3l0.6-0.2c0.3-0.1,0.5-0.2,0.8-0.2l0.4,0c0.2,0,0.4,0,0.5,0c0.2,0,0.4,0,0.8,0.1c0.1,0,0.2,0,0.2,0
		c0.1,0,0.2,0,0.2,0l0.4,0.1l0.4,0.2h0l0.2,0.1c0.1,0,0.3,0.1,0.6,0.3c0,0,0,0,0.1,0l0.4,0.3c0.2,0.2,0.4,0.4,0.5,0.5l0.3,0.4
		c0.2,0.3,0.3,0.4,0.3,0.6c0.1,0.2,0.2,0.4,0.3,0.6v0c0,0,0,0.1,0.1,0.1l0.1,0.3c0.3,0.8,0.4,1.5,0.6,2.3v0.2l0.1,0.6v0.9
		c0,0.3,0,0.5,0,0.8c0,0.2,0,0.5-0.1,1c0,0,0,0.1,0,0.2v0.1h0l-0.1,0.8c-0.1,0.4-0.2,0.8-0.3,1.3l-0.5,1.1c-0.1,0.1-0.2,0.3-0.3,0.6
		l-0.3,0.4l-0.4,0.4l-0.5,0.3l-0.5,0.3l-1,0.2c-0.2,0-0.3,0-0.4,0l-0.8,0l-1-0.3v0l-0.3-0.1l-0.8-0.5c0,0,0,0-0.1-0.1l-0.9-0.9
		c0,0,0-0.1-0.1-0.1l-0.1-0.1c-0.2-0.3-0.5-0.8-0.7-1.3c0,0,0-0.1-0.1-0.2l-0.4-1c-0.2-0.5-0.3-0.8-0.3-1.2l-0.2-1.1l-0.1-0.3v-0.1
		v-0.1l0,0.1h0v-0.1l0-0.4c0-0.1,0-0.2,0-0.3c0-0.5,0-0.9,0-1.4c0-0.2,0-0.4,0-0.5l0-0.4l0,0h0c0-0.3,0.1-0.7,0.3-1.1l0.2-0.6
		l0.1-0.3c0-0.1,0.1-0.2,0.1-0.2l0.6-1l0,0c0.2-0.2,0.3-0.4,0.4-0.5c0.1,0,0.2-0.1,0.2-0.2l0.1-0.1L359.6,10.5z M367.8,19.4
		C367.8,19.4,367.8,19.4,367.8,19.4L367.8,19.4L367.8,19.4z M359.4,10.6L359.4,10.6L359.4,10.6C359.4,10.7,359.4,10.7,359.4,10.6z
		 M360.3,23.8C360.3,23.8,360.3,23.8,360.3,23.8C360.3,23.8,360.3,23.8,360.3,23.8z M367.8,15.9L367.8,15.9L367.8,15.9z"/>
	<path class="st0" d="M384.2,26.2c0.4,0,0.7-0.2,0.7-0.7c0-0.5,0-1.3-0.1-2.4c-0.1-1.9-0.2-3.7-0.5-5.4c-0.4-2.3-0.9-4.2-1.5-5.7
		c-0.9-1.9-2-3.1-3.4-3.6c-0.8-0.3-1.6-0.3-2.4,0c-0.8,0.2-1.4,0.7-2,1.4c-0.8,0.8-1.4,2.1-1.9,3.6V9c0-0.4-0.3-0.7-0.7-0.7
		c-0.5,0-0.7,0.3-0.7,0.7v13.8c0,0.4,0,1.1,0,1.9c0,0.2,0,0.4,0,0.5c0,0.5,0.2,0.7,0.7,0.7c0.5,0,0.7-0.2,0.7-0.7v-2.4
		c0-0.5,0.1-1.4,0.2-2.5c0-0.2,0-0.4,0.1-0.7l0.3-2c0.2-1.1,0.4-2.1,0.6-2.9c0.1-0.3,0.2-0.8,0.4-1.4l0.3-0.8l0.2-0.3
		c0.2-0.4,0.4-0.8,0.6-1.1c0.1-0.2,0.2-0.2,0.2-0.3l0.5-0.5c0.1-0.1,0.2-0.1,0.2-0.2l0.2-0.2l0.6-0.3l0.5-0.1c0,0,0.1,0,0.1,0
		c0.1,0,0.2,0,0.2,0l0.7,0.1c0.1,0,0.2,0,0.3,0.1l0.1,0l0.7,0.4l0.8,0.8v0.1c0,0,0,0,0.1,0.1c0,0,0,0,0,0.1c0.3,0.4,0.5,0.8,0.6,1.1
		c0.1,0.2,0.2,0.4,0.3,0.6l0.2,0.5c0.3,0.8,0.6,1.7,0.8,2.8c0,0.2,0.1,0.4,0.2,0.7l0.3,2c0.1,0.6,0.2,1.5,0.3,2.7
		c0.1,1.3,0.2,2.5,0.2,3.6v0.3C383.5,26,383.7,26.2,384.2,26.2z"/>
	<path class="st0" d="M386.9,25.4c0,0.4,0.3,0.7,0.7,0.7c0.5,0,0.7-0.3,0.7-0.7V9c0-0.5-0.2-0.7-0.7-0.7c-0.5,0-0.7,0.2-0.7,0.7
		V25.4z M386.8,7c0.2,0.2,0.5,0.3,0.8,0.3c0.7,0,1.1-0.4,1.1-1.1c0-0.3-0.1-0.6-0.3-0.8c-0.2-0.2-0.5-0.3-0.8-0.3
		c-0.7,0-1,0.4-1.1,1.1C386.5,6.5,386.6,6.8,386.8,7z"/>
	<path class="st0" d="M399.7,17.3c0.1,0,0.4,0.1,0.8,0.2l0,8.1c0,0.3,0.2,0.5,0.5,0.5c0.3,0,0.5-0.2,0.5-0.5c0-0.3,0-0.7,0-1.3
		l0-15.6c0-0.3-0.1-0.5-0.5-0.5c-0.3,0-0.5,0.1-0.5,0.5l0,7.8c-0.3-0.1-0.8-0.1-1.5-0.2c-0.8,0-1.6,0-2.5,0
		c-1.5,0.1-3.1,0.3-4.7,0.6c-0.2,0-0.3,0.1-0.4,0.1l0-8.4c0-0.3-0.1-0.5-0.5-0.5c-0.3,0-0.5,0.1-0.5,0.5l0,8.7
		c-0.1,0.1-0.1,0.2-0.1,0.4c0,0.1,0,0.1,0.1,0.2l0,7.6c0,0.3,0.2,0.5,0.5,0.5c0.3,0,0.5-0.2,0.5-0.5c0-0.3,0-0.7,0-1.3l0-6.2
		c0.7-0.2,1.4-0.3,2.1-0.4l0.3,0c0.1,0,0.2,0,0.3,0l1.8-0.2c0.9-0.1,1.7-0.1,2.6-0.1l0.4,0c0.2,0,0.3,0,0.3,0L399.7,17.3z
		 M399.6,17.3c0,0,0,0,0.1,0L399.6,17.3z"/>
	<path class="st0" d="M405.2,10.4c2.8,0,5,0.1,6.7,0.2c0.5,0,0.7-0.3,0.7-0.7c0-0.5-0.2-0.7-0.7-0.7C410.6,9,409.5,9,408.6,9
		c-0.9,0-2,0-3.5,0c0-0.5-0.2-0.7-0.7-0.7c-0.5,0-0.7,0.2-0.7,0.7v16.6c0,0.4,0.3,0.7,0.7,0.7c0.5,0,0.7-0.3,0.7-0.7v-7.9
		c0,0,0-0.1,0-0.1C405.1,17.6,405.1,15.2,405.2,10.4z"/>
	<path class="st0" d="M413.8,8.2c-0.4,0-0.7,0.2-0.7,0.7c0,0.5,0,1.3,0.1,2.4c0.1,1.9,0.2,3.7,0.5,5.4c0.4,2.3,0.9,4.2,1.5,5.7
		c0.9,1.9,2,3.1,3.4,3.6c0.8,0.3,1.6,0.3,2.4,0c0.8-0.2,1.4-0.7,2-1.4c0.8-0.8,1.4-2.1,1.9-3.6v4.5l-0.1,1.1l-0.2,0.9
		c-0.1,0.3-0.2,0.7-0.3,1.1c0,0,0,0,0,0.1c0,0,0,0.1,0,0.1l-0.1,0.3c0,0.1-0.1,0.2-0.2,0.3l-0.3,0.6c0,0,0,0.1-0.1,0.1l-0.1,0
		l-0.4,0.5c-0.1,0.1-0.2,0.2-0.3,0.2l-0.2,0.1l0,0v0l-0.6,0.3c-0.1,0.1-0.2,0.1-0.3,0.2l-0.1,0l0,0l-0.1,0l0,0v0l-0.1,0.1
		c-0.4,0.1-0.7,0.2-0.8,0.2l-0.4,0.1l-0.2,0c-0.2,0-0.5,0-0.8,0c-0.5,0-0.7,0.2-0.7,0.7c0,0.4,0.2,0.7,0.7,0.7
		c1.3,0,2.6-0.3,3.6-0.8c0.9-0.5,1.6-1.2,2.2-2.1c0.7-1.2,1.2-2.7,1.3-4.4V11.7c0-0.4,0-1.1,0-1.9c0-0.2,0-0.4,0-0.5
		c0-0.5-0.2-0.7-0.7-0.7c-0.5,0-0.7,0.2-0.7,0.7v2.5c0,0.5-0.1,1.3-0.2,2.3c0,0.2,0,0.4-0.1,0.7l-0.2,1.8c0,0.1,0,0.2,0,0.2
		c-0.2,1.1-0.4,2.1-0.6,2.9c-0.1,0.3-0.2,0.8-0.4,1.4l-0.3,0.8l-0.2,0.3c-0.2,0.4-0.4,0.8-0.6,1.1c-0.1,0.2-0.2,0.2-0.2,0.3
		l-0.5,0.5c-0.1,0.1-0.2,0.1-0.2,0.2l-0.2,0.2l-0.3,0.2c-0.2,0.1-0.2,0.1-0.3,0.1l-0.6,0.2l-0.3,0c-0.1,0-0.2,0-0.3,0l-0.6-0.1
		c-0.1,0-0.1,0-0.2-0.1l-0.6-0.3c0,0-0.1,0-0.1-0.1l0,0c-0.1,0-0.2-0.1-0.2-0.2l-0.5-0.5v-0.1c0,0,0,0,0-0.1c0,0,0-0.1-0.1-0.1
		c-0.3-0.4-0.5-0.8-0.6-1.1c-0.1-0.2-0.2-0.4-0.3-0.6l-0.2-0.5c-0.3-0.8-0.6-1.7-0.8-2.8l-0.1-0.7c-0.1-0.3-0.1-0.6-0.2-0.7
		l-0.2-1.1c0-0.1,0-0.1,0-0.2v-0.1c-0.1-0.6-0.2-1.5-0.3-2.7c-0.1-1.3-0.2-2.5-0.2-3.6V8.9C414.6,8.5,414.3,8.2,413.8,8.2z
		 M424.3,28.8L424.3,28.8C424.3,28.8,424.3,28.8,424.3,28.8L424.3,28.8z M421.7,31.6L421.7,31.6L421.7,31.6z"/>
</g>
</svg>
