<?xml version="1.0" encoding="utf-8"?>
<!-- Generator: Adobe Illustrator 22.1.0, SVG Export Plug-In . SVG Version: 6.00 Build 0)  -->
<svg version="1.1" id="Layer_1" xmlns="http://www.w3.org/2000/svg" xmlns:xlink="http://www.w3.org/1999/xlink" x="0px" y="0px"
	 viewBox="0 0 301 51.5" style="enable-background:new 0 0 301 51.5;" xml:space="preserve">
<style type="text/css">
	.st0{fill:none;stroke:#FFFFFF;stroke-miterlimit:10;}
	.st1{fill:#FFFFFF;}
</style>
<path class="st0" d="M297.2,51H3.8c-1.8,0-3.3-1.5-3.3-3.3V3.8C0.5,2,2,0.5,3.8,0.5h293.3c1.8,0,3.3,1.5,3.3,3.3v43.8
	C300.5,49.5,299,51,297.2,51z"/>
<g>
	<path class="st1" d="M45.4,15.1v16.6l1.6,0.1l-0.2,6.4H45l-0.2-4.5H33.3l-0.2,4.5h-1.9l-0.2-6.4l1.4-0.1c0.7-1.3,1.4-2.6,1.8-4.1
		c0.6-2.2,0.9-4.6,0.9-7.8v-4.7H45.4z M37.4,20.6c0,3-0.3,5.5-0.9,7.6c-0.4,1.3-1,2.5-1.5,3.5h8.1V17.1h-5.7V20.6z"/>
	<path class="st1" d="M57.4,33.7l-0.2-1.7h-0.1c-0.7,1-2.2,2-4,2c-2.7,0-4-1.9-4-3.8c0-3.2,2.8-5,7.9-5V25c0-1.1-0.3-3.1-3-3.1
		c-1.2,0-2.5,0.4-3.4,1L50,21.3c1.1-0.7,2.7-1.2,4.3-1.2c4,0,5,2.8,5,5.5v5c0,1.2,0.1,2.3,0.2,3.2H57.4z M57,26.9
		c-2.6-0.1-5.6,0.4-5.6,3c0,1.6,1,2.3,2.3,2.3c1.7,0,2.8-1.1,3.2-2.2c0.1-0.2,0.1-0.5,0.1-0.8V26.9z"/>
	<path class="st1" d="M63.2,20.6c0.9-0.2,2.6-0.3,4.2-0.3c2.2,0,5.9,0.4,5.9,3.3c0,1.7-1.3,2.7-2.8,3v0.1c1.9,0.3,3.4,1.4,3.4,3.3
		c0,3.5-4.4,3.9-6.9,3.9c-1.5,0-3-0.1-3.7-0.2V20.6z M65.4,32.1c0.7,0.1,1.2,0.1,1.9,0.1c1.6,0,4-0.4,4-2.3c0-1.9-1.9-2.3-4.2-2.3
		h-1.7V32.1z M65.4,26h1.8c1.8,0,3.6-0.5,3.6-2.1c0-1.3-1.1-2-3.5-2c-0.8,0-1.3,0.1-1.9,0.1V26z"/>
	<path class="st1" d="M78.2,27.5c0.1,3.3,2.1,4.6,4.5,4.6c1.7,0,2.8-0.3,3.7-0.7l0.4,1.7c-0.8,0.4-2.3,0.8-4.4,0.8
		c-4.1,0-6.5-2.7-6.5-6.7s2.3-7.2,6.2-7.2c4.3,0,5.5,3.8,5.5,6.3c0,0.5-0.1,0.9-0.1,1.1H78.2z M85.2,25.8c0-1.5-0.6-3.9-3.3-3.9
		c-2.4,0-3.5,2.3-3.7,3.9H85.2z"/>
	<path class="st1" d="M100.8,20.4v11.5l1.4,0l-0.1,6h-1.9l-0.1-4.2h-9.1L90.8,38h-1.9l-0.1-6l1.1,0c0.6-0.9,1-1.8,1.3-2.7
		c0.5-1.7,0.8-3.4,0.8-5.3v-3.5H100.8z M94.1,24.4c0,1.8-0.2,3.5-0.7,5c-0.3,0.9-0.7,1.7-1.1,2.5h6.1v-9.7h-4.3V24.4z"/>
	<path class="st1" d="M112.3,33.7l-0.2-1.7H112c-0.7,1-2.2,2-4,2c-2.7,0-4-1.9-4-3.8c0-3.2,2.8-5,7.9-5V25c0-1.1-0.3-3.1-3-3.1
		c-1.2,0-2.5,0.4-3.4,1l-0.5-1.6c1.1-0.7,2.7-1.2,4.3-1.2c4,0,5,2.8,5,5.5v5c0,1.2,0.1,2.3,0.2,3.2H112.3z M112,26.9
		c-2.6-0.1-5.6,0.4-5.6,3c0,1.6,1,2.3,2.3,2.3c1.7,0,2.8-1.1,3.2-2.2c0.1-0.2,0.1-0.5,0.1-0.8V26.9z"/>
	<path class="st1" d="M120.3,20.4V26c0,2.1,0,3.4-0.1,5.4l0.1,0c0.8-1.6,1.3-2.6,2.1-4.1l4.1-6.9h2.8v13.3H127v-5.7
		c0-2.2,0.1-3.3,0.2-5.5h-0.1c-0.8,1.7-1.4,2.8-2.2,4.1c-1.3,2.1-2.7,4.6-4.1,7h-2.8V20.4H120.3z M121.9,15c0.1,1.2,0.7,2.1,1.7,2.1
		c1.2,0,1.7-0.9,1.9-2.1h1.7c-0.1,2.3-1.5,3.4-3.6,3.4c-2.4,0-3.3-1.5-3.4-3.4H121.9z"/>
	<path class="st1" d="M142.6,33.2c-0.6,0.3-2,0.8-3.8,0.8c-4,0-6.6-2.7-6.6-6.8c0-4.1,2.8-7.1,7.1-7.1c1.4,0,2.7,0.4,3.3,0.7
		l-0.5,1.9c-0.6-0.3-1.5-0.6-2.8-0.6c-3,0-4.7,2.3-4.7,5c0,3.1,2,5,4.6,5c1.4,0,2.3-0.4,2.9-0.7L142.6,33.2z"/>
	<path class="st1" d="M155.3,33.7h-2.4v-5.6h-1.8c-1,0-1.7,0.3-2.2,0.7c-1,0.8-1.3,2.5-1.9,3.8c-0.2,0.4-0.4,0.8-0.5,1.1H144
		c0.3-0.4,0.6-0.9,0.8-1.5c0.6-1.3,0.9-3,2.1-4c0.4-0.4,0.9-0.7,1.5-0.8v-0.1c-1.7-0.2-3.5-1.3-3.5-3.3c0-1.4,0.7-2.3,1.7-2.9
		c1.1-0.6,2.7-0.9,4.4-0.9c1.6,0,3.1,0.1,4.3,0.3V33.7z M152.9,22c-0.6-0.1-1.1-0.1-2-0.1c-1.6,0-3.6,0.5-3.6,2.3
		c0,1.7,2.1,2.3,3.5,2.3c1,0,1.5,0,2,0V22z"/>
	<path class="st1" d="M174.9,15.9c-0.7,0.2-1.9,0.5-2.8,0.6c-2.1,0.3-3.7,1-4.7,2.5c-0.8,1.2-1.3,3-1.4,4.4h0.1c0.8-1.9,2.7-3,4.6-3
		c3.2,0,5.6,2.3,5.6,6.6c0,4.4-2.2,7.1-6.1,7.1c-4.6,0-6.2-4.5-6.2-8.9c0-3,0.6-5.5,2-7.4c1.3-1.8,3.1-2.7,5.7-3.1
		c1.1-0.2,2.4-0.4,3.3-0.7L174.9,15.9z M170.2,22.2c-1.4,0-2.4,0.7-3,1.8c-0.4,0.8-0.7,1.8-0.7,2.8c0,2.2,1.1,5.4,3.7,5.4
		c2.6,0,3.6-2.6,3.6-5C173.9,25,173.1,22.2,170.2,22.2z"/>
	<path class="st1" d="M191.3,26.9c0,4.9-3.4,7.1-6.6,7.1c-3.6,0-6.3-2.6-6.3-6.9c0-4.5,2.9-7.1,6.5-7.1
		C188.7,20.1,191.3,22.9,191.3,26.9z M180.8,27.1c0,2.9,1.7,5.1,4,5.1c2.3,0,4-2.2,4-5.2c0-2.3-1.1-5.1-3.9-5.1
		C182,21.9,180.8,24.5,180.8,27.1z"/>
	<path class="st1" d="M204.3,20.4v13.3h-2.4V22.3h-4.5v3.5c0,3.8-0.4,6.3-2.1,7.4c-0.7,0.5-1.4,0.8-2.6,0.8l-0.2-1.9
		c0.5-0.1,1-0.3,1.3-0.6c1.2-0.9,1.4-2.8,1.4-5.8v-5.4H204.3z"/>
	<path class="st1" d="M210.5,20.4v4.5c0.5-0.1,1.5-0.1,2.2-0.1c3,0,6.1,0.9,6.1,4.5c0,1.4-0.5,2.3-1.4,3.1c-1.4,1.2-3.8,1.5-5.7,1.5
		c-1.3,0-2.6-0.1-3.5-0.2V20.4H210.5z M210.5,32.1c0.5,0.1,1,0.1,1.8,0.1c1.8,0,4.1-0.6,4.1-2.8c0-2.3-2.4-2.8-4.2-2.8
		c-0.6,0-1.2,0.1-1.7,0.1V32.1z"/>
	<path class="st1" d="M224.1,20.4v11.4h4.6V20.4h2.3v11.4h4.6V20.4h2.4v13.3h-16.3V20.4H224.1z"/>
</g>
</svg>
