<?xml version="1.0" encoding="utf-8"?>
<!-- Generator: Adobe Illustrator 22.1.0, SVG Export Plug-In . SVG Version: 6.00 Build 0)  -->
<svg version="1.1" id="Layer_1" xmlns="http://www.w3.org/2000/svg" xmlns:xlink="http://www.w3.org/1999/xlink" x="0px" y="0px"
	 viewBox="0 0 272 41.6" style="enable-background:new 0 0 272 41.6;" xml:space="preserve">
<style type="text/css">
	.st0{fill:#FFFFFF;}
</style>
<polygon class="st0" points="225.2,31.8 225,31.8 216,1.2 201.6,1.2 201.6,39.7 211.2,39.7 210.6,8.1 210.8,8.1 220.4,39.7 
	234.3,39.7 234.3,1.2 224.7,1.2 "/>
<polygon class="st0" points="41.6,1.2 34.4,40.1 44.9,40.1 50.2,4.8 50.5,4.8 55.6,40.1 66.1,40.1 58.9,1.2 "/>
<polygon class="st0" points="100.4,1.2 95.6,31 95.3,31 90.6,1.2 74.7,1.2 73.9,40.1 83.6,40.1 83.8,5.2 84,5.2 90.5,40.1 
	100.4,40.1 106.9,5.2 107.1,5.2 107.4,40.1 117.1,40.1 116.2,1.2 "/>
<path class="st0" d="M10.3,11.2c-0.2-0.8-0.1-1.6,0-2c0.3-1.2,1.1-2.6,3.6-2.6c2.3,0,3.6,1.4,3.6,3.5c0,0.7,0,2.4,0,2.4h9.7V9.8
	c0-8.5-7.6-9.8-13.1-9.8C7.1,0,1.5,2.3,0.5,8.6c-0.3,1.7-0.3,3.3,0.1,5.2c1.7,7.9,15.5,10.2,17.5,15.3c0.4,0.9,0.3,2.1,0.1,2.9
	c-0.3,1.3-1.2,2.6-3.8,2.6c-2.4,0-3.9-1.4-3.9-3.5l0-3.8H0v3C0,39,6.8,41.6,14.1,41.6c7,0,12.8-2.4,13.7-8.9c0.5-3.4,0.1-5.6,0-6.4
	C26.2,18.2,11.4,15.8,10.3,11.2z"/>
<path class="st0" d="M136.8,11.3c-0.2-0.8-0.1-1.6,0-2c0.3-1.2,1.1-2.6,3.5-2.6c2.3,0,3.6,1.4,3.6,3.5c0,0.7,0,2.4,0,2.4h9.6V9.9
	c0-8.4-7.5-9.7-13-9.7c-6.8,0-12.4,2.2-13.5,8.5c-0.3,1.7-0.3,3.2,0.1,5.2c1.7,7.9,15.3,10.2,17.3,15.1c0.4,0.9,0.3,2.1,0.1,2.9
	c-0.3,1.3-1.2,2.6-3.8,2.6c-2.4,0-3.9-1.4-3.9-3.5l0-3.7h-10.3l0,3c0,8.6,6.8,11.2,14,11.2c7,0,12.7-2.4,13.6-8.8
	c0.5-3.3,0.1-5.5,0-6.3C152.5,18.2,137.9,15.9,136.8,11.3z"/>
<path class="st0" d="M180.9,30c0,0.5,0,1.1-0.1,1.5c-0.2,1-1,2.8-3.7,2.8c-2.7,0-3.5-1.8-3.7-2.8c-0.1-0.4-0.1-1-0.1-1.5V1.2h-9.8
	v27.9c0,0.7,0.1,2.2,0.1,2.6c0.7,7.2,6.4,9.6,13.6,9.6c7.2,0,12.9-2.3,13.6-9.6c0-0.4,0.1-1.9,0.1-2.6V1.2h-9.9V30z"/>
<path class="st0" d="M258.3,24h4v5.6c0,0.5,0,1-0.1,1.5c-0.2,1-1.2,2.8-4,2.8c-2.8,0-3.8-1.8-4-2.8c-0.1-0.4-0.1-1-0.1-1.5V11.8
	c0-0.6,0-1.3,0.2-1.8c0.2-1,1-2.8,3.9-2.8c3,0,3.7,2,3.9,2.8c0.1,0.5,0.1,1.5,0.1,1.5v2.2h9.8v-1.3c0,0,0-1.3-0.1-2.5
	c-0.7-7.3-6.8-9.6-13.7-9.6c-6.9,0-12.8,2.3-13.6,9.6c-0.1,0.6-0.2,1.8-0.2,2.5l0,16.4c0,0.7,0,1.3,0.1,2.6
	c0.6,7.1,6.8,9.6,13.7,9.6c6.9,0,13-2.5,13.7-9.6c0.1-1.3,0.1-1.8,0.1-2.6V18.3h-13.8V24z"/>
</svg>
