<?xml version="1.0" encoding="utf-8"?>
<!-- Generator: Adobe Illustrator 24.1.3, SVG Export Plug-In . SVG Version: 6.00 Build 0)  -->
<svg version="1.1" id="Слой_1" xmlns="http://www.w3.org/2000/svg" xmlns:xlink="http://www.w3.org/1999/xlink" x="0px" y="0px"
	 viewBox="0 0 287.8 81" style="enable-background:new 0 0 287.8 81;" xml:space="preserve">
<g>
	<path d="M7.1,2.5c-1.7,0-3,1.5-4,4.6s-1.5,7.3-1.5,12.8c0,3.5,0.2,6.6,0.7,9.2s1.1,4.6,2,6s1.9,2.1,3,2.1c1.2,0,2.2-0.4,3-1.1v2.4
		c-0.8,0.8-1.8,1.2-3.1,1.2c-1.4,0-2.7-0.8-3.7-2.4S1.6,33.4,1,30.4s-1-6.5-1-10.6c0-6.2,0.6-11,1.9-14.5S4.9,0,7.1,0
		c1.4,0,2.6,0.5,3.6,1.6L10,3.9C9.2,3,8.2,2.5,7.1,2.5z"/>
	<path d="M21.6,39.2l-2-14h-5.4l-1.9,14h-1.6l5.4-38.6h1.5l5.5,38.6H21.6z M19.3,22.6l-2-14.4c-0.2-1.6-0.4-3.1-0.5-4.6
		c-0.1,1.5-0.2,3.1-0.4,4.6l-1.9,14.4H19.3z"/>
	<path d="M32.2,39.2l-6-35.1h-0.1c0.1,3.7,0.2,6,0.2,7v28.1h-1.4V0.6h2.2l5,29.5c0.5,2.6,0.7,4.8,0.9,6.7h0.1c0.1-1.3,0.4-3.5,1-6.6
		l5-29.6h2.3v38.6h-1.5V11.3c0-1.1,0.1-3.5,0.2-7.2H40l-5.9,35.1C34.1,39.2,32.2,39.2,32.2,39.2z"/>
	<path d="M57.6,19.8c0,6.4-0.6,11.3-1.7,14.7s-2.7,5.1-4.8,5.1s-3.7-1.7-4.8-5.2s-1.6-8.4-1.6-14.7c0-6.7,0.5-11.6,1.6-14.9
		s2.7-4.9,4.9-4.9c2.1,0,3.7,1.7,4.8,5.1C57.1,8.6,57.6,13.5,57.6,19.8z M46.3,19.8c0,5.7,0.4,10.1,1.2,13s2,4.4,3.6,4.4
		s2.8-1.5,3.7-4.4c0.8-2.9,1.2-7.2,1.2-13c0-5.7-0.4-10-1.2-12.9s-2-4.4-3.6-4.4S48.3,4,47.5,6.9C46.7,9.9,46.3,14.2,46.3,19.8z"/>
	<path d="M70.4,39.2h-1.5V3.1h-4.4l-0.6,12.6c-0.4,9.1-0.8,14.9-1.1,17.3s-0.7,4.1-1.2,5.1s-1.2,1.5-2.2,1.5c-0.5,0-0.9-0.2-1.2-0.5
		v-2.4c0.2,0.3,0.6,0.4,1.1,0.4c0.3,0,0.6-0.1,0.9-0.3c0.2-0.2,0.4-0.7,0.6-1.3c0.2-0.7,0.4-1.6,0.5-2.8s0.3-2.9,0.4-4.9
		c0.1-2,0.6-11,1.4-27.1h7.2L70.4,39.2L70.4,39.2z"/>
	<path d="M74.5,39.2V0.6H76v38.6C76,39.2,74.5,39.2,74.5,39.2z"/>
	<path d="M81.6,19.2L88,0.6h1.6l-6.4,18.6l6.9,20h-1.7l-6.7-19.7v19.7h-1.5V0.6h1.5v18.6H81.6z"/>
	<path d="M94.1,27.9L89.3,0.6h1.6l3.4,19.8c0.1,0.7,0.3,2,0.5,3.8h0.1c0.1-1.5,0.3-2.8,0.4-3.8l2.9-19.8h1.6l-5,32.2
		c-0.4,2.4-0.8,4.2-1.4,5.3s-1.3,1.6-2.2,1.6c-0.5,0-0.9-0.2-1.3-0.5v-2.4c0.4,0.3,0.9,0.5,1.3,0.5c0.5,0,0.9-0.4,1.3-1.2
		c0.3-0.8,0.7-2.1,1-3.9L94.1,27.9z"/>
	<path d="M101.5,0.6h4.3c1.8,0,3.1,0.8,4.1,2.3c0.9,1.5,1.4,3.8,1.4,6.9c0,5.2-1.1,8.2-3.3,9V19c1.3,0.5,2.2,1.4,2.9,2.9
		c0.6,1.5,0.9,3.6,0.9,6.3c0,3.4-0.4,6.1-1.3,8.1c-0.9,1.9-2.1,2.9-3.7,2.9h-5.2V0.6H101.5z M103,17.8h2.8c1.4,0,2.4-0.7,3-2
		s0.9-3.3,0.9-6.1c0-2.2-0.3-3.9-1-5S107.1,3,105.8,3H103V17.8z M103,20.2v16.7h3.5c2.5,0,3.7-2.9,3.7-8.7c0-2.6-0.4-4.5-1.1-5.9
		s-1.7-2.1-3.1-2.1H103z"/>
	<path d="M123.1,39.2l-2-14h-5.4l-1.9,14h-1.6l5.4-38.6h1.5l5.5,38.6H123.1z M120.8,22.6l-2-14.4c-0.2-1.6-0.4-3.1-0.5-4.6
		c-0.1,1.5-0.2,3.1-0.4,4.6L116,22.6H120.8z"/>
	<path d="M137.1,39.2h-1.5v-19h-7.8v19h-1.5V0.6h1.5v17.1h7.8V0.6h1.5V39.2z"/>
	<path d="M152.1,39.2h-1.5v-19h-7.8v19h-1.5V0.6h1.5v17.1h7.8V0.6h1.5V39.2z"/>
	<path d="M160.3,22.3l-4.2,16.9h-1.7l4.5-17.2c-1.1-0.5-2-1.7-2.6-3.5s-1-4.1-1-6.8c0-7.4,1.9-11.1,5.8-11.1h3.6v38.6h-1.5V22.4
		L160.3,22.3z M163.2,3h-1.9c-1.6,0-2.7,0.7-3.4,2c-0.7,1.4-1,3.5-1,6.5c0,2.9,0.3,5.1,1,6.4c0.6,1.4,1.7,2.1,3.1,2.1h2.3V3H163.2z"
		/>
	<path d="M181.3,39.2l-6-35.1h-0.1c0.1,3.7,0.2,6,0.2,7v28.1H174V0.6h2.2l5,29.5c0.5,2.6,0.7,4.8,0.9,6.7h0.1c0.1-1.3,0.4-3.5,1-6.6
		l5-29.6h2.3v38.6H189V11.3c0-1.1,0.1-3.5,0.2-7.2H189l-6,35.1H181.3z"/>
	<path d="M206.7,19.8c0,6.4-0.6,11.3-1.7,14.7s-2.7,5.1-4.8,5.1s-3.7-1.7-4.8-5.2s-1.6-8.4-1.6-14.7c0-6.7,0.5-11.6,1.6-14.9
		s2.7-4.9,4.9-4.9c2.1,0,3.7,1.7,4.8,5.1C206.2,8.6,206.7,13.5,206.7,19.8z M195.4,19.8c0,5.7,0.4,10.1,1.2,13s2,4.4,3.6,4.4
		s2.8-1.5,3.7-4.4c0.8-2.9,1.2-7.2,1.2-13c0-5.7-0.4-10-1.2-12.9s-2-4.4-3.6-4.4s-2.9,1.5-3.7,4.4C195.8,9.9,195.4,14.2,195.4,19.8z
		"/>
	<path d="M215.5,0.6h1.5v18.6l6-18.6h1.6l-6.1,18.6l6.3,20h-1.7L217,19.5v19.7h-1.5V19.5l-6.1,19.7h-1.7l6.3-20l-6.1-18.6h1.6
		l6,18.6V0.6z"/>
	<path d="M234.7,39.2h-8.1V0.6h8.1v2.5H228v14.6h6.3v2.5H228v16.5h6.6L234.7,39.2L234.7,39.2z"/>
	<path d="M244.5,3.1v14.6h2.4c2,0,3.5,0.9,4.4,2.6c1,1.7,1.4,4.4,1.4,8.1c0,3.4-0.5,6-1.6,7.9c-1,1.9-2.5,2.9-4.3,2.9H243V0.6h8.8
		v2.5H244.5z M244.5,36.8h2.5c1.4,0,2.4-0.7,3.1-2.2c0.7-1.5,1.1-3.5,1.1-6.3s-0.3-4.9-1-6.3c-0.7-1.3-1.8-2-3.2-2h-2.5L244.5,36.8
		L244.5,36.8z"/>
	<path d="M257.8,27.9L253,0.6h1.6l3.4,19.8c0.1,0.7,0.3,2,0.5,3.8h0.1c0.1-1.5,0.3-2.8,0.4-3.8l2.9-19.8h1.6l-5,32.2
		c-0.4,2.4-0.8,4.2-1.4,5.3s-1.3,1.6-2.2,1.6c-0.5,0-0.9-0.2-1.3-0.5v-2.4c0.4,0.3,0.9,0.5,1.3,0.5c0.5,0,0.9-0.4,1.3-1.2
		c0.3-0.8,0.7-2.1,1-3.9L257.8,27.9z"/>
	<path d="M268.9,39.2h-1.5V3.1h-4.5V0.6h10.4v2.5h-4.5v36.1H268.9z"/>
	<path d="M275.3,0.6h1.5v27c0,0.6,0,1.2,0,1.8c0,0.6-0.1,2.4-0.1,5.4h0.1l8.4-34.2h1.9v38.6h-1.5V11.5c0-2.2,0.1-4.5,0.2-6.9h-0.1
		l-8.5,34.6h-1.9V0.6z"/>
	<path d="M13.1,73.4H0V43.2h1.2v28.3h4.7V43.2h1.2v28.3h4.8V43.2h1.2C13.1,43.2,13.1,73.4,13.1,73.4z"/>
	<path d="M17.5,57.8l5-14.6h1.3l-5,14.6l5.4,15.6h-1.4L17.5,57.8v15.6h-1.2V43.2h1.2V57.8z"/>
	<path d="M25.4,73.4V43.2h1.2v30.2H25.4z"/>
	<path d="M38.7,81h-1.1v-7.6h-8.4V81H28v-9.6h1.1c0.9-4.9,1.6-9.6,2-13.8c0.4-4.3,0.6-9.1,0.6-14.4h5.5v28.3h1.5V81z M36,71.4V45.1
		h-3.1c-0.2,9.7-1,18.5-2.6,26.3C30.3,71.4,36,71.4,36,71.4z"/>
	<path d="M47.8,73.4h-1.2V45.1h-3.4l-0.5,9.8c-0.3,7.2-0.6,11.7-0.9,13.5c-0.2,1.9-0.5,3.2-0.9,4s-1,1.2-1.7,1.2
		c-0.4,0-0.7-0.1-0.9-0.4v-1.9c0.2,0.2,0.5,0.3,0.8,0.3s0.5-0.1,0.7-0.3c0.2-0.2,0.3-0.5,0.5-1c0.1-0.5,0.3-1.3,0.4-2.2
		c0.1-1,0.2-2.2,0.3-3.8c0.1-1.6,0.5-8.6,1.1-21.2h5.7C47.8,43.1,47.8,73.4,47.8,73.4z"/>
	<path d="M51,43.2h1.2v21.1c0,0.5,0,0.9,0,1.4s0,1.9-0.1,4.3h0.1l6.6-26.8h1.5v30.2h-1.2V51.7c0-1.7,0-3.5,0.1-5.4h-0.1l-6.6,27.1
		H51V43.2z"/>
	<path d="M63.5,43.2h3.4c1.4,0,2.4,0.6,3.2,1.8s1.1,3,1.1,5.4c0,4.1-0.9,6.4-2.6,7v0.2c1,0.4,1.7,1.1,2.2,2.3s0.7,2.8,0.7,4.9
		c0,2.7-0.3,4.8-1,6.3s-1.7,2.3-2.9,2.3h-4L63.5,43.2L63.5,43.2z M64.7,56.6h2.2c1.1,0,1.9-0.5,2.3-1.6c0.5-1,0.7-2.6,0.7-4.7
		c0-1.7-0.3-3-0.8-3.9S67.8,45,66.8,45h-2.2v11.6H64.7z M64.7,58.5v13h2.7c1.9,0,2.9-2.3,2.9-6.8c0-2-0.3-3.6-0.9-4.6
		C68.8,59,68,58.5,67,58.5H64.7z"/>
	<path d="M73.8,43.2H75v21.1c0,0.5,0,0.9,0,1.4s0,1.9-0.1,4.3H75l6.6-26.8H83v30.2h-1.2V51.7c0-1.7,0-3.5,0.1-5.4h-0.1l-6.6,27.1
		h-1.5L73.8,43.2L73.8,43.2z"/>
	<path d="M92,73.4l-4.7-27.5h-0.1c0.1,2.9,0.1,4.7,0.1,5.5v22h-1.1V43.2H88l3.9,23.1c0.4,2,0.6,3.8,0.7,5.2h0.1
		c0.1-1,0.3-2.7,0.7-5.2l3.9-23.1h1.8v30.2H98V51.5c0-0.9,0-2.7,0.1-5.6H98l-4.6,27.5H92z"/>
	<path d="M115.2,81h-1.1v-7.6h-8.4V81h-1.1v-9.6h1.1c0.9-4.9,1.6-9.6,2-13.8c0.4-4.3,0.6-9.1,0.6-14.4h5.5v28.3h1.5L115.2,81
		L115.2,81z M112.6,71.4V45.1h-3.1c-0.2,9.7-1,18.5-2.6,26.3C106.9,71.4,112.6,71.4,112.6,71.4z"/>
	<path d="M124.4,73.4h-1.2V45.1h-3.4l-0.5,9.8c-0.3,7.2-0.6,11.7-0.9,13.5c-0.2,1.9-0.5,3.2-0.9,4s-1,1.2-1.7,1.2
		c-0.4,0-0.7-0.1-0.9-0.4v-1.9c0.2,0.2,0.5,0.3,0.8,0.3s0.5-0.1,0.7-0.3c0.2-0.2,0.3-0.5,0.5-1c0.1-0.5,0.3-1.3,0.4-2.2
		c0.1-1,0.2-2.2,0.3-3.8c0.1-1.6,0.5-8.6,1.1-21.2h5.7V73.4z"/>
	<path d="M130.8,60.2l-3.3,13.2h-1.3l3.5-13.5c-0.9-0.4-1.6-1.3-2.1-2.7s-0.7-3.2-0.7-5.3c0-5.8,1.5-8.7,4.6-8.7h2.9v30.2h-1.2V60.2
		H130.8z M133.1,45h-1.5c-1.2,0-2.1,0.5-2.7,1.6c-0.5,1.1-0.8,2.8-0.8,5.1s0.3,4,0.8,5c0.5,1.1,1.3,1.6,2.4,1.6h1.8V45z"/>
	<path d="M141.5,43.2h3.4c1.4,0,2.4,0.6,3.2,1.8s1.1,3,1.1,5.4c0,4.1-0.9,6.4-2.6,7v0.2c1,0.4,1.7,1.1,2.2,2.3s0.7,2.8,0.7,4.9
		c0,2.7-0.3,4.8-1,6.3s-1.7,2.3-2.9,2.3h-4L141.5,43.2L141.5,43.2z M142.7,56.6h2.2c1.1,0,1.9-0.5,2.3-1.6c0.5-1,0.7-2.6,0.7-4.7
		c0-1.7-0.3-3-0.8-3.9s-1.3-1.4-2.3-1.4h-2.2v11.6H142.7z M142.7,58.5v13h2.7c1.9,0,2.9-2.3,2.9-6.8c0-2-0.3-3.6-0.9-4.6
		c-0.6-1.1-1.4-1.6-2.4-1.6H142.7z"/>
	<path d="M158.4,73.4l-1.5-11h-4.3l-1.5,11h-1.2l4.2-30.2h1.2l4.3,30.2H158.4z M156.6,60.4l-1.5-11.3c-0.2-1.3-0.3-2.5-0.4-3.6
		c-0.1,1.2-0.2,2.4-0.3,3.6l-1.5,11.3H156.6z"/>
	<path d="M174,73.4h-13.1V43.2h1.2v28.3h4.7V43.2h1.2v28.3h4.8V43.2h1.2L174,73.4L174,73.4z"/>
	<path d="M186.7,58.2c0,5-0.4,8.8-1.3,11.5c-0.9,2.7-2.1,4-3.8,4s-2.9-1.4-3.8-4.1c-0.9-2.7-1.3-6.6-1.3-11.5
		c0-5.2,0.4-9.1,1.3-11.6s2.1-3.8,3.8-3.8c1.6,0,2.9,1.3,3.7,4S186.7,53.3,186.7,58.2z M177.9,58.2c0,4.5,0.3,7.9,1,10.2
		s1.6,3.4,2.9,3.4c1.3,0,2.2-1.1,2.9-3.4s1-5.7,1-10.2s-0.3-7.9-1-10.1c-0.6-2.3-1.6-3.4-2.8-3.4c-1.3,0-2.3,1.2-2.9,3.5
		S177.9,53.8,177.9,58.2z"/>
	<path d="M195.5,43.2v1.9h-4.9v28.3h-1.2V43.2H195.5z"/>
	<path d="M206.5,58.2c0,5-0.4,8.8-1.3,11.5c-0.9,2.7-2.1,4-3.8,4s-2.9-1.4-3.8-4.1c-0.9-2.7-1.3-6.6-1.3-11.5
		c0-5.2,0.4-9.1,1.3-11.6s2.1-3.8,3.8-3.8c1.6,0,2.9,1.3,3.7,4S206.5,53.3,206.5,58.2z M197.6,58.2c0,4.5,0.3,7.9,1,10.2
		s1.6,3.4,2.9,3.4c1.3,0,2.2-1.1,2.9-3.4s1-5.7,1-10.2s-0.3-7.9-1-10.1c-0.6-2.3-1.6-3.4-2.8-3.4c-1.3,0-2.3,1.2-2.9,3.5
		S197.6,53.8,197.6,58.2z"/>
	<path d="M219.5,65.3c0,2.7-0.4,4.8-1.2,6.3s-1.9,2.2-3.3,2.2c-1.1,0-2.1-0.4-3.1-1.1v-2.2c0.4,0.4,0.9,0.8,1.4,1
		c0.5,0.3,1.1,0.4,1.6,0.4c2.2,0,3.3-2.2,3.3-6.5c0-2.3-0.3-4-0.9-5c-0.6-1.1-1.6-1.6-2.9-1.6h-1.2v-1.9h1.3c1.1,0,2-0.6,2.6-1.7
		c0.6-1.1,0.9-2.8,0.9-5c0-1.8-0.2-3.2-0.7-4.1c-0.5-0.9-1.1-1.3-2-1.3c-0.5,0-0.9,0.2-1.3,0.5c-0.4,0.4-0.7,0.8-1,1.4l-0.8-1.4
		c0.9-1.6,1.9-2.5,3.2-2.5c1.2,0,2.1,0.7,2.8,2s1,3.1,1,5.4c0,2-0.3,3.6-0.8,5c-0.5,1.3-1.3,2.2-2.2,2.6V58c1.1,0.2,1.9,1,2.4,2.3
		C219.2,61.4,219.5,63.1,219.5,65.3z"/>
	<path d="M231.2,81h-1.1v-7.6h-8.4V81h-1.1v-9.6h1.1c0.9-4.9,1.6-9.6,2-13.8c0.4-4.3,0.6-9.1,0.6-14.4h5.5v28.3h1.5V81H231.2z
		 M228.5,71.4V45.1h-3.1c-0.2,9.7-1,18.5-2.6,26.3C222.8,71.4,228.5,71.4,228.5,71.4z"/>
	<path d="M242.5,58.2c0,5-0.4,8.8-1.3,11.5c-0.9,2.7-2.1,4-3.8,4s-2.9-1.4-3.8-4.1c-0.9-2.7-1.3-6.6-1.3-11.5
		c0-5.2,0.4-9.1,1.3-11.6s2.1-3.8,3.8-3.8c1.6,0,2.9,1.3,3.7,4S242.5,53.3,242.5,58.2z M233.6,58.2c0,4.5,0.3,7.9,1,10.2
		s1.6,3.4,2.9,3.4c1.3,0,2.2-1.1,2.9-3.4s1-5.7,1-10.2s-0.3-7.9-1-10.1c-0.6-2.3-1.6-3.4-2.8-3.4c-1.3,0-2.3,1.2-2.9,3.5
		S233.6,53.8,233.6,58.2z"/>
	<path d="M252.5,51.8c0,3.1-0.4,5.4-1.2,6.9s-2.1,2.2-3.7,2.2h-1.2v12.5h-1.2V43.2h2.4c1.7,0,3,0.7,3.8,2.1
		C252.1,46.6,252.5,48.8,252.5,51.8z M246.3,59h1.2c1.4,0,2.4-0.6,2.9-1.7s0.9-3,0.9-5.5c0-2.4-0.3-4.2-0.9-5.2
		c-0.6-1.1-1.5-1.6-2.8-1.6h-1.3L246.3,59L246.3,59z"/>
	<path d="M264.2,58.2c0,5-0.4,8.8-1.3,11.5s-2.1,4-3.8,4c-1.7,0-2.9-1.4-3.8-4.1c-0.9-2.7-1.3-6.6-1.3-11.5c0-5.2,0.4-9.1,1.3-11.6
		s2.1-3.8,3.8-3.8c1.6,0,2.9,1.3,3.7,4S264.2,53.3,264.2,58.2z M255.3,58.2c0,4.5,0.3,7.9,1,10.2c0.7,2.3,1.6,3.4,2.9,3.4
		s2.2-1.1,2.9-3.4c0.7-2.3,1-5.7,1-10.2s-0.3-7.9-1-10.1c-0.6-2.3-1.6-3.4-2.8-3.4c-1.3,0-2.3,1.2-2.9,3.5S255.3,53.8,255.3,58.2z"
		/>
	<path d="M266.8,43.2h3.4c1.4,0,2.4,0.6,3.2,1.8s1.1,3,1.1,5.4c0,4.1-0.9,6.4-2.6,7v0.2c1,0.4,1.7,1.1,2.2,2.3s0.7,2.8,0.7,4.9
		c0,2.7-0.3,4.8-1,6.3s-1.7,2.3-2.9,2.3h-4V43.2H266.8z M268,56.6h2.2c1.1,0,1.9-0.5,2.3-1.6c0.5-1,0.7-2.6,0.7-4.7
		c0-1.7-0.3-3-0.8-3.9s-1.3-1.4-2.3-1.4H268V56.6z M268,58.5v13h2.7c1.9,0,2.9-2.3,2.9-6.8c0-2-0.3-3.6-0.9-4.6
		c-0.6-1.1-1.4-1.6-2.4-1.6H268z"/>
	<path d="M278.2,43.2l-0.3,10.9h-0.7l-0.4-10.9C276.8,43.2,278.2,43.2,278.2,43.2z"/>
	<path d="M284.3,60.2L281,73.4h-1.3l3.5-13.5c-0.9-0.4-1.6-1.3-2.1-2.7s-0.7-3.2-0.7-5.3c0-5.8,1.5-8.7,4.6-8.7h2.9v30.2h-1.2V60.2
		H284.3z M286.6,45h-1.5c-1.2,0-2.1,0.5-2.7,1.6c-0.5,1.1-0.8,2.8-0.8,5.1s0.3,4,0.8,5c0.5,1.1,1.3,1.6,2.4,1.6h1.8L286.6,45
		L286.6,45z"/>
</g>
</svg>
