<?xml version="1.0" encoding="utf-8"?>
<!-- Generator: Adobe Illustrator 24.1.3, SVG Export Plug-In . SVG Version: 6.00 Build 0)  -->
<svg version="1.1" id="Layer_1" xmlns="http://www.w3.org/2000/svg" xmlns:xlink="http://www.w3.org/1999/xlink" x="0px" y="0px"
	 viewBox="0 0 87.1 23" style="enable-background:new 0 0 87.1 23;" xml:space="preserve">
<style type="text/css">
	.st0{fill:#263A80;}
</style>
<path class="st0" d="M0,6.6v16.1h2.4v-7.2h9v7.2h2.4V6.6h-2.4v6.7h-9V6.6H0z"/>
<path class="st0" d="M30.9,8.6c-1.3-1.5-3.1-2.2-5.4-2.2s-4.1,0.7-5.4,2.2s-2,3.5-2,6.1c0,1.7,0.3,3.2,0.9,4.4
	c0.6,1.3,1.5,2.2,2.6,2.9c1.1,0.7,2.4,1,3.8,1c2.3,0,4.1-0.7,5.5-2.2c1.3-1.5,2-3.5,2-6.1S32.2,10.1,30.9,8.6z M21.9,10
	c0.8-1,2-1.6,3.6-1.6s2.8,0.5,3.7,1.6c0.8,1.1,1.2,2.6,1.2,4.7s-0.4,3.6-1.2,4.7c-0.8,1.1-2,1.6-3.6,1.6s-2.8-0.5-3.6-1.6
	c-0.8-1.1-1.2-2.6-1.2-4.7C20.7,12.6,21.1,11,21.9,10z"/>
<path class="st0" d="M44.2,6.6h-7v16.1h7.1c2.1,0,3.7-0.4,4.8-1.2c1.1-0.8,1.6-2,1.6-3.5c0-1.1-0.3-1.9-0.9-2.5s-1.6-1-3-1.2v-0.1
	c1.1-0.2,1.9-0.5,2.5-1.1s0.9-1.3,0.9-2.4C50.2,8,48.2,6.6,44.2,6.6L44.2,6.6z M44,20.6h-4.5v-5.3H44c1.5,0,2.6,0.2,3.3,0.6
	c0.7,0.4,1,1,1,1.9C48.3,19.7,46.9,20.6,44,20.6L44,20.6z M46.9,12.7c-0.6,0.4-1.7,0.6-3.2,0.6h-4.1V8.7h4.6c1.2,0,2.1,0.2,2.7,0.5
	s0.9,0.9,0.9,1.7S47.5,12.3,46.9,12.7z"/>
<path class="st0" d="M54.2,6.6v16.1h3L65.9,9l-0.1,1.9v1.9v9.8h2.3v-16h-3l-8.7,13.7v-0.8l0.1-2.7V6.6H54.2z"/>
<path class="st0" d="M73.2,6.6v16.1h3L84.9,9l-0.1,1.9v1.9v9.8h2.3v-16h-3l-8.7,13.7v-0.8l0.1-2.7V6.6H73.2z M84.1,3.4
	C85,2.7,85.5,1.5,85.6,0h-2.3c-0.1,1-0.4,1.7-0.9,2.1s-1.2,0.6-2.2,0.6c-1.1,0-1.9-0.2-2.3-0.6C77.4,1.7,77.1,1,77,0h-2.3
	c0.1,1.6,0.6,2.8,1.4,3.4c0.8,0.7,2.1,1,4,1C81.9,4.5,83.2,4.1,84.1,3.4z"/>
</svg>
