<?xml version="1.0" encoding="utf-8"?>
<!-- Generator: Adobe Illustrator 24.1.3, SVG Export Plug-In . SVG Version: 6.00 Build 0)  -->
<svg version="1.1" id="Layer_1" xmlns="http://www.w3.org/2000/svg" xmlns:xlink="http://www.w3.org/1999/xlink" x="0px" y="0px"
	 viewBox="0 0 38.5 29.3" style="enable-background:new 0 0 38.5 29.3;" xml:space="preserve">
<style type="text/css">
	.st0{fill:#263A80;}
</style>
<path class="st0" d="M12.3,20.1c1.2-1.5,1.8-3.5,1.8-6.1s-0.6-4.7-1.7-6.1c-1.2-1.5-2.8-2.2-4.9-2.2c-1.1,0-2,0.2-2.9,0.6
	C3.8,6.7,3,7.3,2.4,8.2H2.3L2,6H0v23.3h2.4v-6.6c0-0.8-0.1-1.7-0.2-2.7h0.2c0.6,0.8,1.3,1.4,2.2,1.8c0.9,0.4,1.8,0.6,2.9,0.6
	C9.5,22.3,11.2,21.5,12.3,20.1z M10.4,9.3c0.8,1.1,1.2,2.6,1.2,4.6s-0.4,3.5-1.2,4.6c-0.8,1.1-1.9,1.7-3.3,1.7
	c-1.7,0-2.9-0.5-3.6-1.5c-0.8-1-1.1-2.6-1.1-4.8v-0.5c0-2,0.4-3.4,1.1-4.3s1.9-1.4,3.6-1.4C8.5,7.7,9.6,8.2,10.4,9.3z"/>
<path class="st0" d="M20.8,5.9h-2.4V22h2.4V5.9z M18.5,2.8c0.3,0.3,0.6,0.4,1,0.4s0.7-0.1,1-0.4c0.3-0.3,0.4-0.7,0.4-1.2
	s-0.1-1-0.4-1.2c-0.3-0.3-0.6-0.4-1-0.4s-0.8,0.1-1,0.4c-0.3,0.3-0.4,0.7-0.4,1.2S18.3,2.5,18.5,2.8z"/>
<path class="st0" d="M28.4,13.7V5.9H26V22h2.4v-8.1l7.3,8.1h2.8L31,13.7L37.9,6h-2.7L28.4,13.7z"/>
</svg>
