<?xml version="1.0" encoding="utf-8"?>
<!-- Generator: Adobe Illustrator 24.1.3, SVG Export Plug-In . SVG Version: 6.00 Build 0)  -->
<svg version="1.1" id="Layer_1" xmlns="http://www.w3.org/2000/svg" xmlns:xlink="http://www.w3.org/1999/xlink" x="0px" y="0px"
	 viewBox="0 0 230.5 30.6" style="enable-background:new 0 0 230.5 30.6;" xml:space="preserve">
<style type="text/css">
	.st0{fill:#EF4136;}
</style>
<path class="st0" d="M10.4,23.5c0.7-0.2,1.5-0.5,2.2-1v-3.8c-0.7,0.5-1.5,0.8-2.2,1.1C9.7,20,8.9,20.1,8,20.1
	c-2.3,0-3.5-1.6-3.5-4.8c0-3.3,1.2-5,3.5-5c0.6,0,1.2,0.1,1.8,0.3c0.6,0.2,1.3,0.4,2,0.7l1.3-3.5C11.6,7.1,9.9,6.7,8,6.7
	c-2.6,0-4.6,0.7-6,2.2C0.7,10.4,0,12.5,0,15.3c0,5.6,2.5,8.4,7.6,8.4C8.8,23.7,9.7,23.6,10.4,23.5z"/>
<path class="st0" d="M14.8,7v3.4h5.4v13h4.5v-13H30V7H14.8z"/>
<path class="st0" d="M45.4,22.7c0.9-0.7,1.7-1.7,2.2-2.9c0.5-1.3,0.8-2.8,0.8-4.6c0-2.7-0.5-4.7-1.6-6.2c-1.1-1.5-2.6-2.2-4.5-2.2
	c-2.1,0-3.6,0.8-4.6,2.4h-0.2L36.7,7H33v23.6h4.5V24c0-0.2-0.1-1-0.2-2.4h0.2c1.1,1.4,2.6,2.1,4.5,2.1
	C43.3,23.7,44.4,23.4,45.4,22.7z M43,11.5c0.5,0.8,0.7,2,0.7,3.6c0,3.3-1,5-3,5c-1.1,0-2-0.4-2.5-1.1c-0.5-0.8-0.8-2-0.8-3.8v-0.5
	c0-1.6,0.3-2.7,0.8-3.4c0.5-0.7,1.3-1,2.4-1C41.7,10.3,42.5,10.7,43,11.5z"/>
<path class="st0" d="M65.5,23.4V12.5c0-2-0.6-3.4-1.8-4.4c-1.2-1-2.9-1.4-5.1-1.4c-2.3,0-4.4,0.5-6.3,1.5l1.5,3
	c1.8-0.8,3.3-1.2,4.6-1.2c1.7,0,2.5,0.8,2.5,2.5v0.7l-2.8,0.1c-2.5,0.1-4.3,0.5-5.5,1.4c-1.2,0.8-1.8,2.1-1.8,3.8
	c0,1.7,0.5,2.9,1.4,3.8c0.9,0.9,2.1,1.3,3.7,1.3c1.3,0,2.3-0.2,3.1-0.5c0.8-0.4,1.6-1,2.3-2h0.1l0.9,2.2H65.5z M61.1,17.2
	c0,1-0.3,1.8-0.9,2.4c-0.6,0.6-1.4,0.9-2.5,0.9c-1.4,0-2.2-0.6-2.2-1.9c0-0.9,0.3-1.5,1-2c0.6-0.4,1.6-0.7,2.9-0.7l1.7-0.1V17.2z"/>
<path class="st0" d="M73,7h-4.6l6,7.9l-6.6,8.5h4.8l6.2-8.3v8.3H83v-8.3l6.2,8.3H94l-6.6-8.5l6-7.9h-4.6L83,15V7h-4.2v8L73,7z"/>
<path class="st0" d="M100.4,20.2c0.8-1.4,1.3-3,1.8-4.6c0.4-1.6,0.8-3.4,1-5.2h3.4v9.8H100.4z M113.4,20.2H111V7H99.5
	c-0.3,2.9-0.7,5.4-1.3,7.6c-0.6,2.2-1.4,4.1-2.4,5.5h-1.4v9.1h4v-5.9h11v5.9h4V20.2z"/>
<path class="st0" d="M129.8,23.4V12.5c0-2-0.6-3.4-1.8-4.4c-1.2-1-2.9-1.4-5.1-1.4c-2.3,0-4.4,0.5-6.3,1.5l1.5,3
	c1.8-0.8,3.3-1.2,4.6-1.2c1.7,0,2.5,0.8,2.5,2.5v0.7l-2.8,0.1c-2.5,0.1-4.3,0.5-5.5,1.4c-1.2,0.8-1.8,2.1-1.8,3.8
	c0,1.7,0.5,2.9,1.4,3.8c0.9,0.9,2.1,1.3,3.7,1.3c1.3,0,2.3-0.2,3.1-0.5c0.8-0.4,1.6-1,2.3-2h0.1l0.9,2.2H129.8z M125.3,17.2
	c0,1-0.3,1.8-0.9,2.4c-0.6,0.6-1.4,0.9-2.5,0.9c-1.4,0-2.2-0.6-2.2-1.9c0-0.9,0.3-1.5,1-2c0.6-0.4,1.6-0.7,2.9-0.7l1.7-0.1V17.2z"/>
<path class="st0" d="M149,7h-12.4c-0.2,3.3-0.5,5.8-0.8,7.7c-0.3,1.9-0.6,3.2-1,4c-0.4,0.8-0.8,1.2-1.4,1.2c-0.5,0-1-0.1-1.4-0.3
	v3.6c0.7,0.3,1.5,0.5,2.5,0.5c1.2,0,2.2-0.4,2.9-1.2c0.7-0.8,1.3-2.1,1.8-3.9c0.4-1.8,0.8-4.5,1.1-8.2h4.1v13h4.5V7z"/>
<path class="st0" d="M158.2,7h-4.5v16.4h7.8c4.8,0,7.2-1.7,7.2-5.2c0-1.6-0.6-2.8-1.8-3.6c-1.2-0.8-3.1-1.2-5.6-1.2h-3.1V7z
	 M161.3,20.3h-3.1v-3.9h3.1c1,0,1.8,0.1,2.3,0.4c0.5,0.3,0.8,0.7,0.8,1.4C164.3,19.6,163.3,20.3,161.3,20.3L161.3,20.3z"/>
<path class="st0" d="M172.1,7v16.4h4.5v-6.8h6.2v6.8h4.5V7h-4.5v6.3h-6.2V7H172.1z"/>
<path class="st0" d="M192,7v16.4h5.4l7.5-11.5c-0.2,2.1-0.3,3.8-0.3,4.9v6.5h4.3V7h-5.4L196,18.5c0.2-2.7,0.3-4.3,0.3-5V7H192z"/>
<path class="st0" d="M213.6,7v16.4h5.4l7.5-11.5c-0.2,2.1-0.3,3.8-0.3,4.9v6.5h4.3V7h-5.4l-7.6,11.5c0.2-2.7,0.3-4.3,0.3-5V7H213.6z
	 M225.1,0c-0.1,0.9-0.4,1.6-0.9,2.1c-0.5,0.4-1.2,0.7-2.2,0.7c-1.1,0-1.9-0.2-2.3-0.6C219.3,1.7,219,1,219,0h-4
	c0.1,1.9,0.8,3.2,1.9,4c1.1,0.8,2.8,1.2,5.1,1.2c2.2,0,4-0.4,5.2-1.3c1.2-0.8,1.9-2.2,2.1-4H225.1z"/>
</svg>
