<?xml version="1.0" encoding="utf-8"?>
<!-- Generator: Adobe Illustrator 24.1.3, SVG Export Plug-In . SVG Version: 6.00 Build 0)  -->
<svg version="1.1" id="Layer_1" xmlns="http://www.w3.org/2000/svg" xmlns:xlink="http://www.w3.org/1999/xlink" x="0px" y="0px"
	 viewBox="0 0 191.1 23.7" style="enable-background:new 0 0 191.1 23.7;" xml:space="preserve">
<style type="text/css">
	.st0{fill:#FFA800;}
</style>
<path class="st0" d="M0,7v16.4h4.5v-6.8h6.2v6.8h4.5V7h-4.5v6.3H4.5V7H0z"/>
<path class="st0" d="M33.4,23.4V12.5c0-2-0.6-3.4-1.8-4.4s-2.9-1.4-5.1-1.4c-2.3,0-4.4,0.5-6.3,1.5l1.5,3c1.8-0.8,3.3-1.2,4.6-1.2
	c1.7,0,2.5,0.8,2.5,2.5v0.7L26,13.3c-2.5,0.1-4.3,0.5-5.5,1.4c-1.2,0.8-1.8,2.1-1.8,3.8s0.5,2.9,1.4,3.8c0.9,0.9,2.1,1.3,3.7,1.3
	c1.3,0,2.3-0.2,3.1-0.5c0.8-0.4,1.6-1,2.3-2h0.1l0.9,2.2h3.2V23.4z M28.9,17.1c0,1-0.3,1.8-0.9,2.4c-0.6,0.6-1.4,0.9-2.5,0.9
	c-1.4,0-2.2-0.6-2.2-1.9c0-0.9,0.3-1.5,1-2c0.6-0.4,1.6-0.7,2.9-0.7l1.7-0.1V17.1z"/>
<path class="st0" d="M51.4,8.1c-1.1-0.7-2.8-1.1-5-1.1H38v16.4h8.4c2.3,0,4.1-0.4,5.4-1.3c1.2-0.8,1.9-2,1.9-3.6c0-1-0.3-1.8-1-2.4
	c-0.7-0.7-1.6-1.1-2.8-1.2v-0.2c1.1-0.2,1.9-0.6,2.4-1.2c0.6-0.6,0.8-1.4,0.8-2.2C53.1,9.9,52.5,8.8,51.4,8.1z M48.2,19.8
	c-0.5,0.4-1.2,0.5-2.2,0.5h-3.6v-3.9H46c1,0,1.7,0.1,2.2,0.4c0.5,0.3,0.7,0.8,0.7,1.4C49,18.9,48.7,19.4,48.2,19.8z M47.8,13
	c-0.5,0.3-1.2,0.4-2.2,0.4h-3.2v-3.2h3.8c1.6,0,2.4,0.5,2.4,1.5C48.6,12.3,48.3,12.7,47.8,13z"/>
<path class="st0" d="M56.6,7v6.1c0,1.7,0.5,3,1.5,3.9s2.4,1.4,4.1,1.4c0.8,0,1.7-0.1,2.6-0.3c0.9-0.2,1.9-0.6,2.9-1.2v6.5h4.5V7
	h-4.5v7.1c-0.8,0.3-1.5,0.6-2.2,0.8s-1.5,0.3-2.4,0.3c-1.3,0-2-0.7-2-2.1v-6L56.6,7L56.6,7z"/>
<path class="st0" d="M90.4,23.4V12.5c0-2-0.6-3.4-1.8-4.4c-1.2-1-2.9-1.4-5.1-1.4c-2.3,0-4.4,0.5-6.3,1.5l1.5,3
	c1.8-0.8,3.3-1.2,4.6-1.2c1.7,0,2.5,0.8,2.5,2.5v0.7L83,13.3c-2.5,0.1-4.3,0.5-5.5,1.4c-1.2,0.8-1.8,2.1-1.8,3.8s0.5,2.9,1.4,3.8
	c0.9,0.9,2.1,1.3,3.7,1.3c1.3,0,2.3-0.2,3.1-0.5c0.8-0.4,1.6-1,2.3-2h0.1l0.9,2.2h3.2V23.4z M85.9,17.1c0,1-0.3,1.8-0.9,2.4
	c-0.6,0.6-1.4,0.9-2.5,0.9c-1.4,0-2.2-0.6-2.2-1.9c0-0.9,0.3-1.5,1-2c0.6-0.4,1.6-0.7,2.9-0.7l1.7-0.1V17.1z"/>
<path class="st0" d="M109.6,7H97.2c-0.2,3.3-0.5,5.8-0.8,7.7s-0.6,3.2-1,4s-0.8,1.2-1.4,1.2c-0.5,0-1-0.1-1.4-0.3v3.6
	c0.7,0.3,1.5,0.5,2.5,0.5c1.2,0,2.2-0.4,2.9-1.2c0.7-0.8,1.3-2.1,1.8-3.9c0.4-1.8,0.8-4.5,1.1-8.2h4.1v13h4.5V7H109.6z"/>
<path class="st0" d="M118.8,7h-4.5v16.4h7.8c4.8,0,7.2-1.7,7.2-5.2c0-1.6-0.6-2.8-1.8-3.6s-3.1-1.2-5.6-1.2h-3.1V7z M121.9,20.3
	h-3.1v-3.9h3.1c1,0,1.8,0.1,2.3,0.4c0.5,0.3,0.8,0.7,0.8,1.4C124.9,19.6,123.9,20.3,121.9,20.3L121.9,20.3z"/>
<path class="st0" d="M132.7,7v16.4h4.5v-6.8h6.2v6.8h4.5V7h-4.5v6.3h-6.2V7H132.7z"/>
<path class="st0" d="M152.6,7v16.4h5.4l7.5-11.5c-0.2,2.1-0.3,3.8-0.3,4.9v6.5h4.3V7h-5.4l-7.6,11.5c0.2-2.7,0.3-4.3,0.3-5V7H152.6z
	"/>
<path class="st0" d="M174.2,7v16.4h5.4l7.5-11.5c-0.2,2.1-0.3,3.8-0.3,4.9v6.5h4.3V7h-5.4l-7.6,11.5c0.2-2.7,0.3-4.3,0.3-5V7H174.2z
	 M185.7,0c-0.1,0.9-0.4,1.6-0.9,2.1c-0.5,0.4-1.2,0.7-2.2,0.7c-1.1,0-1.9-0.2-2.3-0.6c-0.4-0.4-0.7-1.1-0.8-2.1h-4
	c0.1,1.9,0.8,3.2,1.9,4c1.1,0.8,2.8,1.2,5.1,1.2c2.2,0,4-0.4,5.2-1.3c1.2-0.8,1.9-2.2,2.1-4H185.7z"/>
</svg>
