<?xml version="1.0" encoding="utf-8"?>
<!-- Generator: Adobe Illustrator 24.1.3, SVG Export Plug-In . SVG Version: 6.00 Build 0)  -->
<svg version="1.1" id="Layer_1" xmlns="http://www.w3.org/2000/svg" xmlns:xlink="http://www.w3.org/1999/xlink" x="0px" y="0px"
	 viewBox="0 0 196 52" style="enable-background:new 0 0 196 52;" xml:space="preserve">
<style type="text/css">
	.st0{fill-rule:evenodd;clip-rule:evenodd;fill:#2C347E;}
	.st1{fill:#FFFFFF;}
</style>
<path class="st0" d="M26,0h144c14.4,0,26,11.6,26,26s-11.6,26-26,26H26C11.6,52,0,40.4,0,26S11.6,0,26,0z"/>
<path class="st1" d="M34.3,12.3h3.5v-2.3h-9.7v2.3h3.5v10.6h2.7V12.3z"/>
<path class="st1" d="M49.8,11.6c-1-1.1-2.6-1.7-4.5-1.7c-2,0-3.5,0.6-4.5,1.7c-1.1,1.1-1.6,2.8-1.6,4.9s0.5,3.8,1.6,4.9
	c1.1,1.1,2.6,1.7,4.5,1.7c2,0,3.5-0.6,4.5-1.7c1.1-1.1,1.6-2.8,1.6-4.9C51.4,14.3,50.9,12.7,49.8,11.6z M42.9,13.2
	c0.6-0.7,1.4-1.1,2.5-1.1c2.2,0,3.2,1.4,3.2,4.3c0,2.9-1.1,4.3-3.3,4.3c-1.1,0-1.9-0.4-2.4-1.1C42.3,19,42,17.9,42,16.5
	C42,15,42.3,14,42.9,13.2z"/>
<path class="st1" d="M56.8,12.3h5.4v-2.2h-8.1v12.8h3.7c3.5,0,5.3-1.3,5.3-4c0-1.2-0.5-2.2-1.4-2.9c-0.9-0.7-2.2-1-3.9-1h-1.1V12.3z
	 M56.8,17.2h0.7c1.1,0,1.8,0.1,2.2,0.4c0.4,0.3,0.7,0.7,0.7,1.3c0,0.6-0.2,1-0.6,1.3c-0.4,0.3-1.1,0.4-2,0.4h-0.9V17.2z"/>
<path class="st1" d="M68.3,22.9V10.1h-2.7v12.8H68.3z"/>
<path class="st1" d="M86.3,11.6c-1-1.1-2.6-1.7-4.5-1.7c-2,0-3.5,0.6-4.5,1.7c-1.1,1.1-1.6,2.8-1.6,4.9s0.5,3.8,1.6,4.9
	c1.1,1.1,2.6,1.7,4.5,1.7c2,0,3.5-0.6,4.5-1.7c1.1-1.1,1.6-2.8,1.6-4.9C87.9,14.3,87.3,12.7,86.3,11.6z M79.3,13.2
	c0.6-0.7,1.4-1.1,2.5-1.1c2.2,0,3.2,1.4,3.2,4.3c0,2.9-1.1,4.3-3.3,4.3c-1.1,0-1.9-0.4-2.4-1.1c-0.5-0.7-0.8-1.8-0.8-3.2
	C78.5,15,78.8,14,79.3,13.2z"/>
<path class="st1" d="M93.2,12.3h5.4v-2.2h-8.1v12.8h3.7c3.5,0,5.3-1.3,5.3-4c0-1.2-0.5-2.2-1.4-2.9c-0.9-0.7-2.2-1-3.9-1h-1.1V12.3z
	 M93.2,17.2h0.7c1.1,0,1.8,0.1,2.2,0.4c0.4,0.3,0.7,0.7,0.7,1.3c0,0.6-0.2,1-0.6,1.3c-0.4,0.3-1.1,0.4-2,0.4h-0.9V17.2z"/>
<path class="st1" d="M102,22.9h3.3l6-9.8h0.1c-0.1,1.6-0.2,2.8-0.2,3.7v6.2h2.4V10.1h-3.3l-5.9,9.8h-0.1l0.1-1.9l0-1.7v-6.2H102
	V22.9z"/>
<path class="st1" d="M119.5,12.3h1.2c0.7,0,1.3,0.2,1.6,0.5c0.3,0.3,0.5,0.8,0.5,1.4c0,0.6-0.2,1.1-0.6,1.4c-0.4,0.3-1,0.5-1.9,0.5
	h-0.9V12.3z M124.5,11.1c-0.8-0.7-2-1-3.6-1h-4.1v12.8h2.7v-4.6h1.2c1.6,0,2.8-0.4,3.7-1.1c0.9-0.7,1.3-1.8,1.3-3.2
	C125.7,12.8,125.3,11.8,124.5,11.1z"/>
<path class="st1" d="M138.9,22.9L134.4,10H131l-4.5,12.9h2.9l0.9-3.1h4.7l0.9,3.1H138.9z M131.1,17.6c0.9-3,1.5-4.8,1.7-5.6
	c0,0.2,0.1,0.5,0.2,0.9c0.1,0.4,0.6,1.9,1.5,4.7H131.1z"/>
<path class="st1" d="M145.5,12.3h3.5v-2.3h-9.7v2.3h3.5v10.6h2.7V12.3z"/>
<path class="st1" d="M151,22.9h3.3l6-9.8h0.1c-0.1,1.6-0.2,2.8-0.2,3.7v6.2h2.4V10.1h-3.3l-5.9,9.8h-0.1l0.1-1.9l0-1.7v-6.2H151
	V22.9z"/>
<path class="st1" d="M168.1,20.8h-2.5c-0.2,1.4-0.5,2.9-0.9,4.4h1.9c0.7-1.6,1.2-3,1.5-4.2L168.1,20.8z"/>
<path class="st1" d="M31.6,38v4.9h2.7V30.1h-4.2c-1.6,0-2.8,0.3-3.6,1c-0.8,0.6-1.3,1.5-1.3,2.7c0,0.8,0.2,1.6,0.6,2.2
	c0.4,0.6,0.9,1.1,1.7,1.4l-3.7,5.7h3l3-4.9H31.6z M31.6,35.8h-1.3c-0.8,0-1.3-0.2-1.7-0.5C28.2,35,28,34.5,28,33.9
	c0-0.6,0.2-1,0.6-1.3c0.4-0.3,0.9-0.4,1.6-0.4h1.3V35.8z"/>
<path class="st1" d="M43.1,36.2l4.7-6.2h-2.9l-4.6,6.2v-6.2h-2.7v12.8h2.7v-6.5l4.7,6.5H48L43.1,36.2z"/>
<path class="st1" d="M61.2,32.4c0.5,0.2,1,0.4,1.5,0.6l0.9-2.2c-1.3-0.6-2.5-0.9-3.8-0.9c-1.2,0-2.3,0.3-3.2,0.8
	c-0.9,0.5-1.6,1.3-2.1,2.3c-0.5,1-0.7,2.2-0.7,3.5c0,2.1,0.5,3.7,1.5,4.9c1,1.1,2.4,1.7,4.3,1.7c1.3,0,2.5-0.2,3.5-0.7v-2.3
	c-1.3,0.5-2.4,0.7-3.3,0.7c-2.2,0-3.2-1.4-3.2-4.3c0-1.4,0.3-2.5,0.8-3.2c0.6-0.8,1.4-1.2,2.4-1.2C60.2,32.2,60.7,32.2,61.2,32.4z"
	/>
<path class="st1" d="M75.9,30.1H65.8v12.8h2.7V32.3h4.7v10.6h2.7V30.1z"/>
<path class="st1" d="M81.9,32.3h1.2c0.7,0,1.3,0.2,1.6,0.5c0.3,0.3,0.5,0.8,0.5,1.4c0,0.6-0.2,1.1-0.6,1.4c-0.4,0.3-1,0.5-1.9,0.5
	h-0.9V32.3z M86.8,31.1c-0.8-0.7-2-1-3.6-1h-4.1v12.8h2.7v-4.6h1.2c1.6,0,2.8-0.4,3.7-1.1c0.9-0.7,1.3-1.8,1.3-3.2
	C88.1,32.8,87.7,31.8,86.8,31.1z"/>
<path class="st1" d="M90.5,42.9h3.3l6-9.8h0.1c-0.1,1.6-0.2,2.8-0.2,3.7v6.2h2.4V30.1h-3.3l-5.9,9.8h-0.1l0.1-1.9l0-1.7v-6.2h-2.5
	V42.9z"/>
<path class="st1" d="M105.3,42.9h3.3l6-9.8h0.1c-0.1,1.6-0.2,2.8-0.2,3.7v6.2h2.4V30.1h-3.3l-5.9,9.8h-0.1l0.1-1.9l0-1.7v-6.2h-2.5
	V42.9z M112.9,25.9c-0.1,0.6-0.2,1-0.5,1.2c-0.3,0.3-0.7,0.4-1.3,0.4c-0.7,0-1.1-0.1-1.4-0.4c-0.3-0.2-0.4-0.7-0.5-1.3h-2.4
	c0.1,1.1,0.5,1.9,1.1,2.4c0.7,0.5,1.7,0.7,3.1,0.7c1.3,0,2.4-0.3,3.1-0.8c0.7-0.5,1.1-1.3,1.2-2.4H112.9z"/>
<path class="st1" d="M128.1,42.9l3.3-10.1h0.1c-0.1,1.6-0.1,2.6-0.1,3c0,0.4,0,0.7,0,1v6.1h2.5V30.1h-3.7l-3.2,9.8h-0.1l-3-9.8h-3.7
	v12.8h2.4v-6c0-0.7-0.1-2.1-0.2-4.1h0.1l3.1,10.1H128.1z"/>
<path class="st1" d="M147.9,42.9L143.3,30H140l-4.5,12.9h2.9l0.9-3.1h4.7l0.9,3.1H147.9z M140,37.6c0.9-3,1.5-4.8,1.7-5.6
	c0,0.2,0.1,0.5,0.2,0.9c0.1,0.4,0.6,1.9,1.5,4.7H140z"/>
<path class="st1" d="M154.5,32.3h3.5v-2.3h-9.7v2.3h3.5v10.6h2.7V32.3z"/>
<path class="st1" d="M159.9,42.9h3.3l6-9.8h0.1c-0.1,1.6-0.2,2.8-0.2,3.7v6.2h2.4V30.1h-3.3l-5.9,9.8h-0.1l0.1-1.9l0-1.7v-6.2h-2.5
	V42.9z"/>
</svg>
