<?xml version="1.0" encoding="utf-8"?>
<!-- Generator: Adobe Illustrator 24.1.3, SVG Export Plug-In . SVG Version: 6.00 Build 0)  -->
<svg version="1.1" id="Layer_1" xmlns="http://www.w3.org/2000/svg" xmlns:xlink="http://www.w3.org/1999/xlink" x="0px" y="0px"
	 viewBox="0 0 222.7 72.8" style="enable-background:new 0 0 222.7 72.8;" xml:space="preserve">
<style type="text/css">
	.st0{fill:#263A80;}
</style>
<g>
	<path class="st0" d="M12.4,6.9h7V2.4H0v4.5h7v21.2h5.4V6.9z"/>
	<path class="st0" d="M39.8,9.8c-1.3-0.9-3.4-1.3-6.1-1.3H23.7v19.7h10.1c2.8,0,4.9-0.5,6.4-1.5c1.5-1,2.2-2.5,2.2-4.4
		c0-1.2-0.4-2.1-1.2-2.9c-0.8-0.8-1.9-1.3-3.3-1.4v-0.1c1.3-0.2,2.3-0.7,2.9-1.4c0.7-0.7,1-1.6,1-2.7C41.8,11.9,41.1,10.6,39.8,9.8z
		 M36,23.8c-0.6,0.4-1.5,0.6-2.6,0.6H29v-4.6h4.3c1.2,0,2.1,0.2,2.7,0.5c0.6,0.3,0.9,0.9,0.9,1.7C36.9,22.7,36.6,23.3,36,23.8z
		 M35.5,15.6c-0.6,0.3-1.4,0.5-2.6,0.5H29v-3.9h4.5c1.9,0,2.8,0.6,2.8,1.8C36.4,14.8,36.1,15.3,35.5,15.6z"/>
	<path class="st0" d="M50.1,6c1,0,1.7-0.2,2.2-0.7C52.8,4.9,53,4.2,53,3.4c0-1.7-1-2.6-2.9-2.6c-1.9,0-2.9,0.9-2.9,2.6
		C47.2,5.1,48.1,6,50.1,6L50.1,6z M52.8,8.5h-5.4v19.7h5.4V8.5z"/>
	<path class="st0" d="M59.1,8.5v19.7h6.4l9-13.7c-0.2,2.5-0.4,4.5-0.4,5.9v7.8h5.2V8.5h-6.5l-9.1,13.8c0.3-3.2,0.4-5.2,0.4-6V8.5
		H59.1z M73,0c-0.1,1.1-0.5,1.9-1.1,2.5c-0.6,0.5-1.5,0.8-2.6,0.8c-1.3,0-2.3-0.2-2.8-0.7c-0.5-0.5-0.8-1.3-0.9-2.5h-4.8
		c0.2,2.3,0.9,3.9,2.2,4.9c1.3,1,3.4,1.4,6.2,1.4c2.7,0,4.8-0.5,6.2-1.5c1.4-1,2.3-2.6,2.5-4.8H73z"/>
	<path class="st0" d="M98.7,16v3.7h2.1c1.9,0,3.3,0.2,4.2,0.6c0.9,0.4,1.4,1,1.4,1.8c0,0.7-0.4,1.3-1.3,1.7
		c-0.9,0.4-2.2,0.6-3.9,0.6c-1.1,0-2.3-0.1-3.5-0.4c-1.2-0.3-2.3-0.6-3.3-1.1v4.4c1.8,0.8,4.3,1.2,7.6,1.2c2,0,3.7-0.3,5.2-0.8
		c1.5-0.5,2.6-1.2,3.4-2.1c0.8-0.9,1.2-2,1.2-3.2c0-1.2-0.3-2.1-1-2.9c-0.7-0.7-1.8-1.3-3.4-1.7v-0.2c2.6-0.7,3.9-2.1,3.9-4.3
		c0-1.6-0.7-2.9-2.2-3.8c-1.5-0.9-3.4-1.4-5.9-1.4c-1.6,0-3.1,0.1-4.4,0.3c-1.3,0.2-2.7,0.6-4.1,1.1l1.6,3.7c0.9-0.4,2-0.7,3.1-0.9
		c1.1-0.2,2.2-0.3,3.1-0.3c1.4,0,2.5,0.2,3.1,0.5c0.6,0.3,0.9,0.8,0.9,1.4c0,0.7-0.4,1.2-1.3,1.6c-0.8,0.3-2.3,0.5-4.3,0.5H98.7z"/>
	<path class="st0" d="M132.7,28.1V15c0-2.3-0.7-4.1-2.1-5.2c-1.4-1.1-3.4-1.7-6.1-1.7c-2.8,0-5.3,0.6-7.5,1.8l1.8,3.6
		c2.1-0.9,4-1.4,5.5-1.4c2,0,3.1,1,3.1,3v0.9L124,16c-2.9,0.1-5.1,0.7-6.6,1.6c-1.5,1-2.2,2.5-2.2,4.6c0,2,0.5,3.5,1.6,4.6
		c1.1,1.1,2.6,1.6,4.5,1.6c1.5,0,2.8-0.2,3.7-0.7c1-0.4,1.9-1.2,2.8-2.4h0.1l1,2.7H132.7z M127.4,20.6c0,1.2-0.4,2.1-1.1,2.8
		c-0.7,0.7-1.7,1.1-3,1.1c-1.7,0-2.6-0.8-2.6-2.3c0-1.1,0.4-1.8,1.1-2.4c0.8-0.5,1.9-0.8,3.5-0.8l2.1-0.1V20.6z"/>
	<path class="st0" d="M136.3,28.1h6.1l4.1-6.7l4.1,6.7h6.1l-6.7-10l6.4-9.6h-6.1l-3.8,6.3l-3.8-6.3h-6.1l6.3,9.6L136.3,28.1z"/>
	<path class="st0" d="M160.5,8.5v19.7h6.4l9-13.7c-0.2,2.5-0.4,4.5-0.4,5.9v7.8h5.2V8.5h-6.5l-9.1,13.8c0.3-3.2,0.4-5.2,0.4-6V8.5
		H160.5z"/>
	<path class="st0" d="M198.5,28.1c0.9-0.2,1.8-0.6,2.6-1.1v-4.6c-0.9,0.6-1.8,1-2.6,1.3c-0.9,0.3-1.8,0.4-2.9,0.4
		c-2.8,0-4.2-1.9-4.2-5.8c0-4,1.4-5.9,4.2-5.9c0.7,0,1.5,0.1,2.2,0.3c0.7,0.2,1.5,0.5,2.4,0.8l1.6-4.1c-1.8-0.9-3.8-1.3-6.1-1.3
		c-3.1,0-5.5,0.9-7.2,2.6c-1.7,1.8-2.5,4.3-2.5,7.7c0,6.7,3.1,10.1,9.2,10.1C196.5,28.5,197.6,28.4,198.5,28.1z"/>
	<path class="st0" d="M204.4,8.5v4h6.5v15.6h5.4V12.5h6.4v-4H204.4z"/>
	<path class="st0" d="M32.7,45.8c-1.3-0.9-3.4-1.3-6.1-1.3H16.6v19.7h10.1c2.8,0,4.9-0.5,6.4-1.5c1.5-1,2.2-2.5,2.2-4.4
		c0-1.2-0.4-2.1-1.2-2.9c-0.8-0.8-1.9-1.3-3.3-1.4v-0.1c1.3-0.2,2.3-0.7,2.9-1.4c0.7-0.7,1-1.6,1-2.7C34.7,47.9,34.1,46.6,32.7,45.8
		z M28.9,59.8c-0.6,0.4-1.5,0.6-2.6,0.6H22v-4.6h4.3c1.2,0,2.1,0.2,2.7,0.5c0.6,0.3,0.9,0.9,0.9,1.7C29.8,58.7,29.5,59.3,28.9,59.8z
		 M28.4,51.6c-0.6,0.3-1.4,0.5-2.6,0.5H22v-3.9h4.5c1.9,0,2.8,0.6,2.8,1.8C29.3,50.8,29,51.3,28.4,51.6z"/>
	<path class="st0" d="M43,42c1,0,1.7-0.2,2.2-0.7c0.5-0.5,0.7-1.1,0.7-1.9c0-1.7-1-2.6-2.9-2.6c-1.9,0-2.9,0.9-2.9,2.6
		C40.1,41.1,41.1,42,43,42L43,42z M45.7,44.5h-5.4v19.7h5.4V44.5z"/>
	<path class="st0" d="M57,60.2c0.9-1.7,1.6-3.5,2.1-5.5c0.5-2,0.9-4,1.2-6.2h4v11.7H57z M72.6,60.2h-2.9V44.5H55.8
		c-0.3,3.4-0.8,6.5-1.6,9.1c-0.8,2.7-1.7,4.9-2.8,6.6h-1.7v11h4.8v-7h13.2v7h4.8V60.2z"/>
	<path class="st0" d="M98.1,64.1c0.9-0.2,1.8-0.6,2.6-1.1v-4.6c-0.9,0.6-1.8,1-2.6,1.3c-0.9,0.3-1.8,0.4-2.9,0.4
		c-2.8,0-4.2-1.9-4.2-5.8c0-4,1.4-5.9,4.2-5.9c0.7,0,1.5,0.1,2.2,0.3c0.7,0.2,1.5,0.5,2.4,0.8l1.6-4.1c-1.8-0.9-3.8-1.3-6.1-1.3
		c-3.1,0-5.5,0.9-7.2,2.6c-1.7,1.8-2.5,4.3-2.5,7.7c0,6.7,3.1,10.1,9.2,10.1C96.1,64.5,97.2,64.4,98.1,64.1z"/>
	<path class="st0" d="M104,44.5v4h6.5v15.6h5.4V48.5h6.4v-4H104z"/>
	<path class="st0" d="M141.4,63.2c1.1-0.8,2-2,2.6-3.5c0.6-1.5,0.9-3.4,0.9-5.5c0-3.2-0.7-5.7-2-7.5c-1.3-1.8-3.1-2.7-5.4-2.7
		c-2.5,0-4.3,1-5.6,2.9h-0.2l-0.8-2.5h-4.4v28.3h5.4v-8c0-0.3-0.1-1.2-0.3-2.8h0.3c1.3,1.7,3.1,2.5,5.4,2.5
		C138.9,64.5,140.3,64.1,141.4,63.2z M138.6,49.8c0.6,1,0.9,2.4,0.9,4.4c0,4-1.2,5.9-3.6,5.9c-1.4,0-2.4-0.5-3-1.4
		c-0.6-0.9-0.9-2.4-0.9-4.5v-0.6c0-1.9,0.3-3.2,0.9-4c0.6-0.8,1.6-1.2,2.9-1.2C137.1,48.4,138,48.9,138.6,49.8z"/>
	<path class="st0" d="M160.9,49c0.7,0.7,1,1.7,1,3.1h-7.5c0.1-1.3,0.5-2.3,1.1-3.1c0.6-0.7,1.5-1.1,2.7-1.1
		C159.4,47.9,160.3,48.3,160.9,49z M162.9,64.1c1.1-0.2,2.1-0.6,3-1v-4.1c-1.1,0.5-2.2,0.9-3.3,1.2c-1.1,0.2-2.2,0.4-3.4,0.4
		c-1.5,0-2.7-0.4-3.6-1.3c-0.8-0.9-1.3-2-1.4-3.6H167V53c0-2.8-0.8-5-2.3-6.6c-1.5-1.6-3.7-2.4-6.5-2.4c-2.9,0-5.2,0.9-6.8,2.7
		c-1.6,1.8-2.5,4.3-2.5,7.6c0,3.2,0.9,5.7,2.7,7.4c1.8,1.7,4.3,2.6,7.4,2.6C160.5,64.5,161.8,64.3,162.9,64.1z"/>
	<path class="st0" d="M183.4,64.1c0.9-0.2,1.8-0.6,2.6-1.1v-4.6c-0.9,0.6-1.8,1-2.6,1.3c-0.9,0.3-1.8,0.4-2.9,0.4
		c-2.8,0-4.2-1.9-4.2-5.8c0-4,1.4-5.9,4.2-5.9c0.7,0,1.5,0.1,2.2,0.3c0.7,0.2,1.5,0.5,2.4,0.8l1.6-4.1c-1.8-0.9-3.8-1.3-6.1-1.3
		c-3.1,0-5.5,0.9-7.2,2.6c-1.7,1.8-2.5,4.3-2.5,7.7c0,6.7,3.1,10.1,9.2,10.1C181.4,64.5,182.5,64.4,183.4,64.1z"/>
	<path class="st0" d="M196.3,64l-0.3,1c-0.4,1.2-1,2-1.7,2.6c-0.7,0.6-1.5,0.9-2.5,0.9c-0.8,0-1.5-0.1-2.1-0.2v4.3
		c0.9,0.2,1.8,0.3,2.7,0.3c1.9,0,3.5-0.5,4.9-1.5c1.4-1,2.5-2.6,3.3-4.6l8.3-22.2h-5.7l-3.6,11.1c-0.4,1.1-0.6,2.2-0.8,3.4h-0.1
		c-0.1-1.3-0.3-2.4-0.7-3.4l-3.7-11.1h-5.9L196.3,64z"/>
</g>
</svg>
