<?xml version="1.0" encoding="utf-8"?>
<!-- Generator: Adobe Illustrator 24.0.3, SVG Export Plug-In . SVG Version: 6.00 Build 0)  -->
<svg version="1.1" id="Слой_1" xmlns="http://www.w3.org/2000/svg" xmlns:xlink="http://www.w3.org/1999/xlink" x="0px" y="0px"
	 viewBox="0 0 136 21.9" style="enable-background:new 0 0 136 21.9;" xml:space="preserve">
<style type="text/css">
	.st0{fill-rule:evenodd;clip-rule:evenodd;fill:#FF0085;}
	.st1{fill:#FFFFFF;}
</style>
<path class="st0" d="M10.9,0H125c6,0,10.9,4.9,10.9,10.9S131,21.8,125,21.8H10.9C4.9,21.9,0,17,0,10.9C0,4.9,4.9,0,10.9,0z"/>
<g>
	<path class="st1" d="M34,5.4v4.1c0,1.3-0.2,2-0.3,2.5c-0.3,0.7-0.8,1.3-1.5,1.3V17h1.7v-2.1h5.8V17h1.7v-3.7h-1V5.4H34z M35.8,7
		h2.7v6.3h-3.8c0.3-0.3,0.5-0.6,0.7-1.1s0.3-1.2,0.3-2.6L35.8,7L35.8,7z"/>
	<path class="st1" d="M46.7,12.8c-0.3,0.5-0.8,0.8-1.4,0.8c-0.7,0-1-0.3-1.2-0.6s-0.3-0.7-0.3-1h4.6v-0.1c0-0.7-0.1-1.6-0.7-2.4
		c-0.4-0.5-1.1-1-2.4-1c-0.7,0-1.6,0.2-2.3,0.9c-0.4,0.4-0.9,1.2-0.9,2.4c0,1,0.3,1.8,1,2.4c0.6,0.6,1.4,0.9,2.3,0.9
		c2.1,0,2.8-1.5,3-1.9L46.7,12.8z M43.8,10.9c0.1-0.8,0.8-1.2,1.4-1.2c0.6,0,1.3,0.4,1.5,1.2H43.8z"/>
	<path class="st1" d="M54,10.2V8.7h-5.1v1.5h1.7v4.7h1.7v-4.7H54z"/>
	<path class="st1" d="M59.6,9.5c-0.6-0.9-1.5-1-2-1c-1.8,0-3,1.4-3,3.3c0,1.8,1.2,3.3,3.1,3.3c0.4,0,1.3-0.1,1.9-1v0.8h1.7V8.7h-1.7
		V9.5z M58.1,10c1,0,1.7,0.7,1.7,1.7s-0.7,1.7-1.7,1.7s-1.7-0.8-1.7-1.7C56.4,10.8,57.1,10,58.1,10z"/>
	<path class="st1" d="M68.4,8.7h-4.9v3.6c0,0.2,0,0.6-0.2,0.8c-0.1,0.1-0.3,0.3-0.7,0.3c-0.1,0-0.2,0-0.3,0v1.5
		c0.2,0,0.3,0.1,0.5,0.1c1,0,1.5-0.5,1.6-0.7c0.5-0.6,0.6-1.3,0.6-1.8v-2.2h1.7V15h1.7C68.4,15,68.4,8.7,68.4,8.7z"/>
	<path class="st1" d="M70,8.7v6.1h3.1c0.4,0,0.9-0.1,1.4-0.5c0.3-0.3,0.6-0.7,0.6-1.6c0-0.6-0.2-1-0.5-1.3c-0.4-0.5-1.1-0.6-1.6-0.6
		h-1.3V8.7H70z M71.7,13.5v-1.2h0.8c0.2,0,0.4,0,0.6,0.1c0.1,0.1,0.2,0.2,0.2,0.4s-0.1,0.4-0.2,0.5c-0.2,0.1-0.5,0.2-0.6,0.2H71.7z"
		/>
	<path class="st1" d="M76.4,14.8h1.7v-2.5h2.4v2.5h1.7V8.7h-1.7v2.2h-2.4V8.7h-1.7V14.8z"/>
	<path class="st1" d="M83.8,8.7v6.1h1.7V8.7H83.8z M83.7,6.1c0,0.6,0.5,1,1,1s1-0.5,1-1c0-0.6-0.5-1-1-1S83.7,5.5,83.7,6.1z"/>
	<path class="st1" d="M87.2,14.8h9.1V8.7h-1.7v4.7h-2V8.7h-1.7v4.7h-2V8.7h-1.7C87.2,8.7,87.2,14.8,87.2,14.8z"/>
	<path class="st1" d="M102.3,12.8c-0.3,0.5-0.8,0.8-1.4,0.8c-0.7,0-1-0.3-1.2-0.6s-0.3-0.7-0.3-1h4.6v-0.1c0-0.7-0.1-1.6-0.7-2.4
		c-0.4-0.5-1.1-1-2.4-1c-0.7,0-1.6,0.2-2.3,0.9c-0.4,0.4-0.9,1.2-0.9,2.4c0,1,0.3,1.8,1,2.4c0.6,0.6,1.4,0.9,2.3,0.9
		c2.1,0,2.8-1.5,3-1.9L102.3,12.8z M99.4,10.9c0.1-0.8,0.8-1.2,1.4-1.2s1.3,0.4,1.5,1.2H99.4z"/>
</g>
</svg>
