<?xml version="1.0" encoding="utf-8"?>
<!-- Generator: Adobe Illustrator 24.0.3, SVG Export Plug-In . SVG Version: 6.00 Build 0)  -->
<svg version="1.1" id="Слой_1" xmlns="http://www.w3.org/2000/svg" xmlns:xlink="http://www.w3.org/1999/xlink" x="0px" y="0px"
	 viewBox="0 0 136.2 14" style="enable-background:new 0 0 136.2 14;" xml:space="preserve">
<style type="text/css">
	.st0{fill:#FFFFFF;}
</style>
<g>
	<path class="st0" d="M23.8,0v4.8h-0.5V0.5h-1.6v1.9c0,1.1,0,2.5-1,2.5c-0.1,0-0.2,0-0.3,0V4.3c0.1,0,0.1,0,0.2,0
		c0.5,0,0.5-0.7,0.5-2.3V0H23.8z"/>
	<path class="st0" d="M24.8,0.6V0h0.5v0.6H24.8z M25.3,4.8h-0.5V1.2h0.5V4.8z"/>
	<path class="st0" d="M26.7,4.4H28V1.2h0.5v3.1h0.3v1.4h-0.5v-1h-2.1V1.2h0.5V4.4z"/>
	<path class="st0" d="M31.5,3.6c0,0.7-0.3,1.3-1.1,1.3S29.3,4.4,29.3,3c0-0.9,0.2-1.9,1.1-1.9c1,0,1.1,1.1,1.1,2h-1.7
		c0,0.8,0,1.3,0.6,1.3C30.9,4.5,31,4,31,3.6H31.5z M31,2.7c0-0.5-0.1-1.1-0.6-1.1c-0.6,0-0.6,0.7-0.6,1.1H31z"/>
	<path class="st0" d="M32.8,2.7h1.3V1.2h0.5v3.6h-0.5V3.1h-1.3v1.7h-0.5V1.2h0.5V2.7z"/>
	<path class="st0" d="M35.3,2.2c0-0.6,0.4-1,1.1-1c0.6,0,1.1,0.4,1.1,0.9c0,0.5-0.3,0.8-0.6,0.9v0c0.3,0.1,0.7,0.3,0.7,0.9
		c0,0.6-0.4,1.1-1.1,1.1c-0.7,0-1.1-0.4-1.2-1.2h0.5c0.1,0.6,0.3,0.8,0.7,0.8c0.4,0,0.6-0.2,0.6-0.7c0-0.4-0.2-0.7-0.6-0.7h-0.3V2.7
		h0.3c0.3,0,0.5-0.2,0.5-0.6c0-0.3-0.2-0.6-0.6-0.6c-0.4,0-0.6,0.3-0.6,0.6H35.3z"/>
	<path class="st0" d="M38.3,0.6V0h0.5v0.6H38.3z M38.8,4.8h-0.5V1.2h0.5V4.8z"/>
	<path class="st0" d="M40.8,3.3l-0.7,1.5h-0.6l0.8-1.6c-0.4-0.1-0.6-0.5-0.6-1c0-0.6,0.4-1,1-1h1.2v3.6h-0.5V3.3H40.8z M41.3,1.7
		h-0.6c-0.5,0-0.6,0.2-0.6,0.6c0,0.4,0.2,0.6,0.6,0.6h0.6V1.7z"/>
	<path class="st0" d="M44.9,2h1.8V0h0.5v4.8h-0.5V2.5h-1.8v2.3h-0.5V0h0.5V2z"/>
	<path class="st0" d="M50.7,0v0.5h-1.8V2h0.6C50.3,2,51,2.3,51,3.4c0,1-0.6,1.4-1.4,1.4h-1.3V0H50.7z M48.8,4.3h0.6
		c0.6,0,1-0.2,1-0.9c0-0.8-0.4-0.9-1.2-0.9h-0.5V4.3z"/>
	<path class="st0" d="M52,0l1.1,3.3l1-3.3h0.6l-1.3,4c-0.2,0.7-0.5,0.9-0.9,0.9c-0.2,0-0.3,0-0.4-0.1V4.4c0.1,0,0.2,0.1,0.4,0.1
		c0.2,0,0.3-0.1,0.4-0.5l-1.4-4H52z"/>
	<path class="st0" d="M57.6,0L59,3.9c0.1,0.2,0.1,0.3,0.2,0.5h0c0-0.2,0-0.4,0-0.5V0h0.5v4.8h-0.9L57.5,1c-0.1-0.2-0.1-0.4-0.2-0.7
		h0c0,0.2,0,0.5,0,0.7v3.8h-0.5V0H57.6z M61.8,2.7c0,0.7-0.2,1.2-0.8,1.2c-0.7,0-0.8-0.5-0.8-1.2c0-0.6,0.2-1.1,0.8-1.1
		C61.5,1.6,61.8,2.1,61.8,2.7z M60.1,4.5V4.3h1.6v0.3H60.1z M60.5,2.7c0,0.5,0.1,0.9,0.5,0.9c0.4,0,0.5-0.3,0.5-0.8
		c0-0.6-0.1-0.9-0.5-0.9C60.6,1.8,60.5,2.1,60.5,2.7z"/>
	<path class="st0" d="M66.4,2.2c0,1,0,2.7-1.4,2.7c-0.7,0-1.1-0.5-1.1-1.1h0.5c0,0.4,0.2,0.7,0.6,0.7c0.7,0,0.8-1.2,0.8-1.9h0
		C65.7,3,65.3,3.1,65,3.1c-0.9,0-1.2-0.7-1.2-1.5c0-1,0.5-1.7,1.3-1.7C66.3,0,66.4,1.2,66.4,2.2z M65.1,0.5c-0.6,0-0.7,0.6-0.7,1.1
		c0,0.5,0.1,1.1,0.7,1.1c0.6,0,0.8-0.5,0.8-1C65.8,1.2,65.7,0.5,65.1,0.5z"/>
	<path class="st0" d="M69.6,2.2c0,1,0,2.7-1.4,2.7c-0.7,0-1.1-0.5-1.1-1.1h0.5c0,0.4,0.2,0.7,0.6,0.7c0.7,0,0.8-1.2,0.8-1.9h0
		c-0.2,0.4-0.5,0.6-0.9,0.6c-0.9,0-1.2-0.7-1.2-1.5c0-1,0.5-1.7,1.3-1.7C69.5,0,69.6,1.2,69.6,2.2z M68.2,0.5
		c-0.6,0-0.7,0.6-0.7,1.1c0,0.5,0.1,1.1,0.7,1.1c0.6,0,0.8-0.5,0.8-1C69,1.2,68.9,0.5,68.2,0.5z"/>
	<path class="st0" d="M71.9,1.2h1.2c0.5,0,1,0.3,1,0.8c0,0.5-0.2,0.8-0.6,0.8v0c0.4,0.1,0.6,0.4,0.6,0.9c0,0.6-0.4,1-0.9,1h-1.3V1.2
		z M72.4,2.7H73c0.4,0,0.6-0.2,0.6-0.5c0-0.3-0.2-0.5-0.5-0.5h-0.6V2.7z M72.4,4.4H73c0.5,0,0.6-0.2,0.6-0.6c0-0.4-0.2-0.6-0.6-0.6
		h-0.6V4.4z"/>
	<path class="st0" d="M74.9,0.6V0h0.5v0.6H74.9z M75.4,4.8h-0.5V1.2h0.5V4.8z"/>
	<path class="st0" d="M76.8,2.4V1.2h1.9v3.1H79v1.4h-0.5v-1h-2.1v1H76V4.4h0.3C76.7,3.7,76.8,3.3,76.8,2.4z M78.2,1.7h-1v1
		c0,0.7-0.1,1.1-0.4,1.7h1.3V1.7z"/>
	<path class="st0" d="M82.3,1.3h-1V0.9c0.7,0,1.1-0.1,1.1-0.9h0.4v4.8h-0.5V1.3z"/>
	<path class="st0" d="M84.3,1.6V1.4c0-0.8,0.4-1.4,1.3-1.4c0.8,0,1.2,0.5,1.2,1.3c0,0.7-0.4,1.1-0.9,1.6c-0.9,0.8-1,0.9-1.1,1.4h2
		v0.5h-2.6c0-0.9,0.2-1.3,1.2-2.1c0.4-0.3,0.8-0.7,0.8-1.3c0-0.5-0.2-0.8-0.7-0.8c-0.6,0-0.7,0.5-0.7,1.2H84.3z"/>
	<path class="st0" d="M88.2,4.2v0.6h-0.6V4.2H88.2z"/>
	<path class="st0" d="M90.2,1.3h-1V0.9c0.7,0,1.1-0.1,1.1-0.9h0.4v4.8h-0.5V1.3z"/>
	<path class="st0" d="M92.2,2.4c0-0.9,0.1-2.4,1.3-2.4c1.2,0,1.3,1.5,1.3,2.4c0,1.1-0.1,2.5-1.3,2.5C92.3,4.9,92.2,3.5,92.2,2.4z
		 M93.5,4.4c0.7,0,0.8-1,0.8-2c0-0.8-0.1-2-0.8-2c-0.7,0-0.8,1.1-0.8,2C92.8,3.4,92.8,4.4,93.5,4.4z"/>
	<path class="st0" d="M96.2,4.2v0.6h-0.6V4.2H96.2z"/>
	<path class="st0" d="M97,1.6V1.4C97,0.6,97.4,0,98.3,0c0.8,0,1.2,0.5,1.2,1.3c0,0.7-0.4,1.1-0.9,1.6c-0.9,0.8-1,0.9-1.1,1.4h2v0.5
		H97c0-0.9,0.2-1.3,1.2-2.1C98.6,2.3,99,1.9,99,1.3c0-0.5-0.2-0.8-0.7-0.8c-0.6,0-0.7,0.5-0.7,1.2H97z"/>
	<path class="st0" d="M100.2,2.4c0-0.9,0.1-2.4,1.3-2.4c1.2,0,1.3,1.5,1.3,2.4c0,1.1-0.1,2.5-1.3,2.5C100.3,4.9,100.2,3.5,100.2,2.4
		z M101.5,4.4c0.7,0,0.8-1,0.8-2c0-0.8-0.1-2-0.8-2c-0.7,0-0.8,1.1-0.8,2C100.8,3.4,100.8,4.4,101.5,4.4z"/>
	<path class="st0" d="M104.6,1.3h-1V0.9c0.7,0,1.1-0.1,1.1-0.9h0.4v4.8h-0.5V1.3z"/>
	<path class="st0" d="M107.8,1.3h-1V0.9c0.7,0,1.1-0.1,1.1-0.9h0.4v4.8h-0.5V1.3z"/>
	<path class="st0" d="M112.1,1.6L112.1,1.6c0.2-0.3,0.5-0.5,0.7-0.5c0.9,0,1.2,0.8,1.2,1.8c0,1.1-0.2,1.9-1.1,1.9
		c-0.4,0-0.6-0.2-0.8-0.5V6h-0.5V1.2h0.5V1.6z M112.1,3c0,0.7,0,1.5,0.7,1.5c0.5,0,0.7-0.5,0.7-1.5c0-0.5-0.1-1.4-0.7-1.4
		C112.1,1.6,112.1,2.4,112.1,3z"/>
	<path class="st0" d="M115.4,4.2v0.6h-0.6V4.2H115.4z"/>
</g>
<g>
	<path class="st0" d="M0.5,12.8H0V8h1.3c0.9,0,1.4,0.4,1.4,1.4c0,1.1-0.7,1.4-1.5,1.4H0.5V12.8z M0.5,10.3h0.5
		c0.7,0,1.2-0.1,1.2-0.9c0-0.7-0.4-0.9-1-0.9H0.5V10.3z"/>
	<path class="st0" d="M5.7,11.6c0,0.7-0.3,1.3-1.1,1.3S3.5,12.4,3.5,11c0-0.9,0.2-1.9,1.1-1.9c1,0,1.1,1.1,1.1,2H4
		c0,0.8,0,1.3,0.6,1.3c0.5,0,0.6-0.4,0.6-0.9H5.7z M5.2,10.7c0-0.5-0.1-1.1-0.6-1.1C4.1,9.5,4,10.2,4,10.7H5.2z"/>
	<path class="st0" d="M8.2,10.3c0-0.4-0.1-0.8-0.6-0.8c-0.5,0-0.7,0.6-0.7,1.1h0.9v0.4H6.9c0,0.5,0.1,1.3,0.7,1.3
		c0.5,0,0.6-0.5,0.6-0.9h0.5c0,0.7-0.3,1.3-1.1,1.3c-1.1,0-1.2-0.9-1.2-1.8c0-0.9,0.1-1.9,1.2-1.9c0.7,0,1.1,0.5,1.1,1.2H8.2z"/>
	<path class="st0" d="M9.8,11c0,0.6,0,1.4,0.7,1.4c0.5,0,0.6-0.5,0.6-0.9h0.5c0,0.7-0.3,1.3-1.1,1.3c-1.1,0-1.2-0.9-1.2-1.8
		c0-0.9,0.2-1.9,1.2-1.9c0.7,0,1.1,0.5,1.1,1.2h-0.5c0-0.4-0.1-0.8-0.6-0.8C9.9,9.5,9.8,10.3,9.8,11z"/>
	<path class="st0" d="M12.8,12.8V9.6h-0.9V9.2h2.4v0.4h-0.9v3.1H12.8z"/>
	<path class="st0" d="M15.3,9.6L15.3,9.6c0.2-0.3,0.5-0.5,0.7-0.5c0.9,0,1.2,0.8,1.2,1.8c0,1.1-0.2,1.9-1.1,1.9
		c-0.4,0-0.6-0.2-0.8-0.5V14h-0.5V9.2h0.5V9.6z M15.3,11c0,0.7,0,1.5,0.7,1.5c0.5,0,0.7-0.5,0.7-1.5c0-0.5-0.1-1.4-0.7-1.4
		C15.4,9.5,15.3,10.4,15.3,11z"/>
	<path class="st0" d="M18,10.2c0-0.7,0.4-1.1,1-1.1c0.7,0,1,0.4,1,0.9v2.1c0,0.2,0.1,0.3,0.2,0.3c0,0,0.1,0,0.1,0v0.4
		c0,0-0.1,0-0.2,0c-0.3,0-0.5,0-0.5-0.5h0c-0.1,0.3-0.4,0.6-0.8,0.6c-0.6,0-0.9-0.3-0.9-1c0-0.6,0.3-0.9,0.9-1.1
		c0.2-0.1,0.6-0.2,0.6-0.3c0.1-0.1,0.1-0.2,0.1-0.4c0-0.4-0.1-0.6-0.5-0.6c-0.4,0-0.5,0.2-0.5,0.6H18z M18.4,11.9
		c0,0.3,0.1,0.5,0.5,0.5c0.5,0,0.7-0.4,0.7-0.7v-0.9C19,11.1,18.4,11.2,18.4,11.9z"/>
	<path class="st0" d="M21.4,12.3h1.3V9.2h0.5v3.1h0.3v1.4h-0.5v-1h-2.1V9.2h0.5V12.3z"/>
	<path class="st0" d="M24.1,8.6V8h0.5v0.6H24.1z M24.6,12.8h-0.5V9.2h0.5V12.8z"/>
	<path class="st0" d="M26.1,9.2v2.7c0,0.1,0,0.3-0.1,0.4h0c0-0.2,0.1-0.3,0.1-0.4l1.2-2.7h0.6v3.6h-0.5v-2.7c0-0.1,0-0.3,0.1-0.4h0
		c0,0.1-0.1,0.4-0.1,0.4l-1.2,2.7h-0.6V9.2H26.1z M26.2,8.1c0.1,0.3,0.3,0.4,0.6,0.4c0.3,0,0.5-0.1,0.5-0.4h0.3
		c0,0.6-0.4,0.8-0.8,0.8c-0.4,0-0.8-0.2-0.8-0.8H26.2z"/>
	<path class="st0" d="M29.4,10.7h1.3V9.2h0.5v3.6h-0.5v-1.7h-1.3v1.7h-0.5V9.2h0.5V10.7z"/>
	<path class="st0" d="M32.6,9.2v2.7c0,0.1,0,0.3-0.1,0.4h0c0-0.2,0.1-0.3,0.1-0.4l1.2-2.7h0.6v3.6h-0.5v-2.7c0-0.1,0-0.3,0.1-0.4h0
		c0,0.1-0.1,0.4-0.1,0.4l-1.2,2.7H32V9.2H32.6z"/>
	<path class="st0" d="M35.8,9.2v2.7c0,0.1,0,0.3-0.1,0.4h0c0-0.2,0.1-0.3,0.1-0.4l1.2-2.7h0.6v3.6h-0.5v-2.7c0-0.1,0-0.3,0.1-0.4h0
		c0,0.1-0.1,0.4-0.1,0.4l-1.2,2.7h-0.6V9.2H35.8z M36,8.1c0.1,0.3,0.3,0.4,0.6,0.4c0.3,0,0.5-0.1,0.5-0.4h0.3c0,0.6-0.4,0.8-0.8,0.8
		c-0.4,0-0.8-0.2-0.8-0.8H36z"/>
	<path class="st0" d="M41.1,8l1.4,3.9c0.1,0.2,0.1,0.3,0.2,0.5h0c0-0.2,0-0.4,0-0.5V8h0.5v4.8h-0.9l-1.3-3.8
		c-0.1-0.2-0.1-0.4-0.2-0.7h0c0,0.2,0,0.5,0,0.7v3.8h-0.5V8H41.1z M45.2,10.7c0,0.7-0.2,1.2-0.8,1.2c-0.7,0-0.8-0.5-0.8-1.2
		c0-0.6,0.2-1.1,0.8-1.1C45,9.6,45.2,10,45.2,10.7z M43.6,12.5v-0.3h1.6v0.3H43.6z M43.9,10.7c0,0.5,0.1,0.9,0.5,0.9
		c0.4,0,0.5-0.3,0.5-0.8c0-0.6-0.1-0.9-0.5-0.9C44.1,9.8,43.9,10.1,43.9,10.7z"/>
	<path class="st0" d="M48.4,9.3h-1V8.8c0.7,0,1.1-0.1,1.1-0.9H49v4.8h-0.5V9.3z"/>
	<path class="st0" d="M52.1,8h0.5v3.1H53v0.5h-0.4v1.2h-0.5v-1.2h-1.8v-0.5L52.1,8z M50.7,11.1h1.3V8.8L50.7,11.1z"/>
	<path class="st0" d="M56.3,10.2c0,1,0,2.7-1.4,2.7c-0.7,0-1.1-0.5-1.1-1.1h0.5c0,0.4,0.2,0.7,0.6,0.7c0.7,0,0.8-1.2,0.8-1.9h0
		c-0.2,0.4-0.5,0.6-0.9,0.6c-0.9,0-1.2-0.7-1.2-1.5c0-1,0.5-1.7,1.3-1.7C56.2,8,56.3,9.2,56.3,10.2z M54.9,8.5
		c-0.6,0-0.7,0.6-0.7,1.1c0,0.5,0.1,1.1,0.7,1.1c0.6,0,0.8-0.5,0.8-1C55.7,9.1,55.5,8.5,54.9,8.5z"/>
	<path class="st0" d="M58.7,9.2l0.8,2.8h0l0.8-2.8h0.5l-1.1,3.6c-0.2,0.7-0.4,1.2-1.1,1.2c-0.1,0-0.2,0-0.4-0.1v-0.4
		c0.1,0.1,0.3,0.1,0.4,0.1c0.4,0,0.5-0.3,0.6-0.7l-1.1-3.6H58.7z"/>
	<path class="st0" d="M66,8v4.3h0.4v1.6h-0.5v-1.1h-2.7v1.1h-0.5v-1.6H63c0.5-0.8,0.5-1.7,0.5-3.1V8H66z M64,8.5v1.2
		c0,1.1-0.2,2-0.5,2.6h1.9V8.5H64z"/>
	<path class="st0" d="M69.1,11.6c0,0.7-0.3,1.3-1.1,1.3s-1.2-0.4-1.2-1.9c0-0.9,0.2-1.9,1.1-1.9c1,0,1.1,1.1,1.1,2h-1.7
		c0,0.8,0,1.3,0.6,1.3c0.5,0,0.6-0.4,0.6-0.9H69.1z M68.6,10.7c0-0.5-0.1-1.1-0.6-1.1c-0.6,0-0.6,0.7-0.6,1.1H68.6z"/>
	<path class="st0" d="M70.4,9.6L70.4,9.6c0.2-0.3,0.5-0.5,0.7-0.5c0.9,0,1.2,0.8,1.2,1.8c0,1.1-0.2,1.9-1.1,1.9
		c-0.4,0-0.6-0.2-0.8-0.5V14h-0.5V9.2h0.5V9.6z M70.4,11c0,0.7,0,1.5,0.7,1.5c0.5,0,0.7-0.5,0.7-1.5c0-0.5-0.1-1.4-0.7-1.4
		C70.5,9.5,70.4,10.4,70.4,11z"/>
	<path class="st0" d="M75.1,9.2v1.7l1.2-1.7h0.6l-1.1,1.4l1.1,2.2h-0.6L75.5,11l-0.4,0.5v1.3h-0.5v-1.3L74.2,11l-0.9,1.8h-0.6
		l1.1-2.2l-1.1-1.4h0.6l1.2,1.7V9.2H75.1z"/>
	<path class="st0" d="M77.4,10.2c0-0.7,0.4-1.1,1-1.1c0.7,0,1,0.4,1,0.9v2.1c0,0.2,0.1,0.3,0.2,0.3c0,0,0.1,0,0.1,0v0.4
		c0,0-0.1,0-0.2,0c-0.3,0-0.5,0-0.5-0.5h0c-0.1,0.3-0.4,0.6-0.8,0.6c-0.6,0-0.9-0.3-0.9-1c0-0.6,0.3-0.9,0.9-1.1
		c0.2-0.1,0.6-0.2,0.6-0.3c0.1-0.1,0.1-0.2,0.1-0.4c0-0.4-0.1-0.6-0.5-0.6c-0.4,0-0.5,0.2-0.5,0.6H77.4z M77.8,11.9
		c0,0.3,0.1,0.5,0.5,0.5c0.5,0,0.7-0.4,0.7-0.7v-0.9C78.4,11.1,77.8,11.2,77.8,11.9z"/>
	<path class="st0" d="M80.4,9.2h1.2c0.5,0,1,0.3,1,0.8c0,0.5-0.2,0.8-0.6,0.8v0c0.4,0.1,0.6,0.4,0.6,0.9c0,0.6-0.4,1-0.9,1h-1.3V9.2
		z M80.9,10.7h0.5c0.4,0,0.6-0.2,0.6-0.5c0-0.3-0.2-0.5-0.5-0.5h-0.6V10.7z M80.9,12.3h0.6c0.5,0,0.6-0.2,0.6-0.6
		c0-0.4-0.2-0.6-0.6-0.6h-0.6V12.3z"/>
	<path class="st0" d="M83.9,10.7h1.3V9.2h0.5v3.6h-0.5v-1.7h-1.3v1.7h-0.5V9.2h0.5V10.7z"/>
	<path class="st0" d="M89,11c0,1.5-0.5,1.9-1.3,1.9c-0.8,0-1.3-0.4-1.3-1.9c0-1.2,0.4-1.9,1.3-1.9S89,9.8,89,11z M87,11
		c0,0.8,0.2,1.4,0.7,1.4c0.6,0,0.7-0.6,0.7-1.4c0-1.1-0.2-1.5-0.7-1.5C87.2,9.5,87,10,87,11z"/>
	<path class="st0" d="M90.6,9.2l0.6,2.3c0,0.2,0.1,0.5,0.1,0.7h0c0-0.2,0.1-0.5,0.1-0.7l0.6-2.3h0.8v3.6h-0.5V9.6h0l-0.9,3.1h-0.3
		l-0.9-3.1h0v3.1h-0.5V9.2H90.6z"/>
	<path class="st0" d="M94,9.2l0.8,2.8h0l0.8-2.8h0.5L95,12.8c-0.2,0.7-0.4,1.2-1.1,1.2c-0.1,0-0.2,0-0.4-0.1v-0.4
		c0.1,0.1,0.3,0.1,0.4,0.1c0.4,0,0.5-0.3,0.6-0.7l-1.1-3.6H94z"/>
	<path class="st0" d="M98.7,9.6L98.7,9.6c0.2-0.3,0.5-0.5,0.7-0.5c0.9,0,1.2,0.8,1.2,1.8c0,1.1-0.2,1.9-1.1,1.9
		c-0.4,0-0.6-0.2-0.8-0.5V14h-0.5V9.2h0.5V9.6z M98.7,11c0,0.7,0,1.5,0.7,1.5c0.5,0,0.7-0.5,0.7-1.5c0-0.5-0.1-1.4-0.7-1.4
		C98.8,9.5,98.7,10.4,98.7,11z"/>
	<path class="st0" d="M103.5,11.6c0,0.7-0.3,1.3-1.1,1.3s-1.2-0.4-1.2-1.9c0-0.9,0.2-1.9,1.1-1.9c1,0,1.1,1.1,1.1,2h-1.7
		c0,0.8,0,1.3,0.6,1.3c0.5,0,0.6-0.4,0.6-0.9H103.5z M103,10.7c0-0.5-0.1-1.1-0.6-1.1c-0.6,0-0.6,0.7-0.6,1.1H103z"/>
	<path class="st0" d="M106,10.3c0-0.4-0.1-0.8-0.6-0.8c-0.5,0-0.7,0.6-0.7,1.1h0.9v0.4h-0.9c0,0.5,0.1,1.3,0.7,1.3
		c0.5,0,0.6-0.5,0.6-0.9h0.5c0,0.7-0.3,1.3-1.1,1.3c-1.1,0-1.2-0.9-1.2-1.8c0-0.9,0.1-1.9,1.2-1.9c0.7,0,1.1,0.5,1.1,1.2H106z"/>
	<path class="st0" d="M107.6,11c0,0.6,0,1.4,0.7,1.4c0.5,0,0.6-0.5,0.6-0.9h0.5c0,0.7-0.3,1.3-1.1,1.3c-1.1,0-1.2-0.9-1.2-1.8
		c0-0.9,0.2-1.9,1.2-1.9c0.7,0,1.1,0.5,1.1,1.2h-0.5c0-0.4-0.1-0.8-0.6-0.8C107.7,9.5,107.6,10.3,107.6,11z"/>
	<path class="st0" d="M110.7,12.8V9.6h-0.9V9.2h2.4v0.4h-0.9v3.1H110.7z"/>
	<path class="st0" d="M113.2,9.6L113.2,9.6c0.2-0.3,0.5-0.5,0.7-0.5c0.9,0,1.2,0.8,1.2,1.8c0,1.1-0.2,1.9-1.1,1.9
		c-0.4,0-0.6-0.2-0.8-0.5V14h-0.5V9.2h0.5V9.6z M113.2,11c0,0.7,0,1.5,0.7,1.5c0.5,0,0.7-0.5,0.7-1.5c0-0.5-0.1-1.4-0.7-1.4
		C113.2,9.5,113.2,10.4,113.2,11z"/>
	<path class="st0" d="M115.9,8.6V8h0.5v0.6H115.9z M116.4,12.8h-0.5V9.2h0.5V12.8z"/>
	<path class="st0" d="M120.1,9.3c0.7,0,1.2,0.6,1.2,1.7c0,1.3-0.4,1.9-1.3,1.9c-0.9,0-1.3-0.7-1.3-2.1c0-1.5,0.4-2.2,1.2-2.4
		c0.4-0.1,0.8-0.2,0.8-0.4h0.4c-0.1,0.5-0.5,0.6-1,0.8c-0.5,0.1-0.8,0.5-0.9,1.1C119.4,9.5,119.7,9.3,120.1,9.3z M120.8,11
		c0-0.7-0.2-1.3-0.7-1.3c-0.5,0-0.7,0.5-0.7,1.3c0,0.9,0.2,1.4,0.7,1.4S120.8,11.9,120.8,11z"/>
	<path class="st0" d="M122,10.2c0-0.7,0.4-1.1,1-1.1c0.7,0,1,0.4,1,0.9v2.1c0,0.2,0.1,0.3,0.2,0.3c0,0,0.1,0,0.1,0v0.4
		c0,0-0.1,0-0.2,0c-0.3,0-0.5,0-0.5-0.5h0c-0.1,0.3-0.4,0.6-0.8,0.6c-0.6,0-0.9-0.3-0.9-1c0-0.6,0.3-0.9,0.9-1.1
		c0.2-0.1,0.6-0.2,0.6-0.3c0.1-0.1,0.1-0.2,0.1-0.4c0-0.4-0.1-0.6-0.5-0.6c-0.4,0-0.5,0.2-0.5,0.6H122z M122.4,11.9
		c0,0.3,0.1,0.5,0.5,0.5c0.5,0,0.7-0.4,0.7-0.7v-0.9C123,11.1,122.4,11.2,122.4,11.9z"/>
	<path class="st0" d="M125.5,10.7h1.3V9.2h0.5v3.6h-0.5v-1.7h-1.3v1.7H125V9.2h0.5V10.7z"/>
	<path class="st0" d="M128.7,10.9l1.2-1.7h0.6l-1.1,1.4l1.1,2.2H130l-0.9-1.8l-0.4,0.5v1.3h-0.5V9.2h0.5V10.9z"/>
	<path class="st0" d="M131.1,8.6V8h0.5v0.6H131.1z M131.6,12.8h-0.5V9.2h0.5V12.8z"/>
	<path class="st0" d="M132.5,9.2h1.2c0.5,0,1,0.3,1,0.8c0,0.5-0.2,0.8-0.6,0.8v0c0.4,0.1,0.6,0.4,0.6,0.9c0,0.6-0.4,1-0.9,1h-1.3
		V9.2z M133,10.7h0.5c0.4,0,0.6-0.2,0.6-0.5c0-0.3-0.2-0.5-0.5-0.5H133V10.7z M133,12.3h0.6c0.5,0,0.6-0.2,0.6-0.6
		c0-0.4-0.2-0.6-0.6-0.6H133V12.3z"/>
	<path class="st0" d="M136.2,12.1v0.6h-0.6v-0.6H136.2z"/>
</g>
</svg>
