<?xml version="1.0" encoding="utf-8"?>
<!-- Generator: Adobe Illustrator 24.1.3, SVG Export Plug-In . SVG Version: 6.00 Build 0)  -->
<svg version="1.1" id="Слой_1" xmlns="http://www.w3.org/2000/svg" xmlns:xlink="http://www.w3.org/1999/xlink" x="0px" y="0px"
	 viewBox="0 0 117.2 53.8" style="enable-background:new 0 0 117.2 53.8;" xml:space="preserve">
<style type="text/css">
	.st0{fill-rule:evenodd;clip-rule:evenodd;fill:#FFFFFF;}
	.st1{fill:#002458;}
</style>
<path class="st0" d="M0,0h117.2v53.8H0V0z"/>
<path class="st1" d="M25.4,29.6h-2.5c-0.2,0-0.3,0-0.4-0.1c-0.1-0.1-0.1-0.1-0.1-0.2c0-0.1,0-0.2,0-0.3v-2.3h-0.9
	c-2.3,0-3.9-0.8-4.9-2.5c-0.6-1-0.9-2.5-0.9-4.5c0-1.9,0.3-3.4,0.9-4.5c1-1.7,2.6-2.6,4.9-2.6h0.9v-2c0-0.2,0-0.3,0.1-0.4
	c0.1-0.1,0.1-0.1,0.2-0.1c0.1,0,0.2,0,0.3,0h2.5c0.2,0,0.3,0,0.4,0.1c0.1,0.1,0.1,0.1,0.1,0.2c0,0.1,0,0.2,0,0.3v2h0.9
	c2.3,0,3.9,0.9,4.9,2.6c0.6,1,0.9,2.5,0.9,4.5c0,2-0.3,3.5-0.9,4.5c-1,1.7-2.6,2.5-4.9,2.5H26V29c0,0.1,0,0.2,0,0.3
	c0,0.1-0.1,0.1-0.1,0.2C25.8,29.6,25.6,29.6,25.4,29.6 M21.8,23.9h0.6v-8.5h-0.6c-0.8,0-1.5,0.3-1.9,0.9c-0.4,0.6-0.7,1.7-0.7,3.4
	s0.2,2.9,0.7,3.4C20.3,23.6,21,23.9,21.8,23.9 M26.5,15.4h-0.6v8.5h0.6c0.8,0,1.5-0.3,1.9-0.9c0.4-0.6,0.7-1.7,0.7-3.4
	s-0.2-2.9-0.7-3.4C28,15.7,27.4,15.4,26.5,15.4"/>
<path class="st1" d="M45.9,23.8h-7.2c0,2.3,1,3.4,3,3.4c0.9,0,1.8-0.2,2.7-0.6c0.4-0.2,0.6-0.3,0.7-0.3c0.1,0,0.2,0.1,0.3,0.2
	l0.7,1.6c0.1,0.1,0.1,0.2,0.1,0.2c0,0.2-0.1,0.4-0.4,0.6c-1.1,0.7-2.5,1.1-4.3,1.1c-1.1,0-2-0.2-2.8-0.5c-0.8-0.4-1.4-0.8-1.8-1.3
	c-0.4-0.5-0.7-1.1-1-1.8c-0.2-0.7-0.4-1.3-0.4-1.7c-0.1-0.5-0.1-0.9-0.1-1.4c0-2.2,0.5-4,1.6-5.4c1-1.4,2.5-2.1,4.3-2.1
	c2.7,0,4.4,1.5,5.1,4.4c0.2,0.8,0.3,1.8,0.3,2.8c0,0.4,0,0.6-0.1,0.7C46.3,23.8,46.1,23.8,45.9,23.8 M38.7,21.3h4.2
	c0-0.5,0-1-0.1-1.4c-0.2-1.1-0.8-1.6-1.8-1.6C39.6,18.3,38.8,19.3,38.7,21.3"/>
<path class="st1" d="M59,17.7l-1,1.8c0,0.1-0.1,0.1-0.2,0.1c0,0-0.3-0.2-0.8-0.5c-0.6-0.4-1.2-0.6-1.8-0.6c-1,0-1.6,0.4-2.1,1.3
	c-0.4,0.8-0.5,1.9-0.5,3.4c0,1.4,0.2,2.4,0.5,3c0.5,0.8,1.2,1.2,2.2,1.2c0.6,0,1.2-0.2,1.7-0.5c0.5-0.3,0.8-0.4,0.8-0.4
	c0.1,0,0.2,0,0.2,0.1l0.7,1.8c0.1,0.1,0.1,0.2,0.1,0.3c0,0.2-0.2,0.5-0.7,0.7c-0.9,0.5-1.9,0.7-3.1,0.7c-1.7,0-3.2-0.5-4.3-1.6
	c-1.1-1.1-1.7-2.8-1.7-5.2c0-2.5,0.6-4.4,1.8-5.6c1.2-1.2,2.7-1.8,4.5-1.8c1.2,0,2.3,0.3,3.3,0.9c0.4,0.3,0.6,0.5,0.6,0.7
	C59.1,17.5,59.1,17.6,59,17.7"/>
<path class="st1" d="M67.9,18.9v10.3c0,0.2,0,0.3-0.1,0.3c0,0-0.1,0.1-0.3,0.1h-2.7c-0.2,0-0.3,0-0.3-0.1c0,0-0.1-0.1-0.1-0.3V18.9
	h-3.1c-0.1,0-0.2,0-0.3-0.1c-0.1-0.1-0.1-0.2-0.1-0.3v-1.9c0-0.1,0-0.2,0.1-0.3c0.1-0.1,0.2-0.1,0.3-0.1h9.8c0.3,0,0.4,0.1,0.4,0.2
	c0,0.1,0,0.2,0,0.4l-0.4,1.8c-0.1,0.3-0.2,0.4-0.4,0.4H67.9"/>
<path class="st1" d="M83.9,29.1L81.7,30c-0.2,0.1-0.4,0-0.6-0.3c-0.2-0.5-0.4-0.9-0.5-1.3l-0.1,0.1c-1,1-2.2,1.5-3.4,1.5
	c-1.2,0-2.2-0.4-2.9-1.1c-0.7-0.7-1.1-1.7-1.1-3c0-1.5,0.5-2.7,1.6-3.5c0.6-0.4,1.4-0.7,2.4-0.9c1-0.2,2-0.2,2.9-0.2v-0.8
	c0-0.7-0.1-1.2-0.3-1.5c-0.3-0.4-0.8-0.5-1.5-0.5c-0.7,0-1.4,0.1-2.2,0.4c-0.2,0.1-0.4,0.1-0.6,0.2c-0.2,0.1-0.3,0.1-0.4,0.1
	c-0.1,0-0.2,0.1-0.2,0.1c-0.1,0-0.1,0-0.1,0c-0.1,0-0.2-0.1-0.3-0.3l-0.6-1.7c-0.1-0.2-0.1-0.3,0-0.4c0.1-0.1,0.3-0.2,0.6-0.4
	c1-0.5,2.4-0.7,4.1-0.7c2,0,3.4,0.6,4,1.7c0.4,0.7,0.6,1.5,0.6,2.6v5.2c0,1.1,0.1,2,0.4,2.7c0.2,0.5,0.3,0.8,0.3,0.8
	C84.1,29,84.1,29.1,83.9,29.1 M80.2,26.5v-3h-0.2c-2.4,0-3.6,0.7-3.6,2.2c0,0.5,0.2,1,0.5,1.3c0.3,0.3,0.8,0.5,1.3,0.5
	C78.9,27.5,79.6,27.2,80.2,26.5"/>
<path class="st1" d="M94.8,18.9h-2.3v0.4c0,3.7-0.3,6.3-0.9,7.8c-0.3,0.6-0.6,1.2-1,1.6c-0.4,0.4-0.8,0.7-1.3,0.9
	c-0.4,0.2-0.8,0.3-1.1,0.3c-0.3,0.1-0.6,0.1-0.8,0.1c-0.3,0-0.5-0.1-0.6-0.4l-0.5-2c-0.1-0.3,0-0.4,0.3-0.5l0.5-0.1
	c0.5-0.1,0.9-0.3,1.2-0.6c0.3-0.3,0.5-0.8,0.6-1.4c0.2-1.1,0.4-3.5,0.4-7.2v-1.2c0-0.2,0-0.3,0.1-0.3c0,0,0.1-0.1,0.3-0.1h8.3
	c0.1,0,0.2,0,0.3,0.1c0.1,0.1,0.1,0.2,0.1,0.3v12.6c0,0.2,0,0.3-0.1,0.3c0,0-0.1,0.1-0.3,0.1h-2.7c-0.1,0-0.2,0-0.3-0.1
	c-0.1-0.1-0.1-0.2-0.1-0.3V18.9"/>
<path class="st1" d="M101.8,16.2c-0.6-0.6-0.9-1.3-0.9-2.1c0-0.8,0.3-1.5,0.9-2.1c0.6-0.6,1.3-0.9,2.1-0.9c0.8,0,1.6,0.3,2.1,0.9
	c0.6,0.6,0.9,1.3,0.9,2.1c0,0.8-0.3,1.5-0.9,2.1c-0.6,0.6-1.3,0.9-2.1,0.9C103.1,17.1,102.4,16.8,101.8,16.2 M102.4,12.4
	c-0.4,0.5-0.7,1-0.7,1.7c0,0.7,0.2,1.2,0.7,1.7c0.4,0.5,1,0.7,1.6,0.7c0.6,0,1.2-0.2,1.6-0.7c0.4-0.5,0.7-1,0.7-1.7
	c0-0.7-0.2-1.2-0.7-1.7c-0.4-0.5-1-0.7-1.6-0.7C103.3,11.7,102.8,12,102.4,12.4 M103.1,12.4h1c0.4,0,0.6,0.1,0.8,0.3
	c0.2,0.2,0.3,0.4,0.3,0.7c0,0.4-0.2,0.7-0.6,0.9l0.7,1.1c0.1,0.1,0.1,0.2,0.1,0.2c0,0,0,0.1-0.1,0.1l-0.4,0.1c-0.1,0-0.2,0-0.3-0.1
	l-0.6-1.3h-0.2v1.1c0,0.1-0.1,0.2-0.2,0.2h-0.5c-0.1,0-0.2-0.1-0.2-0.2v-3C102.9,12.5,103,12.4,103.1,12.4 M103.7,13v0.8h0.3
	c0.3,0,0.4-0.1,0.4-0.4c0-0.3-0.1-0.4-0.4-0.4H103.7z"/>
<path class="st1" d="M20.4,40.1h-3.5v4.3c0,0.1-0.1,0.2-0.2,0.2h-0.8c-0.1,0-0.2-0.1-0.2-0.2v-9.1c0-0.1,0.1-0.2,0.2-0.2h0.8
	c0.1,0,0.2,0.1,0.2,0.2v3.9h3.5v-3.9c0-0.1,0.1-0.2,0.2-0.2h0.8c0.1,0,0.2,0.1,0.2,0.2v9.1c0,0.1-0.1,0.2-0.2,0.2h-0.8
	c-0.1,0-0.2-0.1-0.2-0.2V40.1"/>
<path class="st1" d="M28.6,43.7v0.6c0,0.1-0.1,0.2-0.2,0.2h-4.3c-0.1,0-0.2-0.1-0.2-0.2v-9.1c0-0.1,0.1-0.2,0.2-0.2h4.3
	c0.1,0,0.2,0,0.1,0.1l-0.2,0.7c0,0.1-0.1,0.1-0.2,0.1h-3.1v3.1h2.7c0.1,0,0.2,0.1,0.2,0.2v0.6c0,0.1-0.1,0.2-0.2,0.2h-2.7v3.5h3.3
	C28.5,43.6,28.6,43.6,28.6,43.7"/>
<path class="st1" d="M35.9,37.7c0.1,0.6,0.2,1.3,0.2,2.1c0,0.8-0.1,1.5-0.2,2.1c-0.1,0.6-0.3,1.1-0.5,1.4c-0.2,0.3-0.5,0.6-0.8,0.8
	c-0.3,0.2-0.6,0.4-0.8,0.4c-0.3,0.1-0.5,0.1-0.8,0.1c-0.3,0-0.6,0-0.8-0.1c-0.3-0.1-0.5-0.2-0.8-0.4c-0.3-0.2-0.5-0.5-0.7-0.8
	c-0.2-0.3-0.4-0.8-0.5-1.4c-0.1-0.6-0.2-1.3-0.2-2.1c0-0.3,0-0.5,0-0.8c0-0.2,0-0.6,0.1-1c0.1-0.4,0.2-0.8,0.3-1.1
	c0.1-0.3,0.3-0.7,0.5-1c0.2-0.3,0.5-0.6,0.9-0.8c0.4-0.2,0.8-0.3,1.3-0.3c0.3,0,0.6,0,0.8,0.1c0.3,0.1,0.5,0.2,0.8,0.4
	c0.3,0.2,0.5,0.5,0.7,0.8C35.6,36.6,35.7,37.1,35.9,37.7 M33,43.8c0.3,0,0.5-0.1,0.7-0.2c0.2-0.1,0.4-0.2,0.5-0.4
	c0.1-0.1,0.2-0.3,0.3-0.6c0.1-0.2,0.2-0.5,0.2-0.7c0-0.2,0.1-0.4,0.1-0.8c0-0.3,0-0.5,0-0.7V40v-0.2c0-0.4,0-0.8,0-1.1
	c0-0.3-0.1-0.7-0.1-1c-0.1-0.4-0.2-0.7-0.3-0.9c-0.1-0.2-0.3-0.4-0.5-0.6c-0.2-0.2-0.5-0.2-0.9-0.2c-0.3,0-0.5,0.1-0.7,0.2
	s-0.4,0.2-0.5,0.4c-0.1,0.1-0.2,0.3-0.3,0.6c-0.1,0.3-0.2,0.5-0.2,0.7c0,0.2-0.1,0.4-0.1,0.8c0,0.3,0,0.5,0,0.7c0,0.2,0,0.4,0,0.6
	v0.1c0,1.2,0.1,2.1,0.2,2.6C31.6,43.3,32.2,43.8,33,43.8"/>
<path class="st1" d="M46.4,43.8v0.6c0,0.1-0.1,0.2-0.2,0.2h-3.7c-0.1,0-0.2-0.1-0.2-0.2v-0.6c0-0.1,0.1-0.2,0.2-0.2h1.4v-6.7L42,38
	C42,38,41.9,38,41.9,38L41.8,38l-0.2-0.4l0-0.1c0,0,0-0.1,0.1-0.1l2.5-1.7h0.7c0.1,0,0.2,0.1,0.2,0.2v7.8h1.2
	C46.3,43.6,46.4,43.7,46.4,43.8"/>
<path class="st1" d="M47.7,40.2c0-0.8,0.1-1.4,0.2-2c0.1-0.6,0.3-1,0.5-1.4c0.2-0.3,0.4-0.6,0.7-0.8c0.3-0.2,0.5-0.4,0.8-0.4
	c0.2-0.1,0.5-0.1,0.7-0.1c0.8,0,1.4,0.3,2,1s0.8,1.8,0.8,3.5c0,0.8-0.1,1.4-0.2,2c-0.1,0.6-0.3,1-0.5,1.4c-0.2,0.3-0.4,0.6-0.7,0.8
	c-0.3,0.2-0.5,0.4-0.8,0.4c-0.2,0.1-0.5,0.1-0.8,0.1c-0.2,0-0.5,0-0.7-0.1c-0.2-0.1-0.5-0.2-0.7-0.4c-0.3-0.2-0.5-0.5-0.7-0.8
	c-0.2-0.3-0.3-0.8-0.5-1.3C47.8,41.5,47.7,40.9,47.7,40.2 M50.6,36.4c-1.2,0-1.7,1.2-1.7,3.7c0,2.4,0.6,3.6,1.7,3.6
	c0.4,0,0.7-0.1,0.9-0.3c0.2-0.2,0.4-0.5,0.5-0.9c0.1-0.4,0.2-0.8,0.2-1.2c0-0.4,0.1-0.8,0.1-1.3c0-0.5,0-0.9,0-1.2
	c0-0.3-0.1-0.7-0.2-1.1c-0.1-0.4-0.3-0.7-0.5-0.9C51.3,36.5,51,36.4,50.6,36.4"/>
<path class="st1" d="M58.3,40.2c0-0.8,0.1-1.4,0.2-2c0.1-0.6,0.3-1,0.5-1.4c0.2-0.3,0.4-0.6,0.7-0.8c0.3-0.2,0.5-0.4,0.8-0.4
	c0.2-0.1,0.5-0.1,0.7-0.1c0.8,0,1.4,0.3,2,1c0.5,0.7,0.8,1.8,0.8,3.5c0,0.8-0.1,1.4-0.2,2c-0.1,0.6-0.3,1-0.5,1.4
	c-0.2,0.3-0.4,0.6-0.7,0.8c-0.3,0.2-0.5,0.4-0.8,0.4c-0.2,0.1-0.5,0.1-0.8,0.1c-0.2,0-0.5,0-0.7-0.1c-0.2-0.1-0.5-0.2-0.7-0.4
	c-0.3-0.2-0.5-0.5-0.7-0.8c-0.2-0.3-0.3-0.8-0.5-1.3C58.4,41.5,58.3,40.9,58.3,40.2 M61.2,36.4c-1.2,0-1.7,1.2-1.7,3.7
	c0,2.4,0.6,3.6,1.7,3.6c0.4,0,0.7-0.1,0.9-0.3c0.2-0.2,0.4-0.5,0.5-0.9c0.1-0.4,0.2-0.8,0.2-1.2c0-0.4,0.1-0.8,0.1-1.3
	c0-0.5,0-0.9,0-1.2c0-0.3-0.1-0.7-0.2-1.1c-0.1-0.4-0.3-0.7-0.5-0.9C61.9,36.5,61.6,36.4,61.2,36.4"/>
<path class="st1" d="M65.5,40.2c0-0.8,0.1-1.4,0.2-2c0.1-0.6,0.3-1,0.5-1.4c0.2-0.3,0.4-0.6,0.7-0.8c0.3-0.2,0.5-0.4,0.8-0.4
	c0.2-0.1,0.5-0.1,0.7-0.1c0.8,0,1.4,0.3,2,1c0.5,0.7,0.8,1.8,0.8,3.5c0,0.8-0.1,1.4-0.2,2c-0.1,0.6-0.3,1-0.5,1.4
	c-0.2,0.3-0.4,0.6-0.7,0.8c-0.3,0.2-0.5,0.4-0.8,0.4c-0.2,0.1-0.5,0.1-0.8,0.1c-0.2,0-0.5,0-0.7-0.1c-0.2-0.1-0.5-0.2-0.7-0.4
	c-0.3-0.2-0.5-0.5-0.7-0.8c-0.2-0.3-0.3-0.8-0.5-1.3C65.6,41.5,65.5,40.9,65.5,40.2 M68.4,36.4c-1.2,0-1.7,1.2-1.7,3.7
	c0,2.4,0.6,3.6,1.7,3.6c0.4,0,0.7-0.1,0.9-0.3c0.2-0.2,0.4-0.5,0.5-0.9c0.1-0.4,0.2-0.8,0.2-1.2c0-0.4,0.1-0.8,0.1-1.3
	c0-0.5,0-0.9,0-1.2c0-0.3-0.1-0.7-0.2-1.1c-0.1-0.4-0.3-0.7-0.5-0.9C69,36.5,68.7,36.4,68.4,36.4"/>
<path class="st1" d="M72.6,40.2c0-0.8,0.1-1.4,0.2-2c0.1-0.6,0.3-1,0.5-1.4c0.2-0.3,0.4-0.6,0.7-0.8c0.3-0.2,0.5-0.4,0.8-0.4
	c0.2-0.1,0.5-0.1,0.7-0.1c0.8,0,1.4,0.3,2,1c0.5,0.7,0.8,1.8,0.8,3.5c0,0.8-0.1,1.4-0.2,2c-0.1,0.6-0.3,1-0.5,1.4
	c-0.2,0.3-0.4,0.6-0.7,0.8c-0.3,0.2-0.5,0.4-0.8,0.4c-0.2,0.1-0.5,0.1-0.8,0.1c-0.2,0-0.5,0-0.7-0.1c-0.2-0.1-0.5-0.2-0.7-0.4
	c-0.3-0.2-0.5-0.5-0.7-0.8c-0.2-0.3-0.3-0.8-0.5-1.3C72.7,41.5,72.6,40.9,72.6,40.2 M75.5,36.4c-1.2,0-1.7,1.2-1.7,3.7
	c0,2.4,0.6,3.6,1.7,3.6c0.4,0,0.7-0.1,0.9-0.3c0.2-0.2,0.4-0.5,0.5-0.9c0.1-0.4,0.2-0.8,0.2-1.2c0-0.4,0.1-0.8,0.1-1.3
	c0-0.5,0-0.9,0-1.2c0-0.3-0.1-0.7-0.2-1.1c-0.1-0.4-0.3-0.7-0.5-0.9C76.2,36.5,75.9,36.4,75.5,36.4"/>
</svg>
