<?xml version="1.0" encoding="utf-8"?>
<!-- Generator: Adobe Illustrator 24.1.3, SVG Export Plug-In . SVG Version: 6.00 Build 0)  -->
<svg version="1.1" id="Слой_1" xmlns="http://www.w3.org/2000/svg" xmlns:xlink="http://www.w3.org/1999/xlink" x="0px" y="0px"
	 viewBox="0 0 199.1 74.4" style="enable-background:new 0 0 199.1 74.4;" xml:space="preserve">
<style type="text/css">
	.st0{fill:#FFFFFF;}
</style>
<g>
	<path class="st0" d="M60.1,1.8H40.4v24.1h6.5V7.1h6.6v18.7h6.6V1.8z"/>
	<path class="st0" d="M77.8,25.9c1.1-0.2,2.1-0.6,3.1-1.1v-4.6c-1.1,0.5-2.1,0.9-3.1,1.1c-0.9,0.2-2,0.3-3.1,0.3
		c-1.2,0-2.2-0.3-2.9-0.9c-0.7-0.6-1.1-1.4-1.1-2.5h11.5v-2.9c0-2.8-0.8-4.9-2.3-6.3c-1.5-1.5-3.7-2.2-6.5-2.2c-3,0-5.2,0.8-6.8,2.5
		c-1.6,1.7-2.4,4.1-2.4,7.2c0,3.1,0.9,5.4,2.6,7.1c1.7,1.7,4.1,2.5,7.2,2.5C75.4,26.2,76.7,26.1,77.8,25.9z M75.5,12.1
		c0.5,0.5,0.7,1.3,0.8,2.2h-5.5c0.1-1,0.4-1.8,0.9-2.2c0.5-0.5,1.1-0.7,1.9-0.7C74.4,11.3,75.1,11.5,75.5,12.1z"/>
	<path class="st0" d="M102,23.6c1.2-1.7,1.8-4.1,1.8-7.1c0-3-0.6-5.3-1.8-7c-1.2-1.7-2.8-2.6-4.9-2.6c-2.1,0-3.8,0.9-5,2.7h-0.3
		L91,7.2h-5.2V34h6.4v-7.5c0-0.3-0.1-1.1-0.3-2.4h0.3c0.7,0.8,1.5,1.4,2.2,1.7c0.7,0.3,1.6,0.5,2.5,0.5
		C99.1,26.2,100.7,25.3,102,23.6z M96.7,13c0.4,0.7,0.6,1.8,0.6,3.4c0,1.6-0.2,2.8-0.6,3.5c-0.4,0.7-1,1.1-1.8,1.1
		c-0.9,0-1.6-0.4-2-1.1c-0.4-0.7-0.6-1.9-0.6-3.5v-0.5c0-1.3,0.2-2.3,0.6-3c0.4-0.7,1-1,2-1C95.7,11.9,96.3,12.3,96.7,13z"/>
	<path class="st0" d="M120.3,25.9c1.1-0.2,2.1-0.6,3.1-1.1v-4.6c-1.1,0.5-2.1,0.9-3.1,1.1c-0.9,0.2-2,0.3-3.1,0.3
		c-1.2,0-2.2-0.3-2.9-0.9c-0.7-0.6-1.1-1.4-1.1-2.5h11.5v-2.9c0-2.8-0.8-4.9-2.3-6.3c-1.5-1.5-3.7-2.2-6.5-2.2c-3,0-5.2,0.8-6.8,2.5
		c-1.6,1.7-2.4,4.1-2.4,7.2c0,3.1,0.9,5.4,2.6,7.1c1.7,1.7,4.1,2.5,7.2,2.5C118,26.2,119.3,26.1,120.3,25.9z M118.1,12.1
		c0.5,0.5,0.7,1.3,0.8,2.2h-5.5c0.1-1,0.4-1.8,0.9-2.2c0.5-0.5,1.1-0.7,1.9-0.7C116.9,11.3,117.6,11.5,118.1,12.1z"/>
	<path class="st0" d="M134.8,7.2h-6.4v18.6h6.4V7.2z M125.7,4.5c0.5,0.4,1.2,0.7,2,0.7c0.9,0,1.6-0.2,2.1-0.7
		c0.5-0.5,0.8-1.1,0.8-1.9c0-0.8-0.3-1.4-0.8-1.9c-0.5-0.5-1.2-0.7-2.1-0.7c-0.9,0-1.5,0.2-2,0.7c-0.5,0.5-0.8,1.1-0.8,1.9
		C124.9,3.4,125.2,4,125.7,4.5z M133.5,4.5c0.5,0.5,1.2,0.7,2.1,0.7c0.9,0,1.6-0.2,2.1-0.7c0.5-0.5,0.8-1.1,0.8-1.9
		c0-0.8-0.3-1.4-0.8-1.9c-0.5-0.5-1.2-0.7-2.1-0.7c-0.9,0-1.6,0.2-2.1,0.7c-0.5,0.5-0.8,1.1-0.8,1.9C132.8,3.4,133,4,133.5,4.5z"/>
	<path class="st0" d="M155.6,8.4c-1.3-0.8-3.4-1.2-6.1-1.2h-10.2v18.6h10.2c5.8,0,8.7-1.8,8.7-5.3c0-1.2-0.4-2.2-1.1-2.9
		c-0.7-0.8-1.7-1.2-3.1-1.4v-0.1c1.1-0.2,2-0.6,2.6-1.3c0.6-0.7,1-1.6,1-2.7C157.6,10.4,156.9,9.2,155.6,8.4z M149.2,21.6h-3.5v-3.4
		h3.6c0.7,0,1.3,0.1,1.7,0.4c0.4,0.3,0.6,0.7,0.6,1.3C151.6,21.1,150.8,21.6,149.2,21.6L149.2,21.6z M150.7,13.8
		c-0.3,0.3-0.8,0.4-1.5,0.4h-3.4v-2.8h3.7c1.2,0,1.8,0.5,1.8,1.5C151.2,13.3,151,13.6,150.7,13.8z"/>
	<path class="st0" d="M0,47.7v18.6h6.4v-7.1h5.1v7.1H18V47.7h-6.4v6.7H6.4v-6.7H0z"/>
	<path class="st0" d="M39.1,66.3V54.1c0-2.1-0.7-3.8-2-5c-1.3-1.2-3.2-1.8-5.6-1.8c-3.3,0-6.1,0.6-8.2,1.7l1.9,4.2
		c2.1-0.9,3.8-1.4,5.2-1.4c1.5,0,2.3,0.8,2.3,2.3v0.3l-3.1,0.1c-2.6,0.1-4.6,0.7-6,1.6c-1.4,1-2.1,2.4-2.1,4.4
		c0,1.9,0.5,3.4,1.5,4.4c1,1.1,2.4,1.6,4.1,1.6c1.4,0,2.6-0.2,3.5-0.6c0.9-0.4,1.8-1.1,2.7-2.2h0.1l1.2,2.5H39.1z M28,60.4
		c0-1.5,1.1-2.3,3.2-2.3l1.5-0.1v1.4c0,0.8-0.3,1.4-0.8,1.9c-0.6,0.5-1.2,0.7-2,0.7C28.6,62.1,28,61.5,28,60.4L28,60.4z"/>
	<path class="st0" d="M52.2,47.7v18.6h6.4V52.4h4.8v13.9h6.4V47.7H52.2z"/>
	<path class="st0" d="M80.8,47.7h-6.4v18.6h6.4V47.7z M77.6,45.8c2.3,0,3.4-0.9,3.4-2.8c0-0.9-0.3-1.7-0.8-2.1
		c-0.5-0.5-1.4-0.7-2.6-0.7c-1.2,0-2.1,0.2-2.6,0.7c-0.5,0.5-0.8,1.2-0.8,2.2C74.2,44.9,75.4,45.8,77.6,45.8L77.6,45.8z"/>
	<path class="st0" d="M91.8,56.7v-9h-6.4v18.6h6.4v-9.5l6.9,9.5h7.4l-7.5-9.7l7-8.9h-7.1L91.8,56.7z"/>
	<path class="st0" d="M108.1,47.7v18.6h6.4v-7.1h5.1v7.1h6.4V47.7h-6.4v6.7h-5.1v-6.7H108.1z"/>
	<path class="st0" d="M137,47.7h-6.4v18.6h6.4V47.7z M133.8,45.8c2.3,0,3.4-0.9,3.4-2.8c0-0.9-0.3-1.7-0.8-2.1
		c-0.5-0.5-1.4-0.7-2.6-0.7c-1.2,0-2.1,0.2-2.6,0.7c-0.5,0.5-0.8,1.2-0.8,2.2C130.4,44.9,131.6,45.8,133.8,45.8L133.8,45.8z"/>
	<path class="st0" d="M148,56.7v-9h-6.4v18.6h6.4v-9.5l6.9,9.5h7.4l-7.5-9.7l7-8.9h-7.1L148,56.7z"/>
	<path class="st0" d="M169.4,66c-0.4,0.9-0.7,1.6-1,2c-0.3,0.4-0.7,0.7-1.1,0.9c-0.4,0.2-0.9,0.3-1.5,0.3c-0.7,0-1.4-0.1-2-0.2v5.1
		c0.9,0.2,1.8,0.3,2.6,0.3c2.2,0,4-0.5,5.4-1.6c1.4-1,2.5-2.8,3.5-5.3l7.4-19.8h-6.6l-3.2,10.7c-0.2,0.6-0.3,1.2-0.4,2h-0.1
		c-0.1-0.8-0.2-1.5-0.3-2l-3.2-10.7h-6.8L169.4,66z"/>
	<path class="st0" d="M192.6,57.8V57c0-0.5,0.1-0.9,0.4-1.2c0.3-0.3,1-0.9,2.2-1.6c1.4-0.9,2.4-1.8,3-2.8c0.6-1,0.9-2.1,0.9-3.4
		c0-1.9-0.7-3.3-2.1-4.4c-1.4-1.1-3.3-1.6-5.8-1.6c-3,0-5.8,0.8-8.6,2.3l2.3,4.5c2.2-1.2,4.2-1.8,5.8-1.8c0.7,0,1.2,0.1,1.6,0.4
		c0.4,0.3,0.6,0.6,0.6,1.1c0,0.6-0.2,1.1-0.6,1.5c-0.4,0.5-1,1-1.9,1.5c-1.1,0.7-1.9,1.4-2.3,2.2c-0.4,0.7-0.7,1.6-0.7,2.7v1.4
		H192.6z M187.7,65.9c0.6,0.5,1.5,0.8,2.6,0.8c1.1,0,1.9-0.3,2.5-0.8c0.6-0.5,0.9-1.3,0.9-2.3c0-1-0.3-1.8-0.9-2.3
		c-0.6-0.6-1.4-0.8-2.5-0.8c-1.1,0-2,0.3-2.6,0.8c-0.6,0.5-0.9,1.3-0.9,2.3C186.8,64.6,187.1,65.4,187.7,65.9z"/>
</g>
</svg>
