<?xml version="1.0" encoding="utf-8"?>
<!-- Generator: Adobe Illustrator 22.1.0, SVG Export Plug-In . SVG Version: 6.00 Build 0)  -->
<svg version="1.1" id="Layer_1" xmlns="http://www.w3.org/2000/svg" xmlns:xlink="http://www.w3.org/1999/xlink" x="0px" y="0px"
	 viewBox="0 0 96.4 12.1" style="enable-background:new 0 0 96.4 12.1;" xml:space="preserve">
<style type="text/css">
	.st0{fill:#FFFFFF;}
</style>
<g>
	<path class="st0" d="M5,5.3H1.6v3.6H0V0.1h1.6v3.6H5V0.1h1.6v8.8H5V5.3z"/>
	<path class="st0" d="M11,9c-0.5,0-1-0.1-1.4-0.3C9.1,8.6,8.8,8.3,8.4,8S7.8,7.2,7.6,6.8S7.4,5.9,7.4,5.4c0-0.5,0.1-1,0.3-1.4
		c0.2-0.4,0.4-0.8,0.8-1.2S9.1,2.2,9.6,2C10,1.8,10.5,1.7,11,1.7s1,0.1,1.4,0.3c0.4,0.2,0.8,0.4,1.2,0.8c0.3,0.3,0.6,0.7,0.8,1.2
		c0.2,0.4,0.3,0.9,0.3,1.4c0,0.5-0.1,1-0.3,1.4S13.9,7.6,13.6,8c-0.3,0.3-0.7,0.6-1.2,0.8C12,8.9,11.5,9,11,9z M11,7.5
		c0.3,0,0.6-0.1,0.8-0.2c0.2-0.1,0.5-0.3,0.6-0.5c0.2-0.2,0.3-0.4,0.4-0.7S13,5.7,13,5.4c0-0.3-0.1-0.6-0.2-0.8s-0.2-0.5-0.4-0.7
		c-0.2-0.2-0.4-0.3-0.6-0.5c-0.2-0.1-0.5-0.2-0.8-0.2s-0.6,0.1-0.8,0.2C9.9,3.5,9.7,3.7,9.5,3.9C9.4,4.1,9.2,4.3,9.1,4.5
		C9,4.8,9,5.1,9,5.4C9,5.7,9,5.9,9.1,6.2c0.1,0.3,0.2,0.5,0.4,0.7s0.4,0.3,0.6,0.5S10.7,7.5,11,7.5z"/>
	<path class="st0" d="M15.3,1.9h3.2c0.8,0,1.4,0.2,1.9,0.5c0.4,0.3,0.7,0.8,0.7,1.4c0,0.7-0.3,1.2-0.9,1.5c0.7,0.3,1.1,0.9,1.1,1.6
		c0,0.6-0.2,1.1-0.7,1.5c-0.5,0.4-1.1,0.5-2,0.5h-3.3V1.9z M16.9,4.6h1.7c0.3,0,0.5-0.1,0.7-0.2c0.2-0.1,0.2-0.3,0.2-0.5
		c0-0.2-0.1-0.4-0.2-0.5c-0.2-0.1-0.4-0.2-0.7-0.2h-1.7V4.6z M16.9,7.5h1.7c0.3,0,0.6-0.1,0.7-0.2c0.2-0.1,0.3-0.3,0.3-0.6
		s-0.1-0.4-0.3-0.6S19,6,18.6,6h-1.7V7.5z"/>
	<path class="st0" d="M22,1.9h1.6V4h1.4c0.4,0,0.8,0.1,1.2,0.2c0.3,0.1,0.6,0.3,0.9,0.5c0.2,0.2,0.4,0.5,0.6,0.8
		c0.1,0.3,0.2,0.6,0.2,0.9s-0.1,0.7-0.2,1c-0.1,0.3-0.3,0.6-0.6,0.8c-0.2,0.2-0.5,0.4-0.9,0.5c-0.3,0.1-0.7,0.2-1.1,0.2H22V1.9z
		 M25,7.5c0.4,0,0.7-0.1,0.9-0.3c0.2-0.2,0.4-0.5,0.4-0.8c0-0.3-0.1-0.6-0.4-0.8c-0.2-0.2-0.5-0.3-0.9-0.3h-1.4v2.1H25z M28.4,1.9
		H30v7h-1.6V1.9z"/>
	<path class="st0" d="M38.2,9c-0.7,0-1.3-0.1-1.9-0.4s-1-0.6-1.4-1c-0.4-0.4-0.7-0.9-0.9-1.4c-0.2-0.5-0.3-1.1-0.3-1.7
		c0-0.6,0.1-1.2,0.3-1.8c0.2-0.5,0.5-1,0.9-1.4c0.4-0.4,0.9-0.7,1.4-1C36.9,0.1,37.5,0,38.1,0c0.5,0,0.9,0.1,1.3,0.2
		s0.8,0.3,1.1,0.5c0.3,0.2,0.6,0.4,0.9,0.7s0.5,0.6,0.7,0.9l-1.4,0.9c-0.3-0.5-0.6-0.9-1-1.1s-0.9-0.4-1.5-0.4
		c-0.4,0-0.8,0.1-1.1,0.2c-0.3,0.2-0.7,0.4-0.9,0.6c-0.3,0.3-0.5,0.6-0.6,0.9c-0.1,0.4-0.2,0.7-0.2,1.1c0,0.4,0.1,0.8,0.2,1.1
		c0.1,0.4,0.3,0.7,0.6,0.9C36.4,6.8,36.7,7,37,7.2c0.4,0.2,0.8,0.2,1.2,0.2c0.7,0,1.2-0.2,1.6-0.5c0.4-0.3,0.7-0.8,0.9-1.4H38V4h4.5
		v0.6c0,0.6-0.1,1.2-0.3,1.7s-0.5,1-0.9,1.4c-0.4,0.4-0.8,0.7-1.4,1C39.5,8.9,38.9,9,38.2,9z"/>
	<path class="st0" d="M46.6,9c-0.4,0-0.8-0.1-1.3-0.2c-0.4-0.2-0.8-0.4-1.1-0.7c-0.3-0.3-0.6-0.7-0.8-1.1c-0.2-0.5-0.3-1-0.3-1.5
		c0-0.6,0.1-1.1,0.3-1.6c0.2-0.5,0.5-0.8,0.8-1.1c0.3-0.3,0.7-0.5,1.1-0.7s0.8-0.2,1.3-0.2c0.5,0,0.9,0.1,1.3,0.3
		c0.4,0.2,0.7,0.4,1,0.7V1.9h1.6v7h-1.6V8c-0.3,0.3-0.6,0.6-1,0.8C47.5,8.9,47,9,46.6,9z M46.8,7.5c0.3,0,0.6-0.1,0.8-0.2
		s0.5-0.3,0.7-0.5c0.2-0.2,0.3-0.4,0.4-0.7c0.1-0.3,0.2-0.5,0.2-0.9c0-0.3-0.1-0.6-0.2-0.8c-0.1-0.3-0.3-0.5-0.4-0.7
		c-0.2-0.2-0.4-0.4-0.7-0.5c-0.3-0.1-0.5-0.2-0.8-0.2c-0.3,0-0.6,0.1-0.8,0.2c-0.3,0.1-0.5,0.3-0.7,0.5C45.1,4,45,4.2,44.9,4.5
		S44.7,5,44.7,5.4c0,0.3,0.1,0.6,0.2,0.9s0.3,0.5,0.5,0.7c0.2,0.2,0.4,0.3,0.7,0.5C46.3,7.5,46.5,7.5,46.8,7.5z"/>
	<path class="st0" d="M51.4,0H53v8.9h-1.6V0z"/>
	<path class="st0" d="M57.2,9c-0.4,0-0.8-0.1-1.3-0.2c-0.4-0.2-0.8-0.4-1.1-0.7c-0.3-0.3-0.6-0.7-0.8-1.1c-0.2-0.5-0.3-1-0.3-1.5
		c0-0.6,0.1-1.1,0.3-1.6c0.2-0.5,0.5-0.8,0.8-1.1c0.3-0.3,0.7-0.5,1.1-0.7s0.8-0.2,1.3-0.2c0.5,0,0.9,0.1,1.3,0.3
		c0.4,0.2,0.7,0.4,1,0.7V1.9h1.6v7h-1.6V8c-0.3,0.3-0.6,0.6-1,0.8C58.1,8.9,57.7,9,57.2,9z M57.5,7.5c0.3,0,0.6-0.1,0.8-0.2
		s0.5-0.3,0.7-0.5c0.2-0.2,0.3-0.4,0.4-0.7c0.1-0.3,0.2-0.5,0.2-0.9c0-0.3-0.1-0.6-0.2-0.8C59.3,4.2,59.2,4,59,3.8
		c-0.2-0.2-0.4-0.4-0.7-0.5c-0.3-0.1-0.5-0.2-0.8-0.2c-0.3,0-0.6,0.1-0.8,0.2c-0.3,0.1-0.5,0.3-0.7,0.5c-0.2,0.2-0.3,0.4-0.5,0.7
		S55.3,5,55.3,5.4c0,0.3,0.1,0.6,0.2,0.9s0.3,0.5,0.5,0.7c0.2,0.2,0.4,0.3,0.7,0.5C56.9,7.5,57.2,7.5,57.5,7.5z"/>
	<path class="st0" d="M64.1,5.3l-2.5-3.4h2l1.6,2.2l1.6-2.2h1.9l-2.5,3.5l2.7,3.6h-2l-1.7-2.3l-1.7,2.3h-2L64.1,5.3z"/>
	<path class="st0" d="M71.8,8.5l-2.9-6.7h1.7l2,4.7l1.8-4.7h1.7l-4.2,10.3h-1.6L71.8,8.5z"/>
	<path class="st0" d="M82.6,9c-0.8,0-1.5-0.2-2-0.5s-1-0.7-1.4-1.1l1.5-1.2c0.2,0.4,0.5,0.7,0.8,0.9s0.7,0.3,1.1,0.3
		c0.2,0,0.4,0,0.6-0.1c0.2-0.1,0.3-0.1,0.4-0.3c0.1-0.1,0.2-0.2,0.3-0.4c0.1-0.1,0.1-0.3,0.1-0.4c0-0.2-0.1-0.3-0.2-0.5
		c-0.1-0.1-0.2-0.2-0.4-0.3S83,5.3,82.8,5.2S82.3,5.1,82.1,5c-0.3-0.1-0.6-0.2-0.9-0.3c-0.3-0.1-0.6-0.3-0.8-0.4
		c-0.2-0.2-0.4-0.4-0.6-0.7s-0.2-0.6-0.2-1c0-0.4,0.1-0.7,0.2-1C80,1.2,80.2,1,80.5,0.7c0.3-0.2,0.6-0.4,0.9-0.5
		C81.7,0.1,82.1,0,82.5,0c0.4,0,0.7,0,1,0.1c0.3,0.1,0.5,0.2,0.8,0.3c0.2,0.1,0.5,0.2,0.6,0.4s0.4,0.3,0.6,0.5l-1.3,1
		c-0.4-0.6-0.9-0.8-1.6-0.8c-0.4,0-0.7,0.1-0.9,0.3c-0.2,0.2-0.3,0.4-0.3,0.7c0,0.2,0,0.3,0.1,0.4c0.1,0.1,0.2,0.2,0.4,0.3
		s0.4,0.2,0.6,0.2c0.2,0.1,0.4,0.1,0.7,0.2C83.4,3.8,83.7,3.9,84,4c0.3,0.1,0.6,0.3,0.8,0.5c0.2,0.2,0.4,0.4,0.6,0.7
		s0.2,0.6,0.2,1.1c0,0.3-0.1,0.7-0.2,1s-0.3,0.6-0.6,0.9c-0.3,0.3-0.6,0.5-0.9,0.6C83.5,8.9,83.1,9,82.6,9z"/>
	<path class="st0" d="M87.4,8.9V1.6h-1.1V0.1H89v8.8H87.4z"/>
	<path class="st0" d="M93.4,9c-0.5,0-0.9-0.1-1.3-0.2s-0.7-0.3-0.9-0.6s-0.4-0.6-0.6-0.9c-0.1-0.3-0.2-0.7-0.2-1.2V2.9
		c0-0.4,0.1-0.8,0.2-1.2c0.1-0.4,0.3-0.7,0.6-0.9c0.3-0.3,0.6-0.5,0.9-0.6C92.6,0.1,93,0,93.4,0c0.5,0,0.9,0.1,1.2,0.2
		c0.4,0.2,0.7,0.4,0.9,0.6c0.3,0.3,0.5,0.6,0.6,0.9c0.1,0.4,0.2,0.7,0.2,1.1v3.2c0,0.4-0.1,0.8-0.2,1.2c-0.1,0.3-0.3,0.6-0.6,0.9
		c-0.3,0.3-0.6,0.4-0.9,0.6C94.3,8.9,93.9,9,93.4,9z M93.4,7.4c0.4,0,0.8-0.1,1-0.4s0.3-0.6,0.3-0.9V3c0-0.4-0.1-0.7-0.3-1
		c-0.2-0.2-0.6-0.4-1-0.4c-0.4,0-0.8,0.1-1,0.4c-0.2,0.3-0.3,0.6-0.3,1v3.1c0,0.4,0.1,0.7,0.3,0.9C92.6,7.3,93,7.4,93.4,7.4z"/>
</g>
</svg>
