<?xml version="1.0" encoding="utf-8"?>
<!-- Generator: Adobe Illustrator 22.1.0, SVG Export Plug-In . SVG Version: 6.00 Build 0)  -->
<svg version="1.1" id="Layer_1" xmlns="http://www.w3.org/2000/svg" xmlns:xlink="http://www.w3.org/1999/xlink" x="0px" y="0px"
	 viewBox="0 0 155.7 29.4" style="enable-background:new 0 0 155.7 29.4;" xml:space="preserve">
<style type="text/css">
	.st0{fill:#FFFFFF;}
</style>
<g>
	<path class="st0" d="M6.3,1v1.5H2.6v1.8H4c0.5,0,0.9,0.1,1.3,0.2c0.4,0.1,0.7,0.3,1,0.6c0.3,0.2,0.5,0.5,0.6,0.9
		C7,6.3,7.1,6.6,7.1,7S7,7.8,6.9,8.2C6.8,8.5,6.6,8.8,6.3,9C6,9.3,5.7,9.4,5.3,9.6C4.9,9.7,4.5,9.8,4,9.8H1V1H6.3z M4,8.2
		c0.5,0,0.9-0.1,1.1-0.3S5.5,7.4,5.5,7c0-0.4-0.1-0.7-0.4-0.9S4.4,5.8,4,5.8H2.6v2.4H4z"/>
	<path class="st0" d="M11.4,9.9c-0.6,0-1.1-0.1-1.5-0.3C9.4,9.4,9,9.2,8.7,8.8C8.3,8.5,8.1,8.1,7.9,7.7C7.7,7.2,7.6,6.8,7.6,6.3
		c0-0.5,0.1-1,0.3-1.4S8.4,4,8.7,3.7s0.7-0.6,1.2-0.8c0.4-0.2,0.9-0.3,1.4-0.3c0.5,0,1,0.1,1.4,0.3c0.4,0.2,0.8,0.4,1.1,0.8
		c0.3,0.3,0.6,0.7,0.8,1.1c0.2,0.4,0.3,0.9,0.3,1.4v0.6H9.2C9.3,7.3,9.6,7.7,9.9,8c0.4,0.3,0.9,0.5,1.4,0.5c0.5,0,0.9-0.1,1.2-0.3
		c0.3-0.2,0.6-0.5,0.8-0.9L14.6,8c-0.3,0.6-0.7,1-1.3,1.4C12.8,9.7,12.1,9.9,11.4,9.9z M11.3,4c-0.5,0-0.9,0.1-1.3,0.4
		S9.4,5,9.3,5.5h4c-0.1-0.5-0.4-0.8-0.7-1.1C12.2,4.1,11.8,4,11.3,4z"/>
	<path class="st0" d="M19,9.9c-0.5,0-1-0.1-1.4-0.3c-0.4-0.2-0.8-0.5-1.2-0.8s-0.6-0.7-0.8-1.2s-0.3-0.9-0.3-1.4
		c0-0.5,0.1-1,0.3-1.4c0.2-0.4,0.4-0.8,0.8-1.2s0.7-0.6,1.2-0.8c0.4-0.2,0.9-0.3,1.4-0.3c0.4,0,0.8,0.1,1.1,0.2s0.7,0.3,1,0.5
		c0.3,0.2,0.5,0.4,0.8,0.7c0.2,0.3,0.4,0.6,0.5,0.9l-1.5,0.6c-0.2-0.4-0.4-0.7-0.7-0.9c-0.3-0.2-0.7-0.3-1.1-0.3
		c-0.3,0-0.6,0.1-0.8,0.2c-0.3,0.1-0.5,0.3-0.7,0.5c-0.2,0.2-0.3,0.4-0.4,0.7S17,6,17,6.3c0,0.3,0.1,0.6,0.2,0.8s0.2,0.5,0.4,0.7
		s0.4,0.3,0.7,0.5s0.5,0.2,0.8,0.2c0.5,0,0.8-0.1,1.2-0.4c0.3-0.2,0.6-0.6,0.7-0.9l1.5,0.6c-0.1,0.3-0.3,0.6-0.5,0.9
		c-0.2,0.3-0.5,0.5-0.8,0.7c-0.3,0.2-0.6,0.3-1,0.5C19.8,9.8,19.5,9.9,19,9.9z"/>
	<path class="st0" d="M27.6,4.2h-2.9v5.5H23v-7h6.2v7h-1.6V4.2z"/>
	<path class="st0" d="M34.1,9.9c-0.5,0-0.9-0.1-1.3-0.3s-0.7-0.4-1-0.7V13h-1.6V2.7h1.6v0.9c0.2-0.3,0.6-0.6,1-0.8s0.8-0.3,1.3-0.3
		c0.4,0,0.9,0.1,1.3,0.2c0.4,0.2,0.8,0.4,1.1,0.7c0.3,0.3,0.6,0.7,0.8,1.1c0.2,0.5,0.3,1,0.3,1.6c0,0.6-0.1,1.1-0.3,1.5
		c-0.2,0.5-0.5,0.8-0.8,1.1c-0.3,0.3-0.7,0.6-1.1,0.7C34.9,9.8,34.5,9.9,34.1,9.9z M33.8,8.4c0.3,0,0.6-0.1,0.8-0.2
		c0.3-0.1,0.5-0.3,0.7-0.5c0.2-0.2,0.3-0.4,0.5-0.7c0.1-0.3,0.2-0.6,0.2-0.9c0-0.3-0.1-0.6-0.2-0.9c-0.1-0.3-0.3-0.5-0.5-0.7
		c-0.2-0.2-0.4-0.3-0.7-0.5c-0.3-0.1-0.5-0.2-0.8-0.2c-0.3,0-0.6,0.1-0.8,0.2c-0.3,0.1-0.5,0.3-0.7,0.5c-0.2,0.2-0.3,0.4-0.4,0.7
		c-0.1,0.3-0.2,0.5-0.2,0.8c0,0.3,0.1,0.6,0.2,0.9c0.1,0.3,0.2,0.5,0.4,0.7C32.5,8,32.7,8.1,33,8.2C33.2,8.4,33.5,8.4,33.8,8.4z"/>
	<path class="st0" d="M41.5,9.9c-0.4,0-0.8-0.1-1.3-0.2c-0.4-0.2-0.8-0.4-1.1-0.7c-0.3-0.3-0.6-0.7-0.8-1.1c-0.2-0.5-0.3-1-0.3-1.5
		c0-0.6,0.1-1.1,0.3-1.6c0.2-0.5,0.5-0.8,0.8-1.1c0.3-0.3,0.7-0.5,1.1-0.7s0.8-0.2,1.3-0.2c0.5,0,0.9,0.1,1.3,0.3
		c0.4,0.2,0.7,0.4,1,0.7V2.7h1.6v7h-1.6V8.8c-0.3,0.3-0.6,0.6-1,0.8C42.4,9.8,42,9.9,41.5,9.9z M41.8,8.4c0.3,0,0.6-0.1,0.8-0.2
		s0.5-0.3,0.7-0.5c0.2-0.2,0.3-0.4,0.4-0.7c0.1-0.3,0.2-0.5,0.2-0.9c0-0.3-0.1-0.6-0.2-0.8c-0.1-0.3-0.3-0.5-0.4-0.7
		c-0.2-0.2-0.4-0.4-0.7-0.5c-0.3-0.1-0.5-0.2-0.8-0.2c-0.3,0-0.6,0.1-0.8,0.2c-0.3,0.1-0.5,0.3-0.7,0.5c-0.2,0.2-0.3,0.4-0.5,0.7
		s-0.2,0.5-0.2,0.9c0,0.3,0.1,0.6,0.2,0.9s0.3,0.5,0.5,0.7c0.2,0.2,0.4,0.3,0.7,0.5C41.2,8.4,41.4,8.4,41.8,8.4z"/>
	<path class="st0" d="M46.4,2.7h3.2c0.8,0,1.4,0.2,1.9,0.5c0.4,0.3,0.7,0.8,0.7,1.4c0,0.7-0.3,1.2-0.9,1.5C52,6.4,52.3,7,52.3,7.7
		c0,0.6-0.2,1.1-0.7,1.5c-0.5,0.4-1.1,0.5-2,0.5h-3.3V2.7z M47.9,5.5h1.7c0.3,0,0.5-0.1,0.7-0.2c0.2-0.1,0.2-0.3,0.2-0.5
		c0-0.2-0.1-0.4-0.2-0.5c-0.2-0.1-0.4-0.2-0.7-0.2h-1.7V5.5z M47.9,8.4h1.7c0.3,0,0.6-0.1,0.7-0.2c0.2-0.1,0.3-0.3,0.3-0.6
		S50.6,7.2,50.4,7S50,6.9,49.7,6.9h-1.7V8.4z"/>
	<path class="st0" d="M56.3,9.9c-0.4,0-0.8-0.1-1.3-0.2c-0.4-0.2-0.8-0.4-1.1-0.7c-0.3-0.3-0.6-0.7-0.8-1.1c-0.2-0.5-0.3-1-0.3-1.5
		c0-0.6,0.1-1.1,0.3-1.6c0.2-0.5,0.5-0.8,0.8-1.1C54.2,3.2,54.6,3,55,2.8s0.8-0.2,1.3-0.2c0.5,0,0.9,0.1,1.3,0.3
		c0.4,0.2,0.7,0.4,1,0.7V2.7h1.6v7h-1.6V8.8c-0.3,0.3-0.6,0.6-1,0.8C57.2,9.8,56.7,9.9,56.3,9.9z M56.5,8.4c0.3,0,0.6-0.1,0.8-0.2
		S57.9,8,58,7.8c0.2-0.2,0.3-0.4,0.4-0.7c0.1-0.3,0.2-0.5,0.2-0.9c0-0.3-0.1-0.6-0.2-0.8c-0.1-0.3-0.3-0.5-0.4-0.7
		c-0.2-0.2-0.4-0.4-0.7-0.5c-0.3-0.1-0.5-0.2-0.8-0.2c-0.3,0-0.6,0.1-0.8,0.2c-0.3,0.1-0.5,0.3-0.7,0.5c-0.2,0.2-0.3,0.4-0.5,0.7
		s-0.2,0.5-0.2,0.9c0,0.3,0.1,0.6,0.2,0.9s0.3,0.5,0.5,0.7c0.2,0.2,0.4,0.3,0.7,0.5C56,8.4,56.2,8.4,56.5,8.4z"/>
	<path class="st0" d="M65.5,2.7l2.4,5.5h0.8v3h-1.4V9.8h-5.1v1.6h-1.4v-3h0.8l2.4-5.5H65.5z M63.1,8.3h3.1l-1.5-3.6L63.1,8.3z"/>
	<path class="st0" d="M73.8,7h-3v2.8h-1.6v-7h1.6v2.7h3V2.7h1.6v7h-1.6V7z"/>
	<path class="st0" d="M76.4,2.7h1.6v2.1h1.4c0.4,0,0.8,0.1,1.2,0.2c0.3,0.1,0.6,0.3,0.9,0.5c0.2,0.2,0.4,0.5,0.6,0.8
		c0.1,0.3,0.2,0.6,0.2,0.9s-0.1,0.7-0.2,1c-0.1,0.3-0.3,0.6-0.6,0.8c-0.2,0.2-0.5,0.4-0.9,0.5c-0.3,0.1-0.7,0.2-1.1,0.2h-3.1V2.7z
		 M79.4,8.3c0.4,0,0.7-0.1,0.9-0.3c0.2-0.2,0.4-0.5,0.4-0.8c0-0.3-0.1-0.6-0.4-0.8c-0.2-0.2-0.5-0.3-0.9-0.3h-1.4v2.1H79.4z
		 M82.8,2.7h1.6v7h-1.6V2.7z"/>
	<path class="st0" d="M85.1,9.8l1.2-2.5C86,7,85.7,6.7,85.5,6.4c-0.2-0.4-0.3-0.8-0.3-1.2c0-0.4,0.1-0.7,0.2-1
		c0.1-0.3,0.3-0.6,0.5-0.8c0.2-0.2,0.5-0.4,0.9-0.5c0.3-0.1,0.7-0.2,1.2-0.2h3v7h-1.6V7.6h-1.7l-1,2.1H85.1z M89.5,6.2V4.2h-1.4
		c-0.4,0-0.7,0.1-0.9,0.3s-0.3,0.4-0.3,0.7c0,0.2,0,0.3,0.1,0.4c0,0.1,0.1,0.2,0.2,0.3c0.1,0.1,0.2,0.2,0.4,0.2
		c0.1,0.1,0.3,0.1,0.6,0.1H89.5z"/>
	<path class="st0" d="M99.6,7h-3v2.8h-1.6v-7h1.6v2.7h3V2.7h1.6v7h-1.6V7z"/>
	<path class="st0" d="M105.4,9.9c-0.4,0-0.8-0.1-1.3-0.2c-0.4-0.2-0.8-0.4-1.1-0.7c-0.3-0.3-0.6-0.7-0.8-1.1c-0.2-0.5-0.3-1-0.3-1.5
		c0-0.6,0.1-1.1,0.3-1.6c0.2-0.5,0.5-0.8,0.8-1.1c0.3-0.3,0.7-0.5,1.1-0.7s0.8-0.2,1.3-0.2c0.5,0,0.9,0.1,1.3,0.3
		c0.4,0.2,0.7,0.4,1,0.7V2.7h1.6v7h-1.6V8.8c-0.3,0.3-0.6,0.6-1,0.8C106.3,9.8,105.8,9.9,105.4,9.9z M105.6,8.4
		c0.3,0,0.6-0.1,0.8-0.2s0.5-0.3,0.7-0.5c0.2-0.2,0.3-0.4,0.4-0.7c0.1-0.3,0.2-0.5,0.2-0.9c0-0.3-0.1-0.6-0.2-0.8
		c-0.1-0.3-0.3-0.5-0.4-0.7c-0.2-0.2-0.4-0.4-0.7-0.5c-0.3-0.1-0.5-0.2-0.8-0.2c-0.3,0-0.6,0.1-0.8,0.2c-0.3,0.1-0.5,0.3-0.7,0.5
		c-0.2,0.2-0.3,0.4-0.5,0.7s-0.2,0.5-0.2,0.9c0,0.3,0.1,0.6,0.2,0.9s0.3,0.5,0.5,0.7c0.2,0.2,0.4,0.3,0.7,0.5
		C105.1,8.4,105.3,8.4,105.6,8.4z"/>
	<path class="st0" d="M110.3,2.7h3.2c0.8,0,1.4,0.2,1.9,0.5c0.4,0.3,0.7,0.8,0.7,1.4c0,0.7-0.3,1.2-0.9,1.5c0.7,0.3,1.1,0.9,1.1,1.6
		c0,0.6-0.2,1.1-0.7,1.5c-0.5,0.4-1.1,0.5-2,0.5h-3.3V2.7z M111.8,5.5h1.7c0.3,0,0.5-0.1,0.7-0.2c0.2-0.1,0.2-0.3,0.2-0.5
		c0-0.2-0.1-0.4-0.2-0.5c-0.2-0.1-0.4-0.2-0.7-0.2h-1.7V5.5z M111.8,8.4h1.7c0.3,0,0.6-0.1,0.7-0.2c0.2-0.1,0.3-0.3,0.3-0.6
		s-0.1-0.4-0.3-0.6s-0.4-0.2-0.8-0.2h-1.7V8.4z"/>
	<path class="st0" d="M119,9.4l-2.9-6.7h1.7l2,4.7l1.8-4.7h1.7L119.2,13h-1.6L119,9.4z"/>
	<path class="st0" d="M131.8,2.7h1.6v7h-9.5v-7h1.6v5.5h2.3V2.7h1.6v5.5h2.3V2.7z"/>
	<path class="st0" d="M139.1,7h-3v2.8h-1.6v-7h1.6v2.7h3V2.7h1.6v7h-1.6V7z"/>
	<path class="st0" d="M141.4,1c0-0.3,0.1-0.5,0.3-0.7c0.2-0.2,0.4-0.3,0.7-0.3c0.3,0,0.6,0.1,0.8,0.3c0.2,0.2,0.3,0.4,0.3,0.7
		c0,0.3-0.1,0.5-0.3,0.7C143,1.9,142.8,2,142.4,2c-0.3,0-0.6-0.1-0.8-0.3S141.4,1.3,141.4,1z M141.6,2.7h1.6v7h-1.6V2.7z"/>
	<path class="st0" d="M148.8,9.8L146.4,7h-0.6v2.8h-1.6v-7h1.6v2.7h0.5l2.4-2.7h1.9l-3,3.4l3.2,3.6H148.8z"/>
</g>
<path class="st0" d="M151.4,1c0-0.3,0.1-0.5,0.3-0.7c0.2-0.2,0.4-0.3,0.7-0.3c0.3,0,0.6,0.1,0.8,0.3c0.2,0.2,0.3,0.4,0.3,0.7
	c0,0.3-0.1,0.5-0.3,0.7C153,1.9,152.7,2,152.4,2c-0.3,0-0.6-0.1-0.8-0.3S151.4,1.3,151.4,1z M151.6,2.7h1.6v7h-1.6V2.7z"/>
<path class="st0" d="M4.5,26.2c-0.7,0-1.3-0.1-1.9-0.4s-1-0.6-1.4-1c-0.4-0.4-0.7-0.9-0.9-1.4C0.1,22.9,0,22.3,0,21.7
	c0-0.6,0.1-1.2,0.3-1.8c0.2-0.5,0.5-1,0.9-1.4c0.4-0.4,0.9-0.7,1.4-1c0.5-0.2,1.1-0.4,1.8-0.4c0.5,0,0.9,0.1,1.3,0.2
	s0.8,0.3,1.1,0.5c0.3,0.2,0.6,0.4,0.9,0.7s0.5,0.6,0.7,0.9L7,20.3c-0.3-0.5-0.6-0.9-1-1.1s-0.9-0.4-1.5-0.4c-0.4,0-0.8,0.1-1.1,0.2
	c-0.3,0.2-0.7,0.4-0.9,0.6C2.2,20,2,20.3,1.8,20.6c-0.1,0.4-0.2,0.7-0.2,1.1c0,0.4,0.1,0.8,0.2,1.1c0.1,0.4,0.3,0.7,0.6,0.9
	c0.3,0.3,0.6,0.5,0.9,0.6c0.4,0.2,0.8,0.2,1.2,0.2c0.7,0,1.2-0.2,1.6-0.5c0.4-0.3,0.7-0.8,0.9-1.4H4.3v-1.6h4.5v0.6
	c0,0.6-0.1,1.2-0.3,1.7s-0.5,1-0.9,1.4c-0.4,0.4-0.8,0.7-1.4,1C5.8,26.1,5.2,26.2,4.5,26.2z"/>
<path class="st0" d="M12.9,26.3c-0.4,0-0.8-0.1-1.3-0.2c-0.4-0.2-0.8-0.4-1.1-0.7c-0.3-0.3-0.6-0.7-0.8-1.1c-0.2-0.5-0.3-1-0.3-1.5
	c0-0.6,0.1-1.1,0.3-1.6c0.2-0.5,0.5-0.8,0.8-1.1c0.3-0.3,0.7-0.5,1.1-0.7s0.8-0.2,1.3-0.2c0.5,0,0.9,0.1,1.3,0.3
	c0.4,0.2,0.7,0.4,1,0.7v-0.8h1.6v7h-1.6v-0.9c-0.3,0.3-0.6,0.6-1,0.8C13.8,26.2,13.4,26.3,12.9,26.3z M13.2,24.8
	c0.3,0,0.6-0.1,0.8-0.2s0.5-0.3,0.7-0.5c0.2-0.2,0.3-0.4,0.4-0.7c0.1-0.3,0.2-0.5,0.2-0.9c0-0.3-0.1-0.6-0.2-0.8
	c-0.1-0.3-0.3-0.5-0.4-0.7c-0.2-0.2-0.4-0.4-0.7-0.5c-0.3-0.1-0.5-0.2-0.8-0.2c-0.3,0-0.6,0.1-0.8,0.2c-0.3,0.1-0.5,0.3-0.7,0.5
	c-0.2,0.2-0.3,0.4-0.5,0.7s-0.2,0.5-0.2,0.9c0,0.3,0.1,0.6,0.2,0.9s0.3,0.5,0.5,0.7c0.2,0.2,0.4,0.3,0.7,0.5
	C12.6,24.7,12.9,24.8,13.2,24.8z"/>
<path class="st0" d="M17.7,17.2h1.6v8.9h-1.6V17.2z"/>
<path class="st0" d="M23.5,26.3c-0.4,0-0.8-0.1-1.3-0.2c-0.4-0.2-0.8-0.4-1.1-0.7c-0.3-0.3-0.6-0.7-0.8-1.1c-0.2-0.5-0.3-1-0.3-1.5
	c0-0.6,0.1-1.1,0.3-1.6c0.2-0.5,0.5-0.8,0.8-1.1c0.3-0.3,0.7-0.5,1.1-0.7s0.8-0.2,1.3-0.2c0.5,0,0.9,0.1,1.3,0.3
	c0.4,0.2,0.7,0.4,1,0.7v-0.8h1.6v7h-1.6v-0.9c-0.3,0.3-0.6,0.6-1,0.8C24.4,26.2,24,26.3,23.5,26.3z M23.8,24.8
	c0.3,0,0.6-0.1,0.8-0.2s0.5-0.3,0.7-0.5c0.2-0.2,0.3-0.4,0.4-0.7c0.1-0.3,0.2-0.5,0.2-0.9c0-0.3-0.1-0.6-0.2-0.8
	c-0.1-0.3-0.3-0.5-0.4-0.7c-0.2-0.2-0.4-0.4-0.7-0.5c-0.3-0.1-0.5-0.2-0.8-0.2c-0.3,0-0.6,0.1-0.8,0.2c-0.3,0.1-0.5,0.3-0.7,0.5
	c-0.2,0.2-0.3,0.4-0.5,0.7s-0.2,0.5-0.2,0.9c0,0.3,0.1,0.6,0.2,0.9s0.3,0.5,0.5,0.7c0.2,0.2,0.4,0.3,0.7,0.5
	C23.2,24.7,23.5,24.8,23.8,24.8z"/>
<path class="st0" d="M30.5,22.5l-2.5-3.4h2l1.6,2.2l1.6-2.2H35l-2.5,3.5l2.7,3.6h-2l-1.7-2.3l-1.7,2.3h-2L30.5,22.5z"/>
<path class="st0" d="M38.1,25.8l-2.9-6.7h1.7l2,4.7l1.8-4.7h1.7l-4.2,10.3h-1.6L38.1,25.8z"/>
<path class="st0" d="M46,17.4h2.8c1,0,1.7,0.2,2.2,0.6c0.5,0.4,0.8,1,0.8,1.8c0,0.8-0.3,1.3-1,1.7c0.4,0.2,0.7,0.4,0.9,0.8
	s0.3,0.7,0.3,1.2c0,0.9-0.3,1.5-0.8,1.9c-0.6,0.4-1.3,0.6-2.3,0.6h-3V17.4z M47.6,18.9v2h1.1c0.5,0,0.9-0.1,1.1-0.3
	c0.2-0.2,0.3-0.4,0.3-0.8c0-0.3-0.1-0.6-0.3-0.7c-0.2-0.2-0.6-0.2-1.1-0.2H47.6z M47.6,22.4v2.2H49c0.5,0,0.9-0.1,1.1-0.3
	s0.4-0.5,0.4-0.8c0-0.2,0-0.3-0.1-0.5c-0.1-0.1-0.1-0.3-0.3-0.4s-0.3-0.2-0.5-0.2c-0.2,0-0.5-0.1-0.8-0.1H47.6z"/>
<path class="st0" d="M59.2,26.1h-1.6v-0.8c-0.2,0.3-0.5,0.5-0.8,0.7c-0.3,0.2-0.7,0.3-1.2,0.3c-0.4,0-0.8-0.1-1.1-0.2
	c-0.3-0.1-0.6-0.3-0.9-0.6c-0.2-0.3-0.4-0.6-0.5-0.9s-0.2-0.8-0.2-1.3v-4.2h1.6v4c0,0.5,0.1,1,0.4,1.3c0.2,0.3,0.6,0.5,1.1,0.5
	c0.4,0,0.8-0.2,1.1-0.5s0.4-0.8,0.4-1.4v-3.9h1.6V26.1z"/>
<path class="st0" d="M63.3,26.3c-0.4,0-0.8-0.1-1.3-0.2c-0.4-0.2-0.8-0.4-1.1-0.7c-0.3-0.3-0.6-0.7-0.8-1.1c-0.2-0.5-0.3-1-0.3-1.5
	c0-0.6,0.1-1.1,0.3-1.6c0.2-0.5,0.5-0.8,0.8-1.1c0.3-0.3,0.7-0.5,1.1-0.7s0.8-0.2,1.3-0.2c0.5,0,0.9,0.1,1.3,0.3
	c0.4,0.2,0.7,0.4,1,0.7v-2.7h1.6v8.9h-1.6v-0.9c-0.3,0.3-0.6,0.6-1,0.8C64.2,26.2,63.8,26.3,63.3,26.3z M63.6,24.8
	c0.3,0,0.6-0.1,0.8-0.2s0.5-0.3,0.7-0.5c0.2-0.2,0.3-0.4,0.4-0.7c0.1-0.3,0.2-0.5,0.2-0.9c0-0.3-0.1-0.6-0.2-0.8
	c-0.1-0.3-0.3-0.5-0.4-0.7c-0.2-0.2-0.4-0.4-0.7-0.5c-0.3-0.1-0.5-0.2-0.8-0.2c-0.3,0-0.6,0.1-0.8,0.2c-0.3,0.1-0.5,0.3-0.7,0.5
	c-0.2,0.2-0.3,0.4-0.5,0.7s-0.2,0.5-0.2,0.9c0,0.3,0.1,0.6,0.2,0.9s0.3,0.5,0.5,0.7c0.2,0.2,0.4,0.3,0.7,0.5
	C63,24.7,63.3,24.8,63.6,24.8z"/>
<path class="st0" d="M70.8,26.3c-0.8,0-1.4-0.1-1.9-0.4c-0.5-0.3-0.9-0.7-1.2-1.3l1.5-0.7c0.2,0.3,0.4,0.6,0.7,0.8
	c0.3,0.2,0.6,0.3,1,0.3c0.4,0,0.7-0.1,0.9-0.3c0.2-0.2,0.3-0.4,0.3-0.6c0-0.1,0-0.2-0.1-0.3c-0.1-0.1-0.2-0.2-0.4-0.2
	c-0.1-0.1-0.3-0.1-0.5-0.2c-0.2,0-0.4-0.1-0.6-0.1c-0.3-0.1-0.6-0.1-0.9-0.2s-0.6-0.2-0.8-0.4c-0.2-0.2-0.4-0.4-0.6-0.6
	C68,21.8,68,21.5,68,21.1c0-0.3,0.1-0.5,0.2-0.8s0.3-0.5,0.6-0.7c0.2-0.2,0.5-0.4,0.9-0.5c0.3-0.1,0.7-0.2,1.1-0.2
	c0.7,0,1.3,0.1,1.8,0.4c0.5,0.3,0.8,0.6,1.1,1.1l-1.4,0.7c-0.1-0.2-0.3-0.4-0.6-0.6c-0.3-0.1-0.6-0.2-0.9-0.2
	c-0.4,0-0.7,0.1-0.9,0.2c-0.2,0.2-0.3,0.3-0.3,0.5c0,0.2,0.1,0.4,0.4,0.5c0.3,0.1,0.7,0.2,1.2,0.3c0.3,0.1,0.6,0.1,0.9,0.2
	c0.3,0.1,0.6,0.2,0.8,0.4c0.2,0.2,0.4,0.4,0.6,0.6c0.1,0.2,0.2,0.6,0.2,0.9c0,0.2-0.1,0.5-0.2,0.8c-0.1,0.3-0.3,0.5-0.5,0.7
	c-0.2,0.2-0.5,0.4-0.9,0.6C71.7,26.2,71.3,26.3,70.8,26.3z"/>
<path class="st0" d="M79.8,25.8l-2.9-6.7h1.7l2,4.7l1.8-4.7h1.7L80,29.4h-1.6L79.8,25.8z"/>
<path class="st0" d="M92.2,20.6h-2.9v5.5h-1.6v-7h6.2v7h-1.6V20.6z"/>
<path class="st0" d="M98,26.3c-0.4,0-0.8-0.1-1.3-0.2c-0.4-0.2-0.8-0.4-1.1-0.7c-0.3-0.3-0.6-0.7-0.8-1.1c-0.2-0.5-0.3-1-0.3-1.5
	c0-0.6,0.1-1.1,0.3-1.6c0.2-0.5,0.5-0.8,0.8-1.1c0.3-0.3,0.7-0.5,1.1-0.7S97.6,19,98,19c0.5,0,0.9,0.1,1.3,0.3
	c0.4,0.2,0.7,0.4,1,0.7v-0.8h1.6v7h-1.6v-0.9c-0.3,0.3-0.6,0.6-1,0.8C98.9,26.2,98.4,26.3,98,26.3z M98.2,24.8
	c0.3,0,0.6-0.1,0.8-0.2s0.5-0.3,0.7-0.5c0.2-0.2,0.3-0.4,0.4-0.7c0.1-0.3,0.2-0.5,0.2-0.9c0-0.3-0.1-0.6-0.2-0.8
	c-0.1-0.3-0.3-0.5-0.4-0.7c-0.2-0.2-0.4-0.4-0.7-0.5c-0.3-0.1-0.5-0.2-0.8-0.2c-0.3,0-0.6,0.1-0.8,0.2c-0.3,0.1-0.5,0.3-0.7,0.5
	c-0.2,0.2-0.3,0.4-0.5,0.7s-0.2,0.5-0.2,0.9c0,0.3,0.1,0.6,0.2,0.9s0.3,0.5,0.5,0.7c0.2,0.2,0.4,0.3,0.7,0.5
	C97.7,24.7,97.9,24.8,98.2,24.8z"/>
<path class="st0" d="M107.2,19.1l2.4,5.5h0.8v3h-1.4v-1.6h-5.1v1.6h-1.4v-3h0.8l2.4-5.5H107.2z M104.8,24.7h3.1l-1.5-3.6L104.8,24.7
	z"/>
<path class="st0" d="M113.8,26.3c-0.4,0-0.8-0.1-1.3-0.2c-0.4-0.2-0.8-0.4-1.1-0.7c-0.3-0.3-0.6-0.7-0.8-1.1c-0.2-0.5-0.3-1-0.3-1.5
	c0-0.6,0.1-1.1,0.3-1.6c0.2-0.5,0.5-0.8,0.8-1.1c0.3-0.3,0.7-0.5,1.1-0.7s0.8-0.2,1.3-0.2c0.5,0,0.9,0.1,1.3,0.3
	c0.4,0.2,0.7,0.4,1,0.7v-0.8h1.6v7H116v-0.9c-0.3,0.3-0.6,0.6-1,0.8C114.7,26.2,114.2,26.3,113.8,26.3z M114,24.8
	c0.3,0,0.6-0.1,0.8-0.2s0.5-0.3,0.7-0.5c0.2-0.2,0.3-0.4,0.4-0.7c0.1-0.3,0.2-0.5,0.2-0.9c0-0.3-0.1-0.6-0.2-0.8
	c-0.1-0.3-0.3-0.5-0.4-0.7c-0.2-0.2-0.4-0.4-0.7-0.5c-0.3-0.1-0.5-0.2-0.8-0.2c-0.3,0-0.6,0.1-0.8,0.2c-0.3,0.1-0.5,0.3-0.7,0.5
	c-0.2,0.2-0.3,0.4-0.5,0.7s-0.2,0.5-0.2,0.9c0,0.3,0.1,0.6,0.2,0.9s0.3,0.5,0.5,0.7c0.2,0.2,0.4,0.3,0.7,0.5
	C113.4,24.7,113.7,24.8,114,24.8z"/>
<path class="st0" d="M122.5,26.3c-0.5,0-0.9-0.1-1.3-0.3s-0.7-0.4-1-0.7v4.1h-1.6V19.1h1.6V20c0.2-0.3,0.6-0.6,1-0.8
	s0.8-0.3,1.3-0.3c0.4,0,0.9,0.1,1.3,0.2c0.4,0.2,0.8,0.4,1.1,0.7c0.3,0.3,0.6,0.7,0.8,1.1c0.2,0.5,0.3,1,0.3,1.6
	c0,0.6-0.1,1.1-0.3,1.5c-0.2,0.5-0.5,0.8-0.8,1.1c-0.3,0.3-0.7,0.6-1.1,0.7C123.4,26.2,123,26.3,122.5,26.3z M122.3,24.8
	c0.3,0,0.6-0.1,0.8-0.2c0.3-0.1,0.5-0.3,0.7-0.5c0.2-0.2,0.3-0.4,0.5-0.7c0.1-0.3,0.2-0.6,0.2-0.9c0-0.3-0.1-0.6-0.2-0.9
	c-0.1-0.3-0.3-0.5-0.5-0.7c-0.2-0.2-0.4-0.3-0.7-0.5c-0.3-0.1-0.5-0.2-0.8-0.2c-0.3,0-0.6,0.1-0.8,0.2c-0.3,0.1-0.5,0.3-0.7,0.5
	c-0.2,0.2-0.3,0.4-0.4,0.7c-0.1,0.3-0.2,0.5-0.2,0.8c0,0.3,0.1,0.6,0.2,0.9c0.1,0.3,0.2,0.5,0.4,0.7c0.2,0.2,0.4,0.4,0.7,0.5
	C121.7,24.7,122,24.8,122.3,24.8z"/>
<path class="st0" d="M128.5,25.8l-2.9-6.7h1.7l2,4.7l1.8-4.7h1.7l-4.2,10.3h-1.6L128.5,25.8z"/>
<path class="st0" d="M138.1,23.3h-3v2.8h-1.6v-7h1.6v2.7h3v-2.7h1.6v7h-1.6V23.3z"/>
<path class="st0" d="M143.9,26.3c-0.4,0-0.8-0.1-1.3-0.2c-0.4-0.2-0.8-0.4-1.1-0.7c-0.3-0.3-0.6-0.7-0.8-1.1c-0.2-0.5-0.3-1-0.3-1.5
	c0-0.6,0.1-1.1,0.3-1.6c0.2-0.5,0.5-0.8,0.8-1.1c0.3-0.3,0.7-0.5,1.1-0.7s0.8-0.2,1.3-0.2c0.5,0,0.9,0.1,1.3,0.3
	c0.4,0.2,0.7,0.4,1,0.7v-0.8h1.6v7h-1.6v-0.9c-0.3,0.3-0.6,0.6-1,0.8C144.8,26.2,144.4,26.3,143.9,26.3z M144.2,24.8
	c0.3,0,0.6-0.1,0.8-0.2s0.5-0.3,0.7-0.5c0.2-0.2,0.3-0.4,0.4-0.7c0.1-0.3,0.2-0.5,0.2-0.9c0-0.3-0.1-0.6-0.2-0.8
	c-0.1-0.3-0.3-0.5-0.4-0.7c-0.2-0.2-0.4-0.4-0.7-0.5c-0.3-0.1-0.5-0.2-0.8-0.2c-0.3,0-0.6,0.1-0.8,0.2c-0.3,0.1-0.5,0.3-0.7,0.5
	c-0.2,0.2-0.3,0.4-0.5,0.7s-0.2,0.5-0.2,0.9c0,0.3,0.1,0.6,0.2,0.9s0.3,0.5,0.5,0.7c0.2,0.2,0.4,0.3,0.7,0.5
	C143.6,24.7,143.9,24.8,144.2,24.8z"/>
<path class="st0" d="M153.7,26l-2.4-2.8h-0.6V26h-1.6v-7h1.6v2.7h0.5l2.4-2.7h1.9l-3,3.4l3.2,3.6H153.7z"/>
</svg>
