<?xml version="1.0" encoding="utf-8"?>
<!-- Generator: Adobe Illustrator 24.0.3, SVG Export Plug-In . SVG Version: 6.00 Build 0)  -->
<svg version="1.1" id="Слой_1" xmlns="http://www.w3.org/2000/svg" xmlns:xlink="http://www.w3.org/1999/xlink" x="0px" y="0px"
	 viewBox="0 0 300 150" style="enable-background:new 0 0 300 150;" xml:space="preserve">
<style type="text/css">
	.st0{fill:#E0E8EA;stroke:#E0E8EA;stroke-width:12.8134;stroke-linecap:round;stroke-linejoin:round;stroke-miterlimit:10;}
</style>
<g>
	<g>
		<path class="st0" d="M59.7,69.6c1.4-7.6,2.9-15.1,4.3-22.7c-2.1,0-4.3,0-6.4,0c-0.2,4.4,1.7,9.2,4.5,12.6c2.4,2.8,5.6,4.8,9,6.1
			c1.2,0.5,2.4,0.8,3.8,0.7c1.1-0.1,3.8-0.6,2.3-2c-1.3-1.2-3.4-1.9-5.1-2.6c-3.1-1.3-6.4-2.4-9.7-3.1c-4-0.9-8.3-1.3-12.4-0.7
			c-1.9,0.3-3.7,0.8-5.5,1.3c-0.4,0.1,0.4-0.1,0,0c-0.1,0-0.2,0.1-0.3,0.1c-0.2,0.1-0.4,0.1-0.6,0.2c-1,0.3,0.2,0,0.7,0
			c1,0.5,2,1,3,1.5l0,0c0.1,0-0.5,0.3-0.2,0.2c0,0,0.1-0.1,0.2-0.1c0,0,0.3-0.2,0.4-0.2c-0.4,0.3-0.1,0.1,0.1-0.1
			c0.9-0.4,1.9-0.8,2.8-1.2c3-1.2,6-2.1,9.1-3c7.4-2,15-3.3,22.6-2.6c1.5,0.1,3.1,0.3,4.6,0.2c0.8,0,2.9,0,3.4-1
			c0.4-1-1-1.4-1.7-1.5c-3.2-0.7-6.9-0.4-10.2-0.2c-9.4,0.7-21.4,4-24.5,14c-0.4,1.3-0.7,2.7-0.8,4C53.1,71.3,59.5,71.5,59.7,69.6
			c0.5-6.1,4.3-10.8,9.7-13.1c0.6-0.3,1.3-0.5,2-0.8c1-0.4,0.9-0.3,1.8-0.6c0.6-0.2,1.3-0.3,1.9-0.5c0.4-0.1,0.7-0.1,1.1-0.2
			c0.2,0,0.3-0.1,0.5-0.1c0.4-0.1-0.5,0.1,0,0c1.3-0.2,2.6-0.4,4-0.4c0.3,0,0.5,0,0.8-0.1c-1,0.1-0.1,0,0.1,0c0.5,0,1.1,0,1.6,0
			s1,0,1.5,0c0.2,0,0.4,0,0.7,0c-1.2,0-0.5,0-0.2,0s0.6,0.1,0.8,0.1c0.5,0-0.8-0.2-0.5-0.1c0,0-1.6-0.4-1.4-1
			c0.1-0.2,0.3-0.4,0.4-0.6c0.4-0.4,1.4-0.5,1.8-0.6c0.2,0,1.1,0,0.5,0c-0.3,0-0.6,0-0.9,0c-0.6,0,0.9,0.1,0.1,0c-0.2,0-0.5,0-0.7,0
			c-0.7-0.1-1.5-0.1-2.2-0.2c-5.4-0.5-10.9-0.1-16.2,0.8c-5.2,0.8-10.2,2.1-15.2,3.7c-3,0.9-5.9,1.9-8.7,3.3
			c-0.7,0.3-2.1,0.9-1.7,1.8c0.4,0.8,2.1,0.9,2.8,1c0.9,0,1.7,0,2.6-0.2c1.3-0.3,2.6-0.8,3.9-1.2c1.9-0.5,3.6-0.5,5.4-0.3
			c4,0.4,7.9,1.6,11.6,3.1c0.7,0.3,1.4,0.6,2.1,1c0.6,0.3,0.5,0.2,1.2,0.6c0.3,0.2,0.5,0.4,0.8,0.5c-1.9-0.9,6.2-1.5,4.2-1.6
			c0.6,0,0.4,0.1-0.1,0c-4.6-1.9-8.2-4.8-10.2-9.4c-1-2.3-1.6-5-1.5-7.5c0.1-1.8-6.1-1.8-6.4,0c-1.4,7.6-2.9,15.1-4.3,22.7
			C52.9,71.1,59.3,71.5,59.7,69.6z"/>
	</g>
	<g>
		<path class="st0" d="M63.5,38.8c-0.4-2.5-0.5-5.1-0.5-7.7c0-4.3,0.3-9,2.4-12.8c0.4-0.8,1-1.6,1.6-2.3c0.4-0.4,0.8-0.6,1.2-0.9
			c-0.1,0.1,0.2-0.2,0.2-0.1c-0.1-0.1-1,0.1-1.1,0.1c-0.5,0-1.4-0.2-1.4-0.2c0.1,0.2-0.2-0.1,0.2,0.1c0.3,0.2,0.6,0.4,0.9,0.7
			c0.7,0.7,1.3,1.5,1.8,2.4c1.8,3,3,6.3,3.4,9.8c0.5,4.6,0.6,9.3,0.2,13.8c-0.2,2.4-0.5,4.9-1.2,7.2c-0.8,2.5-2.5,4.9-4.1,7
			c-0.8,1-1.6,2-2.6,2.8c-0.4,0.3-0.8,0.6-1.3,0.8c-0.4,0.2-0.8,0.1-0.1,0.2c-0.7-0.1,0,0,0.2,0c0,0-1-0.1-0.4,0
			c0.5,0.1-1.1-0.3-0.6-0.2c-1.1-0.3-2-0.9-2.9-1.5c-4.9-3.6-6.7-10.1-7.8-15.7c-1.3-6.8-1.4-13.8,1.6-20.2c1.2-2.4,2.7-5,5-6.5
			c0.8-0.6,1.9-0.8,2.7-1c0.3,0,0.5-0.1,0.8-0.1c0.1,0,1.3-0.1,0.3,0c0.3,0,0.6,0,0.9,0c1,0,3.8-0.1,3.9-1.5s-3.1-1.5-3.9-1.5
			c-2.9,0-6,0.3-8.8,1.4c-2.6,1-4.7,2.9-6.3,5.1c-4.1,5.8-5.1,12.7-4.5,19.7c0.6,6.7,2.2,14.7,7,19.8c4.4,4.7,11.6,6.8,17.9,4.6
			c3.1-1.1,5.4-3.6,7.3-6.3c1.8-2.5,3.2-4.9,3.9-7.9c1.3-5.5,1.3-11.3,0.9-16.9c-0.3-4.1-1.1-7.9-2.9-11.7c-1-2.1-2.3-4.2-4.3-5.5
			c-2.7-1.9-6.7-2.1-9.8-0.9c-5.9,2.2-7.4,9.2-7.8,14.6c-0.3,3.8-0.2,7.7,0.3,11.5C56.1,41.1,63.8,40.8,63.5,38.8L63.5,38.8z"/>
	</g>
	<g>
		<path class="st0" d="M80.6,11C84,22.6,86,34.9,86.2,46.9c0.1,5-0.2,10-1.2,14.9c-0.4,1.8,7.3,2.4,7.7,0c1.7-8.7,1.4-17.7,0.4-26.4
			c-0.8-6.9-2.1-13.8-3.8-20.5c-0.3-1.3-0.7-2.6-1-3.9C87.7,8.6,80.2,9.4,80.6,11L80.6,11z"/>
	</g>
	<g>
		<path class="st0" d="M96.4,33.5c2.3,4.5,3.5,9.7,4.1,14.7c0.4,3.6,0.5,7.3,0.1,10.9c-0.1,0.5-0.1,1.1-0.2,1.6
			c-0.1,0.4-0.3,0.7,0,0.1c2.5,0.1,5.1,0.3,7.6,0.4c0-0.1,0.1-0.3,0.1-0.4c0-0.1,0.1-0.3,0.1-0.4c0.2-0.5-0.1,0.1,0.1-0.3
			c0.5-1.2,1-2.4,1.7-3.5c1-1.6,2.2-3.2,3.6-4.5c0.6-0.5,1.6-1.4,2.4-2c0.9-0.7,2.3-1.5,3.1-1.9c0.7-0.4,1.5-0.7,2.2-1
			c0.4-0.2,0.8-0.3,1.2-0.4c0.2-0.1,0.3-0.1,0.5-0.2c1-0.3-0.3,0.1,0.3-0.1c2.1-0.6,3.5-0.8,5.5-1.1c0.9-0.1,3.3-0.5,2.7-1.9
			c-0.6-1.3-3.7-1.2-4.8-1.1c-10.4,1.1-21.6,6-25.7,16.3c-0.2,0.5-0.9,1.8-0.7,2.3c0.4,1.3,2.2,1.4,3.3,1.5c1.2,0.1,3.5,0.1,4.2-1.1
			c0.4-0.6,0.4-1.7,0.4-2.4c0.4-3.7,0.4-7.4-0.1-11c-0.6-5.2-2-10.7-4.3-15.5C102.9,30.7,95.4,31.4,96.4,33.5L96.4,33.5z"/>
	</g>
	<g>
		<path class="st0" d="M95.1,35.4c3.5,0.3,7-0.1,10.5-0.7c7-1.3,13.6-4.2,19.4-8.1c1.4-1-0.5-1.9-1.4-2.1c-1.6-0.4-3.9-0.4-5.3,0.5
			c-5.1,3.4-10.5,5.8-16.4,6.9c-0.4,0.1-0.5,0.1-0.1,0c-0.3,0-0.5,0.1-0.8,0.1c-0.5,0.1-1,0.1-1.5,0.2c-0.4,0-0.9,0.1-1.3,0.1
			c-0.7,0.1,0.8,0,0.4,0c-0.2,0-0.3,0-0.5,0c-0.5,0-1,0-1.5,0c-0.7,0,1.3,0.1,0.4,0c-1.2-0.1-4-0.2-4.8,1.1
			C91.6,34.8,94.4,35.3,95.1,35.4L95.1,35.4z"/>
	</g>
	<g>
		<path class="st0" d="M103.3,46.2C102.6,46.8,103,46.5,103.3,46.2c0.1-0.1,0.4-0.3,0.6-0.5c1-0.7,2.1-1.4,3.2-2
			c0.4-0.2,0.8-0.4,1.2-0.7c-0.6,0.3,0,0,0.1-0.1c0.3-0.1,0.5-0.3,0.8-0.4c1.1-0.5,2.2-1,3.3-1.4c2.9-1.2,5.9-2.2,8.7-3
			c0.9-0.3,2.8-1.1,1.4-2.1c-1.3-0.9-3.8-1-5.3-0.5c-5.8,1.7-11.5,3.6-16.7,6.5c-1.7,0.9-3.3,1.9-4.7,3.3c-0.4,0.4,0.1,1,0.4,1.2
			c0.6,0.4,1.6,0.6,2.3,0.7C100.1,47.4,102.1,47.3,103.3,46.2L103.3,46.2z"/>
	</g>
	<g>
		<path class="st0" d="M121.9,11.5c0.1,0.2,0.3,0.8,0.2,0.4c0.2,0.7,0.5,1.4,0.7,2.1c0.8,2.5,1.5,5.1,2.2,7.7c2,7.9,3.5,15.9,4.1,24
			c0.4,5.4,0.5,10.8,0,16.1c-0.2,2,7.5,2.3,7.7,0c1.4-15.9-1.5-32.2-6.2-47.4c-0.4-1.3-0.8-2.5-1.2-3.8
			C128.7,8.7,121.1,9.2,121.9,11.5L121.9,11.5z"/>
	</g>
	<g>
		<path class="st0" d="M212.4,26.1c3.3,11.4,5.3,23.1,2.9,34.9c-0.2,1.2,2.8,1.5,3.3,1.5c1.2,0.1,3.4,0.1,4.2-1.1
			c3.6-5.2,8.7-10,14.5-12.6c1.3-0.6,1.4-1.6,0-2.2c-1.5-0.6-3.9-0.7-5.5,0c-6.5,2.9-12.4,8-16.5,13.9c2.5,0.1,5.1,0.3,7.6,0.4
			c2.4-11.8,0.4-23.5-2.9-34.9C219.4,23.8,211.9,24.5,212.4,26.1L212.4,26.1z"/>
	</g>
	<g>
		<path class="st0" d="M229.7,26.1c3.3,11.4,5.3,23.1,2.9,34.9c2.6,0,5.1,0,7.7,0c0.4-2.1,1-4.2,1.8-6.2c0.7-1.7,1.6-3.3,2.7-4.8
			c0.5-0.7,1.1-1.4,1.8-1.9c0.4-0.3,0.8-0.6,1.2-0.8c0.1-0.1,0.9-0.4,0.5-0.3c1-0.3,2.7-1,1.4-2.1c-1.2-1-3.9-1-5.3-0.5
			c-7.2,2.2-10.6,9.7-11.8,16.6c-0.3,1.9,7.2,2.3,7.7,0c2.4-11.8,0.4-23.5-2.9-34.9C236.7,23.8,229.2,24.5,229.7,26.1L229.7,26.1z"
			/>
	</g>
	<g>
		<path class="st0" d="M143.2,24.5c-4.5,6.3-9.1,12.7-13.6,19c-0.2,0.3-0.2,0.5,0,0.8c3.9,4.9,8.4,9.3,13.1,13.4
			c4.2,3.7,8.7,7,13.6,9.8c2.1,1.2,4.4,2.1,6.4,3.3c0.3,0.2,0.6,0.4,0.9,0.6c0.4,0.3-0.1,0,0,0c0,0,0.2,0.2,0.2,0.3
			c0-0.3-0.2,0,0-0.3c-0.1,0.2,0.5-0.3,0.2-0.2c-0.4,0.2,0.7-0.3,0.2-0.1c-0.5,0.2,0.7-0.1,0.3-0.1c-0.1,0-0.3,0.1-0.4,0.1
			c-0.8,0.1,0.9-0.1,0.2,0c-0.2,0-0.5,0.1-0.7,0.1c-2.5,0.3-5,0.4-7.6,0.5c-7.6,0.4-15.3,1-22.8,2.6c-8.5,1.8-17.5,5.1-23,12
			c-1,1.2,2.1,1.8,2.7,1.9c1.4,0.2,3.8,0.2,4.8-1.1c2.1-2.7,5.1-4.9,8-6.3c3.6-1.8,6.8-2.8,10.6-3.7c4-0.9,7-1.3,11.3-1.8
			c3.5-0.4,7-0.6,10.6-0.8c2.5-0.1,5.1-0.2,7.6-0.5c1.5-0.2,4.7-0.4,5.5-2c0.9-1.6-2.2-3-3.2-3.5c-5.2-2.5-10.1-5.4-14.7-9
			c-6-4.7-11.7-10.1-16.4-16c0,0.3,0,0.5,0,0.8c4.5-6.3,9.1-12.7,13.6-19c0.9-1.2-2-1.8-2.7-1.9C146.6,23.2,144.1,23.2,143.2,24.5
			L143.2,24.5z"/>
	</g>
	<g>
		<path class="st0" d="M180.1,31.6c2.7-4.6,5.5-9.4,7-14.5c0.5-1.8,0.7-4.6-0.3-6.3c-0.8-1.4-2.6-1.8-4.1-2
			c-2.2-0.2-4.5,0.2-6.5,1.1c-7.6,3.4-13.6,10.1-19,16.2c-3.7,4.2-7.8,8.6-10.8,13.4c-1.2,1.9-2.4,4.2-2.7,6.5
			c-0.4,3.1,2.3,4.4,5.1,4.7c4.4,0.5,8.7-1.2,12.8-2.7c4.3-1.5,8.6-3.1,13-4.5c4.5-1.5,9-2.9,13.5-4c2-0.5,4-0.9,5.9-1.2
			c0.9-0.1,1.9-0.2,2.8-0.3c0.1,0,0.9-0.1,0.5,0c-0.4,0,0.2,0,0.2,0c0.5,0,1,0,1.5,0c1.9,0,3.5,0.1,4.8,0.8
			c-0.3-0.1,0.3,0.2,0.4,0.3c0.3,0.2,0.2,0.1,0.3,0.3c0.3,0.4,0.5,0.7,0.5,1c0.4,1.8-0.8,3.5-1.8,4.9c-3.2,4.6-6.9,9-10.6,13.3
			c-4.5,5.3-9.1,10.8-14.5,15.2c-0.9,0.7-1.8,1.4-2.8,2c2.4,0.4,4.7,0.8,7.1,1.2c1.8-3.7,3.1-7.8,3.9-11.8
			c1.4-6.6,1.5-14.2-2.9-19.8c-1-1.2-3.3-1.2-4.8-1.1c-0.6,0.1-3.7,0.7-2.7,1.9c4.3,5.3,4,12.6,2.7,19c-0.8,3.8-2,7.6-3.6,11
			c-0.6,1.2,1.4,1.7,2.2,1.8c1.6,0.3,3.4,0.2,4.8-0.6c5.1-3.1,9.2-8.1,13.1-12.4c4.5-5,8.7-10.1,12.8-15.4c2-2.6,5.9-6.6,4.3-10.2
			c-1.3-2.9-5.6-3.6-8.4-4c-4.4-0.6-9-0.4-13.4,0.3c-9.2,1.5-18.1,4.5-26.9,7.5c-3.9,1.3-7.7,2.8-11.6,4.1c-0.3,0.1-0.6,0.2-0.9,0.3
			c-0.3,0.1-0.5,0.1-0.8,0.2c-0.5,0.1,0,0,0,0c-0.2,0.1-0.8-0.1,0.1,0c-0.1,0-0.6,0,0,0c0.5,0,1.1,0.2,1.1,0.2c0.1,0,0.1,0.1,0,0
			s-0.2-0.3-0.2-0.4c0,0-0.1-0.8-0.1-1.1c0.2-3.9,3.3-7.5,5.6-10.4c4.7-5.9,9.6-11.7,15.1-16.9c2.7-2.6,5.7-5,9-6.8
			c0.4-0.2,0.8-0.4,1.2-0.5c0.4-0.2,0,0,0,0c0.1-0.2,0.9,0-0.2,0c-0.5,0-0.8,0-1.3,0c-0.5-0.1-1.2-0.4-1.6-0.4c0.1,0,0-0.2,0.2,0.2
			c0.4,0.7,0.4,1.6,0.4,2.6c0.1,2.6-0.9,5-2,7.3c-1.3,2.7-2.7,5.4-4.2,8.1c-0.3,0.5-0.5,0.9-0.8,1.4C171.6,32.7,179,33.6,180.1,31.6
			L180.1,31.6z"/>
	</g>
	<g>
		<path class="st0" d="M231.7,10.3C231.7,10.2,231.7,10.2,231.7,10.3c0,0,0,0,0,0.1c0-0.2,0-0.3,0-0.5c0-0.1,0.1-0.1,0.1-0.2
			c0.1-0.2-0.2,0.2,0,0c0.1-0.1,0.1-0.1-0.1,0.1c-0.1,0.2-0.3,0.3-0.5,0.5c-0.6,0.6-1.4,1.1-2.1,1.5c-0.1,0.1-0.5,0.3-0.7,0.3
			c0.1,0,0.2-0.1,0.2-0.1h0.1c0.1,0,0.1,0-0.1,0c0,0,0.2,0,0.3,0c0.2,0,0.4,0,0.5,0c0.4,0,0.7,0.1,1.1,0.2c-0.1,0-0.1,0-0.2-0.1
			c1.4,0.5,2.1,2,2.2,3.5c0-0.1,0-0.1,0-0.2c0,0.6-0.1,1.3-0.3,1.9c0,0.1-0.1,0.3-0.2,0.4c0,0.1-0.1,0.1-0.1,0.2
			c0,0-0.2,0.3-0.1,0.1c0.1-0.2,0,0.1-0.1,0.1c0,0.1-0.1,0.1-0.1,0.2s-0.1,0.1-0.1,0.2c-0.2,0.3,0.3-0.3,0.1-0.1
			c-0.3,0.3,0.5-0.4,0.1-0.1c0.6-0.6,1.3-1,1.8-1.3c-0.3,0.2,0.5-0.2,0.3-0.1c-0.3,0.1,0.1,0,0.2-0.1c-0.2,0-0.3,0.1-0.5,0.1
			c0.2,0,0.1,0,0,0s-0.2,0-0.3,0c-0.2,0-0.4,0-0.6,0c-0.4,0-0.7-0.1-1.1-0.2c0.1,0,0.1,0,0.2,0.1c-1.8-0.7-3.3-2.3-3.4-4.3
			c0,0.1,0,0.1,0,0.2c0-0.5,0.1-1,0.2-1.5c0-0.1,0.1-0.2,0.1-0.3c-0.1,0.3,0,0,0.1-0.1c0-0.1,0.1-0.1,0.1-0.2
			c0.1-0.2,0.1-0.1-0.1,0.1l0.1-0.1c0.2-0.2,0.1-0.1-0.2,0.2c0.1-0.1,0.1-0.1-0.1,0.1c-0.2,0.2-0.4,0.4-0.7,0.5
			c-0.3,0.2-0.6,0.4-0.9,0.6c-0.4,0.2-0.5,0.2-0.3,0.2c0.4-0.2-0.4,0.1,0,0c0.1,0,0.2-0.1,0.3-0.1c-0.3,0.1,0.1,0,0.2,0
			c0.1,0,0.3,0,0.4,0c0.3,0,0.5,0.1,0.8,0.2c0.3,0.1,1.2-0.4,1.4-0.5C230.5,11.3,231.1,10.8,231.7,10.3c0.5-0.3,1.1-0.7,1.4-1.3
			c0.1-0.2,0.3-0.4,0-0.6c-2-0.7-4.2,0.8-5.7,1.9c-1.6,1.1-3.5,2.7-3.8,4.8c-0.4,2.6,1.8,5,4.3,5.5c1.8,0.3,3.5-0.6,5-1.5
			c1.8-1.2,3.6-2.6,4.4-4.6c0.8-1.8,0.6-4.7-1.4-5.8c-1.3-0.7-2.7-0.5-4,0c-1.6,0.7-3.2,1.8-4.3,3.1c-0.6,0.6-0.9,1.2-0.8,2
			c0,0.3,1.1-0.2,1-0.2c0.7-0.3,1.3-0.7,1.9-1.1c0.6-0.4,1.2-0.9,1.7-1.4C231.4,10.9,231.7,10.6,231.7,10.3L231.7,10.3z"/>
	</g>
	<g>
		<path class="st0" d="M213.2,10c-0.2-0.3-0.3-0.6-0.3-0.9c0,0.1,0,0.1,0,0.2c0-0.3,0-0.5,0.1-0.8c0-0.1,0.1-0.1,0.1-0.2
			c-0.1,0.1-0.1,0.1,0,0c0.1-0.2,0.1-0.1-0.1,0.1c0.2-0.2,0.1-0.1-0.3,0.2c-0.7,0.7-1.5,1.2-2.4,1.6c-0.3,0.1-0.3,0.1-0.1,0
			c0.2,0,0.2,0,0,0c0.1,0,0.1,0,0.2,0c0.4,0,0.7,0.1,1.1,0.2c-0.1,0-0.1,0-0.2-0.1c2.2,0.8,2.9,3,3,5.1c0-0.1,0-0.1,0-0.2
			c0,0.9,0,1.9-0.1,2.8c0,0.5-0.1,0.9-0.3,1.4c0,0.1-0.3,0.6-0.1,0.4c-0.3,0.4,0.2-0.2,0,0.1c0.7-0.8,1.7-1.5,2.7-1.9
			c-0.3,0.1,0.5-0.1,0,0c-0.1,0-0.1,0-0.2,0.1c0.2,0,0.2,0,0,0s-0.3,0-0.4,0c-0.6,0-1.2-0.1-1.8-0.3c0.1,0,0.1,0,0.2,0.1
			c-2.1-0.8-3-2.8-3.1-4.9c0,0.1,0,0.1,0,0.2c0-1.4,0.3-2.8,0.7-4.2c0.1-0.4-0.4-0.2-0.5-0.2c-0.6,0.2-1.2,0.5-1.7,0.8
			c-0.7,0.4-1.3,0.9-1.9,1.4c-0.3,0.3-0.8,0.7-0.9,1.1c-0.8,2.4-1.2,5.4,0.2,7.6c1.2,1.8,3.5,2.4,5.5,1.8c1-0.3,2-0.9,2.9-1.5
			c1.1-0.7,2.1-1.6,3-2.6c0.9-1.2,0.9-2.7,1-4.1c0.1-2.6-0.3-5.9-3.3-6.8c-0.7-0.2-1.4-0.1-2.1,0.1c-1.6,0.6-3.1,1.7-4.4,2.8
			c-1,1-2.4,2.5-1.4,4c0.1,0.2,0.9-0.1,1-0.2c0.7-0.3,1.3-0.7,1.9-1.1c0.6-0.4,1.2-0.9,1.7-1.4C212.8,10.7,213.3,10.3,213.2,10
			L213.2,10z"/>
	</g>
	<g>
		<path class="st0" d="M83.1,78.5c1.1,2.2,1.9,4.7,2.7,7c2.3,7.2,3.6,14.7,4.6,22.2c0.8,6.4,1.1,12.8,1.2,19.2c0,2.2,7.8,2.2,7.7,0
			c-0.3-15.7-1.9-32.1-7.7-46.8c-0.3-0.8-0.6-1.6-1-2.4C89.6,75.8,82.1,76.5,83.1,78.5L83.1,78.5z"/>
	</g>
	<g>
		<path class="st0" d="M68,81.2c6.8,2.4,13.4,5.2,20,8.1c11.2,5,22.4,10.4,31.9,18.1c3.3,2.6,7.8,6.4,8.6,10.6
			c0.8,4.4-3.3,7-6.9,8.6c-1.9,0.8-3.8,1.4-5.7,2.1c-0.3,0.1-0.6,0.2-1,0.3c-0.2,0.1-0.5,0.2-0.7,0.2c-0.1,0-0.2,0.1-0.3,0.1
			c-1,0.3,0.9-0.2,0.2-0.1c-1.6,0.5-3.3,0.9-5,1.3c-1,0.2-2,0.4-3,0.6c-0.5,0.1-1.1,0.2-1.6,0.3c-1.2,0.2,1.1-0.2-0.1,0
			c-0.4,0.1-0.7,0.1-1.1,0.2c-1.5,0.2-3,0.4-4.5,0.5c-0.8,0.1-1.6,0.1-2.4,0.2c0.2,0,1.1,0,0.2,0c-0.6,0-1.1,0-1.7,0.1
			c-1.6,0-3.1,0-4.7,0c1.3,0-0.2,0-0.4,0c-0.4,0-0.9-0.1-1.3-0.1c-0.9-0.1-1.8-0.2-2.7-0.3c-0.4-0.1-0.9-0.1-1.3-0.2
			c0.9,0.1-0.5-0.1-0.6-0.1c-0.9-0.2-1.8-0.4-2.7-0.6c-2-0.5-3-0.8-4.8-1.4c-3.6-1.3-7-3.1-10.2-5.3c-1.9-1.3-4.9-1.2-7-0.7
			c-1.2,0.3-3.7,1.5-1.8,2.8c19,13.2,45,12.2,66.1,5c5-1.7,11.9-3.9,14.5-8.9c2.2-4.2-0.3-8.6-3.2-11.8
			c-8.8-9.7-21.4-15.9-33.1-21.5c-8.6-4.1-17.4-7.8-26.4-11c-2.2-0.8-5.1-0.9-7.3,0C66.3,79,66.1,80.5,68,81.2L68,81.2z"/>
	</g>
	<g>
		<path class="st0" d="M152.3,101.6c-0.3-1.8-0.2-3.6,0.2-5.4c0.2-0.7,0.5-1.5,0.8-2.1c0.4-0.8,1.2-1.3,1.6-2l0.3-0.2
			c-0.2,0-0.5,0.1-0.7,0.1c0.5,0,0.5,0,0.2,0c0.1,0,0.7,0,0.8,0.1c1.3,0.2,2.6,0.9,3.7,1.7c5.5,3.8,8,10.9,7.4,17.4
			c-0.5,5.5-3.8,12.4-9.7,13.7c-0.4,0.1-0.8,0.1-1.1,0.1c0.6,0-0.2,0-0.4,0c-0.7-0.1,0.8,0.2-0.4-0.1c-1.3-0.3-2.5-1-3.7-1.8
			c-2.5-1.8-4.4-4.5-5.6-7.4c-1.5-3.6-1.8-7.6-1.1-11.4c0.6-3.4,2-7.2,4.8-9.5c1.3-1-0.4-1.9-1.4-2.1c-1.5-0.3-4-0.5-5.3,0.5
			c-6.5,5.2-7.5,15.3-4.7,22.6c3.2,8.2,11.2,12.8,20,12.1c8.6-0.7,14.8-7.1,16.1-15.4c1.3-8-2.2-17-9.5-21
			c-4.2-2.3-10.3-3.6-14.9-1.7c-4.5,1.9-5.9,7.6-5.2,11.9C144.9,103.9,152.6,103.5,152.3,101.6L152.3,101.6z"/>
	</g>
	<g>
		<path class="st0" d="M169.8,107.2c0.9,2.3,1.8,4.7,2.7,7.1c1.1,3.2,2.6,6.9,2.7,10.3c0,0.3-0.1,0.8,0,1.1c0.2,1.2,1.8,1.5,2.9,1.6
			c1.8,0.2,4.3,0.1,5.1-1.8c1.1-2.6,1.9-5.5,2.7-8.2c1.1-3.5,2.1-7,3.2-10.4c0.7-2.2,1-4.7,2.5-6.6c0.4-0.6,0.8-0.9,1.2-1.3
			c0.2-0.2,0.5-0.3,0.7-0.5c0.4-0.3,0.1,0,0,0c0.1-0.1,0.5-0.2,0.6-0.2c-0.1,0-0.8,0.2-0.9,0.2c0.6-0.1-0.4,0-0.4,0
			c-0.4,0-0.7-0.1-1.1-0.1c-0.8-0.1-0.2-0.2-0.1,0c0.2,0.3-0.3-0.2,0,0c0.1,0.1,0.3,0.2,0.4,0.3c0.2,0.2,0.5,0.5,0.7,0.8
			c1.5,2,2.1,4.6,2.5,7c0.7,3.5,1.3,7.1,2,10.6c1.5,8.2,3.1,16.4,4.5,24.7c0.4,2.3,8.1,1.9,7.7,0c-0.8-4.4-1.6-8.8-2.4-13.2
			c-0.9-4.8-1.8-9.5-2.6-14.3c-0.9-4.7-1.2-10.1-3.5-14.4c-3.1-5.9-11.9-5.7-16.1-1.1c-1.4,1.5-2,3.3-2.5,5.3
			c-0.7,2.4-1.4,4.7-2.1,7c-0.9,3.1-1.9,6.3-2.9,9.4c-0.4,1.1-0.7,2.2-1.1,3.4c-0.1,0.3-0.3,0.7-0.4,1c-0.1,0.5-0.5,0.6,0.1,0.2
			c1.1-0.3,2.2-0.5,3.3-0.8l0,0c1.1,0.3,2.2,0.5,3.3,0.8c1.3,1.1,0.3,0.9,0.5,0.4c0.1-0.2,0-0.6,0-0.9c0-0.9-0.2-1.7-0.4-2.5
			c-0.5-2.2-1.2-4.4-1.9-6.6c-1-3.1-2.1-6.1-3.4-9.1C176.5,104.5,168.9,105,169.8,107.2L169.8,107.2z"/>
	</g>
	<g>
		<path class="st0" d="M209.5,90.4c0,0,8.6,18.3,4.3,35.5"/>
		<g>
			<path class="st0" d="M205.7,90.8c1.6,3.5,2.8,7.3,3.7,11.1c1.9,7.8,2.4,16.1,0.5,24c-0.4,1.7,7.1,2.4,7.7,0
				c1.9-8,1.3-16.4-0.6-24.4c-0.9-3.9-2.1-7.9-3.8-11.5C212.3,88.1,204.7,88.7,205.7,90.8L205.7,90.8z"/>
		</g>
	</g>
	<g>
		<path class="st0" d="M231.9,125.9c0.2-5.5-0.3-11.2-1.1-16.7c-0.7-4.9-1.7-9.7-3.3-14.4c-0.4-1.2-0.8-2.1-1.1-3.2
			c-0.1-0.3-0.1-0.9-0.2-1.2c0.3,0.8-7,0.7-6.9,0.7l0.2,0.1c0,0-0.4-0.5-0.2-0.1c0.1,0.1,0.2,0.2,0.3,0.3c0.5,0.5,0.9,1.1,1.3,1.7
			c1.3,1.8,2.5,3.6,3.7,5.4c3.3,4.9,6.6,9.9,10,14.8c3.1,4.4,6.3,9.4,10.7,12.8c1.1,0.8,3.1,0.8,4.4,0.7c0.8-0.1,2.9-0.4,2.8-1.5
			c-0.2-7.6,0.9-15.3,2.3-22.8c0.8-4.1,1.6-8.2,2.7-12.2c0.4-1.7-7.1-2.4-7.7,0c-1.1,4-1.9,8.1-2.7,12.2c-1.4,7.5-2.6,15.1-2.3,22.8
			c2.4-0.3,4.8-0.5,7.2-0.8c-0.9-0.7-1-0.8-1.8-1.7c-0.9-0.9-1.7-1.9-2.5-2.8c-1.9-2.3-3.7-4.8-5.4-7.2c-3.6-5.1-7-10.4-10.5-15.6
			c-1.2-1.8-2.4-3.6-3.7-5.4c-1.2-1.6-2.3-2.7-4.5-3c-1.3-0.1-4.7-0.2-5.1,1.6c-0.1,0.4,0.1,0.9,0.2,1.2c1.1,3.9,2.6,7.7,3.4,11.7
			c1.5,7.3,2.3,14.9,2,22.4C224.1,128,231.8,128.1,231.9,125.9L231.9,125.9z"/>
	</g>
	<g>
		<path class="st0" d="M208.6,80c-3.4,0.2-6.4-1.8-8-4.7c-1.5-2.7-1.4-5.8,0.4-8.1c0.4-0.5-0.2,0.1,0.1-0.1c0.4-0.2-0.5,0.4-0.4,0.3
			c-0.1,0.1-0.6,0.4-0.1,0.1c-0.5,0.4-0.2,0.1,0,0c-0.4,0.1,0.4-0.1,0.5-0.2c0.4-0.1,0.7-0.2,1.1-0.3c1.4-0.3,2.9-0.2,4.2,0.3
			c3.4,1.3,5.4,4.9,6.7,8.1c0.4,1.1,0.8,2.3,0.6,3.4c-0.1,0.4-0.2,0.9-0.4,1.3c0,0.1-0.3,0.4-0.3,0.4c-0.1-0.2,1.3-1,1.6-1.2
			c0.8-0.4,0-0.1-0.2,0c-0.2,0-0.5,0-0.7,0c-0.5,0-0.9-0.1-1.3-0.2c-1-0.3-1.8-0.9-2.4-1.8c-0.6-0.7-5.5,2.9-5,3.6
			c1.4,1.8,3.7,2.5,5.8,1.9c1.6-0.5,3.1-1.5,4.4-2.5c1.2-0.9,2.3-2,3-3.3c1.2-2.3,0.2-4.7-0.8-6.8c-1-2.1-2.3-4.2-4.2-5.5
			c-3.4-2.5-7.6-1.7-11.1,0.3c-3.9,2.2-8.1,5.8-7.5,10.7c0.5,4.5,4.8,8.2,9.4,7.9c1.2-0.1,2.5-1.2,3.3-1.9c0.5-0.4,1-0.8,1.3-1.3
			C208.7,80.4,209,79.9,208.6,80L208.6,80z"/>
	</g>
	<g>
		<path class="st0" d="M38.1,25.8c-3.7-5.7-8.3-10.8-13.5-15.1c-0.5-0.4-1.7-0.6-2.3-0.7c-0.8-0.1-1.7-0.1-2.5,0.1
			c-0.9,0.2-2.7,0.6-2.2,1.8c0.1,0.2,0.2,0.5,0.3,0.7c0.2,0.5,1.4,0.8,1.8,0.9c0.9,0.2,2,0.3,3,0.2c0.9-0.1,3.3-0.5,2.7-1.9
			c-0.1-0.2-0.2-0.5-0.3-0.7c-2.4,0.4-4.7,0.8-7.1,1.2c4.9,4.1,9.2,9,12.7,14.4c0.3,0.5,1.2,0.8,1.8,0.9c0.9,0.2,2,0.3,3,0.2
			C36.1,27.6,39,27.1,38.1,25.8L38.1,25.8z"/>
	</g>
	<g>
		<path class="st0" d="M29.4,28.8c-2.9-3.3-5.8-6.5-8.9-9.6c-0.7-0.7-1.5-1.5-2.3-2.2s-1.5-1.6-2.4-2.2c-1.3-0.9-3-1.2-4.6-1.2
			c-1.4,0-3.8,0.2-4.6,1.6C5.8,16.5,8.5,17,9.3,17c1,0.1,2,0.1,3-0.2c0.6-0.2,1.5-0.4,1.8-0.9l0.1-0.1c-1.7,0.2-3.4,0.3-5.1,0.5
			c0.5,0.1-0.1-0.2,0,0c0.2,0.2,0.4,0.3,0.6,0.4c0.6,0.6,1.2,1.1,1.8,1.7c1.2,1.2,2.5,2.4,3.7,3.7c2.4,2.5,4.7,5,6.9,7.6
			c1,1.2,3.3,1.3,4.8,1.1C27.3,30.6,30.4,30,29.4,28.8L29.4,28.8z"/>
	</g>
	<g>
		<path class="st0" d="M269.6,96.2c1.8-6.9,5.2-13.3,9.7-18.9c1-1.2-2.1-1.8-2.7-1.9c-1.4-0.1-3.7-0.2-4.8,1.1
			c-4.7,5.8-8.1,12.5-10,19.7c-0.1,0.5,0.9,1,1.1,1.1c0.8,0.3,1.9,0.5,2.7,0.4C266.9,97.7,269.2,97.6,269.6,96.2L269.6,96.2z"/>
	</g>
	<g>
		<path class="st0" d="M279.5,97.7c3-8.4,7.8-16.1,13.9-22.6c1.1-1.1-2.2-1.8-2.7-1.9c-1.5-0.1-3.6-0.1-4.8,1.1
			c-6.1,6.6-10.8,14.3-13.9,22.6c-0.5,1.4,1.7,1.8,2.7,1.9s2,0.1,3-0.2C278.2,98.5,279.3,98.2,279.5,97.7L279.5,97.7z"/>
	</g>
</g>
<g>
	<g>
		<path d="M59.7,69.6c1.4-7.6,2.9-15.1,4.3-22.7c-2.1,0-4.3,0-6.4,0c-0.2,4.4,1.7,9.2,4.5,12.6c2.4,2.8,5.6,4.8,9,6.1
			c1.2,0.5,2.4,0.8,3.8,0.7c1.1-0.1,3.8-0.6,2.3-2c-1.3-1.2-3.4-1.9-5.1-2.6c-3.1-1.3-6.4-2.4-9.7-3.1c-4-0.9-8.3-1.3-12.4-0.7
			c-1.9,0.3-3.7,0.8-5.5,1.3c-0.4,0.1,0.4-0.1,0,0c-0.1,0-0.2,0.1-0.3,0.1c-0.2,0.1-0.4,0.1-0.6,0.2c-1,0.3,0.2,0,0.7,0
			c1,0.5,2,1,3,1.5l0,0c0.1,0-0.5,0.3-0.2,0.2c0,0,0.1-0.1,0.2-0.1c0,0,0.3-0.2,0.4-0.2c-0.4,0.3-0.1,0.1,0.1-0.1
			c0.9-0.4,1.9-0.8,2.8-1.2c3-1.2,6-2.1,9.1-3c7.4-2,15-3.3,22.6-2.6c1.5,0.1,3.1,0.3,4.6,0.2c0.8,0,2.9,0,3.4-1
			c0.4-1-1-1.4-1.7-1.5c-3.2-0.7-6.9-0.4-10.2-0.2c-9.4,0.7-21.4,4-24.5,14c-0.4,1.3-0.7,2.7-0.8,4C53.1,71.3,59.5,71.5,59.7,69.6
			c0.5-6.1,4.3-10.8,9.7-13.1c0.6-0.3,1.3-0.5,2-0.8c1-0.4,0.9-0.3,1.8-0.6c0.6-0.2,1.3-0.3,1.9-0.5c0.4-0.1,0.7-0.1,1.1-0.2
			c0.2,0,0.3-0.1,0.5-0.1c0.4-0.1-0.5,0.1,0,0c1.3-0.2,2.6-0.4,4-0.4c0.3,0,0.5,0,0.8-0.1c-1,0.1-0.1,0,0.1,0c0.5,0,1.1,0,1.6,0
			s1,0,1.5,0c0.2,0,0.4,0,0.7,0c-1.2,0-0.5,0-0.2,0s0.6,0.1,0.8,0.1c0.5,0-0.8-0.2-0.5-0.1c0,0-1.6-0.4-1.4-1
			c0.1-0.2,0.3-0.4,0.4-0.6c0.4-0.4,1.4-0.5,1.8-0.6c0.2,0,1.1,0,0.5,0c-0.3,0-0.6,0-0.9,0c-0.6,0,0.9,0.1,0.1,0c-0.2,0-0.5,0-0.7,0
			c-0.7-0.1-1.5-0.1-2.2-0.2c-5.4-0.5-10.9-0.1-16.2,0.8c-5.2,0.8-10.2,2.1-15.2,3.7c-3,0.9-5.9,1.9-8.7,3.3
			c-0.7,0.3-2.1,0.9-1.7,1.8c0.4,0.8,2.1,0.9,2.8,1c0.9,0,1.7,0,2.6-0.2c1.3-0.3,2.6-0.8,3.9-1.2c1.9-0.5,3.6-0.5,5.4-0.3
			c4,0.4,7.9,1.6,11.6,3.1c0.7,0.3,1.4,0.6,2.1,1c0.6,0.3,0.5,0.2,1.2,0.6c0.3,0.2,0.5,0.4,0.8,0.5c-1.9-0.9,6.2-1.5,4.2-1.6
			c0.6,0,0.4,0.1-0.1,0c-4.6-1.9-8.2-4.8-10.2-9.4c-1-2.3-1.6-5-1.5-7.5c0.1-1.8-6.1-1.8-6.4,0c-1.4,7.6-2.9,15.1-4.3,22.7
			C52.9,71.1,59.3,71.5,59.7,69.6z"/>
	</g>
	<g>
		<path d="M63.5,38.8c-0.4-2.5-0.5-5.1-0.5-7.7c0-4.3,0.3-9,2.4-12.8c0.4-0.8,1-1.6,1.6-2.3c0.4-0.4,0.8-0.6,1.2-0.9
			c-0.1,0.1,0.2-0.2,0.2-0.1c-0.1-0.1-1,0.1-1.1,0.1c-0.5,0-1.4-0.2-1.4-0.2c0.1,0.2-0.2-0.1,0.2,0.1c0.3,0.2,0.6,0.4,0.9,0.7
			c0.7,0.7,1.3,1.5,1.8,2.4c1.8,3,3,6.3,3.4,9.8c0.5,4.6,0.6,9.3,0.2,13.8c-0.2,2.4-0.5,4.9-1.2,7.2c-0.8,2.5-2.5,4.9-4.1,7
			c-0.8,1-1.6,2-2.6,2.8c-0.4,0.3-0.8,0.6-1.3,0.8c-0.4,0.2-0.8,0.1-0.1,0.2c-0.7-0.1,0,0,0.2,0c0,0-1-0.1-0.4,0
			c0.5,0.1-1.1-0.3-0.6-0.2c-1.1-0.3-2-0.9-2.9-1.5c-4.9-3.6-6.7-10.1-7.8-15.7c-1.3-6.8-1.4-13.8,1.6-20.2c1.2-2.4,2.7-5,5-6.5
			c0.8-0.6,1.9-0.8,2.7-1c0.3,0,0.5-0.1,0.8-0.1c0.1,0,1.3-0.1,0.3,0c0.3,0,0.6,0,0.9,0c1,0,3.8-0.1,3.9-1.5s-3.1-1.5-3.9-1.5
			c-2.9,0-6,0.3-8.8,1.4c-2.6,1-4.7,2.9-6.3,5.1c-4.1,5.8-5.1,12.7-4.5,19.7c0.6,6.7,2.2,14.7,7,19.8c4.4,4.7,11.6,6.8,17.9,4.6
			c3.1-1.1,5.4-3.6,7.3-6.3c1.8-2.5,3.2-4.9,3.9-7.9c1.3-5.5,1.3-11.3,0.9-16.9c-0.3-4.1-1.1-7.9-2.9-11.7c-1-2.1-2.3-4.2-4.3-5.5
			c-2.7-1.9-6.7-2.1-9.8-0.9c-5.9,2.2-7.4,9.2-7.8,14.6c-0.3,3.8-0.2,7.7,0.3,11.5C56.1,41.1,63.8,40.8,63.5,38.8L63.5,38.8z"/>
	</g>
	<g>
		<path d="M80.6,11C84,22.6,86,34.9,86.2,46.9c0.1,5-0.2,10-1.2,14.9c-0.4,1.8,7.3,2.4,7.7,0c1.7-8.7,1.4-17.7,0.4-26.4
			c-0.8-6.9-2.1-13.8-3.8-20.5c-0.3-1.3-0.7-2.6-1-3.9C87.7,8.6,80.2,9.4,80.6,11L80.6,11z"/>
	</g>
	<g>
		<path d="M96.4,33.5c2.3,4.5,3.5,9.7,4.1,14.7c0.4,3.6,0.5,7.3,0.1,10.9c-0.1,0.5-0.1,1.1-0.2,1.6c-0.1,0.4-0.3,0.7,0,0.1
			c2.5,0.1,5.1,0.3,7.6,0.4c0-0.1,0.1-0.3,0.1-0.4c0-0.1,0.1-0.3,0.1-0.4c0.2-0.5-0.1,0.1,0.1-0.3c0.5-1.2,1-2.4,1.7-3.5
			c1-1.6,2.2-3.2,3.6-4.5c0.6-0.5,1.6-1.4,2.4-2c0.9-0.7,2.3-1.5,3.1-1.9c0.7-0.4,1.5-0.7,2.2-1c0.4-0.2,0.8-0.3,1.2-0.4
			c0.2-0.1,0.3-0.1,0.5-0.2c1-0.3-0.3,0.1,0.3-0.1c2.1-0.6,3.5-0.8,5.5-1.1c0.9-0.1,3.3-0.5,2.7-1.9c-0.6-1.3-3.7-1.2-4.8-1.1
			c-10.4,1.1-21.6,6-25.7,16.3c-0.2,0.5-0.9,1.8-0.7,2.3c0.4,1.3,2.2,1.4,3.3,1.5c1.2,0.1,3.5,0.1,4.2-1.1c0.4-0.6,0.4-1.7,0.4-2.4
			c0.4-3.7,0.4-7.4-0.1-11c-0.6-5.2-2-10.7-4.3-15.5C102.9,30.7,95.4,31.4,96.4,33.5L96.4,33.5z"/>
	</g>
	<g>
		<path d="M95.1,35.4c3.5,0.3,7-0.1,10.5-0.7c7-1.3,13.6-4.2,19.4-8.1c1.4-1-0.5-1.9-1.4-2.1c-1.6-0.4-3.9-0.4-5.3,0.5
			c-5.1,3.4-10.5,5.8-16.4,6.9c-0.4,0.1-0.5,0.1-0.1,0c-0.3,0-0.5,0.1-0.8,0.1c-0.5,0.1-1,0.1-1.5,0.2c-0.4,0-0.9,0.1-1.3,0.1
			c-0.7,0.1,0.8,0,0.4,0c-0.2,0-0.3,0-0.5,0c-0.5,0-1,0-1.5,0c-0.7,0,1.3,0.1,0.4,0c-1.2-0.1-4-0.2-4.8,1.1
			C91.6,34.8,94.4,35.3,95.1,35.4L95.1,35.4z"/>
	</g>
	<g>
		<path d="M103.3,46.2C102.6,46.8,103,46.5,103.3,46.2c0.1-0.1,0.4-0.3,0.6-0.5c1-0.7,2.1-1.4,3.2-2c0.4-0.2,0.8-0.4,1.2-0.7
			c-0.6,0.3,0,0,0.1-0.1c0.3-0.1,0.5-0.3,0.8-0.4c1.1-0.5,2.2-1,3.3-1.4c2.9-1.2,5.9-2.2,8.7-3c0.9-0.3,2.8-1.1,1.4-2.1
			c-1.3-0.9-3.8-1-5.3-0.5c-5.8,1.7-11.5,3.6-16.7,6.5c-1.7,0.9-3.3,1.9-4.7,3.3c-0.4,0.4,0.1,1,0.4,1.2c0.6,0.4,1.6,0.6,2.3,0.7
			C100.1,47.4,102.1,47.3,103.3,46.2L103.3,46.2z"/>
	</g>
	<g>
		<path d="M121.9,11.5c0.1,0.2,0.3,0.8,0.2,0.4c0.2,0.7,0.5,1.4,0.7,2.1c0.8,2.5,1.5,5.1,2.2,7.7c2,7.9,3.5,15.9,4.1,24
			c0.4,5.4,0.5,10.8,0,16.1c-0.2,2,7.5,2.3,7.7,0c1.4-15.9-1.5-32.2-6.2-47.4c-0.4-1.3-0.8-2.5-1.2-3.8
			C128.7,8.7,121.1,9.2,121.9,11.5L121.9,11.5z"/>
	</g>
	<g>
		<path d="M212.4,26.1c3.3,11.4,5.3,23.1,2.9,34.9c-0.2,1.2,2.8,1.5,3.3,1.5c1.2,0.1,3.4,0.1,4.2-1.1c3.6-5.2,8.7-10,14.5-12.6
			c1.3-0.6,1.4-1.6,0-2.2c-1.5-0.6-3.9-0.7-5.5,0c-6.5,2.9-12.4,8-16.5,13.9c2.5,0.1,5.1,0.3,7.6,0.4c2.4-11.8,0.4-23.5-2.9-34.9
			C219.4,23.8,211.9,24.5,212.4,26.1L212.4,26.1z"/>
	</g>
	<g>
		<path d="M229.7,26.1c3.3,11.4,5.3,23.1,2.9,34.9c2.6,0,5.1,0,7.7,0c0.4-2.1,1-4.2,1.8-6.2c0.7-1.7,1.6-3.3,2.7-4.8
			c0.5-0.7,1.1-1.4,1.8-1.9c0.4-0.3,0.8-0.6,1.2-0.8c0.1-0.1,0.9-0.4,0.5-0.3c1-0.3,2.7-1,1.4-2.1c-1.2-1-3.9-1-5.3-0.5
			c-7.2,2.2-10.6,9.7-11.8,16.6c-0.3,1.9,7.2,2.3,7.7,0c2.4-11.8,0.4-23.5-2.9-34.9C236.7,23.8,229.2,24.5,229.7,26.1L229.7,26.1z"
			/>
	</g>
	<g>
		<path d="M143.2,24.5c-4.5,6.3-9.1,12.7-13.6,19c-0.2,0.3-0.2,0.5,0,0.8c3.9,4.9,8.4,9.3,13.1,13.4c4.2,3.7,8.7,7,13.6,9.8
			c2.1,1.2,4.4,2.1,6.4,3.3c0.3,0.2,0.6,0.4,0.9,0.6c0.4,0.3-0.1,0,0,0c0,0,0.2,0.2,0.2,0.3c0-0.3-0.2,0,0-0.3
			c-0.1,0.2,0.5-0.3,0.2-0.2c-0.4,0.2,0.7-0.3,0.2-0.1c-0.5,0.2,0.7-0.1,0.3-0.1c-0.1,0-0.3,0.1-0.4,0.1c-0.8,0.1,0.9-0.1,0.2,0
			c-0.2,0-0.5,0.1-0.7,0.1c-2.5,0.3-5,0.4-7.6,0.5c-7.6,0.4-15.3,1-22.8,2.6c-8.5,1.8-17.5,5.1-23,12c-1,1.2,2.1,1.8,2.7,1.9
			c1.4,0.2,3.8,0.2,4.8-1.1c2.1-2.7,5.1-4.9,8-6.3c3.6-1.8,6.8-2.8,10.6-3.7c4-0.9,7-1.3,11.3-1.8c3.5-0.4,7-0.6,10.6-0.8
			c2.5-0.1,5.1-0.2,7.6-0.5c1.5-0.2,4.7-0.4,5.5-2c0.9-1.6-2.2-3-3.2-3.5c-5.2-2.5-10.1-5.4-14.7-9c-6-4.7-11.7-10.1-16.4-16
			c0,0.3,0,0.5,0,0.8c4.5-6.3,9.1-12.7,13.6-19c0.9-1.2-2-1.8-2.7-1.9C146.6,23.2,144.1,23.2,143.2,24.5L143.2,24.5z"/>
	</g>
	<g>
		<path d="M180.1,31.6c2.7-4.6,5.5-9.4,7-14.5c0.5-1.8,0.7-4.6-0.3-6.3c-0.8-1.4-2.6-1.8-4.1-2c-2.2-0.2-4.5,0.2-6.5,1.1
			c-7.6,3.4-13.6,10.1-19,16.2c-3.7,4.2-7.8,8.6-10.8,13.4c-1.2,1.9-2.4,4.2-2.7,6.5c-0.4,3.1,2.3,4.4,5.1,4.7
			c4.4,0.5,8.7-1.2,12.8-2.7c4.3-1.5,8.6-3.1,13-4.5c4.5-1.5,9-2.9,13.5-4c2-0.5,4-0.9,5.9-1.2c0.9-0.1,1.9-0.2,2.8-0.3
			c0.1,0,0.9-0.1,0.5,0c-0.4,0,0.2,0,0.2,0c0.5,0,1,0,1.5,0c1.9,0,3.5,0.1,4.8,0.8c-0.3-0.1,0.3,0.2,0.4,0.3
			c0.3,0.2,0.2,0.1,0.3,0.3c0.3,0.4,0.5,0.7,0.5,1c0.4,1.8-0.8,3.5-1.8,4.9c-3.2,4.6-6.9,9-10.6,13.3c-4.5,5.3-9.1,10.8-14.5,15.2
			c-0.9,0.7-1.8,1.4-2.8,2c2.4,0.4,4.7,0.8,7.1,1.2c1.8-3.7,3.1-7.8,3.9-11.8c1.4-6.6,1.5-14.2-2.9-19.8c-1-1.2-3.3-1.2-4.8-1.1
			c-0.6,0.1-3.7,0.7-2.7,1.9c4.3,5.3,4,12.6,2.7,19c-0.8,3.8-2,7.6-3.6,11c-0.6,1.2,1.4,1.7,2.2,1.8c1.6,0.3,3.4,0.2,4.8-0.6
			c5.1-3.1,9.2-8.1,13.1-12.4c4.5-5,8.7-10.1,12.8-15.4c2-2.6,5.9-6.6,4.3-10.2c-1.3-2.9-5.6-3.6-8.4-4c-4.4-0.6-9-0.4-13.4,0.3
			c-9.2,1.5-18.1,4.5-26.9,7.5c-3.9,1.3-7.7,2.8-11.6,4.1c-0.3,0.1-0.6,0.2-0.9,0.3c-0.3,0.1-0.5,0.1-0.8,0.2c-0.5,0.1,0,0,0,0
			c-0.2,0.1-0.8-0.1,0.1,0c-0.1,0-0.6,0,0,0c0.5,0,1.1,0.2,1.1,0.2c0.1,0,0.1,0.1,0,0s-0.2-0.3-0.2-0.4c0,0-0.1-0.8-0.1-1.1
			c0.2-3.9,3.3-7.5,5.6-10.4c4.7-5.9,9.6-11.7,15.1-16.9c2.7-2.6,5.7-5,9-6.8c0.4-0.2,0.8-0.4,1.2-0.5c0.4-0.2,0,0,0,0
			c0.1-0.2,0.9,0-0.2,0c-0.5,0-0.8,0-1.3,0c-0.5-0.1-1.2-0.4-1.6-0.4c0.1,0,0-0.2,0.2,0.2c0.4,0.7,0.4,1.6,0.4,2.6
			c0.1,2.6-0.9,5-2,7.3c-1.3,2.7-2.7,5.4-4.2,8.1c-0.3,0.5-0.5,0.9-0.8,1.4C171.6,32.7,179,33.6,180.1,31.6L180.1,31.6z"/>
	</g>
	<g>
		<path d="M231.7,10.3C231.7,10.2,231.7,10.2,231.7,10.3c0,0,0,0,0,0.1c0-0.2,0-0.3,0-0.5c0-0.1,0.1-0.1,0.1-0.2
			c0.1-0.2-0.2,0.2,0,0c0.1-0.1,0.1-0.1-0.1,0.1c-0.1,0.2-0.3,0.3-0.5,0.5c-0.6,0.6-1.4,1.1-2.1,1.5c-0.1,0.1-0.5,0.3-0.7,0.3
			c0.1,0,0.2-0.1,0.2-0.1h0.1c0.1,0,0.1,0-0.1,0c0,0,0.2,0,0.3,0c0.2,0,0.4,0,0.5,0c0.4,0,0.7,0.1,1.1,0.2c-0.1,0-0.1,0-0.2-0.1
			c1.4,0.5,2.1,2,2.2,3.5c0-0.1,0-0.1,0-0.2c0,0.6-0.1,1.3-0.3,1.9c0,0.1-0.1,0.3-0.2,0.4c0,0.1-0.1,0.1-0.1,0.2
			c0,0-0.2,0.3-0.1,0.1c0.1-0.2,0,0.1-0.1,0.1c0,0.1-0.1,0.1-0.1,0.2s-0.1,0.1-0.1,0.2c-0.2,0.3,0.3-0.3,0.1-0.1
			c-0.3,0.3,0.5-0.4,0.1-0.1c0.6-0.6,1.3-1,1.8-1.3c-0.3,0.2,0.5-0.2,0.3-0.1c-0.3,0.1,0.1,0,0.2-0.1c-0.2,0-0.3,0.1-0.5,0.1
			c0.2,0,0.1,0,0,0s-0.2,0-0.3,0c-0.2,0-0.4,0-0.6,0c-0.4,0-0.7-0.1-1.1-0.2c0.1,0,0.1,0,0.2,0.1c-1.8-0.7-3.3-2.3-3.4-4.3
			c0,0.1,0,0.1,0,0.2c0-0.5,0.1-1,0.2-1.5c0-0.1,0.1-0.2,0.1-0.3c-0.1,0.3,0,0,0.1-0.1c0-0.1,0.1-0.1,0.1-0.2
			c0.1-0.2,0.1-0.1-0.1,0.1l0.1-0.1c0.2-0.2,0.1-0.1-0.2,0.2c0.1-0.1,0.1-0.1-0.1,0.1c-0.2,0.2-0.4,0.4-0.7,0.5
			c-0.3,0.2-0.6,0.4-0.9,0.6c-0.4,0.2-0.5,0.2-0.3,0.2c0.4-0.2-0.4,0.1,0,0c0.1,0,0.2-0.1,0.3-0.1c-0.3,0.1,0.1,0,0.2,0
			c0.1,0,0.3,0,0.4,0c0.3,0,0.5,0.1,0.8,0.2c0.3,0.1,1.2-0.4,1.4-0.5C230.5,11.3,231.1,10.8,231.7,10.3c0.5-0.3,1.1-0.7,1.4-1.3
			c0.1-0.2,0.3-0.4,0-0.6c-2-0.7-4.2,0.8-5.7,1.9c-1.6,1.1-3.5,2.7-3.8,4.8c-0.4,2.6,1.8,5,4.3,5.5c1.8,0.3,3.5-0.6,5-1.5
			c1.8-1.2,3.6-2.6,4.4-4.6c0.8-1.8,0.6-4.7-1.4-5.8c-1.3-0.7-2.7-0.5-4,0c-1.6,0.7-3.2,1.8-4.3,3.1c-0.6,0.6-0.9,1.2-0.8,2
			c0,0.3,1.1-0.2,1-0.2c0.7-0.3,1.3-0.7,1.9-1.1c0.6-0.4,1.2-0.9,1.7-1.4C231.4,10.9,231.7,10.6,231.7,10.3L231.7,10.3z"/>
	</g>
	<g>
		<path d="M213.2,10c-0.2-0.3-0.3-0.6-0.3-0.9c0,0.1,0,0.1,0,0.2c0-0.3,0-0.5,0.1-0.8c0-0.1,0.1-0.1,0.1-0.2c-0.1,0.1-0.1,0.1,0,0
			c0.1-0.2,0.1-0.1-0.1,0.1c0.2-0.2,0.1-0.1-0.3,0.2c-0.7,0.7-1.5,1.2-2.4,1.6c-0.3,0.1-0.3,0.1-0.1,0c0.2,0,0.2,0,0,0
			c0.1,0,0.1,0,0.2,0c0.4,0,0.7,0.1,1.1,0.2c-0.1,0-0.1,0-0.2-0.1c2.2,0.8,2.9,3,3,5.1c0-0.1,0-0.1,0-0.2c0,0.9,0,1.9-0.1,2.8
			c0,0.5-0.1,0.9-0.3,1.4c0,0.1-0.3,0.6-0.1,0.4c-0.3,0.4,0.2-0.2,0,0.1c0.7-0.8,1.7-1.5,2.7-1.9c-0.3,0.1,0.5-0.1,0,0
			c-0.1,0-0.1,0-0.2,0.1c0.2,0,0.2,0,0,0s-0.3,0-0.4,0c-0.6,0-1.2-0.1-1.8-0.3c0.1,0,0.1,0,0.2,0.1c-2.1-0.8-3-2.8-3.1-4.9
			c0,0.1,0,0.1,0,0.2c0-1.4,0.3-2.8,0.7-4.2c0.1-0.4-0.4-0.2-0.5-0.2c-0.6,0.2-1.2,0.5-1.7,0.8c-0.7,0.4-1.3,0.9-1.9,1.4
			c-0.3,0.3-0.8,0.7-0.9,1.1c-0.8,2.4-1.2,5.4,0.2,7.6c1.2,1.8,3.5,2.4,5.5,1.8c1-0.3,2-0.9,2.9-1.5c1.1-0.7,2.1-1.6,3-2.6
			c0.9-1.2,0.9-2.7,1-4.1c0.1-2.6-0.3-5.9-3.3-6.8c-0.7-0.2-1.4-0.1-2.1,0.1c-1.6,0.6-3.1,1.7-4.4,2.8c-1,1-2.4,2.5-1.4,4
			c0.1,0.2,0.9-0.1,1-0.2c0.7-0.3,1.3-0.7,1.9-1.1c0.6-0.4,1.2-0.9,1.7-1.4C212.8,10.7,213.3,10.3,213.2,10L213.2,10z"/>
	</g>
	<g>
		<path d="M83.1,78.5c1.1,2.2,1.9,4.7,2.7,7c2.3,7.2,3.6,14.7,4.6,22.2c0.8,6.4,1.1,12.8,1.2,19.2c0,2.2,7.8,2.2,7.7,0
			c-0.3-15.7-1.9-32.1-7.7-46.8c-0.3-0.8-0.6-1.6-1-2.4C89.6,75.8,82.1,76.5,83.1,78.5L83.1,78.5z"/>
	</g>
	<g>
		<path d="M68,81.2c6.8,2.4,13.4,5.2,20,8.1c11.2,5,22.4,10.4,31.9,18.1c3.3,2.6,7.8,6.4,8.6,10.6c0.8,4.4-3.3,7-6.9,8.6
			c-1.9,0.8-3.8,1.4-5.7,2.1c-0.3,0.1-0.6,0.2-1,0.3c-0.2,0.1-0.5,0.2-0.7,0.2c-0.1,0-0.2,0.1-0.3,0.1c-1,0.3,0.9-0.2,0.2-0.1
			c-1.6,0.5-3.3,0.9-5,1.3c-1,0.2-2,0.4-3,0.6c-0.5,0.1-1.1,0.2-1.6,0.3c-1.2,0.2,1.1-0.2-0.1,0c-0.4,0.1-0.7,0.1-1.1,0.2
			c-1.5,0.2-3,0.4-4.5,0.5c-0.8,0.1-1.6,0.1-2.4,0.2c0.2,0,1.1,0,0.2,0c-0.6,0-1.1,0-1.7,0.1c-1.6,0-3.1,0-4.7,0c1.3,0-0.2,0-0.4,0
			c-0.4,0-0.9-0.1-1.3-0.1c-0.9-0.1-1.8-0.2-2.7-0.3c-0.4-0.1-0.9-0.1-1.3-0.2c0.9,0.1-0.5-0.1-0.6-0.1c-0.9-0.2-1.8-0.4-2.7-0.6
			c-2-0.5-3-0.8-4.8-1.4c-3.6-1.3-7-3.1-10.2-5.3c-1.9-1.3-4.9-1.2-7-0.7c-1.2,0.3-3.7,1.5-1.8,2.8c19,13.2,45,12.2,66.1,5
			c5-1.7,11.9-3.9,14.5-8.9c2.2-4.2-0.3-8.6-3.2-11.8c-8.8-9.7-21.4-15.9-33.1-21.5c-8.6-4.1-17.4-7.8-26.4-11
			c-2.2-0.8-5.1-0.9-7.3,0C66.3,79,66.1,80.5,68,81.2L68,81.2z"/>
	</g>
	<g>
		<path d="M152.3,101.6c-0.3-1.8-0.2-3.6,0.2-5.4c0.2-0.7,0.5-1.5,0.8-2.1c0.4-0.8,1.2-1.3,1.6-2l0.3-0.2c-0.2,0-0.5,0.1-0.7,0.1
			c0.5,0,0.5,0,0.2,0c0.1,0,0.7,0,0.8,0.1c1.3,0.2,2.6,0.9,3.7,1.7c5.5,3.8,8,10.9,7.4,17.4c-0.5,5.5-3.8,12.4-9.7,13.7
			c-0.4,0.1-0.8,0.1-1.1,0.1c0.6,0-0.2,0-0.4,0c-0.7-0.1,0.8,0.2-0.4-0.1c-1.3-0.3-2.5-1-3.7-1.8c-2.5-1.8-4.4-4.5-5.6-7.4
			c-1.5-3.6-1.8-7.6-1.1-11.4c0.6-3.4,2-7.2,4.8-9.5c1.3-1-0.4-1.9-1.4-2.1c-1.5-0.3-4-0.5-5.3,0.5c-6.5,5.2-7.5,15.3-4.7,22.6
			c3.2,8.2,11.2,12.8,20,12.1c8.6-0.7,14.8-7.1,16.1-15.4c1.3-8-2.2-17-9.5-21c-4.2-2.3-10.3-3.6-14.9-1.7
			c-4.5,1.9-5.9,7.6-5.2,11.9C144.9,103.9,152.6,103.5,152.3,101.6L152.3,101.6z"/>
	</g>
	<g>
		<path d="M169.8,107.2c0.9,2.3,1.8,4.7,2.7,7.1c1.1,3.2,2.6,6.9,2.7,10.3c0,0.3-0.1,0.8,0,1.1c0.2,1.2,1.8,1.5,2.9,1.6
			c1.8,0.2,4.3,0.1,5.1-1.8c1.1-2.6,1.9-5.5,2.7-8.2c1.1-3.5,2.1-7,3.2-10.4c0.7-2.2,1-4.7,2.5-6.6c0.4-0.6,0.8-0.9,1.2-1.3
			c0.2-0.2,0.5-0.3,0.7-0.5c0.4-0.3,0.1,0,0,0c0.1-0.1,0.5-0.2,0.6-0.2c-0.1,0-0.8,0.2-0.9,0.2c0.6-0.1-0.4,0-0.4,0
			c-0.4,0-0.7-0.1-1.1-0.1c-0.8-0.1-0.2-0.2-0.1,0c0.2,0.3-0.3-0.2,0,0c0.1,0.1,0.3,0.2,0.4,0.3c0.2,0.2,0.5,0.5,0.7,0.8
			c1.5,2,2.1,4.6,2.5,7c0.7,3.5,1.3,7.1,2,10.6c1.5,8.2,3.1,16.4,4.5,24.7c0.4,2.3,8.1,1.9,7.7,0c-0.8-4.4-1.6-8.8-2.4-13.2
			c-0.9-4.8-1.8-9.5-2.6-14.3c-0.9-4.7-1.2-10.1-3.5-14.4c-3.1-5.9-11.9-5.7-16.1-1.1c-1.4,1.5-2,3.3-2.5,5.3
			c-0.7,2.4-1.4,4.7-2.1,7c-0.9,3.1-1.9,6.3-2.9,9.4c-0.4,1.1-0.7,2.2-1.1,3.4c-0.1,0.3-0.3,0.7-0.4,1c-0.1,0.5-0.5,0.6,0.1,0.2
			c1.1-0.3,2.2-0.5,3.3-0.8l0,0c1.1,0.3,2.2,0.5,3.3,0.8c1.3,1.1,0.3,0.9,0.5,0.4c0.1-0.2,0-0.6,0-0.9c0-0.9-0.2-1.7-0.4-2.5
			c-0.5-2.2-1.2-4.4-1.9-6.6c-1-3.1-2.1-6.1-3.4-9.1C176.5,104.5,168.9,105,169.8,107.2L169.8,107.2z"/>
	</g>
	<g>
		<path d="M209.5,90.4c0,0,8.6,18.3,4.3,35.5"/>
		<g>
			<path d="M205.7,90.8c1.6,3.5,2.8,7.3,3.7,11.1c1.9,7.8,2.4,16.1,0.5,24c-0.4,1.7,7.1,2.4,7.7,0c1.9-8,1.3-16.4-0.6-24.4
				c-0.9-3.9-2.1-7.9-3.8-11.5C212.3,88.1,204.7,88.7,205.7,90.8L205.7,90.8z"/>
		</g>
	</g>
	<g>
		<path d="M231.9,125.9c0.2-5.5-0.3-11.2-1.1-16.7c-0.7-4.9-1.7-9.7-3.3-14.4c-0.4-1.2-0.8-2.1-1.1-3.2c-0.1-0.3-0.1-0.9-0.2-1.2
			c0.3,0.8-7,0.7-6.9,0.7l0.2,0.1c0,0-0.4-0.5-0.2-0.1c0.1,0.1,0.2,0.2,0.3,0.3c0.5,0.5,0.9,1.1,1.3,1.7c1.3,1.8,2.5,3.6,3.7,5.4
			c3.3,4.9,6.6,9.9,10,14.8c3.1,4.4,6.3,9.4,10.7,12.8c1.1,0.8,3.1,0.8,4.4,0.7c0.8-0.1,2.9-0.4,2.8-1.5c-0.2-7.6,0.9-15.3,2.3-22.8
			c0.8-4.1,1.6-8.2,2.7-12.2c0.4-1.7-7.1-2.4-7.7,0c-1.1,4-1.9,8.1-2.7,12.2c-1.4,7.5-2.6,15.1-2.3,22.8c2.4-0.3,4.8-0.5,7.2-0.8
			c-0.9-0.7-1-0.8-1.8-1.7c-0.9-0.9-1.7-1.9-2.5-2.8c-1.9-2.3-3.7-4.8-5.4-7.2c-3.6-5.1-7-10.4-10.5-15.6c-1.2-1.8-2.4-3.6-3.7-5.4
			c-1.2-1.6-2.3-2.7-4.5-3c-1.3-0.1-4.7-0.2-5.1,1.6c-0.1,0.4,0.1,0.9,0.2,1.2c1.1,3.9,2.6,7.7,3.4,11.7c1.5,7.3,2.3,14.9,2,22.4
			C224.1,128,231.8,128.1,231.9,125.9L231.9,125.9z"/>
	</g>
	<g>
		<path d="M208.6,80c-3.4,0.2-6.4-1.8-8-4.7c-1.5-2.7-1.4-5.8,0.4-8.1c0.4-0.5-0.2,0.1,0.1-0.1c0.4-0.2-0.5,0.4-0.4,0.3
			c-0.1,0.1-0.6,0.4-0.1,0.1c-0.5,0.4-0.2,0.1,0,0c-0.4,0.1,0.4-0.1,0.5-0.2c0.4-0.1,0.7-0.2,1.1-0.3c1.4-0.3,2.9-0.2,4.2,0.3
			c3.4,1.3,5.4,4.9,6.7,8.1c0.4,1.1,0.8,2.3,0.6,3.4c-0.1,0.4-0.2,0.9-0.4,1.3c0,0.1-0.3,0.4-0.3,0.4c-0.1-0.2,1.3-1,1.6-1.2
			c0.8-0.4,0-0.1-0.2,0c-0.2,0-0.5,0-0.7,0c-0.5,0-0.9-0.1-1.3-0.2c-1-0.3-1.8-0.9-2.4-1.8c-0.6-0.7-5.5,2.9-5,3.6
			c1.4,1.8,3.7,2.5,5.8,1.9c1.6-0.5,3.1-1.5,4.4-2.5c1.2-0.9,2.3-2,3-3.3c1.2-2.3,0.2-4.7-0.8-6.8c-1-2.1-2.3-4.2-4.2-5.5
			c-3.4-2.5-7.6-1.7-11.1,0.3c-3.9,2.2-8.1,5.8-7.5,10.7c0.5,4.5,4.8,8.2,9.4,7.9c1.2-0.1,2.5-1.2,3.3-1.9c0.5-0.4,1-0.8,1.3-1.3
			C208.7,80.4,209,79.9,208.6,80L208.6,80z"/>
	</g>
	<g>
		<path d="M38.1,25.8c-3.7-5.7-8.3-10.8-13.5-15.1c-0.5-0.4-1.7-0.6-2.3-0.7c-0.8-0.1-1.7-0.1-2.5,0.1c-0.9,0.2-2.7,0.6-2.2,1.8
			c0.1,0.2,0.2,0.5,0.3,0.7c0.2,0.5,1.4,0.8,1.8,0.9c0.9,0.2,2,0.3,3,0.2c0.9-0.1,3.3-0.5,2.7-1.9c-0.1-0.2-0.2-0.5-0.3-0.7
			c-2.4,0.4-4.7,0.8-7.1,1.2c4.9,4.1,9.2,9,12.7,14.4c0.3,0.5,1.2,0.8,1.8,0.9c0.9,0.2,2,0.3,3,0.2C36.1,27.6,39,27.1,38.1,25.8
			L38.1,25.8z"/>
	</g>
	<g>
		<path d="M29.4,28.8c-2.9-3.3-5.8-6.5-8.9-9.6c-0.7-0.7-1.5-1.5-2.3-2.2s-1.5-1.6-2.4-2.2c-1.3-0.9-3-1.2-4.6-1.2
			c-1.4,0-3.8,0.2-4.6,1.6C5.8,16.5,8.5,17,9.3,17c1,0.1,2,0.1,3-0.2c0.6-0.2,1.5-0.4,1.8-0.9l0.1-0.1c-1.7,0.2-3.4,0.3-5.1,0.5
			c0.5,0.1-0.1-0.2,0,0c0.2,0.2,0.4,0.3,0.6,0.4c0.6,0.6,1.2,1.1,1.8,1.7c1.2,1.2,2.5,2.4,3.7,3.7c2.4,2.5,4.7,5,6.9,7.6
			c1,1.2,3.3,1.3,4.8,1.1C27.3,30.6,30.4,30,29.4,28.8L29.4,28.8z"/>
	</g>
	<g>
		<path d="M269.6,96.2c1.8-6.9,5.2-13.3,9.7-18.9c1-1.2-2.1-1.8-2.7-1.9c-1.4-0.1-3.7-0.2-4.8,1.1c-4.7,5.8-8.1,12.5-10,19.7
			c-0.1,0.5,0.9,1,1.1,1.1c0.8,0.3,1.9,0.5,2.7,0.4C266.9,97.7,269.2,97.6,269.6,96.2L269.6,96.2z"/>
	</g>
	<g>
		<path d="M279.5,97.7c3-8.4,7.8-16.1,13.9-22.6c1.1-1.1-2.2-1.8-2.7-1.9c-1.5-0.1-3.6-0.1-4.8,1.1c-6.1,6.6-10.8,14.3-13.9,22.6
			c-0.5,1.4,1.7,1.8,2.7,1.9s2,0.1,3-0.2C278.2,98.5,279.3,98.2,279.5,97.7L279.5,97.7z"/>
	</g>
</g>
</svg>
